<svg width="208" height="35" viewBox="0 0 208 35" fill="none" xmlns="http://www.w3.org/2000/svg">
<g opacity="0.2">
<g opacity="0.5">
<rect y="10.1692" width="14.3808" height="14.3808" rx="4" transform="rotate(-45 0 10.1692)" fill="url(#paint0_radial_1316_1492)"/>
<rect x="26.7832" y="10.1689" width="14.3808" height="14.3808" rx="4" transform="rotate(-45 26.7832 10.1689)" fill="url(#paint1_radial_1316_1492)"/>
<rect x="53.5625" y="10.1689" width="14.3808" height="14.3808" rx="4" transform="rotate(-45 53.5625 10.1689)" fill="url(#paint2_radial_1316_1492)"/>
<rect x="80.3438" y="10.1689" width="14.3808" height="14.3808" rx="4" transform="rotate(-45 80.3438 10.1689)" fill="url(#paint3_radial_1316_1492)"/>
<rect x="107.129" y="10.1692" width="14.3808" height="14.3808" rx="4" transform="rotate(-45 107.129 10.1692)" fill="url(#paint4_radial_1316_1492)"/>
<rect x="133.908" y="10.1689" width="14.3808" height="14.3808" rx="4" transform="rotate(-45 133.908 10.1689)" fill="url(#paint5_radial_1316_1492)"/>
<rect x="160.689" y="10.1689" width="14.3808" height="14.3808" rx="4" transform="rotate(-45 160.689 10.1689)" fill="url(#paint6_radial_1316_1492)"/>
<rect x="187.471" y="10.1689" width="14.3808" height="14.3808" rx="4" transform="rotate(-45 187.471 10.1689)" fill="url(#paint7_radial_1316_1492)"/>
</g>
<g opacity="0.5">
<rect y="37.553" width="14.3808" height="14.3808" rx="4" transform="rotate(-45 0 37.553)" fill="url(#paint8_radial_1316_1492)"/>
<rect x="26.7832" y="37.553" width="14.3808" height="14.3808" rx="4" transform="rotate(-45 26.7832 37.553)" fill="url(#paint9_radial_1316_1492)"/>
<rect x="53.5625" y="37.553" width="14.3808" height="14.3808" rx="4" transform="rotate(-45 53.5625 37.553)" fill="url(#paint10_radial_1316_1492)"/>
<rect x="80.3438" y="37.553" width="14.3808" height="14.3808" rx="4" transform="rotate(-45 80.3438 37.553)" fill="url(#paint11_radial_1316_1492)"/>
<rect x="107.129" y="37.553" width="14.3808" height="14.3808" rx="4" transform="rotate(-45 107.129 37.553)" fill="url(#paint12_radial_1316_1492)"/>
<rect x="133.906" y="37.553" width="14.3808" height="14.3808" rx="4" transform="rotate(-45 133.906 37.553)" fill="url(#paint13_radial_1316_1492)"/>
<rect x="160.69" y="37.553" width="14.3808" height="14.3808" rx="4" transform="rotate(-45 160.69 37.553)" fill="url(#paint14_radial_1316_1492)"/>
<rect x="187.471" y="37.553" width="14.3808" height="14.3808" rx="4" transform="rotate(-45 187.471 37.553)" fill="url(#paint15_radial_1316_1492)"/>
</g>
</g>
<defs>
<radialGradient id="paint0_radial_1316_1492" cx="0" cy="0" r="1" gradientUnits="userSpaceOnUse" gradientTransform="translate(7.1904 17.3596) rotate(85.3036) scale(13.7819)">
<stop stop-color="#373737"/>
<stop offset="1" stop-color="#FAFAFA" stop-opacity="0"/>
</radialGradient>
<radialGradient id="paint1_radial_1316_1492" cx="0" cy="0" r="1" gradientUnits="userSpaceOnUse" gradientTransform="translate(33.9736 17.3593) rotate(85.3036) scale(13.7819)">
<stop stop-color="#373737"/>
<stop offset="1" stop-color="#FAFAFA" stop-opacity="0"/>
</radialGradient>
<radialGradient id="paint2_radial_1316_1492" cx="0" cy="0" r="1" gradientUnits="userSpaceOnUse" gradientTransform="translate(60.7529 17.3593) rotate(85.3036) scale(13.7819)">
<stop stop-color="#373737"/>
<stop offset="1" stop-color="#FAFAFA" stop-opacity="0"/>
</radialGradient>
<radialGradient id="paint3_radial_1316_1492" cx="0" cy="0" r="1" gradientUnits="userSpaceOnUse" gradientTransform="translate(87.5341 17.3593) rotate(85.3036) scale(13.7819)">
<stop stop-color="#373737"/>
<stop offset="1" stop-color="#FAFAFA" stop-opacity="0"/>
</radialGradient>
<radialGradient id="paint4_radial_1316_1492" cx="0" cy="0" r="1" gradientUnits="userSpaceOnUse" gradientTransform="translate(114.319 17.3596) rotate(85.3036) scale(13.7819)">
<stop stop-color="#373737"/>
<stop offset="1" stop-color="#FAFAFA" stop-opacity="0"/>
</radialGradient>
<radialGradient id="paint5_radial_1316_1492" cx="0" cy="0" r="1" gradientUnits="userSpaceOnUse" gradientTransform="translate(141.099 17.3593) rotate(85.3036) scale(13.7819)">
<stop stop-color="#373737"/>
<stop offset="1" stop-color="#FAFAFA" stop-opacity="0"/>
</radialGradient>
<radialGradient id="paint6_radial_1316_1492" cx="0" cy="0" r="1" gradientUnits="userSpaceOnUse" gradientTransform="translate(167.88 17.3593) rotate(85.3036) scale(13.7819)">
<stop stop-color="#373737"/>
<stop offset="1" stop-color="#FAFAFA" stop-opacity="0"/>
</radialGradient>
<radialGradient id="paint7_radial_1316_1492" cx="0" cy="0" r="1" gradientUnits="userSpaceOnUse" gradientTransform="translate(194.661 17.3593) rotate(85.3036) scale(13.7819)">
<stop stop-color="#373737"/>
<stop offset="1" stop-color="#FAFAFA" stop-opacity="0"/>
</radialGradient>
<radialGradient id="paint8_radial_1316_1492" cx="0" cy="0" r="1" gradientUnits="userSpaceOnUse" gradientTransform="translate(7.1904 44.7434) rotate(85.3036) scale(13.7819)">
<stop stop-color="#373737"/>
<stop offset="1" stop-color="#FAFAFA" stop-opacity="0"/>
</radialGradient>
<radialGradient id="paint9_radial_1316_1492" cx="0" cy="0" r="1" gradientUnits="userSpaceOnUse" gradientTransform="translate(33.9736 44.7434) rotate(85.3036) scale(13.7819)">
<stop stop-color="#373737"/>
<stop offset="1" stop-color="#FAFAFA" stop-opacity="0"/>
</radialGradient>
<radialGradient id="paint10_radial_1316_1492" cx="0" cy="0" r="1" gradientUnits="userSpaceOnUse" gradientTransform="translate(60.7529 44.7434) rotate(85.3036) scale(13.7819)">
<stop stop-color="#373737"/>
<stop offset="1" stop-color="#FAFAFA" stop-opacity="0"/>
</radialGradient>
<radialGradient id="paint11_radial_1316_1492" cx="0" cy="0" r="1" gradientUnits="userSpaceOnUse" gradientTransform="translate(87.5341 44.7434) rotate(85.3036) scale(13.7819)">
<stop stop-color="#373737"/>
<stop offset="1" stop-color="#FAFAFA" stop-opacity="0"/>
</radialGradient>
<radialGradient id="paint12_radial_1316_1492" cx="0" cy="0" r="1" gradientUnits="userSpaceOnUse" gradientTransform="translate(114.319 44.7434) rotate(85.3036) scale(13.7819)">
<stop stop-color="#373737"/>
<stop offset="1" stop-color="#FAFAFA" stop-opacity="0"/>
</radialGradient>
<radialGradient id="paint13_radial_1316_1492" cx="0" cy="0" r="1" gradientUnits="userSpaceOnUse" gradientTransform="translate(141.097 44.7434) rotate(85.3036) scale(13.7819)">
<stop stop-color="#373737"/>
<stop offset="1" stop-color="#FAFAFA" stop-opacity="0"/>
</radialGradient>
<radialGradient id="paint14_radial_1316_1492" cx="0" cy="0" r="1" gradientUnits="userSpaceOnUse" gradientTransform="translate(167.88 44.7434) rotate(85.3036) scale(13.7819)">
<stop stop-color="#373737"/>
<stop offset="1" stop-color="#FAFAFA" stop-opacity="0"/>
</radialGradient>
<radialGradient id="paint15_radial_1316_1492" cx="0" cy="0" r="1" gradientUnits="userSpaceOnUse" gradientTransform="translate(194.661 44.7434) rotate(85.3036) scale(13.7819)">
<stop stop-color="#373737"/>
<stop offset="1" stop-color="#FAFAFA" stop-opacity="0"/>
</radialGradient>
</defs>
</svg>
