<svg width="76" height="109" viewBox="0 0 76 109" fill="none" xmlns="http://www.w3.org/2000/svg">
<g opacity="0.2">
<g opacity="0.5">
<rect y="10.1689" width="14.3808" height="14.3808" rx="4" transform="rotate(-45 0 10.1689)" fill="url(#paint0_radial_1361_14394)"/>
<rect x="26.7832" y="10.1689" width="14.3808" height="14.3808" rx="4" transform="rotate(-45 26.7832 10.1689)" fill="url(#paint1_radial_1361_14394)"/>
<rect x="53.5625" y="10.1689" width="14.3808" height="14.3808" rx="4" transform="rotate(-45 53.5625 10.1689)" fill="url(#paint2_radial_1361_14394)"/>
</g>
<g opacity="0.5">
<rect y="64.937" width="14.3808" height="14.3808" rx="4" transform="rotate(-45 0 64.937)" fill="url(#paint3_radial_1361_14394)"/>
<rect x="26.7832" y="64.9365" width="14.3808" height="14.3808" rx="4" transform="rotate(-45 26.7832 64.9365)" fill="url(#paint4_radial_1361_14394)"/>
<rect x="53.5625" y="64.9365" width="14.3808" height="14.3808" rx="4" transform="rotate(-45 53.5625 64.9365)" fill="url(#paint5_radial_1361_14394)"/>
</g>
<g opacity="0.5">
<rect y="37.5532" width="14.3808" height="14.3808" rx="4" transform="rotate(-45 0 37.5532)" fill="url(#paint6_radial_1361_14394)"/>
<rect x="26.7832" y="37.5527" width="14.3808" height="14.3808" rx="4" transform="rotate(-45 26.7832 37.5527)" fill="url(#paint7_radial_1361_14394)"/>
<rect x="53.5625" y="37.5527" width="14.3808" height="14.3808" rx="4" transform="rotate(-45 53.5625 37.5527)" fill="url(#paint8_radial_1361_14394)"/>
</g>
<g opacity="0.5">
<rect width="14.3808" height="14.3808" rx="4" transform="matrix(0.707105 -0.707108 0.707105 0.707108 0 92.3213)" fill="url(#paint9_radial_1361_14394)"/>
<rect width="14.3808" height="14.3808" rx="4" transform="matrix(0.707105 -0.707108 0.707105 0.707108 26.7832 92.3213)" fill="url(#paint10_radial_1361_14394)"/>
<rect width="14.3808" height="14.3808" rx="4" transform="matrix(0.707105 -0.707108 0.707105 0.707108 53.5625 92.3213)" fill="url(#paint11_radial_1361_14394)"/>
</g>
</g>
<defs>
<radialGradient id="paint0_radial_1361_14394" cx="0" cy="0" r="1" gradientUnits="userSpaceOnUse" gradientTransform="translate(7.1904 17.3593) rotate(85.3036) scale(13.7819)">
<stop stop-color="#373737"/>
<stop offset="1" stop-color="#FAFAFA" stop-opacity="0"/>
</radialGradient>
<radialGradient id="paint1_radial_1361_14394" cx="0" cy="0" r="1" gradientUnits="userSpaceOnUse" gradientTransform="translate(33.9736 17.3593) rotate(85.3036) scale(13.7819)">
<stop stop-color="#373737"/>
<stop offset="1" stop-color="#FAFAFA" stop-opacity="0"/>
</radialGradient>
<radialGradient id="paint2_radial_1361_14394" cx="0" cy="0" r="1" gradientUnits="userSpaceOnUse" gradientTransform="translate(60.7529 17.3593) rotate(85.3036) scale(13.7819)">
<stop stop-color="#373737"/>
<stop offset="1" stop-color="#FAFAFA" stop-opacity="0"/>
</radialGradient>
<radialGradient id="paint3_radial_1361_14394" cx="0" cy="0" r="1" gradientUnits="userSpaceOnUse" gradientTransform="translate(7.1904 72.1274) rotate(85.3036) scale(13.7819)">
<stop stop-color="#373737"/>
<stop offset="1" stop-color="#FAFAFA" stop-opacity="0"/>
</radialGradient>
<radialGradient id="paint4_radial_1361_14394" cx="0" cy="0" r="1" gradientUnits="userSpaceOnUse" gradientTransform="translate(33.9736 72.1269) rotate(85.3036) scale(13.7819)">
<stop stop-color="#373737"/>
<stop offset="1" stop-color="#FAFAFA" stop-opacity="0"/>
</radialGradient>
<radialGradient id="paint5_radial_1361_14394" cx="0" cy="0" r="1" gradientUnits="userSpaceOnUse" gradientTransform="translate(60.7529 72.1269) rotate(85.3036) scale(13.7819)">
<stop stop-color="#373737"/>
<stop offset="1" stop-color="#FAFAFA" stop-opacity="0"/>
</radialGradient>
<radialGradient id="paint6_radial_1361_14394" cx="0" cy="0" r="1" gradientUnits="userSpaceOnUse" gradientTransform="translate(7.1904 44.7436) rotate(85.3036) scale(13.7819)">
<stop stop-color="#373737"/>
<stop offset="1" stop-color="#FAFAFA" stop-opacity="0"/>
</radialGradient>
<radialGradient id="paint7_radial_1361_14394" cx="0" cy="0" r="1" gradientUnits="userSpaceOnUse" gradientTransform="translate(33.9736 44.7431) rotate(85.3036) scale(13.7819)">
<stop stop-color="#373737"/>
<stop offset="1" stop-color="#FAFAFA" stop-opacity="0"/>
</radialGradient>
<radialGradient id="paint8_radial_1361_14394" cx="0" cy="0" r="1" gradientUnits="userSpaceOnUse" gradientTransform="translate(60.7529 44.7431) rotate(85.3036) scale(13.7819)">
<stop stop-color="#373737"/>
<stop offset="1" stop-color="#FAFAFA" stop-opacity="0"/>
</radialGradient>
<radialGradient id="paint9_radial_1361_14394" cx="0" cy="0" r="1" gradientUnits="userSpaceOnUse" gradientTransform="translate(7.1904 7.1904) rotate(85.3036) scale(13.7819)">
<stop stop-color="#373737"/>
<stop offset="1" stop-color="#FAFAFA" stop-opacity="0"/>
</radialGradient>
<radialGradient id="paint10_radial_1361_14394" cx="0" cy="0" r="1" gradientUnits="userSpaceOnUse" gradientTransform="translate(7.1904 7.1904) rotate(85.3036) scale(13.7819)">
<stop stop-color="#373737"/>
<stop offset="1" stop-color="#FAFAFA" stop-opacity="0"/>
</radialGradient>
<radialGradient id="paint11_radial_1361_14394" cx="0" cy="0" r="1" gradientUnits="userSpaceOnUse" gradientTransform="translate(7.1904 7.1904) rotate(85.3036) scale(13.7819)">
<stop stop-color="#373737"/>
<stop offset="1" stop-color="#FAFAFA" stop-opacity="0"/>
</radialGradient>
</defs>
</svg>
