<svg width="24" height="24" viewBox="0 0 24 24" fill="none" xmlns="http://www.w3.org/2000/svg">
<path d="M19.0713 0.295898H5.17809C2.51459 0.295898 0.347656 2.44933 0.347656 5.09625V18.903C0.347656 21.5499 2.51459 23.7033 5.17809 23.7033H19.0713C21.7348 23.7033 23.9017 21.5499 23.9017 18.903V5.09625C23.9017 2.44933 21.7348 0.295898 19.0713 0.295898ZM7.60015 18.3322C7.38739 18.6984 6.99998 18.9034 6.60219 18.9034C6.40718 18.9034 6.20973 18.8542 6.02907 18.7505C5.47987 18.4354 5.29103 17.7351 5.60809 17.1893L5.83429 16.7999H8.49033L7.60015 18.3322ZM5.43111 15.8856C4.79694 15.8856 4.28101 15.3729 4.28101 14.7427C4.28101 14.1124 4.79694 13.5997 5.43111 13.5997H7.6935L10.7967 8.25835L9.95566 6.81075C9.6386 6.26497 9.8274 5.56458 10.3766 5.24945H10.3766C10.9258 4.93436 11.6306 5.12208 11.9477 5.66781L12.1247 5.97251L12.3017 5.66785C12.6189 5.12203 13.3237 4.93441 13.8728 5.24949C14.1388 5.40214 14.3291 5.64861 14.4086 5.94348C14.4882 6.23836 14.4473 6.54641 14.2937 6.81079L10.3495 13.5997H12.8374L14.1654 15.8856H5.43111ZM18.8183 15.8856H17.8839L18.6413 17.1892C18.9584 17.735 18.7695 18.4354 18.2204 18.7505C18.0431 18.8522 17.8464 18.9041 17.6471 18.9041C17.5472 18.9041 17.4467 18.8911 17.3476 18.8647C17.0508 18.7856 16.8028 18.5965 16.6492 18.3321L12.6559 11.4585L13.9839 9.17266L16.5559 13.5997H18.8183C19.4525 13.5997 19.9684 14.1124 19.9684 14.7427C19.9684 15.3729 19.4525 15.8856 18.8183 15.8856Z" fill="white"/>
</svg>
