<svg width="24" height="24" viewBox="0 0 24 24" fill="none" xmlns="http://www.w3.org/2000/svg">
<path fill-rule="evenodd" clip-rule="evenodd" d="M0.351562 5.06635C0.351562 2.4317 2.48737 0.295898 5.12201 0.295898H19.1352C21.7698 0.295898 23.9057 2.4317 23.9057 5.06635V18.9329C23.9057 21.5675 21.7698 23.7033 19.1352 23.7033H5.12201C2.48737 23.7033 0.351562 21.5675 0.351562 18.9329V5.06635ZM9.17627 5.25517C8.6397 4.96045 8.0097 4.96726 7.47656 5.25943L13.7251 10.9878L15.8242 8.90173L9.17627 5.25517ZM6.61328 6.67742C6.61328 6.37674 6.70071 6.09309 6.85328 5.84521L13.1207 11.5906L6.83699 17.8352C6.693 17.5924 6.61328 17.3147 6.61328 17.0234V6.67742ZM18.6077 10.4281L16.6055 9.33008L14.3555 11.5652L17.1129 14.0925L18.6086 13.2722C19.1469 12.9758 19.4692 12.4443 19.4692 11.8497C19.4683 11.2551 19.1469 10.7236 18.6077 10.4281ZM7.44531 18.4296L13.7461 12.168L16.3193 14.5266L9.1733 18.4457C8.90502 18.5931 8.61188 18.6664 8.32045 18.6664C8.01874 18.6664 7.71874 18.5846 7.44531 18.4296Z" fill="white"/>
</svg>
