<svg width="140" height="90" viewBox="0 0 140 90" fill="none" xmlns="http://www.w3.org/2000/svg">
<path d="M7.36025 89.803C6.90844 90.1204 6.28476 90.0112 5.96722 89.5591L0.792604 82.1925C0.475064 81.7404 0.583909 81.1167 1.03572 80.7993C1.48753 80.482 2.11121 80.5911 2.42875 81.0432L7.02841 87.5913L13.573 82.9941C14.0248 82.6768 14.6485 82.786 14.966 83.238C15.2835 83.6901 15.1747 84.3138 14.7229 84.6312L7.36025 89.803ZM7.96256 88.0553L7.77031 89.1569L5.80027 88.812L5.99252 87.7104L7.96256 88.0553Z" fill="url(#paint0_linear_1312_115921)"/>
<rect width="3" height="3" rx="0.5" transform="matrix(-0.706542 -0.707671 -0.706542 0.707671 10.0029 80.4414)" fill="url(#paint1_radial_1312_115921)"/>
<rect width="3" height="3" rx="0.5" transform="matrix(-0.706542 -0.707671 -0.706542 0.707671 11.3857 73.7617)" fill="url(#paint2_radial_1312_115921)"/>
<rect width="3" height="3" rx="0.5" transform="matrix(-0.706542 -0.707671 -0.706542 0.707671 13.0576 66.9492)" fill="url(#paint3_radial_1312_115921)"/>
<rect width="3" height="3" rx="0.5" transform="matrix(-0.706542 -0.707671 -0.706542 0.707671 14.9502 60.1953)" fill="url(#paint4_radial_1312_115921)"/>
<rect width="3" height="3" rx="0.5" transform="matrix(-0.706542 -0.707671 -0.706542 0.707671 17.0811 53.5156)" fill="url(#paint5_radial_1312_115921)"/>
<rect width="3" height="3" rx="0.5" transform="matrix(-0.706542 -0.707671 -0.706542 0.707671 19.4834 46.9258)" fill="url(#paint6_radial_1312_115921)"/>
<rect width="3" height="3" rx="0.5" transform="matrix(-0.706542 -0.707671 -0.706542 0.707671 22.208 40.4609)" fill="url(#paint7_radial_1312_115921)"/>
<rect width="3" height="3" rx="0.5" transform="matrix(-0.706542 -0.707671 -0.706542 0.707671 25.3154 34.1758)" fill="url(#paint8_radial_1312_115921)"/>
<rect width="3" height="3" rx="0.5" transform="matrix(-0.706542 -0.707671 -0.706542 0.707671 28.9092 28.1562)" fill="url(#paint9_radial_1312_115921)"/>
<rect width="3" height="3" rx="0.5" transform="matrix(-0.706542 -0.707671 -0.706542 0.707671 33.9248 22.0273)" fill="url(#paint10_radial_1312_115921)"/>
<rect width="3" height="3" rx="0.5" transform="matrix(-0.706542 -0.707671 -0.706542 0.707671 39.208 16.8242)" fill="url(#paint11_radial_1312_115921)"/>
<rect width="3" height="3" rx="0.5" transform="matrix(-0.706542 -0.707671 -0.706542 0.707671 45.0342 12.9375)" fill="url(#paint12_radial_1312_115921)"/>
<rect width="3" height="3" rx="0.5" transform="matrix(-0.706542 -0.707671 -0.706542 0.707671 51.3154 9.83203)" fill="url(#paint13_radial_1312_115921)"/>
<rect width="3" height="3" rx="0.5" transform="matrix(-0.706542 -0.707671 -0.706542 0.707671 57.8857 7.40625)" fill="url(#paint14_radial_1312_115921)"/>
<rect width="3" height="3" rx="0.5" transform="matrix(-0.706542 -0.707671 -0.706542 0.707671 64.6396 5.55469)" fill="url(#paint15_radial_1312_115921)"/>
<rect width="3" height="3" rx="0.5" transform="matrix(-0.706542 -0.707671 -0.706542 0.707671 71.5107 4.19141)" fill="url(#paint16_radial_1312_115921)"/>
<rect width="3" height="3" rx="0.5" transform="matrix(-0.706542 -0.707671 -0.706542 0.707671 78.4463 3.24219)" fill="url(#paint17_radial_1312_115921)"/>
<rect width="3" height="3" rx="0.5" transform="matrix(-0.706542 -0.707671 -0.706542 0.707671 85.4268 2.64453)" fill="url(#paint18_radial_1312_115921)"/>
<rect width="3" height="3" rx="0.5" transform="matrix(-0.706542 -0.707671 -0.706542 0.707671 92.4229 2.35156)" fill="url(#paint19_radial_1312_115921)"/>
<rect width="3" height="3" rx="0.5" transform="matrix(-0.706542 -0.707671 -0.706542 0.707671 99.4287 2.32812)" fill="url(#paint20_radial_1312_115921)"/>
<rect width="3" height="3" rx="0.5" transform="matrix(-0.706542 -0.707671 -0.706542 0.707671 106.425 2.53906)" fill="url(#paint21_radial_1312_115921)"/>
<rect width="3" height="3" rx="0.5" transform="matrix(-0.706542 -0.707671 -0.706542 0.707671 113.417 2.96484)" fill="url(#paint22_radial_1312_115921)"/>
<rect width="3" height="3" rx="0.5" transform="matrix(-0.706542 -0.707671 -0.706542 0.707671 120.394 3.58594)" fill="url(#paint23_radial_1312_115921)"/>
<rect width="3" height="3" rx="0.5" transform="matrix(-0.706542 -0.707671 -0.706542 0.707671 127.347 4.39062)" fill="url(#paint24_radial_1312_115921)"/>
<rect width="3" height="3" rx="0.5" transform="matrix(-0.706542 -0.707671 -0.706542 0.707671 133.729 6.03125)" fill="url(#paint25_radial_1312_115921)"/>
<rect width="3" height="3" rx="0.5" transform="matrix(-0.706542 -0.707671 -0.706542 0.707671 139.72 8.03125)" fill="url(#paint26_radial_1312_115921)"/>
<defs>
<linearGradient id="paint0_linear_1312_115921" x1="6.66204" y1="90.0968" x2="9.00283" y2="77.439" gradientUnits="userSpaceOnUse">
<stop stop-color="#FF474D"/>
<stop offset="1" stop-color="#FFD7D7"/>
</linearGradient>
<radialGradient id="paint1_radial_1312_115921" cx="0" cy="0" r="1" gradientUnits="userSpaceOnUse" gradientTransform="translate(1.5 1.5) rotate(85.3036) scale(2.87506)">
<stop stop-color="#FF474D"/>
<stop offset="1" stop-color="#FFD7D7"/>
</radialGradient>
<radialGradient id="paint2_radial_1312_115921" cx="0" cy="0" r="1" gradientUnits="userSpaceOnUse" gradientTransform="translate(1.5 1.5) rotate(85.3036) scale(2.87506)">
<stop stop-color="#FF474D"/>
<stop offset="1" stop-color="#FFD7D7"/>
</radialGradient>
<radialGradient id="paint3_radial_1312_115921" cx="0" cy="0" r="1" gradientUnits="userSpaceOnUse" gradientTransform="translate(1.5 1.5) rotate(85.3036) scale(2.87506)">
<stop stop-color="#FF474D"/>
<stop offset="1" stop-color="#FFD7D7"/>
</radialGradient>
<radialGradient id="paint4_radial_1312_115921" cx="0" cy="0" r="1" gradientUnits="userSpaceOnUse" gradientTransform="translate(1.5 1.5) rotate(85.3036) scale(2.87506)">
<stop stop-color="#FF474D"/>
<stop offset="1" stop-color="#FFD7D7"/>
</radialGradient>
<radialGradient id="paint5_radial_1312_115921" cx="0" cy="0" r="1" gradientUnits="userSpaceOnUse" gradientTransform="translate(1.5 1.5) rotate(85.3036) scale(2.87506)">
<stop stop-color="#FF474D"/>
<stop offset="1" stop-color="#FFD7D7"/>
</radialGradient>
<radialGradient id="paint6_radial_1312_115921" cx="0" cy="0" r="1" gradientUnits="userSpaceOnUse" gradientTransform="translate(1.5 1.5) rotate(85.3036) scale(2.87506)">
<stop stop-color="#FF474D"/>
<stop offset="1" stop-color="#FFD7D7"/>
</radialGradient>
<radialGradient id="paint7_radial_1312_115921" cx="0" cy="0" r="1" gradientUnits="userSpaceOnUse" gradientTransform="translate(1.5 1.5) rotate(85.3036) scale(2.87506)">
<stop stop-color="#FF474D"/>
<stop offset="1" stop-color="#FFD7D7"/>
</radialGradient>
<radialGradient id="paint8_radial_1312_115921" cx="0" cy="0" r="1" gradientUnits="userSpaceOnUse" gradientTransform="translate(1.5 1.5) rotate(85.3036) scale(2.87506)">
<stop stop-color="#FF474D"/>
<stop offset="1" stop-color="#FFD7D7"/>
</radialGradient>
<radialGradient id="paint9_radial_1312_115921" cx="0" cy="0" r="1" gradientUnits="userSpaceOnUse" gradientTransform="translate(1.5 1.5) rotate(85.3036) scale(2.87506)">
<stop stop-color="#FF474D"/>
<stop offset="1" stop-color="#FFD7D7"/>
</radialGradient>
<radialGradient id="paint10_radial_1312_115921" cx="0" cy="0" r="1" gradientUnits="userSpaceOnUse" gradientTransform="translate(1.5 1.5) rotate(85.3036) scale(2.87506)">
<stop stop-color="#FF474D"/>
<stop offset="1" stop-color="#FFD7D7"/>
</radialGradient>
<radialGradient id="paint11_radial_1312_115921" cx="0" cy="0" r="1" gradientUnits="userSpaceOnUse" gradientTransform="translate(1.5 1.5) rotate(85.3036) scale(2.87506)">
<stop stop-color="#FF474D"/>
<stop offset="1" stop-color="#FFD7D7"/>
</radialGradient>
<radialGradient id="paint12_radial_1312_115921" cx="0" cy="0" r="1" gradientUnits="userSpaceOnUse" gradientTransform="translate(1.5 1.5) rotate(85.3036) scale(2.87506)">
<stop stop-color="#FF474D"/>
<stop offset="1" stop-color="#FFD7D7"/>
</radialGradient>
<radialGradient id="paint13_radial_1312_115921" cx="0" cy="0" r="1" gradientUnits="userSpaceOnUse" gradientTransform="translate(1.5 1.5) rotate(85.3036) scale(2.87506)">
<stop stop-color="#FF474D"/>
<stop offset="1" stop-color="#FFD7D7"/>
</radialGradient>
<radialGradient id="paint14_radial_1312_115921" cx="0" cy="0" r="1" gradientUnits="userSpaceOnUse" gradientTransform="translate(1.5 1.5) rotate(85.3036) scale(2.87506)">
<stop stop-color="#FF474D"/>
<stop offset="1" stop-color="#FFD7D7"/>
</radialGradient>
<radialGradient id="paint15_radial_1312_115921" cx="0" cy="0" r="1" gradientUnits="userSpaceOnUse" gradientTransform="translate(1.5 1.5) rotate(85.3036) scale(2.87506)">
<stop stop-color="#FF474D"/>
<stop offset="1" stop-color="#FFD7D7"/>
</radialGradient>
<radialGradient id="paint16_radial_1312_115921" cx="0" cy="0" r="1" gradientUnits="userSpaceOnUse" gradientTransform="translate(1.5 1.5) rotate(85.3036) scale(2.87506)">
<stop stop-color="#FF474D"/>
<stop offset="1" stop-color="#FFD7D7"/>
</radialGradient>
<radialGradient id="paint17_radial_1312_115921" cx="0" cy="0" r="1" gradientUnits="userSpaceOnUse" gradientTransform="translate(1.5 1.5) rotate(85.3036) scale(2.87506)">
<stop stop-color="#FF474D"/>
<stop offset="1" stop-color="#FFD7D7"/>
</radialGradient>
<radialGradient id="paint18_radial_1312_115921" cx="0" cy="0" r="1" gradientUnits="userSpaceOnUse" gradientTransform="translate(1.5 1.5) rotate(85.3036) scale(2.87506)">
<stop stop-color="#FF474D"/>
<stop offset="1" stop-color="#FFD7D7"/>
</radialGradient>
<radialGradient id="paint19_radial_1312_115921" cx="0" cy="0" r="1" gradientUnits="userSpaceOnUse" gradientTransform="translate(1.5 1.5) rotate(85.3036) scale(2.87506)">
<stop stop-color="#FF474D"/>
<stop offset="1" stop-color="#FFD7D7"/>
</radialGradient>
<radialGradient id="paint20_radial_1312_115921" cx="0" cy="0" r="1" gradientUnits="userSpaceOnUse" gradientTransform="translate(1.5 1.5) rotate(85.3036) scale(2.87506)">
<stop stop-color="#FF474D"/>
<stop offset="1" stop-color="#FFD7D7"/>
</radialGradient>
<radialGradient id="paint21_radial_1312_115921" cx="0" cy="0" r="1" gradientUnits="userSpaceOnUse" gradientTransform="translate(1.5 1.5) rotate(85.3036) scale(2.87506)">
<stop stop-color="#FF474D"/>
<stop offset="1" stop-color="#FFD7D7"/>
</radialGradient>
<radialGradient id="paint22_radial_1312_115921" cx="0" cy="0" r="1" gradientUnits="userSpaceOnUse" gradientTransform="translate(1.5 1.5) rotate(85.3036) scale(2.87506)">
<stop stop-color="#FF474D"/>
<stop offset="1" stop-color="#FFD7D7"/>
</radialGradient>
<radialGradient id="paint23_radial_1312_115921" cx="0" cy="0" r="1" gradientUnits="userSpaceOnUse" gradientTransform="translate(1.5 1.5) rotate(85.3036) scale(2.87506)">
<stop stop-color="#FF474D"/>
<stop offset="1" stop-color="#FFD7D7"/>
</radialGradient>
<radialGradient id="paint24_radial_1312_115921" cx="0" cy="0" r="1" gradientUnits="userSpaceOnUse" gradientTransform="translate(1.5 1.5) rotate(85.3036) scale(2.87506)">
<stop stop-color="#FF474D"/>
<stop offset="1" stop-color="#FFD7D7"/>
</radialGradient>
<radialGradient id="paint25_radial_1312_115921" cx="0" cy="0" r="1" gradientUnits="userSpaceOnUse" gradientTransform="translate(1.5 1.5) rotate(85.3036) scale(2.87506)">
<stop stop-color="#FF474D"/>
<stop offset="1" stop-color="#FFD7D7"/>
</radialGradient>
<radialGradient id="paint26_radial_1312_115921" cx="0" cy="0" r="1" gradientUnits="userSpaceOnUse" gradientTransform="translate(1.5 1.5) rotate(85.3036) scale(2.87506)">
<stop stop-color="#FF474D"/>
<stop offset="1" stop-color="#FFD7D7"/>
</radialGradient>
</defs>
</svg>
