<svg width="56" height="43" viewBox="0 0 56 43" fill="none" xmlns="http://www.w3.org/2000/svg">
<path d="M46.4232 8.40145C47.5032 10.3286 49.9409 11.0151 51.8679 9.93476C53.7949 8.85447 54.4814 6.41648 53.4014 4.48935C52.3213 2.56223 49.8837 1.87575 47.9567 2.95605C46.0297 4.03634 45.3431 6.47433 46.4232 8.40145Z" fill="#3897FF"/>
<path d="M27.3957 41.0763L30.606 34.7928L28.3395 28.1106L34.623 31.321L41.3052 29.0547L38.0953 35.3382L40.3614 42.0204L34.0779 38.81L27.3957 41.0763Z" fill="#FFCC00"/>
<path d="M6.72295 17.4385L6.01236 10.5553L0.512448 6.35715L7.49408 5.51886L11.8521 0L12.5626 6.88315L18.0626 11.0813L11.0815 11.9198L6.72295 17.4385Z" fill="#00A98F"/>
</svg>
