<svg width="107" height="50" viewBox="0 0 107 50" fill="none" xmlns="http://www.w3.org/2000/svg">
<path d="M45.9217 14.5317C44.9171 15.2812 43.7825 15.5672 42.518 15.3894C41.2534 15.2117 40.2416 14.624 39.4825 13.6265C38.734 12.6136 38.4487 11.4748 38.6263 10.2103C38.8052 8.93739 39.3928 7.92557 40.3891 7.17482C41.3949 6.41691 42.53 6.12683 43.7946 6.30458C45.0591 6.48233 46.0704 7.07411 46.8283 8.07993C47.5874 9.07742 47.8775 10.2126 47.6987 11.4855C47.5198 12.7584 46.9275 13.7738 45.9217 14.5317ZM40.8578 12.6237C41.3154 13.2309 41.9477 13.5913 42.7547 13.7047C43.5617 13.8182 44.2688 13.6461 44.8761 13.1885C45.4928 12.7237 45.8596 12.0754 45.9765 11.2434C46.0934 10.4115 45.9195 9.68712 45.4547 9.07034C44.99 8.45357 44.3582 8.08905 43.5596 7.97679C42.7609 7.86453 42.0532 8.04077 41.4365 8.50553C40.8197 8.97028 40.4529 9.61863 40.336 10.4506C40.2191 11.2825 40.393 12.0069 40.8578 12.6237Z" fill="#212121"/>
<path d="M50.707 9.9995L50.5562 11.0727C50.7526 10.7016 51.0353 10.4401 51.4045 10.2884C51.7748 10.1284 52.1804 10.0793 52.6214 10.1413L52.3688 11.9383C51.8873 11.8028 51.4324 11.8406 51.004 12.0519C50.585 12.256 50.3335 12.6576 50.2493 13.2566L49.8302 16.2391L48.2204 16.0128L49.0972 9.77322L50.707 9.9995Z" fill="#212121"/>
<path d="M57.9399 11.767L58.3941 8.53487L60.0039 8.76115L58.7764 17.4966L57.1666 17.2703L57.27 16.534C56.7105 17.0747 55.9939 17.2836 55.1204 17.1608C54.2801 17.0427 53.6049 16.6254 53.0948 15.909C52.5941 15.1853 52.4087 14.3618 52.5384 13.4383C52.667 12.5232 53.0717 11.7868 53.7524 11.2293C54.4414 10.6729 55.206 10.4537 56.0463 10.5718C56.9198 10.6946 57.551 11.093 57.9399 11.767ZM54.4561 15.0059C54.7516 15.3783 55.1447 15.599 55.6356 15.668C56.1347 15.7382 56.5693 15.6338 56.9394 15.355C57.3106 15.0678 57.5325 14.6663 57.6049 14.1505C57.6774 13.6347 57.5742 13.1918 57.2954 12.8217C57.0177 12.4433 56.6292 12.219 56.1301 12.1489C55.6309 12.0787 55.1916 12.1866 54.812 12.4726C54.442 12.7515 54.2207 13.1488 54.1482 13.6646C54.0758 14.1804 54.1784 14.6275 54.4561 15.0059Z" fill="#212121"/>
<path d="M66.6589 16.0976L61.9543 15.4363C62.0524 16.2476 62.5839 16.721 63.549 16.8567C64.1646 16.9432 64.6597 16.8007 65.0343 16.4292L66.2269 17.3604C65.4862 18.164 64.5169 18.4816 63.3189 18.3132C62.2873 18.1682 61.5033 17.7399 60.967 17.0282C60.4308 16.3166 60.2293 15.4865 60.3625 14.5381C60.4935 13.6063 60.9112 12.8676 61.6157 12.3218C62.3118 11.7749 63.1466 11.5699 64.12 11.7067C65.0434 11.8365 65.7519 12.2585 66.2454 12.9726C66.7555 13.6891 66.9452 14.5132 66.8142 15.445C66.7897 15.6197 66.7379 15.8372 66.6589 16.0976ZM62.1047 14.1849L65.2868 14.6322C65.2526 14.2117 65.1093 13.8734 64.8568 13.6173C64.6127 13.3624 64.2992 13.2081 63.9165 13.1543C63.4839 13.0935 63.1104 13.1555 62.796 13.3404C62.4827 13.5169 62.2523 13.7984 62.1047 14.1849Z" fill="#212121"/>
<path d="M69.9862 12.7094L69.8354 13.7826C70.0318 13.4115 70.3146 13.1501 70.6837 12.9983C71.054 12.8383 71.4597 12.7893 71.9006 12.8513L71.6481 14.6483C71.1666 14.5127 70.7116 14.5506 70.2832 14.7618C69.8643 14.9659 69.6127 15.3675 69.5285 15.9665L69.1094 18.949L67.4996 18.7227L68.3764 12.4831L69.9862 12.7094Z" fill="#212121"/>
<path d="M73.8656 15.0618C73.8281 15.328 74.1745 15.61 74.9047 15.9077C75.1627 16.0034 75.3941 16.108 75.5987 16.2216C75.8045 16.3269 76.005 16.4696 76.2003 16.6498C76.405 16.8228 76.5528 17.0387 76.6437 17.2975C76.7346 17.5563 76.7578 17.8438 76.7134 18.1599C76.6234 18.8005 76.3126 19.2616 75.7809 19.5432C75.2505 19.8164 74.6317 19.9034 73.9245 19.804C72.6433 19.6239 71.8394 19.0061 71.5126 17.9506L73.0207 17.3609C73.1361 17.9285 73.5057 18.2562 74.1297 18.3439C74.7037 18.4246 75.0159 18.2861 75.0662 17.9283C75.1036 17.6621 74.7572 17.3801 74.027 17.0824C73.7547 16.9677 73.5239 16.859 73.3348 16.756C73.1456 16.6531 72.9445 16.5145 72.7315 16.3403C72.5196 16.1578 72.367 15.9455 72.2738 15.7034C72.19 15.454 72.1698 15.1755 72.2131 14.8676C72.2996 14.252 72.592 13.8011 73.0903 13.5148C73.5982 13.2214 74.189 13.122 74.8629 13.2167C75.3704 13.2881 75.8157 13.4694 76.199 13.7609C76.5834 14.044 76.8664 14.4146 77.048 14.8728L75.5701 15.4286C75.4301 14.9762 75.1271 14.7173 74.6612 14.6518C74.4533 14.6226 74.2715 14.648 74.1161 14.7279C73.9701 14.8007 73.8866 14.912 73.8656 15.0618Z" fill="#212121"/>
<path d="M7.36136 20.5276L6.66368 20.4295C6.65061 20.223 6.60318 20.0366 6.52138 19.8702C6.44144 19.704 6.33558 19.5591 6.20379 19.4353C6.07413 19.31 5.92485 19.2087 5.75593 19.1314C5.58701 19.0541 5.4069 19.002 5.2156 18.9751C4.86676 18.9261 4.53835 18.9698 4.23037 19.1063C3.92428 19.2431 3.66365 19.4713 3.4485 19.7911C3.23523 20.1111 3.09354 20.5206 3.02344 21.0194C2.95333 21.5183 2.97669 21.951 3.09351 22.3174C3.2122 22.6841 3.39982 22.9753 3.65637 23.1912C3.9148 23.4073 4.21843 23.5399 4.56728 23.5889C4.75858 23.6158 4.94607 23.6154 5.12974 23.5876C5.31342 23.5599 5.48471 23.5046 5.64362 23.4218C5.80467 23.3373 5.9465 23.2262 6.06913 23.0885C6.19389 22.9492 6.29087 22.7831 6.36007 22.5901L7.05776 22.6882C6.96387 22.9752 6.83119 23.2253 6.65972 23.4383C6.48825 23.6514 6.2879 23.825 6.05867 23.9592C5.8297 24.0915 5.58081 24.1818 5.31201 24.2301C5.04508 24.2786 4.76626 24.2824 4.47556 24.2416C3.98418 24.1725 3.56406 23.9911 3.21519 23.6972C2.86632 23.4034 2.61327 23.0197 2.45603 22.5462C2.29879 22.0728 2.26287 21.5322 2.34826 20.9245C2.43365 20.3169 2.61716 19.8072 2.89879 19.3954C3.18042 18.9836 3.5294 18.6846 3.94574 18.4983C4.36207 18.312 4.81593 18.2534 5.30732 18.3225C5.59802 18.3633 5.86497 18.4439 6.10818 18.5641C6.35327 18.6846 6.5675 18.841 6.75087 19.0332C6.93451 19.2234 7.07939 19.4446 7.18549 19.6967C7.29187 19.9469 7.35049 20.2238 7.36136 20.5276Z" fill="#5C5C5C"/>
<path d="M7.84214 24.6345L8.44935 20.3133L9.09077 20.4034L8.99906 21.0561L9.04407 21.0624C9.15288 20.8597 9.3198 20.7063 9.54482 20.6021C9.76983 20.4979 10.0118 20.464 10.2706 20.5004C10.3193 20.5073 10.3802 20.5168 10.453 20.5289C10.5259 20.5411 10.5809 20.5517 10.6178 20.5607L10.523 21.2359C10.5012 21.2271 10.4509 21.2114 10.3718 21.1888C10.2949 21.1646 10.2123 21.1463 10.1242 21.1339C9.91412 21.1044 9.72038 21.1221 9.54294 21.1871C9.36765 21.2504 9.22138 21.3523 9.10411 21.4926C8.98899 21.6313 8.91773 21.7982 8.89032 21.9933L8.50607 24.7278L7.84214 24.6345Z" fill="#5C5C5C"/>
<path d="M12.4573 25.375C12.0409 25.3165 11.6947 25.1741 11.4186 24.9478C11.1446 24.72 10.9493 24.4286 10.8328 24.0737C10.7184 23.7172 10.6923 23.3176 10.7545 22.875C10.8167 22.4324 10.9522 22.0536 11.1609 21.7387C11.3718 21.4221 11.6359 21.1896 11.9532 21.041C12.2727 20.8909 12.6274 20.8432 13.0175 20.898C13.2426 20.9297 13.4596 20.9984 13.6685 21.1043C13.8774 21.2101 14.06 21.3601 14.2163 21.5542C14.3729 21.7464 14.4853 21.9879 14.5534 22.2787C14.6216 22.5694 14.6273 22.9164 14.5707 23.3196L14.5311 23.6009L11.2003 23.1327L11.2809 22.5588L13.9366 22.9321C13.9709 22.6883 13.9527 22.4639 13.882 22.2589C13.8133 22.0541 13.6976 21.8839 13.535 21.7482C13.3742 21.6128 13.1738 21.5282 12.9337 21.4944C12.6693 21.4573 12.4313 21.4907 12.2196 21.5949C12.0101 21.6974 11.8392 21.8455 11.7068 22.0392C11.5744 22.2329 11.4914 22.4488 11.458 22.687L11.4042 23.0696C11.3584 23.3959 11.3757 23.6805 11.4564 23.9232C11.5392 24.1644 11.6735 24.3583 11.8595 24.5049C12.0457 24.6496 12.2729 24.7409 12.5411 24.7786C12.7155 24.8031 12.8765 24.8008 13.024 24.7719C13.1737 24.7413 13.307 24.6835 13.4242 24.5986C13.5415 24.5118 13.6389 24.3974 13.7163 24.2552L14.3324 24.5254C14.2343 24.7335 14.0939 24.9089 13.9113 25.0515C13.729 25.1923 13.5141 25.2921 13.2668 25.3511C13.0197 25.4081 12.7499 25.4161 12.4573 25.375Z" fill="#5C5C5C"/>
<path d="M16.5265 25.9584C16.2527 25.9199 16.0114 25.8334 15.8027 25.6989C15.5943 25.5625 15.4383 25.3866 15.3347 25.1712C15.2313 24.954 15.1994 24.7047 15.2389 24.4234C15.2737 24.1758 15.3507 23.982 15.4698 23.8419C15.5892 23.6999 15.7367 23.5963 15.9123 23.5311C16.0878 23.4659 16.2771 23.4256 16.4801 23.4101C16.6852 23.393 16.8899 23.3855 17.0943 23.3874C17.3616 23.3906 17.5781 23.3952 17.7436 23.4012C17.9113 23.4057 18.0357 23.3916 18.1167 23.359C18.1997 23.3267 18.2487 23.2571 18.2637 23.1502L18.2669 23.1277C18.3059 22.8501 18.2602 22.6237 18.1299 22.4486C18.0015 22.2737 17.7844 22.1648 17.4787 22.1218C17.1618 22.0773 16.9035 22.1117 16.704 22.2252C16.5044 22.3387 16.357 22.4691 16.2617 22.6163L15.6632 22.3027C15.8126 22.0559 15.9914 21.8726 16.1995 21.7526C16.4097 21.6311 16.6305 21.557 16.8619 21.5302C17.0954 21.5018 17.3209 21.5029 17.5384 21.5335C17.6772 21.553 17.8343 21.5923 18.0096 21.6513C18.187 21.7088 18.353 21.8 18.5076 21.925C18.664 22.0503 18.7841 22.2231 18.868 22.4433C18.9518 22.6636 18.9695 22.9453 18.9213 23.2885L18.5212 26.1355L17.8573 26.0422L17.9395 25.4571L17.9058 25.4523C17.8476 25.5398 17.7585 25.6296 17.6384 25.7217C17.5184 25.8138 17.3659 25.8852 17.1809 25.9357C16.9959 25.9862 16.7778 25.9938 16.5265 25.9584ZM16.7116 25.3763C16.9741 25.4132 17.2027 25.3927 17.3972 25.3148C17.5937 25.2373 17.7493 25.1233 17.8641 24.9731C17.9808 24.8231 18.0518 24.6581 18.0771 24.478L18.1625 23.8704C18.1296 23.9002 18.0634 23.9224 17.9638 23.9371C17.8663 23.9502 17.7542 23.9583 17.6276 23.9616C17.503 23.9632 17.3816 23.9633 17.2632 23.962C17.1469 23.959 17.0525 23.9572 16.9799 23.9566C16.8042 23.9549 16.6378 23.9688 16.4806 23.9983C16.3256 24.0262 16.1952 24.0835 16.0893 24.1699C15.9856 24.2548 15.9218 24.3816 15.8981 24.5504C15.8657 24.7811 15.9265 24.9675 16.0806 25.1097C16.2368 25.2502 16.4471 25.3391 16.7116 25.3763Z" fill="#5C5C5C"/>
<path d="M22.2195 22.2488L22.1405 22.8115L19.9011 22.4967L19.9802 21.9341L22.2195 22.2488ZM20.7783 20.9905L21.4423 21.0839L20.8635 25.2025C20.8372 25.39 20.8446 25.5345 20.8858 25.6359C20.9291 25.7358 20.9917 25.8077 21.0735 25.8517C21.1574 25.8941 21.2482 25.9221 21.3457 25.9358C21.4188 25.9461 21.4794 25.9508 21.5273 25.9499C21.5755 25.9471 21.6141 25.9449 21.643 25.9432L21.6942 26.5586C21.6469 26.5691 21.5817 26.5772 21.4986 26.5827C21.4154 26.5902 21.3118 26.5852 21.188 26.5678C21.0005 26.5414 20.8224 26.4752 20.6536 26.3693C20.4868 26.2636 20.3559 26.1199 20.2609 25.9383C20.1678 25.7569 20.139 25.5405 20.1743 25.2892L20.7783 20.9905Z" fill="#5C5C5C"/>
<path d="M24.3637 27.0486C23.9473 26.99 23.6011 26.8477 23.3249 26.6214C23.051 26.3936 22.8557 26.1022 22.7392 25.7473C22.6248 25.3908 22.5987 24.9912 22.6609 24.5486C22.7231 24.106 22.8586 23.7272 23.0673 23.4123C23.2782 23.0957 23.5423 22.8632 23.8596 22.7146C24.179 22.5644 24.5338 22.5168 24.9239 22.5716C25.149 22.6032 25.366 22.672 25.5749 22.7779C25.7838 22.8837 25.9664 23.0337 26.1227 23.2278C26.2793 23.42 26.3917 23.6615 26.4598 23.9522C26.528 24.243 26.5337 24.5899 26.4771 24.9932L26.4375 25.2745L23.1067 24.8063L23.1873 24.2324L25.843 24.6057C25.8773 24.3619 25.8591 24.1375 25.7884 23.9325C25.7197 23.7277 25.604 23.5575 25.4413 23.4218C25.2806 23.2864 25.0802 23.2018 24.8401 23.168C24.5757 23.1308 24.3376 23.1643 24.126 23.2685C23.9165 23.371 23.7456 23.5191 23.6132 23.7128C23.4808 23.9064 23.3978 24.1224 23.3644 24.3606L23.3106 24.7432C23.2647 25.0695 23.2821 25.3541 23.3628 25.5968C23.4456 25.838 23.5799 26.0318 23.7659 26.1785C23.9521 26.3232 24.1793 26.4145 24.4475 26.4522C24.6219 26.4767 24.7829 26.4744 24.9304 26.4454C25.08 26.4148 25.2134 26.3571 25.3306 26.2722C25.4479 26.1854 25.5453 26.0709 25.6227 25.9288L26.2388 26.199C26.1407 26.4071 26.0003 26.5824 25.8177 26.7251C25.6354 26.8658 25.4205 26.9657 25.1732 27.0246C24.9261 27.0817 24.6563 27.0897 24.3637 27.0486Z" fill="#5C5C5C"/>
<path d="M31.1464 28.002C30.7563 27.9471 30.4271 27.8062 30.1587 27.5791C29.8922 27.3523 29.6999 27.0604 29.5818 26.7034C29.4655 26.3466 29.4388 25.945 29.5015 25.4986C29.5648 25.0485 29.7016 24.6671 29.9119 24.3543C30.1241 24.0418 30.3896 23.8132 30.7082 23.6687C31.0288 23.5244 31.3841 23.4797 31.7742 23.5345C32.1643 23.5893 32.4926 23.7301 32.7591 23.9569C33.0275 24.184 33.2196 24.4769 33.3356 24.8355C33.4535 25.1944 33.4808 25.599 33.4176 26.0491C33.3548 26.4954 33.2175 26.874 33.0055 27.1846C32.7955 27.4955 32.5301 27.7231 32.2096 27.8674C31.8909 28.0119 31.5365 28.0568 31.1464 28.002ZM31.2302 27.4056C31.5266 27.4472 31.7811 27.4055 31.9937 27.2805C32.2064 27.1555 32.376 26.9756 32.5027 26.741C32.6294 26.5063 32.713 26.2446 32.7536 25.9558C32.7942 25.6669 32.7861 25.3913 32.7292 25.129C32.6724 24.8666 32.5591 24.6451 32.3894 24.4644C32.2197 24.2837 31.9867 24.1726 31.6904 24.1309C31.3941 24.0893 31.1394 24.1319 30.9265 24.2588C30.7136 24.3857 30.5437 24.5674 30.4167 24.8039C30.2898 25.0404 30.206 25.3031 30.1654 25.592C30.1248 25.8808 30.1331 26.1554 30.1902 26.4159C30.2473 26.6764 30.3609 26.8961 30.5308 27.0749C30.7008 27.2537 30.9339 27.3639 31.2302 27.4056Z" fill="#5C5C5C"/>
<path d="M34.1306 28.3296L34.7378 24.0084L35.3792 24.0986L35.2875 24.7513L35.3325 24.7576C35.4413 24.5549 35.6082 24.4014 35.8333 24.2973C36.0583 24.1931 36.3002 24.1592 36.559 24.1956C36.6078 24.2024 36.6686 24.2119 36.7415 24.2241C36.8144 24.2363 36.8693 24.2468 36.9063 24.2559L36.8114 24.9311C36.7897 24.9223 36.7393 24.9066 36.6602 24.884C36.5833 24.8598 36.5008 24.8415 36.4126 24.8291C36.2026 24.7996 36.0088 24.8173 35.8314 24.8822C35.6561 24.9456 35.5098 25.0474 35.3926 25.1878C35.2774 25.3265 35.2062 25.4934 35.1788 25.6884L34.7945 28.4229L34.1306 28.3296Z" fill="#5C5C5C"/>
<path d="M41.0491 29.3939C40.644 29.337 40.3086 29.1923 40.0429 28.9598C39.7772 28.7274 39.5892 28.4323 39.4788 28.0744C39.3684 27.7165 39.3435 27.3219 39.4042 26.8906C39.4658 26.4517 39.6009 26.0757 39.8094 25.7627C40.02 25.448 40.2839 25.2164 40.6013 25.0679C40.9207 24.9177 41.2755 24.87 41.6656 24.9248C41.9694 24.9676 42.2354 25.0623 42.4634 25.2091C42.6914 25.3559 42.869 25.5415 42.9962 25.766C43.1234 25.9904 43.1867 26.2403 43.1863 26.5156L42.5224 26.4223C42.4994 26.2183 42.4114 26.028 42.2583 25.8516C42.1074 25.6736 41.8856 25.564 41.593 25.5228C41.3342 25.4865 41.0978 25.5221 40.8838 25.6297C40.6719 25.7357 40.4944 25.903 40.3514 26.1315C40.2105 26.3584 40.1171 26.635 40.0712 26.9614C40.0243 27.2952 40.036 27.5933 40.1062 27.8556C40.1784 28.1182 40.3014 28.3316 40.4753 28.4956C40.6511 28.66 40.8703 28.7606 41.1329 28.7975C41.3054 28.8217 41.4663 28.8137 41.6154 28.7735C41.7645 28.7333 41.8957 28.6637 42.009 28.5649C42.1224 28.4661 42.2107 28.3408 42.2741 28.1891L42.938 28.2824C42.8647 28.5322 42.7396 28.7489 42.5627 28.9325C42.3879 29.1145 42.1712 29.2485 41.9123 29.3345C41.6557 29.4189 41.3679 29.4387 41.0491 29.3939Z" fill="#5C5C5C"/>
<path d="M45.4743 30.0159C45.0842 29.9611 44.755 29.8201 44.4866 29.5931C44.2201 29.3663 44.0278 29.0744 43.9097 28.7173C43.7934 28.3605 43.7667 27.959 43.8294 27.5126C43.8927 27.0625 44.0295 26.681 44.2398 26.3682C44.452 26.0557 44.7175 25.8272 45.0361 25.6826C45.3567 25.5383 45.712 25.4936 46.1021 25.5484C46.4922 25.6033 46.8205 25.7441 47.087 25.9709C47.3554 26.198 47.5475 26.4908 47.6635 26.8495C47.7814 27.2084 47.8087 27.6129 47.7455 28.063C47.6827 28.5094 47.5454 28.8879 47.3334 29.1986C47.1234 29.5095 46.858 29.7371 46.5375 29.8813C46.2188 30.0259 45.8644 30.0708 45.4743 30.0159ZM45.5581 29.4195C45.8545 29.4612 46.109 29.4195 46.3216 29.2944C46.5343 29.1694 46.7039 28.9896 46.8306 28.7549C46.9573 28.5203 47.0409 28.2585 47.0815 27.9697C47.1221 27.6809 47.114 27.4053 47.0571 27.1429C47.0003 26.8806 46.887 26.659 46.7173 26.4784C46.5476 26.2977 46.3146 26.1865 46.0183 26.1449C45.722 26.1032 45.4673 26.1458 45.2544 26.2727C45.0415 26.3996 44.8716 26.5814 44.7446 26.8179C44.6177 27.0544 44.5339 27.3171 44.4933 27.6059C44.4527 27.8947 44.461 28.1694 44.5181 28.4299C44.5752 28.6904 44.6888 28.91 44.8587 29.0888C45.0287 29.2676 45.2618 29.3779 45.5581 29.4195Z" fill="#5C5C5C"/>
<path d="M49.4877 27.8374L49.1224 30.4369L48.4585 30.3436L49.0657 26.0224L49.7071 26.1126L49.6122 26.7877L49.6685 26.7956C49.8006 26.5904 49.9792 26.4358 50.2042 26.3316C50.4295 26.2256 50.7053 26.1955 51.0316 26.2414C51.3242 26.2825 51.5718 26.3785 51.7743 26.5294C51.9772 26.6784 52.1225 26.8824 52.2105 27.1415C52.2986 27.3987 52.3169 27.7111 52.2652 28.0787L51.8794 30.8244L51.2155 30.7311L51.595 28.0304C51.6427 27.6909 51.5917 27.4141 51.442 27.1999C51.2926 26.9838 51.0641 26.8541 50.7565 26.8109C50.5446 26.7811 50.3487 26.8004 50.1689 26.8688C49.9909 26.9375 49.8417 27.0533 49.7213 27.2162C49.6009 27.379 49.523 27.5861 49.4877 27.8374Z" fill="#5C5C5C"/>
<path d="M55.6241 26.9443L55.545 27.5069L53.2157 27.1795L53.2947 26.6168L55.6241 26.9443ZM53.3852 31.0361L54.0762 26.1185C54.111 25.8709 54.1981 25.6728 54.3376 25.5241C54.4771 25.3754 54.6455 25.2728 54.8427 25.2164C55.04 25.16 55.2418 25.1463 55.4481 25.1753C55.6113 25.1982 55.7426 25.23 55.842 25.2708C55.9415 25.3116 56.015 25.3467 56.0624 25.3764L55.7905 25.9234C55.7583 25.9074 55.7134 25.8867 55.6558 25.8614C55.6 25.8364 55.5243 25.8171 55.4286 25.8037C55.2092 25.7728 55.0429 25.8059 54.9299 25.9028C54.8187 26 54.748 26.1555 54.718 26.3694L54.0491 31.1294L53.3852 31.0361Z" fill="#5C5C5C"/>
<path d="M55.9474 31.3962L56.5546 27.075L57.2185 27.1684L56.6113 31.4896L55.9474 31.3962ZM56.9934 26.4023C56.864 26.3841 56.7586 26.3244 56.6772 26.223C56.5977 26.122 56.5666 26.0095 56.584 25.8857C56.6014 25.762 56.6622 25.6625 56.7665 25.5872C56.8727 25.5123 56.9905 25.4839 57.1199 25.5021C57.2493 25.5202 57.3537 25.5799 57.4333 25.6809C57.5146 25.7823 57.5466 25.8948 57.5292 26.0186C57.5119 26.1424 57.4501 26.2418 57.3439 26.3167C57.2396 26.392 57.1228 26.4205 56.9934 26.4023Z" fill="#5C5C5C"/>
<path d="M57.8273 31.6605L58.4345 27.3393L59.076 27.4295L58.9842 28.0821L59.0293 28.0885C59.1381 27.8857 59.305 27.7323 59.53 27.6281C59.755 27.5239 59.9969 27.4901 60.2558 27.5264C60.3045 27.5333 60.3653 27.5428 60.4382 27.555C60.5111 27.5671 60.566 27.5777 60.603 27.5867L60.5081 28.2619C60.4864 28.2531 60.436 28.2374 60.357 28.2148C60.28 28.1906 60.1975 28.1723 60.1094 28.16C59.8993 28.1304 59.7056 28.1481 59.5281 28.2131C59.3528 28.2764 59.2066 28.3783 59.0893 28.5186C58.9742 28.6574 58.9029 28.8242 58.8755 29.0193L58.4913 31.7538L57.8273 31.6605Z" fill="#5C5C5C"/>
<path d="M60.7749 32.0748L61.3821 27.7536L62.0235 27.8438L61.9287 28.519L61.9849 28.5269C62.1074 28.3088 62.2779 28.1502 62.4965 28.0508C62.7154 27.9496 62.9654 27.9188 63.2468 27.9583C63.5318 27.9984 63.76 28.0965 63.9313 28.2525C64.1046 28.4069 64.2286 28.607 64.303 28.8527L64.3481 28.859C64.4901 28.6514 64.681 28.4975 64.9207 28.3973C65.1607 28.2953 65.4355 28.266 65.7449 28.3095C66.1313 28.3638 66.4303 28.5292 66.642 28.8057C66.854 29.0803 66.9242 29.4717 66.8528 29.98L66.4464 32.872L65.7825 32.7787L66.1889 29.8866C66.2337 29.5678 66.1785 29.3277 66.0233 29.1662C65.8681 29.0048 65.6724 28.9075 65.4361 28.8743C65.1322 28.8316 64.884 28.8904 64.6912 29.0507C64.4987 29.2092 64.3828 29.4281 64.3436 29.7076L63.9483 32.5208L63.2731 32.4259L63.689 29.4664C63.7235 29.2207 63.6716 29.0116 63.5332 28.8392C63.3952 28.6648 63.2005 28.56 62.9492 28.5247C62.7766 28.5004 62.6089 28.5237 62.4459 28.5945C62.2848 28.6656 62.1469 28.7763 62.032 28.9265C61.9194 29.0752 61.8481 29.2554 61.8183 29.4674L61.4388 32.1681L60.7749 32.0748Z" fill="#5C5C5C"/>
<path d="M69.6607 34.9763L70.4957 29.0346L71.1371 29.1248L71.0406 29.8112L71.1194 29.8223C71.1787 29.7541 71.2597 29.668 71.3623 29.5638C71.467 29.4581 71.6074 29.3707 71.7835 29.3017C71.9617 29.2311 72.1915 29.2156 72.4728 29.2552C72.8367 29.3063 73.1446 29.4424 73.3966 29.6633C73.6486 29.8842 73.829 30.1726 73.9378 30.5283C74.0465 30.884 74.069 31.2888 74.0052 31.7427C73.9409 32.2003 73.8074 32.586 73.6045 32.8999C73.4019 33.2118 73.1499 33.4403 72.8484 33.5854C72.5471 33.7286 72.2164 33.7748 71.8563 33.7242C71.5788 33.6852 71.363 33.608 71.2089 33.4927C71.0552 33.3754 70.9416 33.2514 70.8682 33.1206C70.7951 32.9879 70.7396 32.8787 70.7019 32.7931L70.6457 32.7852L70.3247 35.0696L69.6607 34.9763ZM70.8447 31.287C70.7989 31.6133 70.8062 31.9079 70.8668 32.1708C70.9277 32.4318 71.0401 32.6456 71.2042 32.8121C71.3685 32.9767 71.5838 33.0777 71.8501 33.1152C72.1277 33.1542 72.3696 33.1136 72.5758 32.9934C72.7842 32.8716 72.9528 32.6926 73.0816 32.4563C73.2126 32.2184 73.2997 31.9457 73.3429 31.6381C73.3856 31.3343 73.3772 31.0539 73.3177 30.7969C73.2603 30.5383 73.1478 30.3245 72.9803 30.1556C72.8149 29.9851 72.5916 29.8801 72.3103 29.8405C72.0402 29.8025 71.8036 29.8391 71.6006 29.9502C71.3978 30.0594 71.2324 30.2293 71.1044 30.4599C70.9766 30.6887 70.8901 30.9644 70.8447 31.287Z" fill="#5C5C5C"/>
<path d="M77.6875 32.6504L78.0464 30.096L78.7104 30.1893L78.1031 34.5105L77.4392 34.4172L77.542 33.6857L77.497 33.6794C77.3649 33.8846 77.1811 34.0491 76.9457 34.1728C76.7105 34.2947 76.4298 34.3327 76.1035 34.2868C75.8334 34.2488 75.6016 34.156 75.4082 34.0083C75.215 33.8588 75.0752 33.6555 74.9889 33.3986C74.9029 33.1398 74.8857 32.8266 74.9374 32.459L75.3232 29.7132L75.9871 29.8065L75.6076 32.5073C75.5633 32.8223 75.6162 33.0861 75.7661 33.2984C75.9179 33.511 76.1317 33.6367 76.4074 33.6754C76.5724 33.6986 76.7462 33.68 76.9288 33.6196C77.1132 33.5595 77.2758 33.4503 77.4166 33.2923C77.5592 33.1344 77.6495 32.9205 77.6875 32.6504Z" fill="#5C5C5C"/>
<path d="M79.3192 34.6814L79.9264 30.3602L80.5678 30.4504L80.4761 31.1031L80.5211 31.1094C80.6299 30.9067 80.7968 30.7532 81.0219 30.649C81.2469 30.5449 81.4888 30.511 81.7476 30.5474C81.7964 30.5542 81.8572 30.5637 81.9301 30.5759C82.003 30.588 82.0579 30.5986 82.0949 30.6077L82 31.2828C81.9783 31.2741 81.9279 31.2584 81.8488 31.2358C81.7719 31.2116 81.6894 31.1933 81.6012 31.1809C81.3911 31.1514 81.1974 31.1691 81.02 31.234C80.8447 31.2974 80.6984 31.3992 80.5812 31.5396C80.466 31.6783 80.3948 31.8452 80.3673 32.0402L79.9831 34.7747L79.3192 34.6814Z" fill="#5C5C5C"/>
<path d="M83.8781 35.414C83.4729 35.3571 83.1375 35.2124 82.8718 34.98C82.6062 34.7475 82.4181 34.4524 82.3078 34.0945C82.1974 33.7367 82.1725 33.3421 82.2331 32.9107C82.2948 32.4718 82.4299 32.0959 82.6383 31.7828C82.8489 31.4682 83.1129 31.2365 83.4302 31.088C83.7497 30.9378 84.1045 30.8901 84.4946 30.945C84.7984 30.9877 85.0643 31.0824 85.2923 31.2292C85.5203 31.376 85.6979 31.5617 85.8251 31.7861C85.9523 32.0105 86.0157 32.2604 86.0153 32.5358L85.3513 32.4424C85.3284 32.2384 85.2404 32.0482 85.0873 31.8717C84.9364 31.6937 84.7146 31.5841 84.422 31.543C84.1632 31.5066 83.9268 31.5422 83.7127 31.6498C83.5009 31.7558 83.3234 31.9231 83.1804 32.1516C83.0395 32.3785 82.9461 32.6552 82.9002 32.9815C82.8533 33.3153 82.865 33.6134 82.9352 33.8758C83.0073 34.1384 83.1304 34.3517 83.3043 34.5158C83.4801 34.6801 83.6993 34.7807 83.9619 34.8176C84.1344 34.8419 84.2952 34.8339 84.4443 34.7936C84.5934 34.7534 84.7246 34.6838 84.838 34.585C84.9513 34.4862 85.0397 34.3609 85.1031 34.2092L85.767 34.3025C85.6937 34.5523 85.5685 34.769 85.3917 34.9526C85.2169 35.1346 85.0001 35.2686 84.7413 35.3546C84.4846 35.439 84.1969 35.4588 83.8781 35.414Z" fill="#5C5C5C"/>
<path d="M87.5897 33.1931L87.2244 35.7926L86.5605 35.6993L87.3701 29.9377L88.034 30.031L87.7367 32.1466L87.793 32.1545C87.9257 31.9456 88.1025 31.7897 88.3235 31.6869C88.5466 31.5824 88.8279 31.5541 89.1674 31.6018C89.4618 31.6432 89.7114 31.7385 89.9161 31.8878C90.1211 32.0352 90.2675 32.2384 90.3554 32.4975C90.4455 32.7549 90.4644 33.0693 90.4122 33.4407L90.0264 36.1864L89.3625 36.0931L89.742 33.3924C89.7902 33.0492 89.7384 32.7713 89.5866 32.5587C89.4369 32.3445 89.2055 32.2153 88.8923 32.1713C88.6747 32.1407 88.4732 32.1593 88.2878 32.2269C88.1042 32.2948 87.9503 32.4099 87.8261 32.5723C87.7038 32.7349 87.625 32.9418 87.5897 33.1931Z" fill="#5C5C5C"/>
<path d="M92.4984 36.6372C92.2246 36.5987 91.9833 36.5122 91.7746 36.3777C91.5662 36.2413 91.4102 36.0654 91.3066 35.85C91.2032 35.6327 91.1713 35.3834 91.2108 35.1021C91.2456 34.8546 91.3226 34.6607 91.4417 34.5206C91.5611 34.3787 91.7086 34.2751 91.8842 34.2099C92.0597 34.1447 92.249 34.1043 92.452 34.0889C92.6571 34.0718 92.8619 34.0643 93.0662 34.0662C93.3335 34.0693 93.55 34.074 93.7155 34.08C93.8832 34.0845 94.0076 34.0704 94.0886 34.0378C94.1716 34.0055 94.2206 33.9358 94.2356 33.8289L94.2388 33.8064C94.2778 33.5289 94.2321 33.3025 94.1018 33.1273C93.9734 32.9525 93.7563 32.8435 93.4506 32.8006C93.1337 32.756 92.8754 32.7905 92.6759 32.904C92.4763 33.0174 92.3289 33.1478 92.2336 33.2951L91.6351 32.9814C91.7845 32.7347 91.9633 32.5513 92.1714 32.4314C92.3816 32.3099 92.6024 32.2357 92.8338 32.2089C93.0673 32.1806 93.2928 32.1817 93.5103 32.2122C93.6491 32.2318 93.8062 32.271 93.9815 32.3301C94.1589 32.3876 94.3249 32.4788 94.4795 32.6038C94.6359 32.7291 94.7561 32.9018 94.8399 33.1221C94.9237 33.3423 94.9415 33.6241 94.8932 33.9673L94.4932 36.8143L93.8292 36.721L93.9115 36.1358L93.8777 36.1311C93.8195 36.2185 93.7304 36.3083 93.6103 36.4005C93.4903 36.4926 93.3378 36.5639 93.1528 36.6144C92.9678 36.6649 92.7497 36.6725 92.4984 36.6372ZM92.6835 36.055C92.9461 36.0919 93.1746 36.0715 93.3692 35.9936C93.5656 35.916 93.7212 35.8021 93.836 35.6519C93.9527 35.5019 94.0237 35.3368 94.049 35.1568L94.1344 34.5491C94.1015 34.5789 94.0353 34.6012 93.9357 34.6159C93.8382 34.6289 93.7262 34.6371 93.5995 34.6403C93.4749 34.642 93.3535 34.6421 93.2351 34.6408C93.1188 34.6378 93.0244 34.636 92.9518 34.6354C92.7761 34.6336 92.6097 34.6475 92.4525 34.6771C92.2975 34.705 92.1671 34.7622 92.0612 34.8487C91.9575 34.9336 91.8937 35.0604 91.87 35.2292C91.8376 35.4599 91.8984 35.6463 92.0525 35.7885C92.2087 35.929 92.419 36.0178 92.6835 36.055Z" fill="#5C5C5C"/>
<path d="M99.237 34.0615L98.6169 34.1464C98.5933 34.0417 98.5516 33.9374 98.4916 33.8333C98.4338 33.7276 98.3473 33.6352 98.2322 33.5559C98.1172 33.4766 97.963 33.4234 97.7698 33.3962C97.5054 33.359 97.2765 33.389 97.083 33.4861C96.8917 33.5817 96.7831 33.7223 96.757 33.9079C96.7338 34.073 96.7755 34.2118 96.8821 34.3243C96.9887 34.4368 97.165 34.5429 97.4111 34.6425L98.0304 34.8902C98.4036 35.0383 98.6713 35.2222 98.8336 35.442C98.9961 35.66 99.0562 35.9199 99.0138 36.2219C98.979 36.4694 98.8766 36.6807 98.7067 36.8557C98.5386 37.031 98.32 37.1571 98.051 37.2341C97.782 37.311 97.4797 37.3259 97.144 37.2787C96.7032 37.2168 96.3519 37.0698 96.0899 36.8379C95.828 36.606 95.6844 36.3009 95.6591 35.9225L96.3114 35.8535C96.3388 36.0945 96.4277 36.2849 96.5783 36.4246C96.7308 36.5646 96.943 36.6537 97.2149 36.692C97.5244 36.7355 97.7793 36.7044 97.9797 36.5986C98.1822 36.4913 98.2965 36.3448 98.3226 36.1591C98.3437 36.0091 98.3088 35.8761 98.218 35.76C98.1275 35.6421 97.977 35.5425 97.7665 35.4613L97.0701 35.1913C96.6875 35.0419 96.4172 34.8557 96.2592 34.6326C96.1034 34.408 96.0464 34.1466 96.0883 33.8484C96.1226 33.6046 96.2213 33.3985 96.3846 33.2302C96.5497 33.0621 96.7589 32.9414 97.0121 32.868C97.2672 32.7948 97.5467 32.7796 97.8505 32.8223C98.2781 32.8824 98.6006 33.0234 98.8181 33.2452C99.0374 33.4673 99.1771 33.7394 99.237 34.0615Z" fill="#5C5C5C"/>
<path d="M101.643 37.9111C101.227 37.8526 100.88 37.7102 100.604 37.484C100.33 37.2561 100.135 36.9647 100.019 36.6098C99.9042 36.2533 99.8781 35.8537 99.9403 35.4111C100.002 34.9685 100.138 34.5897 100.347 34.2748C100.558 33.9583 100.822 33.7257 101.139 33.5772C101.458 33.427 101.813 33.3793 102.203 33.4341C102.428 33.4658 102.645 33.5345 102.854 33.6404C103.063 33.7463 103.246 33.8962 103.402 34.0903C103.559 34.2826 103.671 34.5241 103.739 34.8148C103.807 35.1055 103.813 35.4525 103.756 35.8557L103.717 36.137L100.386 35.6689L100.467 35.0949L103.122 35.4682C103.157 35.2244 103.138 35 103.068 34.795C102.999 34.5902 102.883 34.42 102.721 34.2843C102.56 34.1489 102.36 34.0643 102.119 34.0306C101.855 33.9934 101.617 34.0269 101.405 34.131C101.196 34.2335 101.025 34.3816 100.893 34.5753C100.76 34.769 100.677 34.9849 100.644 35.2231L100.59 35.6057C100.544 35.9321 100.562 36.2166 100.642 36.4594C100.725 36.7005 100.859 36.8944 101.045 37.041C101.231 37.1858 101.459 37.277 101.727 37.3147C101.901 37.3392 102.062 37.337 102.21 37.308C102.359 37.2774 102.493 37.2196 102.61 37.1347C102.727 37.0479 102.825 36.9335 102.902 36.7914L103.518 37.0616C103.42 37.2696 103.28 37.445 103.097 37.5876C102.915 37.7284 102.7 37.8282 102.453 37.8872C102.205 37.9443 101.936 37.9522 101.643 37.9111Z" fill="#5C5C5C"/>
<path d="M3.57864 34.2253C3.18854 34.1705 2.8593 34.0295 2.59094 33.8024C2.32445 33.5756 2.13214 33.2837 2.01401 32.9267C1.89775 32.5699 1.87099 32.1683 1.93371 31.722C1.99696 31.2718 2.13376 30.8904 2.3441 30.5776C2.55632 30.2651 2.82177 30.0365 3.14044 29.892C3.46098 29.7477 3.81631 29.703 4.20641 29.7578C4.59651 29.8126 4.92481 29.9535 5.1913 30.1803C5.45966 30.4073 5.65184 30.7002 5.76783 31.0588C5.8857 31.4178 5.91301 31.8223 5.84976 32.2724C5.78704 32.7188 5.6497 33.0973 5.43774 33.4079C5.22766 33.7188 4.96235 33.9464 4.6418 34.0907C4.32313 34.2353 3.96875 34.2801 3.57864 34.2253ZM3.66245 33.6289C3.95878 33.6705 4.21327 33.6288 4.42592 33.5038C4.63857 33.3788 4.80823 33.1989 4.93492 32.9643C5.06161 32.7296 5.14525 32.4679 5.18583 32.1791C5.22642 31.8902 5.21829 31.6147 5.16144 31.3523C5.10459 31.0899 4.99132 30.8684 4.82163 30.6877C4.65194 30.507 4.41893 30.3959 4.1226 30.3542C3.82627 30.3126 3.57165 30.3552 3.35874 30.4821C3.14583 30.609 2.9759 30.7907 2.84894 31.0272C2.72199 31.2638 2.63822 31.5264 2.59764 31.8153C2.55705 32.1041 2.56532 32.3788 2.62243 32.6392C2.67954 32.8997 2.79307 33.1194 2.96302 33.2982C3.13298 33.477 3.36612 33.5872 3.66245 33.6289Z" fill="#5C5C5C"/>
<path d="M6.56279 34.5529L7.17 30.2318L7.81142 30.3219L7.71971 30.9746L7.76472 30.9809C7.87354 30.7782 8.04045 30.6247 8.26547 30.5206C8.49049 30.4164 8.73241 30.3825 8.99123 30.4189C9.03999 30.4258 9.10081 30.4353 9.17369 30.4474C9.24657 30.4596 9.3015 30.4702 9.33849 30.4792L9.24361 31.1544C9.2219 31.1456 9.17151 31.1299 9.09244 31.1073C9.01551 31.0831 8.93298 31.0648 8.84483 31.0524C8.63477 31.0229 8.44103 31.0406 8.2636 31.1056C8.0883 31.1689 7.94203 31.2707 7.82477 31.4111C7.70964 31.5498 7.63838 31.7167 7.61097 31.9118L7.22672 34.6463L6.56279 34.5529Z" fill="#5C5C5C"/>
<path d="M10.9979 35.2682C10.6378 35.2175 10.3327 35.0819 10.0825 34.8612C9.83268 34.6387 9.65336 34.3495 9.54461 33.9938C9.43612 33.6362 9.41402 33.2286 9.47833 32.771C9.54211 32.3171 9.67528 31.9342 9.87786 31.6222C10.0804 31.3103 10.3333 31.0828 10.6364 30.9399C10.9396 30.797 11.2731 30.7511 11.6369 30.8023C11.9182 30.8418 12.1339 30.9199 12.2839 31.0366C12.436 31.1517 12.5469 31.2744 12.6166 31.4047C12.6884 31.5334 12.7434 31.6387 12.7816 31.7205L12.8379 31.7284L13.1368 29.6016L13.8007 29.6949L12.9911 35.4565L12.3497 35.3664L12.4429 34.7024L12.3642 34.6914C12.3043 34.7633 12.221 34.8529 12.1141 34.9603C12.0075 35.0658 11.8641 35.1537 11.684 35.224C11.5042 35.2925 11.2755 35.3072 10.9979 35.2682ZM11.1717 34.6844C11.438 34.7218 11.6729 34.6841 11.8762 34.5711C12.0797 34.4563 12.2467 34.2818 12.3772 34.0477C12.5079 33.8117 12.5961 33.5305 12.642 33.2042C12.6873 32.8816 12.6801 32.5927 12.6203 32.3376C12.5608 32.0806 12.4487 31.8717 12.2838 31.7108C12.1193 31.5481 11.902 31.4477 11.6319 31.4097C11.3506 31.3702 11.106 31.4095 10.8981 31.5275C10.6924 31.6439 10.5254 31.8184 10.3971 32.0509C10.271 32.2818 10.1865 32.5492 10.1438 32.853C10.1006 33.1606 10.1082 33.4467 10.1667 33.7112C10.2273 33.974 10.34 34.1926 10.5049 34.3669C10.6719 34.5395 10.8942 34.6454 11.1717 34.6844Z" fill="#5C5C5C"/>
<path d="M16.0983 35.9851C15.682 35.9266 15.3357 35.7842 15.0596 35.5579C14.7856 35.3301 14.5903 35.0387 14.4738 34.6838C14.3594 34.3273 14.3333 33.9277 14.3955 33.4851C14.4577 33.0425 14.5932 32.6637 14.8019 32.3488C15.0128 32.0322 15.2769 31.7997 15.5942 31.6511C15.9137 31.501 16.2685 31.4533 16.6586 31.5081C16.8836 31.5397 17.1006 31.6085 17.3095 31.7144C17.5184 31.8202 17.701 31.9702 17.8573 32.1643C18.0139 32.3565 18.1263 32.598 18.1945 32.8887C18.2626 33.1795 18.2684 33.5265 18.2117 33.9297L18.1722 34.211L14.8413 33.7428L14.9219 33.1689L17.5776 33.5422C17.6119 33.2984 17.5937 33.074 17.5231 32.869C17.4543 32.6642 17.3386 32.494 17.176 32.3583C17.0152 32.2229 16.8148 32.1383 16.5748 32.1045C16.3103 32.0674 16.0723 32.1008 15.8607 32.205C15.6512 32.3075 15.4802 32.4556 15.3478 32.6493C15.2154 32.843 15.1325 33.0589 15.099 33.2971L15.0452 33.6797C14.9994 34.006 15.0168 34.2906 15.0974 34.5333C15.1802 34.7745 15.3146 34.9684 15.5005 35.115C15.6867 35.2597 15.9139 35.351 16.1821 35.3887C16.3566 35.4132 16.5175 35.4109 16.665 35.382C16.8147 35.3513 16.9481 35.2936 17.0652 35.2087C17.1826 35.1219 17.2799 35.0075 17.3573 34.8653L17.9734 35.1355C17.8753 35.3436 17.735 35.519 17.5524 35.6616C17.37 35.8024 17.1552 35.9022 16.9078 35.9612C16.6607 36.0182 16.3909 36.0262 16.0983 35.9851Z" fill="#5C5C5C"/>
<path d="M18.9102 36.2885L19.5174 31.9673L20.1588 32.0575L20.0671 32.7102L20.1121 32.7165C20.2209 32.5138 20.3878 32.3603 20.6128 32.2561C20.8379 32.152 21.0798 32.1181 21.3386 32.1545C21.3874 32.1613 21.4482 32.1708 21.5211 32.183C21.5939 32.1951 21.6489 32.2057 21.6859 32.2148L21.591 32.8899C21.5693 32.8812 21.5189 32.8655 21.4398 32.8429C21.3629 32.8187 21.2803 32.8004 21.1922 32.788C20.9821 32.7585 20.7884 32.7762 20.611 32.8411C20.4357 32.9045 20.2894 33.0063 20.1721 33.1467C20.057 33.2854 19.9857 33.4523 19.9583 33.6473L19.5741 36.3818L18.9102 36.2885Z" fill="#5C5C5C"/>
<path d="M25.3898 33.7796L24.7697 33.8646C24.7461 33.7599 24.7044 33.6556 24.6444 33.5515C24.5866 33.4458 24.5001 33.3534 24.385 33.2741C24.2699 33.1948 24.1158 33.1416 23.9226 33.1144C23.6582 33.0772 23.4292 33.1072 23.2358 33.2043C23.0445 33.2999 22.9358 33.4405 22.9097 33.6261C22.8866 33.7912 22.9283 33.93 23.0348 34.0425C23.1414 34.155 23.3178 34.2611 23.5639 34.3607L24.1832 34.6084C24.5564 34.7565 24.8241 34.9404 24.9864 35.1602C25.1489 35.3782 25.209 35.6381 25.1665 35.9401C25.1317 36.1876 25.0294 36.3989 24.8594 36.5739C24.6914 36.7492 24.4728 36.8753 24.2038 36.9523C23.9348 37.0292 23.6325 37.0441 23.2967 36.9969C22.856 36.9349 22.5046 36.788 22.2427 36.5561C21.9808 36.3242 21.8372 36.0191 21.8119 35.6407L22.4642 35.5717C22.4916 35.8127 22.5805 36.0031 22.7311 36.1428C22.8836 36.2828 23.0958 36.3719 23.3677 36.4102C23.6772 36.4537 23.9321 36.4225 24.1325 36.3168C24.335 36.2095 24.4493 36.063 24.4754 35.8773C24.4964 35.7273 24.4616 35.5942 24.3708 35.4782C24.2803 35.3603 24.1298 35.2607 23.9193 35.1795L23.2229 34.9095C22.8403 34.7601 22.57 34.5739 22.412 34.3508C22.2562 34.1262 22.1992 33.8648 22.2411 33.5666C22.2753 33.3227 22.3741 33.1167 22.5374 32.9484C22.7025 32.7803 22.9117 32.6596 23.1649 32.5862C23.42 32.513 23.6994 32.4978 24.0033 32.5405C24.4309 32.6006 24.7534 32.7416 24.9709 32.9634C25.1902 33.1855 25.3299 33.4576 25.3898 33.7796Z" fill="#5C5C5C"/>
<path d="M29.2039 37.7354L28.4945 33.2292L29.1921 33.3272L29.6613 36.7669L29.7063 36.7733L31.0939 33.5946L31.8028 33.6942L32.251 37.1195L32.296 37.1258L33.6934 33.9599L34.391 34.058L32.4672 38.1941L31.8146 38.1024L31.3358 34.6499L31.2683 34.6404L29.8565 37.8272L29.2039 37.7354Z" fill="#5C5C5C"/>
<path d="M34.6616 38.5026L35.2688 34.1814L35.9327 34.2747L35.3255 38.5959L34.6616 38.5026ZM35.7076 33.5086C35.5782 33.4904 35.4728 33.4307 35.3914 33.3294C35.3119 33.2283 35.2808 33.1159 35.2982 32.9921C35.3156 32.8683 35.3764 32.7688 35.4807 32.6936C35.5869 32.6186 35.7047 32.5902 35.8341 32.6084C35.9635 32.6266 36.0679 32.6862 36.1475 32.7873C36.2288 32.8886 36.2608 33.0012 36.2434 33.1249C36.2261 33.2487 36.1643 33.3481 36.0581 33.4231C35.9538 33.4983 35.837 33.5268 35.7076 33.5086Z" fill="#5C5C5C"/>
<path d="M39.028 34.7098L38.9489 35.2724L36.7096 34.9577L36.7886 34.395L39.028 34.7098ZM37.5868 33.4515L38.2507 33.5448L37.672 37.6634C37.6456 37.851 37.653 37.9955 37.6943 38.0969C37.7376 38.1967 37.8002 38.2686 37.882 38.3126C37.9659 38.355 38.0566 38.3831 38.1542 38.3968C38.2273 38.407 38.2878 38.4117 38.3358 38.4108C38.384 38.408 38.4226 38.4058 38.4515 38.4041L38.5027 39.0195C38.4553 39.0301 38.3901 39.0381 38.3071 39.0437C38.2238 39.0511 38.1203 39.0461 37.9965 39.0287C37.809 39.0023 37.6308 38.9362 37.4621 38.8302C37.2953 38.7245 37.1644 38.5809 37.0694 38.3992C36.9763 38.2178 36.9474 38.0015 36.9827 37.7501L37.5868 33.4515Z" fill="#5C5C5C"/>
<path d="M40.5415 36.6783L40.1762 39.2777L39.5123 39.1844L40.3219 33.4228L40.9859 33.5161L40.6886 35.6317L40.7448 35.6396C40.8775 35.4307 41.0543 35.2748 41.2753 35.172C41.4984 35.0676 41.7798 35.0392 42.1192 35.0869C42.4137 35.1283 42.6633 35.2236 42.868 35.3729C43.0729 35.5203 43.2194 35.7235 43.3073 35.9826C43.3973 36.2401 43.4163 36.5545 43.3641 36.9258L42.9782 39.6716L42.3143 39.5782L42.6938 36.8775C42.7421 36.5343 42.6903 36.2564 42.5384 36.0438C42.3888 35.8296 42.1573 35.7005 41.8441 35.6564C41.6266 35.6259 41.425 35.6444 41.2396 35.712C41.056 35.7799 40.9021 35.8951 40.7779 36.0574C40.6556 36.22 40.5768 36.4269 40.5415 36.6783Z" fill="#5C5C5C"/>
<path d="M48.9074 36.0985L48.8284 36.6611L46.589 36.3463L46.6681 35.7837L48.9074 36.0985ZM47.4662 34.8401L48.1302 34.9335L47.5514 39.0521C47.5251 39.2396 47.5325 39.3841 47.5737 39.4856C47.617 39.5854 47.6796 39.6573 47.7614 39.7013C47.8453 39.7437 47.9361 39.7717 48.0336 39.7854C48.1067 39.7957 48.1673 39.8004 48.2152 39.7995C48.2634 39.7967 48.302 39.7945 48.3309 39.7928L48.3822 40.4082C48.3348 40.4188 48.2696 40.4268 48.1866 40.4323C48.1033 40.4398 47.9997 40.4348 47.8759 40.4174C47.6884 40.391 47.5103 40.3249 47.3416 40.2189C47.1747 40.1132 47.0438 39.9695 46.9488 39.7879C46.8558 39.6065 46.8269 39.3901 46.8622 39.1388L47.4662 34.8401Z" fill="#5C5C5C"/>
<path d="M50.5563 40.84C50.2825 40.8015 50.0412 40.715 49.8325 40.5805C49.6241 40.4441 49.4681 40.2682 49.3645 40.0528C49.2611 39.8356 49.2292 39.5863 49.2687 39.305C49.3035 39.0574 49.3805 38.8636 49.4996 38.7235C49.619 38.5815 49.7665 38.4779 49.9421 38.4127C50.1176 38.3475 50.3069 38.3072 50.5099 38.2917C50.715 38.2746 50.9197 38.2671 51.1241 38.269C51.3914 38.2722 51.6079 38.2768 51.7734 38.2828C51.9411 38.2873 52.0655 38.2732 52.1465 38.2406C52.2295 38.2083 52.2785 38.1387 52.2935 38.0318L52.2967 38.0093C52.3357 37.7317 52.29 37.5053 52.1597 37.3302C52.0313 37.1553 51.8142 37.0464 51.5085 37.0034C51.1916 36.9589 50.9333 36.9933 50.7337 37.1068C50.5342 37.2203 50.3868 37.3506 50.2915 37.4979L49.693 37.1843C49.8424 36.9375 50.0211 36.7542 50.2293 36.6342C50.4395 36.5127 50.6603 36.4386 50.8917 36.4118C51.1252 36.3834 51.3507 36.3845 51.5682 36.4151C51.707 36.4346 51.8641 36.4739 52.0394 36.5329C52.2168 36.5904 52.3828 36.6816 52.5374 36.8066C52.6938 36.9319 52.8139 37.1047 52.8977 37.3249C52.9815 37.5452 52.9993 37.8269 52.9511 38.1701L52.551 41.0171L51.8871 40.9238L51.9693 40.3387L51.9356 40.3339C51.8774 40.4214 51.7883 40.5112 51.6682 40.6033C51.5482 40.6954 51.3957 40.7668 51.2107 40.8173C51.0257 40.8678 50.8076 40.8754 50.5563 40.84ZM50.7414 40.2579C51.0039 40.2948 51.2325 40.2743 51.427 40.1964C51.6235 40.1189 51.7791 40.0049 51.8939 39.8547C52.0106 39.7047 52.0816 39.5397 52.1069 39.3596L52.1923 38.752C52.1594 38.7818 52.0932 38.804 51.9936 38.8187C51.8961 38.8318 51.784 38.8399 51.6574 38.8432C51.5328 38.8448 51.4114 38.8449 51.293 38.8436C51.1767 38.8406 51.0823 38.8388 51.0097 38.8382C50.834 38.8365 50.6676 38.8504 50.5104 38.8799C50.3554 38.9078 50.225 38.9651 50.1191 39.0515C50.0154 39.1364 49.9516 39.2632 49.9279 39.432C49.8955 39.6627 49.9563 39.8491 50.1104 39.9913C50.2666 40.1318 50.4769 40.2207 50.7414 40.2579Z" fill="#5C5C5C"/>
<path d="M53.5351 42.8079L54.3701 36.8663L55.0115 36.9565L54.915 37.6429L54.9938 37.654C55.0531 37.5858 55.1341 37.4996 55.2367 37.3955C55.3414 37.2897 55.4818 37.2023 55.6579 37.1334C55.8361 37.0628 56.0659 37.0473 56.3472 37.0868C56.7111 37.138 57.019 37.274 57.271 37.495C57.523 37.7159 57.7034 38.0042 57.8122 38.36C57.9209 38.7157 57.9434 39.1205 57.8796 39.5743C57.8153 40.032 57.6818 40.4177 57.4789 40.7315C57.2764 41.0435 57.0243 41.272 56.7228 41.4171C56.4215 41.5602 56.0908 41.6065 55.7307 41.5559C55.4532 41.5169 55.2374 41.4397 55.0834 41.3243C54.9296 41.2071 54.816 41.0831 54.7426 40.9522C54.6695 40.8196 54.614 40.7104 54.5763 40.6248L54.5201 40.6169L54.1991 42.9012L53.5351 42.8079ZM54.7191 39.1186C54.6733 39.445 54.6806 39.7396 54.7412 40.0025C54.8021 40.2635 54.9146 40.4772 55.0786 40.6437C55.2429 40.8084 55.4582 40.9094 55.7245 40.9468C56.0021 40.9858 56.244 40.9452 56.4502 40.8251C56.6586 40.7033 56.8272 40.5242 56.956 40.288C57.087 40.0501 57.1741 39.7774 57.2173 39.4698C57.26 39.1659 57.2516 38.8855 57.1921 38.6285C57.1347 38.3699 57.0223 38.1562 56.8547 37.9873C56.6893 37.8167 56.466 37.7117 56.1847 37.6722C55.9146 37.6342 55.678 37.6708 55.475 37.7818C55.2722 37.891 55.1068 38.061 54.9788 38.2916C54.851 38.5204 54.7645 38.796 54.7191 39.1186Z" fill="#5C5C5C"/>
<path d="M62.5613 42.516C62.1712 42.4612 61.842 42.3202 61.5736 42.0932C61.3071 41.8664 61.1148 41.5744 60.9967 41.2174C60.8804 40.8606 60.8537 40.459 60.9164 40.0127C60.9796 39.5625 61.1164 39.1811 61.3268 38.8683C61.539 38.5558 61.8044 38.3273 62.1231 38.1827C62.4436 38.0384 62.799 37.9937 63.1891 38.0485C63.5792 38.1034 63.9075 38.2442 64.174 38.471C64.4423 38.6981 64.6345 38.9909 64.7505 39.3496C64.8684 39.7085 64.8957 40.113 64.8324 40.5631C64.7697 41.0095 64.6324 41.388 64.4204 41.6986C64.2103 42.0095 63.945 42.2371 63.6245 42.3814C63.3058 42.526 62.9514 42.5708 62.5613 42.516ZM62.6451 41.9196C62.9414 41.9612 63.1959 41.9196 63.4086 41.7945C63.6212 41.6695 63.7909 41.4897 63.9176 41.255C64.0443 41.0204 64.1279 40.7586 64.1685 40.4698C64.2091 40.181 64.201 39.9054 64.1441 39.643C64.0873 39.3807 63.974 39.1591 63.8043 38.9784C63.6346 38.7978 63.4016 38.6866 63.1053 38.6449C62.8089 38.6033 62.5543 38.6459 62.3414 38.7728C62.1285 38.8997 61.9586 39.0814 61.8316 39.318C61.7047 39.5545 61.6209 39.8172 61.5803 40.106C61.5397 40.3948 61.548 40.6695 61.6051 40.93C61.6622 41.1905 61.7757 41.4101 61.9457 41.5889C62.1157 41.7677 62.3488 41.8779 62.6451 41.9196Z" fill="#5C5C5C"/>
<path d="M68.0769 38.793L67.9979 39.3556L65.6685 39.0282L65.7476 38.4655L68.0769 38.793ZM65.838 42.8848L66.5291 37.9672C66.5638 37.7196 66.651 37.5215 66.7905 37.3728C66.9299 37.2241 67.0983 37.1215 67.2956 37.0651C67.4928 37.0087 67.6946 36.995 67.9009 37.024C68.0641 37.0469 68.1954 37.0787 68.2949 37.1195C68.3943 37.1603 68.4678 37.1954 68.5153 37.2251L68.2433 37.7721C68.2112 37.7561 68.1663 37.7354 68.1086 37.7101C68.0528 37.6851 67.9771 37.6658 67.8815 37.6524C67.662 37.6215 67.4958 37.6546 67.3827 37.7515C67.2715 37.8487 67.2009 38.0042 67.1708 38.2181L66.502 42.9781L65.838 42.8848Z" fill="#5C5C5C"/>
<path d="M71.8857 43.8381C71.6118 43.7996 71.3706 43.7131 71.1619 43.5786C70.9535 43.4422 70.7975 43.2663 70.6938 43.0509C70.5905 42.8337 70.5586 42.5844 70.5981 42.3031C70.6329 42.0555 70.7099 41.8617 70.829 41.7216C70.9484 41.5796 71.0959 41.476 71.2714 41.4108C71.447 41.3456 71.6363 41.3053 71.8393 41.2898C72.0444 41.2727 72.2491 41.2652 72.4535 41.2671C72.7208 41.2703 72.9372 41.2749 73.1028 41.2809C73.2705 41.2854 73.3948 41.2713 73.4759 41.2387C73.5589 41.2064 73.6079 41.1368 73.6229 41.0299L73.6261 41.0074C73.6651 40.7298 73.6194 40.5034 73.4891 40.3283C73.3607 40.1534 73.1436 40.0445 72.8379 40.0015C72.5209 39.957 72.2627 39.9914 72.0631 40.1049C71.8636 40.2184 71.7162 40.3487 71.6209 40.496L71.0223 40.1824C71.1718 39.9356 71.3505 39.7523 71.5586 39.6323C71.7689 39.5108 71.9897 39.4367 72.221 39.4099C72.4545 39.3815 72.6801 39.3826 72.8976 39.4132C73.0364 39.4327 73.1934 39.472 73.3688 39.531C73.5462 39.5885 73.7122 39.6797 73.8668 39.8047C74.0232 39.93 74.1433 40.1028 74.2271 40.323C74.3109 40.5433 74.3287 40.825 74.2805 41.1682L73.8804 44.0152L73.2165 43.9219L73.2987 43.3368L73.265 43.332C73.2068 43.4195 73.1177 43.5093 72.9976 43.6014C72.8776 43.6935 72.725 43.7649 72.5401 43.8154C72.3551 43.8659 72.137 43.8735 71.8857 43.8381ZM72.0708 43.256C72.3333 43.2929 72.5619 43.2724 72.7564 43.1945C72.9528 43.117 73.1085 43.003 73.2233 42.8528C73.34 42.7028 73.411 42.5378 73.4363 42.3577L73.5217 41.7501C73.4888 41.7799 73.4226 41.8021 73.323 41.8168C73.2255 41.8299 73.1134 41.838 72.9867 41.8413C72.8622 41.8429 72.7407 41.843 72.6224 41.8417C72.5061 41.8387 72.4117 41.8369 72.3391 41.8363C72.1634 41.8346 71.9969 41.8485 71.8398 41.878C71.6848 41.9059 71.5543 41.9632 71.4485 42.0496C71.3447 42.1345 71.281 42.2613 71.2573 42.4301C71.2249 42.6608 71.2857 42.8472 71.4398 42.9894C71.596 43.1299 71.8063 43.2188 72.0708 43.256Z" fill="#5C5C5C"/>
<path d="M77.4104 44.5114L78.22 38.7498L78.8839 38.8432L78.585 40.97L78.6413 40.9779C78.7006 40.9097 78.7816 40.8236 78.8842 40.7194C78.9889 40.6137 79.1293 40.5263 79.3054 40.4573C79.4837 40.3867 79.7134 40.3712 79.9948 40.4108C80.3586 40.4619 80.6665 40.598 80.9185 40.8189C81.1705 41.0398 81.3509 41.3282 81.4597 41.6839C81.5684 42.0396 81.5909 42.4444 81.5272 42.8983C81.4628 43.3559 81.3293 43.7416 81.1264 44.0555C80.9239 44.3674 80.6718 44.5959 80.3703 44.741C80.069 44.8842 79.7383 44.9304 79.3782 44.8798C79.1007 44.8408 78.8849 44.7636 78.7309 44.6483C78.5771 44.531 78.4635 44.407 78.3901 44.2762C78.317 44.1435 78.2615 44.0343 78.2238 43.9487L78.1451 43.9376L78.0518 44.6016L77.4104 44.5114ZM78.3666 42.4426C78.3208 42.7689 78.3282 43.0635 78.3888 43.3264C78.4496 43.5874 78.5621 43.8012 78.7261 43.9677C78.8904 44.1323 79.1057 44.2333 79.372 44.2708C79.6496 44.3098 79.8915 44.2692 80.0977 44.149C80.3061 44.0272 80.4747 43.8482 80.6035 43.6119C80.7345 43.374 80.8216 43.1013 80.8648 42.7937C80.9075 42.4899 80.8991 42.2095 80.8396 41.9525C80.7822 41.6939 80.6698 41.4801 80.5022 41.3112C80.3369 41.1407 80.1135 41.0357 79.8322 40.9961C79.5621 40.9582 79.3256 40.9947 79.1225 41.1058C78.9197 41.215 78.7543 41.3849 78.6263 41.6155C78.4985 41.8443 78.412 42.12 78.3666 42.4426Z" fill="#5C5C5C"/>
<path d="M85.2122 43.8064L85.5712 41.252L86.2351 41.3453L85.6279 45.6665L84.9639 45.5732L85.0667 44.8417L85.0217 44.8354C84.8896 45.0406 84.7058 45.2051 84.4704 45.3288C84.2353 45.4507 83.9545 45.4887 83.6282 45.4428C83.3581 45.4048 83.1263 45.312 82.9329 45.1643C82.7397 45.0148 82.6 44.8115 82.5137 44.5546C82.4276 44.2958 82.4104 43.9825 82.4621 43.6149L82.8479 40.8692L83.5119 40.9625L83.1323 43.6633C83.0881 43.9783 83.1409 44.2421 83.2908 44.4544C83.4427 44.667 83.6564 44.7927 83.9321 44.8314C84.0972 44.8546 84.271 44.836 84.4535 44.7756C84.6379 44.7154 84.8005 44.6063 84.9413 44.4483C85.0839 44.2904 85.1743 44.0765 85.2122 43.8064Z" fill="#5C5C5C"/>
<path d="M89.3304 41.7804L89.2513 42.343L87.012 42.0283L87.091 41.4656L89.3304 41.7804ZM87.8892 40.5221L88.5531 40.6154L87.9743 44.734C87.948 44.9216 87.9554 45.0661 87.9966 45.1675C88.04 45.2673 88.1026 45.3392 88.1843 45.3832C88.2683 45.4256 88.359 45.4537 88.4565 45.4674C88.5297 45.4776 88.5902 45.4823 88.6382 45.4814C88.6864 45.4786 88.7249 45.4764 88.7539 45.4747L88.8051 46.0901C88.7577 46.1007 88.6925 46.1087 88.6095 46.1143C88.5262 46.1217 88.4227 46.1167 88.2989 46.0993C88.1113 46.0729 87.9332 46.0068 87.7645 45.9008C87.5976 45.7951 87.4667 45.6515 87.3718 45.4698C87.2787 45.2884 87.2498 45.0721 87.2851 44.8207L87.8892 40.5221Z" fill="#5C5C5C"/>
<path d="M92.2083 42.1849L92.1293 42.7476L89.8899 42.4328L89.969 41.8701L92.2083 42.1849ZM90.7671 40.9266L91.4311 41.0199L90.8523 45.1386C90.8259 45.3261 90.8334 45.4706 90.8746 45.572C90.9179 45.6718 90.9805 45.7437 91.0623 45.7877C91.1462 45.8301 91.237 45.8582 91.3345 45.8719C91.4076 45.8822 91.4682 45.8869 91.5161 45.886C91.5643 45.8832 91.6029 45.8809 91.6318 45.8793L91.683 46.4947C91.6357 46.5052 91.5705 46.5133 91.4874 46.5188C91.4042 46.5262 91.3006 46.5212 91.1768 46.5038C90.9893 46.4775 90.8112 46.4113 90.6424 46.3054C90.4756 46.1997 90.3447 46.056 90.2497 45.8743C90.1566 45.693 90.1278 45.4766 90.1631 45.2253L90.7671 40.9266Z" fill="#5C5C5C"/>
<path d="M94.2962 46.9767C93.9061 46.9219 93.5769 46.7809 93.3085 46.5539C93.042 46.3271 92.8497 46.0352 92.7316 45.6781C92.6153 45.3213 92.5886 44.9198 92.6513 44.4734C92.7145 44.0233 92.8513 43.6418 93.0617 43.329C93.2739 43.0165 93.5393 42.788 93.858 42.6434C94.1786 42.4991 94.5339 42.4544 94.924 42.5093C95.3141 42.5641 95.6424 42.7049 95.9089 42.9317C96.1772 43.1588 96.3694 43.4516 96.4854 43.8103C96.6033 44.1692 96.6306 44.5737 96.5673 45.0238C96.5046 45.4702 96.3673 45.8487 96.1553 46.1594C95.9452 46.4703 95.6799 46.6979 95.3594 46.8422C95.0407 46.9867 94.6863 47.0316 94.2962 46.9767ZM94.38 46.3803C94.6764 46.422 94.9308 46.3803 95.1435 46.2553C95.3561 46.1302 95.5258 45.9504 95.6525 45.7157C95.7792 45.4811 95.8628 45.2193 95.9034 44.9305C95.944 44.6417 95.9359 44.3661 95.879 44.1037C95.8222 43.8414 95.7089 43.6198 95.5392 43.4392C95.3695 43.2585 95.1365 43.1473 94.8402 43.1057C94.5438 43.064 94.2892 43.1066 94.0763 43.2335C93.8634 43.3604 93.6935 43.5422 93.5665 43.7787C93.4396 44.0152 93.3558 44.2779 93.3152 44.5667C93.2746 44.8555 93.2829 45.1302 93.34 45.3907C93.3971 45.6512 93.5106 45.8708 93.6806 46.0496C93.8506 46.2284 94.0837 46.3387 94.38 46.3803Z" fill="#5C5C5C"/>
<path d="M98.3096 44.7982L97.9443 47.3977L97.2804 47.3044L97.8876 42.9832L98.529 43.0734L98.4341 43.7485L98.4904 43.7565C98.6225 43.5513 98.8011 43.3966 99.0261 43.2924C99.2514 43.1864 99.5272 43.1563 99.8535 43.2022C100.146 43.2433 100.394 43.3393 100.596 43.4902C100.799 43.6392 100.944 43.8432 101.032 44.1023C101.121 44.3595 101.139 44.6719 101.087 45.0395L100.701 47.7852L100.037 47.6919L100.417 44.9912C100.465 44.6517 100.414 44.3749 100.264 44.1607C100.114 43.9446 99.886 43.8149 99.5784 43.7717C99.3665 43.7419 99.1706 43.7612 98.9907 43.8297C98.8128 43.8984 98.6636 44.0141 98.5432 44.177C98.4228 44.3398 98.3449 44.5469 98.3096 44.7982Z" fill="#5C5C5C"/>
</svg>
