<svg width="109" height="49" viewBox="0 0 109 49" fill="none" xmlns="http://www.w3.org/2000/svg">
<path d="M29.1733 3.41809L32.4304 3.87591C33.2623 3.99285 33.9297 4.37511 34.4326 5.02269C34.9271 5.6691 35.1165 6.40411 35.0008 7.22774C34.8851 8.05136 34.5004 8.70569 33.8469 9.19073C33.185 9.67459 32.4381 9.85806 31.6062 9.74112L30.0713 9.52536L29.668 12.3956L27.9458 12.1535L29.1733 3.41809ZM30.2975 7.91555L31.8324 8.1313C32.1985 8.18276 32.5197 8.10065 32.796 7.88498C33.0735 7.66099 33.2386 7.3618 33.2912 6.98743C33.3449 6.60473 33.2687 6.27164 33.0625 5.98814C32.8563 5.70465 32.5702 5.53717 32.2042 5.48572L30.6692 5.26997L30.2975 7.91555Z" fill="#212121"/>
<path d="M40.3327 8.28262L40.4362 7.54635L42.046 7.77263L41.1692 14.0122L39.5594 13.7859L39.6629 13.0497C39.095 13.5892 38.3743 13.7975 37.5008 13.6747C36.6688 13.5578 35.9978 13.1411 35.4876 12.4246C34.987 11.701 34.8015 10.8774 34.9313 9.95398C35.0599 9.03884 35.4645 8.30249 36.1452 7.74492C36.8342 7.18852 37.5947 6.96879 38.4266 7.08572C39.3002 7.20851 39.9355 7.60748 40.3327 8.28262ZM36.8489 11.5215C37.1278 11.8916 37.5168 12.1117 38.0159 12.1819C38.5151 12.252 38.9497 12.1477 39.3198 11.8689C39.6993 11.5829 39.9253 11.1819 39.9978 10.6661C40.0703 10.1503 39.9629 9.70682 39.6757 9.33558C39.398 8.9572 39.0096 8.73292 38.5104 8.66276C38.0113 8.5926 37.5761 8.7011 37.2049 8.98827C36.8348 9.26712 36.6136 9.66445 36.5411 10.1803C36.4686 10.6961 36.5712 11.1432 36.8489 11.5215Z" fill="#212121"/>
<path d="M45.5996 12.5479L47.5739 8.54965L49.296 8.79171L46.1481 14.7121C45.6974 15.5649 45.1736 16.1531 44.5767 16.4764C43.987 16.8092 43.2957 16.8987 42.5029 16.7448L42.7133 15.2473C43.1364 15.3153 43.4904 15.2717 43.7752 15.1166C44.06 14.9615 44.307 14.6823 44.5164 14.2791L42.8069 7.87958L44.5665 8.12691L45.5996 12.5479Z" fill="#212121"/>
<path d="M56.9876 9.6947C57.7031 9.79526 58.2403 10.1083 58.5991 10.6338C58.9662 11.1605 59.0948 11.8149 58.985 12.5969L58.4449 16.4405L56.835 16.2142L57.3594 12.483C57.412 12.1086 57.3614 11.8045 57.2076 11.5708C57.0538 11.3371 56.8105 11.1969 56.4777 11.1501C56.1117 11.0986 55.8077 11.1789 55.5658 11.391C55.3322 11.6042 55.1833 11.9395 55.119 12.3971L54.6263 15.9038L53.0164 15.6775L53.5408 11.9462C53.5934 11.5718 53.5428 11.2678 53.389 11.0341C53.2352 10.8004 52.9919 10.6601 52.6591 10.6133C52.3014 10.5631 51.9968 10.6475 51.7454 10.8667C51.5036 11.0787 51.351 11.4094 51.2879 11.8586L50.7952 15.3653L49.1854 15.139L50.0621 8.89939L51.672 9.12567L51.579 9.78707C52.0317 9.28229 52.6491 9.08486 53.4311 9.19478C54.2048 9.30353 54.7284 9.68255 55.002 10.3318C55.4938 9.79014 56.1557 9.57776 56.9876 9.6947Z" fill="#212121"/>
<path d="M66.2224 15.0268L61.5178 14.3655C61.6159 15.1768 62.1474 15.6502 63.1125 15.7859C63.7281 15.8724 64.2232 15.7299 64.5978 15.3584L65.7904 16.2895C65.0497 17.0932 64.0803 17.4108 62.8824 17.2424C61.8507 17.0974 61.0668 16.6691 60.5305 15.9574C59.9943 15.2458 59.7928 14.4157 59.926 13.4673C60.057 12.5355 60.4747 11.7968 61.1791 11.251C61.8753 10.7041 62.7101 10.4991 63.6834 10.6359C64.6069 10.7657 65.3154 11.1876 65.8089 11.9018C66.319 12.6183 66.5087 13.4424 66.3777 14.3742C66.3532 14.5489 66.3014 14.7664 66.2224 15.0268ZM61.6682 13.1141L64.8503 13.5614C64.8161 13.1408 64.6728 12.8026 64.4203 12.5465C64.1761 12.2916 63.8627 12.1372 63.48 12.0835C63.0474 12.0226 62.6739 12.0847 62.3595 12.2695C62.0462 12.4461 61.8158 12.7276 61.6682 13.1141Z" fill="#212121"/>
<path d="M71.4337 11.7253C72.1242 11.8223 72.6536 12.13 73.0219 12.6484C73.4057 13.1774 73.5414 13.8413 73.4292 14.64L72.8909 18.4711L71.2811 18.2448L71.7914 14.6134C71.8486 14.2057 71.7808 13.8738 71.5877 13.6176C71.403 13.3625 71.1192 13.2081 70.7365 13.1543C70.3123 13.0947 69.9566 13.1805 69.6696 13.4116C69.3921 13.6356 69.2177 14.0013 69.1464 14.5088L68.6729 17.8782L67.0631 17.6519L67.9399 11.4123L69.5497 11.6386L69.4515 12.3374C69.916 11.8089 70.5768 11.6048 71.4337 11.7253Z" fill="#212121"/>
<path d="M78.7112 12.9264L78.4938 14.4738L77.0836 14.2756L76.7189 16.8712C76.6885 17.0875 76.7204 17.2532 76.8145 17.3682C76.9086 17.4833 77.0585 17.5637 77.2642 17.6096C77.471 17.6472 77.7295 17.6793 78.0396 17.7059L77.8344 19.1659C76.7271 19.1375 75.9632 18.9284 75.5429 18.5384C75.1321 18.1413 74.9875 17.5102 75.1091 16.645L75.4738 14.0493L74.3882 13.8967L74.6056 12.3493L75.6913 12.5019L75.8684 11.2415L77.5466 10.9811L77.3011 12.7282L78.7112 12.9264Z" fill="#212121"/>
<path d="M80.9482 15.0478C80.9108 15.3141 81.2572 15.5961 81.9873 15.8938C82.2454 15.9895 82.4767 16.0941 82.6813 16.2077C82.8871 16.313 83.0876 16.4557 83.2829 16.6358C83.4876 16.8089 83.6355 17.0248 83.7264 17.2836C83.8172 17.5424 83.8405 17.8298 83.796 18.146C83.706 18.7866 83.3952 19.2477 82.8636 19.5293C82.3331 19.8025 81.7143 19.8895 81.0072 19.7901C79.726 19.61 78.922 18.9922 78.5952 17.9367L80.1034 17.347C80.2187 17.9146 80.5884 18.2423 81.2123 18.33C81.7864 18.4107 82.0985 18.2722 82.1488 17.9144C82.1862 17.6482 81.8398 17.3662 81.1097 17.0685C80.8373 16.9538 80.6066 16.845 80.4174 16.7421C80.2283 16.6392 80.0272 16.5006 79.8141 16.3264C79.6022 16.1439 79.4496 15.9316 79.3564 15.6894C79.2727 15.4401 79.2524 15.1616 79.2957 14.8537C79.3822 14.2381 79.6746 13.7871 80.173 13.5009C80.6808 13.2075 81.2717 13.1081 81.9455 13.2028C82.453 13.2742 82.8984 13.4555 83.2816 13.7469C83.666 14.03 83.9491 14.4007 84.1307 14.8589L82.6528 15.4147C82.5127 14.9623 82.2098 14.7034 81.7439 14.6379C81.5359 14.6087 81.3542 14.6341 81.1987 14.714C81.0527 14.7868 80.9692 14.8981 80.9482 15.0478Z" fill="#212121"/>
<path d="M5.74151 18.923C5.74781 18.6331 5.64199 18.3926 5.42407 18.2013C5.20614 18.01 4.92276 17.8898 4.57391 17.8408C4.31884 17.805 4.08986 17.8148 3.88696 17.8705C3.68594 17.9264 3.52183 18.019 3.39464 18.1484C3.26932 18.2781 3.19374 18.4348 3.16791 18.6186C3.1463 18.7724 3.16429 18.9097 3.22189 19.0307C3.28162 19.15 3.36449 19.2544 3.4705 19.3439C3.57676 19.4315 3.69037 19.5077 3.81131 19.5725C3.93252 19.6355 4.0446 19.6885 4.14755 19.7317L4.71057 19.9715C4.85508 20.032 5.01435 20.1098 5.1884 20.205C5.36433 20.3005 5.52825 20.4202 5.68018 20.5639C5.83425 20.7061 5.95356 20.8778 6.03813 21.079C6.12269 21.2802 6.146 21.5159 6.10805 21.7859C6.0643 22.0973 5.94318 22.3671 5.7447 22.5955C5.54809 22.8242 5.28371 22.9907 4.95155 23.0951C4.62127 23.1998 4.23483 23.221 3.79221 23.1588C3.3796 23.1008 3.03167 22.984 2.74843 22.8084C2.46706 22.633 2.25684 22.4141 2.11776 22.1517C1.98056 21.8895 1.92284 21.5993 1.94461 21.281L2.66481 21.3823C2.65299 21.6025 2.70083 21.7928 2.80834 21.9533C2.91798 22.1121 3.06639 22.2401 3.25357 22.3372C3.44289 22.4326 3.65195 22.4964 3.88076 22.5286C4.14708 22.566 4.39227 22.5565 4.61632 22.5C4.84064 22.4417 5.02563 22.3434 5.17129 22.2051C5.31721 22.0649 5.40493 21.8898 5.43445 21.6798C5.46133 21.4885 5.42975 21.3253 5.33971 21.1902C5.24968 21.0552 5.12272 20.9379 4.95884 20.8383C4.79496 20.7388 4.61569 20.6467 4.42105 20.5619L3.74057 20.2597C3.30863 20.067 2.97825 19.8322 2.74941 19.5552C2.52058 19.2783 2.43343 18.9457 2.48799 18.5574C2.53332 18.2349 2.66006 17.9658 2.86822 17.7502C3.07851 17.5331 3.34118 17.3787 3.65622 17.2872C3.9734 17.1941 4.31579 17.1734 4.68339 17.2251C5.05474 17.2773 5.37547 17.3902 5.64559 17.564C5.91597 17.7359 6.11948 17.9481 6.25612 18.2006C6.39464 18.4534 6.44816 18.7258 6.41669 19.0179L5.74151 18.923Z" fill="#5C5C5C"/>
<path d="M8.74441 23.8434C8.32805 23.7849 7.98181 23.6425 7.70568 23.4162C7.43169 23.1884 7.23643 22.897 7.11991 22.5421C7.00553 22.1856 6.97944 21.786 7.04163 21.3434C7.10383 20.9008 7.2393 20.522 7.44803 20.2071C7.6589 19.8906 7.92299 19.658 8.24031 19.5094C8.55978 19.3593 8.91456 19.3116 9.30466 19.3664C9.52972 19.3981 9.7467 19.4668 9.95559 19.5727C10.1645 19.6785 10.3471 19.8285 10.5034 20.0226C10.66 20.2149 10.7724 20.4563 10.8406 20.7471C10.9087 21.0378 10.9145 21.3848 10.8578 21.788L10.8183 22.0693L7.48738 21.6011L7.56802 21.0272L10.2237 21.4005C10.258 21.1567 10.2398 20.9323 10.1692 20.7273C10.1004 20.5225 9.9847 20.3523 9.82207 20.2166C9.66132 20.0812 9.46092 19.9966 9.22085 19.9628C8.95641 19.9257 8.71837 19.9591 8.50675 20.0633C8.29726 20.1658 8.12632 20.3139 7.99391 20.5076C7.8615 20.7013 7.77856 20.9172 7.74509 21.1554L7.69133 21.538C7.64547 21.8643 7.66287 22.1489 7.74351 22.3916C7.82629 22.6328 7.96065 22.8267 8.1466 22.9733C8.33282 23.1181 8.56002 23.2093 8.82822 23.247C9.00264 23.2715 9.16361 23.2693 9.31113 23.2403C9.46078 23.2097 9.59417 23.1519 9.71129 23.067C9.82867 22.9802 9.92604 22.8658 10.0034 22.7236L10.6195 22.9938C10.5214 23.2019 10.3811 23.3773 10.1985 23.5199C10.0161 23.6607 9.80126 23.7605 9.55391 23.8195C9.30682 23.8765 9.03699 23.8845 8.74441 23.8434Z" fill="#5C5C5C"/>
<path d="M12.5855 21.6407L12.2202 24.2401L11.5562 24.1468L12.1635 19.8256L12.8049 19.9158L12.71 20.591L12.7663 20.5989C12.8984 20.3937 13.0769 20.239 13.302 20.1349C13.5272 20.0288 13.8031 19.9987 14.1294 20.0446C14.422 20.0857 14.6695 20.1817 14.8721 20.3326C15.0749 20.4816 15.2203 20.6856 15.3082 20.9447C15.3964 21.2019 15.4147 21.5143 15.363 21.8819L14.9772 24.6277L14.3132 24.5344L14.6927 21.8336C14.7404 21.4941 14.6895 21.2173 14.5398 21.0031C14.3904 20.787 14.1619 20.6574 13.8543 20.6141C13.6424 20.5843 13.4465 20.6037 13.2666 20.6721C13.0887 20.7408 12.9395 20.8566 12.8191 21.0194C12.6986 21.1823 12.6208 21.3894 12.5855 21.6407Z" fill="#5C5C5C"/>
<path d="M17.8094 25.1176C17.4493 25.067 17.1442 24.9313 16.8941 24.7106C16.6442 24.4881 16.4649 24.199 16.3561 23.8432C16.2476 23.4856 16.2255 23.078 16.2899 22.6204C16.3536 22.1665 16.4868 21.7836 16.6894 21.4716C16.892 21.1597 17.1448 20.9323 17.448 20.7893C17.7511 20.6464 18.0846 20.6006 18.4484 20.6517C18.7298 20.6912 18.9454 20.7694 19.0954 20.8861C19.2475 21.0012 19.3584 21.1239 19.4281 21.2542C19.4999 21.3828 19.5549 21.4881 19.5932 21.57L19.6494 21.5779L19.9483 19.451L20.6122 19.5444L19.8026 25.3059L19.1612 25.2158L19.2545 24.5519L19.1757 24.5408C19.1159 24.6127 19.0325 24.7023 18.9256 24.8097C18.819 24.9152 18.6756 25.0031 18.4955 25.0735C18.3157 25.1419 18.087 25.1566 17.8094 25.1176ZM17.9832 24.5338C18.2496 24.5713 18.4844 24.5335 18.6877 24.4205C18.8912 24.3057 19.0583 24.1312 19.1887 23.8971C19.3194 23.6611 19.4077 23.38 19.4535 23.0536C19.4989 22.731 19.4916 22.4422 19.4319 22.187C19.3723 21.9301 19.2602 21.7211 19.0953 21.5602C18.9308 21.3975 18.7135 21.2971 18.4434 21.2592C18.1621 21.2196 17.9175 21.2589 17.7096 21.3769C17.5039 21.4934 17.3369 21.6679 17.2086 21.9004C17.0825 22.1313 16.9981 22.3986 16.9554 22.7025C16.9121 23.0101 16.9198 23.2961 16.9782 23.5606C17.0388 23.8235 17.1515 24.0421 17.3164 24.2163C17.4834 24.389 17.7057 24.4948 17.9832 24.5338Z" fill="#5C5C5C"/>
<path d="M23.3389 25.803L23.9461 21.4818L24.61 21.5752L24.0028 25.8963L23.3389 25.803ZM24.3849 20.8091C24.2555 20.7909 24.1501 20.7311 24.0687 20.6298C23.9892 20.5287 23.9581 20.4163 23.9755 20.2925C23.9929 20.1687 24.0537 20.0692 24.158 19.994C24.2642 19.919 24.382 19.8906 24.5114 19.9088C24.6408 19.927 24.7452 19.9867 24.8247 20.0877C24.9061 20.1891 24.9381 20.3016 24.9207 20.4254C24.9033 20.5492 24.8416 20.6486 24.7354 20.7235C24.6311 20.7988 24.5143 20.8273 24.3849 20.8091Z" fill="#5C5C5C"/>
<path d="M26.248 23.5611L25.8827 26.1606L25.2188 26.0673L25.826 21.7461L26.4674 21.8362L26.3726 22.5114L26.4288 22.5193C26.5609 22.3141 26.7395 22.1595 26.9645 22.0553C27.1898 21.9493 27.4656 21.9192 27.792 21.965C28.0845 22.0062 28.3321 22.1022 28.5347 22.253C28.7375 22.402 28.8829 22.6061 28.9708 22.8652C29.059 23.1224 29.0772 23.4348 29.0256 23.8024L28.6397 26.5481L27.9758 26.4548L28.3553 23.754C28.403 23.4146 28.352 23.1377 28.2023 22.9235C28.0529 22.7075 27.8244 22.5778 27.5168 22.5346C27.3049 22.5048 27.109 22.5241 26.9292 22.5925C26.7512 22.6612 26.6021 22.777 26.4816 22.9399C26.3612 23.1027 26.2833 23.3098 26.248 23.5611Z" fill="#5C5C5C"/>
<path d="M33.8389 22.8724L31.6337 26.969L30.9586 26.8741L29.9678 22.3283L30.688 22.4295L31.397 26.0406L31.442 26.0469L33.1187 22.7711L33.8389 22.8724Z" fill="#5C5C5C"/>
<path d="M35.6961 27.6318C35.306 27.5769 34.9767 27.436 34.7084 27.2089C34.4419 26.9821 34.2496 26.6902 34.1315 26.3332C34.0152 25.9764 33.9884 25.5748 34.0512 25.1284C34.1144 24.6783 34.2512 24.2969 34.4615 23.9841C34.6738 23.6716 34.9392 23.443 35.2579 23.2985C35.5784 23.1542 35.9337 23.1095 36.3239 23.1643C36.714 23.2191 37.0423 23.3599 37.3087 23.5867C37.5771 23.8138 37.7693 24.1067 37.8853 24.4653C38.0031 24.8242 38.0305 25.2288 37.9672 25.6789C37.9045 26.1253 37.7671 26.5038 37.5552 26.8144C37.3451 27.1253 37.0798 27.3529 36.7592 27.4972C36.4406 27.6417 36.0862 27.6866 35.6961 27.6318ZM35.7799 27.0354C36.0762 27.077 36.3307 27.0353 36.5434 26.9103C36.756 26.7853 36.9257 26.6054 37.0524 26.3708C37.1791 26.1361 37.2627 25.8744 37.3033 25.5856C37.3439 25.2967 37.3357 25.0211 37.2789 24.7588C37.222 24.4964 37.1088 24.2749 36.9391 24.0942C36.7694 23.9135 36.5364 23.8024 36.24 23.7607C35.9437 23.7191 35.6891 23.7617 35.4762 23.8886C35.2633 24.0155 35.0933 24.1972 34.9664 24.4337C34.8394 24.6703 34.7557 24.9329 34.7151 25.2218C34.6745 25.5106 34.6828 25.7852 34.7399 26.0457C34.797 26.3062 34.9105 26.5259 35.0805 26.7047C35.2504 26.8835 35.4836 26.9937 35.7799 27.0354Z" fill="#5C5C5C"/>
<path d="M38.6802 27.9594L39.2874 23.6382L39.9514 23.7316L39.3442 28.0527L38.6802 27.9594ZM39.7262 22.9655C39.5968 22.9473 39.4914 22.8875 39.41 22.7862C39.3305 22.6852 39.2995 22.5727 39.3169 22.4489C39.3343 22.3252 39.3951 22.2256 39.4994 22.1504C39.6055 22.0755 39.7233 22.0471 39.8527 22.0653C39.9821 22.0834 40.0866 22.1431 40.1661 22.2441C40.2475 22.3455 40.2795 22.458 40.2621 22.5818C40.2447 22.7056 40.1829 22.805 40.0768 22.8799C39.9725 22.9552 39.8556 22.9837 39.7262 22.9655Z" fill="#5C5C5C"/>
<path d="M42.303 28.5605C41.8979 28.5035 41.5625 28.3588 41.2968 28.1264C41.0311 27.894 40.8431 27.5988 40.7327 27.241C40.6223 26.8831 40.5975 26.4885 40.6581 26.0571C40.7197 25.6182 40.8548 25.2423 41.0633 24.9292C41.2739 24.6146 41.5379 24.383 41.8552 24.2344C42.1746 24.0842 42.5294 24.0366 42.9195 24.0914C43.2234 24.1341 43.4893 24.2289 43.7173 24.3757C43.9453 24.5225 44.1229 24.7081 44.2501 24.9325C44.3773 25.157 44.4407 25.4068 44.4402 25.6822L43.7763 25.5889C43.7533 25.3848 43.6653 25.1946 43.5122 25.0181C43.3613 24.8401 43.1395 24.7305 42.847 24.6894C42.5882 24.653 42.3517 24.6886 42.1377 24.7963C41.9258 24.9023 41.7483 25.0695 41.6053 25.2981C41.4644 25.525 41.371 25.8016 41.3252 26.1279C41.2783 26.4618 41.2899 26.7599 41.3602 27.0222C41.4323 27.2848 41.5553 27.4981 41.7292 27.6622C41.9051 27.8265 42.1242 27.9271 42.3868 27.964C42.5594 27.9883 42.7202 27.9803 42.8693 27.9401C43.0184 27.8998 43.1496 27.8303 43.2629 27.7315C43.3763 27.6326 43.4646 27.5073 43.528 27.3556L44.192 27.4489C44.1186 27.6987 43.9935 27.9154 43.8166 28.099C43.6418 28.281 43.4251 28.415 43.1663 28.5011C42.9096 28.5855 42.6218 28.6053 42.303 28.5605Z" fill="#5C5C5C"/>
<path d="M46.7845 29.1904C46.3682 29.1319 46.0219 28.9895 45.7458 28.7632C45.4718 28.5354 45.2765 28.244 45.16 27.8891C45.0456 27.5326 45.0195 27.133 45.0817 26.6904C45.1439 26.2478 45.2794 25.869 45.4881 25.5541C45.699 25.2375 45.9631 25.005 46.2804 24.8564C46.5999 24.7063 46.9547 24.6586 47.3448 24.7134C47.5698 24.7451 47.7868 24.8138 47.9957 24.9197C48.2046 25.0255 48.3872 25.1755 48.5435 25.3696C48.7001 25.5618 48.8125 25.8033 48.8807 26.0941C48.9488 26.3848 48.9546 26.7318 48.8979 27.135L48.8584 27.4163L45.5275 26.9481L45.6081 26.3742L48.2638 26.7475C48.2981 26.5037 48.2799 26.2793 48.2093 26.0743C48.1405 25.8695 48.0248 25.6993 47.8622 25.5636C47.7014 25.4282 47.501 25.3436 47.261 25.3098C46.9965 25.2727 46.7585 25.3061 46.5469 25.4103C46.3374 25.5128 46.1664 25.6609 46.034 25.8546C45.9016 26.0483 45.8187 26.2642 45.7852 26.5024L45.7314 26.885C45.6856 27.2113 45.703 27.4959 45.7836 27.7386C45.8664 27.9798 46.0008 28.1737 46.1867 28.3203C46.3729 28.465 46.6001 28.5563 46.8683 28.594C47.0428 28.6185 47.2037 28.6162 47.3512 28.5873C47.5009 28.5567 47.6343 28.4989 47.7514 28.414C47.8688 28.3272 47.9661 28.2128 48.0435 28.0706L48.6596 28.3408C48.5615 28.5489 48.4212 28.7243 48.2386 28.8669C48.0562 29.0077 47.8414 29.1075 47.594 29.1665C47.3469 29.2235 47.0771 29.2315 46.7845 29.1904Z" fill="#5C5C5C"/>
<path d="M53.1284 26.5706L52.5083 26.6556C52.4847 26.5509 52.443 26.4466 52.383 26.3425C52.3252 26.2368 52.2387 26.1444 52.1236 26.0651C52.0086 25.9858 51.8544 25.9325 51.6612 25.9054C51.3968 25.8682 51.1679 25.8982 50.9744 25.9953C50.7831 26.0908 50.6745 26.2314 50.6484 26.4171C50.6252 26.5822 50.6669 26.7209 50.7735 26.8335C50.8801 26.946 51.0564 27.0521 51.3025 27.1517L51.9218 27.3994C52.295 27.5475 52.5627 27.7314 52.725 27.9512C52.8875 28.1691 52.9476 28.4291 52.9051 28.731C52.8704 28.9786 52.768 29.1899 52.598 29.3649C52.43 29.5402 52.2114 29.6663 51.9424 29.7433C51.6734 29.8202 51.3711 29.8351 51.0353 29.7879C50.5946 29.7259 50.2433 29.579 49.9813 29.3471C49.7194 29.1152 49.5758 28.8101 49.5505 28.4316L50.2028 28.3627C50.2302 28.6037 50.3191 28.794 50.4697 28.9338C50.6222 29.0738 50.8344 29.1629 51.1063 29.2011C51.4158 29.2446 51.6707 29.2135 51.8711 29.1078C52.0736 29.0005 52.1879 28.854 52.214 28.6683C52.2351 28.5183 52.2002 28.3852 52.1094 28.2692C52.0189 28.1513 51.8684 28.0517 51.6579 27.9705L50.9615 27.7005C50.5789 27.5511 50.3086 27.3648 50.1506 27.1418C49.9948 26.9172 49.9378 26.6558 49.9797 26.3576C50.014 26.1137 50.1127 25.9077 50.276 25.7394C50.4411 25.5713 50.6503 25.4506 50.9035 25.3772C51.1586 25.304 51.4381 25.2888 51.7419 25.3315C52.1695 25.3916 52.492 25.5326 52.7095 25.7544C52.9288 25.9765 53.0685 26.2486 53.1284 26.5706Z" fill="#5C5C5C"/>
<path d="M57.2208 30.6688C56.947 30.6303 56.7057 30.5438 56.497 30.4093C56.2886 30.2729 56.1326 30.097 56.029 29.8816C55.9256 29.6644 55.8937 29.4151 55.9333 29.1337C55.968 28.8862 56.045 28.6923 56.1641 28.5523C56.2836 28.4103 56.431 28.3067 56.6066 28.2415C56.7821 28.1763 56.9714 28.1359 57.1744 28.1205C57.3795 28.1034 57.5843 28.0959 57.7886 28.0978C58.056 28.101 58.2724 28.1056 58.4379 28.1116C58.6056 28.1161 58.73 28.102 58.8111 28.0694C58.894 28.0371 58.943 27.9675 58.958 27.8605L58.9612 27.838C59.0002 27.5605 58.9546 27.3341 58.8242 27.159C58.6958 26.9841 58.4788 26.8752 58.173 26.8322C57.8561 26.7876 57.5978 26.8221 57.3983 26.9356C57.1987 27.0491 57.0513 27.1794 56.956 27.3267L56.3575 27.013C56.5069 26.7663 56.6857 26.5829 56.8938 26.463C57.104 26.3415 57.3248 26.2673 57.5562 26.2406C57.7897 26.2122 58.0152 26.2133 58.2328 26.2439C58.3716 26.2634 58.5286 26.3027 58.7039 26.3617C58.8813 26.4192 59.0473 26.5104 59.2019 26.6354C59.3584 26.7607 59.4785 26.9334 59.5623 27.1537C59.6461 27.3739 59.6639 27.6557 59.6156 27.9989L59.2156 30.8459L58.5516 30.7526L58.6339 30.1674L58.6001 30.1627C58.5419 30.2501 58.4528 30.3399 58.3328 30.4321C58.2127 30.5242 58.0602 30.5955 57.8752 30.646C57.6903 30.6965 57.4721 30.7041 57.2208 30.6688ZM57.4059 30.0866C57.6685 30.1235 57.897 30.1031 58.0916 30.0252C58.288 29.9476 58.4436 29.8337 58.5584 29.6835C58.6751 29.5335 58.7461 29.3685 58.7714 29.1884L58.8568 28.5807C58.824 28.6105 58.7577 28.6328 58.6581 28.6475C58.5606 28.6606 58.4486 28.6687 58.3219 28.6719C58.1974 28.6736 58.0759 28.6737 57.9575 28.6724C57.8412 28.6694 57.7468 28.6676 57.6742 28.667C57.4985 28.6652 57.3321 28.6791 57.1749 28.7087C57.0199 28.7366 56.8895 28.7938 56.7836 28.8803C56.6799 28.9652 56.6162 29.092 56.5924 29.2608C56.56 29.4915 56.6209 29.6779 56.7749 29.8201C56.9311 29.9606 57.1415 30.0495 57.4059 30.0866Z" fill="#5C5C5C"/>
<path d="M61.4566 28.5101L61.0913 31.1096L60.4274 31.0162L61.0346 26.6951L61.676 26.7852L61.5811 27.4604L61.6374 27.4683C61.7695 27.2631 61.9481 27.1084 62.1731 27.0043C62.3984 26.8982 62.6742 26.8682 63.0005 26.914C63.2931 26.9551 63.5407 27.0511 63.7432 27.202C63.9461 27.351 64.0914 27.5551 64.1794 27.8141C64.2675 28.0713 64.2858 28.3837 64.2341 28.7513L63.8483 31.4971L63.1844 31.4038L63.5639 28.703C63.6116 28.3636 63.5606 28.0867 63.4109 27.8725C63.2615 27.6564 63.033 27.5268 62.7254 27.4835C62.5135 27.4538 62.3176 27.4731 62.1378 27.5415C61.9598 27.6102 61.8106 27.726 61.6902 27.8888C61.5698 28.0517 61.4919 28.2588 61.4566 28.5101Z" fill="#5C5C5C"/>
<path d="M66.6806 31.987C66.3205 31.9364 66.0153 31.8007 65.7652 31.5801C65.5153 31.3575 65.336 31.0684 65.2273 30.7127C65.1188 30.3551 65.0967 29.9474 65.161 29.4898C65.2248 29.0359 65.3579 28.653 65.5605 28.3411C65.7631 28.0291 66.016 27.8017 66.3191 27.6588C66.6222 27.5159 66.9557 27.47 67.3196 27.5211C67.6009 27.5607 67.8166 27.6388 67.9665 27.7555C68.1187 27.8706 68.2296 27.9933 68.2993 28.1236C68.3711 28.2522 68.4261 28.3575 68.4643 28.4394L68.5206 28.4473L68.8194 26.3205L69.4834 26.4138L68.6737 32.1754L68.0323 32.0852L68.1256 31.4213L68.0468 31.4102C67.987 31.4821 67.9036 31.5718 67.7967 31.6792C67.6901 31.7847 67.5468 31.8726 67.3667 31.9429C67.1868 32.0113 66.9581 32.026 66.6806 31.987ZM66.8544 31.4032C67.1207 31.4407 67.3555 31.4029 67.5588 31.29C67.7624 31.1751 67.9294 31.0007 68.0598 30.7665C68.1905 30.5305 68.2788 30.2494 68.3247 29.923C68.37 29.6004 68.3628 29.3116 68.303 29.0565C68.2435 28.7995 68.1313 28.5905 67.9665 28.4297C67.8019 28.2669 67.5846 28.1666 67.3145 28.1286C67.0332 28.0891 66.7886 28.1283 66.5808 28.2464C66.3751 28.3628 66.2081 28.5373 66.0798 28.7698C65.9536 29.0007 65.8692 29.2681 65.8265 29.5719C65.7833 29.8795 65.7909 30.1655 65.8494 30.43C65.9099 30.6929 66.0227 30.9115 66.1875 31.0857C66.3545 31.2584 66.5768 31.3642 66.8544 31.4032Z" fill="#5C5C5C"/>
<path d="M72.21 32.6724L72.8172 28.3513L73.4586 28.4414L73.3669 29.0941L73.4119 29.1004C73.5207 28.8977 73.6877 28.7442 73.9127 28.6401C74.1377 28.5359 74.3796 28.502 74.6384 28.5384C74.6872 28.5452 74.748 28.5548 74.8209 28.5669C74.8938 28.5791 74.9487 28.5897 74.9857 28.5987L74.8908 29.2739C74.8691 29.2651 74.8187 29.2494 74.7396 29.2268C74.6627 29.2026 74.5802 29.1843 74.492 29.1719C74.282 29.1424 74.0882 29.1601 73.9108 29.225C73.7355 29.2884 73.5892 29.3902 73.472 29.5306C73.3569 29.6693 73.2856 29.8362 73.2582 30.0313L72.8739 32.7658L72.21 32.6724Z" fill="#5C5C5C"/>
<path d="M76.8251 33.413C76.4088 33.3544 76.0625 33.212 75.7864 32.9858C75.5124 32.7579 75.3172 32.4666 75.2006 32.1117C75.0863 31.7551 75.0602 31.3556 75.1224 30.913C75.1846 30.4703 75.32 30.0916 75.5288 29.7766C75.7396 29.4601 76.0037 29.2276 76.3211 29.079C76.6405 28.9288 76.9953 28.8812 77.3854 28.936C77.6105 28.9676 77.8274 29.0364 78.0363 29.1422C78.2452 29.2481 78.4278 29.3981 78.5842 29.5922C78.7408 29.7844 78.8531 30.0259 78.9213 30.3166C78.9894 30.6073 78.9952 30.9543 78.9385 31.3576L78.899 31.6389L75.5681 31.1707L75.6488 30.5968L78.3045 30.9701C78.3387 30.7263 78.3205 30.5019 78.2499 30.2968C78.1811 30.0921 78.0654 29.9219 77.9028 29.7862C77.7421 29.6507 77.5417 29.5661 77.3016 29.5324C77.0371 29.4952 76.7991 29.5287 76.5875 29.6328C76.378 29.7354 76.207 29.8835 76.0746 30.0771C75.9422 30.2708 75.8593 30.4868 75.8258 30.725L75.7721 31.1076C75.7262 31.4339 75.7436 31.7184 75.8242 31.9612C75.907 32.2023 76.0414 32.3962 76.2273 32.5429C76.4135 32.6876 76.6408 32.7788 76.909 32.8165C77.0834 32.8411 77.2443 32.8388 77.3919 32.8098C77.5415 32.7792 77.6749 32.7215 77.792 32.6366C77.9094 32.5498 78.0068 32.4353 78.0841 32.2932L78.7002 32.5634C78.6021 32.7715 78.4618 32.9468 78.2792 33.0895C78.0968 33.2302 77.882 33.3301 77.6346 33.389C77.3876 33.4461 77.1177 33.4541 76.8251 33.413Z" fill="#5C5C5C"/>
<path d="M81.3798 34.0532C80.9747 33.9962 80.6393 33.8515 80.3736 33.6191C80.1079 33.3867 79.9199 33.0915 79.8095 32.7337C79.6991 32.3758 79.6743 31.9812 79.7349 31.5498C79.7965 31.111 79.9316 30.735 80.1401 30.422C80.3507 30.1073 80.6147 29.8757 80.932 29.7271C81.2514 29.5769 81.6062 29.5293 81.9963 29.5841C82.3001 29.6268 82.5661 29.7216 82.7941 29.8684C83.0221 30.0152 83.1997 30.2008 83.3269 30.4252C83.4541 30.6497 83.5175 30.8996 83.517 31.1749L82.8531 31.0816C82.8301 30.8775 82.7421 30.6873 82.589 30.5109C82.4381 30.3328 82.2163 30.2232 81.9238 30.1821C81.6649 30.1457 81.4285 30.1813 81.2145 30.289C81.0026 30.395 80.8251 30.5622 80.6821 30.7908C80.5412 31.0177 80.4478 31.2943 80.402 31.6206C80.355 31.9545 80.3667 32.2526 80.437 32.5149C80.5091 32.7775 80.6321 32.9908 80.806 33.1549C80.9819 33.3192 81.201 33.4198 81.4636 33.4567C81.6362 33.481 81.797 33.473 81.9461 33.4328C82.0952 33.3925 82.2264 33.323 82.3397 33.2242C82.4531 33.1253 82.5414 33.0001 82.6048 32.8483L83.2688 32.9416C83.1954 33.1914 83.0703 33.4081 82.8934 33.5917C82.7186 33.7737 82.5019 33.9077 82.2431 33.9938C81.9864 34.0782 81.6986 34.098 81.3798 34.0532Z" fill="#5C5C5C"/>
<path d="M85.805 34.6752C85.4149 34.6203 85.0857 34.4794 84.8174 34.2523C84.5509 34.0255 84.3586 33.7336 84.2404 33.3766C84.1242 33.0198 84.0974 32.6182 84.1601 32.1718C84.2234 31.7217 84.3602 31.3403 84.5705 31.0275C84.7827 30.715 85.0482 30.4864 85.3668 30.3419C85.6874 30.1976 86.0427 30.1529 86.4328 30.2077C86.8229 30.2625 87.1512 30.4034 87.4177 30.6302C87.6861 30.8572 87.8783 31.1501 87.9942 31.5087C88.1121 31.8677 88.1394 32.2722 88.0762 32.7223C88.0134 33.1687 87.8761 33.5472 87.6642 33.8578C87.4541 34.1687 87.1888 34.3963 86.8682 34.5406C86.5495 34.6852 86.1952 34.73 85.805 34.6752ZM85.8889 34.0788C86.1852 34.1204 86.4397 34.0787 86.6523 33.9537C86.865 33.8287 87.0346 33.6488 87.1613 33.4142C87.288 33.1795 87.3717 32.9178 87.4122 32.629C87.4528 32.3401 87.4447 32.0646 87.3878 31.8022C87.331 31.5398 87.2177 31.3183 87.048 31.1376C86.8783 30.9569 86.6453 30.8458 86.349 30.8041C86.0527 30.7625 85.7981 30.8051 85.5851 30.932C85.3722 31.0589 85.2023 31.2406 85.0754 31.4771C84.9484 31.7137 84.8646 31.9763 84.824 32.2652C84.7835 32.554 84.7917 32.8287 84.8488 33.0891C84.9059 33.3496 85.0195 33.5693 85.1894 33.7481C85.3594 33.9269 85.5925 34.0371 85.8889 34.0788Z" fill="#5C5C5C"/>
<path d="M89.8184 32.4967L89.4531 35.0962L88.7892 35.0028L89.3964 30.6817L90.0378 30.7718L89.943 31.447L89.9992 31.4549C90.1313 31.2497 90.3099 31.095 90.5349 30.9909C90.7602 30.8848 91.036 30.8547 91.3623 30.9006C91.6549 30.9417 91.9025 31.0377 92.1051 31.1886C92.3079 31.3376 92.4533 31.5417 92.5412 31.8007C92.6293 32.0579 92.6476 32.3703 92.5959 32.7379L92.2101 35.4837L91.5462 35.3904L91.9257 32.6896C91.9734 32.3502 91.9224 32.0733 91.7727 31.8591C91.6233 31.643 91.3948 31.5134 91.0872 31.4701C90.8753 31.4403 90.6794 31.4597 90.4996 31.5281C90.3216 31.5968 90.1724 31.7126 90.052 31.8754C89.9316 32.0383 89.8537 32.2454 89.8184 32.4967Z" fill="#5C5C5C"/>
<path d="M95.1661 35.991C94.761 35.9341 94.4256 35.7894 94.1599 35.5569C93.8942 35.3245 93.7062 35.0294 93.5958 34.6715C93.4855 34.3136 93.4606 33.919 93.5212 33.4877C93.5829 33.0488 93.718 32.6728 93.9264 32.3598C94.137 32.0451 94.401 31.8135 94.7183 31.665C95.0378 31.5148 95.3926 31.4671 95.7827 31.5219C96.0865 31.5647 96.3524 31.6594 96.5804 31.8062C96.8084 31.953 96.986 32.1386 97.1132 32.3631C97.2404 32.5875 97.3038 32.8374 97.3034 33.1127L96.6394 33.0194C96.6165 32.8154 96.5285 32.6251 96.3754 32.4487C96.2244 32.2706 96.0027 32.1611 95.7101 32.1199C95.4513 32.0836 95.2149 32.1192 95.0008 32.2268C94.7889 32.3328 94.6115 32.5001 94.4684 32.7286C94.3275 32.9555 94.2342 33.2321 94.1883 33.5585C94.1414 33.8923 94.1531 34.1904 94.2233 34.4527C94.2954 34.7153 94.4184 34.9287 94.5924 35.0927C94.7682 35.2571 94.9874 35.3577 95.25 35.3946C95.4225 35.4188 95.5833 35.4108 95.7324 35.3706C95.8815 35.3304 96.0127 35.2608 96.1261 35.162C96.2394 35.0632 96.3278 34.9379 96.3912 34.7861L97.0551 34.8795C96.9818 35.1293 96.8566 35.346 96.6797 35.5296C96.505 35.7116 96.2882 35.8456 96.0294 35.9316C95.7727 36.016 95.485 36.0358 95.1661 35.991Z" fill="#5C5C5C"/>
<path d="M97.8486 36.2762L98.4558 31.9551L99.1197 32.0484L98.5125 36.3696L97.8486 36.2762ZM98.8946 31.2823C98.7652 31.2641 98.6598 31.2044 98.5784 31.103C98.4989 31.002 98.4678 30.8895 98.4852 30.7658C98.5026 30.642 98.5634 30.5425 98.6677 30.4672C98.7739 30.3923 98.8917 30.3639 99.0211 30.3821C99.1505 30.4003 99.255 30.4599 99.3345 30.561C99.4159 30.6623 99.4479 30.7748 99.4305 30.8986C99.4131 31.0224 99.3513 31.1218 99.2451 31.1968C99.1408 31.272 99.024 31.3005 98.8946 31.2823Z" fill="#5C5C5C"/>
<path d="M101.202 30.8722L100.392 36.6338L99.7285 36.5405L100.538 30.7789L101.202 30.8722Z" fill="#5C5C5C"/>
<path d="M103.408 37.1494C102.991 37.0909 102.645 36.9485 102.369 36.7223C102.095 36.4944 101.9 36.203 101.783 35.8481C101.669 35.4916 101.643 35.0921 101.705 34.6494C101.767 34.2068 101.902 33.828 102.111 33.5131C102.322 33.1966 102.586 32.964 102.903 32.8155C103.223 32.6653 103.578 32.6176 103.968 32.6725C104.193 32.7041 104.41 32.7729 104.619 32.8787C104.828 32.9846 105.01 33.1346 105.167 33.3287C105.323 33.5209 105.436 33.7624 105.504 34.0531C105.572 34.3438 105.578 34.6908 105.521 35.094L105.481 35.3754L102.151 34.9072L102.231 34.3333L104.887 34.7066C104.921 34.4627 104.903 34.2383 104.832 34.0333C104.764 33.8286 104.648 33.6583 104.485 33.5226C104.324 33.3872 104.124 33.3026 103.884 33.2689C103.62 33.2317 103.382 33.2652 103.17 33.3693C102.96 33.4718 102.789 33.6199 102.657 33.8136C102.525 34.0073 102.442 34.2232 102.408 34.4614L102.354 34.844C102.309 35.1704 102.326 35.4549 102.407 35.6977C102.489 35.9388 102.624 36.1327 102.81 36.2793C102.996 36.4241 103.223 36.5153 103.491 36.553C103.666 36.5775 103.827 36.5753 103.974 36.5463C104.124 36.5157 104.257 36.4579 104.374 36.373C104.492 36.2863 104.589 36.1718 104.667 36.0297L105.283 36.2999C105.185 36.508 105.044 36.6833 104.862 36.8259C104.679 36.9667 104.464 37.0666 104.217 37.1255C103.97 37.1826 103.7 37.1906 103.408 37.1494Z" fill="#5C5C5C"/>
<path d="M0.517895 34.346L1.35281 28.4044L1.99423 28.4945L1.89777 29.181L1.97655 29.192C2.03585 29.1239 2.11681 29.0377 2.21942 28.9336C2.32417 28.8278 2.46459 28.7404 2.64067 28.6715C2.8189 28.6009 3.04867 28.5854 3.32999 28.6249C3.69384 28.6761 4.00177 28.8121 4.25378 29.033C4.50579 29.254 4.68617 29.5423 4.79493 29.898C4.90368 30.2538 4.92617 30.6586 4.86239 31.1124C4.79809 31.5701 4.66452 31.9558 4.46168 32.2696C4.2591 32.5816 4.00705 32.8101 3.70552 32.9551C3.40426 33.0983 3.07358 33.1446 2.71348 33.094C2.4359 33.055 2.22012 32.9778 2.06611 32.8624C1.91237 32.7452 1.79879 32.6211 1.72536 32.4903C1.65221 32.3576 1.59678 32.2485 1.55909 32.1629L1.50282 32.155L1.18182 34.4393L0.517895 34.346ZM1.70188 30.6567C1.65602 30.9831 1.66339 31.2777 1.72399 31.5406C1.78485 31.8016 1.8973 32.0153 2.06134 32.1818C2.22563 32.3464 2.44094 32.4475 2.70726 32.4849C2.98484 32.5239 3.22674 32.4833 3.43297 32.3631C3.64134 32.2413 3.80994 32.0623 3.93877 31.826C4.06973 31.5882 4.15683 31.3154 4.20005 31.0079C4.24274 30.704 4.23433 30.4236 4.17482 30.1666C4.11744 29.908 4.005 29.6942 3.83748 29.5253C3.67209 29.3548 3.44874 29.2498 3.16742 29.2103C2.89734 29.1723 2.66079 29.2089 2.45775 29.3199C2.25498 29.4291 2.08957 29.5991 1.96153 29.8297C1.83376 30.0585 1.74721 30.3341 1.70188 30.6567Z" fill="#5C5C5C"/>
<path d="M6.8305 33.6841C6.55668 33.6457 6.31542 33.5591 6.10673 33.4246C5.89831 33.2882 5.74229 33.1123 5.63867 32.897C5.53532 32.6797 5.50342 32.4304 5.54295 32.1491C5.57774 31.9015 5.6547 31.7077 5.77383 31.5676C5.89324 31.4256 6.04071 31.3221 6.21627 31.2568C6.39182 31.1916 6.5811 31.1513 6.78409 31.1358C6.98921 31.1188 7.19396 31.1112 7.39833 31.1132C7.66565 31.1163 7.88207 31.1209 8.04761 31.127C8.21529 31.1314 8.33967 31.1173 8.42076 31.0847C8.50371 31.0524 8.5527 30.9828 8.56772 30.8759L8.57089 30.8534C8.60989 30.5758 8.56424 30.3494 8.43394 30.1743C8.30551 29.9994 8.08844 29.8905 7.78273 29.8475C7.46577 29.803 7.20752 29.8374 7.00797 29.9509C6.80842 30.0644 6.661 30.1948 6.56572 30.342L5.96717 30.0284C6.1166 29.7816 6.29537 29.5983 6.50347 29.4784C6.71372 29.3568 6.93452 29.2827 7.16587 29.2559C7.39937 29.2275 7.62489 29.2286 7.84245 29.2592C7.98124 29.2787 8.13829 29.318 8.31359 29.3771C8.49103 29.4345 8.65704 29.5257 8.8116 29.6508C8.96804 29.776 9.08816 29.9488 9.17197 30.169C9.25577 30.3893 9.27356 30.671 9.22533 31.0142L8.82526 33.8613L8.16134 33.7679L8.24356 33.1828L8.2098 33.178C8.15161 33.2655 8.06249 33.3553 7.94244 33.4474C7.82239 33.5396 7.66989 33.6109 7.48492 33.6614C7.29996 33.7119 7.08182 33.7195 6.8305 33.6841ZM7.01559 33.102C7.27816 33.1389 7.50671 33.1184 7.70126 33.0406C7.89768 32.963 8.0533 32.8491 8.16813 32.6988C8.28483 32.5488 8.35583 32.3838 8.38113 32.2038L8.46652 31.5961C8.43365 31.6259 8.36741 31.6481 8.2678 31.6628C8.17034 31.6759 8.05826 31.6841 7.93158 31.6873C7.80704 31.6889 7.68557 31.689 7.56718 31.6877C7.45093 31.6848 7.35651 31.683 7.28393 31.6823C7.10822 31.6806 6.94179 31.6945 6.78463 31.724C6.62961 31.752 6.49917 31.8092 6.3933 31.8957C6.28957 31.9805 6.22585 32.1074 6.20213 32.2762C6.16972 32.5068 6.23054 32.6933 6.38461 32.8354C6.54081 32.9759 6.75114 33.0648 7.01559 33.102Z" fill="#5C5C5C"/>
<path d="M10.0823 35.6904C9.96972 35.6746 9.8707 35.6511 9.78519 35.6199C9.69941 35.5907 9.64083 35.5652 9.60944 35.5436L9.86046 34.9822C10.016 35.0461 10.1564 35.0811 10.2818 35.0873C10.4071 35.0934 10.5246 35.0535 10.6342 34.9676C10.7455 34.8838 10.8568 34.7378 10.9683 34.5297L11.1395 34.2095L10.152 29.6412L10.8722 29.7424L11.5811 33.3535L11.6261 33.3599L13.3028 30.0841L14.023 30.1853L11.493 34.8789C11.3791 35.0904 11.2509 35.2608 11.1085 35.39C10.9657 35.521 10.8087 35.6108 10.6374 35.6594C10.468 35.7083 10.2829 35.7186 10.0823 35.6904Z" fill="#5C5C5C"/>
<path d="M14.2921 34.6297L14.8993 30.3085L15.5408 30.3987L15.4459 31.0739L15.5021 31.0818C15.6246 30.8637 15.7951 30.705 16.0137 30.6057C16.2326 30.5045 16.4827 30.4737 16.764 30.5132C17.0491 30.5533 17.2772 30.6514 17.4485 30.8074C17.6218 30.9618 17.7458 31.1619 17.8203 31.4076L17.8653 31.4139C18.0073 31.2063 18.1982 31.0524 18.4379 30.9522C18.678 30.8502 18.9527 30.8209 19.2622 30.8644C19.6485 30.9187 19.9475 31.0841 20.1592 31.3605C20.3712 31.6351 20.4414 32.0266 20.37 32.5348L19.9636 35.4269L19.2997 35.3336L19.7061 32.4415C19.7509 32.1227 19.6957 31.8826 19.5405 31.7211C19.3853 31.5597 19.1896 31.4624 18.9533 31.4292C18.6495 31.3864 18.4012 31.4453 18.2084 31.6056C18.0159 31.7641 17.9001 31.983 17.8608 32.2625L17.4655 35.0757L16.7903 34.9808L17.2062 32.0213C17.2407 31.7756 17.1888 31.5665 17.0504 31.3941C16.9124 31.2197 16.7177 31.1149 16.4664 31.0796C16.2938 31.0553 16.1261 31.0786 15.9631 31.1494C15.802 31.2205 15.6641 31.3312 15.5493 31.4814C15.4366 31.6301 15.3653 31.8103 15.3356 32.0223L14.956 34.723L14.2921 34.6297Z" fill="#5C5C5C"/>
<path d="M22.9766 35.9422C22.5603 35.8837 22.214 35.7413 21.9379 35.5151C21.6639 35.2872 21.4687 34.9958 21.3521 34.6409C21.2378 34.2844 21.2117 33.8848 21.2739 33.4422C21.3361 32.9996 21.4715 32.6208 21.6803 32.3059C21.8911 31.9894 22.1552 31.7568 22.4725 31.6083C22.792 31.4581 23.1468 31.4104 23.5369 31.4652C23.7619 31.4969 23.9789 31.5656 24.1878 31.6715C24.3967 31.7774 24.5793 31.9273 24.7357 32.1214C24.8922 32.3137 25.0046 32.5551 25.0728 32.8459C25.1409 33.1366 25.1467 33.4836 25.09 33.8868L25.0505 34.1681L21.7196 33.7L21.8003 33.126L24.456 33.4993C24.4902 33.2555 24.472 33.0311 24.4014 32.8261C24.3326 32.6213 24.2169 32.4511 24.0543 32.3154C23.8936 32.18 23.6931 32.0954 23.4531 32.0617C23.1886 32.0245 22.9506 32.058 22.739 32.1621C22.5295 32.2646 22.3585 32.4127 22.2261 32.6064C22.0937 32.8001 22.0108 33.016 21.9773 33.2542L21.9236 33.6368C21.8777 33.9632 21.8951 34.2477 21.9757 34.4905C22.0585 34.7316 22.1929 34.9255 22.3788 35.0721C22.565 35.2169 22.7923 35.3081 23.0604 35.3458C23.2349 35.3703 23.3958 35.3681 23.5434 35.3391C23.693 35.3085 23.8264 35.2507 23.9435 35.1658C24.0609 35.079 24.1583 34.9646 24.2356 34.8225L24.8517 35.0927C24.7536 35.3007 24.6133 35.4761 24.4307 35.6187C24.2483 35.7595 24.0335 35.8593 23.7861 35.9183C23.5391 35.9754 23.2692 35.9833 22.9766 35.9422Z" fill="#5C5C5C"/>
<path d="M26.8177 33.7395L26.4524 36.339L25.7885 36.2456L26.3957 31.9245L27.0371 32.0146L26.9422 32.6898L26.9985 32.6977C27.1306 32.4925 27.3092 32.3378 27.5342 32.2337C27.7595 32.1276 28.0353 32.0975 28.3616 32.1434C28.6542 32.1845 28.9018 32.2805 29.1043 32.4314C29.3072 32.5804 29.4525 32.7845 29.5404 33.0435C29.6286 33.3007 29.6469 33.6131 29.5952 33.9807L29.2094 36.7265L28.5455 36.6332L28.925 33.9324C28.9727 33.593 28.9217 33.3161 28.772 33.1019C28.6226 32.8858 28.3941 32.7562 28.0865 32.7129C27.8746 32.6831 27.6787 32.7025 27.4989 32.7709C27.3209 32.8396 27.1717 32.9554 27.0513 33.1182C26.9309 33.2811 26.853 33.4882 26.8177 33.7395Z" fill="#5C5C5C"/>
<path d="M32.9091 32.84L32.83 33.4026L30.5907 33.0879L30.6697 32.5252L32.9091 32.84ZM31.4679 31.5817L32.1318 31.675L31.5531 35.7936C31.5267 35.9812 31.5341 36.1257 31.5753 36.2271C31.6187 36.3269 31.6813 36.3988 31.7631 36.4428C31.847 36.4852 31.9377 36.5133 32.0352 36.527C32.1084 36.5373 32.1689 36.5419 32.2169 36.541C32.2651 36.5382 32.3036 36.536 32.3326 36.5343L32.3838 37.1497C32.3364 37.1603 32.2712 37.1683 32.1882 37.1739C32.1049 37.1813 32.0014 37.1763 31.8776 37.1589C31.69 37.1326 31.5119 37.0664 31.3432 36.9604C31.1764 36.8547 31.0455 36.7111 30.9505 36.5294C30.8574 36.348 30.8285 36.1317 30.8638 35.8804L31.4679 31.5817Z" fill="#5C5C5C"/>
<path d="M36.7552 34.3675L36.1351 34.4525C36.1116 34.3478 36.0698 34.2434 36.0099 34.1394C35.952 34.0337 35.8656 33.9412 35.7505 33.8619C35.6354 33.7826 35.4813 33.7294 35.2881 33.7023C35.0236 33.6651 34.7947 33.6951 34.6013 33.7922C34.41 33.8877 34.3013 34.0283 34.2752 34.214C34.252 34.379 34.2937 34.5178 34.4003 34.6303C34.5069 34.7429 34.6832 34.8489 34.9294 34.9485L35.5486 35.1962C35.9218 35.3443 36.1895 35.5283 36.3518 35.7481C36.5144 35.966 36.5744 36.2259 36.532 36.5279C36.4972 36.7755 36.3948 36.9868 36.2249 37.1618C36.0568 37.3371 35.8383 37.4632 35.5693 37.5401C35.3003 37.6171 34.9979 37.6319 34.6622 37.5847C34.2214 37.5228 33.8701 37.3759 33.6082 37.144C33.3462 36.9121 33.2026 36.6069 33.1774 36.2285L33.8297 36.1595C33.857 36.4005 33.946 36.5909 34.0966 36.7307C34.249 36.8707 34.4612 36.9598 34.7332 36.998C35.0426 37.0415 35.2975 37.0104 35.4979 36.9047C35.7004 36.7974 35.8147 36.6509 35.8408 36.4652C35.8619 36.3151 35.827 36.1821 35.7362 36.0661C35.6457 35.9481 35.4952 35.8486 35.2848 35.7674L34.5883 35.4973C34.2058 35.3479 33.9355 35.1617 33.7775 34.9387C33.6216 34.714 33.5646 34.4526 33.6065 34.1544C33.6408 33.9106 33.7396 33.7045 33.9028 33.5362C34.068 33.3682 34.2771 33.2475 34.5304 33.174C34.7854 33.1009 35.0649 33.0856 35.3687 33.1283C35.7963 33.1885 36.1189 33.3294 36.3363 33.5512C36.5557 33.7733 36.6953 34.0454 36.7552 34.3675Z" fill="#5C5C5C"/>
<path d="M39.5903 38.1856L40.1975 33.8645L40.8614 33.9578L40.2542 38.279L39.5903 38.1856ZM40.6363 33.1917C40.5069 33.1735 40.4015 33.1138 40.3201 33.0124C40.2406 32.9114 40.2095 32.799 40.2269 32.6752C40.2443 32.5514 40.3052 32.4519 40.4094 32.3766C40.5156 32.3017 40.6334 32.2733 40.7628 32.2915C40.8922 32.3097 40.9967 32.3693 41.0762 32.4704C41.1576 32.5717 41.1896 32.6843 41.1722 32.808C41.1548 32.9318 41.093 33.0312 40.9868 33.1062C40.8826 33.1814 40.7657 33.2099 40.6363 33.1917Z" fill="#5C5C5C"/>
<path d="M42.4995 35.9438L42.1342 38.5432L41.4703 38.4499L42.0775 34.1287L42.7189 34.2189L42.624 34.8941L42.6803 34.902C42.8124 34.6968 42.991 34.5421 43.216 34.4379C43.4413 34.3319 43.7171 34.3018 44.0434 34.3477C44.336 34.3888 44.5836 34.4848 44.7861 34.6357C44.9889 34.7847 45.1343 34.9887 45.2222 35.2478C45.3104 35.505 45.3287 35.8174 45.277 36.185L44.8912 38.9308L44.2272 38.8374L44.6068 36.1367C44.6545 35.7972 44.6035 35.5204 44.4538 35.3062C44.3044 35.0901 44.0759 34.9604 43.7683 34.9172C43.5564 34.8874 43.3605 34.9067 43.1806 34.9752C43.0027 35.0439 42.8535 35.1596 42.7331 35.3225C42.6126 35.4854 42.5348 35.6924 42.4995 35.9438Z" fill="#5C5C5C"/>
<path d="M50.0753 39.7512C49.6852 39.6964 49.356 39.5555 49.0876 39.3284C48.8211 39.1016 48.6288 38.8097 48.5107 38.4526C48.3944 38.0959 48.3677 37.6943 48.4304 37.2479C48.4936 36.7978 48.6304 36.4163 48.8408 36.1036C49.053 35.791 49.3184 35.5625 49.6371 35.418C49.9576 35.2737 50.313 35.2289 50.7031 35.2838C51.0932 35.3386 51.4215 35.4794 51.688 35.7062C51.9563 35.9333 52.1485 36.2261 52.2645 36.5848C52.3824 36.9437 52.4097 37.3482 52.3464 37.7984C52.2837 38.2447 52.1464 38.6232 51.9344 38.9339C51.7243 39.2448 51.459 39.4724 51.1385 39.6167C50.8198 39.7612 50.4654 39.8061 50.0753 39.7512ZM50.1591 39.1548C50.4554 39.1965 50.7099 39.1548 50.9226 39.0298C51.1352 38.9047 51.3049 38.7249 51.4316 38.4903C51.5583 38.2556 51.6419 37.9939 51.6825 37.705C51.7231 37.4162 51.715 37.1406 51.6581 36.8783C51.6013 36.6159 51.488 36.3944 51.3183 36.2137C51.1486 36.033 50.9156 35.9218 50.6193 35.8802C50.3229 35.8385 50.0683 35.8812 49.8554 36.0081C49.6425 36.135 49.4726 36.3167 49.3456 36.5532C49.2187 36.7897 49.1349 37.0524 49.0943 37.3412C49.0537 37.6301 49.062 37.9047 49.1191 38.1652C49.1762 38.4257 49.2897 38.6453 49.4597 38.8241C49.6296 39.0029 49.8628 39.1132 50.1591 39.1548Z" fill="#5C5C5C"/>
<path d="M54.0887 37.5728L53.7234 40.1722L53.0595 40.0789L53.6667 35.7577L54.3081 35.8479L54.2132 36.5231L54.2695 36.531C54.4016 36.3258 54.5802 36.1711 54.8052 36.0669C55.0305 35.9609 55.3063 35.9308 55.6326 35.9767C55.9252 36.0178 56.1727 36.1138 56.3753 36.2647C56.5781 36.4137 56.7235 36.6177 56.8114 36.8768C56.8996 37.134 56.9179 37.4464 56.8662 37.814L56.4804 40.5598L55.8164 40.4664L56.196 37.7657C56.2437 37.4262 56.1927 37.1494 56.043 36.9352C55.8936 36.7191 55.6651 36.5894 55.3575 36.5462C55.1456 36.5164 54.9497 36.5357 54.7698 36.6042C54.5919 36.6729 54.4427 36.7887 54.3223 36.9515C54.2018 37.1144 54.124 37.3214 54.0887 37.5728Z" fill="#5C5C5C"/>
<path d="M59.4927 41.075C59.0763 41.0164 58.7301 40.8741 58.4539 40.6478C58.1799 40.42 57.9847 40.1286 57.8682 39.7737C57.7538 39.4172 57.7277 39.0176 57.7899 38.575C57.8521 38.1324 57.9876 37.7536 58.1963 37.4387C58.4072 37.1221 58.6713 36.8896 58.9886 36.741C59.308 36.5908 59.6628 36.5432 60.0529 36.598C60.278 36.6296 60.495 36.6984 60.7038 36.8043C60.9127 36.9101 61.0953 37.0601 61.2517 37.2542C61.4083 37.4464 61.5207 37.6879 61.5888 37.9786C61.657 38.2694 61.6627 38.6164 61.6061 39.0196L61.5665 39.3009L58.2356 38.8327L58.3163 38.2588L60.972 38.6321C61.0063 38.3883 60.9881 38.1639 60.9174 37.9589C60.8487 37.7541 60.733 37.5839 60.5703 37.4482C60.4096 37.3128 60.2092 37.2282 59.9691 37.1944C59.7047 37.1572 59.4666 37.1907 59.255 37.2949C59.0455 37.3974 58.8746 37.5455 58.7422 37.7392C58.6098 37.9328 58.5268 38.1488 58.4934 38.387L58.4396 38.7696C58.3937 39.0959 58.4111 39.3805 58.4918 39.6232C58.5745 39.8644 58.7089 40.0582 58.8949 40.2049C59.0811 40.3496 59.3083 40.4409 59.5765 40.4786C59.7509 40.5031 59.9119 40.5008 60.0594 40.4718C60.209 40.4412 60.3424 40.3835 60.4595 40.2986C60.5769 40.2118 60.6743 40.0974 60.7516 39.9552L61.3678 40.2254C61.2697 40.4335 61.1293 40.6088 60.9467 40.7515C60.7644 40.8922 60.5495 40.9921 60.3022 41.051C60.0551 41.1081 59.7853 41.1161 59.4927 41.075Z" fill="#5C5C5C"/>
<path d="M66.1516 42.011C65.7915 41.9604 65.4864 41.8247 65.2363 41.604C64.9864 41.3815 64.8071 41.0923 64.6984 40.7366C64.5899 40.379 64.5678 39.9714 64.6321 39.5138C64.6959 39.0599 64.829 38.677 65.0316 38.365C65.2342 38.0531 65.487 37.8256 65.7902 37.6827C66.0933 37.5398 66.4268 37.4939 66.7907 37.5451C67.072 37.5846 67.2876 37.6627 67.4376 37.7795C67.5898 37.8946 67.7007 38.0172 67.7703 38.1475C67.8421 38.2762 67.8972 38.3815 67.9354 38.4634L67.9917 38.4713L68.2905 36.3444L68.9544 36.4378L68.1448 42.1993L67.5034 42.1092L67.5967 41.4452L67.5179 41.4342C67.4581 41.5061 67.3747 41.5957 67.2678 41.7031C67.1612 41.8086 67.0179 41.8965 66.8378 41.9668C66.6579 42.0353 66.4292 42.05 66.1516 42.011ZM66.3255 41.4272C66.5918 41.4646 66.8266 41.4269 67.0299 41.3139C67.2335 41.1991 67.4005 41.0246 67.5309 40.7905C67.6616 40.5545 67.7499 40.2733 67.7958 39.947C67.8411 39.6244 67.8339 39.3356 67.7741 39.0804C67.7146 38.8234 67.6024 38.6145 67.4376 38.4536C67.273 38.2909 67.0557 38.1905 66.7856 38.1526C66.5043 38.113 66.2597 38.1523 66.0519 38.2703C65.8462 38.3868 65.6792 38.5612 65.5509 38.7938C65.4247 39.0246 65.3403 39.292 65.2976 39.5958C65.2544 39.9034 65.262 40.1895 65.3204 40.454C65.381 40.7169 65.4938 40.9354 65.6586 41.1097C65.8256 41.2824 66.0479 41.3882 66.3255 41.4272Z" fill="#5C5C5C"/>
<path d="M70.7103 42.6632C70.4365 42.6247 70.1953 42.5382 69.9866 42.4037C69.7782 42.2673 69.6221 42.0914 69.5185 41.876C69.4152 41.6588 69.3833 41.4095 69.4228 41.1282C69.4576 40.8806 69.5345 40.6868 69.6537 40.5467C69.7731 40.4047 69.9206 40.3011 70.0961 40.2359C70.2717 40.1707 70.4609 40.1304 70.6639 40.1149C70.8691 40.0978 71.0738 40.0903 71.2782 40.0922C71.5455 40.0954 71.7619 40.1 71.9275 40.106C72.0951 40.1105 72.2195 40.0964 72.3006 40.0638C72.3836 40.0315 72.4325 39.9619 72.4476 39.855L72.4507 39.8325C72.4897 39.5549 72.4441 39.3285 72.3138 39.1534C72.1854 38.9785 71.9683 38.8696 71.6626 38.8266C71.3456 38.782 71.0874 38.8165 70.8878 38.93C70.6883 39.0435 70.5408 39.1738 70.4456 39.3211L69.847 39.0075C69.9964 38.7607 70.1752 38.5774 70.3833 38.4574C70.5936 38.3359 70.8144 38.2617 71.0457 38.235C71.2792 38.2066 71.5047 38.2077 71.7223 38.2383C71.8611 38.2578 72.0181 38.2971 72.1934 38.3561C72.3709 38.4136 72.5369 38.5048 72.6914 38.6298C72.8479 38.7551 72.968 38.9279 73.0518 39.1481C73.1356 39.3683 73.1534 39.6501 73.1052 39.9933L72.7051 42.8403L72.0412 42.747L72.1234 42.1618L72.0896 42.1571C72.0315 42.2446 71.9423 42.3343 71.8223 42.4265C71.7022 42.5186 71.5497 42.59 71.3648 42.6405C71.1798 42.691 70.9617 42.6985 70.7103 42.6632ZM70.8954 42.081C71.158 42.118 71.3866 42.0975 71.5811 42.0196C71.7775 41.9421 71.9331 41.8281 72.048 41.6779C72.1647 41.5279 72.2357 41.3629 72.261 41.1828L72.3464 40.5752C72.3135 40.605 72.2472 40.6272 72.1476 40.6419C72.0502 40.655 71.9381 40.6631 71.8114 40.6664C71.6869 40.668 71.5654 40.6681 71.447 40.6668C71.3308 40.6638 71.2364 40.662 71.1638 40.6614C70.9881 40.6596 70.8216 40.6735 70.6645 40.7031C70.5095 40.731 70.379 40.7882 70.2731 40.8747C70.1694 40.9596 70.1057 41.0864 70.082 41.2552C70.0496 41.4859 70.1104 41.6723 70.2644 41.8145C70.4207 41.955 70.631 42.0439 70.8954 42.081Z" fill="#5C5C5C"/>
<path d="M77.449 40.0875L76.8288 40.1724C76.8053 40.0678 76.7635 39.9634 76.7036 39.8593C76.6457 39.7537 76.5593 39.6612 76.4442 39.5819C76.3291 39.5026 76.175 39.4494 75.9818 39.4222C75.7173 39.3851 75.4884 39.415 75.295 39.5122C75.1037 39.6077 74.995 39.7483 74.9689 39.934C74.9457 40.099 74.9874 40.2378 75.094 40.3503C75.2006 40.4628 75.377 40.5689 75.6231 40.6685L76.2423 40.9162C76.6155 41.0643 76.8833 41.2483 77.0455 41.4681C77.2081 41.686 77.2681 41.9459 77.2257 42.2479C77.1909 42.4955 77.0885 42.7068 76.9186 42.8818C76.7505 43.0571 76.532 43.1832 76.263 43.2601C75.994 43.337 75.6916 43.3519 75.3559 43.3047C74.9152 43.2428 74.5638 43.0959 74.3019 42.864C74.0399 42.6321 73.8963 42.3269 73.8711 41.9485L74.5234 41.8795C74.5507 42.1205 74.6397 42.3109 74.7903 42.4506C74.9427 42.5907 75.1549 42.6798 75.4269 42.718C75.7363 42.7615 75.9912 42.7304 76.1916 42.6247C76.3941 42.5173 76.5084 42.3708 76.5345 42.1852C76.5556 42.0351 76.5207 41.9021 76.43 41.786C76.3394 41.6681 76.1889 41.5686 75.9785 41.4873L75.282 41.2173C74.8995 41.0679 74.6292 40.8817 74.4712 40.6587C74.3153 40.434 74.2583 40.1726 74.3002 39.8744C74.3345 39.6306 74.4333 39.4245 74.5965 39.2562C74.7617 39.0882 74.9709 38.9674 75.2241 38.894C75.4792 38.8209 75.7586 38.8056 76.0624 38.8483C76.4901 38.9084 76.8126 39.0494 77.0301 39.2712C77.2494 39.4933 77.389 39.7654 77.449 40.0875Z" fill="#5C5C5C"/>
<path d="M79.0851 41.0863L78.7198 43.6858L78.0559 43.5925L78.8655 37.8309L79.5295 37.9242L79.2322 40.0398L79.2884 40.0477C79.4211 39.8387 79.5979 39.6829 79.8189 39.58C80.042 39.4756 80.3233 39.4473 80.6628 39.495C80.9573 39.5364 81.2068 39.6317 81.4116 39.781C81.6165 39.9283 81.763 40.1316 81.8509 40.3907C81.9409 40.6481 81.9599 40.9625 81.9077 41.3339L81.5218 44.0796L80.8579 43.9863L81.2374 41.2856C81.2857 40.9423 81.2339 40.6644 81.082 40.4518C80.9324 40.2376 80.7009 40.1085 80.3877 40.0645C80.1701 40.0339 79.9686 40.0524 79.7832 40.1201C79.5996 40.188 79.4457 40.3031 79.3215 40.4654C79.1992 40.628 79.1204 40.835 79.0851 41.0863Z" fill="#5C5C5C"/>
<path d="M82.8265 44.263L83.6361 38.5014L84.3 38.5948L84.0012 40.7216L84.0574 40.7295C84.1167 40.6613 84.1977 40.5752 84.3003 40.471C84.4051 40.3653 84.5455 40.2779 84.7216 40.2089C84.8998 40.1383 85.1296 40.1228 85.4109 40.1624C85.7747 40.2135 86.0827 40.3496 86.3347 40.5705C86.5867 40.7914 86.7671 41.0798 86.8758 41.4355C86.9846 41.7912 87.0071 42.196 86.9433 42.6499C86.879 43.1075 86.7454 43.4932 86.5426 43.8071C86.34 44.119 86.0879 44.3475 85.7864 44.4926C85.4851 44.6358 85.1545 44.682 84.7944 44.6314C84.5168 44.5924 84.301 44.5152 84.147 44.3999C83.9933 44.2826 83.8797 44.1586 83.8063 44.0278C83.7331 43.8951 83.6777 43.7859 83.64 43.7003L83.5612 43.6892L83.4679 44.3532L82.8265 44.263ZM83.7828 42.1942C83.7369 42.5205 83.7443 42.8151 83.8049 43.078C83.8657 43.339 83.9782 43.5528 84.1422 43.7193C84.3065 43.8839 84.5218 43.9849 84.7882 44.0224C85.0657 44.0614 85.3076 44.0208 85.5139 43.9006C85.7222 43.7788 85.8908 43.5998 86.0197 43.3635C86.1506 43.1256 86.2377 42.8529 86.2809 42.5453C86.3236 42.2415 86.3152 41.9611 86.2557 41.7041C86.1983 41.4455 86.0859 41.2317 85.9184 41.0628C85.753 40.8923 85.5296 40.7873 85.2483 40.7477C84.9782 40.7098 84.7417 40.7463 84.5386 40.8574C84.3359 40.9666 84.1705 41.1365 84.0424 41.3671C83.9147 41.5959 83.8281 41.8716 83.7828 42.1942Z" fill="#5C5C5C"/>
<path d="M89.3997 45.2788C89.0096 45.2239 88.6803 45.083 88.412 44.8559C88.1455 44.6291 87.9532 44.3372 87.835 43.9801C87.7188 43.6234 87.692 43.2218 87.7547 42.7754C87.818 42.3253 87.9548 41.9438 88.1651 41.6311C88.3773 41.3185 88.6428 41.09 88.9615 40.9455C89.282 40.8012 89.6373 40.7564 90.0274 40.8113C90.4175 40.8661 90.7458 41.0069 91.0123 41.2337C91.2807 41.4608 91.4729 41.7537 91.5889 42.1123C91.7067 42.4712 91.734 42.8757 91.6708 43.3259C91.6081 43.7722 91.4707 44.1507 91.2588 44.4614C91.0487 44.7723 90.7834 44.9999 90.4628 45.1442C90.1442 45.2887 89.7898 45.3336 89.3997 45.2788ZM89.4835 44.6823C89.7798 44.724 90.0343 44.6823 90.2469 44.5573C90.4596 44.4323 90.6293 44.2524 90.7559 44.0178C90.8826 43.7831 90.9663 43.5214 91.0069 43.2325C91.0474 42.9437 91.0393 42.6681 90.9825 42.4058C90.9256 42.1434 90.8123 41.9219 90.6427 41.7412C90.473 41.5605 90.2399 41.4493 89.9436 41.4077C89.6473 41.366 89.3927 41.4087 89.1798 41.5356C88.9669 41.6625 88.7969 41.8442 88.67 42.0807C88.543 42.3172 88.4592 42.5799 88.4187 42.8687C88.3781 43.1576 88.3863 43.4322 88.4434 43.6927C88.5006 43.9532 88.6141 44.1728 88.784 44.3517C88.954 44.5305 89.1871 44.6407 89.4835 44.6823Z" fill="#5C5C5C"/>
<path d="M93.6412 45.8864C93.3673 45.8479 93.1261 45.7614 92.9174 45.6269C92.709 45.4905 92.553 45.3146 92.4493 45.0992C92.346 44.882 92.3141 44.6327 92.3536 44.3514C92.3884 44.1038 92.4654 43.91 92.5845 43.7699C92.7039 43.6279 92.8514 43.5243 93.0269 43.4591C93.2025 43.3939 93.3918 43.3536 93.5948 43.3381C93.7999 43.321 94.0046 43.3135 94.209 43.3154C94.4763 43.3186 94.6927 43.3232 94.8583 43.3292C95.026 43.3337 95.1503 43.3196 95.2314 43.287C95.3144 43.2547 95.3634 43.1851 95.3784 43.0782L95.3816 43.0557C95.4206 42.7781 95.3749 42.5517 95.2446 42.3766C95.1162 42.2017 94.8991 42.0928 94.5934 42.0498C94.2764 42.0052 94.0182 42.0397 93.8186 42.1532C93.6191 42.2667 93.4717 42.397 93.3764 42.5443L92.7778 42.2307C92.9273 41.9839 93.106 41.8006 93.3141 41.6806C93.5244 41.5591 93.7452 41.4849 93.9765 41.4582C94.21 41.4298 94.4356 41.4309 94.6531 41.4615C94.7919 41.481 94.949 41.5203 95.1243 41.5793C95.3017 41.6368 95.4677 41.728 95.6223 41.853C95.7787 41.9783 95.8988 42.1511 95.9826 42.3713C96.0664 42.5916 96.0842 42.8733 96.036 43.2165L95.6359 46.0635L94.972 45.9702L95.0542 45.385L95.0205 45.3803C94.9623 45.4678 94.8732 45.5575 94.7531 45.6497C94.6331 45.7418 94.4806 45.8132 94.2956 45.8637C94.1106 45.9142 93.8925 45.9217 93.6412 45.8864ZM93.8263 45.3042C94.0888 45.3412 94.3174 45.3207 94.5119 45.2428C94.7083 45.1653 94.864 45.0513 94.9788 44.9011C95.0955 44.7511 95.1665 44.5861 95.1918 44.406L95.2772 43.7984C95.2443 43.8282 95.1781 43.8504 95.0785 43.8651C94.981 43.8782 94.8689 43.8863 94.7423 43.8896C94.6177 43.8912 94.4962 43.8913 94.3779 43.89C94.2616 43.887 94.1672 43.8852 94.0946 43.8846C93.9189 43.8828 93.7525 43.8967 93.5953 43.9263C93.4403 43.9542 93.3098 44.0114 93.204 44.0979C93.1002 44.1828 93.0365 44.3096 93.0128 44.4784C92.9804 44.7091 93.0412 44.8955 93.1953 45.0377C93.3515 45.1782 93.5618 45.2671 93.8263 45.3042Z" fill="#5C5C5C"/>
<path d="M96.8477 46.2339L97.455 41.9127L98.0964 42.0028L98.0047 42.6555L98.0497 42.6618C98.1585 42.4591 98.3254 42.3057 98.5504 42.2015C98.7754 42.0973 99.0174 42.0634 99.2762 42.0998C99.3249 42.1067 99.3858 42.1162 99.4586 42.1283C99.5315 42.1405 99.5865 42.1511 99.6234 42.1601L99.5286 42.8353C99.5068 42.8265 99.4565 42.8108 99.3774 42.7882C99.3005 42.764 99.2179 42.7457 99.1298 42.7333C98.9197 42.7038 98.726 42.7215 98.5486 42.7865C98.3733 42.8498 98.227 42.9517 98.1097 43.092C97.9946 43.2307 97.9233 43.3976 97.8959 43.5927L97.5117 46.3272L96.8477 46.2339Z" fill="#5C5C5C"/>
<path d="M101.283 46.9491C100.923 46.8985 100.618 46.7628 100.367 46.5421C100.118 46.3196 99.9383 46.0304 99.8296 45.6747C99.7211 45.3171 99.699 44.9095 99.7633 44.4519C99.8271 43.998 99.9602 43.6151 100.163 43.3031C100.365 42.9912 100.618 42.7637 100.921 42.6208C101.225 42.4779 101.558 42.432 101.922 42.4832C102.203 42.5227 102.419 42.6009 102.569 42.7176C102.721 42.8327 102.832 42.9554 102.902 43.0856C102.973 43.2143 103.028 43.3196 103.067 43.4015L103.123 43.4094L103.422 41.2825L104.086 41.3759L103.276 47.1374L102.635 47.0473L102.728 46.3833L102.649 46.3723C102.589 46.4442 102.506 46.5338 102.399 46.6412C102.292 46.7467 102.149 46.8346 101.969 46.9049C101.789 46.9734 101.56 46.9881 101.283 46.9491ZM101.457 46.3653C101.723 46.4028 101.958 46.365 102.161 46.252C102.365 46.1372 102.532 45.9627 102.662 45.7286C102.793 45.4926 102.881 45.2114 102.927 44.8851C102.972 44.5625 102.965 44.2737 102.905 44.0185C102.846 43.7615 102.734 43.5526 102.569 43.3917C102.404 43.229 102.187 43.1286 101.917 43.0907C101.636 43.0511 101.391 43.0904 101.183 43.2084C100.977 43.3249 100.81 43.4994 100.682 43.7319C100.556 43.9628 100.471 44.2301 100.429 44.534C100.386 44.8415 100.393 45.1276 100.452 45.3921C100.512 45.655 100.625 45.8736 100.79 46.0478C100.957 46.2205 101.179 46.3263 101.457 46.3653Z" fill="#5C5C5C"/>
</svg>
