<svg width="131" height="54" viewBox="0 0 131 54" fill="none" xmlns="http://www.w3.org/2000/svg">
<path d="M51.3991 16.5836C50.0929 16.4 49.0686 15.8106 48.3262 14.8154C47.5909 13.8298 47.3138 12.6922 47.495 11.4026C47.6774 10.1048 48.2572 9.08767 49.2345 8.35121C50.2225 7.59929 51.3695 7.31512 52.6757 7.49872C53.466 7.60981 54.1677 7.89932 54.7806 8.36724C55.4031 8.82802 55.857 9.40086 56.1426 10.0858L54.5366 10.7381C54.3752 10.3167 54.11 9.96974 53.7411 9.6973C53.3733 9.41655 52.9399 9.24109 52.4407 9.17093C51.5921 9.05165 50.8684 9.2214 50.2694 9.68017C49.6776 10.1484 49.3227 10.8027 49.2046 11.643C49.0877 12.4749 49.2492 13.1975 49.689 13.8108C50.1383 14.4169 50.7872 14.7796 51.6358 14.8989C52.135 14.969 52.5994 14.924 53.0292 14.7638C53.4684 14.5965 53.8189 14.3361 54.0806 13.9827L55.4446 15.0525C54.9814 15.6321 54.3866 16.0618 53.6601 16.3414C52.9431 16.6139 52.1894 16.6946 51.3991 16.5836Z" fill="#212121"/>
<path d="M60.6309 11.162C61.3214 11.2591 61.8508 11.5668 62.2191 12.0852C62.6029 12.6142 62.7387 13.2781 62.6265 14.0768L62.0881 17.9079L60.4783 17.6816L60.9886 14.0501C61.0459 13.6425 60.978 13.3106 60.7849 13.0544C60.6002 12.7993 60.3165 12.6449 59.9338 12.5911C59.5095 12.5315 59.1538 12.6172 58.8669 12.8484C58.5894 13.0724 58.4149 13.4381 58.3436 13.9456L57.8702 17.315L56.2604 17.0887L57.4879 8.35328L59.0977 8.57956L58.6488 11.7742C59.1133 11.2457 59.774 11.0416 60.6309 11.162Z" fill="#212121"/>
<path d="M68.978 13.2643L69.0815 12.528L70.6913 12.7543L69.8145 18.9939L68.2047 18.7676L68.3082 18.0314C67.7403 18.5708 67.0196 18.7792 66.1461 18.6564C65.3141 18.5395 64.6431 18.1228 64.1329 17.4063C63.6323 16.6827 63.4468 15.8591 63.5766 14.9357C63.7052 14.0205 64.1098 13.2842 64.7905 12.7266C65.4795 12.1702 66.24 11.9505 67.072 12.0674C67.9455 12.1902 68.5809 12.5892 68.978 13.2643ZM65.4942 16.5032C65.7731 16.8733 66.1621 17.0934 66.6613 17.1636C67.1604 17.2337 67.595 17.1294 67.9651 16.8505C68.3446 16.5645 68.5706 16.1636 68.6431 15.6478C68.7156 15.132 68.6082 14.6885 68.3211 14.3173C68.0434 13.9389 67.6549 13.7146 67.1558 13.6445C66.6566 13.5743 66.2214 13.6828 65.8502 13.97C65.4801 14.2488 65.2589 14.6461 65.1864 15.162C65.1139 15.6778 65.2165 16.1249 65.4942 16.5032Z" fill="#212121"/>
<path d="M75.7201 13.4612L75.5026 15.0086L74.0925 14.8104L73.7278 17.406C73.6974 17.6224 73.7292 17.788 73.8234 17.9031C73.9175 18.0181 74.0674 18.0985 74.273 18.1444C74.4798 18.182 74.7383 18.2141 75.0485 18.2407L74.8433 19.7008C73.7359 19.6724 72.9721 19.4632 72.5518 19.0732C72.141 18.6761 71.9964 18.045 72.118 17.1798L72.4827 14.5841L71.397 14.4315L71.6145 12.8841L72.7001 13.0367L72.8773 11.7763L74.5554 11.5159L74.3099 13.263L75.7201 13.4612Z" fill="#212121"/>
<path d="M77.9571 15.5826C77.9196 15.8489 78.266 16.1309 78.9962 16.4286C79.2542 16.5243 79.4856 16.6289 79.6902 16.7425C79.896 16.8478 80.0965 16.9905 80.2917 17.1707C80.4965 17.3437 80.6443 17.5596 80.7352 17.8184C80.8261 18.0772 80.8493 18.3646 80.8049 18.6808C80.7149 19.3214 80.4041 19.7825 79.8724 20.0641C79.342 20.3373 78.7232 20.4243 78.016 20.3249C76.7348 20.1448 75.9309 19.527 75.6041 18.4715L77.1122 17.8818C77.2276 18.4494 77.5972 18.7771 78.2212 18.8648C78.7952 18.9455 79.1074 18.807 79.1577 18.4492C79.1951 18.183 78.8487 17.901 78.1185 17.6033C77.8462 17.4886 77.6154 17.3798 77.4263 17.2769C77.2371 17.174 77.036 17.0354 76.823 16.8612C76.6111 16.6787 76.4585 16.4664 76.3653 16.2242C76.2815 15.9749 76.2613 15.6964 76.3046 15.3885C76.3911 14.7729 76.6835 14.322 77.1818 14.0357C77.6897 13.7423 78.2805 13.6429 78.9544 13.7376C79.4619 13.809 79.9072 13.9903 80.2905 14.2818C80.6749 14.5648 80.9579 14.9355 81.1395 15.3937L79.6616 15.9495C79.5216 15.4971 79.2186 15.2382 78.7527 15.1727C78.5448 15.1435 78.363 15.1689 78.2076 15.2488C78.0616 15.3216 77.9781 15.4329 77.9571 15.5826Z" fill="#212121"/>
<path d="M7.88134 21.3089L7.18365 21.2108C7.17059 21.0043 7.12315 20.8179 7.04135 20.6515C6.96142 20.4853 6.85556 20.3404 6.72376 20.2167C6.59411 20.0913 6.44482 19.99 6.2759 19.9127C6.10699 19.8354 5.92688 19.7833 5.73558 19.7565C5.38673 19.7074 5.05832 19.7511 4.75035 19.8876C4.44425 20.0244 4.18363 20.2526 3.96848 20.5724C3.7552 20.8924 3.61352 21.3019 3.54341 21.8008C3.47331 22.2996 3.49667 22.7323 3.61348 23.0987C3.73217 23.4654 3.91979 23.7567 4.17634 23.9725C4.43477 24.1886 4.73841 24.3212 5.08725 24.3702C5.27855 24.3971 5.46604 24.3967 5.64972 24.3689C5.83339 24.3412 6.00469 24.2859 6.1636 24.2031C6.32464 24.1186 6.46648 24.0075 6.5891 23.8698C6.71387 23.7306 6.81085 23.5644 6.88004 23.3714L7.57773 23.4695C7.48384 23.7565 7.35116 24.0066 7.17969 24.2197C7.00823 24.4327 6.80788 24.6063 6.57864 24.7405C6.34967 24.8728 6.10079 24.9631 5.83198 25.0114C5.56505 25.0599 5.28624 25.0638 4.99554 25.0229C4.50415 24.9538 4.08403 24.7724 3.73516 24.4785C3.38629 24.1847 3.13324 23.801 2.976 23.3276C2.81877 22.8541 2.78284 22.3135 2.86823 21.7059C2.95362 21.0982 3.13713 20.5885 3.41876 20.1767C3.70039 19.7649 4.04938 19.4659 4.46571 19.2796C4.88205 19.0933 5.33591 19.0347 5.82729 19.1038C6.11799 19.1446 6.38495 19.2252 6.62816 19.3454C6.87324 19.466 7.08747 19.6223 7.27085 19.8145C7.45449 20.0048 7.59936 20.2259 7.70547 20.478C7.81184 20.7282 7.87046 21.0052 7.88134 21.3089Z" fill="#5C5C5C"/>
<path d="M10.1049 25.7526C9.71483 25.6977 9.38559 25.5568 9.11723 25.3297C8.85074 25.1029 8.65843 24.811 8.5403 24.4539C8.42404 24.0972 8.39728 23.6956 8.46 23.2492C8.52325 22.7991 8.66005 22.4176 8.87039 22.1049C9.08261 21.7923 9.34806 21.5638 9.66673 21.4193C9.98727 21.275 10.3426 21.2302 10.7327 21.2851C11.1228 21.3399 11.4511 21.4807 11.7176 21.7075C11.986 21.9346 12.1781 22.2275 12.2941 22.5861C12.412 22.945 12.4393 23.3495 12.3761 23.7997C12.3133 24.246 12.176 24.6245 11.964 24.9352C11.754 25.2461 11.4886 25.4737 11.1681 25.618C10.8494 25.7625 10.495 25.8074 10.1049 25.7526ZM10.1887 25.1561C10.4851 25.1978 10.7396 25.1561 10.9522 25.0311C11.1649 24.9061 11.3345 24.7262 11.4612 24.4916C11.5879 24.2569 11.6715 23.9952 11.7121 23.7063C11.7527 23.4175 11.7446 23.1419 11.6877 22.8796C11.6309 22.6172 11.5176 22.3957 11.3479 22.215C11.1782 22.0343 10.9452 21.9231 10.6489 21.8815C10.3526 21.8398 10.0979 21.8825 9.88503 22.0094C9.67212 22.1363 9.50219 22.318 9.37524 22.5545C9.24828 22.791 9.16452 23.0537 9.12393 23.3425C9.08334 23.6314 9.09161 23.906 9.14872 24.1665C9.20583 24.427 9.31936 24.6466 9.48932 24.8255C9.65927 25.0043 9.89241 25.1145 10.1887 25.1561Z" fill="#5C5C5C"/>
<path d="M14.1183 23.5741L13.753 26.1735L13.0891 26.0802L13.6963 21.759L14.3377 21.8492L14.2428 22.5244L14.2991 22.5323C14.4312 22.3271 14.6098 22.1724 14.8348 22.0682C15.0601 21.9622 15.3359 21.9321 15.6622 21.978C15.9548 22.0191 16.2024 22.1151 16.4049 22.266C16.6078 22.415 16.7531 22.619 16.8411 22.8781C16.9292 23.1353 16.9475 23.4477 16.8958 23.8153L16.51 26.5611L15.8461 26.4677L16.2256 23.767C16.2733 23.4275 16.2223 23.1507 16.0726 22.9365C15.9232 22.7204 15.6947 22.5907 15.3871 22.5475C15.1752 22.5177 14.9793 22.537 14.7995 22.6055C14.6215 22.6742 14.4723 22.79 14.3519 22.9528C14.2315 23.1157 14.1536 23.3228 14.1183 23.5741Z" fill="#5C5C5C"/>
<path d="M18.7524 24.2255L18.3871 26.8249L17.7232 26.7316L18.3304 22.4104L18.9718 22.5006L18.877 23.1758L18.9332 23.1837C19.0653 22.9785 19.2439 22.8238 19.4689 22.7196C19.6942 22.6136 19.97 22.5835 20.2964 22.6294C20.5889 22.6705 20.8365 22.7665 21.0391 22.9174C21.2419 23.0664 21.3873 23.2704 21.4752 23.5295C21.5634 23.7867 21.5816 24.0991 21.53 24.4667L21.1441 27.2124L20.4802 27.1191L20.8597 24.4184C20.9074 24.0789 20.8564 23.8021 20.7067 23.5879C20.5573 23.3718 20.3288 23.2421 20.0212 23.1989C19.8093 23.1691 19.6134 23.1884 19.4336 23.2569C19.2556 23.3256 19.1065 23.4413 18.986 23.6042C18.8656 23.767 18.7877 23.9741 18.7524 24.2255Z" fill="#5C5C5C"/>
<path d="M24.1564 27.7277C23.7401 27.6691 23.3938 27.5268 23.1177 27.3005C22.8437 27.0727 22.6485 26.7813 22.5319 26.4264C22.4176 26.0699 22.3915 25.6703 22.4537 25.2277C22.5158 24.785 22.6513 24.4063 22.86 24.0914C23.0709 23.7748 23.335 23.5423 23.6523 23.3937C23.9718 23.2435 24.3266 23.1959 24.7167 23.2507C24.9417 23.2823 25.1587 23.3511 25.3676 23.4569C25.5765 23.5628 25.7591 23.7128 25.9154 23.9069C26.072 24.0991 26.1844 24.3406 26.2526 24.6313C26.3207 24.9221 26.3265 25.269 26.2698 25.6723L26.2303 25.9536L22.8994 25.4854L22.98 24.9115L25.6358 25.2848C25.67 25.041 25.6518 24.8166 25.5812 24.6115C25.5124 24.4068 25.3967 24.2366 25.2341 24.1009C25.0733 23.9654 24.8729 23.8809 24.6329 23.8471C24.3684 23.8099 24.1304 23.8434 23.9188 23.9476C23.7093 24.0501 23.5383 24.1982 23.4059 24.3919C23.2735 24.5855 23.1906 24.8015 23.1571 25.0397L23.1034 25.4223C23.0575 25.7486 23.0749 26.0332 23.1555 26.2759C23.2383 26.5171 23.3727 26.7109 23.5586 26.8576C23.7448 27.0023 23.972 27.0935 24.2402 27.1312C24.4147 27.1558 24.5756 27.1535 24.7231 27.1245C24.8728 27.0939 25.0062 27.0362 25.1233 26.9513C25.2407 26.8645 25.3381 26.75 25.4154 26.6079L26.0315 26.8781C25.9334 27.0862 25.7931 27.2615 25.6105 27.4042C25.4281 27.5449 25.2133 27.6448 24.9659 27.7037C24.7188 27.7608 24.449 27.7688 24.1564 27.7277Z" fill="#5C5C5C"/>
<path d="M28.7111 28.3679C28.306 28.3109 27.9706 28.1662 27.7049 27.9338C27.4392 27.7014 27.2512 27.4062 27.1408 27.0484C27.0304 26.6905 27.0055 26.2959 27.0662 25.8645C27.1278 25.4257 27.2629 25.0497 27.4714 24.7367C27.682 24.422 27.9459 24.1904 28.2633 24.0418C28.5827 23.8917 28.9375 23.844 29.3276 23.8988C29.6314 23.9415 29.8974 24.0363 30.1254 24.1831C30.3534 24.3299 30.531 24.5155 30.6582 24.7399C30.7854 24.9644 30.8487 25.2143 30.8483 25.4896L30.1844 25.3963C30.1614 25.1922 30.0734 25.002 29.9203 24.8256C29.7694 24.6475 29.5476 24.5379 29.255 24.4968C28.9962 24.4604 28.7598 24.4961 28.5458 24.6037C28.3339 24.7097 28.1564 24.8769 28.0134 25.1055C27.8725 25.3324 27.7791 25.609 27.7332 25.9354C27.6863 26.2692 27.698 26.5673 27.7682 26.8296C27.8404 27.0922 27.9634 27.3055 28.1373 27.4696C28.3131 27.6339 28.5323 27.7346 28.7949 27.7715C28.9674 27.7957 29.1283 27.7877 29.2774 27.7475C29.4265 27.7072 29.5577 27.6377 29.671 27.5389C29.7844 27.44 29.8727 27.3148 29.9361 27.163L30.6 27.2563C30.5267 27.5061 30.4016 27.7228 30.2247 27.9064C30.0499 28.0884 29.8331 28.2224 29.5743 28.3085C29.3177 28.3929 29.0299 28.4127 28.7111 28.3679Z" fill="#5C5C5C"/>
<path d="M33.88 24.5961L33.8009 25.1587L31.5616 24.844L31.6406 24.2813L33.88 24.5961ZM32.4388 23.3378L33.1027 23.4311L32.524 27.5497C32.4976 27.7373 32.505 27.8818 32.5462 27.9832C32.5896 28.083 32.6522 28.1549 32.734 28.1989C32.8179 28.2413 32.9086 28.2694 33.0062 28.2831C33.0793 28.2934 33.1398 28.298 33.1878 28.2971C33.236 28.2943 33.2746 28.2921 33.3035 28.2904L33.3547 28.9058C33.3073 28.9164 33.2421 28.9244 33.1591 28.93C33.0758 28.9374 32.9723 28.9324 32.8485 28.915C32.661 28.8886 32.4828 28.8225 32.3141 28.7165C32.1473 28.6108 32.0164 28.4672 31.9214 28.2855C31.8283 28.1041 31.7994 27.8878 31.8347 27.6365L32.4388 23.3378Z" fill="#5C5C5C"/>
<path d="M38.986 25.3138L38.907 25.8765L36.6676 25.5617L36.7467 24.999L38.986 25.3138ZM37.5448 24.0555L38.2088 24.1488L37.63 28.2674C37.6037 28.455 37.6111 28.5995 37.6523 28.7009C37.6957 28.8007 37.7582 28.8726 37.84 28.9166C37.924 28.959 38.0147 28.9871 38.1122 29.0008C38.1854 29.0111 38.2459 29.0158 38.2938 29.0148C38.342 29.0121 38.3806 29.0098 38.4095 29.0082L38.4608 29.6235C38.4134 29.6341 38.3482 29.6422 38.2652 29.6477C38.1819 29.6551 38.0783 29.6501 37.9546 29.6327C37.767 29.6064 37.5889 29.5402 37.4202 29.4342C37.2533 29.3286 37.1224 29.1849 37.0275 29.0032C36.9344 28.8218 36.9055 28.6055 36.9408 28.3542L37.5448 24.0555Z" fill="#5C5C5C"/>
<path d="M41.0739 30.1056C40.6838 30.0508 40.3546 29.9098 40.0862 29.6828C39.8197 29.456 39.6274 29.164 39.5093 28.807C39.393 28.4502 39.3663 28.0487 39.429 27.6023C39.4923 27.1522 39.629 26.7707 39.8394 26.4579C40.0516 26.1454 40.3171 25.9169 40.6357 25.7723C40.9563 25.628 41.3116 25.5833 41.7017 25.6381C42.0918 25.693 42.4201 25.8338 42.6866 26.0606C42.955 26.2877 43.1471 26.5805 43.2631 26.9392C43.381 27.2981 43.4083 27.7026 43.345 28.1527C43.2823 28.5991 43.145 28.9776 42.933 29.2883C42.7229 29.5992 42.4576 29.8268 42.1371 29.971C41.8184 30.1156 41.464 30.1604 41.0739 30.1056ZM41.1577 29.5092C41.4541 29.5509 41.7086 29.5092 41.9212 29.3841C42.1339 29.2591 42.3035 29.0793 42.4302 28.8446C42.5569 28.61 42.6405 28.3482 42.6811 28.0594C42.7217 27.7706 42.7136 27.495 42.6567 27.2326C42.5999 26.9703 42.4866 26.7487 42.3169 26.5681C42.1472 26.3874 41.9142 26.2762 41.6179 26.2346C41.3216 26.1929 41.0669 26.2355 40.854 26.3624C40.6411 26.4893 40.4712 26.671 40.3442 26.9076C40.2173 27.1441 40.1335 27.4068 40.0929 27.6956C40.0523 27.9844 40.0606 28.2591 40.1177 28.5196C40.1748 28.7801 40.2884 28.9997 40.4583 29.1785C40.6283 29.3573 40.8614 29.4676 41.1577 29.5092Z" fill="#5C5C5C"/>
<path d="M47.5435 31.0265C47.2697 30.988 47.0285 30.9015 46.8198 30.767C46.6113 30.6306 46.4553 30.4547 46.3517 30.2393C46.2484 30.022 46.2165 29.7727 46.256 29.4914C46.2908 29.2438 46.3677 29.05 46.4869 28.9099C46.6063 28.768 46.7537 28.6644 46.9293 28.5992C47.1049 28.5339 47.2941 28.4936 47.4971 28.4782C47.7022 28.4611 47.907 28.4535 48.1114 28.4555C48.3787 28.4586 48.5951 28.4632 48.7606 28.4693C48.9283 28.4737 49.0527 28.4597 49.1338 28.4271C49.2167 28.3947 49.2657 28.3251 49.2808 28.2182L49.2839 28.1957C49.3229 27.9181 49.2773 27.6918 49.147 27.5166C49.0185 27.3417 48.8015 27.2328 48.4958 27.1898C48.1788 27.1453 47.9206 27.1798 47.721 27.2932C47.5215 27.4067 47.374 27.5371 47.2788 27.6844L46.6802 27.3707C46.8296 27.124 47.0084 26.9406 47.2165 26.8207C47.4268 26.6992 47.6476 26.625 47.8789 26.5982C48.1124 26.5698 48.3379 26.5709 48.5555 26.6015C48.6943 26.621 48.8513 26.6603 49.0266 26.7194C49.2041 26.7768 49.3701 26.8681 49.5246 26.9931C49.6811 27.1183 49.8012 27.2911 49.885 27.5114C49.9688 27.7316 49.9866 28.0133 49.9384 28.3566L49.5383 31.2036L48.8744 31.1103L48.9566 30.5251L48.9228 30.5204C48.8646 30.6078 48.7755 30.6976 48.6555 30.7897C48.5354 30.8819 48.3829 30.9532 48.198 31.0037C48.013 31.0542 47.7949 31.0618 47.5435 31.0265ZM47.7286 30.4443C47.9912 30.4812 48.2197 30.4607 48.4143 30.3829C48.6107 30.3053 48.7663 30.1914 48.8812 30.0411C48.9979 29.8911 49.0689 29.7261 49.0942 29.5461L49.1796 28.9384C49.1467 28.9682 49.0804 28.9905 48.9808 29.0052C48.8834 29.0182 48.7713 29.0264 48.6446 29.0296C48.5201 29.0312 48.3986 29.0314 48.2802 29.03C48.164 29.0271 48.0695 29.0253 47.997 29.0246C47.8213 29.0229 47.6548 29.0368 47.4977 29.0663C47.3426 29.0943 47.2122 29.1515 47.1063 29.238C47.0026 29.3229 46.9389 29.4497 46.9152 29.6185C46.8827 29.8492 46.9436 30.0356 47.0976 30.1777C47.2538 30.3183 47.4642 30.4071 47.7286 30.4443Z" fill="#5C5C5C"/>
<path d="M51.7793 28.8678L51.414 31.4672L50.7501 31.3739L51.3573 27.0527L51.9987 27.1429L51.9039 27.8181L51.9601 27.826C52.0922 27.6208 52.2708 27.4661 52.4958 27.3619C52.7211 27.2559 52.9969 27.2258 53.3232 27.2717C53.6158 27.3128 53.8634 27.4088 54.066 27.5597C54.2688 27.7087 54.4142 27.9127 54.5021 28.1718C54.5902 28.429 54.6085 28.7414 54.5569 29.109L54.171 31.8548L53.5071 31.7614L53.8866 29.0607C53.9343 28.7212 53.8833 28.4444 53.7336 28.2302C53.5842 28.0141 53.3557 27.8844 53.0481 27.8412C52.8362 27.8114 52.6403 27.8307 52.4605 27.8992C52.2825 27.9679 52.1333 28.0837 52.0129 28.2465C51.8925 28.4094 51.8146 28.6165 51.7793 28.8678Z" fill="#5C5C5C"/>
<path d="M55.4294 33.6841C55.3169 33.6683 55.2179 33.6448 55.1324 33.6137C55.0466 33.5844 54.988 33.5589 54.9566 33.5373L55.2076 32.9759C55.3631 33.0398 55.5036 33.0749 55.6289 33.081C55.7543 33.0871 55.8718 33.0472 55.9814 32.9613C56.0926 32.8775 56.204 32.7315 56.3155 32.5234L56.4867 32.2032L55.4991 27.6349L56.2193 27.7361L56.9283 31.3473L56.9733 31.3536L58.65 28.0778L59.3702 28.179L56.8402 32.8726C56.7263 33.0842 56.5981 33.2545 56.4556 33.3837C56.3129 33.5147 56.1559 33.6045 55.9846 33.6531C55.8152 33.702 55.6301 33.7123 55.4294 33.6841Z" fill="#5C5C5C"/>
<path d="M61.2274 32.9384C60.8373 32.8836 60.508 32.7426 60.2397 32.5156C59.9732 32.2888 59.7809 31.9969 59.6627 31.6398C59.5465 31.283 59.5197 30.8815 59.5824 30.4351C59.6457 29.985 59.7825 29.6035 59.9928 29.2907C60.2051 28.9782 60.4705 28.7497 60.7892 28.6051C61.1097 28.4608 61.465 28.4161 61.8551 28.471C62.2452 28.5258 62.5735 28.6666 62.84 28.8934C63.1084 29.1205 63.3006 29.4133 63.4166 29.772C63.5344 30.1309 63.5617 30.5354 63.4985 30.9855C63.4358 31.4319 63.2984 31.8104 63.0865 32.1211C62.8764 32.432 62.6111 32.6596 62.2905 32.8038C61.9719 32.9484 61.6175 32.9933 61.2274 32.9384ZM61.3112 32.342C61.6075 32.3837 61.862 32.342 62.0746 32.2169C62.2873 32.0919 62.457 31.9121 62.5837 31.6774C62.7103 31.4428 62.794 31.181 62.8346 30.8922C62.8752 30.6034 62.867 30.3278 62.8102 30.0654C62.7533 29.8031 62.6401 29.5815 62.4704 29.4009C62.3007 29.2202 62.0677 29.109 61.7713 29.0674C61.475 29.0257 61.2204 29.0683 61.0075 29.1952C60.7946 29.3221 60.6246 29.5039 60.4977 29.7404C60.3707 29.9769 60.287 30.2396 60.2464 30.5284C60.2058 30.8172 60.214 31.0919 60.2712 31.3524C60.3283 31.6129 60.4418 31.8325 60.6118 32.0113C60.7817 32.1901 61.0149 32.3004 61.3112 32.342Z" fill="#5C5C5C"/>
<path d="M65.2407 30.7599L64.8754 33.3594L64.2115 33.2661L64.8187 28.9449L65.4602 29.0351L65.3653 29.7102L65.4215 29.7181C65.5537 29.513 65.7322 29.3583 65.9572 29.2541C66.1825 29.1481 66.4583 29.118 66.7847 29.1639C67.0772 29.205 67.3248 29.301 67.5274 29.4519C67.7302 29.6009 67.8756 29.8049 67.9635 30.064C68.0517 30.3212 68.0699 30.6336 68.0183 31.0012L67.6324 33.7469L66.9685 33.6536L67.348 30.9529C67.3957 30.6134 67.3447 30.3366 67.1951 30.1224C67.0456 29.9063 66.8171 29.7766 66.5096 29.7334C66.2976 29.7036 66.1017 29.7229 65.9219 29.7913C65.7439 29.8601 65.5948 29.9758 65.4743 30.1387C65.3539 30.3015 65.276 30.5086 65.2407 30.7599Z" fill="#5C5C5C"/>
<path d="M70.6447 34.2621C70.2284 34.2036 69.8821 34.0612 69.606 33.835C69.332 33.6071 69.1368 33.3158 69.0202 32.9609C68.9059 32.6043 68.8798 32.2048 68.942 31.7622C69.0042 31.3195 69.1396 30.9408 69.3484 30.6258C69.5592 30.3093 69.8233 30.0768 70.1406 29.9282C70.4601 29.778 70.8149 29.7304 71.205 29.7852C71.4301 29.8168 71.647 29.8856 71.8559 29.9914C72.0648 30.0973 72.2474 30.2473 72.4038 30.4414C72.5603 30.6336 72.6727 30.8751 72.7409 31.1658C72.809 31.4565 72.8148 31.8035 72.7581 32.2068L72.7186 32.4881L69.3877 32.0199L69.4683 31.446L72.1241 31.8193C72.1583 31.5755 72.1401 31.351 72.0695 31.146C72.0007 30.9413 71.885 30.7711 71.7224 30.6354C71.5617 30.4999 71.3612 30.4153 71.1212 30.3816C70.8567 30.3444 70.6187 30.3779 70.4071 30.482C70.1976 30.5846 70.0266 30.7327 69.8942 30.9263C69.7618 31.12 69.6789 31.336 69.6454 31.5742L69.5917 31.9568C69.5458 32.2831 69.5632 32.5676 69.6438 32.8104C69.7266 33.0515 69.861 33.2454 70.0469 33.3921C70.2331 33.5368 70.4604 33.628 70.7285 33.6657C70.903 33.6903 71.0639 33.688 71.2115 33.659C71.3611 33.6284 71.4945 33.5707 71.6116 33.4858C71.729 33.399 71.8264 33.2845 71.9037 33.1424L72.5198 33.4126C72.4217 33.6207 72.2814 33.796 72.0988 33.9387C71.9164 34.0794 71.7016 34.1793 71.4542 34.2382C71.2072 34.2953 70.9373 34.3033 70.6447 34.2621Z" fill="#5C5C5C"/>
<path d="M75.6847 34.8788L76.2919 30.5576L76.9558 30.6509L76.3486 34.9721L75.6847 34.8788ZM76.7307 29.8848C76.6013 29.8666 76.4959 29.8069 76.4145 29.7056C76.335 29.6045 76.3039 29.4921 76.3213 29.3683C76.3387 29.2445 76.3995 29.145 76.5038 29.0698C76.61 28.9948 76.7278 28.9664 76.8572 28.9846C76.9866 29.0028 77.0911 29.0624 77.1706 29.1635C77.252 29.2648 77.2839 29.3774 77.2666 29.5011C77.2492 29.6249 77.1874 29.7243 77.0812 29.7993C76.9769 29.8745 76.8601 29.903 76.7307 29.8848Z" fill="#5C5C5C"/>
<path d="M78.5938 32.6369L78.2286 35.2363L77.5646 35.143L78.1718 30.8218L78.8133 30.912L78.7184 31.5872L78.7747 31.5951C78.9068 31.3899 79.0853 31.2352 79.3103 31.131C79.5356 31.025 79.8114 30.9949 80.1378 31.0408C80.4304 31.0819 80.6779 31.1779 80.8805 31.3288C81.0833 31.4778 81.2287 31.6818 81.3166 31.9409C81.4048 32.1981 81.423 32.5105 81.3714 32.8781L80.9855 35.6239L80.3216 35.5305L80.7011 32.8298C80.7488 32.4903 80.6978 32.2135 80.5482 31.9993C80.3987 31.7832 80.1702 31.6536 79.8627 31.6103C79.6507 31.5805 79.4548 31.5999 79.275 31.6683C79.0971 31.737 78.9479 31.8528 78.8274 32.0156C78.707 32.1785 78.6291 32.3856 78.5938 32.6369Z" fill="#5C5C5C"/>
<path d="M84.6268 37.7881C84.5142 37.7723 84.4152 37.7488 84.3297 37.7177C84.2439 37.6884 84.1853 37.663 84.154 37.6413L84.405 37.0799C84.5605 37.1438 84.7009 37.1789 84.8263 37.185C84.9516 37.1912 85.0691 37.1513 85.1787 37.0653C85.29 36.9815 85.4013 36.8355 85.5128 36.6274L85.684 36.3072L84.6965 31.739L85.4167 31.8402L86.1256 35.4513L86.1706 35.4576L87.8473 32.1818L88.5675 32.2831L86.0375 36.9766C85.9236 37.1882 85.7955 37.3586 85.653 37.4877C85.5103 37.6187 85.3532 37.7086 85.1819 37.7572C85.0125 37.806 84.8274 37.8163 84.6268 37.7881Z" fill="#5C5C5C"/>
<path d="M90.4247 37.0425C90.0346 36.9876 89.7054 36.8467 89.437 36.6196C89.1705 36.3928 88.9782 36.1009 88.8601 35.7438C88.7438 35.3871 88.7171 34.9855 88.7798 34.5391C88.843 34.089 88.9798 33.7076 89.1902 33.3948C89.4024 33.0823 89.6679 32.8537 89.9865 32.7092C90.3071 32.5649 90.6624 32.5202 91.0525 32.575C91.4426 32.6298 91.7709 32.7706 92.0374 32.9974C92.3057 33.2245 92.4979 33.5174 92.6139 33.876C92.7318 34.2349 92.7591 34.6395 92.6958 35.0896C92.6331 35.5359 92.4958 35.9145 92.2838 36.2251C92.0737 36.536 91.8084 36.7636 91.4879 36.9079C91.1692 37.0524 90.8148 37.0973 90.4247 37.0425ZM90.5085 36.446C90.8049 36.4877 91.0594 36.446 91.272 36.321C91.4846 36.196 91.6543 36.0161 91.781 35.7815C91.9077 35.5468 91.9913 35.2851 92.0319 34.9963C92.0725 34.7074 92.0644 34.4318 92.0075 34.1695C91.9507 33.9071 91.8374 33.6856 91.6677 33.5049C91.498 33.3242 91.265 33.2131 90.9687 33.1714C90.6724 33.1297 90.4177 33.1724 90.2048 33.2993C89.9919 33.4262 89.822 33.6079 89.695 33.8444C89.5681 34.0809 89.4843 34.3436 89.4437 34.6324C89.4031 34.9213 89.4114 35.1959 89.4685 35.4564C89.5256 35.7169 89.6392 35.9366 89.8091 36.1154C89.9791 36.2942 90.2122 36.4044 90.5085 36.446Z" fill="#5C5C5C"/>
<path d="M96.3804 35.9862L96.7393 33.4317L97.4032 33.525L96.796 37.8462L96.1321 37.7529L96.2349 37.0214L96.1899 37.0151C96.0578 37.2203 95.874 37.3848 95.6386 37.5085C95.4034 37.6304 95.1227 37.6684 94.7963 37.6225C94.5263 37.5846 94.2945 37.4917 94.1011 37.344C93.9079 37.1945 93.7681 36.9912 93.6818 36.7343C93.5958 36.4755 93.5786 36.1623 93.6303 35.7947L94.0161 33.0489L94.68 33.1423L94.3005 35.843C94.2562 36.1581 94.3091 36.4218 94.459 36.6341C94.6108 36.8467 94.8246 36.9724 95.1003 37.0111C95.2653 37.0343 95.4391 37.0157 95.6216 36.9553C95.8061 36.8952 95.9686 36.7861 96.1094 36.628C96.2521 36.4702 96.3424 36.2562 96.3804 35.9862Z" fill="#5C5C5C"/>
<path d="M98.0121 38.0171L98.6193 33.696L99.2607 33.7861L99.169 34.4388L99.214 34.4451C99.3228 34.2424 99.4897 34.0889 99.7147 33.9848C99.9398 33.8806 100.182 33.8467 100.44 33.8831C100.489 33.89 100.55 33.8995 100.623 33.9116C100.696 33.9238 100.751 33.9344 100.788 33.9434L100.693 34.6186C100.671 34.6098 100.621 34.5941 100.542 34.5715C100.465 34.5473 100.382 34.529 100.294 34.5166C100.084 34.4871 99.8903 34.5048 99.7129 34.5698C99.5376 34.6331 99.3913 34.7349 99.274 34.8753C99.1589 35.014 99.0876 35.1809 99.0602 35.376L98.676 38.1105L98.0121 38.0171Z" fill="#5C5C5C"/>
<path d="M106.72 35.8215L106.1 35.9064C106.076 35.8018 106.034 35.6974 105.974 35.5933C105.917 35.4877 105.83 35.3952 105.715 35.3159C105.6 35.2366 105.446 35.1834 105.253 35.1562C104.988 35.1191 104.759 35.149 104.566 35.2462C104.375 35.3417 104.266 35.4823 104.24 35.668C104.217 35.833 104.258 35.9718 104.365 36.0843C104.471 36.1968 104.648 36.3029 104.894 36.4025L105.513 36.6502C105.886 36.7983 106.154 36.9822 106.316 37.2021C106.479 37.42 106.539 37.6799 106.497 37.9819C106.462 38.2294 106.359 38.4407 106.189 38.6158C106.021 38.791 105.803 38.9172 105.534 38.9941C105.265 39.071 104.962 39.0859 104.627 39.0387C104.186 38.9768 103.835 38.8298 103.573 38.5979C103.311 38.366 103.167 38.0609 103.142 37.6825L103.794 37.6135C103.822 37.8545 103.911 38.0449 104.061 38.1846C104.214 38.3246 104.426 38.4138 104.698 38.452C105.007 38.4955 105.262 38.4644 105.462 38.3587C105.665 38.2513 105.779 38.1048 105.805 37.9192C105.826 37.7691 105.792 37.6361 105.701 37.52C105.61 37.4021 105.46 37.3025 105.249 37.2213L104.553 36.9513C104.17 36.8019 103.9 36.6157 103.742 36.3927C103.586 36.168 103.529 35.9066 103.571 35.6084C103.605 35.3646 103.704 35.1585 103.867 34.9902C104.033 34.8222 104.242 34.7014 104.495 34.628C104.75 34.5548 105.029 34.5396 105.333 34.5823C105.761 34.6424 106.083 34.7834 106.301 35.0052C106.52 35.2273 106.66 35.4994 106.72 35.8215Z" fill="#5C5C5C"/>
<path d="M110.298 37.9425L110.657 35.388L111.321 35.4814L110.714 39.8025L110.05 39.7092L110.153 38.9778L110.108 38.9714C109.976 39.1766 109.792 39.3411 109.556 39.4649C109.321 39.5867 109.041 39.6247 108.714 39.5788C108.444 39.5409 108.212 39.4481 108.019 39.3004C107.826 39.1508 107.686 38.9476 107.6 38.6906C107.514 38.4318 107.496 38.1186 107.548 37.751L107.934 35.0053L108.598 35.0986L108.218 37.7993C108.174 38.1144 108.227 38.3781 108.377 38.5904C108.529 38.803 108.742 38.9287 109.018 38.9675C109.183 38.9907 109.357 38.9721 109.54 38.9117C109.724 38.8515 109.887 38.7424 110.027 38.5843C110.17 38.4265 110.26 38.2126 110.298 37.9425Z" fill="#5C5C5C"/>
<path d="M111.702 41.5939L112.537 35.6523L113.179 35.7424L113.082 36.4289L113.161 36.44C113.22 36.3718 113.301 36.2856 113.404 36.1815C113.509 36.0757 113.649 35.9883 113.825 35.9194C114.003 35.8488 114.233 35.8333 114.514 35.8728C114.878 35.924 115.186 36.06 115.438 36.281C115.69 36.5019 115.87 36.7902 115.979 37.1459C116.088 37.5017 116.111 37.9065 116.047 38.3603C115.982 38.818 115.849 39.2037 115.646 39.5175C115.443 39.8295 115.191 40.058 114.89 40.203C114.589 40.3462 114.258 40.3925 113.898 40.3419C113.62 40.3029 113.404 40.2257 113.25 40.1103C113.097 39.9931 112.983 39.8691 112.91 39.7382C112.837 39.6056 112.781 39.4964 112.743 39.4108L112.687 39.4029L112.366 41.6872L111.702 41.5939ZM112.886 37.9046C112.84 38.231 112.848 38.5256 112.908 38.7885C112.969 39.0495 113.082 39.2632 113.246 39.4297C113.41 39.5944 113.625 39.6954 113.892 39.7328C114.169 39.7718 114.411 39.7312 114.617 39.6111C114.826 39.4893 114.994 39.3102 115.123 39.074C115.254 38.8361 115.341 38.5634 115.384 38.2558C115.427 37.9519 115.419 37.6715 115.359 37.4145C115.302 37.1559 115.189 36.9422 115.022 36.7733C114.856 36.6027 114.633 36.4977 114.352 36.4582C114.082 36.4202 113.845 36.4568 113.642 36.5678C113.439 36.677 113.274 36.847 113.146 37.0776C113.018 37.3064 112.932 37.582 112.886 37.9046Z" fill="#5C5C5C"/>
<path d="M116.53 42.2725L117.365 36.3309L118.006 36.421L117.91 37.1075L117.988 37.1185C118.048 37.0504 118.129 36.9642 118.231 36.86C118.336 36.7543 118.476 36.6669 118.653 36.5979C118.831 36.5274 119.061 36.5119 119.342 36.5514C119.706 36.6025 120.014 36.7386 120.266 36.9595C120.518 37.1805 120.698 37.4688 120.807 37.8245C120.916 38.1802 120.938 38.585 120.874 39.0389C120.81 39.4965 120.676 39.8823 120.474 40.1961C120.271 40.5081 120.019 40.7366 119.717 40.8816C119.416 41.0248 119.085 41.0711 118.725 41.0205C118.448 40.9814 118.232 40.9042 118.078 40.7889C117.924 40.6716 117.811 40.5476 117.737 40.4168C117.664 40.2841 117.609 40.175 117.571 40.0893L117.515 40.0814L117.194 42.3658L116.53 42.2725ZM117.714 38.5832C117.668 38.9095 117.675 39.2041 117.736 39.467C117.797 39.728 117.909 39.9418 118.073 40.1083C118.238 40.2729 118.453 40.3739 118.719 40.4114C118.997 40.4504 119.239 40.4098 119.445 40.2896C119.653 40.1678 119.822 39.9888 119.951 39.7525C120.082 39.5146 120.169 39.2419 120.212 38.9343C120.255 38.6305 120.246 38.3501 120.187 38.0931C120.129 37.8345 120.017 37.6207 119.849 37.4518C119.684 37.2813 119.461 37.1763 119.179 37.1367C118.909 37.0988 118.673 37.1353 118.47 37.2464C118.267 37.3556 118.101 37.5255 117.973 37.7562C117.846 37.9849 117.759 38.2606 117.714 38.5832Z" fill="#5C5C5C"/>
<path d="M123.059 35.6624L122.249 41.4239L121.585 41.3306L122.395 35.569L123.059 35.6624Z" fill="#5C5C5C"/>
<path d="M123.665 43.2754C123.552 43.2596 123.453 43.2361 123.368 43.205C123.282 43.1757 123.223 43.1502 123.192 43.1286L123.443 42.5672C123.599 42.6311 123.739 42.6662 123.864 42.6723C123.99 42.6785 124.107 42.6385 124.217 42.5526C124.328 42.4688 124.439 42.3228 124.551 42.1147L124.722 41.7945L123.735 37.2262L124.455 37.3275L125.164 40.9386L125.209 40.9449L126.885 37.6691L127.606 37.7703L125.076 42.4639C124.962 42.6755 124.834 42.8458 124.691 42.975C124.548 43.106 124.391 43.1958 124.22 43.2444C124.051 43.2933 123.866 43.3036 123.665 43.2754Z" fill="#5C5C5C"/>
<path d="M8.16799 35.5786C7.76288 35.5217 7.42748 35.377 7.16178 35.1445C6.89608 34.9121 6.70805 34.617 6.59768 34.2591C6.48732 33.9012 6.46244 33.5066 6.52306 33.0753C6.58473 32.6364 6.71979 32.2604 6.92826 31.9474C7.13887 31.6327 7.40283 31.4011 7.72016 31.2526C8.03962 31.1024 8.3944 31.0547 8.7845 31.1095C9.08833 31.1523 9.35425 31.247 9.58225 31.3938C9.81026 31.5406 9.98786 31.7262 10.1151 31.9507C10.2423 32.1751 10.3056 32.425 10.3052 32.7003L9.64128 32.607C9.61831 32.403 9.53029 32.2127 9.37722 32.0363C9.22628 31.8582 9.00453 31.7487 8.71195 31.7075C8.45313 31.6712 8.2167 31.7068 8.00268 31.8144C7.79079 31.9204 7.61332 32.0877 7.47028 32.3162C7.32938 32.5431 7.236 32.8197 7.19015 33.1461C7.14324 33.4799 7.1549 33.778 7.22514 34.0403C7.29726 34.3029 7.42028 34.5163 7.59422 34.6803C7.77003 34.8447 7.98922 34.9453 8.2518 34.9822C8.42434 35.0064 8.58516 34.9984 8.73426 34.9582C8.88336 34.918 9.01457 34.8484 9.12791 34.7496C9.24125 34.6508 9.32962 34.5255 9.39302 34.3737L10.0569 34.4671C9.98359 34.7169 9.85847 34.9336 9.68158 35.1172C9.50683 35.2992 9.29005 35.4332 9.03124 35.5192C8.77457 35.6036 8.48682 35.6234 8.16799 35.5786Z" fill="#5C5C5C"/>
<path d="M11.8796 33.3577L11.5143 35.9572L10.8504 35.8638L11.66 30.1023L12.324 30.1956L12.0267 32.3112L12.0829 32.3191C12.2156 32.1101 12.3924 31.9542 12.6134 31.8514C12.8365 31.747 13.1179 31.7186 13.4573 31.7664C13.7518 31.8078 14.0013 31.9031 14.2061 32.0523C14.411 32.1997 14.5575 32.403 14.6454 32.662C14.7354 32.9195 14.7544 33.2339 14.7022 33.6053L14.3163 36.351L13.6524 36.2577L14.0319 33.557C14.0802 33.2137 14.0284 32.9358 13.8765 32.7232C13.7269 32.509 13.4954 32.3799 13.1822 32.3359C12.9646 32.3053 12.7631 32.3238 12.5777 32.3915C12.3941 32.4594 12.2402 32.5745 12.116 32.7368C11.9937 32.8994 11.9149 33.1064 11.8796 33.3577Z" fill="#5C5C5C"/>
<path d="M16.7883 36.8018C16.5145 36.7633 16.2732 36.6768 16.0646 36.5422C15.8561 36.4058 15.7001 36.23 15.5965 36.0146C15.4931 35.7973 15.4612 35.548 15.5008 35.2667C15.5356 35.0191 15.6125 34.8253 15.7317 34.6852C15.8511 34.5433 15.9985 34.4397 16.1741 34.3745C16.3496 34.3092 16.5389 34.2689 16.7419 34.2535C16.947 34.2364 17.1518 34.2288 17.3562 34.2308C17.6235 34.2339 17.8399 34.2385 18.0054 34.2446C18.1731 34.249 18.2975 34.2349 18.3786 34.2024C18.4615 34.17 18.5105 34.1004 18.5255 33.9935L18.5287 33.971C18.5677 33.6934 18.5221 33.4671 18.3918 33.2919C18.2633 33.117 18.0463 33.0081 17.7406 32.9651C17.4236 32.9206 17.1653 32.9551 16.9658 33.0685C16.7662 33.182 16.6188 33.3124 16.5235 33.4596L15.925 33.146C16.0744 32.8993 16.2532 32.7159 16.4613 32.596C16.6715 32.4744 16.8923 32.4003 17.1237 32.3735C17.3572 32.3451 17.5827 32.3462 17.8003 32.3768C17.9391 32.3963 18.0961 32.4356 18.2714 32.4947C18.4489 32.5521 18.6149 32.6434 18.7694 32.7684C18.9259 32.8936 19.046 33.0664 19.1298 33.2866C19.2136 33.5069 19.2314 33.7886 19.1832 34.1318L18.7831 36.9789L18.1192 36.8856L18.2014 36.3004L18.1676 36.2956C18.1094 36.3831 18.0203 36.4729 17.9003 36.565C17.7802 36.6572 17.6277 36.7285 17.4427 36.779C17.2578 36.8295 17.0396 36.8371 16.7883 36.8018ZM16.9734 36.2196C17.236 36.2565 17.4645 36.236 17.6591 36.1582C17.8555 36.0806 18.0111 35.9667 18.126 35.8164C18.2427 35.6664 18.3137 35.5014 18.339 35.3214L18.4243 34.7137C18.3915 34.7435 18.3252 34.7658 18.2256 34.7804C18.1282 34.7935 18.0161 34.8017 17.8894 34.8049C17.7649 34.8065 17.6434 34.8067 17.525 34.8053C17.4088 34.8024 17.3143 34.8006 17.2418 34.7999C17.066 34.7982 16.8996 34.8121 16.7425 34.8416C16.5874 34.8696 16.457 34.9268 16.3511 35.0133C16.2474 35.0981 16.1837 35.225 16.16 35.3938C16.1275 35.6245 16.1884 35.8109 16.3424 35.953C16.4986 36.0936 16.709 36.1824 16.9734 36.2196Z" fill="#5C5C5C"/>
<path d="M19.9949 37.1492L20.6021 32.828L21.266 32.9213L20.6588 37.2425L19.9949 37.1492ZM21.0409 32.1553C20.9115 32.1371 20.8061 32.0773 20.7247 31.976C20.6452 31.8749 20.6141 31.7625 20.6315 31.6387C20.6489 31.5149 20.7098 31.4154 20.814 31.3402C20.9202 31.2652 21.038 31.2368 21.1674 31.255C21.2968 31.2732 21.4013 31.3329 21.4808 31.4339C21.5622 31.5352 21.5942 31.6478 21.5768 31.7716C21.5594 31.8954 21.4976 31.9948 21.3914 32.0697C21.2872 32.145 21.1703 32.1735 21.0409 32.1553Z" fill="#5C5C5C"/>
<path d="M22.9041 34.9073L22.5388 37.5068L21.8749 37.4135L22.4821 33.0923L23.1235 33.1824L23.0286 33.8576L23.0849 33.8655C23.217 33.6603 23.3956 33.5056 23.6206 33.4015C23.8458 33.2954 24.1217 33.2654 24.448 33.3112C24.7406 33.3524 24.9881 33.4484 25.1907 33.5992C25.3935 33.7482 25.5389 33.9523 25.6268 34.2114C25.715 34.4686 25.7333 34.781 25.6816 35.1486L25.2958 37.8943L24.6318 37.801L25.0113 35.1002C25.0591 34.7608 25.0081 34.4839 24.8584 34.2697C24.709 34.0537 24.4805 33.924 24.1729 33.8808C23.961 33.851 23.7651 33.8703 23.5852 33.9387C23.4073 34.0074 23.2581 34.1232 23.1377 34.2861C23.0172 34.4489 22.9394 34.656 22.9041 34.9073Z" fill="#5C5C5C"/>
<path d="M29.9944 38.658C29.7206 38.6196 29.4794 38.533 29.2707 38.3985C29.0622 38.2621 28.9062 38.0862 28.8026 37.8708C28.6993 37.6536 28.6674 37.4043 28.7069 37.123C28.7417 36.8754 28.8186 36.6816 28.9378 36.5415C29.0572 36.3995 29.2047 36.2959 29.3802 36.2307C29.5558 36.1655 29.745 36.1252 29.948 36.1097C30.1532 36.0927 30.3579 36.0851 30.5623 36.0871C30.8296 36.0902 31.046 36.0948 31.2116 36.1009C31.3792 36.1053 31.5036 36.0912 31.5847 36.0586C31.6677 36.0263 31.7166 35.9567 31.7317 35.8498L31.7348 35.8273C31.7738 35.5497 31.7282 35.3233 31.5979 35.1482C31.4694 34.9733 31.2524 34.8644 30.9467 34.8214C30.6297 34.7769 30.3715 34.8113 30.1719 34.9248C29.9724 35.0383 29.8249 35.1687 29.7297 35.3159L29.1311 35.0023C29.2805 34.7555 29.4593 34.5722 29.6674 34.4523C29.8777 34.3307 30.0985 34.2566 30.3298 34.2298C30.5633 34.2014 30.7888 34.2025 31.0064 34.2331C31.1452 34.2526 31.3022 34.2919 31.4775 34.351C31.655 34.4084 31.821 34.4996 31.9755 34.6246C32.132 34.7499 32.2521 34.9227 32.3359 35.1429C32.4197 35.3632 32.4375 35.6449 32.3893 35.9881L31.9892 38.8352L31.3253 38.7418L31.4075 38.1567L31.3737 38.1519C31.3156 38.2394 31.2264 38.3292 31.1064 38.4213C30.9863 38.5134 30.8338 38.5848 30.6489 38.6353C30.4639 38.6858 30.2458 38.6934 29.9944 38.658ZM30.1795 38.0759C30.4421 38.1128 30.6707 38.0923 30.8652 38.0145C31.0616 37.9369 31.2172 37.823 31.3321 37.6727C31.4488 37.5227 31.5198 37.3577 31.5451 37.1776L31.6305 36.57C31.5976 36.5998 31.5313 36.622 31.4317 36.6367C31.3343 36.6498 31.2222 36.658 31.0955 36.6612C30.971 36.6628 30.8495 36.6629 30.7311 36.6616C30.6149 36.6586 30.5205 36.6569 30.4479 36.6562C30.2722 36.6545 30.1057 36.6684 29.9486 36.6979C29.7936 36.7259 29.6631 36.7831 29.5572 36.8695C29.4535 36.9544 29.3898 37.0813 29.3661 37.2501C29.3337 37.4807 29.3945 37.6672 29.5485 37.8093C29.7048 37.9498 29.9151 38.0387 30.1795 38.0759Z" fill="#5C5C5C"/>
<path d="M34.2302 36.4993L33.8649 39.0988L33.201 39.0055L33.8082 34.6843L34.4496 34.7745L34.3548 35.4496L34.411 35.4576C34.5431 35.2524 34.7217 35.0977 34.9467 34.9935C35.172 34.8875 35.4478 34.8574 35.7742 34.9033C36.0667 34.9444 36.3143 35.0404 36.5169 35.1913C36.7197 35.3403 36.8651 35.5443 36.953 35.8034C37.0412 36.0606 37.0594 36.373 37.0078 36.7406L36.6219 39.4863L35.958 39.393L36.3375 36.6923C36.3852 36.3528 36.3342 36.076 36.1845 35.8618C36.0351 35.6457 35.8066 35.516 35.499 35.4728C35.2871 35.443 35.0912 35.4623 34.9114 35.5308C34.7334 35.5995 34.5842 35.7152 34.4638 35.8781C34.3434 36.0409 34.2655 36.248 34.2302 36.4993Z" fill="#5C5C5C"/>
<path d="M39.4542 39.9762C39.0941 39.9256 38.789 39.79 38.5388 39.5693C38.289 39.3468 38.1096 39.0576 38.0009 38.7019C37.8924 38.3443 37.8703 37.9367 37.9346 37.4791C37.9984 37.0252 38.1316 36.6423 38.3341 36.3303C38.5367 36.0183 38.7896 35.7909 39.0927 35.648C39.3959 35.5051 39.7294 35.4592 40.0932 35.5104C40.3745 35.5499 40.5902 35.628 40.7402 35.7447C40.8923 35.8598 41.0032 35.9825 41.0729 36.1128C41.1447 36.2415 41.1997 36.3468 41.2379 36.4286L41.2942 36.4365L41.593 34.3097L42.257 34.403L41.4474 40.1646L40.8059 40.0744L40.8992 39.4105L40.8205 39.3994C40.7606 39.4714 40.6773 39.561 40.5704 39.6684C40.4638 39.7739 40.3204 39.8618 40.1403 39.9321C39.9605 40.0006 39.7318 40.0153 39.4542 39.9762ZM39.628 39.3925C39.8943 39.4299 40.1291 39.3922 40.3324 39.2792C40.536 39.1644 40.703 38.9899 40.8335 38.7558C40.9642 38.5198 41.0524 38.2386 41.0983 37.9123C41.1436 37.5897 41.1364 37.3008 41.0766 37.0457C41.0171 36.7887 40.9049 36.5798 40.7401 36.4189C40.5756 36.2562 40.3582 36.1558 40.0882 36.1178C39.8068 36.0783 39.5623 36.1176 39.3544 36.2356C39.1487 36.352 38.9817 36.5265 38.8534 36.759C38.7272 36.9899 38.6428 37.2573 38.6001 37.5611C38.5569 37.8687 38.5645 38.1548 38.623 38.4193C38.6836 38.6821 38.7963 38.9007 38.9612 39.075C39.1282 39.2476 39.3504 39.3535 39.628 39.3925Z" fill="#5C5C5C"/>
<path d="M46.7827 41.0064C46.3663 40.9478 46.0201 40.8054 45.744 40.5792C45.47 40.3513 45.2747 40.06 45.1582 39.7051C45.0438 39.3486 45.0177 38.949 45.0799 38.5064C45.1421 38.0637 45.2776 37.685 45.4863 37.3701C45.6972 37.0535 45.9613 36.821 46.2786 36.6724C46.5981 36.5222 46.9528 36.4746 47.343 36.5294C47.568 36.561 47.785 36.6298 47.9939 36.7356C48.2028 36.8415 48.3854 36.9915 48.5417 37.1856C48.6983 37.3778 48.8107 37.6193 48.8788 37.91C48.947 38.2008 48.9528 38.5477 48.8961 38.951L48.8566 39.2323L45.5257 38.7641L45.6063 38.1902L48.262 38.5635C48.2963 38.3197 48.2781 38.0953 48.2075 37.8902C48.1387 37.6855 48.023 37.5153 47.8604 37.3796C47.6996 37.2441 47.4992 37.1596 47.2591 37.1258C46.9947 37.0886 46.7567 37.1221 46.545 37.2263C46.3356 37.3288 46.1646 37.4769 46.0322 37.6706C45.8998 37.8642 45.8169 38.0802 45.7834 38.3184L45.7296 38.701C45.6838 39.0273 45.7012 39.3119 45.7818 39.5546C45.8646 39.7958 45.9989 39.9896 46.1849 40.1363C46.3711 40.281 46.5983 40.3722 46.8665 40.4099C47.0409 40.4345 47.2019 40.4322 47.3494 40.4032C47.4991 40.3726 47.6325 40.3149 47.7496 40.23C47.867 40.1432 47.9643 40.0287 48.0417 39.8866L48.6578 40.1568C48.5597 40.3649 48.4194 40.5402 48.2368 40.6829C48.0544 40.8236 47.8396 40.9235 47.5922 40.9824C47.3451 41.0395 47.0753 41.0475 46.7827 41.0064Z" fill="#5C5C5C"/>
<path d="M50.5808 37.0419L51.3679 38.9541L52.6514 37.3329L53.4166 37.4405L51.7176 39.4049L52.8094 41.7617L52.0442 41.6541L51.2445 39.8319L49.9736 41.3631L49.2084 41.2555L50.8849 39.2879L49.8156 36.9343L50.5808 37.0419Z" fill="#5C5C5C"/>
<path d="M55.3216 42.2066C54.9165 42.1497 54.5811 42.005 54.3154 41.7725C54.0497 41.5401 53.8617 41.245 53.7513 40.8871C53.641 40.5293 53.6161 40.1346 53.6767 39.7033C53.7384 39.2644 53.8734 38.8884 54.0819 38.5754C54.2925 38.2607 54.5565 38.0291 54.8738 37.8806C55.1933 37.7304 55.548 37.6827 55.9381 37.7376C56.242 37.7803 56.5079 37.875 56.7359 38.0218C56.9639 38.1686 57.1415 38.3542 57.2687 38.5787C57.3959 38.8031 57.4593 39.053 57.4589 39.3283L56.7949 39.235C56.772 39.031 56.6839 38.8407 56.5309 38.6643C56.3799 38.4863 56.1582 38.3767 55.8656 38.3355C55.6068 38.2992 55.3703 38.3348 55.1563 38.4424C54.9444 38.5484 54.767 38.7157 54.6239 38.9442C54.483 39.1711 54.3896 39.4477 54.3438 39.7741C54.2969 40.1079 54.3085 40.406 54.3788 40.6683C54.4509 40.9309 54.5739 41.1443 54.7479 41.3083C54.9237 41.4727 55.1429 41.5733 55.4054 41.6102C55.578 41.6344 55.7388 41.6264 55.8879 41.5862C56.037 41.546 56.1682 41.4764 56.2816 41.3776C56.3949 41.2788 56.4833 41.1535 56.5467 41.0018L57.2106 41.0951C57.1372 41.3449 57.0121 41.5616 56.8352 41.7452C56.6605 41.9272 56.4437 42.0612 56.1849 42.1472C55.9282 42.2316 55.6405 42.2514 55.3216 42.2066Z" fill="#5C5C5C"/>
<path d="M59.0333 39.9857L58.668 42.5852L58.0041 42.4918L58.8137 36.7303L59.4776 36.8236L59.1803 38.9392L59.2366 38.9471C59.3692 38.7381 59.546 38.5823 59.767 38.4794C59.9902 38.375 60.2715 38.3467 60.611 38.3944C60.9054 38.4358 61.155 38.5311 61.3597 38.6804C61.5647 38.8277 61.7111 39.031 61.799 39.2901C61.8891 39.5475 61.908 39.8619 61.8558 40.2333L61.47 42.979L60.8061 42.8857L61.1856 40.185C61.2338 39.8417 61.182 39.5638 61.0302 39.3512C60.8805 39.137 60.6491 39.0079 60.3359 38.9639C60.1183 38.9333 59.9168 38.9518 59.7313 39.0195C59.5477 39.0874 59.3939 39.2025 59.2697 39.3648C59.1474 39.5274 59.0686 39.7344 59.0333 39.9857Z" fill="#5C5C5C"/>
<path d="M63.942 43.4298C63.6681 43.3913 63.4269 43.3048 63.2182 43.1703C63.0098 43.0339 62.8538 42.858 62.7501 42.6426C62.6468 42.4253 62.6149 42.176 62.6544 41.8947C62.6892 41.6471 62.7662 41.4533 62.8853 41.3132C63.0047 41.1713 63.1522 41.0677 63.3277 41.0025C63.5033 40.9373 63.6926 40.8969 63.8956 40.8815C64.1007 40.8644 64.3054 40.8568 64.5098 40.8588C64.7771 40.8619 64.9935 40.8665 65.1591 40.8726C65.3268 40.877 65.4511 40.863 65.5322 40.8304C65.6152 40.798 65.6642 40.7284 65.6792 40.6215L65.6824 40.599C65.7214 40.3214 65.6757 40.0951 65.5454 39.9199C65.417 39.745 65.1999 39.6361 64.8942 39.5931C64.5772 39.5486 64.319 39.5831 64.1194 39.6965C63.9199 39.81 63.7725 39.9404 63.6772 40.0877L63.0786 39.774C63.2281 39.5273 63.4068 39.3439 63.6149 39.224C63.8252 39.1025 64.046 39.0283 64.2773 39.0015C64.5108 38.9731 64.7364 38.9742 64.9539 39.0048C65.0927 39.0243 65.2498 39.0636 65.4251 39.1227C65.6025 39.1801 65.7685 39.2714 65.9231 39.3964C66.0795 39.5216 66.1996 39.6944 66.2834 39.9147C66.3672 40.1349 66.385 40.4166 66.3368 40.7599L65.9367 43.6069L65.2728 43.5136L65.355 42.9284L65.3213 42.9237C65.2631 43.0111 65.174 43.1009 65.0539 43.193C64.9339 43.2852 64.7813 43.3565 64.5964 43.407C64.4114 43.4575 64.1933 43.4651 63.942 43.4298ZM64.1271 42.8476C64.3896 42.8845 64.6182 42.864 64.8127 42.7862C65.0091 42.7086 65.1648 42.5947 65.2796 42.4444C65.3963 42.2944 65.4673 42.1294 65.4926 41.9494L65.578 41.3417C65.5451 41.3715 65.4789 41.3938 65.3793 41.4085C65.2818 41.4215 65.1697 41.4297 65.043 41.4329C64.9185 41.4345 64.797 41.4347 64.6787 41.4333C64.5624 41.4304 64.468 41.4286 64.3954 41.4279C64.2197 41.4262 64.0533 41.4401 63.8961 41.4696C63.7411 41.4976 63.6106 41.5548 63.5048 41.6413C63.401 41.7262 63.3373 41.853 63.3136 42.0218C63.2812 42.2525 63.342 42.4389 63.4961 42.581C63.6523 42.7216 63.8626 42.8104 64.1271 42.8476Z" fill="#5C5C5C"/>
<path d="M68.1777 41.2711L67.8125 43.8705L67.1485 43.7772L67.7558 39.456L68.3972 39.5462L68.3023 40.2214L68.3586 40.2293C68.4907 40.0241 68.6692 39.8694 68.8943 39.7652C69.1195 39.6592 69.3953 39.6291 69.7217 39.675C70.0143 39.7161 70.2618 39.8121 70.4644 39.963C70.6672 40.112 70.8126 40.316 70.9005 40.5751C70.9887 40.8323 71.0069 41.1447 70.9553 41.5123L70.5695 44.2581L69.9055 44.1647L70.285 41.464C70.3327 41.1245 70.2818 40.8477 70.1321 40.6335C69.9827 40.4174 69.7542 40.2877 69.4466 40.2445C69.2346 40.2147 69.0388 40.234 68.8589 40.3025C68.681 40.3712 68.5318 40.487 68.4114 40.6498C68.2909 40.8127 68.2131 41.0198 68.1777 41.2711Z" fill="#5C5C5C"/>
<path d="M73.2865 46.3842C72.9658 46.3392 72.6959 46.2591 72.4768 46.1442C72.2575 46.0311 72.0803 45.8972 71.9452 45.7424C71.8117 45.5898 71.7105 45.4321 71.6416 45.2694L72.2226 44.9724C72.2716 45.0596 72.3349 45.1603 72.4126 45.2745C72.49 45.3906 72.6031 45.4973 72.752 45.5948C72.9025 45.6943 73.1081 45.7624 73.3688 45.7991C73.7176 45.8481 74.0174 45.8042 74.268 45.6673C74.5187 45.5304 74.6693 45.2819 74.7199 44.9218L74.8432 44.044L74.787 44.0361C74.7271 44.1081 74.644 44.1958 74.5377 44.2995C74.4334 44.4015 74.2915 44.4858 74.112 44.5523C73.9345 44.6173 73.7052 44.63 73.4238 44.5904C73.075 44.5414 72.7734 44.4149 72.519 44.2108C72.2665 44.007 72.0817 43.7362 71.9647 43.3985C71.8496 43.061 71.8236 42.6672 71.8869 42.217C71.9491 41.7744 72.0811 41.3999 72.2829 41.0936C72.4849 40.7854 72.7374 40.5608 73.0403 40.4197C73.3434 40.2768 73.6769 40.2309 74.0407 40.2821C74.3221 40.3216 74.5386 40.3999 74.6905 40.5169C74.8445 40.6322 74.9573 40.7552 75.0288 40.8857C75.1025 41.0147 75.1585 41.1201 75.1967 41.2019L75.2642 41.2114L75.3607 40.525L76.0021 40.6152L75.3775 45.0601C75.3253 45.4315 75.1985 45.7216 74.997 45.9304C74.7971 46.1414 74.548 46.2814 74.2495 46.3503C73.9526 46.4214 73.6316 46.4327 73.2865 46.3842ZM73.5977 44.0067C73.864 44.0441 74.0976 44.0148 74.2986 43.9187C74.4995 43.8226 74.6639 43.6669 74.7917 43.4516C74.9195 43.2362 75.0058 42.9691 75.0506 42.6502C75.0943 42.3389 75.086 42.0576 75.0257 41.8062C74.9654 41.5548 74.8529 41.3487 74.688 41.1878C74.5232 41.027 74.3058 40.9275 74.0357 40.8896C73.7544 40.85 73.5099 40.8883 73.3023 41.0045C73.0966 41.121 72.93 41.2926 72.8025 41.5195C72.6769 41.7467 72.5935 42.0065 72.5524 42.2991C72.5102 42.5992 72.5198 42.8712 72.5812 43.115C72.6447 43.3573 72.76 43.5571 72.9273 43.7145C73.0966 43.8703 73.3201 43.9677 73.5977 44.0067Z" fill="#5C5C5C"/>
<path d="M78.4093 45.4519C77.9929 45.3933 77.6467 45.2509 77.3706 45.0247C77.0966 44.7968 76.9013 44.5055 76.7848 44.1506C76.6704 43.7941 76.6443 43.3945 76.7065 42.9519C76.7687 42.5092 76.9042 42.1305 77.1129 41.8156C77.3238 41.499 77.5879 41.2665 77.9052 41.1179C78.2247 40.9677 78.5794 40.9201 78.9695 40.9749C79.1946 41.0065 79.4116 41.0753 79.6205 41.1811C79.8294 41.287 80.012 41.437 80.1683 41.6311C80.3249 41.8233 80.4373 42.0648 80.5054 42.3555C80.5736 42.6463 80.5794 42.9932 80.5227 43.3965L80.4832 43.6778L77.1523 43.2096L77.2329 42.6357L79.8886 43.009C79.9229 42.7652 79.9047 42.5408 79.834 42.3357C79.7653 42.131 79.6496 41.9608 79.487 41.8251C79.3262 41.6896 79.1258 41.605 78.8857 41.5713C78.6213 41.5341 78.3833 41.5676 78.1716 41.6717C77.9621 41.7743 77.7912 41.9224 77.6588 42.1161C77.5264 42.3097 77.4435 42.5257 77.41 42.7639L77.3562 43.1465C77.3104 43.4728 77.3278 43.7574 77.4084 44.0001C77.4912 44.2412 77.6255 44.4351 77.8115 44.5818C77.9977 44.7265 78.2249 44.8177 78.4931 44.8554C78.6675 44.88 78.8285 44.8777 78.976 44.8487C79.1257 44.8181 79.259 44.7604 79.3762 44.6755C79.4936 44.5887 79.5909 44.4742 79.6683 44.3321L80.2844 44.6023C80.1863 44.8104 80.046 44.9857 79.8633 45.1284C79.681 45.2691 79.4662 45.369 79.2188 45.4279C78.9717 45.485 78.7019 45.493 78.4093 45.4519Z" fill="#5C5C5C"/>
<path d="M83.4492 46.0685L84.0564 41.7473L84.6979 41.8375L84.603 42.5126L84.6593 42.5205C84.7817 42.3025 84.9522 42.1438 85.1708 42.0445C85.3897 41.9433 85.6398 41.9125 85.9211 41.952C86.2062 41.9921 86.4343 42.0901 86.6056 42.2462C86.779 42.4006 86.9029 42.6007 86.9774 42.8464L87.0224 42.8527C87.1644 42.6451 87.3553 42.4912 87.5951 42.391C87.8351 42.2889 88.1098 42.2597 88.4193 42.3032C88.8056 42.3575 89.1046 42.5229 89.3163 42.7993C89.5283 43.0739 89.5986 43.4654 89.5271 43.9736L89.1208 46.8657L88.4568 46.7724L88.8632 43.8803C88.908 43.5615 88.8528 43.3213 88.6976 43.1599C88.5425 42.9985 88.3467 42.9012 88.1104 42.8679C87.8066 42.8252 87.5583 42.884 87.3655 43.0444C87.173 43.2028 87.0572 43.4218 87.0179 43.7013L86.6226 46.5145L85.9474 46.4196L86.3633 43.4601C86.3978 43.2144 86.3459 43.0053 86.2076 42.8328C86.0695 42.6585 85.8748 42.5537 85.6235 42.5184C85.4509 42.4941 85.2832 42.5174 85.1202 42.5882C84.9592 42.6593 84.8212 42.7699 84.7064 42.9202C84.5937 43.0688 84.5224 43.2491 84.4927 43.4611L84.1132 46.1618L83.4492 46.0685Z" fill="#5C5C5C"/>
<path d="M92.1338 47.381C91.7174 47.3225 91.3711 47.1801 91.095 46.9538C90.821 46.726 90.6258 46.4346 90.5093 46.0797C90.3949 45.7232 90.3688 45.3236 90.431 44.881C90.4932 44.4384 90.6286 44.0596 90.8374 43.7447C91.0482 43.4282 91.3123 43.1956 91.6297 43.047C91.9491 42.8969 92.3039 42.8492 92.694 42.904C92.9191 42.9357 93.136 43.0044 93.3449 43.1103C93.5538 43.2161 93.7364 43.3661 93.8928 43.5602C94.0494 43.7525 94.1617 43.9939 94.2299 44.2847C94.2981 44.5754 94.3038 44.9224 94.2471 45.3256L94.2076 45.6069L90.8767 45.1387L90.9574 44.5648L93.6131 44.9381C93.6473 44.6943 93.6291 44.4699 93.5585 44.2649C93.4897 44.0601 93.374 43.8899 93.2114 43.7542C93.0507 43.6188 92.8503 43.5342 92.6102 43.5004C92.3458 43.4633 92.1077 43.4967 91.8961 43.6009C91.6866 43.7034 91.5157 43.8515 91.3833 44.0452C91.2508 44.2389 91.1679 44.4548 91.1344 44.693L91.0807 45.0756C91.0348 45.4019 91.0522 45.6865 91.1328 45.9292C91.2156 46.1704 91.35 46.3643 91.5359 46.5109C91.7222 46.6557 91.9494 46.7469 92.2176 46.7846C92.392 46.8091 92.553 46.8069 92.7005 46.7779C92.8501 46.7473 92.9835 46.6895 93.1006 46.6046C93.218 46.5178 93.3154 46.4034 93.3927 46.2612L94.0088 46.5314C93.9108 46.7395 93.7704 46.9149 93.5878 47.0575C93.4055 47.1983 93.1906 47.2981 92.9433 47.3571C92.6962 47.4141 92.4263 47.4221 92.1338 47.381Z" fill="#5C5C5C"/>
<path d="M98.4776 44.7612L97.8575 44.8462C97.834 44.7415 97.7922 44.6372 97.7322 44.5331C97.6744 44.4274 97.588 44.335 97.4729 44.2557C97.3578 44.1764 97.2036 44.1232 97.0105 44.096C96.746 44.0588 96.5171 44.0888 96.3237 44.1859C96.1324 44.2815 96.0237 44.422 95.9976 44.6077C95.9744 44.7728 96.0161 44.9116 96.1227 45.0241C96.2293 45.1366 96.4056 45.2427 96.6517 45.3423L97.271 45.59C97.6442 45.7381 97.9119 45.922 98.0742 46.1418C98.2368 46.3598 98.2968 46.6197 98.2544 46.9217C98.2196 47.1692 98.1172 47.3805 97.9473 47.5555C97.7792 47.7308 97.5607 47.8569 97.2917 47.9339C97.0227 48.0108 96.7203 48.0257 96.3846 47.9785C95.9438 47.9165 95.5925 47.7696 95.3306 47.5377C95.0686 47.3058 94.925 47.0007 94.8998 46.6223L95.5521 46.5533C95.5794 46.7943 95.6684 46.9847 95.8189 47.1244C95.9714 47.2644 96.1836 47.3535 96.4556 47.3918C96.765 47.4353 97.0199 47.4041 97.2203 47.2984C97.4228 47.1911 97.5371 47.0446 97.5632 46.8589C97.5843 46.7089 97.5494 46.5758 97.4586 46.4598C97.3681 46.3419 97.2176 46.2423 97.0072 46.1611L96.3107 45.8911C95.9281 45.7417 95.6579 45.5555 95.4999 45.3324C95.344 45.1078 95.287 44.8464 95.3289 44.5482C95.3632 44.3043 95.4619 44.0983 95.6252 43.93C95.7904 43.7619 95.9995 43.6412 96.2527 43.5678C96.5078 43.4946 96.7873 43.4794 97.0911 43.5221C97.5187 43.5822 97.8413 43.7232 98.0587 43.945C98.2781 44.1671 98.4177 44.4392 98.4776 44.7612Z" fill="#5C5C5C"/>
<path d="M102.617 45.343L101.997 45.428C101.973 45.3233 101.931 45.219 101.871 45.1149C101.813 45.0092 101.727 44.9167 101.612 44.8375C101.497 44.7582 101.343 44.7049 101.149 44.6778C100.885 44.6406 100.656 44.6706 100.463 44.7677C100.271 44.8632 100.163 45.0038 100.137 45.1895C100.113 45.3546 100.155 45.4933 100.262 45.6059C100.368 45.7184 100.545 45.8245 100.791 45.9241L101.41 46.1718C101.783 46.3199 102.051 46.5038 102.213 46.7236C102.376 46.9415 102.436 47.2015 102.393 47.5034C102.359 47.751 102.256 47.9623 102.086 48.1373C101.918 48.3126 101.7 48.4387 101.431 48.5157C101.162 48.5926 100.859 48.6075 100.524 48.5603C100.083 48.4983 99.7315 48.3514 99.4695 48.1195C99.2076 47.8876 99.064 47.5824 99.0388 47.204L99.6911 47.1351C99.7184 47.3761 99.8074 47.5664 99.9579 47.7062C100.11 47.8462 100.323 47.9353 100.595 47.9735C100.904 48.017 101.159 47.9859 101.359 47.8802C101.562 47.7729 101.676 47.6264 101.702 47.4407C101.723 47.2907 101.688 47.1576 101.598 47.0416C101.507 46.9237 101.357 46.8241 101.146 46.7429L100.45 46.4729C100.067 46.3235 99.7969 46.1372 99.6389 45.9142C99.483 45.6896 99.426 45.4282 99.4679 45.1299C99.5022 44.8861 99.6009 44.6801 99.7642 44.5118C99.9294 44.3437 100.139 44.223 100.392 44.1496C100.647 44.0764 100.926 44.0612 101.23 44.1039C101.658 44.164 101.98 44.305 102.198 44.5268C102.417 44.7489 102.557 45.0209 102.617 45.343Z" fill="#5C5C5C"/>
<path d="M104.481 49.128C104.207 49.0895 103.966 49.003 103.757 48.8685C103.549 48.7321 103.393 48.5562 103.289 48.3408C103.186 48.1236 103.154 47.8743 103.193 47.5929C103.228 47.3454 103.305 47.1515 103.424 47.0115C103.544 46.8695 103.691 46.7659 103.867 46.7007C104.042 46.6355 104.232 46.5952 104.435 46.5797C104.64 46.5626 104.844 46.5551 105.049 46.557C105.316 46.5602 105.533 46.5648 105.698 46.5708C105.866 46.5753 105.99 46.5612 106.071 46.5286C106.154 46.4963 106.203 46.4267 106.218 46.3198L106.221 46.2972C106.26 46.0197 106.215 45.7933 106.084 45.6182C105.956 45.4433 105.739 45.3344 105.433 45.2914C105.116 45.2468 104.858 45.2813 104.658 45.3948C104.459 45.5083 104.311 45.6386 104.216 45.7859L103.618 45.4723C103.767 45.2255 103.946 45.0422 104.154 44.9222C104.364 44.8007 104.585 44.7265 104.816 44.6998C105.05 44.6714 105.275 44.6725 105.493 44.7031C105.632 44.7226 105.789 44.7619 105.964 44.8209C106.141 44.8784 106.307 44.9696 106.462 45.0946C106.618 45.2199 106.739 45.3926 106.822 45.6129C106.906 45.8331 106.924 46.1149 106.876 46.4581L106.476 49.3051L105.812 49.2118L105.894 48.6266L105.86 48.6219C105.802 48.7093 105.713 48.7991 105.593 48.8913C105.473 48.9834 105.32 49.0547 105.135 49.1052C104.95 49.1557 104.732 49.1633 104.481 49.128ZM104.666 48.5458C104.929 48.5827 105.157 48.5623 105.352 48.4844C105.548 48.4068 105.704 48.2929 105.819 48.1427C105.935 47.9927 106.006 47.8277 106.032 47.6476L106.117 47.04C106.084 47.0698 106.018 47.092 105.918 47.1067C105.821 47.1198 105.709 47.1279 105.582 47.1312C105.457 47.1328 105.336 47.1329 105.218 47.1316C105.101 47.1286 105.007 47.1268 104.934 47.1262C104.759 47.1244 104.592 47.1383 104.435 47.1679C104.28 47.1958 104.15 47.253 104.044 47.3395C103.94 47.4244 103.876 47.5512 103.853 47.72C103.82 47.9507 103.881 48.1371 104.035 48.2793C104.191 48.4198 104.402 48.5087 104.666 48.5458Z" fill="#5C5C5C"/>
<path d="M109.191 51.4311C108.871 51.386 108.601 51.306 108.382 51.191C108.162 51.078 107.985 50.9441 107.85 50.7893C107.717 50.6366 107.615 50.479 107.546 50.3163L108.127 50.0193C108.176 50.1065 108.24 50.2072 108.317 50.3214C108.395 50.4374 108.508 50.5442 108.657 50.6416C108.807 50.7412 109.013 50.8093 109.274 50.8459C109.622 50.895 109.922 50.851 110.173 50.7141C110.424 50.5772 110.574 50.3287 110.625 49.9686L110.748 49.0909L110.692 49.083C110.632 49.1549 110.549 49.2427 110.443 49.3463C110.338 49.4483 110.196 49.5326 110.017 49.5992C109.839 49.6641 109.61 49.6768 109.329 49.6373C108.98 49.5883 108.678 49.4617 108.424 49.2576C108.171 49.0538 107.987 48.7831 107.87 48.4453C107.754 48.1078 107.728 47.714 107.792 47.2639C107.854 46.8213 107.986 46.4468 108.188 46.1405C108.39 45.8322 108.642 45.6076 108.945 45.4666C109.248 45.3237 109.582 45.2778 109.946 45.3289C110.227 45.3685 110.443 45.4467 110.595 45.5637C110.749 45.6791 110.862 45.802 110.934 45.9326C111.007 46.0615 111.063 46.1669 111.102 46.2488L111.169 46.2583L111.266 45.5719L111.907 45.662L111.282 50.107C111.23 50.4783 111.103 50.7684 110.902 50.9773C110.702 51.1882 110.453 51.3282 110.154 51.3972C109.857 51.4683 109.536 51.4796 109.191 51.4311ZM109.503 49.0535C109.769 49.091 110.002 49.0616 110.203 48.9656C110.404 48.8695 110.569 48.7138 110.697 48.4984C110.824 48.283 110.911 48.0159 110.955 47.6971C110.999 47.3858 110.991 47.1044 110.931 46.853C110.87 46.6017 110.758 46.3956 110.593 46.2347C110.428 46.0738 110.211 45.9744 109.941 45.9364C109.659 45.8969 109.415 45.9352 109.207 46.0514C109.001 46.1678 108.835 46.3395 108.707 46.5664C108.582 46.7935 108.498 47.0534 108.457 47.346C108.415 47.646 108.425 47.918 108.486 48.1619C108.55 48.4041 108.665 48.604 108.832 48.7613C109.001 48.9171 109.225 49.0145 109.503 49.0535Z" fill="#5C5C5C"/>
<path d="M114.314 50.4987C113.898 50.4402 113.552 50.2978 113.275 50.0716C113.001 49.8437 112.806 49.5523 112.69 49.1974C112.575 48.8409 112.549 48.4413 112.611 47.9987C112.674 47.5561 112.809 47.1773 113.018 46.8624C113.229 46.5459 113.493 46.3133 113.81 46.1648C114.13 46.0146 114.484 45.9669 114.874 46.0217C115.099 46.0534 115.316 46.1221 115.525 46.228C115.734 46.3339 115.917 46.4838 116.073 46.6779C116.23 46.8702 116.342 47.1117 116.41 47.4024C116.478 47.6931 116.484 48.0401 116.428 48.4433L116.388 48.7247L113.057 48.2565L113.138 47.6825L115.793 48.0558C115.828 47.812 115.81 47.5876 115.739 47.3826C115.67 47.1779 115.554 47.0076 115.392 46.8719C115.231 46.7365 115.031 46.6519 114.791 46.6182C114.526 46.581 114.288 46.6145 114.076 46.7186C113.867 46.8211 113.696 46.9692 113.564 47.1629C113.431 47.3566 113.348 47.5725 113.315 47.8107L113.261 48.1933C113.215 48.5197 113.233 48.8042 113.313 49.047C113.396 49.2881 113.53 49.482 113.716 49.6286C113.903 49.7734 114.13 49.8646 114.398 49.9023C114.572 49.9268 114.733 49.9246 114.881 49.8956C115.031 49.865 115.164 49.8072 115.281 49.7223C115.398 49.6355 115.496 49.5211 115.573 49.379L116.189 49.6492C116.091 49.8572 115.951 50.0326 115.768 50.1752C115.586 50.316 115.371 50.4158 115.124 50.4748C114.877 50.5319 114.607 50.5398 114.314 50.4987Z" fill="#5C5C5C"/>
<path d="M120.658 47.879L120.038 47.9639C120.014 47.8592 119.973 47.7549 119.913 47.6508C119.855 47.5452 119.768 47.4527 119.653 47.3734C119.538 47.2941 119.384 47.2409 119.191 47.2137C118.926 47.1765 118.697 47.2065 118.504 47.3037C118.313 47.3992 118.204 47.5398 118.178 47.7254C118.155 47.8905 118.196 48.0293 118.303 48.1418C118.41 48.2543 118.586 48.3604 118.832 48.46L119.451 48.7077C119.825 48.8558 120.092 49.0397 120.255 49.2595C120.417 49.4775 120.477 49.7374 120.435 50.0394C120.4 50.2869 120.298 50.4982 120.128 50.6732C119.96 50.8485 119.741 50.9746 119.472 51.0516C119.203 51.1285 118.901 51.1434 118.565 51.0962C118.124 51.0343 117.773 50.8873 117.511 50.6554C117.249 50.4235 117.105 50.1184 117.08 49.74L117.732 49.671C117.76 49.912 117.849 50.1024 117.999 50.2421C118.152 50.3821 118.364 50.4712 118.636 50.5095C118.945 50.553 119.2 50.5219 119.401 50.4161C119.603 50.3088 119.718 50.1623 119.744 49.9766C119.765 49.8266 119.73 49.6936 119.639 49.5775C119.548 49.4596 119.398 49.36 119.188 49.2788L118.491 49.0088C118.109 48.8594 117.838 48.6732 117.68 48.4501C117.524 48.2255 117.467 47.9641 117.509 47.6659C117.544 47.4221 117.642 47.216 117.806 47.0477C117.971 46.8797 118.18 46.7589 118.433 46.6855C118.688 46.6123 118.968 46.5971 119.272 46.6398C119.699 46.6999 120.022 46.8409 120.239 47.0627C120.458 47.2848 120.598 47.5569 120.658 47.879Z" fill="#5C5C5C"/>
</svg>
