<svg width="59" height="56" viewBox="0 0 59 56" fill="none" xmlns="http://www.w3.org/2000/svg">
<path d="M22.168 45.4162C20.4977 44.5693 18.4571 45.2368 17.6103 46.9071C16.7634 48.5774 17.4309 50.618 19.1012 51.4649C20.7715 52.3118 22.812 51.6443 23.6589 49.974C24.5058 48.3037 23.8383 46.2631 22.168 45.4162Z" fill="#3897FF"/>
<path d="M20.0301 13.4724L20.7252 19.3207L25.4025 22.8998L19.5541 23.5949L15.9751 28.2722L15.2797 22.424L10.6027 18.8448L16.451 18.1497L20.0301 13.4724Z" fill="#FFCC00"/>
<path d="M45.922 20.286L49.7247 24.7833L55.5998 25.193L51.1023 28.9957L50.6929 34.8708L46.8902 30.3736L41.015 29.9639L45.5121 26.1613L45.922 20.286Z" fill="#00A98F"/>
</svg>
