<svg width="245" height="182" viewBox="0 0 245 182" fill="none" xmlns="http://www.w3.org/2000/svg">
<rect width="16.7772" height="16.7772" rx="3.71835" transform="matrix(0.71458 -0.699554 0.71458 0.699554 0 11.7366)" fill="url(#paint0_radial_695_574754)" fill-opacity="0.2"/>
<rect width="16.7772" height="16.7772" rx="3.71835" transform="matrix(0.71458 -0.699554 0.71458 0.699554 31.5781 11.7366)" fill="url(#paint1_radial_695_574754)" fill-opacity="0.2"/>
<rect width="16.7772" height="16.7772" rx="3.71835" transform="matrix(0.71458 -0.699554 0.71458 0.699554 63.1462 11.7366)" fill="url(#paint2_radial_695_574754)" fill-opacity="0.2"/>
<rect width="16.7772" height="16.7772" rx="3.71835" transform="matrix(0.71458 -0.699554 0.71458 0.699554 94.7249 11.7366)" fill="url(#paint3_radial_695_574754)" fill-opacity="0.2"/>
<rect width="16.7772" height="16.7772" rx="3.71835" transform="matrix(0.71458 -0.699554 0.71458 0.699554 126.298 11.7366)" fill="url(#paint4_radial_695_574754)" fill-opacity="0.2"/>
<rect width="16.7772" height="16.7772" rx="3.71835" transform="matrix(0.71458 -0.699554 0.71458 0.699554 157.872 11.7366)" fill="url(#paint5_radial_695_574754)" fill-opacity="0.2"/>
<rect width="16.7772" height="16.7772" rx="3.71835" transform="matrix(0.71458 -0.699554 0.71458 0.699554 189.449 11.7366)" fill="url(#paint6_radial_695_574754)" fill-opacity="0.2"/>
<rect width="16.7772" height="16.7772" rx="3.71835" transform="matrix(0.71458 -0.699554 0.71458 0.699554 221.023 11.7366)" fill="url(#paint7_radial_695_574754)" fill-opacity="0.2"/>
<rect width="16.7772" height="16.7772" rx="3.71835" transform="matrix(0.71458 -0.699554 0.71458 0.699554 0 74.9475)" fill="url(#paint8_radial_695_574754)" fill-opacity="0.2"/>
<rect width="16.7772" height="16.7772" rx="3.71835" transform="matrix(0.71458 -0.699554 0.71458 0.699554 31.5786 74.9475)" fill="url(#paint9_radial_695_574754)" fill-opacity="0.2"/>
<rect width="16.7772" height="16.7772" rx="3.71835" transform="matrix(0.71458 -0.699554 0.71458 0.699554 63.1467 74.9475)" fill="url(#paint10_radial_695_574754)" fill-opacity="0.2"/>
<rect width="16.7772" height="16.7772" rx="3.71835" transform="matrix(0.71458 -0.699554 0.71458 0.699554 94.7249 74.9475)" fill="url(#paint11_radial_695_574754)" fill-opacity="0.2"/>
<rect width="16.7772" height="16.7772" rx="3.71835" transform="matrix(0.71458 -0.699554 0.71458 0.699554 126.298 74.9475)" fill="url(#paint12_radial_695_574754)" fill-opacity="0.2"/>
<rect width="16.7772" height="16.7772" rx="3.71835" transform="matrix(0.71458 -0.699554 0.71458 0.699554 157.872 74.9475)" fill="url(#paint13_radial_695_574754)" fill-opacity="0.2"/>
<rect width="16.7772" height="16.7772" rx="3.71835" transform="matrix(0.71458 -0.699554 0.71458 0.699554 189.449 74.9475)" fill="url(#paint14_radial_695_574754)" fill-opacity="0.2"/>
<rect width="16.7772" height="16.7772" rx="3.71835" transform="matrix(0.71458 -0.699554 0.71458 0.699554 221.023 74.9475)" fill="url(#paint15_radial_695_574754)" fill-opacity="0.2"/>
<rect width="16.7772" height="16.7772" rx="3.71835" transform="matrix(0.71458 -0.699554 0.71458 0.699554 0 138.159)" fill="url(#paint16_radial_695_574754)" fill-opacity="0.2"/>
<rect width="16.7772" height="16.7772" rx="3.71835" transform="matrix(0.71458 -0.699554 0.71458 0.699554 31.5786 138.159)" fill="url(#paint17_radial_695_574754)" fill-opacity="0.2"/>
<rect width="16.7772" height="16.7772" rx="3.71835" transform="matrix(0.71458 -0.699554 0.71458 0.699554 63.1467 138.159)" fill="url(#paint18_radial_695_574754)" fill-opacity="0.2"/>
<rect width="16.7772" height="16.7772" rx="3.71835" transform="matrix(0.71458 -0.699554 0.71458 0.699554 94.7249 138.159)" fill="url(#paint19_radial_695_574754)" fill-opacity="0.2"/>
<rect width="16.7772" height="16.7772" rx="3.71835" transform="matrix(0.71458 -0.699554 0.71458 0.699554 126.298 138.159)" fill="url(#paint20_radial_695_574754)" fill-opacity="0.2"/>
<rect width="16.7772" height="16.7772" rx="3.71835" transform="matrix(0.71458 -0.699554 0.71458 0.699554 157.872 138.159)" fill="url(#paint21_radial_695_574754)" fill-opacity="0.2"/>
<rect width="16.7772" height="16.7772" rx="3.71835" transform="matrix(0.71458 -0.699554 0.71458 0.699554 189.449 138.159)" fill="url(#paint22_radial_695_574754)" fill-opacity="0.2"/>
<rect width="16.7772" height="16.7772" rx="3.71835" transform="matrix(0.71458 -0.699554 0.71458 0.699554 221.023 138.159)" fill="url(#paint23_radial_695_574754)" fill-opacity="0.2"/>
<rect width="16.7772" height="16.7772" rx="3.71835" transform="matrix(0.71458 -0.699554 0.71458 0.699554 0 43.3435)" fill="url(#paint24_radial_695_574754)" fill-opacity="0.2"/>
<rect width="16.7772" height="16.7772" rx="3.71835" transform="matrix(0.71458 -0.699554 0.71458 0.699554 31.5781 43.3435)" fill="url(#paint25_radial_695_574754)" fill-opacity="0.2"/>
<rect width="16.7772" height="16.7772" rx="3.71835" transform="matrix(0.71458 -0.699554 0.71458 0.699554 63.1462 43.3435)" fill="url(#paint26_radial_695_574754)" fill-opacity="0.2"/>
<rect width="16.7772" height="16.7772" rx="3.71835" transform="matrix(0.71458 -0.699554 0.71458 0.699554 94.7249 43.3435)" fill="url(#paint27_radial_695_574754)" fill-opacity="0.2"/>
<rect width="16.7772" height="16.7772" rx="3.71835" transform="matrix(0.71458 -0.699554 0.71458 0.699554 126.298 43.3435)" fill="url(#paint28_radial_695_574754)" fill-opacity="0.2"/>
<rect width="16.7772" height="16.7772" rx="3.71835" transform="matrix(0.71458 -0.699554 0.71458 0.699554 157.872 43.3435)" fill="url(#paint29_radial_695_574754)" fill-opacity="0.2"/>
<rect width="16.7772" height="16.7772" rx="3.71835" transform="matrix(0.71458 -0.699554 0.71458 0.699554 189.449 43.3435)" fill="url(#paint30_radial_695_574754)" fill-opacity="0.2"/>
<rect width="16.7772" height="16.7772" rx="3.71835" transform="matrix(0.71458 -0.699554 0.71458 0.699554 221.023 43.3435)" fill="url(#paint31_radial_695_574754)" fill-opacity="0.2"/>
<rect width="16.7772" height="16.7772" rx="3.71835" transform="matrix(0.71458 -0.699554 0.71458 0.699554 0 106.553)" fill="url(#paint32_radial_695_574754)" fill-opacity="0.2"/>
<rect width="16.7772" height="16.7772" rx="3.71835" transform="matrix(0.71458 -0.699554 0.71458 0.699554 31.5786 106.553)" fill="url(#paint33_radial_695_574754)" fill-opacity="0.2"/>
<rect width="16.7772" height="16.7772" rx="3.71835" transform="matrix(0.71458 -0.699554 0.71458 0.699554 63.1467 106.553)" fill="url(#paint34_radial_695_574754)" fill-opacity="0.2"/>
<rect width="16.7772" height="16.7772" rx="3.71835" transform="matrix(0.71458 -0.699554 0.71458 0.699554 94.7249 106.553)" fill="url(#paint35_radial_695_574754)" fill-opacity="0.2"/>
<rect width="16.7772" height="16.7772" rx="3.71835" transform="matrix(0.71458 -0.699554 0.71458 0.699554 126.298 106.553)" fill="url(#paint36_radial_695_574754)" fill-opacity="0.2"/>
<rect width="16.7772" height="16.7772" rx="3.71835" transform="matrix(0.71458 -0.699554 0.71458 0.699554 157.872 106.553)" fill="url(#paint37_radial_695_574754)" fill-opacity="0.2"/>
<rect width="16.7772" height="16.7772" rx="3.71835" transform="matrix(0.71458 -0.699554 0.71458 0.699554 189.449 106.553)" fill="url(#paint38_radial_695_574754)" fill-opacity="0.2"/>
<rect width="16.7772" height="16.7772" rx="3.71835" transform="matrix(0.71458 -0.699554 0.71458 0.699554 221.023 106.553)" fill="url(#paint39_radial_695_574754)" fill-opacity="0.2"/>
<rect width="16.7772" height="16.7772" rx="3.71835" transform="matrix(0.71458 -0.699554 0.71458 0.699554 0 169.765)" fill="url(#paint40_radial_695_574754)" fill-opacity="0.2"/>
<rect width="16.7772" height="16.7772" rx="3.71835" transform="matrix(0.71458 -0.699554 0.71458 0.699554 31.5786 169.765)" fill="url(#paint41_radial_695_574754)" fill-opacity="0.2"/>
<rect width="16.7772" height="16.7772" rx="3.71835" transform="matrix(0.71458 -0.699554 0.71458 0.699554 63.1467 169.765)" fill="url(#paint42_radial_695_574754)" fill-opacity="0.2"/>
<rect width="16.7772" height="16.7772" rx="3.71835" transform="matrix(0.71458 -0.699554 0.71458 0.699554 94.7249 169.765)" fill="url(#paint43_radial_695_574754)" fill-opacity="0.2"/>
<rect width="16.7772" height="16.7772" rx="3.71835" transform="matrix(0.71458 -0.699554 0.71458 0.699554 126.298 169.765)" fill="url(#paint44_radial_695_574754)" fill-opacity="0.2"/>
<rect width="16.7772" height="16.7772" rx="3.71835" transform="matrix(0.71458 -0.699554 0.71458 0.699554 157.872 169.765)" fill="url(#paint45_radial_695_574754)" fill-opacity="0.2"/>
<rect width="16.7772" height="16.7772" rx="3.71835" transform="matrix(0.71458 -0.699554 0.71458 0.699554 189.449 169.765)" fill="url(#paint46_radial_695_574754)" fill-opacity="0.2"/>
<rect width="16.7772" height="16.7772" rx="3.71835" transform="matrix(0.71458 -0.699554 0.71458 0.699554 221.023 169.765)" fill="url(#paint47_radial_695_574754)" fill-opacity="0.2"/>
<defs>
<radialGradient id="paint0_radial_695_574754" cx="0" cy="0" r="1" gradientUnits="userSpaceOnUse" gradientTransform="translate(8.38859 8.38859) rotate(85.3036) scale(16.0785)">
<stop stop-color="white"/>
<stop offset="1" stop-color="#FAFAFA"/>
</radialGradient>
<radialGradient id="paint1_radial_695_574754" cx="0" cy="0" r="1" gradientUnits="userSpaceOnUse" gradientTransform="translate(8.38859 8.38859) rotate(85.3036) scale(16.0785)">
<stop stop-color="white"/>
<stop offset="1" stop-color="#FAFAFA"/>
</radialGradient>
<radialGradient id="paint2_radial_695_574754" cx="0" cy="0" r="1" gradientUnits="userSpaceOnUse" gradientTransform="translate(8.38859 8.38859) rotate(85.3036) scale(16.0785)">
<stop stop-color="white"/>
<stop offset="1" stop-color="#FAFAFA"/>
</radialGradient>
<radialGradient id="paint3_radial_695_574754" cx="0" cy="0" r="1" gradientUnits="userSpaceOnUse" gradientTransform="translate(8.38859 8.38859) rotate(85.3036) scale(16.0785)">
<stop stop-color="white"/>
<stop offset="1" stop-color="#FAFAFA"/>
</radialGradient>
<radialGradient id="paint4_radial_695_574754" cx="0" cy="0" r="1" gradientUnits="userSpaceOnUse" gradientTransform="translate(8.38859 8.38859) rotate(85.3036) scale(16.0785)">
<stop stop-color="white"/>
<stop offset="1" stop-color="#FAFAFA"/>
</radialGradient>
<radialGradient id="paint5_radial_695_574754" cx="0" cy="0" r="1" gradientUnits="userSpaceOnUse" gradientTransform="translate(8.38859 8.38859) rotate(85.3036) scale(16.0785)">
<stop stop-color="white"/>
<stop offset="1" stop-color="#FAFAFA"/>
</radialGradient>
<radialGradient id="paint6_radial_695_574754" cx="0" cy="0" r="1" gradientUnits="userSpaceOnUse" gradientTransform="translate(8.38859 8.38859) rotate(85.3036) scale(16.0785)">
<stop stop-color="white"/>
<stop offset="1" stop-color="#FAFAFA"/>
</radialGradient>
<radialGradient id="paint7_radial_695_574754" cx="0" cy="0" r="1" gradientUnits="userSpaceOnUse" gradientTransform="translate(8.38859 8.38859) rotate(85.3036) scale(16.0785)">
<stop stop-color="white"/>
<stop offset="1" stop-color="#FAFAFA"/>
</radialGradient>
<radialGradient id="paint8_radial_695_574754" cx="0" cy="0" r="1" gradientUnits="userSpaceOnUse" gradientTransform="translate(8.38859 8.38859) rotate(85.3036) scale(16.0785)">
<stop stop-color="white"/>
<stop offset="1" stop-color="#FAFAFA"/>
</radialGradient>
<radialGradient id="paint9_radial_695_574754" cx="0" cy="0" r="1" gradientUnits="userSpaceOnUse" gradientTransform="translate(8.38859 8.38859) rotate(85.3036) scale(16.0785)">
<stop stop-color="white"/>
<stop offset="1" stop-color="#FAFAFA"/>
</radialGradient>
<radialGradient id="paint10_radial_695_574754" cx="0" cy="0" r="1" gradientUnits="userSpaceOnUse" gradientTransform="translate(8.38859 8.38859) rotate(85.3036) scale(16.0785)">
<stop stop-color="white"/>
<stop offset="1" stop-color="#FAFAFA"/>
</radialGradient>
<radialGradient id="paint11_radial_695_574754" cx="0" cy="0" r="1" gradientUnits="userSpaceOnUse" gradientTransform="translate(8.38859 8.38859) rotate(85.3036) scale(16.0785)">
<stop stop-color="white"/>
<stop offset="1" stop-color="#FAFAFA"/>
</radialGradient>
<radialGradient id="paint12_radial_695_574754" cx="0" cy="0" r="1" gradientUnits="userSpaceOnUse" gradientTransform="translate(8.38859 8.38859) rotate(85.3036) scale(16.0785)">
<stop stop-color="white"/>
<stop offset="1" stop-color="#FAFAFA"/>
</radialGradient>
<radialGradient id="paint13_radial_695_574754" cx="0" cy="0" r="1" gradientUnits="userSpaceOnUse" gradientTransform="translate(8.38859 8.38859) rotate(85.3036) scale(16.0785)">
<stop stop-color="white"/>
<stop offset="1" stop-color="#FAFAFA"/>
</radialGradient>
<radialGradient id="paint14_radial_695_574754" cx="0" cy="0" r="1" gradientUnits="userSpaceOnUse" gradientTransform="translate(8.38859 8.38859) rotate(85.3036) scale(16.0785)">
<stop stop-color="white"/>
<stop offset="1" stop-color="#FAFAFA"/>
</radialGradient>
<radialGradient id="paint15_radial_695_574754" cx="0" cy="0" r="1" gradientUnits="userSpaceOnUse" gradientTransform="translate(8.38859 8.38859) rotate(85.3036) scale(16.0785)">
<stop stop-color="white"/>
<stop offset="1" stop-color="#FAFAFA"/>
</radialGradient>
<radialGradient id="paint16_radial_695_574754" cx="0" cy="0" r="1" gradientUnits="userSpaceOnUse" gradientTransform="translate(8.38859 8.38859) rotate(85.3036) scale(16.0785)">
<stop stop-color="white"/>
<stop offset="1" stop-color="#FAFAFA"/>
</radialGradient>
<radialGradient id="paint17_radial_695_574754" cx="0" cy="0" r="1" gradientUnits="userSpaceOnUse" gradientTransform="translate(8.38859 8.38859) rotate(85.3036) scale(16.0785)">
<stop stop-color="white"/>
<stop offset="1" stop-color="#FAFAFA"/>
</radialGradient>
<radialGradient id="paint18_radial_695_574754" cx="0" cy="0" r="1" gradientUnits="userSpaceOnUse" gradientTransform="translate(8.38859 8.38859) rotate(85.3036) scale(16.0785)">
<stop stop-color="white"/>
<stop offset="1" stop-color="#FAFAFA"/>
</radialGradient>
<radialGradient id="paint19_radial_695_574754" cx="0" cy="0" r="1" gradientUnits="userSpaceOnUse" gradientTransform="translate(8.38859 8.38859) rotate(85.3036) scale(16.0785)">
<stop stop-color="white"/>
<stop offset="1" stop-color="#FAFAFA"/>
</radialGradient>
<radialGradient id="paint20_radial_695_574754" cx="0" cy="0" r="1" gradientUnits="userSpaceOnUse" gradientTransform="translate(8.38859 8.38859) rotate(85.3036) scale(16.0785)">
<stop stop-color="white"/>
<stop offset="1" stop-color="#FAFAFA"/>
</radialGradient>
<radialGradient id="paint21_radial_695_574754" cx="0" cy="0" r="1" gradientUnits="userSpaceOnUse" gradientTransform="translate(8.38859 8.38859) rotate(85.3036) scale(16.0785)">
<stop stop-color="white"/>
<stop offset="1" stop-color="#FAFAFA"/>
</radialGradient>
<radialGradient id="paint22_radial_695_574754" cx="0" cy="0" r="1" gradientUnits="userSpaceOnUse" gradientTransform="translate(8.38859 8.38859) rotate(85.3036) scale(16.0785)">
<stop stop-color="white"/>
<stop offset="1" stop-color="#FAFAFA"/>
</radialGradient>
<radialGradient id="paint23_radial_695_574754" cx="0" cy="0" r="1" gradientUnits="userSpaceOnUse" gradientTransform="translate(8.38859 8.38859) rotate(85.3036) scale(16.0785)">
<stop stop-color="white"/>
<stop offset="1" stop-color="#FAFAFA"/>
</radialGradient>
<radialGradient id="paint24_radial_695_574754" cx="0" cy="0" r="1" gradientUnits="userSpaceOnUse" gradientTransform="translate(8.38859 8.38859) rotate(85.3036) scale(16.0785)">
<stop stop-color="white"/>
<stop offset="1" stop-color="#FAFAFA"/>
</radialGradient>
<radialGradient id="paint25_radial_695_574754" cx="0" cy="0" r="1" gradientUnits="userSpaceOnUse" gradientTransform="translate(8.38859 8.38859) rotate(85.3036) scale(16.0785)">
<stop stop-color="white"/>
<stop offset="1" stop-color="#FAFAFA"/>
</radialGradient>
<radialGradient id="paint26_radial_695_574754" cx="0" cy="0" r="1" gradientUnits="userSpaceOnUse" gradientTransform="translate(8.38859 8.38859) rotate(85.3036) scale(16.0785)">
<stop stop-color="white"/>
<stop offset="1" stop-color="#FAFAFA"/>
</radialGradient>
<radialGradient id="paint27_radial_695_574754" cx="0" cy="0" r="1" gradientUnits="userSpaceOnUse" gradientTransform="translate(8.38859 8.38859) rotate(85.3036) scale(16.0785)">
<stop stop-color="white"/>
<stop offset="1" stop-color="#FAFAFA"/>
</radialGradient>
<radialGradient id="paint28_radial_695_574754" cx="0" cy="0" r="1" gradientUnits="userSpaceOnUse" gradientTransform="translate(8.38859 8.38859) rotate(85.3036) scale(16.0785)">
<stop stop-color="white"/>
<stop offset="1" stop-color="#FAFAFA"/>
</radialGradient>
<radialGradient id="paint29_radial_695_574754" cx="0" cy="0" r="1" gradientUnits="userSpaceOnUse" gradientTransform="translate(8.38859 8.38859) rotate(85.3036) scale(16.0785)">
<stop stop-color="white"/>
<stop offset="1" stop-color="#FAFAFA"/>
</radialGradient>
<radialGradient id="paint30_radial_695_574754" cx="0" cy="0" r="1" gradientUnits="userSpaceOnUse" gradientTransform="translate(8.38859 8.38859) rotate(85.3036) scale(16.0785)">
<stop stop-color="white"/>
<stop offset="1" stop-color="#FAFAFA"/>
</radialGradient>
<radialGradient id="paint31_radial_695_574754" cx="0" cy="0" r="1" gradientUnits="userSpaceOnUse" gradientTransform="translate(8.38859 8.38859) rotate(85.3036) scale(16.0785)">
<stop stop-color="white"/>
<stop offset="1" stop-color="#FAFAFA"/>
</radialGradient>
<radialGradient id="paint32_radial_695_574754" cx="0" cy="0" r="1" gradientUnits="userSpaceOnUse" gradientTransform="translate(8.38859 8.38859) rotate(85.3036) scale(16.0785)">
<stop stop-color="white"/>
<stop offset="1" stop-color="#FAFAFA"/>
</radialGradient>
<radialGradient id="paint33_radial_695_574754" cx="0" cy="0" r="1" gradientUnits="userSpaceOnUse" gradientTransform="translate(8.38859 8.38859) rotate(85.3036) scale(16.0785)">
<stop stop-color="white"/>
<stop offset="1" stop-color="#FAFAFA"/>
</radialGradient>
<radialGradient id="paint34_radial_695_574754" cx="0" cy="0" r="1" gradientUnits="userSpaceOnUse" gradientTransform="translate(8.38859 8.38859) rotate(85.3036) scale(16.0785)">
<stop stop-color="white"/>
<stop offset="1" stop-color="#FAFAFA"/>
</radialGradient>
<radialGradient id="paint35_radial_695_574754" cx="0" cy="0" r="1" gradientUnits="userSpaceOnUse" gradientTransform="translate(8.38859 8.38859) rotate(85.3036) scale(16.0785)">
<stop stop-color="white"/>
<stop offset="1" stop-color="#FAFAFA"/>
</radialGradient>
<radialGradient id="paint36_radial_695_574754" cx="0" cy="0" r="1" gradientUnits="userSpaceOnUse" gradientTransform="translate(8.38859 8.38859) rotate(85.3036) scale(16.0785)">
<stop stop-color="white"/>
<stop offset="1" stop-color="#FAFAFA"/>
</radialGradient>
<radialGradient id="paint37_radial_695_574754" cx="0" cy="0" r="1" gradientUnits="userSpaceOnUse" gradientTransform="translate(8.38859 8.38859) rotate(85.3036) scale(16.0785)">
<stop stop-color="white"/>
<stop offset="1" stop-color="#FAFAFA"/>
</radialGradient>
<radialGradient id="paint38_radial_695_574754" cx="0" cy="0" r="1" gradientUnits="userSpaceOnUse" gradientTransform="translate(8.38859 8.38859) rotate(85.3036) scale(16.0785)">
<stop stop-color="white"/>
<stop offset="1" stop-color="#FAFAFA"/>
</radialGradient>
<radialGradient id="paint39_radial_695_574754" cx="0" cy="0" r="1" gradientUnits="userSpaceOnUse" gradientTransform="translate(8.38859 8.38859) rotate(85.3036) scale(16.0785)">
<stop stop-color="white"/>
<stop offset="1" stop-color="#FAFAFA"/>
</radialGradient>
<radialGradient id="paint40_radial_695_574754" cx="0" cy="0" r="1" gradientUnits="userSpaceOnUse" gradientTransform="translate(8.38859 8.38859) rotate(85.3036) scale(16.0785)">
<stop stop-color="white"/>
<stop offset="1" stop-color="#FAFAFA"/>
</radialGradient>
<radialGradient id="paint41_radial_695_574754" cx="0" cy="0" r="1" gradientUnits="userSpaceOnUse" gradientTransform="translate(8.38859 8.38859) rotate(85.3036) scale(16.0785)">
<stop stop-color="white"/>
<stop offset="1" stop-color="#FAFAFA"/>
</radialGradient>
<radialGradient id="paint42_radial_695_574754" cx="0" cy="0" r="1" gradientUnits="userSpaceOnUse" gradientTransform="translate(8.38859 8.38859) rotate(85.3036) scale(16.0785)">
<stop stop-color="white"/>
<stop offset="1" stop-color="#FAFAFA"/>
</radialGradient>
<radialGradient id="paint43_radial_695_574754" cx="0" cy="0" r="1" gradientUnits="userSpaceOnUse" gradientTransform="translate(8.38859 8.38859) rotate(85.3036) scale(16.0785)">
<stop stop-color="white"/>
<stop offset="1" stop-color="#FAFAFA"/>
</radialGradient>
<radialGradient id="paint44_radial_695_574754" cx="0" cy="0" r="1" gradientUnits="userSpaceOnUse" gradientTransform="translate(8.38859 8.38859) rotate(85.3036) scale(16.0785)">
<stop stop-color="white"/>
<stop offset="1" stop-color="#FAFAFA"/>
</radialGradient>
<radialGradient id="paint45_radial_695_574754" cx="0" cy="0" r="1" gradientUnits="userSpaceOnUse" gradientTransform="translate(8.38859 8.38859) rotate(85.3036) scale(16.0785)">
<stop stop-color="white"/>
<stop offset="1" stop-color="#FAFAFA"/>
</radialGradient>
<radialGradient id="paint46_radial_695_574754" cx="0" cy="0" r="1" gradientUnits="userSpaceOnUse" gradientTransform="translate(8.38859 8.38859) rotate(85.3036) scale(16.0785)">
<stop stop-color="white"/>
<stop offset="1" stop-color="#FAFAFA"/>
</radialGradient>
<radialGradient id="paint47_radial_695_574754" cx="0" cy="0" r="1" gradientUnits="userSpaceOnUse" gradientTransform="translate(8.38859 8.38859) rotate(85.3036) scale(16.0785)">
<stop stop-color="white"/>
<stop offset="1" stop-color="#FAFAFA"/>
</radialGradient>
</defs>
</svg>
