<svg width="409" height="310" viewBox="0 0 409 310" fill="none" xmlns="http://www.w3.org/2000/svg">
<rect y="19.9989" width="28.2827" height="28.2827" rx="6.33601" transform="rotate(-45 0 19.9989)" fill="url(#paint0_radial_695_574693)" fill-opacity="0.2"/>
<rect x="52.6792" y="19.9989" width="28.2827" height="28.2827" rx="6.33601" transform="rotate(-45 52.6792 19.9989)" fill="url(#paint1_radial_695_574693)" fill-opacity="0.2"/>
<rect x="105.339" y="19.9989" width="28.2827" height="28.2827" rx="6.33601" transform="rotate(-45 105.339 19.9989)" fill="url(#paint2_radial_695_574693)" fill-opacity="0.2"/>
<rect x="158.018" y="19.9989" width="28.2827" height="28.2827" rx="6.33601" transform="rotate(-45 158.018 19.9989)" fill="url(#paint3_radial_695_574693)" fill-opacity="0.2"/>
<rect x="210.689" y="19.9989" width="28.2827" height="28.2827" rx="6.33601" transform="rotate(-45 210.689 19.9989)" fill="url(#paint4_radial_695_574693)" fill-opacity="0.2"/>
<rect x="263.358" y="19.9989" width="28.2827" height="28.2827" rx="6.33601" transform="rotate(-45 263.358 19.9989)" fill="url(#paint5_radial_695_574693)" fill-opacity="0.2"/>
<rect x="316.028" y="19.9989" width="28.2827" height="28.2827" rx="6.33601" transform="rotate(-45 316.028 19.9989)" fill="url(#paint6_radial_695_574693)" fill-opacity="0.2"/>
<rect x="368.698" y="19.9989" width="28.2827" height="28.2827" rx="6.33601" transform="rotate(-45 368.698 19.9989)" fill="url(#paint7_radial_695_574693)" fill-opacity="0.2"/>
<rect y="127.711" width="28.2827" height="28.2827" rx="6.33601" transform="rotate(-45 0 127.711)" fill="url(#paint8_radial_695_574693)" fill-opacity="0.2"/>
<rect x="52.6792" y="127.711" width="28.2827" height="28.2827" rx="6.33601" transform="rotate(-45 52.6792 127.711)" fill="url(#paint9_radial_695_574693)" fill-opacity="0.2"/>
<rect x="105.339" y="127.711" width="28.2827" height="28.2827" rx="6.33601" transform="rotate(-45 105.339 127.711)" fill="url(#paint10_radial_695_574693)" fill-opacity="0.2"/>
<rect x="158.018" y="127.711" width="28.2827" height="28.2827" rx="6.33601" transform="rotate(-45 158.018 127.711)" fill="url(#paint11_radial_695_574693)" fill-opacity="0.2"/>
<rect x="210.689" y="127.711" width="28.2827" height="28.2827" rx="6.33601" transform="rotate(-45 210.689 127.711)" fill="url(#paint12_radial_695_574693)" fill-opacity="0.2"/>
<rect x="263.358" y="127.711" width="28.2827" height="28.2827" rx="6.33601" transform="rotate(-45 263.358 127.711)" fill="url(#paint13_radial_695_574693)" fill-opacity="0.2"/>
<rect x="316.028" y="127.711" width="28.2827" height="28.2827" rx="6.33601" transform="rotate(-45 316.028 127.711)" fill="url(#paint14_radial_695_574693)" fill-opacity="0.2"/>
<rect x="368.698" y="127.711" width="28.2827" height="28.2827" rx="6.33601" transform="rotate(-45 368.698 127.711)" fill="url(#paint15_radial_695_574693)" fill-opacity="0.2"/>
<rect y="235.424" width="28.2827" height="28.2827" rx="6.33601" transform="rotate(-45 0 235.424)" fill="url(#paint16_radial_695_574693)" fill-opacity="0.2"/>
<rect x="52.6792" y="235.424" width="28.2827" height="28.2827" rx="6.33601" transform="rotate(-45 52.6792 235.424)" fill="url(#paint17_radial_695_574693)" fill-opacity="0.2"/>
<rect x="105.34" y="235.424" width="28.2827" height="28.2827" rx="6.33601" transform="rotate(-45 105.34 235.424)" fill="url(#paint18_radial_695_574693)" fill-opacity="0.2"/>
<rect x="158.02" y="235.424" width="28.2827" height="28.2827" rx="6.33601" transform="rotate(-45 158.02 235.424)" fill="url(#paint19_radial_695_574693)" fill-opacity="0.2"/>
<rect x="210.689" y="235.424" width="28.2827" height="28.2827" rx="6.33601" transform="rotate(-45 210.689 235.424)" fill="url(#paint20_radial_695_574693)" fill-opacity="0.2"/>
<rect x="263.358" y="235.424" width="28.2827" height="28.2827" rx="6.33601" transform="rotate(-45 263.358 235.424)" fill="url(#paint21_radial_695_574693)" fill-opacity="0.2"/>
<rect x="316.028" y="235.424" width="28.2827" height="28.2827" rx="6.33601" transform="rotate(-45 316.028 235.424)" fill="url(#paint22_radial_695_574693)" fill-opacity="0.2"/>
<rect x="368.698" y="235.424" width="28.2827" height="28.2827" rx="6.33601" transform="rotate(-45 368.698 235.424)" fill="url(#paint23_radial_695_574693)" fill-opacity="0.2"/>
<rect y="73.855" width="28.2827" height="28.2827" rx="6.33601" transform="rotate(-45 0 73.855)" fill="url(#paint24_radial_695_574693)" fill-opacity="0.2"/>
<rect x="52.6792" y="73.855" width="28.2827" height="28.2827" rx="6.33601" transform="rotate(-45 52.6792 73.855)" fill="url(#paint25_radial_695_574693)" fill-opacity="0.2"/>
<rect x="105.339" y="73.855" width="28.2827" height="28.2827" rx="6.33601" transform="rotate(-45 105.339 73.855)" fill="url(#paint26_radial_695_574693)" fill-opacity="0.2"/>
<rect x="158.018" y="73.855" width="28.2827" height="28.2827" rx="6.33601" transform="rotate(-45 158.018 73.855)" fill="url(#paint27_radial_695_574693)" fill-opacity="0.2"/>
<rect x="210.689" y="73.855" width="28.2827" height="28.2827" rx="6.33601" transform="rotate(-45 210.689 73.855)" fill="url(#paint28_radial_695_574693)" fill-opacity="0.2"/>
<rect x="263.358" y="73.855" width="28.2827" height="28.2827" rx="6.33601" transform="rotate(-45 263.358 73.855)" fill="url(#paint29_radial_695_574693)" fill-opacity="0.2"/>
<rect x="316.028" y="73.855" width="28.2827" height="28.2827" rx="6.33601" transform="rotate(-45 316.028 73.855)" fill="url(#paint30_radial_695_574693)" fill-opacity="0.2"/>
<rect x="368.698" y="73.855" width="28.2827" height="28.2827" rx="6.33601" transform="rotate(-45 368.698 73.855)" fill="url(#paint31_radial_695_574693)" fill-opacity="0.2"/>
<rect y="181.568" width="28.2827" height="28.2827" rx="6.33601" transform="rotate(-45 0 181.568)" fill="url(#paint32_radial_695_574693)" fill-opacity="0.2"/>
<rect x="52.6792" y="181.568" width="28.2827" height="28.2827" rx="6.33601" transform="rotate(-45 52.6792 181.568)" fill="url(#paint33_radial_695_574693)" fill-opacity="0.2"/>
<rect x="105.34" y="181.568" width="28.2827" height="28.2827" rx="6.33601" transform="rotate(-45 105.34 181.568)" fill="url(#paint34_radial_695_574693)" fill-opacity="0.2"/>
<rect x="158.02" y="181.568" width="28.2827" height="28.2827" rx="6.33601" transform="rotate(-45 158.02 181.568)" fill="url(#paint35_radial_695_574693)" fill-opacity="0.2"/>
<rect x="210.689" y="181.568" width="28.2827" height="28.2827" rx="6.33601" transform="rotate(-45 210.689 181.568)" fill="url(#paint36_radial_695_574693)" fill-opacity="0.2"/>
<rect x="263.358" y="181.568" width="28.2827" height="28.2827" rx="6.33601" transform="rotate(-45 263.358 181.568)" fill="url(#paint37_radial_695_574693)" fill-opacity="0.2"/>
<rect x="316.028" y="181.568" width="28.2827" height="28.2827" rx="6.33601" transform="rotate(-45 316.028 181.568)" fill="url(#paint38_radial_695_574693)" fill-opacity="0.2"/>
<rect x="368.698" y="181.568" width="28.2827" height="28.2827" rx="6.33601" transform="rotate(-45 368.698 181.568)" fill="url(#paint39_radial_695_574693)" fill-opacity="0.2"/>
<rect y="289.28" width="28.2827" height="28.2827" rx="6.33601" transform="rotate(-45 0 289.28)" fill="url(#paint40_radial_695_574693)" fill-opacity="0.2"/>
<rect x="52.6792" y="289.28" width="28.2827" height="28.2827" rx="6.33601" transform="rotate(-45 52.6792 289.28)" fill="url(#paint41_radial_695_574693)" fill-opacity="0.2"/>
<rect x="105.339" y="289.28" width="28.2827" height="28.2827" rx="6.33601" transform="rotate(-45 105.339 289.28)" fill="url(#paint42_radial_695_574693)" fill-opacity="0.2"/>
<rect x="158.018" y="289.28" width="28.2827" height="28.2827" rx="6.33601" transform="rotate(-45 158.018 289.28)" fill="url(#paint43_radial_695_574693)" fill-opacity="0.2"/>
<rect x="210.689" y="289.28" width="28.2827" height="28.2827" rx="6.33601" transform="rotate(-45 210.689 289.28)" fill="url(#paint44_radial_695_574693)" fill-opacity="0.2"/>
<rect x="263.358" y="289.28" width="28.2827" height="28.2827" rx="6.33601" transform="rotate(-45 263.358 289.28)" fill="url(#paint45_radial_695_574693)" fill-opacity="0.2"/>
<rect x="316.028" y="289.28" width="28.2827" height="28.2827" rx="6.33601" transform="rotate(-45 316.028 289.28)" fill="url(#paint46_radial_695_574693)" fill-opacity="0.2"/>
<rect x="368.698" y="289.28" width="28.2827" height="28.2827" rx="6.33601" transform="rotate(-45 368.698 289.28)" fill="url(#paint47_radial_695_574693)" fill-opacity="0.2"/>
<defs>
<radialGradient id="paint0_radial_695_574693" cx="0" cy="0" r="1" gradientUnits="userSpaceOnUse" gradientTransform="translate(14.1413 34.1402) rotate(85.3036) scale(27.1048)">
<stop stop-color="white"/>
<stop offset="1" stop-color="#FAFAFA"/>
</radialGradient>
<radialGradient id="paint1_radial_695_574693" cx="0" cy="0" r="1" gradientUnits="userSpaceOnUse" gradientTransform="translate(66.8205 34.1402) rotate(85.3036) scale(27.1048)">
<stop stop-color="white"/>
<stop offset="1" stop-color="#FAFAFA"/>
</radialGradient>
<radialGradient id="paint2_radial_695_574693" cx="0" cy="0" r="1" gradientUnits="userSpaceOnUse" gradientTransform="translate(119.48 34.1402) rotate(85.3036) scale(27.1048)">
<stop stop-color="white"/>
<stop offset="1" stop-color="#FAFAFA"/>
</radialGradient>
<radialGradient id="paint3_radial_695_574693" cx="0" cy="0" r="1" gradientUnits="userSpaceOnUse" gradientTransform="translate(172.16 34.1402) rotate(85.3036) scale(27.1048)">
<stop stop-color="white"/>
<stop offset="1" stop-color="#FAFAFA"/>
</radialGradient>
<radialGradient id="paint4_radial_695_574693" cx="0" cy="0" r="1" gradientUnits="userSpaceOnUse" gradientTransform="translate(224.83 34.1402) rotate(85.3036) scale(27.1048)">
<stop stop-color="white"/>
<stop offset="1" stop-color="#FAFAFA"/>
</radialGradient>
<radialGradient id="paint5_radial_695_574693" cx="0" cy="0" r="1" gradientUnits="userSpaceOnUse" gradientTransform="translate(277.5 34.1402) rotate(85.3036) scale(27.1048)">
<stop stop-color="white"/>
<stop offset="1" stop-color="#FAFAFA"/>
</radialGradient>
<radialGradient id="paint6_radial_695_574693" cx="0" cy="0" r="1" gradientUnits="userSpaceOnUse" gradientTransform="translate(330.169 34.1402) rotate(85.3036) scale(27.1048)">
<stop stop-color="white"/>
<stop offset="1" stop-color="#FAFAFA"/>
</radialGradient>
<radialGradient id="paint7_radial_695_574693" cx="0" cy="0" r="1" gradientUnits="userSpaceOnUse" gradientTransform="translate(382.84 34.1402) rotate(85.3036) scale(27.1048)">
<stop stop-color="white"/>
<stop offset="1" stop-color="#FAFAFA"/>
</radialGradient>
<radialGradient id="paint8_radial_695_574693" cx="0" cy="0" r="1" gradientUnits="userSpaceOnUse" gradientTransform="translate(14.1413 141.853) rotate(85.3036) scale(27.1048)">
<stop stop-color="white"/>
<stop offset="1" stop-color="#FAFAFA"/>
</radialGradient>
<radialGradient id="paint9_radial_695_574693" cx="0" cy="0" r="1" gradientUnits="userSpaceOnUse" gradientTransform="translate(66.8205 141.853) rotate(85.3036) scale(27.1048)">
<stop stop-color="white"/>
<stop offset="1" stop-color="#FAFAFA"/>
</radialGradient>
<radialGradient id="paint10_radial_695_574693" cx="0" cy="0" r="1" gradientUnits="userSpaceOnUse" gradientTransform="translate(119.48 141.853) rotate(85.3036) scale(27.1048)">
<stop stop-color="white"/>
<stop offset="1" stop-color="#FAFAFA"/>
</radialGradient>
<radialGradient id="paint11_radial_695_574693" cx="0" cy="0" r="1" gradientUnits="userSpaceOnUse" gradientTransform="translate(172.16 141.853) rotate(85.3036) scale(27.1048)">
<stop stop-color="white"/>
<stop offset="1" stop-color="#FAFAFA"/>
</radialGradient>
<radialGradient id="paint12_radial_695_574693" cx="0" cy="0" r="1" gradientUnits="userSpaceOnUse" gradientTransform="translate(224.83 141.853) rotate(85.3036) scale(27.1048)">
<stop stop-color="white"/>
<stop offset="1" stop-color="#FAFAFA"/>
</radialGradient>
<radialGradient id="paint13_radial_695_574693" cx="0" cy="0" r="1" gradientUnits="userSpaceOnUse" gradientTransform="translate(277.5 141.853) rotate(85.3036) scale(27.1048)">
<stop stop-color="white"/>
<stop offset="1" stop-color="#FAFAFA"/>
</radialGradient>
<radialGradient id="paint14_radial_695_574693" cx="0" cy="0" r="1" gradientUnits="userSpaceOnUse" gradientTransform="translate(330.169 141.853) rotate(85.3036) scale(27.1048)">
<stop stop-color="white"/>
<stop offset="1" stop-color="#FAFAFA"/>
</radialGradient>
<radialGradient id="paint15_radial_695_574693" cx="0" cy="0" r="1" gradientUnits="userSpaceOnUse" gradientTransform="translate(382.84 141.853) rotate(85.3036) scale(27.1048)">
<stop stop-color="white"/>
<stop offset="1" stop-color="#FAFAFA"/>
</radialGradient>
<radialGradient id="paint16_radial_695_574693" cx="0" cy="0" r="1" gradientUnits="userSpaceOnUse" gradientTransform="translate(14.1413 249.565) rotate(85.3036) scale(27.1048)">
<stop stop-color="white"/>
<stop offset="1" stop-color="#FAFAFA"/>
</radialGradient>
<radialGradient id="paint17_radial_695_574693" cx="0" cy="0" r="1" gradientUnits="userSpaceOnUse" gradientTransform="translate(66.8205 249.565) rotate(85.3036) scale(27.1048)">
<stop stop-color="white"/>
<stop offset="1" stop-color="#FAFAFA"/>
</radialGradient>
<radialGradient id="paint18_radial_695_574693" cx="0" cy="0" r="1" gradientUnits="userSpaceOnUse" gradientTransform="translate(119.481 249.565) rotate(85.3036) scale(27.1048)">
<stop stop-color="white"/>
<stop offset="1" stop-color="#FAFAFA"/>
</radialGradient>
<radialGradient id="paint19_radial_695_574693" cx="0" cy="0" r="1" gradientUnits="userSpaceOnUse" gradientTransform="translate(172.161 249.565) rotate(85.3036) scale(27.1048)">
<stop stop-color="white"/>
<stop offset="1" stop-color="#FAFAFA"/>
</radialGradient>
<radialGradient id="paint20_radial_695_574693" cx="0" cy="0" r="1" gradientUnits="userSpaceOnUse" gradientTransform="translate(224.83 249.565) rotate(85.3036) scale(27.1048)">
<stop stop-color="white"/>
<stop offset="1" stop-color="#FAFAFA"/>
</radialGradient>
<radialGradient id="paint21_radial_695_574693" cx="0" cy="0" r="1" gradientUnits="userSpaceOnUse" gradientTransform="translate(277.5 249.565) rotate(85.3036) scale(27.1048)">
<stop stop-color="white"/>
<stop offset="1" stop-color="#FAFAFA"/>
</radialGradient>
<radialGradient id="paint22_radial_695_574693" cx="0" cy="0" r="1" gradientUnits="userSpaceOnUse" gradientTransform="translate(330.17 249.565) rotate(85.3036) scale(27.1048)">
<stop stop-color="white"/>
<stop offset="1" stop-color="#FAFAFA"/>
</radialGradient>
<radialGradient id="paint23_radial_695_574693" cx="0" cy="0" r="1" gradientUnits="userSpaceOnUse" gradientTransform="translate(382.84 249.565) rotate(85.3036) scale(27.1048)">
<stop stop-color="white"/>
<stop offset="1" stop-color="#FAFAFA"/>
</radialGradient>
<radialGradient id="paint24_radial_695_574693" cx="0" cy="0" r="1" gradientUnits="userSpaceOnUse" gradientTransform="translate(14.1413 87.9963) rotate(85.3036) scale(27.1048)">
<stop stop-color="white"/>
<stop offset="1" stop-color="#FAFAFA"/>
</radialGradient>
<radialGradient id="paint25_radial_695_574693" cx="0" cy="0" r="1" gradientUnits="userSpaceOnUse" gradientTransform="translate(66.8205 87.9963) rotate(85.3036) scale(27.1048)">
<stop stop-color="white"/>
<stop offset="1" stop-color="#FAFAFA"/>
</radialGradient>
<radialGradient id="paint26_radial_695_574693" cx="0" cy="0" r="1" gradientUnits="userSpaceOnUse" gradientTransform="translate(119.48 87.9963) rotate(85.3036) scale(27.1048)">
<stop stop-color="white"/>
<stop offset="1" stop-color="#FAFAFA"/>
</radialGradient>
<radialGradient id="paint27_radial_695_574693" cx="0" cy="0" r="1" gradientUnits="userSpaceOnUse" gradientTransform="translate(172.16 87.9963) rotate(85.3036) scale(27.1048)">
<stop stop-color="white"/>
<stop offset="1" stop-color="#FAFAFA"/>
</radialGradient>
<radialGradient id="paint28_radial_695_574693" cx="0" cy="0" r="1" gradientUnits="userSpaceOnUse" gradientTransform="translate(224.83 87.9963) rotate(85.3036) scale(27.1048)">
<stop stop-color="white"/>
<stop offset="1" stop-color="#FAFAFA"/>
</radialGradient>
<radialGradient id="paint29_radial_695_574693" cx="0" cy="0" r="1" gradientUnits="userSpaceOnUse" gradientTransform="translate(277.5 87.9963) rotate(85.3036) scale(27.1048)">
<stop stop-color="white"/>
<stop offset="1" stop-color="#FAFAFA"/>
</radialGradient>
<radialGradient id="paint30_radial_695_574693" cx="0" cy="0" r="1" gradientUnits="userSpaceOnUse" gradientTransform="translate(330.169 87.9963) rotate(85.3036) scale(27.1048)">
<stop stop-color="white"/>
<stop offset="1" stop-color="#FAFAFA"/>
</radialGradient>
<radialGradient id="paint31_radial_695_574693" cx="0" cy="0" r="1" gradientUnits="userSpaceOnUse" gradientTransform="translate(382.84 87.9963) rotate(85.3036) scale(27.1048)">
<stop stop-color="white"/>
<stop offset="1" stop-color="#FAFAFA"/>
</radialGradient>
<radialGradient id="paint32_radial_695_574693" cx="0" cy="0" r="1" gradientUnits="userSpaceOnUse" gradientTransform="translate(14.1413 195.709) rotate(85.3036) scale(27.1048)">
<stop stop-color="white"/>
<stop offset="1" stop-color="#FAFAFA"/>
</radialGradient>
<radialGradient id="paint33_radial_695_574693" cx="0" cy="0" r="1" gradientUnits="userSpaceOnUse" gradientTransform="translate(66.8205 195.709) rotate(85.3036) scale(27.1048)">
<stop stop-color="white"/>
<stop offset="1" stop-color="#FAFAFA"/>
</radialGradient>
<radialGradient id="paint34_radial_695_574693" cx="0" cy="0" r="1" gradientUnits="userSpaceOnUse" gradientTransform="translate(119.481 195.709) rotate(85.3036) scale(27.1048)">
<stop stop-color="white"/>
<stop offset="1" stop-color="#FAFAFA"/>
</radialGradient>
<radialGradient id="paint35_radial_695_574693" cx="0" cy="0" r="1" gradientUnits="userSpaceOnUse" gradientTransform="translate(172.161 195.709) rotate(85.3036) scale(27.1048)">
<stop stop-color="white"/>
<stop offset="1" stop-color="#FAFAFA"/>
</radialGradient>
<radialGradient id="paint36_radial_695_574693" cx="0" cy="0" r="1" gradientUnits="userSpaceOnUse" gradientTransform="translate(224.83 195.709) rotate(85.3036) scale(27.1048)">
<stop stop-color="white"/>
<stop offset="1" stop-color="#FAFAFA"/>
</radialGradient>
<radialGradient id="paint37_radial_695_574693" cx="0" cy="0" r="1" gradientUnits="userSpaceOnUse" gradientTransform="translate(277.5 195.709) rotate(85.3036) scale(27.1048)">
<stop stop-color="white"/>
<stop offset="1" stop-color="#FAFAFA"/>
</radialGradient>
<radialGradient id="paint38_radial_695_574693" cx="0" cy="0" r="1" gradientUnits="userSpaceOnUse" gradientTransform="translate(330.17 195.709) rotate(85.3036) scale(27.1048)">
<stop stop-color="white"/>
<stop offset="1" stop-color="#FAFAFA"/>
</radialGradient>
<radialGradient id="paint39_radial_695_574693" cx="0" cy="0" r="1" gradientUnits="userSpaceOnUse" gradientTransform="translate(382.84 195.709) rotate(85.3036) scale(27.1048)">
<stop stop-color="white"/>
<stop offset="1" stop-color="#FAFAFA"/>
</radialGradient>
<radialGradient id="paint40_radial_695_574693" cx="0" cy="0" r="1" gradientUnits="userSpaceOnUse" gradientTransform="translate(14.1413 303.421) rotate(85.3036) scale(27.1048)">
<stop stop-color="white"/>
<stop offset="1" stop-color="#FAFAFA"/>
</radialGradient>
<radialGradient id="paint41_radial_695_574693" cx="0" cy="0" r="1" gradientUnits="userSpaceOnUse" gradientTransform="translate(66.8205 303.421) rotate(85.3036) scale(27.1048)">
<stop stop-color="white"/>
<stop offset="1" stop-color="#FAFAFA"/>
</radialGradient>
<radialGradient id="paint42_radial_695_574693" cx="0" cy="0" r="1" gradientUnits="userSpaceOnUse" gradientTransform="translate(119.48 303.421) rotate(85.3036) scale(27.1048)">
<stop stop-color="white"/>
<stop offset="1" stop-color="#FAFAFA"/>
</radialGradient>
<radialGradient id="paint43_radial_695_574693" cx="0" cy="0" r="1" gradientUnits="userSpaceOnUse" gradientTransform="translate(172.16 303.421) rotate(85.3036) scale(27.1048)">
<stop stop-color="white"/>
<stop offset="1" stop-color="#FAFAFA"/>
</radialGradient>
<radialGradient id="paint44_radial_695_574693" cx="0" cy="0" r="1" gradientUnits="userSpaceOnUse" gradientTransform="translate(224.83 303.421) rotate(85.3036) scale(27.1048)">
<stop stop-color="white"/>
<stop offset="1" stop-color="#FAFAFA"/>
</radialGradient>
<radialGradient id="paint45_radial_695_574693" cx="0" cy="0" r="1" gradientUnits="userSpaceOnUse" gradientTransform="translate(277.5 303.421) rotate(85.3036) scale(27.1048)">
<stop stop-color="white"/>
<stop offset="1" stop-color="#FAFAFA"/>
</radialGradient>
<radialGradient id="paint46_radial_695_574693" cx="0" cy="0" r="1" gradientUnits="userSpaceOnUse" gradientTransform="translate(330.169 303.421) rotate(85.3036) scale(27.1048)">
<stop stop-color="white"/>
<stop offset="1" stop-color="#FAFAFA"/>
</radialGradient>
<radialGradient id="paint47_radial_695_574693" cx="0" cy="0" r="1" gradientUnits="userSpaceOnUse" gradientTransform="translate(382.84 303.421) rotate(85.3036) scale(27.1048)">
<stop stop-color="white"/>
<stop offset="1" stop-color="#FAFAFA"/>
</radialGradient>
</defs>
</svg>
