<svg width="61" height="59" viewBox="0 0 61 59" fill="none" xmlns="http://www.w3.org/2000/svg">
<path d="M56.0981 17.0136C58.1552 16.2528 59.2059 13.9684 58.4451 11.9113C57.6842 9.85429 55.3998 8.80353 53.3428 9.56439C51.2857 10.3252 50.235 12.6096 50.9958 14.6667C51.7567 16.7237 54.041 17.7745 56.0981 17.0136Z" fill="#3897FF"/>
<path d="M22.9928 20.4505L17.4152 16.3927L10.6175 17.5622L14.6753 11.9845L13.5059 5.1868L19.0836 9.24429L25.8812 8.07517L21.8234 13.6528L22.9928 20.4505Z" fill="#FFCC00"/>
<path d="M18.9455 47.1055L12.0551 46.7928L7.02668 51.514L7.3396 44.6234L2.61816 39.5952L9.50853 39.908L14.5369 35.1867L14.2243 42.0769L18.9455 47.1055Z" fill="#8E4DD5"/>
</svg>
