<svg width="256" height="246" viewBox="0 0 256 246" fill="none" xmlns="http://www.w3.org/2000/svg">
<path d="M173.251 175.525C176.081 173.008 176.327 168.664 173.801 165.822C171.275 162.981 166.933 162.718 164.103 165.235C161.273 167.752 161.027 172.097 163.554 174.938C166.08 177.779 170.422 178.042 173.251 175.525Z" fill="#8E4DD5"/>
<path d="M128.831 175.235C130.168 174.046 130.284 171.994 129.091 170.651C127.897 169.309 125.846 169.184 124.509 170.374C123.172 171.563 123.055 173.616 124.249 174.958C125.443 176.301 127.494 176.425 128.831 175.235Z" fill="#8E4DD5"/>
<path d="M210.509 82.1206L195.935 87.0463L189.342 100.95L184.365 86.346L170.446 79.6958L185.02 74.7694L191.612 60.8667L196.59 75.4703L210.509 82.1206Z" fill="#00A98F"/>
<path d="M193.072 124.757L186.191 127.326L182.837 133.862L180.824 127.243L174.487 124.47L181.368 121.901L184.722 115.366L186.735 121.984L193.072 124.757Z" fill="#00A98F"/>
<path d="M136.991 144.81C138.145 142.954 137.574 140.508 135.716 139.346C133.857 138.184 131.415 138.747 130.261 140.602C129.107 142.458 129.678 144.904 131.537 146.066C133.396 147.227 135.838 146.665 136.991 144.81Z" fill="white"/>
<path d="M78.3477 198.356C79.0038 197.301 78.679 195.911 77.6223 195.25C76.5655 194.589 75.177 194.909 74.5209 195.964C73.8649 197.019 74.1897 198.41 75.2464 199.07C76.3031 199.731 77.6916 199.411 78.3477 198.356Z" fill="#00A98F"/>
<path d="M184.105 33.5504L167.896 34.0069L156.966 45.9553L156.448 29.7322L144.467 18.7489L160.676 18.2916L171.606 6.34392L172.124 22.5671L184.105 33.5504Z" fill="#3897FF"/>
<path d="M149.095 139.724L139.64 143.063L135.477 152.171L132.087 142.712L122.945 138.512L132.401 135.173L136.563 126.064L139.953 135.523L149.095 139.724Z" fill="#FFCC00"/>
<path d="M100.374 189.33L96.8388 193.124L97.096 198.321L93.2983 194.761L88.1162 194.999L91.6517 191.205L91.3946 186.009L95.192 189.568L100.374 189.33Z" fill="#FFCC00"/>
<path d="M71.6583 208.275L68.8402 211.299L69.0452 215.441L66.0182 212.604L61.8877 212.793L64.7057 209.769L64.5008 205.627L67.5276 208.464L71.6583 208.275Z" fill="#8E4DD5"/>
<path d="M162.848 107.773L157.938 116.137L150.008 98.8429L155.543 90.6209L162.848 107.773Z" fill="#00A98F"/>
<path d="M123.125 201.096L118.197 194.913L133.589 193.967L138.23 200.583L123.125 201.096Z" fill="#3897FF"/>
<path d="M81.7522 216.327L78.6195 212.397L88.403 211.796L91.3528 216.001L81.7522 216.327Z" fill="#FFCC00"/>
</svg>
