<svg width="350" height="266" viewBox="0 0 350 266" fill="none" xmlns="http://www.w3.org/2000/svg">
<g opacity="0.5">
<rect y="17.7621" width="24.221" height="24.221" rx="2.78919" transform="rotate(-45 0 17.7621)" fill="url(#paint0_radial_1286_13381)"/>
<rect x="45.1063" y="17.7621" width="24.221" height="24.221" rx="2.78919" transform="rotate(-45 45.1063 17.7621)" fill="url(#paint1_radial_1286_13381)"/>
<rect x="90.2117" y="17.7621" width="24.221" height="24.221" rx="2.78919" transform="rotate(-45 90.2117 17.7621)" fill="url(#paint2_radial_1286_13381)"/>
<rect x="135.325" y="17.7621" width="24.221" height="24.221" rx="2.78919" transform="rotate(-45 135.325 17.7621)" fill="url(#paint3_radial_1286_13381)"/>
<rect x="180.428" y="17.7621" width="24.221" height="24.221" rx="2.78919" transform="rotate(-45 180.428 17.7621)" fill="url(#paint4_radial_1286_13381)"/>
<rect x="225.537" y="17.7621" width="24.221" height="24.221" rx="2.78919" transform="rotate(-45 225.537 17.7621)" fill="url(#paint5_radial_1286_13381)"/>
<rect x="270.646" y="17.7621" width="24.221" height="24.221" rx="2.78919" transform="rotate(-45 270.646 17.7621)" fill="url(#paint6_radial_1286_13381)"/>
<rect x="315.747" y="17.7621" width="24.221" height="24.221" rx="2.78919" transform="rotate(-45 315.747 17.7621)" fill="url(#paint7_radial_1286_13381)"/>
</g>
<g opacity="0.5">
<rect y="110.007" width="24.221" height="24.221" rx="2.78919" transform="rotate(-45 0 110.007)" fill="url(#paint8_radial_1286_13381)"/>
<rect x="45.1063" y="110.007" width="24.221" height="24.221" rx="2.78919" transform="rotate(-45 45.1063 110.007)" fill="url(#paint9_radial_1286_13381)"/>
<rect x="90.2117" y="110.007" width="24.221" height="24.221" rx="2.78919" transform="rotate(-45 90.2117 110.007)" fill="url(#paint10_radial_1286_13381)"/>
<rect x="135.325" y="110.007" width="24.221" height="24.221" rx="2.78919" transform="rotate(-45 135.325 110.007)" fill="url(#paint11_radial_1286_13381)"/>
<rect x="180.428" y="110.007" width="24.221" height="24.221" rx="2.78919" transform="rotate(-45 180.428 110.007)" fill="url(#paint12_radial_1286_13381)"/>
<rect x="225.537" y="110.007" width="24.221" height="24.221" rx="2.78919" transform="rotate(-45 225.537 110.007)" fill="url(#paint13_radial_1286_13381)"/>
<rect x="270.646" y="110.007" width="24.221" height="24.221" rx="2.78919" transform="rotate(-45 270.646 110.007)" fill="url(#paint14_radial_1286_13381)"/>
<rect x="315.747" y="110.007" width="24.221" height="24.221" rx="2.78919" transform="rotate(-45 315.747 110.007)" fill="url(#paint15_radial_1286_13381)"/>
</g>
<g opacity="0.5">
<rect y="202.25" width="24.221" height="24.221" rx="2.78919" transform="rotate(-45 0 202.25)" fill="url(#paint16_radial_1286_13381)"/>
<rect x="45.1063" y="202.25" width="24.221" height="24.221" rx="2.78919" transform="rotate(-45 45.1063 202.25)" fill="url(#paint17_radial_1286_13381)"/>
<rect x="90.2117" y="202.25" width="24.221" height="24.221" rx="2.78919" transform="rotate(-45 90.2117 202.25)" fill="url(#paint18_radial_1286_13381)"/>
<rect x="135.325" y="202.25" width="24.221" height="24.221" rx="2.78919" transform="rotate(-45 135.325 202.25)" fill="url(#paint19_radial_1286_13381)"/>
<rect x="180.428" y="202.25" width="24.221" height="24.221" rx="2.78919" transform="rotate(-45 180.428 202.25)" fill="url(#paint20_radial_1286_13381)"/>
<rect x="225.537" y="202.25" width="24.221" height="24.221" rx="2.78919" transform="rotate(-45 225.537 202.25)" fill="url(#paint21_radial_1286_13381)"/>
<rect x="270.646" y="202.25" width="24.221" height="24.221" rx="2.78919" transform="rotate(-45 270.646 202.25)" fill="url(#paint22_radial_1286_13381)"/>
<rect x="315.747" y="202.25" width="24.221" height="24.221" rx="2.78919" transform="rotate(-45 315.747 202.25)" fill="url(#paint23_radial_1286_13381)"/>
</g>
<g opacity="0.5">
<rect y="63.8839" width="24.221" height="24.221" rx="2.78919" transform="rotate(-45 0 63.8839)" fill="url(#paint24_radial_1286_13381)"/>
<rect x="45.1063" y="63.8839" width="24.221" height="24.221" rx="2.78919" transform="rotate(-45 45.1063 63.8839)" fill="url(#paint25_radial_1286_13381)"/>
<rect x="90.2117" y="63.8839" width="24.221" height="24.221" rx="2.78919" transform="rotate(-45 90.2117 63.8839)" fill="url(#paint26_radial_1286_13381)"/>
<rect x="135.325" y="63.8839" width="24.221" height="24.221" rx="2.78919" transform="rotate(-45 135.325 63.8839)" fill="url(#paint27_radial_1286_13381)"/>
<rect x="180.428" y="63.8839" width="24.221" height="24.221" rx="2.78919" transform="rotate(-45 180.428 63.8839)" fill="url(#paint28_radial_1286_13381)"/>
<rect x="225.537" y="63.8839" width="24.221" height="24.221" rx="2.78919" transform="rotate(-45 225.537 63.8839)" fill="url(#paint29_radial_1286_13381)"/>
<rect x="270.646" y="63.8839" width="24.221" height="24.221" rx="2.78919" transform="rotate(-45 270.646 63.8839)" fill="url(#paint30_radial_1286_13381)"/>
<rect x="315.747" y="63.8839" width="24.221" height="24.221" rx="2.78919" transform="rotate(-45 315.747 63.8839)" fill="url(#paint31_radial_1286_13381)"/>
</g>
<g opacity="0.5">
<rect y="156.128" width="24.221" height="24.221" rx="2.78919" transform="rotate(-45 0 156.128)" fill="url(#paint32_radial_1286_13381)"/>
<rect x="45.1063" y="156.128" width="24.221" height="24.221" rx="2.78919" transform="rotate(-45 45.1063 156.128)" fill="url(#paint33_radial_1286_13381)"/>
<rect x="90.2117" y="156.128" width="24.221" height="24.221" rx="2.78919" transform="rotate(-45 90.2117 156.128)" fill="url(#paint34_radial_1286_13381)"/>
<rect x="135.325" y="156.128" width="24.221" height="24.221" rx="2.78919" transform="rotate(-45 135.325 156.128)" fill="url(#paint35_radial_1286_13381)"/>
<rect x="180.428" y="156.128" width="24.221" height="24.221" rx="2.78919" transform="rotate(-45 180.428 156.128)" fill="url(#paint36_radial_1286_13381)"/>
<rect x="225.537" y="156.128" width="24.221" height="24.221" rx="2.78919" transform="rotate(-45 225.537 156.128)" fill="url(#paint37_radial_1286_13381)"/>
<rect x="270.646" y="156.128" width="24.221" height="24.221" rx="2.78919" transform="rotate(-45 270.646 156.128)" fill="url(#paint38_radial_1286_13381)"/>
<rect x="315.747" y="156.128" width="24.221" height="24.221" rx="2.78919" transform="rotate(-45 315.747 156.128)" fill="url(#paint39_radial_1286_13381)"/>
</g>
<g opacity="0.5">
<rect y="248.372" width="24.221" height="24.221" rx="2.78919" transform="rotate(-45 0 248.372)" fill="url(#paint40_radial_1286_13381)"/>
<rect x="45.1063" y="248.372" width="24.221" height="24.221" rx="2.78919" transform="rotate(-45 45.1063 248.372)" fill="url(#paint41_radial_1286_13381)"/>
<rect x="90.2117" y="248.372" width="24.221" height="24.221" rx="2.78919" transform="rotate(-45 90.2117 248.372)" fill="url(#paint42_radial_1286_13381)"/>
<rect x="135.325" y="248.372" width="24.221" height="24.221" rx="2.78919" transform="rotate(-45 135.325 248.372)" fill="url(#paint43_radial_1286_13381)"/>
<rect x="180.428" y="248.372" width="24.221" height="24.221" rx="2.78919" transform="rotate(-45 180.428 248.372)" fill="url(#paint44_radial_1286_13381)"/>
<rect x="225.537" y="248.372" width="24.221" height="24.221" rx="2.78919" transform="rotate(-45 225.537 248.372)" fill="url(#paint45_radial_1286_13381)"/>
<rect x="270.646" y="248.372" width="24.221" height="24.221" rx="2.78919" transform="rotate(-45 270.646 248.372)" fill="url(#paint46_radial_1286_13381)"/>
<rect x="315.747" y="248.372" width="24.221" height="24.221" rx="2.78919" transform="rotate(-45 315.747 248.372)" fill="url(#paint47_radial_1286_13381)"/>
</g>
<defs>
<radialGradient id="paint0_radial_1286_13381" cx="0" cy="0" r="1" gradientUnits="userSpaceOnUse" gradientTransform="translate(12.1105 29.8727) rotate(85.3036) scale(23.2123)">
<stop stop-color="white"/>
<stop offset="1" stop-color="white"/>
</radialGradient>
<radialGradient id="paint1_radial_1286_13381" cx="0" cy="0" r="1" gradientUnits="userSpaceOnUse" gradientTransform="translate(57.2168 29.8727) rotate(85.3036) scale(23.2123)">
<stop stop-color="white"/>
<stop offset="1" stop-color="white"/>
</radialGradient>
<radialGradient id="paint2_radial_1286_13381" cx="0" cy="0" r="1" gradientUnits="userSpaceOnUse" gradientTransform="translate(102.322 29.8727) rotate(85.3036) scale(23.2123)">
<stop stop-color="white"/>
<stop offset="1" stop-color="white"/>
</radialGradient>
<radialGradient id="paint3_radial_1286_13381" cx="0" cy="0" r="1" gradientUnits="userSpaceOnUse" gradientTransform="translate(147.435 29.8727) rotate(85.3036) scale(23.2123)">
<stop stop-color="white"/>
<stop offset="1" stop-color="white"/>
</radialGradient>
<radialGradient id="paint4_radial_1286_13381" cx="0" cy="0" r="1" gradientUnits="userSpaceOnUse" gradientTransform="translate(192.538 29.8727) rotate(85.3036) scale(23.2123)">
<stop stop-color="white"/>
<stop offset="1" stop-color="white"/>
</radialGradient>
<radialGradient id="paint5_radial_1286_13381" cx="0" cy="0" r="1" gradientUnits="userSpaceOnUse" gradientTransform="translate(237.647 29.8727) rotate(85.3036) scale(23.2123)">
<stop stop-color="white"/>
<stop offset="1" stop-color="white"/>
</radialGradient>
<radialGradient id="paint6_radial_1286_13381" cx="0" cy="0" r="1" gradientUnits="userSpaceOnUse" gradientTransform="translate(282.757 29.8727) rotate(85.3036) scale(23.2123)">
<stop stop-color="white"/>
<stop offset="1" stop-color="white"/>
</radialGradient>
<radialGradient id="paint7_radial_1286_13381" cx="0" cy="0" r="1" gradientUnits="userSpaceOnUse" gradientTransform="translate(327.857 29.8727) rotate(85.3036) scale(23.2123)">
<stop stop-color="white"/>
<stop offset="1" stop-color="white"/>
</radialGradient>
<radialGradient id="paint8_radial_1286_13381" cx="0" cy="0" r="1" gradientUnits="userSpaceOnUse" gradientTransform="translate(12.1105 122.117) rotate(85.3036) scale(23.2123)">
<stop stop-color="white"/>
<stop offset="1" stop-color="white"/>
</radialGradient>
<radialGradient id="paint9_radial_1286_13381" cx="0" cy="0" r="1" gradientUnits="userSpaceOnUse" gradientTransform="translate(57.2168 122.117) rotate(85.3036) scale(23.2123)">
<stop stop-color="white"/>
<stop offset="1" stop-color="white"/>
</radialGradient>
<radialGradient id="paint10_radial_1286_13381" cx="0" cy="0" r="1" gradientUnits="userSpaceOnUse" gradientTransform="translate(102.322 122.117) rotate(85.3036) scale(23.2123)">
<stop stop-color="white"/>
<stop offset="1" stop-color="white"/>
</radialGradient>
<radialGradient id="paint11_radial_1286_13381" cx="0" cy="0" r="1" gradientUnits="userSpaceOnUse" gradientTransform="translate(147.435 122.117) rotate(85.3036) scale(23.2123)">
<stop stop-color="white"/>
<stop offset="1" stop-color="white"/>
</radialGradient>
<radialGradient id="paint12_radial_1286_13381" cx="0" cy="0" r="1" gradientUnits="userSpaceOnUse" gradientTransform="translate(192.538 122.117) rotate(85.3036) scale(23.2123)">
<stop stop-color="white"/>
<stop offset="1" stop-color="white"/>
</radialGradient>
<radialGradient id="paint13_radial_1286_13381" cx="0" cy="0" r="1" gradientUnits="userSpaceOnUse" gradientTransform="translate(237.647 122.117) rotate(85.3036) scale(23.2123)">
<stop stop-color="white"/>
<stop offset="1" stop-color="white"/>
</radialGradient>
<radialGradient id="paint14_radial_1286_13381" cx="0" cy="0" r="1" gradientUnits="userSpaceOnUse" gradientTransform="translate(282.757 122.117) rotate(85.3036) scale(23.2123)">
<stop stop-color="white"/>
<stop offset="1" stop-color="white"/>
</radialGradient>
<radialGradient id="paint15_radial_1286_13381" cx="0" cy="0" r="1" gradientUnits="userSpaceOnUse" gradientTransform="translate(327.857 122.117) rotate(85.3036) scale(23.2123)">
<stop stop-color="white"/>
<stop offset="1" stop-color="white"/>
</radialGradient>
<radialGradient id="paint16_radial_1286_13381" cx="0" cy="0" r="1" gradientUnits="userSpaceOnUse" gradientTransform="translate(12.1105 214.361) rotate(85.3036) scale(23.2123)">
<stop stop-color="white"/>
<stop offset="1" stop-color="white"/>
</radialGradient>
<radialGradient id="paint17_radial_1286_13381" cx="0" cy="0" r="1" gradientUnits="userSpaceOnUse" gradientTransform="translate(57.2168 214.361) rotate(85.3036) scale(23.2123)">
<stop stop-color="white"/>
<stop offset="1" stop-color="white"/>
</radialGradient>
<radialGradient id="paint18_radial_1286_13381" cx="0" cy="0" r="1" gradientUnits="userSpaceOnUse" gradientTransform="translate(102.322 214.361) rotate(85.3036) scale(23.2123)">
<stop stop-color="white"/>
<stop offset="1" stop-color="white"/>
</radialGradient>
<radialGradient id="paint19_radial_1286_13381" cx="0" cy="0" r="1" gradientUnits="userSpaceOnUse" gradientTransform="translate(147.435 214.361) rotate(85.3036) scale(23.2123)">
<stop stop-color="white"/>
<stop offset="1" stop-color="white"/>
</radialGradient>
<radialGradient id="paint20_radial_1286_13381" cx="0" cy="0" r="1" gradientUnits="userSpaceOnUse" gradientTransform="translate(192.538 214.361) rotate(85.3036) scale(23.2123)">
<stop stop-color="white"/>
<stop offset="1" stop-color="white"/>
</radialGradient>
<radialGradient id="paint21_radial_1286_13381" cx="0" cy="0" r="1" gradientUnits="userSpaceOnUse" gradientTransform="translate(237.647 214.361) rotate(85.3036) scale(23.2123)">
<stop stop-color="white"/>
<stop offset="1" stop-color="white"/>
</radialGradient>
<radialGradient id="paint22_radial_1286_13381" cx="0" cy="0" r="1" gradientUnits="userSpaceOnUse" gradientTransform="translate(282.757 214.361) rotate(85.3036) scale(23.2123)">
<stop stop-color="white"/>
<stop offset="1" stop-color="white"/>
</radialGradient>
<radialGradient id="paint23_radial_1286_13381" cx="0" cy="0" r="1" gradientUnits="userSpaceOnUse" gradientTransform="translate(327.857 214.361) rotate(85.3036) scale(23.2123)">
<stop stop-color="white"/>
<stop offset="1" stop-color="white"/>
</radialGradient>
<radialGradient id="paint24_radial_1286_13381" cx="0" cy="0" r="1" gradientUnits="userSpaceOnUse" gradientTransform="translate(12.1105 75.9944) rotate(85.3036) scale(23.2123)">
<stop stop-color="white"/>
<stop offset="1" stop-color="white"/>
</radialGradient>
<radialGradient id="paint25_radial_1286_13381" cx="0" cy="0" r="1" gradientUnits="userSpaceOnUse" gradientTransform="translate(57.2168 75.9944) rotate(85.3036) scale(23.2123)">
<stop stop-color="white"/>
<stop offset="1" stop-color="white"/>
</radialGradient>
<radialGradient id="paint26_radial_1286_13381" cx="0" cy="0" r="1" gradientUnits="userSpaceOnUse" gradientTransform="translate(102.322 75.9944) rotate(85.3036) scale(23.2123)">
<stop stop-color="white"/>
<stop offset="1" stop-color="white"/>
</radialGradient>
<radialGradient id="paint27_radial_1286_13381" cx="0" cy="0" r="1" gradientUnits="userSpaceOnUse" gradientTransform="translate(147.435 75.9944) rotate(85.3036) scale(23.2123)">
<stop stop-color="white"/>
<stop offset="1" stop-color="white"/>
</radialGradient>
<radialGradient id="paint28_radial_1286_13381" cx="0" cy="0" r="1" gradientUnits="userSpaceOnUse" gradientTransform="translate(192.538 75.9944) rotate(85.3036) scale(23.2123)">
<stop stop-color="white"/>
<stop offset="1" stop-color="white"/>
</radialGradient>
<radialGradient id="paint29_radial_1286_13381" cx="0" cy="0" r="1" gradientUnits="userSpaceOnUse" gradientTransform="translate(237.647 75.9944) rotate(85.3036) scale(23.2123)">
<stop stop-color="white"/>
<stop offset="1" stop-color="white"/>
</radialGradient>
<radialGradient id="paint30_radial_1286_13381" cx="0" cy="0" r="1" gradientUnits="userSpaceOnUse" gradientTransform="translate(282.757 75.9944) rotate(85.3036) scale(23.2123)">
<stop stop-color="white"/>
<stop offset="1" stop-color="white"/>
</radialGradient>
<radialGradient id="paint31_radial_1286_13381" cx="0" cy="0" r="1" gradientUnits="userSpaceOnUse" gradientTransform="translate(327.857 75.9944) rotate(85.3036) scale(23.2123)">
<stop stop-color="white"/>
<stop offset="1" stop-color="white"/>
</radialGradient>
<radialGradient id="paint32_radial_1286_13381" cx="0" cy="0" r="1" gradientUnits="userSpaceOnUse" gradientTransform="translate(12.1105 168.239) rotate(85.3036) scale(23.2123)">
<stop stop-color="white"/>
<stop offset="1" stop-color="white"/>
</radialGradient>
<radialGradient id="paint33_radial_1286_13381" cx="0" cy="0" r="1" gradientUnits="userSpaceOnUse" gradientTransform="translate(57.2168 168.239) rotate(85.3036) scale(23.2123)">
<stop stop-color="white"/>
<stop offset="1" stop-color="white"/>
</radialGradient>
<radialGradient id="paint34_radial_1286_13381" cx="0" cy="0" r="1" gradientUnits="userSpaceOnUse" gradientTransform="translate(102.322 168.239) rotate(85.3036) scale(23.2123)">
<stop stop-color="white"/>
<stop offset="1" stop-color="white"/>
</radialGradient>
<radialGradient id="paint35_radial_1286_13381" cx="0" cy="0" r="1" gradientUnits="userSpaceOnUse" gradientTransform="translate(147.435 168.239) rotate(85.3036) scale(23.2123)">
<stop stop-color="white"/>
<stop offset="1" stop-color="white"/>
</radialGradient>
<radialGradient id="paint36_radial_1286_13381" cx="0" cy="0" r="1" gradientUnits="userSpaceOnUse" gradientTransform="translate(192.538 168.239) rotate(85.3036) scale(23.2123)">
<stop stop-color="white"/>
<stop offset="1" stop-color="white"/>
</radialGradient>
<radialGradient id="paint37_radial_1286_13381" cx="0" cy="0" r="1" gradientUnits="userSpaceOnUse" gradientTransform="translate(237.647 168.239) rotate(85.3036) scale(23.2123)">
<stop stop-color="white"/>
<stop offset="1" stop-color="white"/>
</radialGradient>
<radialGradient id="paint38_radial_1286_13381" cx="0" cy="0" r="1" gradientUnits="userSpaceOnUse" gradientTransform="translate(282.757 168.239) rotate(85.3036) scale(23.2123)">
<stop stop-color="white"/>
<stop offset="1" stop-color="white"/>
</radialGradient>
<radialGradient id="paint39_radial_1286_13381" cx="0" cy="0" r="1" gradientUnits="userSpaceOnUse" gradientTransform="translate(327.857 168.239) rotate(85.3036) scale(23.2123)">
<stop stop-color="white"/>
<stop offset="1" stop-color="white"/>
</radialGradient>
<radialGradient id="paint40_radial_1286_13381" cx="0" cy="0" r="1" gradientUnits="userSpaceOnUse" gradientTransform="translate(12.1105 260.483) rotate(85.3036) scale(23.2123)">
<stop stop-color="white"/>
<stop offset="1" stop-color="white"/>
</radialGradient>
<radialGradient id="paint41_radial_1286_13381" cx="0" cy="0" r="1" gradientUnits="userSpaceOnUse" gradientTransform="translate(57.2168 260.483) rotate(85.3036) scale(23.2123)">
<stop stop-color="white"/>
<stop offset="1" stop-color="white"/>
</radialGradient>
<radialGradient id="paint42_radial_1286_13381" cx="0" cy="0" r="1" gradientUnits="userSpaceOnUse" gradientTransform="translate(102.322 260.483) rotate(85.3036) scale(23.2123)">
<stop stop-color="white"/>
<stop offset="1" stop-color="white"/>
</radialGradient>
<radialGradient id="paint43_radial_1286_13381" cx="0" cy="0" r="1" gradientUnits="userSpaceOnUse" gradientTransform="translate(147.435 260.483) rotate(85.3036) scale(23.2123)">
<stop stop-color="white"/>
<stop offset="1" stop-color="white"/>
</radialGradient>
<radialGradient id="paint44_radial_1286_13381" cx="0" cy="0" r="1" gradientUnits="userSpaceOnUse" gradientTransform="translate(192.538 260.483) rotate(85.3036) scale(23.2123)">
<stop stop-color="white"/>
<stop offset="1" stop-color="white"/>
</radialGradient>
<radialGradient id="paint45_radial_1286_13381" cx="0" cy="0" r="1" gradientUnits="userSpaceOnUse" gradientTransform="translate(237.647 260.483) rotate(85.3036) scale(23.2123)">
<stop stop-color="white"/>
<stop offset="1" stop-color="white"/>
</radialGradient>
<radialGradient id="paint46_radial_1286_13381" cx="0" cy="0" r="1" gradientUnits="userSpaceOnUse" gradientTransform="translate(282.757 260.483) rotate(85.3036) scale(23.2123)">
<stop stop-color="white"/>
<stop offset="1" stop-color="white"/>
</radialGradient>
<radialGradient id="paint47_radial_1286_13381" cx="0" cy="0" r="1" gradientUnits="userSpaceOnUse" gradientTransform="translate(327.857 260.483) rotate(85.3036) scale(23.2123)">
<stop stop-color="white"/>
<stop offset="1" stop-color="white"/>
</radialGradient>
</defs>
</svg>
