<svg width="96" height="121" viewBox="0 0 96 121" fill="none" xmlns="http://www.w3.org/2000/svg">
<rect width="2.745" height="2.745" rx="0.915" transform="matrix(0.895337 0.445389 -0.446684 0.894692 92.5693 0.375)" fill="url(#paint0_radial_1102_1110)" fill-opacity="0.8"/>
<rect width="2.745" height="2.745" rx="0.915" transform="matrix(0.895337 0.445389 -0.446684 0.894692 89.9746 6.17639)" fill="url(#paint1_radial_1102_1110)" fill-opacity="0.8"/>
<rect width="2.745" height="2.745" rx="0.915" transform="matrix(0.895337 0.445389 -0.446684 0.894692 87.1758 12.1395)" fill="url(#paint2_radial_1102_1110)" fill-opacity="0.8"/>
<rect width="2.745" height="2.745" rx="0.915" transform="matrix(0.895337 0.445389 -0.446684 0.894692 84.2832 18.0583)" fill="url(#paint3_radial_1102_1110)" fill-opacity="0.8"/>
<rect width="2.745" height="2.745" rx="0.915" transform="matrix(0.895337 0.445389 -0.446684 0.894692 81.3008 23.9323)" fill="url(#paint4_radial_1102_1110)" fill-opacity="0.8"/>
<rect width="2.745" height="2.745" rx="0.915" transform="matrix(0.895337 0.445389 -0.446684 0.894692 78.2266 29.7587)" fill="url(#paint5_radial_1102_1110)" fill-opacity="0.8"/>
<rect width="2.745" height="2.745" rx="0.915" transform="matrix(0.895337 0.445389 -0.446684 0.894692 75.0547 35.5323)" fill="url(#paint6_radial_1102_1110)" fill-opacity="0.8"/>
<rect width="2.745" height="2.745" rx="0.915" transform="matrix(0.895337 0.445389 -0.446684 0.894692 71.7773 41.2471)" fill="url(#paint7_radial_1102_1110)" fill-opacity="0.8"/>
<rect width="2.745" height="2.745" rx="0.915" transform="matrix(0.895337 0.445389 -0.446684 0.894692 68.3828 46.8936)" fill="url(#paint8_radial_1102_1110)" fill-opacity="0.8"/>
<rect width="2.745" height="2.745" rx="0.915" transform="matrix(0.895337 0.445389 -0.446684 0.894692 64.8604 52.4598)" fill="url(#paint9_radial_1102_1110)" fill-opacity="0.8"/>
<rect width="2.745" height="2.745" rx="0.915" transform="matrix(0.895337 0.445389 -0.446684 0.894692 61.1895 57.9303)" fill="url(#paint10_radial_1102_1110)" fill-opacity="0.8"/>
<rect width="2.745" height="2.745" rx="0.915" transform="matrix(0.895337 0.445389 -0.446684 0.894692 57.3477 63.2817)" fill="url(#paint11_radial_1102_1110)" fill-opacity="0.8"/>
<rect width="2.745" height="2.745" rx="0.915" transform="matrix(0.895337 0.445389 -0.446684 0.894692 53.3047 68.483)" fill="url(#paint12_radial_1102_1110)" fill-opacity="0.8"/>
<rect width="2.745" height="2.745" rx="0.915" transform="matrix(0.895337 0.445389 -0.446684 0.894692 49.0195 73.4861)" fill="url(#paint13_radial_1102_1110)" fill-opacity="0.8"/>
<rect width="2.745" height="2.745" rx="0.915" transform="matrix(0.895337 0.445389 -0.446684 0.894692 44.4326 78.2152)" fill="url(#paint14_radial_1102_1110)" fill-opacity="0.8"/>
<rect width="2.745" height="2.745" rx="0.915" transform="matrix(0.895337 0.445389 -0.446684 0.894692 39.4688 82.5464)" fill="url(#paint15_radial_1102_1110)" fill-opacity="0.8"/>
<rect width="2.745" height="2.745" rx="0.915" transform="matrix(0.895337 0.445389 -0.446684 0.894692 34.0234 86.2533)" fill="url(#paint16_radial_1102_1110)" fill-opacity="0.8"/>
<rect width="2.745" height="2.745" rx="0.915" transform="matrix(0.895337 0.445389 -0.446684 0.894692 27.9961 88.913)" fill="url(#paint17_radial_1102_1110)" fill-opacity="0.8"/>
<rect width="2.745" height="2.745" rx="0.915" transform="matrix(0.895337 0.445389 -0.446684 0.894692 21.4668 89.7903)" fill="url(#paint18_radial_1102_1110)" fill-opacity="0.8"/>
<rect width="2.745" height="2.745" rx="0.915" transform="matrix(0.895337 0.445389 -0.446684 0.894692 15.0742 88.2012)" fill="url(#paint19_radial_1102_1110)" fill-opacity="0.8"/>
<rect width="2.745" height="2.745" rx="0.915" transform="matrix(0.895337 0.445389 -0.446684 0.894692 9.63867 84.4791)" fill="url(#paint20_radial_1102_1110)" fill-opacity="0.8"/>
<rect width="2.745" height="2.745" rx="0.915" transform="matrix(0.895337 0.445389 -0.446684 0.894692 5.40039 79.6163)" fill="url(#paint21_radial_1102_1110)" fill-opacity="0.8"/>
<rect width="2.745" height="2.745" rx="0.915" transform="matrix(0.895337 0.445389 -0.446684 0.894692 2.58887 73.6589)" fill="url(#paint22_radial_1102_1110)" fill-opacity="0.8"/>
<rect width="2.745" height="2.745" rx="0.915" transform="matrix(0.895337 0.445389 -0.446684 0.894692 1.50586 67.1606)" fill="url(#paint23_radial_1102_1110)" fill-opacity="0.8"/>
<rect width="2.745" height="2.745" rx="0.915" transform="matrix(0.895337 0.445389 -0.446684 0.894692 2.00195 60.5917)" fill="url(#paint24_radial_1102_1110)" fill-opacity="0.8"/>
<rect width="2.745" height="2.745" rx="0.915" transform="matrix(0.895337 0.445389 -0.446684 0.894692 3.9248 54.2908)" fill="url(#paint25_radial_1102_1110)" fill-opacity="0.8"/>
<rect width="2.745" height="2.745" rx="0.915" transform="matrix(0.895337 0.445389 -0.446684 0.894692 7.18945 48.5688)" fill="url(#paint26_radial_1102_1110)" fill-opacity="0.8"/>
<rect width="2.745" height="2.745" rx="0.915" transform="matrix(0.895337 0.445389 -0.446684 0.894692 11.7451 43.8112)" fill="url(#paint27_radial_1102_1110)" fill-opacity="0.8"/>
<rect width="2.745" height="2.745" rx="0.915" transform="matrix(0.895337 0.445389 -0.446684 0.894692 17.4473 40.5117)" fill="url(#paint28_radial_1102_1110)" fill-opacity="0.8"/>
<rect width="2.745" height="2.745" rx="0.915" transform="matrix(0.895337 0.445389 -0.446684 0.894692 22.4209 39.3541)" fill="url(#paint29_radial_1102_1110)" fill-opacity="0.8"/>
<rect width="2.745" height="2.745" rx="0.915" transform="matrix(0.895337 0.445389 -0.446684 0.894692 27.9893 38.8523)" fill="url(#paint30_radial_1102_1110)" fill-opacity="0.8"/>
<rect width="2.745" height="2.745" rx="0.915" transform="matrix(0.895337 0.445389 -0.446684 0.894692 34.4404 40.1879)" fill="url(#paint31_radial_1102_1110)" fill-opacity="0.8"/>
<rect width="2.745" height="2.745" rx="0.915" transform="matrix(0.895337 0.445389 -0.446684 0.894692 40.3174 43.1638)" fill="url(#paint32_radial_1102_1110)" fill-opacity="0.8"/>
<rect width="2.745" height="2.745" rx="0.915" transform="matrix(0.895337 0.445389 -0.446684 0.894692 45.4463 47.2979)" fill="url(#paint33_radial_1102_1110)" fill-opacity="0.8"/>
<rect width="2.745" height="2.745" rx="0.915" transform="matrix(0.895337 0.445389 -0.446684 0.894692 49.8809 52.1699)" fill="url(#paint34_radial_1102_1110)" fill-opacity="0.8"/>
<rect width="2.745" height="2.745" rx="0.915" transform="matrix(0.895337 0.445389 -0.446684 0.894692 53.7383 57.5098)" fill="url(#paint35_radial_1102_1110)" fill-opacity="0.8"/>
<rect width="2.745" height="2.745" rx="0.915" transform="matrix(0.895337 0.445389 -0.446684 0.894692 57.1309 63.1575)" fill="url(#paint36_radial_1102_1110)" fill-opacity="0.8"/>
<rect width="2.745" height="2.745" rx="0.915" transform="matrix(0.895337 0.445389 -0.446684 0.894692 60.1426 69.0161)" fill="url(#paint37_radial_1102_1110)" fill-opacity="0.8"/>
<rect width="2.745" height="2.745" rx="0.915" transform="matrix(0.895337 0.445389 -0.446684 0.894692 62.8389 75.0271)" fill="url(#paint38_radial_1102_1110)" fill-opacity="0.8"/>
<rect width="2.745" height="2.745" rx="0.915" transform="matrix(0.895337 0.445389 -0.446684 0.894692 65.2686 81.1501)" fill="url(#paint39_radial_1102_1110)" fill-opacity="0.8"/>
<rect width="2.745" height="2.745" rx="0.915" transform="matrix(0.895337 0.445389 -0.446684 0.894692 67.4658 87.3607)" fill="url(#paint40_radial_1102_1110)" fill-opacity="0.8"/>
<rect width="2.745" height="2.745" rx="0.915" transform="matrix(0.895337 0.445389 -0.446684 0.894692 69.457 93.6403)" fill="url(#paint41_radial_1102_1110)" fill-opacity="0.8"/>
<rect width="2.745" height="2.745" rx="0.915" transform="matrix(0.895337 0.445389 -0.446684 0.894692 71.2734 100.026)" fill="url(#paint42_radial_1102_1110)" fill-opacity="0.8"/>
<rect width="2.745" height="2.745" rx="0.915" transform="matrix(0.895337 0.445389 -0.446684 0.894692 73.3545 107.43)" fill="url(#paint43_radial_1102_1110)" fill-opacity="0.8"/>
<rect width="2.745" height="2.745" rx="0.915" transform="matrix(0.895337 0.445389 -0.446684 0.894692 75.1846 116.58)" fill="url(#paint44_radial_1102_1110)" fill-opacity="0.8"/>
<defs>
<radialGradient id="paint0_radial_1102_1110" cx="0" cy="0" r="1" gradientUnits="userSpaceOnUse" gradientTransform="translate(1.3725 1.3725) rotate(85.3036) scale(2.63068)">
<stop stop-color="white"/>
<stop offset="1" stop-color="#FAFAFA"/>
</radialGradient>
<radialGradient id="paint1_radial_1102_1110" cx="0" cy="0" r="1" gradientUnits="userSpaceOnUse" gradientTransform="translate(1.3725 1.3725) rotate(85.3036) scale(2.63068)">
<stop stop-color="white"/>
<stop offset="1" stop-color="#FAFAFA"/>
</radialGradient>
<radialGradient id="paint2_radial_1102_1110" cx="0" cy="0" r="1" gradientUnits="userSpaceOnUse" gradientTransform="translate(1.3725 1.3725) rotate(85.3036) scale(2.63068)">
<stop stop-color="white"/>
<stop offset="1" stop-color="#FAFAFA"/>
</radialGradient>
<radialGradient id="paint3_radial_1102_1110" cx="0" cy="0" r="1" gradientUnits="userSpaceOnUse" gradientTransform="translate(1.3725 1.3725) rotate(85.3036) scale(2.63068)">
<stop stop-color="white"/>
<stop offset="1" stop-color="#FAFAFA"/>
</radialGradient>
<radialGradient id="paint4_radial_1102_1110" cx="0" cy="0" r="1" gradientUnits="userSpaceOnUse" gradientTransform="translate(1.3725 1.3725) rotate(85.3036) scale(2.63068)">
<stop stop-color="white"/>
<stop offset="1" stop-color="#FAFAFA"/>
</radialGradient>
<radialGradient id="paint5_radial_1102_1110" cx="0" cy="0" r="1" gradientUnits="userSpaceOnUse" gradientTransform="translate(1.3725 1.3725) rotate(85.3036) scale(2.63068)">
<stop stop-color="white"/>
<stop offset="1" stop-color="#FAFAFA"/>
</radialGradient>
<radialGradient id="paint6_radial_1102_1110" cx="0" cy="0" r="1" gradientUnits="userSpaceOnUse" gradientTransform="translate(1.3725 1.3725) rotate(85.3036) scale(2.63068)">
<stop stop-color="white"/>
<stop offset="1" stop-color="#FAFAFA"/>
</radialGradient>
<radialGradient id="paint7_radial_1102_1110" cx="0" cy="0" r="1" gradientUnits="userSpaceOnUse" gradientTransform="translate(1.3725 1.3725) rotate(85.3036) scale(2.63068)">
<stop stop-color="white"/>
<stop offset="1" stop-color="#FAFAFA"/>
</radialGradient>
<radialGradient id="paint8_radial_1102_1110" cx="0" cy="0" r="1" gradientUnits="userSpaceOnUse" gradientTransform="translate(1.3725 1.3725) rotate(85.3036) scale(2.63068)">
<stop stop-color="white"/>
<stop offset="1" stop-color="#FAFAFA"/>
</radialGradient>
<radialGradient id="paint9_radial_1102_1110" cx="0" cy="0" r="1" gradientUnits="userSpaceOnUse" gradientTransform="translate(1.3725 1.3725) rotate(85.3036) scale(2.63068)">
<stop stop-color="white"/>
<stop offset="1" stop-color="#FAFAFA"/>
</radialGradient>
<radialGradient id="paint10_radial_1102_1110" cx="0" cy="0" r="1" gradientUnits="userSpaceOnUse" gradientTransform="translate(1.3725 1.3725) rotate(85.3036) scale(2.63068)">
<stop stop-color="white"/>
<stop offset="1" stop-color="#FAFAFA"/>
</radialGradient>
<radialGradient id="paint11_radial_1102_1110" cx="0" cy="0" r="1" gradientUnits="userSpaceOnUse" gradientTransform="translate(1.3725 1.3725) rotate(85.3036) scale(2.63068)">
<stop stop-color="white"/>
<stop offset="1" stop-color="#FAFAFA"/>
</radialGradient>
<radialGradient id="paint12_radial_1102_1110" cx="0" cy="0" r="1" gradientUnits="userSpaceOnUse" gradientTransform="translate(1.3725 1.3725) rotate(85.3036) scale(2.63068)">
<stop stop-color="white"/>
<stop offset="1" stop-color="#FAFAFA"/>
</radialGradient>
<radialGradient id="paint13_radial_1102_1110" cx="0" cy="0" r="1" gradientUnits="userSpaceOnUse" gradientTransform="translate(1.3725 1.3725) rotate(85.3036) scale(2.63068)">
<stop stop-color="white"/>
<stop offset="1" stop-color="#FAFAFA"/>
</radialGradient>
<radialGradient id="paint14_radial_1102_1110" cx="0" cy="0" r="1" gradientUnits="userSpaceOnUse" gradientTransform="translate(1.3725 1.3725) rotate(85.3036) scale(2.63068)">
<stop stop-color="white"/>
<stop offset="1" stop-color="#FAFAFA"/>
</radialGradient>
<radialGradient id="paint15_radial_1102_1110" cx="0" cy="0" r="1" gradientUnits="userSpaceOnUse" gradientTransform="translate(1.3725 1.3725) rotate(85.3036) scale(2.63068)">
<stop stop-color="white"/>
<stop offset="1" stop-color="#FAFAFA"/>
</radialGradient>
<radialGradient id="paint16_radial_1102_1110" cx="0" cy="0" r="1" gradientUnits="userSpaceOnUse" gradientTransform="translate(1.3725 1.3725) rotate(85.3036) scale(2.63068)">
<stop stop-color="white"/>
<stop offset="1" stop-color="#FAFAFA"/>
</radialGradient>
<radialGradient id="paint17_radial_1102_1110" cx="0" cy="0" r="1" gradientUnits="userSpaceOnUse" gradientTransform="translate(1.3725 1.3725) rotate(85.3036) scale(2.63068)">
<stop stop-color="white"/>
<stop offset="1" stop-color="#FAFAFA"/>
</radialGradient>
<radialGradient id="paint18_radial_1102_1110" cx="0" cy="0" r="1" gradientUnits="userSpaceOnUse" gradientTransform="translate(1.3725 1.3725) rotate(85.3036) scale(2.63068)">
<stop stop-color="white"/>
<stop offset="1" stop-color="#FAFAFA"/>
</radialGradient>
<radialGradient id="paint19_radial_1102_1110" cx="0" cy="0" r="1" gradientUnits="userSpaceOnUse" gradientTransform="translate(1.3725 1.3725) rotate(85.3036) scale(2.63068)">
<stop stop-color="white"/>
<stop offset="1" stop-color="#FAFAFA"/>
</radialGradient>
<radialGradient id="paint20_radial_1102_1110" cx="0" cy="0" r="1" gradientUnits="userSpaceOnUse" gradientTransform="translate(1.3725 1.3725) rotate(85.3036) scale(2.63068)">
<stop stop-color="white"/>
<stop offset="1" stop-color="#FAFAFA"/>
</radialGradient>
<radialGradient id="paint21_radial_1102_1110" cx="0" cy="0" r="1" gradientUnits="userSpaceOnUse" gradientTransform="translate(1.3725 1.3725) rotate(85.3036) scale(2.63068)">
<stop stop-color="white"/>
<stop offset="1" stop-color="#FAFAFA"/>
</radialGradient>
<radialGradient id="paint22_radial_1102_1110" cx="0" cy="0" r="1" gradientUnits="userSpaceOnUse" gradientTransform="translate(1.3725 1.3725) rotate(85.3036) scale(2.63068)">
<stop stop-color="white"/>
<stop offset="1" stop-color="#FAFAFA"/>
</radialGradient>
<radialGradient id="paint23_radial_1102_1110" cx="0" cy="0" r="1" gradientUnits="userSpaceOnUse" gradientTransform="translate(1.3725 1.3725) rotate(85.3036) scale(2.63068)">
<stop stop-color="white"/>
<stop offset="1" stop-color="#FAFAFA"/>
</radialGradient>
<radialGradient id="paint24_radial_1102_1110" cx="0" cy="0" r="1" gradientUnits="userSpaceOnUse" gradientTransform="translate(1.3725 1.3725) rotate(85.3036) scale(2.63068)">
<stop stop-color="white"/>
<stop offset="1" stop-color="#FAFAFA"/>
</radialGradient>
<radialGradient id="paint25_radial_1102_1110" cx="0" cy="0" r="1" gradientUnits="userSpaceOnUse" gradientTransform="translate(1.3725 1.3725) rotate(85.3036) scale(2.63068)">
<stop stop-color="white"/>
<stop offset="1" stop-color="#FAFAFA"/>
</radialGradient>
<radialGradient id="paint26_radial_1102_1110" cx="0" cy="0" r="1" gradientUnits="userSpaceOnUse" gradientTransform="translate(1.3725 1.3725) rotate(85.3036) scale(2.63068)">
<stop stop-color="white"/>
<stop offset="1" stop-color="#FAFAFA"/>
</radialGradient>
<radialGradient id="paint27_radial_1102_1110" cx="0" cy="0" r="1" gradientUnits="userSpaceOnUse" gradientTransform="translate(1.3725 1.3725) rotate(85.3036) scale(2.63068)">
<stop stop-color="white"/>
<stop offset="1" stop-color="#FAFAFA"/>
</radialGradient>
<radialGradient id="paint28_radial_1102_1110" cx="0" cy="0" r="1" gradientUnits="userSpaceOnUse" gradientTransform="translate(1.3725 1.3725) rotate(85.3036) scale(2.63068)">
<stop stop-color="white"/>
<stop offset="1" stop-color="#FAFAFA"/>
</radialGradient>
<radialGradient id="paint29_radial_1102_1110" cx="0" cy="0" r="1" gradientUnits="userSpaceOnUse" gradientTransform="translate(1.3725 1.3725) rotate(85.3036) scale(2.63068)">
<stop stop-color="white"/>
<stop offset="1" stop-color="#FAFAFA"/>
</radialGradient>
<radialGradient id="paint30_radial_1102_1110" cx="0" cy="0" r="1" gradientUnits="userSpaceOnUse" gradientTransform="translate(1.3725 1.3725) rotate(85.3036) scale(2.63068)">
<stop stop-color="white"/>
<stop offset="1" stop-color="#FAFAFA"/>
</radialGradient>
<radialGradient id="paint31_radial_1102_1110" cx="0" cy="0" r="1" gradientUnits="userSpaceOnUse" gradientTransform="translate(1.3725 1.3725) rotate(85.3036) scale(2.63068)">
<stop stop-color="white"/>
<stop offset="1" stop-color="#FAFAFA"/>
</radialGradient>
<radialGradient id="paint32_radial_1102_1110" cx="0" cy="0" r="1" gradientUnits="userSpaceOnUse" gradientTransform="translate(1.3725 1.3725) rotate(85.3036) scale(2.63068)">
<stop stop-color="white"/>
<stop offset="1" stop-color="#FAFAFA"/>
</radialGradient>
<radialGradient id="paint33_radial_1102_1110" cx="0" cy="0" r="1" gradientUnits="userSpaceOnUse" gradientTransform="translate(1.3725 1.3725) rotate(85.3036) scale(2.63068)">
<stop stop-color="white"/>
<stop offset="1" stop-color="#FAFAFA"/>
</radialGradient>
<radialGradient id="paint34_radial_1102_1110" cx="0" cy="0" r="1" gradientUnits="userSpaceOnUse" gradientTransform="translate(1.3725 1.3725) rotate(85.3036) scale(2.63068)">
<stop stop-color="white"/>
<stop offset="1" stop-color="#FAFAFA"/>
</radialGradient>
<radialGradient id="paint35_radial_1102_1110" cx="0" cy="0" r="1" gradientUnits="userSpaceOnUse" gradientTransform="translate(1.3725 1.3725) rotate(85.3036) scale(2.63068)">
<stop stop-color="white"/>
<stop offset="1" stop-color="#FAFAFA"/>
</radialGradient>
<radialGradient id="paint36_radial_1102_1110" cx="0" cy="0" r="1" gradientUnits="userSpaceOnUse" gradientTransform="translate(1.3725 1.3725) rotate(85.3036) scale(2.63068)">
<stop stop-color="white"/>
<stop offset="1" stop-color="#FAFAFA"/>
</radialGradient>
<radialGradient id="paint37_radial_1102_1110" cx="0" cy="0" r="1" gradientUnits="userSpaceOnUse" gradientTransform="translate(1.3725 1.3725) rotate(85.3036) scale(2.63068)">
<stop stop-color="white"/>
<stop offset="1" stop-color="#FAFAFA"/>
</radialGradient>
<radialGradient id="paint38_radial_1102_1110" cx="0" cy="0" r="1" gradientUnits="userSpaceOnUse" gradientTransform="translate(1.3725 1.3725) rotate(85.3036) scale(2.63068)">
<stop stop-color="white"/>
<stop offset="1" stop-color="#FAFAFA"/>
</radialGradient>
<radialGradient id="paint39_radial_1102_1110" cx="0" cy="0" r="1" gradientUnits="userSpaceOnUse" gradientTransform="translate(1.3725 1.3725) rotate(85.3036) scale(2.63068)">
<stop stop-color="white"/>
<stop offset="1" stop-color="#FAFAFA"/>
</radialGradient>
<radialGradient id="paint40_radial_1102_1110" cx="0" cy="0" r="1" gradientUnits="userSpaceOnUse" gradientTransform="translate(1.3725 1.3725) rotate(85.3036) scale(2.63068)">
<stop stop-color="white"/>
<stop offset="1" stop-color="#FAFAFA"/>
</radialGradient>
<radialGradient id="paint41_radial_1102_1110" cx="0" cy="0" r="1" gradientUnits="userSpaceOnUse" gradientTransform="translate(1.3725 1.3725) rotate(85.3036) scale(2.63068)">
<stop stop-color="white"/>
<stop offset="1" stop-color="#FAFAFA"/>
</radialGradient>
<radialGradient id="paint42_radial_1102_1110" cx="0" cy="0" r="1" gradientUnits="userSpaceOnUse" gradientTransform="translate(1.3725 1.3725) rotate(85.3036) scale(2.63068)">
<stop stop-color="white"/>
<stop offset="1" stop-color="#FAFAFA"/>
</radialGradient>
<radialGradient id="paint43_radial_1102_1110" cx="0" cy="0" r="1" gradientUnits="userSpaceOnUse" gradientTransform="translate(1.3725 1.3725) rotate(85.3036) scale(2.63068)">
<stop stop-color="white"/>
<stop offset="1" stop-color="#FAFAFA"/>
</radialGradient>
<radialGradient id="paint44_radial_1102_1110" cx="0" cy="0" r="1" gradientUnits="userSpaceOnUse" gradientTransform="translate(1.3725 1.3725) rotate(85.3036) scale(2.63068)">
<stop stop-color="white"/>
<stop offset="1" stop-color="#FAFAFA"/>
</radialGradient>
</defs>
</svg>
