<svg width="89" height="95" viewBox="0 0 89 95" fill="none" xmlns="http://www.w3.org/2000/svg">
<rect width="2.745" height="2.745" rx="0.915" transform="matrix(0.884092 0.467313 0.466033 -0.884767 11.0967 25.2054)" fill="url(#paint0_radial_1102_1092)" fill-opacity="0.8"/>
<rect width="2.745" height="2.745" rx="0.915" transform="matrix(0.884092 0.467313 0.466033 -0.884767 9.64648 31.8163)" fill="url(#paint1_radial_1102_1092)" fill-opacity="0.8"/>
<rect width="2.745" height="2.745" rx="0.915" transform="matrix(0.884092 0.467313 0.466033 -0.884767 9.09473 38.5618)" fill="url(#paint2_radial_1102_1092)" fill-opacity="0.8"/>
<rect width="2.745" height="2.745" rx="0.915" transform="matrix(0.884092 0.467313 0.466033 -0.884767 10.124 45.2509)" fill="url(#paint3_radial_1102_1092)" fill-opacity="0.8"/>
<rect width="2.745" height="2.745" rx="0.915" transform="matrix(0.884092 0.467313 0.466033 -0.884767 13.6533 50.6205)" fill="url(#paint4_radial_1102_1092)" fill-opacity="0.8"/>
<rect width="2.745" height="2.745" rx="0.915" transform="matrix(0.884092 0.467313 0.466033 -0.884767 19.5225 54.235)" fill="url(#paint5_radial_1102_1092)" fill-opacity="0.8"/>
<rect width="2.745" height="2.745" rx="0.915" transform="matrix(0.884092 0.467313 0.466033 -0.884767 26.21 55.2775)" fill="url(#paint6_radial_1102_1092)" fill-opacity="0.8"/>
<rect width="2.745" height="2.745" rx="0.915" transform="matrix(0.884092 0.467313 0.466033 -0.884767 32.8164 53.806)" fill="url(#paint7_radial_1102_1092)" fill-opacity="0.8"/>
<rect width="2.745" height="2.745" rx="0.915" transform="matrix(0.884092 0.467313 0.466033 -0.884767 38.9873 51.027)" fill="url(#paint8_radial_1102_1092)" fill-opacity="0.8"/>
<rect width="2.745" height="2.745" rx="0.915" transform="matrix(0.884092 0.467313 0.466033 -0.884767 44.9844 47.8881)" fill="url(#paint9_radial_1102_1092)" fill-opacity="0.8"/>
<rect width="2.745" height="2.745" rx="0.915" transform="matrix(0.884092 0.467313 0.466033 -0.884767 51.1494 45.0957)" fill="url(#paint10_radial_1102_1092)" fill-opacity="0.8"/>
<rect width="2.745" height="2.745" rx="0.915" transform="matrix(0.884092 0.467313 0.466033 -0.884767 57.7354 43.5371)" fill="url(#paint11_radial_1102_1092)" fill-opacity="0.8"/>
<rect width="2.745" height="2.745" rx="0.915" transform="matrix(0.884092 0.467313 0.466033 -0.884767 64.458 44.3204)" fill="url(#paint12_radial_1102_1092)" fill-opacity="0.8"/>
<rect width="2.745" height="2.745" rx="0.915" transform="matrix(0.884092 0.467313 0.466033 -0.884767 70.4102 47.5436)" fill="url(#paint13_radial_1102_1092)" fill-opacity="0.8"/>
<rect width="2.745" height="2.745" rx="0.915" transform="matrix(0.884092 0.467313 0.466033 -0.884767 75.625 52.4592)" fill="url(#paint14_radial_1102_1092)" fill-opacity="0.8"/>
<rect width="2.745" height="2.745" rx="0.915" transform="matrix(0.884092 0.467313 0.466033 -0.884767 79.8193 57.7714)" fill="url(#paint15_radial_1102_1092)" fill-opacity="0.8"/>
<rect width="2.745" height="2.745" rx="0.915" transform="matrix(0.884092 0.467313 0.466033 -0.884767 83.376 63.5303)" fill="url(#paint16_radial_1102_1092)" fill-opacity="0.8"/>
<defs>
<radialGradient id="paint0_radial_1102_1092" cx="0" cy="0" r="1" gradientUnits="userSpaceOnUse" gradientTransform="translate(1.3725 1.3725) rotate(85.3036) scale(2.63068)">
<stop stop-color="white"/>
<stop offset="1" stop-color="#FAFAFA"/>
</radialGradient>
<radialGradient id="paint1_radial_1102_1092" cx="0" cy="0" r="1" gradientUnits="userSpaceOnUse" gradientTransform="translate(1.3725 1.3725) rotate(85.3036) scale(2.63068)">
<stop stop-color="white"/>
<stop offset="1" stop-color="#FAFAFA"/>
</radialGradient>
<radialGradient id="paint2_radial_1102_1092" cx="0" cy="0" r="1" gradientUnits="userSpaceOnUse" gradientTransform="translate(1.3725 1.3725) rotate(85.3036) scale(2.63068)">
<stop stop-color="white"/>
<stop offset="1" stop-color="#FAFAFA"/>
</radialGradient>
<radialGradient id="paint3_radial_1102_1092" cx="0" cy="0" r="1" gradientUnits="userSpaceOnUse" gradientTransform="translate(1.3725 1.3725) rotate(85.3036) scale(2.63068)">
<stop stop-color="white"/>
<stop offset="1" stop-color="#FAFAFA"/>
</radialGradient>
<radialGradient id="paint4_radial_1102_1092" cx="0" cy="0" r="1" gradientUnits="userSpaceOnUse" gradientTransform="translate(1.3725 1.3725) rotate(85.3036) scale(2.63068)">
<stop stop-color="white"/>
<stop offset="1" stop-color="#FAFAFA"/>
</radialGradient>
<radialGradient id="paint5_radial_1102_1092" cx="0" cy="0" r="1" gradientUnits="userSpaceOnUse" gradientTransform="translate(1.3725 1.3725) rotate(85.3036) scale(2.63068)">
<stop stop-color="white"/>
<stop offset="1" stop-color="#FAFAFA"/>
</radialGradient>
<radialGradient id="paint6_radial_1102_1092" cx="0" cy="0" r="1" gradientUnits="userSpaceOnUse" gradientTransform="translate(1.3725 1.3725) rotate(85.3036) scale(2.63068)">
<stop stop-color="white"/>
<stop offset="1" stop-color="#FAFAFA"/>
</radialGradient>
<radialGradient id="paint7_radial_1102_1092" cx="0" cy="0" r="1" gradientUnits="userSpaceOnUse" gradientTransform="translate(1.3725 1.3725) rotate(85.3036) scale(2.63068)">
<stop stop-color="white"/>
<stop offset="1" stop-color="#FAFAFA"/>
</radialGradient>
<radialGradient id="paint8_radial_1102_1092" cx="0" cy="0" r="1" gradientUnits="userSpaceOnUse" gradientTransform="translate(1.3725 1.3725) rotate(85.3036) scale(2.63068)">
<stop stop-color="white"/>
<stop offset="1" stop-color="#FAFAFA"/>
</radialGradient>
<radialGradient id="paint9_radial_1102_1092" cx="0" cy="0" r="1" gradientUnits="userSpaceOnUse" gradientTransform="translate(1.3725 1.3725) rotate(85.3036) scale(2.63068)">
<stop stop-color="white"/>
<stop offset="1" stop-color="#FAFAFA"/>
</radialGradient>
<radialGradient id="paint10_radial_1102_1092" cx="0" cy="0" r="1" gradientUnits="userSpaceOnUse" gradientTransform="translate(1.3725 1.3725) rotate(85.3036) scale(2.63068)">
<stop stop-color="white"/>
<stop offset="1" stop-color="#FAFAFA"/>
</radialGradient>
<radialGradient id="paint11_radial_1102_1092" cx="0" cy="0" r="1" gradientUnits="userSpaceOnUse" gradientTransform="translate(1.3725 1.3725) rotate(85.3036) scale(2.63068)">
<stop stop-color="white"/>
<stop offset="1" stop-color="#FAFAFA"/>
</radialGradient>
<radialGradient id="paint12_radial_1102_1092" cx="0" cy="0" r="1" gradientUnits="userSpaceOnUse" gradientTransform="translate(1.3725 1.3725) rotate(85.3036) scale(2.63068)">
<stop stop-color="white"/>
<stop offset="1" stop-color="#FAFAFA"/>
</radialGradient>
<radialGradient id="paint13_radial_1102_1092" cx="0" cy="0" r="1" gradientUnits="userSpaceOnUse" gradientTransform="translate(1.3725 1.3725) rotate(85.3036) scale(2.63068)">
<stop stop-color="white"/>
<stop offset="1" stop-color="#FAFAFA"/>
</radialGradient>
<radialGradient id="paint14_radial_1102_1092" cx="0" cy="0" r="1" gradientUnits="userSpaceOnUse" gradientTransform="translate(1.3725 1.3725) rotate(85.3036) scale(2.63068)">
<stop stop-color="white"/>
<stop offset="1" stop-color="#FAFAFA"/>
</radialGradient>
<radialGradient id="paint15_radial_1102_1092" cx="0" cy="0" r="1" gradientUnits="userSpaceOnUse" gradientTransform="translate(1.3725 1.3725) rotate(85.3036) scale(2.63068)">
<stop stop-color="white"/>
<stop offset="1" stop-color="#FAFAFA"/>
</radialGradient>
<radialGradient id="paint16_radial_1102_1092" cx="0" cy="0" r="1" gradientUnits="userSpaceOnUse" gradientTransform="translate(1.3725 1.3725) rotate(85.3036) scale(2.63068)">
<stop stop-color="white"/>
<stop offset="1" stop-color="#FAFAFA"/>
</radialGradient>
</defs>
</svg>
