<svg width="188" height="177" viewBox="0 0 188 177" fill="none" xmlns="http://www.w3.org/2000/svg">
<g opacity="0.7">
<g opacity="0.5">
<rect x="0.96875" y="12.1703" width="16.1017" height="16.1017" rx="3.60718" transform="rotate(-45 0.96875 12.1703)" fill="url(#paint0_radial_1102_23082)"/>
<rect x="30.9551" y="12.1697" width="16.1017" height="16.1017" rx="3.60718" transform="rotate(-45 30.9551 12.1697)" fill="url(#paint1_radial_1102_23082)"/>
<rect x="60.9404" y="12.1697" width="16.1017" height="16.1017" rx="3.60718" transform="rotate(-45 60.9404 12.1697)" fill="url(#paint2_radial_1102_23082)"/>
<rect x="90.9307" y="12.1697" width="16.1017" height="16.1017" rx="3.60718" transform="rotate(-45 90.9307 12.1697)" fill="url(#paint3_radial_1102_23082)"/>
<rect x="120.913" y="12.1697" width="16.1017" height="16.1017" rx="3.60718" transform="rotate(-45 120.913 12.1697)" fill="url(#paint4_radial_1102_23082)"/>
<rect x="150.902" y="12.1697" width="16.1017" height="16.1017" rx="3.60718" transform="rotate(-45 150.902 12.1697)" fill="url(#paint5_radial_1102_23082)"/>
<rect x="180.891" y="12.1697" width="16.1017" height="16.1017" rx="3.60718" transform="rotate(-45 180.891 12.1697)" fill="url(#paint6_radial_1102_23082)"/>
</g>
<g opacity="0.5">
<rect x="0.96875" y="73.4923" width="16.1017" height="16.1017" rx="3.60718" transform="rotate(-45 0.96875 73.4923)" fill="url(#paint7_radial_1102_23082)"/>
<rect x="30.9551" y="73.4923" width="16.1017" height="16.1017" rx="3.60718" transform="rotate(-45 30.9551 73.4923)" fill="url(#paint8_radial_1102_23082)"/>
<rect x="60.9404" y="73.4923" width="16.1017" height="16.1017" rx="3.60718" transform="rotate(-45 60.9404 73.4923)" fill="url(#paint9_radial_1102_23082)"/>
<rect x="90.9307" y="73.4923" width="16.1017" height="16.1017" rx="3.60718" transform="rotate(-45 90.9307 73.4923)" fill="url(#paint10_radial_1102_23082)"/>
<rect x="120.913" y="73.4923" width="16.1017" height="16.1017" rx="3.60718" transform="rotate(-45 120.913 73.4923)" fill="url(#paint11_radial_1102_23082)"/>
<rect x="150.902" y="73.4923" width="16.1017" height="16.1017" rx="3.60718" transform="rotate(-45 150.902 73.4923)" fill="url(#paint12_radial_1102_23082)"/>
<rect x="180.891" y="73.4923" width="16.1017" height="16.1017" rx="3.60718" transform="rotate(-45 180.891 73.4923)" fill="url(#paint13_radial_1102_23082)"/>
</g>
<g opacity="0.5">
<rect x="0.96875" y="134.815" width="16.1017" height="16.1017" rx="3.60718" transform="rotate(-45 0.96875 134.815)" fill="url(#paint14_radial_1102_23082)"/>
<rect x="30.9551" y="134.814" width="16.1017" height="16.1017" rx="3.60718" transform="rotate(-45 30.9551 134.814)" fill="url(#paint15_radial_1102_23082)"/>
<rect x="60.9404" y="134.814" width="16.1017" height="16.1017" rx="3.60718" transform="rotate(-45 60.9404 134.814)" fill="url(#paint16_radial_1102_23082)"/>
<rect x="90.9307" y="134.815" width="16.1017" height="16.1017" rx="3.60718" transform="rotate(-45 90.9307 134.815)" fill="url(#paint17_radial_1102_23082)"/>
<rect x="120.913" y="134.814" width="16.1017" height="16.1017" rx="3.60718" transform="rotate(-45 120.913 134.814)" fill="url(#paint18_radial_1102_23082)"/>
<rect x="150.902" y="134.814" width="16.1017" height="16.1017" rx="3.60718" transform="rotate(-45 150.902 134.814)" fill="url(#paint19_radial_1102_23082)"/>
<rect x="180.891" y="134.814" width="16.1017" height="16.1017" rx="3.60718" transform="rotate(-45 180.891 134.814)" fill="url(#paint20_radial_1102_23082)"/>
</g>
<g opacity="0.5">
<rect x="0.96875" y="42.8309" width="16.1017" height="16.1017" rx="3.60718" transform="rotate(-45 0.96875 42.8309)" fill="url(#paint21_radial_1102_23082)"/>
<rect x="30.9551" y="42.8303" width="16.1017" height="16.1017" rx="3.60718" transform="rotate(-45 30.9551 42.8303)" fill="url(#paint22_radial_1102_23082)"/>
<rect x="60.9404" y="42.8303" width="16.1017" height="16.1017" rx="3.60718" transform="rotate(-45 60.9404 42.8303)" fill="url(#paint23_radial_1102_23082)"/>
<rect x="90.9307" y="42.8303" width="16.1017" height="16.1017" rx="3.60718" transform="rotate(-45 90.9307 42.8303)" fill="url(#paint24_radial_1102_23082)"/>
<rect x="120.913" y="42.8303" width="16.1017" height="16.1017" rx="3.60718" transform="rotate(-45 120.913 42.8303)" fill="url(#paint25_radial_1102_23082)"/>
<rect x="150.902" y="42.8303" width="16.1017" height="16.1017" rx="3.60718" transform="rotate(-45 150.902 42.8303)" fill="url(#paint26_radial_1102_23082)"/>
<rect x="180.891" y="42.8303" width="16.1017" height="16.1017" rx="3.60718" transform="rotate(-45 180.891 42.8303)" fill="url(#paint27_radial_1102_23082)"/>
</g>
<g opacity="0.5">
<rect x="0.96875" y="104.154" width="16.1017" height="16.1017" rx="3.60718" transform="rotate(-45 0.96875 104.154)" fill="url(#paint28_radial_1102_23082)"/>
<rect x="30.9551" y="104.154" width="16.1017" height="16.1017" rx="3.60718" transform="rotate(-45 30.9551 104.154)" fill="url(#paint29_radial_1102_23082)"/>
<rect x="60.9404" y="104.154" width="16.1017" height="16.1017" rx="3.60718" transform="rotate(-45 60.9404 104.154)" fill="url(#paint30_radial_1102_23082)"/>
<rect x="90.9307" y="104.154" width="16.1017" height="16.1017" rx="3.60718" transform="rotate(-45 90.9307 104.154)" fill="url(#paint31_radial_1102_23082)"/>
<rect x="120.913" y="104.154" width="16.1017" height="16.1017" rx="3.60718" transform="rotate(-45 120.913 104.154)" fill="url(#paint32_radial_1102_23082)"/>
<rect x="150.902" y="104.154" width="16.1017" height="16.1017" rx="3.60718" transform="rotate(-45 150.902 104.154)" fill="url(#paint33_radial_1102_23082)"/>
<rect x="180.891" y="104.154" width="16.1017" height="16.1017" rx="3.60718" transform="rotate(-45 180.891 104.154)" fill="url(#paint34_radial_1102_23082)"/>
</g>
<g opacity="0.5">
<rect x="0.96875" y="165.476" width="16.1017" height="16.1017" rx="3.60718" transform="rotate(-45 0.96875 165.476)" fill="url(#paint35_radial_1102_23082)"/>
<rect x="30.9551" y="165.475" width="16.1017" height="16.1017" rx="3.60718" transform="rotate(-45 30.9551 165.475)" fill="url(#paint36_radial_1102_23082)"/>
<rect x="60.9404" y="165.475" width="16.1017" height="16.1017" rx="3.60718" transform="rotate(-45 60.9404 165.475)" fill="url(#paint37_radial_1102_23082)"/>
<rect x="90.9307" y="165.476" width="16.1017" height="16.1017" rx="3.60718" transform="rotate(-45 90.9307 165.476)" fill="url(#paint38_radial_1102_23082)"/>
<rect x="120.913" y="165.475" width="16.1017" height="16.1017" rx="3.60718" transform="rotate(-45 120.913 165.475)" fill="url(#paint39_radial_1102_23082)"/>
<rect x="150.902" y="165.475" width="16.1017" height="16.1017" rx="3.60718" transform="rotate(-45 150.902 165.475)" fill="url(#paint40_radial_1102_23082)"/>
<rect x="180.891" y="165.475" width="16.1017" height="16.1017" rx="3.60718" transform="rotate(-45 180.891 165.475)" fill="url(#paint41_radial_1102_23082)"/>
</g>
</g>
<defs>
<radialGradient id="paint0_radial_1102_23082" cx="0" cy="0" r="1" gradientUnits="userSpaceOnUse" gradientTransform="translate(9.01962 20.2212) rotate(85.3036) scale(15.4311)">
<stop stop-color="#F1F1F1"/>
<stop offset="1" stop-color="#FAFAFA"/>
</radialGradient>
<radialGradient id="paint1_radial_1102_23082" cx="0" cy="0" r="1" gradientUnits="userSpaceOnUse" gradientTransform="translate(39.0059 20.2205) rotate(85.3036) scale(15.4311)">
<stop stop-color="#F1F1F1"/>
<stop offset="1" stop-color="#FAFAFA"/>
</radialGradient>
<radialGradient id="paint2_radial_1102_23082" cx="0" cy="0" r="1" gradientUnits="userSpaceOnUse" gradientTransform="translate(68.9913 20.2205) rotate(85.3036) scale(15.4311)">
<stop stop-color="#F1F1F1"/>
<stop offset="1" stop-color="#FAFAFA"/>
</radialGradient>
<radialGradient id="paint3_radial_1102_23082" cx="0" cy="0" r="1" gradientUnits="userSpaceOnUse" gradientTransform="translate(98.9815 20.2205) rotate(85.3036) scale(15.4311)">
<stop stop-color="#F1F1F1"/>
<stop offset="1" stop-color="#FAFAFA"/>
</radialGradient>
<radialGradient id="paint4_radial_1102_23082" cx="0" cy="0" r="1" gradientUnits="userSpaceOnUse" gradientTransform="translate(128.964 20.2205) rotate(85.3036) scale(15.4311)">
<stop stop-color="#F1F1F1"/>
<stop offset="1" stop-color="#FAFAFA"/>
</radialGradient>
<radialGradient id="paint5_radial_1102_23082" cx="0" cy="0" r="1" gradientUnits="userSpaceOnUse" gradientTransform="translate(158.953 20.2205) rotate(85.3036) scale(15.4311)">
<stop stop-color="#F1F1F1"/>
<stop offset="1" stop-color="#FAFAFA"/>
</radialGradient>
<radialGradient id="paint6_radial_1102_23082" cx="0" cy="0" r="1" gradientUnits="userSpaceOnUse" gradientTransform="translate(188.941 20.2205) rotate(85.3036) scale(15.4311)">
<stop stop-color="#F1F1F1"/>
<stop offset="1" stop-color="#FAFAFA"/>
</radialGradient>
<radialGradient id="paint7_radial_1102_23082" cx="0" cy="0" r="1" gradientUnits="userSpaceOnUse" gradientTransform="translate(9.01962 81.5432) rotate(85.3036) scale(15.4311)">
<stop stop-color="#F1F1F1"/>
<stop offset="1" stop-color="#FAFAFA"/>
</radialGradient>
<radialGradient id="paint8_radial_1102_23082" cx="0" cy="0" r="1" gradientUnits="userSpaceOnUse" gradientTransform="translate(39.0059 81.5432) rotate(85.3036) scale(15.4311)">
<stop stop-color="#F1F1F1"/>
<stop offset="1" stop-color="#FAFAFA"/>
</radialGradient>
<radialGradient id="paint9_radial_1102_23082" cx="0" cy="0" r="1" gradientUnits="userSpaceOnUse" gradientTransform="translate(68.9913 81.5432) rotate(85.3036) scale(15.4311)">
<stop stop-color="#F1F1F1"/>
<stop offset="1" stop-color="#FAFAFA"/>
</radialGradient>
<radialGradient id="paint10_radial_1102_23082" cx="0" cy="0" r="1" gradientUnits="userSpaceOnUse" gradientTransform="translate(98.9815 81.5432) rotate(85.3036) scale(15.4311)">
<stop stop-color="#F1F1F1"/>
<stop offset="1" stop-color="#FAFAFA"/>
</radialGradient>
<radialGradient id="paint11_radial_1102_23082" cx="0" cy="0" r="1" gradientUnits="userSpaceOnUse" gradientTransform="translate(128.964 81.5432) rotate(85.3036) scale(15.4311)">
<stop stop-color="#F1F1F1"/>
<stop offset="1" stop-color="#FAFAFA"/>
</radialGradient>
<radialGradient id="paint12_radial_1102_23082" cx="0" cy="0" r="1" gradientUnits="userSpaceOnUse" gradientTransform="translate(158.953 81.5432) rotate(85.3036) scale(15.4311)">
<stop stop-color="#F1F1F1"/>
<stop offset="1" stop-color="#FAFAFA"/>
</radialGradient>
<radialGradient id="paint13_radial_1102_23082" cx="0" cy="0" r="1" gradientUnits="userSpaceOnUse" gradientTransform="translate(188.941 81.5432) rotate(85.3036) scale(15.4311)">
<stop stop-color="#F1F1F1"/>
<stop offset="1" stop-color="#FAFAFA"/>
</radialGradient>
<radialGradient id="paint14_radial_1102_23082" cx="0" cy="0" r="1" gradientUnits="userSpaceOnUse" gradientTransform="translate(9.01962 142.865) rotate(85.3036) scale(15.4311)">
<stop stop-color="#F1F1F1"/>
<stop offset="1" stop-color="#FAFAFA"/>
</radialGradient>
<radialGradient id="paint15_radial_1102_23082" cx="0" cy="0" r="1" gradientUnits="userSpaceOnUse" gradientTransform="translate(39.0059 142.865) rotate(85.3036) scale(15.4311)">
<stop stop-color="#F1F1F1"/>
<stop offset="1" stop-color="#FAFAFA"/>
</radialGradient>
<radialGradient id="paint16_radial_1102_23082" cx="0" cy="0" r="1" gradientUnits="userSpaceOnUse" gradientTransform="translate(68.9913 142.865) rotate(85.3036) scale(15.4311)">
<stop stop-color="#F1F1F1"/>
<stop offset="1" stop-color="#FAFAFA"/>
</radialGradient>
<radialGradient id="paint17_radial_1102_23082" cx="0" cy="0" r="1" gradientUnits="userSpaceOnUse" gradientTransform="translate(98.9815 142.865) rotate(85.3036) scale(15.4311)">
<stop stop-color="#F1F1F1"/>
<stop offset="1" stop-color="#FAFAFA"/>
</radialGradient>
<radialGradient id="paint18_radial_1102_23082" cx="0" cy="0" r="1" gradientUnits="userSpaceOnUse" gradientTransform="translate(128.964 142.865) rotate(85.3036) scale(15.4311)">
<stop stop-color="#F1F1F1"/>
<stop offset="1" stop-color="#FAFAFA"/>
</radialGradient>
<radialGradient id="paint19_radial_1102_23082" cx="0" cy="0" r="1" gradientUnits="userSpaceOnUse" gradientTransform="translate(158.953 142.865) rotate(85.3036) scale(15.4311)">
<stop stop-color="#F1F1F1"/>
<stop offset="1" stop-color="#FAFAFA"/>
</radialGradient>
<radialGradient id="paint20_radial_1102_23082" cx="0" cy="0" r="1" gradientUnits="userSpaceOnUse" gradientTransform="translate(188.941 142.865) rotate(85.3036) scale(15.4311)">
<stop stop-color="#F1F1F1"/>
<stop offset="1" stop-color="#FAFAFA"/>
</radialGradient>
<radialGradient id="paint21_radial_1102_23082" cx="0" cy="0" r="1" gradientUnits="userSpaceOnUse" gradientTransform="translate(9.01962 50.8818) rotate(85.3036) scale(15.4311)">
<stop stop-color="#F1F1F1"/>
<stop offset="1" stop-color="#FAFAFA"/>
</radialGradient>
<radialGradient id="paint22_radial_1102_23082" cx="0" cy="0" r="1" gradientUnits="userSpaceOnUse" gradientTransform="translate(39.0059 50.8812) rotate(85.3036) scale(15.4311)">
<stop stop-color="#F1F1F1"/>
<stop offset="1" stop-color="#FAFAFA"/>
</radialGradient>
<radialGradient id="paint23_radial_1102_23082" cx="0" cy="0" r="1" gradientUnits="userSpaceOnUse" gradientTransform="translate(68.9913 50.8812) rotate(85.3036) scale(15.4311)">
<stop stop-color="#F1F1F1"/>
<stop offset="1" stop-color="#FAFAFA"/>
</radialGradient>
<radialGradient id="paint24_radial_1102_23082" cx="0" cy="0" r="1" gradientUnits="userSpaceOnUse" gradientTransform="translate(98.9815 50.8812) rotate(85.3036) scale(15.4311)">
<stop stop-color="#F1F1F1"/>
<stop offset="1" stop-color="#FAFAFA"/>
</radialGradient>
<radialGradient id="paint25_radial_1102_23082" cx="0" cy="0" r="1" gradientUnits="userSpaceOnUse" gradientTransform="translate(128.964 50.8812) rotate(85.3036) scale(15.4311)">
<stop stop-color="#F1F1F1"/>
<stop offset="1" stop-color="#FAFAFA"/>
</radialGradient>
<radialGradient id="paint26_radial_1102_23082" cx="0" cy="0" r="1" gradientUnits="userSpaceOnUse" gradientTransform="translate(158.953 50.8812) rotate(85.3036) scale(15.4311)">
<stop stop-color="#F1F1F1"/>
<stop offset="1" stop-color="#FAFAFA"/>
</radialGradient>
<radialGradient id="paint27_radial_1102_23082" cx="0" cy="0" r="1" gradientUnits="userSpaceOnUse" gradientTransform="translate(188.941 50.8812) rotate(85.3036) scale(15.4311)">
<stop stop-color="#F1F1F1"/>
<stop offset="1" stop-color="#FAFAFA"/>
</radialGradient>
<radialGradient id="paint28_radial_1102_23082" cx="0" cy="0" r="1" gradientUnits="userSpaceOnUse" gradientTransform="translate(9.01962 112.205) rotate(85.3036) scale(15.4311)">
<stop stop-color="#F1F1F1"/>
<stop offset="1" stop-color="#FAFAFA"/>
</radialGradient>
<radialGradient id="paint29_radial_1102_23082" cx="0" cy="0" r="1" gradientUnits="userSpaceOnUse" gradientTransform="translate(39.0059 112.205) rotate(85.3036) scale(15.4311)">
<stop stop-color="#F1F1F1"/>
<stop offset="1" stop-color="#FAFAFA"/>
</radialGradient>
<radialGradient id="paint30_radial_1102_23082" cx="0" cy="0" r="1" gradientUnits="userSpaceOnUse" gradientTransform="translate(68.9913 112.205) rotate(85.3036) scale(15.4311)">
<stop stop-color="#F1F1F1"/>
<stop offset="1" stop-color="#FAFAFA"/>
</radialGradient>
<radialGradient id="paint31_radial_1102_23082" cx="0" cy="0" r="1" gradientUnits="userSpaceOnUse" gradientTransform="translate(98.9815 112.205) rotate(85.3036) scale(15.4311)">
<stop stop-color="#F1F1F1"/>
<stop offset="1" stop-color="#FAFAFA"/>
</radialGradient>
<radialGradient id="paint32_radial_1102_23082" cx="0" cy="0" r="1" gradientUnits="userSpaceOnUse" gradientTransform="translate(128.964 112.205) rotate(85.3036) scale(15.4311)">
<stop stop-color="#F1F1F1"/>
<stop offset="1" stop-color="#FAFAFA"/>
</radialGradient>
<radialGradient id="paint33_radial_1102_23082" cx="0" cy="0" r="1" gradientUnits="userSpaceOnUse" gradientTransform="translate(158.953 112.205) rotate(85.3036) scale(15.4311)">
<stop stop-color="#F1F1F1"/>
<stop offset="1" stop-color="#FAFAFA"/>
</radialGradient>
<radialGradient id="paint34_radial_1102_23082" cx="0" cy="0" r="1" gradientUnits="userSpaceOnUse" gradientTransform="translate(188.941 112.205) rotate(85.3036) scale(15.4311)">
<stop stop-color="#F1F1F1"/>
<stop offset="1" stop-color="#FAFAFA"/>
</radialGradient>
<radialGradient id="paint35_radial_1102_23082" cx="0" cy="0" r="1" gradientUnits="userSpaceOnUse" gradientTransform="translate(9.01962 173.527) rotate(85.3036) scale(15.4311)">
<stop stop-color="#F1F1F1"/>
<stop offset="1" stop-color="#FAFAFA"/>
</radialGradient>
<radialGradient id="paint36_radial_1102_23082" cx="0" cy="0" r="1" gradientUnits="userSpaceOnUse" gradientTransform="translate(39.0059 173.526) rotate(85.3036) scale(15.4311)">
<stop stop-color="#F1F1F1"/>
<stop offset="1" stop-color="#FAFAFA"/>
</radialGradient>
<radialGradient id="paint37_radial_1102_23082" cx="0" cy="0" r="1" gradientUnits="userSpaceOnUse" gradientTransform="translate(68.9913 173.526) rotate(85.3036) scale(15.4311)">
<stop stop-color="#F1F1F1"/>
<stop offset="1" stop-color="#FAFAFA"/>
</radialGradient>
<radialGradient id="paint38_radial_1102_23082" cx="0" cy="0" r="1" gradientUnits="userSpaceOnUse" gradientTransform="translate(98.9815 173.527) rotate(85.3036) scale(15.4311)">
<stop stop-color="#F1F1F1"/>
<stop offset="1" stop-color="#FAFAFA"/>
</radialGradient>
<radialGradient id="paint39_radial_1102_23082" cx="0" cy="0" r="1" gradientUnits="userSpaceOnUse" gradientTransform="translate(128.964 173.526) rotate(85.3036) scale(15.4311)">
<stop stop-color="#F1F1F1"/>
<stop offset="1" stop-color="#FAFAFA"/>
</radialGradient>
<radialGradient id="paint40_radial_1102_23082" cx="0" cy="0" r="1" gradientUnits="userSpaceOnUse" gradientTransform="translate(158.953 173.526) rotate(85.3036) scale(15.4311)">
<stop stop-color="#F1F1F1"/>
<stop offset="1" stop-color="#FAFAFA"/>
</radialGradient>
<radialGradient id="paint41_radial_1102_23082" cx="0" cy="0" r="1" gradientUnits="userSpaceOnUse" gradientTransform="translate(188.941 173.526) rotate(85.3036) scale(15.4311)">
<stop stop-color="#F1F1F1"/>
<stop offset="1" stop-color="#FAFAFA"/>
</radialGradient>
</defs>
</svg>
