<svg width="322" height="244" viewBox="0 0 322 244" fill="none" xmlns="http://www.w3.org/2000/svg">
<g opacity="0.7">
<g opacity="0.5">
<rect y="15.7241" width="22.2364" height="22.2364" rx="4.9815" transform="rotate(-45 0 15.7241)" fill="url(#paint0_radial_1102_1395)"/>
<rect x="41.4102" y="15.7234" width="22.2364" height="22.2364" rx="4.9815" transform="rotate(-45 41.4102 15.7234)" fill="url(#paint1_radial_1102_1395)"/>
<rect x="82.8193" y="15.7234" width="22.2364" height="22.2364" rx="4.9815" transform="rotate(-45 82.8193 15.7234)" fill="url(#paint2_radial_1102_1395)"/>
<rect x="124.237" y="15.7234" width="22.2364" height="22.2364" rx="4.9815" transform="rotate(-45 124.237 15.7234)" fill="url(#paint3_radial_1102_1395)"/>
<rect x="165.644" y="15.7234" width="22.2364" height="22.2364" rx="4.9815" transform="rotate(-45 165.644 15.7234)" fill="url(#paint4_radial_1102_1395)"/>
<rect x="207.058" y="15.7234" width="22.2364" height="22.2364" rx="4.9815" transform="rotate(-45 207.058 15.7234)" fill="url(#paint5_radial_1102_1395)"/>
<rect x="248.47" y="15.7234" width="22.2364" height="22.2364" rx="4.9815" transform="rotate(-45 248.47 15.7234)" fill="url(#paint6_radial_1102_1395)"/>
<rect x="289.875" y="15.7234" width="22.2364" height="22.2364" rx="4.9815" transform="rotate(-45 289.875 15.7234)" fill="url(#paint7_radial_1102_1395)"/>
</g>
<g opacity="0.5">
<rect y="100.41" width="22.2364" height="22.2364" rx="4.9815" transform="rotate(-45 0 100.41)" fill="url(#paint8_radial_1102_1395)"/>
<rect x="41.4102" y="100.41" width="22.2364" height="22.2364" rx="4.9815" transform="rotate(-45 41.4102 100.41)" fill="url(#paint9_radial_1102_1395)"/>
<rect x="82.8193" y="100.41" width="22.2364" height="22.2364" rx="4.9815" transform="rotate(-45 82.8193 100.41)" fill="url(#paint10_radial_1102_1395)"/>
<rect x="124.237" y="100.41" width="22.2364" height="22.2364" rx="4.9815" transform="rotate(-45 124.237 100.41)" fill="url(#paint11_radial_1102_1395)"/>
<rect x="165.644" y="100.41" width="22.2364" height="22.2364" rx="4.9815" transform="rotate(-45 165.644 100.41)" fill="url(#paint12_radial_1102_1395)"/>
<rect x="207.058" y="100.41" width="22.2364" height="22.2364" rx="4.9815" transform="rotate(-45 207.058 100.41)" fill="url(#paint13_radial_1102_1395)"/>
<rect x="248.47" y="100.41" width="22.2364" height="22.2364" rx="4.9815" transform="rotate(-45 248.47 100.41)" fill="url(#paint14_radial_1102_1395)"/>
<rect x="289.875" y="100.41" width="22.2364" height="22.2364" rx="4.9815" transform="rotate(-45 289.875 100.41)" fill="url(#paint15_radial_1102_1395)"/>
</g>
<g opacity="0.5">
<rect y="185.095" width="22.2364" height="22.2364" rx="4.9815" transform="rotate(-45 0 185.095)" fill="url(#paint16_radial_1102_1395)"/>
<rect x="41.4102" y="185.095" width="22.2364" height="22.2364" rx="4.9815" transform="rotate(-45 41.4102 185.095)" fill="url(#paint17_radial_1102_1395)"/>
<rect x="82.8203" y="185.095" width="22.2364" height="22.2364" rx="4.9815" transform="rotate(-45 82.8203 185.095)" fill="url(#paint18_radial_1102_1395)"/>
<rect x="124.237" y="185.095" width="22.2364" height="22.2364" rx="4.9815" transform="rotate(-45 124.237 185.095)" fill="url(#paint19_radial_1102_1395)"/>
<rect x="165.644" y="185.095" width="22.2364" height="22.2364" rx="4.9815" transform="rotate(-45 165.644 185.095)" fill="url(#paint20_radial_1102_1395)"/>
<rect x="207.058" y="185.095" width="22.2364" height="22.2364" rx="4.9815" transform="rotate(-45 207.058 185.095)" fill="url(#paint21_radial_1102_1395)"/>
<rect x="248.47" y="185.095" width="22.2364" height="22.2364" rx="4.9815" transform="rotate(-45 248.47 185.095)" fill="url(#paint22_radial_1102_1395)"/>
<rect x="289.875" y="185.095" width="22.2364" height="22.2364" rx="4.9815" transform="rotate(-45 289.875 185.095)" fill="url(#paint23_radial_1102_1395)"/>
</g>
<g opacity="0.5">
<rect y="58.0665" width="22.2364" height="22.2364" rx="4.9815" transform="rotate(-45 0 58.0665)" fill="url(#paint24_radial_1102_1395)"/>
<rect x="41.4102" y="58.0659" width="22.2364" height="22.2364" rx="4.9815" transform="rotate(-45 41.4102 58.0659)" fill="url(#paint25_radial_1102_1395)"/>
<rect x="82.8193" y="58.0659" width="22.2364" height="22.2364" rx="4.9815" transform="rotate(-45 82.8193 58.0659)" fill="url(#paint26_radial_1102_1395)"/>
<rect x="124.237" y="58.0659" width="22.2364" height="22.2364" rx="4.9815" transform="rotate(-45 124.237 58.0659)" fill="url(#paint27_radial_1102_1395)"/>
<rect x="165.644" y="58.0659" width="22.2364" height="22.2364" rx="4.9815" transform="rotate(-45 165.644 58.0659)" fill="url(#paint28_radial_1102_1395)"/>
<rect x="207.058" y="58.0659" width="22.2364" height="22.2364" rx="4.9815" transform="rotate(-45 207.058 58.0659)" fill="url(#paint29_radial_1102_1395)"/>
<rect x="248.47" y="58.0659" width="22.2364" height="22.2364" rx="4.9815" transform="rotate(-45 248.47 58.0659)" fill="url(#paint30_radial_1102_1395)"/>
<rect x="289.875" y="58.0659" width="22.2364" height="22.2364" rx="4.9815" transform="rotate(-45 289.875 58.0659)" fill="url(#paint31_radial_1102_1395)"/>
</g>
<g opacity="0.5">
<rect y="142.753" width="22.2364" height="22.2364" rx="4.9815" transform="rotate(-45 0 142.753)" fill="url(#paint32_radial_1102_1395)"/>
<rect x="41.4102" y="142.753" width="22.2364" height="22.2364" rx="4.9815" transform="rotate(-45 41.4102 142.753)" fill="url(#paint33_radial_1102_1395)"/>
<rect x="82.8193" y="142.753" width="22.2364" height="22.2364" rx="4.9815" transform="rotate(-45 82.8193 142.753)" fill="url(#paint34_radial_1102_1395)"/>
<rect x="124.237" y="142.753" width="22.2364" height="22.2364" rx="4.9815" transform="rotate(-45 124.237 142.753)" fill="url(#paint35_radial_1102_1395)"/>
<rect x="165.644" y="142.753" width="22.2364" height="22.2364" rx="4.9815" transform="rotate(-45 165.644 142.753)" fill="url(#paint36_radial_1102_1395)"/>
<rect x="207.058" y="142.753" width="22.2364" height="22.2364" rx="4.9815" transform="rotate(-45 207.058 142.753)" fill="url(#paint37_radial_1102_1395)"/>
<rect x="248.47" y="142.753" width="22.2364" height="22.2364" rx="4.9815" transform="rotate(-45 248.47 142.753)" fill="url(#paint38_radial_1102_1395)"/>
<rect x="289.875" y="142.753" width="22.2364" height="22.2364" rx="4.9815" transform="rotate(-45 289.875 142.753)" fill="url(#paint39_radial_1102_1395)"/>
</g>
<g opacity="0.5">
<rect y="227.438" width="22.2364" height="22.2364" rx="4.9815" transform="rotate(-45 0 227.438)" fill="url(#paint40_radial_1102_1395)"/>
<rect x="41.4102" y="227.438" width="22.2364" height="22.2364" rx="4.9815" transform="rotate(-45 41.4102 227.438)" fill="url(#paint41_radial_1102_1395)"/>
<rect x="82.8193" y="227.438" width="22.2364" height="22.2364" rx="4.9815" transform="rotate(-45 82.8193 227.438)" fill="url(#paint42_radial_1102_1395)"/>
<rect x="124.237" y="227.439" width="22.2364" height="22.2364" rx="4.9815" transform="rotate(-45 124.237 227.439)" fill="url(#paint43_radial_1102_1395)"/>
<rect x="165.644" y="227.438" width="22.2364" height="22.2364" rx="4.9815" transform="rotate(-45 165.644 227.438)" fill="url(#paint44_radial_1102_1395)"/>
<rect x="207.058" y="227.438" width="22.2364" height="22.2364" rx="4.9815" transform="rotate(-45 207.058 227.438)" fill="url(#paint45_radial_1102_1395)"/>
<rect x="248.47" y="227.438" width="22.2364" height="22.2364" rx="4.9815" transform="rotate(-45 248.47 227.438)" fill="url(#paint46_radial_1102_1395)"/>
<rect x="289.875" y="227.438" width="22.2364" height="22.2364" rx="4.9815" transform="rotate(-45 289.875 227.438)" fill="url(#paint47_radial_1102_1395)"/>
</g>
</g>
<defs>
<radialGradient id="paint0_radial_1102_1395" cx="0" cy="0" r="1" gradientUnits="userSpaceOnUse" gradientTransform="translate(11.1182 26.8423) rotate(85.3036) scale(21.3103)">
<stop stop-color="#F1F1F1"/>
<stop offset="1" stop-color="#FAFAFA"/>
</radialGradient>
<radialGradient id="paint1_radial_1102_1395" cx="0" cy="0" r="1" gradientUnits="userSpaceOnUse" gradientTransform="translate(52.5284 26.8416) rotate(85.3036) scale(21.3103)">
<stop stop-color="#F1F1F1"/>
<stop offset="1" stop-color="#FAFAFA"/>
</radialGradient>
<radialGradient id="paint2_radial_1102_1395" cx="0" cy="0" r="1" gradientUnits="userSpaceOnUse" gradientTransform="translate(93.9375 26.8416) rotate(85.3036) scale(21.3103)">
<stop stop-color="#F1F1F1"/>
<stop offset="1" stop-color="#FAFAFA"/>
</radialGradient>
<radialGradient id="paint3_radial_1102_1395" cx="0" cy="0" r="1" gradientUnits="userSpaceOnUse" gradientTransform="translate(135.355 26.8416) rotate(85.3036) scale(21.3103)">
<stop stop-color="#F1F1F1"/>
<stop offset="1" stop-color="#FAFAFA"/>
</radialGradient>
<radialGradient id="paint4_radial_1102_1395" cx="0" cy="0" r="1" gradientUnits="userSpaceOnUse" gradientTransform="translate(176.762 26.8416) rotate(85.3036) scale(21.3103)">
<stop stop-color="#F1F1F1"/>
<stop offset="1" stop-color="#FAFAFA"/>
</radialGradient>
<radialGradient id="paint5_radial_1102_1395" cx="0" cy="0" r="1" gradientUnits="userSpaceOnUse" gradientTransform="translate(218.176 26.8416) rotate(85.3036) scale(21.3103)">
<stop stop-color="#F1F1F1"/>
<stop offset="1" stop-color="#FAFAFA"/>
</radialGradient>
<radialGradient id="paint6_radial_1102_1395" cx="0" cy="0" r="1" gradientUnits="userSpaceOnUse" gradientTransform="translate(259.588 26.8416) rotate(85.3036) scale(21.3103)">
<stop stop-color="#F1F1F1"/>
<stop offset="1" stop-color="#FAFAFA"/>
</radialGradient>
<radialGradient id="paint7_radial_1102_1395" cx="0" cy="0" r="1" gradientUnits="userSpaceOnUse" gradientTransform="translate(300.993 26.8416) rotate(85.3036) scale(21.3103)">
<stop stop-color="#F1F1F1"/>
<stop offset="1" stop-color="#FAFAFA"/>
</radialGradient>
<radialGradient id="paint8_radial_1102_1395" cx="0" cy="0" r="1" gradientUnits="userSpaceOnUse" gradientTransform="translate(11.1182 111.528) rotate(85.3036) scale(21.3103)">
<stop stop-color="#F1F1F1"/>
<stop offset="1" stop-color="#FAFAFA"/>
</radialGradient>
<radialGradient id="paint9_radial_1102_1395" cx="0" cy="0" r="1" gradientUnits="userSpaceOnUse" gradientTransform="translate(52.5284 111.528) rotate(85.3036) scale(21.3103)">
<stop stop-color="#F1F1F1"/>
<stop offset="1" stop-color="#FAFAFA"/>
</radialGradient>
<radialGradient id="paint10_radial_1102_1395" cx="0" cy="0" r="1" gradientUnits="userSpaceOnUse" gradientTransform="translate(93.9375 111.528) rotate(85.3036) scale(21.3103)">
<stop stop-color="#F1F1F1"/>
<stop offset="1" stop-color="#FAFAFA"/>
</radialGradient>
<radialGradient id="paint11_radial_1102_1395" cx="0" cy="0" r="1" gradientUnits="userSpaceOnUse" gradientTransform="translate(135.355 111.528) rotate(85.3036) scale(21.3103)">
<stop stop-color="#F1F1F1"/>
<stop offset="1" stop-color="#FAFAFA"/>
</radialGradient>
<radialGradient id="paint12_radial_1102_1395" cx="0" cy="0" r="1" gradientUnits="userSpaceOnUse" gradientTransform="translate(176.762 111.528) rotate(85.3036) scale(21.3103)">
<stop stop-color="#F1F1F1"/>
<stop offset="1" stop-color="#FAFAFA"/>
</radialGradient>
<radialGradient id="paint13_radial_1102_1395" cx="0" cy="0" r="1" gradientUnits="userSpaceOnUse" gradientTransform="translate(218.176 111.528) rotate(85.3036) scale(21.3103)">
<stop stop-color="#F1F1F1"/>
<stop offset="1" stop-color="#FAFAFA"/>
</radialGradient>
<radialGradient id="paint14_radial_1102_1395" cx="0" cy="0" r="1" gradientUnits="userSpaceOnUse" gradientTransform="translate(259.588 111.528) rotate(85.3036) scale(21.3103)">
<stop stop-color="#F1F1F1"/>
<stop offset="1" stop-color="#FAFAFA"/>
</radialGradient>
<radialGradient id="paint15_radial_1102_1395" cx="0" cy="0" r="1" gradientUnits="userSpaceOnUse" gradientTransform="translate(300.993 111.528) rotate(85.3036) scale(21.3103)">
<stop stop-color="#F1F1F1"/>
<stop offset="1" stop-color="#FAFAFA"/>
</radialGradient>
<radialGradient id="paint16_radial_1102_1395" cx="0" cy="0" r="1" gradientUnits="userSpaceOnUse" gradientTransform="translate(11.1182 196.213) rotate(85.3036) scale(21.3103)">
<stop stop-color="#F1F1F1"/>
<stop offset="1" stop-color="#FAFAFA"/>
</radialGradient>
<radialGradient id="paint17_radial_1102_1395" cx="0" cy="0" r="1" gradientUnits="userSpaceOnUse" gradientTransform="translate(52.5284 196.213) rotate(85.3036) scale(21.3103)">
<stop stop-color="#F1F1F1"/>
<stop offset="1" stop-color="#FAFAFA"/>
</radialGradient>
<radialGradient id="paint18_radial_1102_1395" cx="0" cy="0" r="1" gradientUnits="userSpaceOnUse" gradientTransform="translate(93.9385 196.213) rotate(85.3036) scale(21.3103)">
<stop stop-color="#F1F1F1"/>
<stop offset="1" stop-color="#FAFAFA"/>
</radialGradient>
<radialGradient id="paint19_radial_1102_1395" cx="0" cy="0" r="1" gradientUnits="userSpaceOnUse" gradientTransform="translate(135.355 196.213) rotate(85.3036) scale(21.3103)">
<stop stop-color="#F1F1F1"/>
<stop offset="1" stop-color="#FAFAFA"/>
</radialGradient>
<radialGradient id="paint20_radial_1102_1395" cx="0" cy="0" r="1" gradientUnits="userSpaceOnUse" gradientTransform="translate(176.762 196.213) rotate(85.3036) scale(21.3103)">
<stop stop-color="#F1F1F1"/>
<stop offset="1" stop-color="#FAFAFA"/>
</radialGradient>
<radialGradient id="paint21_radial_1102_1395" cx="0" cy="0" r="1" gradientUnits="userSpaceOnUse" gradientTransform="translate(218.176 196.213) rotate(85.3036) scale(21.3103)">
<stop stop-color="#F1F1F1"/>
<stop offset="1" stop-color="#FAFAFA"/>
</radialGradient>
<radialGradient id="paint22_radial_1102_1395" cx="0" cy="0" r="1" gradientUnits="userSpaceOnUse" gradientTransform="translate(259.588 196.213) rotate(85.3036) scale(21.3103)">
<stop stop-color="#F1F1F1"/>
<stop offset="1" stop-color="#FAFAFA"/>
</radialGradient>
<radialGradient id="paint23_radial_1102_1395" cx="0" cy="0" r="1" gradientUnits="userSpaceOnUse" gradientTransform="translate(300.993 196.213) rotate(85.3036) scale(21.3103)">
<stop stop-color="#F1F1F1"/>
<stop offset="1" stop-color="#FAFAFA"/>
</radialGradient>
<radialGradient id="paint24_radial_1102_1395" cx="0" cy="0" r="1" gradientUnits="userSpaceOnUse" gradientTransform="translate(11.1182 69.1847) rotate(85.3036) scale(21.3103)">
<stop stop-color="#F1F1F1"/>
<stop offset="1" stop-color="#FAFAFA"/>
</radialGradient>
<radialGradient id="paint25_radial_1102_1395" cx="0" cy="0" r="1" gradientUnits="userSpaceOnUse" gradientTransform="translate(52.5284 69.1841) rotate(85.3036) scale(21.3103)">
<stop stop-color="#F1F1F1"/>
<stop offset="1" stop-color="#FAFAFA"/>
</radialGradient>
<radialGradient id="paint26_radial_1102_1395" cx="0" cy="0" r="1" gradientUnits="userSpaceOnUse" gradientTransform="translate(93.9375 69.1841) rotate(85.3036) scale(21.3103)">
<stop stop-color="#F1F1F1"/>
<stop offset="1" stop-color="#FAFAFA"/>
</radialGradient>
<radialGradient id="paint27_radial_1102_1395" cx="0" cy="0" r="1" gradientUnits="userSpaceOnUse" gradientTransform="translate(135.355 69.1841) rotate(85.3036) scale(21.3103)">
<stop stop-color="#F1F1F1"/>
<stop offset="1" stop-color="#FAFAFA"/>
</radialGradient>
<radialGradient id="paint28_radial_1102_1395" cx="0" cy="0" r="1" gradientUnits="userSpaceOnUse" gradientTransform="translate(176.762 69.1841) rotate(85.3036) scale(21.3103)">
<stop stop-color="#F1F1F1"/>
<stop offset="1" stop-color="#FAFAFA"/>
</radialGradient>
<radialGradient id="paint29_radial_1102_1395" cx="0" cy="0" r="1" gradientUnits="userSpaceOnUse" gradientTransform="translate(218.176 69.1841) rotate(85.3036) scale(21.3103)">
<stop stop-color="#F1F1F1"/>
<stop offset="1" stop-color="#FAFAFA"/>
</radialGradient>
<radialGradient id="paint30_radial_1102_1395" cx="0" cy="0" r="1" gradientUnits="userSpaceOnUse" gradientTransform="translate(259.588 69.1841) rotate(85.3036) scale(21.3103)">
<stop stop-color="#F1F1F1"/>
<stop offset="1" stop-color="#FAFAFA"/>
</radialGradient>
<radialGradient id="paint31_radial_1102_1395" cx="0" cy="0" r="1" gradientUnits="userSpaceOnUse" gradientTransform="translate(300.993 69.1841) rotate(85.3036) scale(21.3103)">
<stop stop-color="#F1F1F1"/>
<stop offset="1" stop-color="#FAFAFA"/>
</radialGradient>
<radialGradient id="paint32_radial_1102_1395" cx="0" cy="0" r="1" gradientUnits="userSpaceOnUse" gradientTransform="translate(11.1182 153.871) rotate(85.3036) scale(21.3103)">
<stop stop-color="#F1F1F1"/>
<stop offset="1" stop-color="#FAFAFA"/>
</radialGradient>
<radialGradient id="paint33_radial_1102_1395" cx="0" cy="0" r="1" gradientUnits="userSpaceOnUse" gradientTransform="translate(52.5284 153.871) rotate(85.3036) scale(21.3103)">
<stop stop-color="#F1F1F1"/>
<stop offset="1" stop-color="#FAFAFA"/>
</radialGradient>
<radialGradient id="paint34_radial_1102_1395" cx="0" cy="0" r="1" gradientUnits="userSpaceOnUse" gradientTransform="translate(93.9375 153.871) rotate(85.3036) scale(21.3103)">
<stop stop-color="#F1F1F1"/>
<stop offset="1" stop-color="#FAFAFA"/>
</radialGradient>
<radialGradient id="paint35_radial_1102_1395" cx="0" cy="0" r="1" gradientUnits="userSpaceOnUse" gradientTransform="translate(135.355 153.871) rotate(85.3036) scale(21.3103)">
<stop stop-color="#F1F1F1"/>
<stop offset="1" stop-color="#FAFAFA"/>
</radialGradient>
<radialGradient id="paint36_radial_1102_1395" cx="0" cy="0" r="1" gradientUnits="userSpaceOnUse" gradientTransform="translate(176.762 153.871) rotate(85.3036) scale(21.3103)">
<stop stop-color="#F1F1F1"/>
<stop offset="1" stop-color="#FAFAFA"/>
</radialGradient>
<radialGradient id="paint37_radial_1102_1395" cx="0" cy="0" r="1" gradientUnits="userSpaceOnUse" gradientTransform="translate(218.176 153.871) rotate(85.3036) scale(21.3103)">
<stop stop-color="#F1F1F1"/>
<stop offset="1" stop-color="#FAFAFA"/>
</radialGradient>
<radialGradient id="paint38_radial_1102_1395" cx="0" cy="0" r="1" gradientUnits="userSpaceOnUse" gradientTransform="translate(259.588 153.871) rotate(85.3036) scale(21.3103)">
<stop stop-color="#F1F1F1"/>
<stop offset="1" stop-color="#FAFAFA"/>
</radialGradient>
<radialGradient id="paint39_radial_1102_1395" cx="0" cy="0" r="1" gradientUnits="userSpaceOnUse" gradientTransform="translate(300.993 153.871) rotate(85.3036) scale(21.3103)">
<stop stop-color="#F1F1F1"/>
<stop offset="1" stop-color="#FAFAFA"/>
</radialGradient>
<radialGradient id="paint40_radial_1102_1395" cx="0" cy="0" r="1" gradientUnits="userSpaceOnUse" gradientTransform="translate(11.1182 238.557) rotate(85.3036) scale(21.3103)">
<stop stop-color="#F1F1F1"/>
<stop offset="1" stop-color="#FAFAFA"/>
</radialGradient>
<radialGradient id="paint41_radial_1102_1395" cx="0" cy="0" r="1" gradientUnits="userSpaceOnUse" gradientTransform="translate(52.5284 238.556) rotate(85.3036) scale(21.3103)">
<stop stop-color="#F1F1F1"/>
<stop offset="1" stop-color="#FAFAFA"/>
</radialGradient>
<radialGradient id="paint42_radial_1102_1395" cx="0" cy="0" r="1" gradientUnits="userSpaceOnUse" gradientTransform="translate(93.9375 238.556) rotate(85.3036) scale(21.3103)">
<stop stop-color="#F1F1F1"/>
<stop offset="1" stop-color="#FAFAFA"/>
</radialGradient>
<radialGradient id="paint43_radial_1102_1395" cx="0" cy="0" r="1" gradientUnits="userSpaceOnUse" gradientTransform="translate(135.355 238.557) rotate(85.3036) scale(21.3103)">
<stop stop-color="#F1F1F1"/>
<stop offset="1" stop-color="#FAFAFA"/>
</radialGradient>
<radialGradient id="paint44_radial_1102_1395" cx="0" cy="0" r="1" gradientUnits="userSpaceOnUse" gradientTransform="translate(176.762 238.556) rotate(85.3036) scale(21.3103)">
<stop stop-color="#F1F1F1"/>
<stop offset="1" stop-color="#FAFAFA"/>
</radialGradient>
<radialGradient id="paint45_radial_1102_1395" cx="0" cy="0" r="1" gradientUnits="userSpaceOnUse" gradientTransform="translate(218.176 238.556) rotate(85.3036) scale(21.3103)">
<stop stop-color="#F1F1F1"/>
<stop offset="1" stop-color="#FAFAFA"/>
</radialGradient>
<radialGradient id="paint46_radial_1102_1395" cx="0" cy="0" r="1" gradientUnits="userSpaceOnUse" gradientTransform="translate(259.588 238.556) rotate(85.3036) scale(21.3103)">
<stop stop-color="#F1F1F1"/>
<stop offset="1" stop-color="#FAFAFA"/>
</radialGradient>
<radialGradient id="paint47_radial_1102_1395" cx="0" cy="0" r="1" gradientUnits="userSpaceOnUse" gradientTransform="translate(300.993 238.556) rotate(85.3036) scale(21.3103)">
<stop stop-color="#F1F1F1"/>
<stop offset="1" stop-color="#FAFAFA"/>
</radialGradient>
</defs>
</svg>
