<svg width="126" height="150" viewBox="0 0 126 150" fill="none" xmlns="http://www.w3.org/2000/svg">
<g opacity="0.2">
<g opacity="0.5">
<rect y="10.1688" width="14.3808" height="14.3808" rx="4" transform="rotate(-45 0 10.1688)" fill="url(#paint0_radial_1286_14875)"/>
<rect x="26.7832" y="10.1685" width="14.3808" height="14.3808" rx="4" transform="rotate(-45 26.7832 10.1685)" fill="url(#paint1_radial_1286_14875)"/>
<rect x="53.5625" y="10.1685" width="14.3808" height="14.3808" rx="4" transform="rotate(-45 53.5625 10.1685)" fill="url(#paint2_radial_1286_14875)"/>
<rect x="80.3438" y="10.1685" width="14.3808" height="14.3808" rx="4" transform="rotate(-45 80.3438 10.1685)" fill="url(#paint3_radial_1286_14875)"/>
<rect x="107.129" y="10.1688" width="14.3808" height="14.3808" rx="4" transform="rotate(-45 107.129 10.1688)" fill="url(#paint4_radial_1286_14875)"/>
</g>
<g opacity="0.5">
<rect y="64.9366" width="14.3808" height="14.3808" rx="4" transform="rotate(-45 0 64.9366)" fill="url(#paint5_radial_1286_14875)"/>
<rect x="26.7832" y="64.9366" width="14.3808" height="14.3808" rx="4" transform="rotate(-45 26.7832 64.9366)" fill="url(#paint6_radial_1286_14875)"/>
<rect x="53.5625" y="64.9366" width="14.3808" height="14.3808" rx="4" transform="rotate(-45 53.5625 64.9366)" fill="url(#paint7_radial_1286_14875)"/>
<rect x="80.3438" y="64.9366" width="14.3808" height="14.3808" rx="4" transform="rotate(-45 80.3438 64.9366)" fill="url(#paint8_radial_1286_14875)"/>
<rect x="107.129" y="64.9366" width="14.3808" height="14.3808" rx="4" transform="rotate(-45 107.129 64.9366)" fill="url(#paint9_radial_1286_14875)"/>
</g>
<g opacity="0.5">
<rect y="119.705" width="14.3808" height="14.3808" rx="4" transform="rotate(-45 0 119.705)" fill="url(#paint10_radial_1286_14875)"/>
<rect x="26.7832" y="119.705" width="14.3808" height="14.3808" rx="4" transform="rotate(-45 26.7832 119.705)" fill="url(#paint11_radial_1286_14875)"/>
<rect x="53.5625" y="119.705" width="14.3808" height="14.3808" rx="4" transform="rotate(-45 53.5625 119.705)" fill="url(#paint12_radial_1286_14875)"/>
<rect x="80.3438" y="119.705" width="14.3808" height="14.3808" rx="4" transform="rotate(-45 80.3438 119.705)" fill="url(#paint13_radial_1286_14875)"/>
<rect x="107.129" y="119.705" width="14.3808" height="14.3808" rx="4" transform="rotate(-45 107.129 119.705)" fill="url(#paint14_radial_1286_14875)"/>
</g>
<g opacity="0.5">
<rect y="37.5525" width="14.3808" height="14.3808" rx="4" transform="rotate(-45 0 37.5525)" fill="url(#paint15_radial_1286_14875)"/>
<rect x="26.7832" y="37.5525" width="14.3808" height="14.3808" rx="4" transform="rotate(-45 26.7832 37.5525)" fill="url(#paint16_radial_1286_14875)"/>
<rect x="53.5625" y="37.5525" width="14.3808" height="14.3808" rx="4" transform="rotate(-45 53.5625 37.5525)" fill="url(#paint17_radial_1286_14875)"/>
<rect x="80.3438" y="37.5525" width="14.3808" height="14.3808" rx="4" transform="rotate(-45 80.3438 37.5525)" fill="url(#paint18_radial_1286_14875)"/>
<rect x="107.129" y="37.5525" width="14.3808" height="14.3808" rx="4" transform="rotate(-45 107.129 37.5525)" fill="url(#paint19_radial_1286_14875)"/>
</g>
<g opacity="0.5">
<rect width="14.3808" height="14.3808" rx="4" transform="matrix(0.707105 -0.707108 0.707105 0.707108 0 92.3208)" fill="url(#paint20_radial_1286_14875)"/>
<rect width="14.3808" height="14.3808" rx="4" transform="matrix(0.707105 -0.707108 0.707105 0.707108 26.7832 92.3208)" fill="url(#paint21_radial_1286_14875)"/>
<rect width="14.3808" height="14.3808" rx="4" transform="matrix(0.707105 -0.707108 0.707105 0.707108 53.5625 92.3208)" fill="url(#paint22_radial_1286_14875)"/>
<rect width="14.3808" height="14.3808" rx="4" transform="matrix(0.707105 -0.707108 0.707105 0.707108 80.3438 92.3208)" fill="url(#paint23_radial_1286_14875)"/>
<rect width="14.3808" height="14.3808" rx="4" transform="matrix(0.707105 -0.707108 0.707105 0.707108 107.129 92.3208)" fill="url(#paint24_radial_1286_14875)"/>
</g>
<g opacity="0.5">
<rect y="147.089" width="14.3808" height="14.3808" rx="4" transform="rotate(-45 0 147.089)" fill="url(#paint25_radial_1286_14875)"/>
<rect x="26.7832" y="147.089" width="14.3808" height="14.3808" rx="4" transform="rotate(-45 26.7832 147.089)" fill="url(#paint26_radial_1286_14875)"/>
<rect x="53.5625" y="147.089" width="14.3808" height="14.3808" rx="4" transform="rotate(-45 53.5625 147.089)" fill="url(#paint27_radial_1286_14875)"/>
<rect x="80.3438" y="147.089" width="14.3808" height="14.3808" rx="4" transform="rotate(-45 80.3438 147.089)" fill="url(#paint28_radial_1286_14875)"/>
<rect x="107.129" y="147.089" width="14.3808" height="14.3808" rx="4" transform="rotate(-45 107.129 147.089)" fill="url(#paint29_radial_1286_14875)"/>
</g>
</g>
<defs>
<radialGradient id="paint0_radial_1286_14875" cx="0" cy="0" r="1" gradientUnits="userSpaceOnUse" gradientTransform="translate(7.1904 17.3592) rotate(85.3036) scale(13.7819)">
<stop stop-color="#373737"/>
<stop offset="1" stop-color="#FAFAFA" stop-opacity="0"/>
</radialGradient>
<radialGradient id="paint1_radial_1286_14875" cx="0" cy="0" r="1" gradientUnits="userSpaceOnUse" gradientTransform="translate(33.9736 17.3589) rotate(85.3036) scale(13.7819)">
<stop stop-color="#373737"/>
<stop offset="1" stop-color="#FAFAFA" stop-opacity="0"/>
</radialGradient>
<radialGradient id="paint2_radial_1286_14875" cx="0" cy="0" r="1" gradientUnits="userSpaceOnUse" gradientTransform="translate(60.7529 17.3589) rotate(85.3036) scale(13.7819)">
<stop stop-color="#373737"/>
<stop offset="1" stop-color="#FAFAFA" stop-opacity="0"/>
</radialGradient>
<radialGradient id="paint3_radial_1286_14875" cx="0" cy="0" r="1" gradientUnits="userSpaceOnUse" gradientTransform="translate(87.5341 17.3589) rotate(85.3036) scale(13.7819)">
<stop stop-color="#373737"/>
<stop offset="1" stop-color="#FAFAFA" stop-opacity="0"/>
</radialGradient>
<radialGradient id="paint4_radial_1286_14875" cx="0" cy="0" r="1" gradientUnits="userSpaceOnUse" gradientTransform="translate(114.319 17.3592) rotate(85.3036) scale(13.7819)">
<stop stop-color="#373737"/>
<stop offset="1" stop-color="#FAFAFA" stop-opacity="0"/>
</radialGradient>
<radialGradient id="paint5_radial_1286_14875" cx="0" cy="0" r="1" gradientUnits="userSpaceOnUse" gradientTransform="translate(7.1904 72.127) rotate(85.3036) scale(13.7819)">
<stop stop-color="#373737"/>
<stop offset="1" stop-color="#FAFAFA" stop-opacity="0"/>
</radialGradient>
<radialGradient id="paint6_radial_1286_14875" cx="0" cy="0" r="1" gradientUnits="userSpaceOnUse" gradientTransform="translate(33.9736 72.127) rotate(85.3036) scale(13.7819)">
<stop stop-color="#373737"/>
<stop offset="1" stop-color="#FAFAFA" stop-opacity="0"/>
</radialGradient>
<radialGradient id="paint7_radial_1286_14875" cx="0" cy="0" r="1" gradientUnits="userSpaceOnUse" gradientTransform="translate(60.7529 72.127) rotate(85.3036) scale(13.7819)">
<stop stop-color="#373737"/>
<stop offset="1" stop-color="#FAFAFA" stop-opacity="0"/>
</radialGradient>
<radialGradient id="paint8_radial_1286_14875" cx="0" cy="0" r="1" gradientUnits="userSpaceOnUse" gradientTransform="translate(87.5341 72.127) rotate(85.3036) scale(13.7819)">
<stop stop-color="#373737"/>
<stop offset="1" stop-color="#FAFAFA" stop-opacity="0"/>
</radialGradient>
<radialGradient id="paint9_radial_1286_14875" cx="0" cy="0" r="1" gradientUnits="userSpaceOnUse" gradientTransform="translate(114.319 72.127) rotate(85.3036) scale(13.7819)">
<stop stop-color="#373737"/>
<stop offset="1" stop-color="#FAFAFA" stop-opacity="0"/>
</radialGradient>
<radialGradient id="paint10_radial_1286_14875" cx="0" cy="0" r="1" gradientUnits="userSpaceOnUse" gradientTransform="translate(7.1904 126.895) rotate(85.3036) scale(13.7819)">
<stop stop-color="#373737"/>
<stop offset="1" stop-color="#FAFAFA" stop-opacity="0"/>
</radialGradient>
<radialGradient id="paint11_radial_1286_14875" cx="0" cy="0" r="1" gradientUnits="userSpaceOnUse" gradientTransform="translate(33.9736 126.895) rotate(85.3036) scale(13.7819)">
<stop stop-color="#373737"/>
<stop offset="1" stop-color="#FAFAFA" stop-opacity="0"/>
</radialGradient>
<radialGradient id="paint12_radial_1286_14875" cx="0" cy="0" r="1" gradientUnits="userSpaceOnUse" gradientTransform="translate(60.7529 126.895) rotate(85.3036) scale(13.7819)">
<stop stop-color="#373737"/>
<stop offset="1" stop-color="#FAFAFA" stop-opacity="0"/>
</radialGradient>
<radialGradient id="paint13_radial_1286_14875" cx="0" cy="0" r="1" gradientUnits="userSpaceOnUse" gradientTransform="translate(87.5341 126.895) rotate(85.3036) scale(13.7819)">
<stop stop-color="#373737"/>
<stop offset="1" stop-color="#FAFAFA" stop-opacity="0"/>
</radialGradient>
<radialGradient id="paint14_radial_1286_14875" cx="0" cy="0" r="1" gradientUnits="userSpaceOnUse" gradientTransform="translate(114.319 126.895) rotate(85.3036) scale(13.7819)">
<stop stop-color="#373737"/>
<stop offset="1" stop-color="#FAFAFA" stop-opacity="0"/>
</radialGradient>
<radialGradient id="paint15_radial_1286_14875" cx="0" cy="0" r="1" gradientUnits="userSpaceOnUse" gradientTransform="translate(7.1904 44.7429) rotate(85.3036) scale(13.7819)">
<stop stop-color="#373737"/>
<stop offset="1" stop-color="#FAFAFA" stop-opacity="0"/>
</radialGradient>
<radialGradient id="paint16_radial_1286_14875" cx="0" cy="0" r="1" gradientUnits="userSpaceOnUse" gradientTransform="translate(33.9736 44.7429) rotate(85.3036) scale(13.7819)">
<stop stop-color="#373737"/>
<stop offset="1" stop-color="#FAFAFA" stop-opacity="0"/>
</radialGradient>
<radialGradient id="paint17_radial_1286_14875" cx="0" cy="0" r="1" gradientUnits="userSpaceOnUse" gradientTransform="translate(60.7529 44.7429) rotate(85.3036) scale(13.7819)">
<stop stop-color="#373737"/>
<stop offset="1" stop-color="#FAFAFA" stop-opacity="0"/>
</radialGradient>
<radialGradient id="paint18_radial_1286_14875" cx="0" cy="0" r="1" gradientUnits="userSpaceOnUse" gradientTransform="translate(87.5341 44.7429) rotate(85.3036) scale(13.7819)">
<stop stop-color="#373737"/>
<stop offset="1" stop-color="#FAFAFA" stop-opacity="0"/>
</radialGradient>
<radialGradient id="paint19_radial_1286_14875" cx="0" cy="0" r="1" gradientUnits="userSpaceOnUse" gradientTransform="translate(114.319 44.7429) rotate(85.3036) scale(13.7819)">
<stop stop-color="#373737"/>
<stop offset="1" stop-color="#FAFAFA" stop-opacity="0"/>
</radialGradient>
<radialGradient id="paint20_radial_1286_14875" cx="0" cy="0" r="1" gradientUnits="userSpaceOnUse" gradientTransform="translate(7.1904 7.1904) rotate(85.3036) scale(13.7819)">
<stop stop-color="#373737"/>
<stop offset="1" stop-color="#FAFAFA" stop-opacity="0"/>
</radialGradient>
<radialGradient id="paint21_radial_1286_14875" cx="0" cy="0" r="1" gradientUnits="userSpaceOnUse" gradientTransform="translate(7.1904 7.1904) rotate(85.3036) scale(13.7819)">
<stop stop-color="#373737"/>
<stop offset="1" stop-color="#FAFAFA" stop-opacity="0"/>
</radialGradient>
<radialGradient id="paint22_radial_1286_14875" cx="0" cy="0" r="1" gradientUnits="userSpaceOnUse" gradientTransform="translate(7.1904 7.1904) rotate(85.3036) scale(13.7819)">
<stop stop-color="#373737"/>
<stop offset="1" stop-color="#FAFAFA" stop-opacity="0"/>
</radialGradient>
<radialGradient id="paint23_radial_1286_14875" cx="0" cy="0" r="1" gradientUnits="userSpaceOnUse" gradientTransform="translate(7.1904 7.1904) rotate(85.3036) scale(13.7819)">
<stop stop-color="#373737"/>
<stop offset="1" stop-color="#FAFAFA" stop-opacity="0"/>
</radialGradient>
<radialGradient id="paint24_radial_1286_14875" cx="0" cy="0" r="1" gradientUnits="userSpaceOnUse" gradientTransform="translate(7.1904 7.1904) rotate(85.3036) scale(13.7819)">
<stop stop-color="#373737"/>
<stop offset="1" stop-color="#FAFAFA" stop-opacity="0"/>
</radialGradient>
<radialGradient id="paint25_radial_1286_14875" cx="0" cy="0" r="1" gradientUnits="userSpaceOnUse" gradientTransform="translate(7.1904 154.279) rotate(85.3036) scale(13.7819)">
<stop stop-color="#373737"/>
<stop offset="1" stop-color="#FAFAFA" stop-opacity="0"/>
</radialGradient>
<radialGradient id="paint26_radial_1286_14875" cx="0" cy="0" r="1" gradientUnits="userSpaceOnUse" gradientTransform="translate(33.9736 154.279) rotate(85.3036) scale(13.7819)">
<stop stop-color="#373737"/>
<stop offset="1" stop-color="#FAFAFA" stop-opacity="0"/>
</radialGradient>
<radialGradient id="paint27_radial_1286_14875" cx="0" cy="0" r="1" gradientUnits="userSpaceOnUse" gradientTransform="translate(60.7529 154.279) rotate(85.3036) scale(13.7819)">
<stop stop-color="#373737"/>
<stop offset="1" stop-color="#FAFAFA" stop-opacity="0"/>
</radialGradient>
<radialGradient id="paint28_radial_1286_14875" cx="0" cy="0" r="1" gradientUnits="userSpaceOnUse" gradientTransform="translate(87.5341 154.279) rotate(85.3036) scale(13.7819)">
<stop stop-color="#373737"/>
<stop offset="1" stop-color="#FAFAFA" stop-opacity="0"/>
</radialGradient>
<radialGradient id="paint29_radial_1286_14875" cx="0" cy="0" r="1" gradientUnits="userSpaceOnUse" gradientTransform="translate(114.319 154.279) rotate(85.3036) scale(13.7819)">
<stop stop-color="#373737"/>
<stop offset="1" stop-color="#FAFAFA" stop-opacity="0"/>
</radialGradient>
</defs>
</svg>
