<svg width="116" height="78" viewBox="0 0 116 78" fill="none" xmlns="http://www.w3.org/2000/svg">
<g opacity="0.5">
<rect y="8.81128" width="12.4604" height="12.4604" rx="2" transform="rotate(-45 0 8.81128)" fill="url(#paint0_radial_1361_13805)" fill-opacity="0.3"/>
<rect x="23.2061" y="8.81079" width="12.4604" height="12.4604" rx="2" transform="rotate(-45 23.2061 8.81079)" fill="url(#paint1_radial_1361_13805)" fill-opacity="0.3"/>
<rect x="46.4102" y="8.81079" width="12.4604" height="12.4604" rx="2" transform="rotate(-45 46.4102 8.81079)" fill="url(#paint2_radial_1361_13805)" fill-opacity="0.3"/>
<rect x="69.6143" y="8.81079" width="12.4604" height="12.4604" rx="2" transform="rotate(-45 69.6143 8.81079)" fill="url(#paint3_radial_1361_13805)" fill-opacity="0.3"/>
<rect x="92.8232" y="8.81128" width="12.4604" height="12.4604" rx="2" transform="rotate(-45 92.8232 8.81128)" fill="url(#paint4_radial_1361_13805)" fill-opacity="0.3"/>
</g>
<g opacity="0.5">
<rect y="56.2654" width="12.4604" height="12.4604" rx="2" transform="rotate(-45 0 56.2654)" fill="url(#paint5_radial_1361_13805)" fill-opacity="0.3"/>
<rect x="23.207" y="56.2654" width="12.4604" height="12.4604" rx="2" transform="rotate(-45 23.207 56.2654)" fill="url(#paint6_radial_1361_13805)" fill-opacity="0.3"/>
<rect x="46.4102" y="56.2656" width="12.4604" height="12.4604" rx="2" transform="rotate(-45 46.4102 56.2656)" fill="url(#paint7_radial_1361_13805)" fill-opacity="0.3"/>
<rect x="69.6152" y="56.2656" width="12.4604" height="12.4604" rx="2" transform="rotate(-45 69.6152 56.2656)" fill="url(#paint8_radial_1361_13805)" fill-opacity="0.3"/>
<rect x="92.8223" y="56.2654" width="12.4604" height="12.4604" rx="2" transform="rotate(-45 92.8223 56.2654)" fill="url(#paint9_radial_1361_13805)" fill-opacity="0.3"/>
</g>
<g opacity="0.5">
<rect y="32.5381" width="12.4604" height="12.4604" rx="2" transform="rotate(-45 0 32.5381)" fill="url(#paint10_radial_1361_13805)" fill-opacity="0.3"/>
<rect x="23.2061" y="32.5381" width="12.4604" height="12.4604" rx="2" transform="rotate(-45 23.2061 32.5381)" fill="url(#paint11_radial_1361_13805)" fill-opacity="0.3"/>
<rect x="46.4102" y="32.5381" width="12.4604" height="12.4604" rx="2" transform="rotate(-45 46.4102 32.5381)" fill="url(#paint12_radial_1361_13805)" fill-opacity="0.3"/>
<rect x="69.6152" y="32.5381" width="12.4604" height="12.4604" rx="2" transform="rotate(-45 69.6152 32.5381)" fill="url(#paint13_radial_1361_13805)" fill-opacity="0.3"/>
<rect x="92.8232" y="32.5381" width="12.4604" height="12.4604" rx="2" transform="rotate(-45 92.8232 32.5381)" fill="url(#paint14_radial_1361_13805)" fill-opacity="0.3"/>
</g>
<g opacity="0.5">
<rect width="12.4604" height="12.4604" rx="2" transform="matrix(0.707105 -0.707108 0.707105 0.707108 0 79.9924)" fill="url(#paint15_radial_1361_13805)" fill-opacity="0.3"/>
<rect width="12.4604" height="12.4604" rx="2" transform="matrix(0.707105 -0.707108 0.707105 0.707108 23.2061 79.9924)" fill="url(#paint16_radial_1361_13805)" fill-opacity="0.3"/>
<rect width="12.4604" height="12.4604" rx="2" transform="matrix(0.707105 -0.707108 0.707105 0.707108 46.4102 79.9924)" fill="url(#paint17_radial_1361_13805)" fill-opacity="0.3"/>
<rect width="12.4604" height="12.4604" rx="2" transform="matrix(0.707105 -0.707108 0.707105 0.707108 69.6143 79.9924)" fill="url(#paint18_radial_1361_13805)" fill-opacity="0.3"/>
<rect width="12.4604" height="12.4604" rx="2" transform="matrix(0.707105 -0.707108 0.707105 0.707108 92.8232 79.9924)" fill="url(#paint19_radial_1361_13805)" fill-opacity="0.3"/>
</g>
<defs>
<radialGradient id="paint0_radial_1361_13805" cx="0" cy="0" r="1" gradientUnits="userSpaceOnUse" gradientTransform="translate(6.23019 15.0415) rotate(85.3036) scale(11.9414)">
<stop stop-color="#D2D2D2"/>
<stop offset="1" stop-color="#FAFAFA"/>
</radialGradient>
<radialGradient id="paint1_radial_1361_13805" cx="0" cy="0" r="1" gradientUnits="userSpaceOnUse" gradientTransform="translate(29.4362 15.041) rotate(85.3036) scale(11.9414)">
<stop stop-color="#D2D2D2"/>
<stop offset="1" stop-color="#FAFAFA"/>
</radialGradient>
<radialGradient id="paint2_radial_1361_13805" cx="0" cy="0" r="1" gradientUnits="userSpaceOnUse" gradientTransform="translate(52.6403 15.041) rotate(85.3036) scale(11.9414)">
<stop stop-color="#D2D2D2"/>
<stop offset="1" stop-color="#FAFAFA"/>
</radialGradient>
<radialGradient id="paint3_radial_1361_13805" cx="0" cy="0" r="1" gradientUnits="userSpaceOnUse" gradientTransform="translate(75.8444 15.041) rotate(85.3036) scale(11.9414)">
<stop stop-color="#D2D2D2"/>
<stop offset="1" stop-color="#FAFAFA"/>
</radialGradient>
<radialGradient id="paint4_radial_1361_13805" cx="0" cy="0" r="1" gradientUnits="userSpaceOnUse" gradientTransform="translate(99.0534 15.0415) rotate(85.3036) scale(11.9414)">
<stop stop-color="#D2D2D2"/>
<stop offset="1" stop-color="#FAFAFA"/>
</radialGradient>
<radialGradient id="paint5_radial_1361_13805" cx="0" cy="0" r="1" gradientUnits="userSpaceOnUse" gradientTransform="translate(6.23019 62.4956) rotate(85.3036) scale(11.9414)">
<stop stop-color="#D2D2D2"/>
<stop offset="1" stop-color="#FAFAFA"/>
</radialGradient>
<radialGradient id="paint6_radial_1361_13805" cx="0" cy="0" r="1" gradientUnits="userSpaceOnUse" gradientTransform="translate(29.4372 62.4956) rotate(85.3036) scale(11.9414)">
<stop stop-color="#D2D2D2"/>
<stop offset="1" stop-color="#FAFAFA"/>
</radialGradient>
<radialGradient id="paint7_radial_1361_13805" cx="0" cy="0" r="1" gradientUnits="userSpaceOnUse" gradientTransform="translate(52.6403 62.4958) rotate(85.3036) scale(11.9414)">
<stop stop-color="#D2D2D2"/>
<stop offset="1" stop-color="#FAFAFA"/>
</radialGradient>
<radialGradient id="paint8_radial_1361_13805" cx="0" cy="0" r="1" gradientUnits="userSpaceOnUse" gradientTransform="translate(75.8454 62.4958) rotate(85.3036) scale(11.9414)">
<stop stop-color="#D2D2D2"/>
<stop offset="1" stop-color="#FAFAFA"/>
</radialGradient>
<radialGradient id="paint9_radial_1361_13805" cx="0" cy="0" r="1" gradientUnits="userSpaceOnUse" gradientTransform="translate(99.0525 62.4956) rotate(85.3036) scale(11.9414)">
<stop stop-color="#D2D2D2"/>
<stop offset="1" stop-color="#FAFAFA"/>
</radialGradient>
<radialGradient id="paint10_radial_1361_13805" cx="0" cy="0" r="1" gradientUnits="userSpaceOnUse" gradientTransform="translate(6.23019 38.7683) rotate(85.3036) scale(11.9414)">
<stop stop-color="#D2D2D2"/>
<stop offset="1" stop-color="#FAFAFA"/>
</radialGradient>
<radialGradient id="paint11_radial_1361_13805" cx="0" cy="0" r="1" gradientUnits="userSpaceOnUse" gradientTransform="translate(29.4362 38.7683) rotate(85.3036) scale(11.9414)">
<stop stop-color="#D2D2D2"/>
<stop offset="1" stop-color="#FAFAFA"/>
</radialGradient>
<radialGradient id="paint12_radial_1361_13805" cx="0" cy="0" r="1" gradientUnits="userSpaceOnUse" gradientTransform="translate(52.6403 38.7683) rotate(85.3036) scale(11.9414)">
<stop stop-color="#D2D2D2"/>
<stop offset="1" stop-color="#FAFAFA"/>
</radialGradient>
<radialGradient id="paint13_radial_1361_13805" cx="0" cy="0" r="1" gradientUnits="userSpaceOnUse" gradientTransform="translate(75.8454 38.7683) rotate(85.3036) scale(11.9414)">
<stop stop-color="#D2D2D2"/>
<stop offset="1" stop-color="#FAFAFA"/>
</radialGradient>
<radialGradient id="paint14_radial_1361_13805" cx="0" cy="0" r="1" gradientUnits="userSpaceOnUse" gradientTransform="translate(99.0534 38.7683) rotate(85.3036) scale(11.9414)">
<stop stop-color="#D2D2D2"/>
<stop offset="1" stop-color="#FAFAFA"/>
</radialGradient>
<radialGradient id="paint15_radial_1361_13805" cx="0" cy="0" r="1" gradientUnits="userSpaceOnUse" gradientTransform="translate(6.23019 6.23019) rotate(85.3036) scale(11.9414)">
<stop stop-color="#D2D2D2"/>
<stop offset="1" stop-color="#FAFAFA"/>
</radialGradient>
<radialGradient id="paint16_radial_1361_13805" cx="0" cy="0" r="1" gradientUnits="userSpaceOnUse" gradientTransform="translate(6.23019 6.23019) rotate(85.3036) scale(11.9414)">
<stop stop-color="#D2D2D2"/>
<stop offset="1" stop-color="#FAFAFA"/>
</radialGradient>
<radialGradient id="paint17_radial_1361_13805" cx="0" cy="0" r="1" gradientUnits="userSpaceOnUse" gradientTransform="translate(6.23019 6.23019) rotate(85.3036) scale(11.9414)">
<stop stop-color="#D2D2D2"/>
<stop offset="1" stop-color="#FAFAFA"/>
</radialGradient>
<radialGradient id="paint18_radial_1361_13805" cx="0" cy="0" r="1" gradientUnits="userSpaceOnUse" gradientTransform="translate(6.23019 6.23019) rotate(85.3036) scale(11.9414)">
<stop stop-color="#D2D2D2"/>
<stop offset="1" stop-color="#FAFAFA"/>
</radialGradient>
<radialGradient id="paint19_radial_1361_13805" cx="0" cy="0" r="1" gradientUnits="userSpaceOnUse" gradientTransform="translate(6.23019 6.23019) rotate(85.3036) scale(11.9414)">
<stop stop-color="#D2D2D2"/>
<stop offset="1" stop-color="#FAFAFA"/>
</radialGradient>
</defs>
</svg>
