<svg width="360" height="272" viewBox="0 0 360 272" fill="none" xmlns="http://www.w3.org/2000/svg">
<g opacity="0.5">
<rect y="17.5885" width="24.8736" height="24.8736" rx="5.57229" transform="rotate(-45 0 17.5885)" fill="url(#paint0_radial_1286_14304)"/>
<rect x="46.3212" y="17.5881" width="24.8736" height="24.8736" rx="5.57229" transform="rotate(-45 46.3212 17.5881)" fill="url(#paint1_radial_1286_14304)"/>
<rect x="92.6426" y="17.5881" width="24.8736" height="24.8736" rx="5.57229" transform="rotate(-45 92.6426 17.5881)" fill="url(#paint2_radial_1286_14304)"/>
<rect x="138.971" y="17.5881" width="24.8736" height="24.8736" rx="5.57229" transform="rotate(-45 138.971 17.5881)" fill="url(#paint3_radial_1286_14304)"/>
<rect x="185.289" y="17.5881" width="24.8736" height="24.8736" rx="5.57229" transform="rotate(-45 185.289 17.5881)" fill="url(#paint4_radial_1286_14304)"/>
<rect x="231.613" y="17.5881" width="24.8736" height="24.8736" rx="5.57229" transform="rotate(-45 231.613 17.5881)" fill="url(#paint5_radial_1286_14304)"/>
<rect x="277.938" y="17.5881" width="24.8736" height="24.8736" rx="5.57229" transform="rotate(-45 277.938 17.5881)" fill="url(#paint6_radial_1286_14304)"/>
<rect x="324.252" y="17.5881" width="24.8736" height="24.8736" rx="5.57229" transform="rotate(-45 324.252 17.5881)" fill="url(#paint7_radial_1286_14304)"/>
</g>
<g opacity="0.5">
<rect y="112.318" width="24.8736" height="24.8736" rx="5.57229" transform="rotate(-45 0 112.318)" fill="url(#paint8_radial_1286_14304)"/>
<rect x="46.3212" y="112.318" width="24.8736" height="24.8736" rx="5.57229" transform="rotate(-45 46.3212 112.318)" fill="url(#paint9_radial_1286_14304)"/>
<rect x="92.6423" y="112.318" width="24.8736" height="24.8736" rx="5.57229" transform="rotate(-45 92.6423 112.318)" fill="url(#paint10_radial_1286_14304)"/>
<rect x="138.971" y="112.318" width="24.8736" height="24.8736" rx="5.57229" transform="rotate(-45 138.971 112.318)" fill="url(#paint11_radial_1286_14304)"/>
<rect x="185.289" y="112.318" width="24.8736" height="24.8736" rx="5.57229" transform="rotate(-45 185.289 112.318)" fill="url(#paint12_radial_1286_14304)"/>
<rect x="231.613" y="112.318" width="24.8736" height="24.8736" rx="5.57229" transform="rotate(-45 231.613 112.318)" fill="url(#paint13_radial_1286_14304)"/>
<rect x="277.938" y="112.318" width="24.8736" height="24.8736" rx="5.57229" transform="rotate(-45 277.938 112.318)" fill="url(#paint14_radial_1286_14304)"/>
<rect x="324.252" y="112.318" width="24.8736" height="24.8736" rx="5.57229" transform="rotate(-45 324.252 112.318)" fill="url(#paint15_radial_1286_14304)"/>
</g>
<g opacity="0.5">
<rect y="207.047" width="24.8736" height="24.8736" rx="5.57229" transform="rotate(-45 0 207.047)" fill="url(#paint16_radial_1286_14304)"/>
<rect x="46.3212" y="207.046" width="24.8736" height="24.8736" rx="5.57229" transform="rotate(-45 46.3212 207.046)" fill="url(#paint17_radial_1286_14304)"/>
<rect x="92.6426" y="207.046" width="24.8736" height="24.8736" rx="5.57229" transform="rotate(-45 92.6426 207.046)" fill="url(#paint18_radial_1286_14304)"/>
<rect x="138.971" y="207.047" width="24.8736" height="24.8736" rx="5.57229" transform="rotate(-45 138.971 207.047)" fill="url(#paint19_radial_1286_14304)"/>
<rect x="185.289" y="207.046" width="24.8736" height="24.8736" rx="5.57229" transform="rotate(-45 185.289 207.046)" fill="url(#paint20_radial_1286_14304)"/>
<rect x="231.613" y="207.046" width="24.8736" height="24.8736" rx="5.57229" transform="rotate(-45 231.613 207.046)" fill="url(#paint21_radial_1286_14304)"/>
<rect x="277.938" y="207.046" width="24.8736" height="24.8736" rx="5.57229" transform="rotate(-45 277.938 207.046)" fill="url(#paint22_radial_1286_14304)"/>
<rect x="324.252" y="207.046" width="24.8736" height="24.8736" rx="5.57229" transform="rotate(-45 324.252 207.046)" fill="url(#paint23_radial_1286_14304)"/>
</g>
<g opacity="0.5">
<rect y="64.953" width="24.8736" height="24.8736" rx="5.57229" transform="rotate(-45 0 64.953)" fill="url(#paint24_radial_1286_14304)"/>
<rect x="46.3212" y="64.9526" width="24.8736" height="24.8736" rx="5.57229" transform="rotate(-45 46.3212 64.9526)" fill="url(#paint25_radial_1286_14304)"/>
<rect x="92.6426" y="64.9526" width="24.8736" height="24.8736" rx="5.57229" transform="rotate(-45 92.6426 64.9526)" fill="url(#paint26_radial_1286_14304)"/>
<rect x="138.971" y="64.9526" width="24.8736" height="24.8736" rx="5.57229" transform="rotate(-45 138.971 64.9526)" fill="url(#paint27_radial_1286_14304)"/>
<rect x="185.289" y="64.9526" width="24.8736" height="24.8736" rx="5.57229" transform="rotate(-45 185.289 64.9526)" fill="url(#paint28_radial_1286_14304)"/>
<rect x="231.613" y="64.9526" width="24.8736" height="24.8736" rx="5.57229" transform="rotate(-45 231.613 64.9526)" fill="url(#paint29_radial_1286_14304)"/>
<rect x="277.938" y="64.9526" width="24.8736" height="24.8736" rx="5.57229" transform="rotate(-45 277.938 64.9526)" fill="url(#paint30_radial_1286_14304)"/>
<rect x="324.252" y="64.9526" width="24.8736" height="24.8736" rx="5.57229" transform="rotate(-45 324.252 64.9526)" fill="url(#paint31_radial_1286_14304)"/>
</g>
<g opacity="0.5">
<rect y="159.682" width="24.8736" height="24.8736" rx="5.57229" transform="rotate(-45 0 159.682)" fill="url(#paint32_radial_1286_14304)"/>
<rect x="46.3212" y="159.682" width="24.8736" height="24.8736" rx="5.57229" transform="rotate(-45 46.3212 159.682)" fill="url(#paint33_radial_1286_14304)"/>
<rect x="92.6426" y="159.682" width="24.8736" height="24.8736" rx="5.57229" transform="rotate(-45 92.6426 159.682)" fill="url(#paint34_radial_1286_14304)"/>
<rect x="138.971" y="159.682" width="24.8736" height="24.8736" rx="5.57229" transform="rotate(-45 138.971 159.682)" fill="url(#paint35_radial_1286_14304)"/>
<rect x="185.289" y="159.682" width="24.8736" height="24.8736" rx="5.57229" transform="rotate(-45 185.289 159.682)" fill="url(#paint36_radial_1286_14304)"/>
<rect x="231.613" y="159.682" width="24.8736" height="24.8736" rx="5.57229" transform="rotate(-45 231.613 159.682)" fill="url(#paint37_radial_1286_14304)"/>
<rect x="277.938" y="159.682" width="24.8736" height="24.8736" rx="5.57229" transform="rotate(-45 277.938 159.682)" fill="url(#paint38_radial_1286_14304)"/>
<rect x="324.252" y="159.682" width="24.8736" height="24.8736" rx="5.57229" transform="rotate(-45 324.252 159.682)" fill="url(#paint39_radial_1286_14304)"/>
</g>
<g opacity="0.5">
<rect y="254.411" width="24.8736" height="24.8736" rx="5.57229" transform="rotate(-45 0 254.411)" fill="url(#paint40_radial_1286_14304)"/>
<rect x="46.3212" y="254.411" width="24.8736" height="24.8736" rx="5.57229" transform="rotate(-45 46.3212 254.411)" fill="url(#paint41_radial_1286_14304)"/>
<rect x="92.6426" y="254.411" width="24.8736" height="24.8736" rx="5.57229" transform="rotate(-45 92.6426 254.411)" fill="url(#paint42_radial_1286_14304)"/>
<rect x="138.971" y="254.412" width="24.8736" height="24.8736" rx="5.57229" transform="rotate(-45 138.971 254.412)" fill="url(#paint43_radial_1286_14304)"/>
<rect x="185.289" y="254.411" width="24.8736" height="24.8736" rx="5.57229" transform="rotate(-45 185.289 254.411)" fill="url(#paint44_radial_1286_14304)"/>
<rect x="231.613" y="254.411" width="24.8736" height="24.8736" rx="5.57229" transform="rotate(-45 231.613 254.411)" fill="url(#paint45_radial_1286_14304)"/>
<rect x="277.938" y="254.411" width="24.8736" height="24.8736" rx="5.57229" transform="rotate(-45 277.938 254.411)" fill="url(#paint46_radial_1286_14304)"/>
<rect x="324.252" y="254.411" width="24.8736" height="24.8736" rx="5.57229" transform="rotate(-45 324.252 254.411)" fill="url(#paint47_radial_1286_14304)"/>
</g>
<defs>
<radialGradient id="paint0_radial_1286_14304" cx="0" cy="0" r="1" gradientUnits="userSpaceOnUse" gradientTransform="translate(12.4368 30.0253) rotate(85.3036) scale(23.8377)">
<stop stop-color="#F1F1F1"/>
<stop offset="1" stop-color="#FAFAFA"/>
</radialGradient>
<radialGradient id="paint1_radial_1286_14304" cx="0" cy="0" r="1" gradientUnits="userSpaceOnUse" gradientTransform="translate(58.758 30.0249) rotate(85.3036) scale(23.8377)">
<stop stop-color="#F1F1F1"/>
<stop offset="1" stop-color="#FAFAFA"/>
</radialGradient>
<radialGradient id="paint2_radial_1286_14304" cx="0" cy="0" r="1" gradientUnits="userSpaceOnUse" gradientTransform="translate(105.079 30.0249) rotate(85.3036) scale(23.8377)">
<stop stop-color="#F1F1F1"/>
<stop offset="1" stop-color="#FAFAFA"/>
</radialGradient>
<radialGradient id="paint3_radial_1286_14304" cx="0" cy="0" r="1" gradientUnits="userSpaceOnUse" gradientTransform="translate(151.408 30.0249) rotate(85.3036) scale(23.8377)">
<stop stop-color="#F1F1F1"/>
<stop offset="1" stop-color="#FAFAFA"/>
</radialGradient>
<radialGradient id="paint4_radial_1286_14304" cx="0" cy="0" r="1" gradientUnits="userSpaceOnUse" gradientTransform="translate(197.725 30.0249) rotate(85.3036) scale(23.8377)">
<stop stop-color="#F1F1F1"/>
<stop offset="1" stop-color="#FAFAFA"/>
</radialGradient>
<radialGradient id="paint5_radial_1286_14304" cx="0" cy="0" r="1" gradientUnits="userSpaceOnUse" gradientTransform="translate(244.05 30.0249) rotate(85.3036) scale(23.8377)">
<stop stop-color="#F1F1F1"/>
<stop offset="1" stop-color="#FAFAFA"/>
</radialGradient>
<radialGradient id="paint6_radial_1286_14304" cx="0" cy="0" r="1" gradientUnits="userSpaceOnUse" gradientTransform="translate(290.375 30.0249) rotate(85.3036) scale(23.8377)">
<stop stop-color="#F1F1F1"/>
<stop offset="1" stop-color="#FAFAFA"/>
</radialGradient>
<radialGradient id="paint7_radial_1286_14304" cx="0" cy="0" r="1" gradientUnits="userSpaceOnUse" gradientTransform="translate(336.689 30.0249) rotate(85.3036) scale(23.8377)">
<stop stop-color="#F1F1F1"/>
<stop offset="1" stop-color="#FAFAFA"/>
</radialGradient>
<radialGradient id="paint8_radial_1286_14304" cx="0" cy="0" r="1" gradientUnits="userSpaceOnUse" gradientTransform="translate(12.4368 124.755) rotate(85.3036) scale(23.8377)">
<stop stop-color="#F1F1F1"/>
<stop offset="1" stop-color="#FAFAFA"/>
</radialGradient>
<radialGradient id="paint9_radial_1286_14304" cx="0" cy="0" r="1" gradientUnits="userSpaceOnUse" gradientTransform="translate(58.758 124.755) rotate(85.3036) scale(23.8377)">
<stop stop-color="#F1F1F1"/>
<stop offset="1" stop-color="#FAFAFA"/>
</radialGradient>
<radialGradient id="paint10_radial_1286_14304" cx="0" cy="0" r="1" gradientUnits="userSpaceOnUse" gradientTransform="translate(105.079 124.755) rotate(85.3036) scale(23.8377)">
<stop stop-color="#F1F1F1"/>
<stop offset="1" stop-color="#FAFAFA"/>
</radialGradient>
<radialGradient id="paint11_radial_1286_14304" cx="0" cy="0" r="1" gradientUnits="userSpaceOnUse" gradientTransform="translate(151.408 124.755) rotate(85.3036) scale(23.8377)">
<stop stop-color="#F1F1F1"/>
<stop offset="1" stop-color="#FAFAFA"/>
</radialGradient>
<radialGradient id="paint12_radial_1286_14304" cx="0" cy="0" r="1" gradientUnits="userSpaceOnUse" gradientTransform="translate(197.725 124.755) rotate(85.3036) scale(23.8377)">
<stop stop-color="#F1F1F1"/>
<stop offset="1" stop-color="#FAFAFA"/>
</radialGradient>
<radialGradient id="paint13_radial_1286_14304" cx="0" cy="0" r="1" gradientUnits="userSpaceOnUse" gradientTransform="translate(244.05 124.755) rotate(85.3036) scale(23.8377)">
<stop stop-color="#F1F1F1"/>
<stop offset="1" stop-color="#FAFAFA"/>
</radialGradient>
<radialGradient id="paint14_radial_1286_14304" cx="0" cy="0" r="1" gradientUnits="userSpaceOnUse" gradientTransform="translate(290.375 124.755) rotate(85.3036) scale(23.8377)">
<stop stop-color="#F1F1F1"/>
<stop offset="1" stop-color="#FAFAFA"/>
</radialGradient>
<radialGradient id="paint15_radial_1286_14304" cx="0" cy="0" r="1" gradientUnits="userSpaceOnUse" gradientTransform="translate(336.689 124.755) rotate(85.3036) scale(23.8377)">
<stop stop-color="#F1F1F1"/>
<stop offset="1" stop-color="#FAFAFA"/>
</radialGradient>
<radialGradient id="paint16_radial_1286_14304" cx="0" cy="0" r="1" gradientUnits="userSpaceOnUse" gradientTransform="translate(12.4368 219.483) rotate(85.3036) scale(23.8377)">
<stop stop-color="#F1F1F1"/>
<stop offset="1" stop-color="#FAFAFA"/>
</radialGradient>
<radialGradient id="paint17_radial_1286_14304" cx="0" cy="0" r="1" gradientUnits="userSpaceOnUse" gradientTransform="translate(58.758 219.483) rotate(85.3036) scale(23.8377)">
<stop stop-color="#F1F1F1"/>
<stop offset="1" stop-color="#FAFAFA"/>
</radialGradient>
<radialGradient id="paint18_radial_1286_14304" cx="0" cy="0" r="1" gradientUnits="userSpaceOnUse" gradientTransform="translate(105.079 219.483) rotate(85.3036) scale(23.8377)">
<stop stop-color="#F1F1F1"/>
<stop offset="1" stop-color="#FAFAFA"/>
</radialGradient>
<radialGradient id="paint19_radial_1286_14304" cx="0" cy="0" r="1" gradientUnits="userSpaceOnUse" gradientTransform="translate(151.408 219.483) rotate(85.3036) scale(23.8377)">
<stop stop-color="#F1F1F1"/>
<stop offset="1" stop-color="#FAFAFA"/>
</radialGradient>
<radialGradient id="paint20_radial_1286_14304" cx="0" cy="0" r="1" gradientUnits="userSpaceOnUse" gradientTransform="translate(197.725 219.483) rotate(85.3036) scale(23.8377)">
<stop stop-color="#F1F1F1"/>
<stop offset="1" stop-color="#FAFAFA"/>
</radialGradient>
<radialGradient id="paint21_radial_1286_14304" cx="0" cy="0" r="1" gradientUnits="userSpaceOnUse" gradientTransform="translate(244.05 219.483) rotate(85.3036) scale(23.8377)">
<stop stop-color="#F1F1F1"/>
<stop offset="1" stop-color="#FAFAFA"/>
</radialGradient>
<radialGradient id="paint22_radial_1286_14304" cx="0" cy="0" r="1" gradientUnits="userSpaceOnUse" gradientTransform="translate(290.375 219.483) rotate(85.3036) scale(23.8377)">
<stop stop-color="#F1F1F1"/>
<stop offset="1" stop-color="#FAFAFA"/>
</radialGradient>
<radialGradient id="paint23_radial_1286_14304" cx="0" cy="0" r="1" gradientUnits="userSpaceOnUse" gradientTransform="translate(336.689 219.483) rotate(85.3036) scale(23.8377)">
<stop stop-color="#F1F1F1"/>
<stop offset="1" stop-color="#FAFAFA"/>
</radialGradient>
<radialGradient id="paint24_radial_1286_14304" cx="0" cy="0" r="1" gradientUnits="userSpaceOnUse" gradientTransform="translate(12.4368 77.3898) rotate(85.3036) scale(23.8377)">
<stop stop-color="#F1F1F1"/>
<stop offset="1" stop-color="#FAFAFA"/>
</radialGradient>
<radialGradient id="paint25_radial_1286_14304" cx="0" cy="0" r="1" gradientUnits="userSpaceOnUse" gradientTransform="translate(58.758 77.3894) rotate(85.3036) scale(23.8377)">
<stop stop-color="#F1F1F1"/>
<stop offset="1" stop-color="#FAFAFA"/>
</radialGradient>
<radialGradient id="paint26_radial_1286_14304" cx="0" cy="0" r="1" gradientUnits="userSpaceOnUse" gradientTransform="translate(105.079 77.3894) rotate(85.3036) scale(23.8377)">
<stop stop-color="#F1F1F1"/>
<stop offset="1" stop-color="#FAFAFA"/>
</radialGradient>
<radialGradient id="paint27_radial_1286_14304" cx="0" cy="0" r="1" gradientUnits="userSpaceOnUse" gradientTransform="translate(151.408 77.3894) rotate(85.3036) scale(23.8377)">
<stop stop-color="#F1F1F1"/>
<stop offset="1" stop-color="#FAFAFA"/>
</radialGradient>
<radialGradient id="paint28_radial_1286_14304" cx="0" cy="0" r="1" gradientUnits="userSpaceOnUse" gradientTransform="translate(197.725 77.3894) rotate(85.3036) scale(23.8377)">
<stop stop-color="#F1F1F1"/>
<stop offset="1" stop-color="#FAFAFA"/>
</radialGradient>
<radialGradient id="paint29_radial_1286_14304" cx="0" cy="0" r="1" gradientUnits="userSpaceOnUse" gradientTransform="translate(244.05 77.3894) rotate(85.3036) scale(23.8377)">
<stop stop-color="#F1F1F1"/>
<stop offset="1" stop-color="#FAFAFA"/>
</radialGradient>
<radialGradient id="paint30_radial_1286_14304" cx="0" cy="0" r="1" gradientUnits="userSpaceOnUse" gradientTransform="translate(290.375 77.3894) rotate(85.3036) scale(23.8377)">
<stop stop-color="#F1F1F1"/>
<stop offset="1" stop-color="#FAFAFA"/>
</radialGradient>
<radialGradient id="paint31_radial_1286_14304" cx="0" cy="0" r="1" gradientUnits="userSpaceOnUse" gradientTransform="translate(336.689 77.3894) rotate(85.3036) scale(23.8377)">
<stop stop-color="#F1F1F1"/>
<stop offset="1" stop-color="#FAFAFA"/>
</radialGradient>
<radialGradient id="paint32_radial_1286_14304" cx="0" cy="0" r="1" gradientUnits="userSpaceOnUse" gradientTransform="translate(12.4368 172.119) rotate(85.3036) scale(23.8377)">
<stop stop-color="#F1F1F1"/>
<stop offset="1" stop-color="#FAFAFA"/>
</radialGradient>
<radialGradient id="paint33_radial_1286_14304" cx="0" cy="0" r="1" gradientUnits="userSpaceOnUse" gradientTransform="translate(58.758 172.119) rotate(85.3036) scale(23.8377)">
<stop stop-color="#F1F1F1"/>
<stop offset="1" stop-color="#FAFAFA"/>
</radialGradient>
<radialGradient id="paint34_radial_1286_14304" cx="0" cy="0" r="1" gradientUnits="userSpaceOnUse" gradientTransform="translate(105.079 172.119) rotate(85.3036) scale(23.8377)">
<stop stop-color="#F1F1F1"/>
<stop offset="1" stop-color="#FAFAFA"/>
</radialGradient>
<radialGradient id="paint35_radial_1286_14304" cx="0" cy="0" r="1" gradientUnits="userSpaceOnUse" gradientTransform="translate(151.408 172.119) rotate(85.3036) scale(23.8377)">
<stop stop-color="#F1F1F1"/>
<stop offset="1" stop-color="#FAFAFA"/>
</radialGradient>
<radialGradient id="paint36_radial_1286_14304" cx="0" cy="0" r="1" gradientUnits="userSpaceOnUse" gradientTransform="translate(197.725 172.119) rotate(85.3036) scale(23.8377)">
<stop stop-color="#F1F1F1"/>
<stop offset="1" stop-color="#FAFAFA"/>
</radialGradient>
<radialGradient id="paint37_radial_1286_14304" cx="0" cy="0" r="1" gradientUnits="userSpaceOnUse" gradientTransform="translate(244.05 172.119) rotate(85.3036) scale(23.8377)">
<stop stop-color="#F1F1F1"/>
<stop offset="1" stop-color="#FAFAFA"/>
</radialGradient>
<radialGradient id="paint38_radial_1286_14304" cx="0" cy="0" r="1" gradientUnits="userSpaceOnUse" gradientTransform="translate(290.375 172.119) rotate(85.3036) scale(23.8377)">
<stop stop-color="#F1F1F1"/>
<stop offset="1" stop-color="#FAFAFA"/>
</radialGradient>
<radialGradient id="paint39_radial_1286_14304" cx="0" cy="0" r="1" gradientUnits="userSpaceOnUse" gradientTransform="translate(336.689 172.119) rotate(85.3036) scale(23.8377)">
<stop stop-color="#F1F1F1"/>
<stop offset="1" stop-color="#FAFAFA"/>
</radialGradient>
<radialGradient id="paint40_radial_1286_14304" cx="0" cy="0" r="1" gradientUnits="userSpaceOnUse" gradientTransform="translate(12.4368 266.848) rotate(85.3036) scale(23.8377)">
<stop stop-color="#F1F1F1"/>
<stop offset="1" stop-color="#FAFAFA"/>
</radialGradient>
<radialGradient id="paint41_radial_1286_14304" cx="0" cy="0" r="1" gradientUnits="userSpaceOnUse" gradientTransform="translate(58.758 266.847) rotate(85.3036) scale(23.8377)">
<stop stop-color="#F1F1F1"/>
<stop offset="1" stop-color="#FAFAFA"/>
</radialGradient>
<radialGradient id="paint42_radial_1286_14304" cx="0" cy="0" r="1" gradientUnits="userSpaceOnUse" gradientTransform="translate(105.079 266.847) rotate(85.3036) scale(23.8377)">
<stop stop-color="#F1F1F1"/>
<stop offset="1" stop-color="#FAFAFA"/>
</radialGradient>
<radialGradient id="paint43_radial_1286_14304" cx="0" cy="0" r="1" gradientUnits="userSpaceOnUse" gradientTransform="translate(151.408 266.848) rotate(85.3036) scale(23.8377)">
<stop stop-color="#F1F1F1"/>
<stop offset="1" stop-color="#FAFAFA"/>
</radialGradient>
<radialGradient id="paint44_radial_1286_14304" cx="0" cy="0" r="1" gradientUnits="userSpaceOnUse" gradientTransform="translate(197.725 266.847) rotate(85.3036) scale(23.8377)">
<stop stop-color="#F1F1F1"/>
<stop offset="1" stop-color="#FAFAFA"/>
</radialGradient>
<radialGradient id="paint45_radial_1286_14304" cx="0" cy="0" r="1" gradientUnits="userSpaceOnUse" gradientTransform="translate(244.05 266.847) rotate(85.3036) scale(23.8377)">
<stop stop-color="#F1F1F1"/>
<stop offset="1" stop-color="#FAFAFA"/>
</radialGradient>
<radialGradient id="paint46_radial_1286_14304" cx="0" cy="0" r="1" gradientUnits="userSpaceOnUse" gradientTransform="translate(290.375 266.847) rotate(85.3036) scale(23.8377)">
<stop stop-color="#F1F1F1"/>
<stop offset="1" stop-color="#FAFAFA"/>
</radialGradient>
<radialGradient id="paint47_radial_1286_14304" cx="0" cy="0" r="1" gradientUnits="userSpaceOnUse" gradientTransform="translate(336.689 266.847) rotate(85.3036) scale(23.8377)">
<stop stop-color="#F1F1F1"/>
<stop offset="1" stop-color="#FAFAFA"/>
</radialGradient>
</defs>
</svg>
