<svg width="325" height="242" viewBox="0 0 325 242" fill="none" xmlns="http://www.w3.org/2000/svg">
<g opacity="0.5">
<rect y="16.8802" width="22.4906" height="22.4906" rx="2" transform="rotate(-45 0 16.8802)" fill="url(#paint0_radial_1286_14951)" fill-opacity="0.3"/>
<rect x="41.8867" y="16.8802" width="22.4906" height="22.4906" rx="2" transform="rotate(-45 41.8867 16.8802)" fill="url(#paint1_radial_1286_14951)" fill-opacity="0.3"/>
<rect x="83.7661" y="16.8802" width="22.4906" height="22.4906" rx="2" transform="rotate(-45 83.7661 16.8802)" fill="url(#paint2_radial_1286_14951)" fill-opacity="0.3"/>
<rect x="125.653" y="16.8804" width="22.4906" height="22.4906" rx="2" transform="rotate(-45 125.653 16.8804)" fill="url(#paint3_radial_1286_14951)" fill-opacity="0.3"/>
<rect x="167.544" y="16.8802" width="22.4906" height="22.4906" rx="2" transform="rotate(-45 167.544 16.8802)" fill="url(#paint4_radial_1286_14951)" fill-opacity="0.3"/>
<rect x="209.423" y="16.8802" width="22.4906" height="22.4906" rx="2" transform="rotate(-45 209.423 16.8802)" fill="url(#paint5_radial_1286_14951)" fill-opacity="0.3"/>
<rect x="251.306" y="16.8802" width="22.4906" height="22.4906" rx="2" transform="rotate(-45 251.306 16.8802)" fill="url(#paint6_radial_1286_14951)" fill-opacity="0.3"/>
<rect x="293.193" y="16.8802" width="22.4906" height="22.4906" rx="2" transform="rotate(-45 293.193 16.8802)" fill="url(#paint7_radial_1286_14951)" fill-opacity="0.3"/>
</g>
<g opacity="0.5">
<rect y="102.535" width="22.4906" height="22.4906" rx="2" transform="rotate(-45 0 102.535)" fill="url(#paint8_radial_1286_14951)" fill-opacity="0.3"/>
<rect x="41.8867" y="102.535" width="22.4906" height="22.4906" rx="2" transform="rotate(-45 41.8867 102.535)" fill="url(#paint9_radial_1286_14951)" fill-opacity="0.3"/>
<rect x="83.7661" y="102.535" width="22.4906" height="22.4906" rx="2" transform="rotate(-45 83.7661 102.535)" fill="url(#paint10_radial_1286_14951)" fill-opacity="0.3"/>
<rect x="125.653" y="102.535" width="22.4906" height="22.4906" rx="2" transform="rotate(-45 125.653 102.535)" fill="url(#paint11_radial_1286_14951)" fill-opacity="0.3"/>
<rect x="167.542" y="102.535" width="22.4906" height="22.4906" rx="2" transform="rotate(-45 167.542 102.535)" fill="url(#paint12_radial_1286_14951)" fill-opacity="0.3"/>
<rect x="209.423" y="102.535" width="22.4906" height="22.4906" rx="2" transform="rotate(-45 209.423 102.535)" fill="url(#paint13_radial_1286_14951)" fill-opacity="0.3"/>
<rect x="251.306" y="102.535" width="22.4906" height="22.4906" rx="2" transform="rotate(-45 251.306 102.535)" fill="url(#paint14_radial_1286_14951)" fill-opacity="0.3"/>
<rect x="293.193" y="102.535" width="22.4906" height="22.4906" rx="2" transform="rotate(-45 293.193 102.535)" fill="url(#paint15_radial_1286_14951)" fill-opacity="0.3"/>
</g>
<g opacity="0.5">
<rect y="188.188" width="22.4906" height="22.4906" rx="2" transform="rotate(-45 0 188.188)" fill="url(#paint16_radial_1286_14951)" fill-opacity="0.3"/>
<rect x="41.8867" y="188.188" width="22.4906" height="22.4906" rx="2" transform="rotate(-45 41.8867 188.188)" fill="url(#paint17_radial_1286_14951)" fill-opacity="0.3"/>
<rect x="83.7661" y="188.188" width="22.4906" height="22.4906" rx="2" transform="rotate(-45 83.7661 188.188)" fill="url(#paint18_radial_1286_14951)" fill-opacity="0.3"/>
<rect x="125.653" y="188.188" width="22.4906" height="22.4906" rx="2" transform="rotate(-45 125.653 188.188)" fill="url(#paint19_radial_1286_14951)" fill-opacity="0.3"/>
<rect x="167.542" y="188.188" width="22.4906" height="22.4906" rx="2" transform="rotate(-45 167.542 188.188)" fill="url(#paint20_radial_1286_14951)" fill-opacity="0.3"/>
<rect x="209.423" y="188.188" width="22.4906" height="22.4906" rx="2" transform="rotate(-45 209.423 188.188)" fill="url(#paint21_radial_1286_14951)" fill-opacity="0.3"/>
<rect x="251.306" y="188.188" width="22.4906" height="22.4906" rx="2" transform="rotate(-45 251.306 188.188)" fill="url(#paint22_radial_1286_14951)" fill-opacity="0.3"/>
<rect x="293.193" y="188.188" width="22.4906" height="22.4906" rx="2" transform="rotate(-45 293.193 188.188)" fill="url(#paint23_radial_1286_14951)" fill-opacity="0.3"/>
</g>
<g opacity="0.5">
<rect y="59.7078" width="22.4906" height="22.4906" rx="2" transform="rotate(-45 0 59.7078)" fill="url(#paint24_radial_1286_14951)" fill-opacity="0.3"/>
<rect x="41.8867" y="59.7078" width="22.4906" height="22.4906" rx="2" transform="rotate(-45 41.8867 59.7078)" fill="url(#paint25_radial_1286_14951)" fill-opacity="0.3"/>
<rect x="83.7661" y="59.7078" width="22.4906" height="22.4906" rx="2" transform="rotate(-45 83.7661 59.7078)" fill="url(#paint26_radial_1286_14951)" fill-opacity="0.3"/>
<rect x="125.653" y="59.7078" width="22.4906" height="22.4906" rx="2" transform="rotate(-45 125.653 59.7078)" fill="url(#paint27_radial_1286_14951)" fill-opacity="0.3"/>
<rect x="167.542" y="59.7078" width="22.4906" height="22.4906" rx="2" transform="rotate(-45 167.542 59.7078)" fill="url(#paint28_radial_1286_14951)" fill-opacity="0.3"/>
<rect x="209.423" y="59.7078" width="22.4906" height="22.4906" rx="2" transform="rotate(-45 209.423 59.7078)" fill="url(#paint29_radial_1286_14951)" fill-opacity="0.3"/>
<rect x="251.306" y="59.7078" width="22.4906" height="22.4906" rx="2" transform="rotate(-45 251.306 59.7078)" fill="url(#paint30_radial_1286_14951)" fill-opacity="0.3"/>
<rect x="293.193" y="59.7078" width="22.4906" height="22.4906" rx="2" transform="rotate(-45 293.193 59.7078)" fill="url(#paint31_radial_1286_14951)" fill-opacity="0.3"/>
</g>
<g opacity="0.5">
<rect width="22.4906" height="22.4906" rx="2" transform="matrix(0.707105 -0.707108 0.707105 0.707108 0 145.361)" fill="url(#paint32_radial_1286_14951)" fill-opacity="0.3"/>
<rect width="22.4906" height="22.4906" rx="2" transform="matrix(0.707105 -0.707108 0.707105 0.707108 41.8867 145.361)" fill="url(#paint33_radial_1286_14951)" fill-opacity="0.3"/>
<rect width="22.4906" height="22.4906" rx="2" transform="matrix(0.707105 -0.707108 0.707105 0.707108 83.7661 145.361)" fill="url(#paint34_radial_1286_14951)" fill-opacity="0.3"/>
<rect width="22.4906" height="22.4906" rx="2" transform="matrix(0.707105 -0.707108 0.707105 0.707108 125.653 145.361)" fill="url(#paint35_radial_1286_14951)" fill-opacity="0.3"/>
<rect width="22.4906" height="22.4906" rx="2" transform="matrix(0.707105 -0.707108 0.707105 0.707108 167.542 145.361)" fill="url(#paint36_radial_1286_14951)" fill-opacity="0.3"/>
<rect width="22.4906" height="22.4906" rx="2" transform="matrix(0.707105 -0.707108 0.707105 0.707108 209.423 145.361)" fill="url(#paint37_radial_1286_14951)" fill-opacity="0.3"/>
<rect width="22.4906" height="22.4906" rx="2" transform="matrix(0.707105 -0.707108 0.707105 0.707108 251.306 145.361)" fill="url(#paint38_radial_1286_14951)" fill-opacity="0.3"/>
<rect width="22.4906" height="22.4906" rx="2" transform="matrix(0.707105 -0.707108 0.707105 0.707108 293.193 145.361)" fill="url(#paint39_radial_1286_14951)" fill-opacity="0.3"/>
</g>
<g opacity="0.5">
<rect y="231.015" width="22.4906" height="22.4906" rx="2" transform="rotate(-45 0 231.015)" fill="url(#paint40_radial_1286_14951)" fill-opacity="0.3"/>
<rect x="41.8867" y="231.015" width="22.4906" height="22.4906" rx="2" transform="rotate(-45 41.8867 231.015)" fill="url(#paint41_radial_1286_14951)" fill-opacity="0.3"/>
<rect x="83.7661" y="231.015" width="22.4906" height="22.4906" rx="2" transform="rotate(-45 83.7661 231.015)" fill="url(#paint42_radial_1286_14951)" fill-opacity="0.3"/>
<rect x="125.653" y="231.015" width="22.4906" height="22.4906" rx="2" transform="rotate(-45 125.653 231.015)" fill="url(#paint43_radial_1286_14951)" fill-opacity="0.3"/>
<rect x="167.542" y="231.015" width="22.4906" height="22.4906" rx="2" transform="rotate(-45 167.542 231.015)" fill="url(#paint44_radial_1286_14951)" fill-opacity="0.3"/>
<rect x="209.423" y="231.015" width="22.4906" height="22.4906" rx="2" transform="rotate(-45 209.423 231.015)" fill="url(#paint45_radial_1286_14951)" fill-opacity="0.3"/>
<rect x="251.306" y="231.015" width="22.4906" height="22.4906" rx="2" transform="rotate(-45 251.306 231.015)" fill="url(#paint46_radial_1286_14951)" fill-opacity="0.3"/>
<rect x="293.193" y="231.015" width="22.4906" height="22.4906" rx="2" transform="rotate(-45 293.193 231.015)" fill="url(#paint47_radial_1286_14951)" fill-opacity="0.3"/>
</g>
<defs>
<radialGradient id="paint0_radial_1286_14951" cx="0" cy="0" r="1" gradientUnits="userSpaceOnUse" gradientTransform="translate(11.2453 28.1256) rotate(85.3036) scale(21.554)">
<stop stop-color="#D2D2D2"/>
<stop offset="1" stop-color="#FAFAFA"/>
</radialGradient>
<radialGradient id="paint1_radial_1286_14951" cx="0" cy="0" r="1" gradientUnits="userSpaceOnUse" gradientTransform="translate(53.132 28.1256) rotate(85.3036) scale(21.554)">
<stop stop-color="#D2D2D2"/>
<stop offset="1" stop-color="#FAFAFA"/>
</radialGradient>
<radialGradient id="paint2_radial_1286_14951" cx="0" cy="0" r="1" gradientUnits="userSpaceOnUse" gradientTransform="translate(95.0114 28.1256) rotate(85.3036) scale(21.554)">
<stop stop-color="#D2D2D2"/>
<stop offset="1" stop-color="#FAFAFA"/>
</radialGradient>
<radialGradient id="paint3_radial_1286_14951" cx="0" cy="0" r="1" gradientUnits="userSpaceOnUse" gradientTransform="translate(136.899 28.1257) rotate(85.3036) scale(21.554)">
<stop stop-color="#D2D2D2"/>
<stop offset="1" stop-color="#FAFAFA"/>
</radialGradient>
<radialGradient id="paint4_radial_1286_14951" cx="0" cy="0" r="1" gradientUnits="userSpaceOnUse" gradientTransform="translate(178.789 28.1256) rotate(85.3036) scale(21.554)">
<stop stop-color="#D2D2D2"/>
<stop offset="1" stop-color="#FAFAFA"/>
</radialGradient>
<radialGradient id="paint5_radial_1286_14951" cx="0" cy="0" r="1" gradientUnits="userSpaceOnUse" gradientTransform="translate(220.669 28.1256) rotate(85.3036) scale(21.554)">
<stop stop-color="#D2D2D2"/>
<stop offset="1" stop-color="#FAFAFA"/>
</radialGradient>
<radialGradient id="paint6_radial_1286_14951" cx="0" cy="0" r="1" gradientUnits="userSpaceOnUse" gradientTransform="translate(262.551 28.1256) rotate(85.3036) scale(21.554)">
<stop stop-color="#D2D2D2"/>
<stop offset="1" stop-color="#FAFAFA"/>
</radialGradient>
<radialGradient id="paint7_radial_1286_14951" cx="0" cy="0" r="1" gradientUnits="userSpaceOnUse" gradientTransform="translate(304.439 28.1256) rotate(85.3036) scale(21.554)">
<stop stop-color="#D2D2D2"/>
<stop offset="1" stop-color="#FAFAFA"/>
</radialGradient>
<radialGradient id="paint8_radial_1286_14951" cx="0" cy="0" r="1" gradientUnits="userSpaceOnUse" gradientTransform="translate(11.2453 113.78) rotate(85.3036) scale(21.554)">
<stop stop-color="#D2D2D2"/>
<stop offset="1" stop-color="#FAFAFA"/>
</radialGradient>
<radialGradient id="paint9_radial_1286_14951" cx="0" cy="0" r="1" gradientUnits="userSpaceOnUse" gradientTransform="translate(53.132 113.78) rotate(85.3036) scale(21.554)">
<stop stop-color="#D2D2D2"/>
<stop offset="1" stop-color="#FAFAFA"/>
</radialGradient>
<radialGradient id="paint10_radial_1286_14951" cx="0" cy="0" r="1" gradientUnits="userSpaceOnUse" gradientTransform="translate(95.0114 113.78) rotate(85.3036) scale(21.554)">
<stop stop-color="#D2D2D2"/>
<stop offset="1" stop-color="#FAFAFA"/>
</radialGradient>
<radialGradient id="paint11_radial_1286_14951" cx="0" cy="0" r="1" gradientUnits="userSpaceOnUse" gradientTransform="translate(136.899 113.78) rotate(85.3036) scale(21.554)">
<stop stop-color="#D2D2D2"/>
<stop offset="1" stop-color="#FAFAFA"/>
</radialGradient>
<radialGradient id="paint12_radial_1286_14951" cx="0" cy="0" r="1" gradientUnits="userSpaceOnUse" gradientTransform="translate(178.787 113.78) rotate(85.3036) scale(21.554)">
<stop stop-color="#D2D2D2"/>
<stop offset="1" stop-color="#FAFAFA"/>
</radialGradient>
<radialGradient id="paint13_radial_1286_14951" cx="0" cy="0" r="1" gradientUnits="userSpaceOnUse" gradientTransform="translate(220.669 113.78) rotate(85.3036) scale(21.554)">
<stop stop-color="#D2D2D2"/>
<stop offset="1" stop-color="#FAFAFA"/>
</radialGradient>
<radialGradient id="paint14_radial_1286_14951" cx="0" cy="0" r="1" gradientUnits="userSpaceOnUse" gradientTransform="translate(262.551 113.78) rotate(85.3036) scale(21.554)">
<stop stop-color="#D2D2D2"/>
<stop offset="1" stop-color="#FAFAFA"/>
</radialGradient>
<radialGradient id="paint15_radial_1286_14951" cx="0" cy="0" r="1" gradientUnits="userSpaceOnUse" gradientTransform="translate(304.439 113.78) rotate(85.3036) scale(21.554)">
<stop stop-color="#D2D2D2"/>
<stop offset="1" stop-color="#FAFAFA"/>
</radialGradient>
<radialGradient id="paint16_radial_1286_14951" cx="0" cy="0" r="1" gradientUnits="userSpaceOnUse" gradientTransform="translate(11.2453 199.433) rotate(85.3036) scale(21.554)">
<stop stop-color="#D2D2D2"/>
<stop offset="1" stop-color="#FAFAFA"/>
</radialGradient>
<radialGradient id="paint17_radial_1286_14951" cx="0" cy="0" r="1" gradientUnits="userSpaceOnUse" gradientTransform="translate(53.132 199.433) rotate(85.3036) scale(21.554)">
<stop stop-color="#D2D2D2"/>
<stop offset="1" stop-color="#FAFAFA"/>
</radialGradient>
<radialGradient id="paint18_radial_1286_14951" cx="0" cy="0" r="1" gradientUnits="userSpaceOnUse" gradientTransform="translate(95.0114 199.433) rotate(85.3036) scale(21.554)">
<stop stop-color="#D2D2D2"/>
<stop offset="1" stop-color="#FAFAFA"/>
</radialGradient>
<radialGradient id="paint19_radial_1286_14951" cx="0" cy="0" r="1" gradientUnits="userSpaceOnUse" gradientTransform="translate(136.899 199.433) rotate(85.3036) scale(21.554)">
<stop stop-color="#D2D2D2"/>
<stop offset="1" stop-color="#FAFAFA"/>
</radialGradient>
<radialGradient id="paint20_radial_1286_14951" cx="0" cy="0" r="1" gradientUnits="userSpaceOnUse" gradientTransform="translate(178.787 199.433) rotate(85.3036) scale(21.554)">
<stop stop-color="#D2D2D2"/>
<stop offset="1" stop-color="#FAFAFA"/>
</radialGradient>
<radialGradient id="paint21_radial_1286_14951" cx="0" cy="0" r="1" gradientUnits="userSpaceOnUse" gradientTransform="translate(220.669 199.433) rotate(85.3036) scale(21.554)">
<stop stop-color="#D2D2D2"/>
<stop offset="1" stop-color="#FAFAFA"/>
</radialGradient>
<radialGradient id="paint22_radial_1286_14951" cx="0" cy="0" r="1" gradientUnits="userSpaceOnUse" gradientTransform="translate(262.551 199.433) rotate(85.3036) scale(21.554)">
<stop stop-color="#D2D2D2"/>
<stop offset="1" stop-color="#FAFAFA"/>
</radialGradient>
<radialGradient id="paint23_radial_1286_14951" cx="0" cy="0" r="1" gradientUnits="userSpaceOnUse" gradientTransform="translate(304.439 199.433) rotate(85.3036) scale(21.554)">
<stop stop-color="#D2D2D2"/>
<stop offset="1" stop-color="#FAFAFA"/>
</radialGradient>
<radialGradient id="paint24_radial_1286_14951" cx="0" cy="0" r="1" gradientUnits="userSpaceOnUse" gradientTransform="translate(11.2453 70.9531) rotate(85.3036) scale(21.554)">
<stop stop-color="#D2D2D2"/>
<stop offset="1" stop-color="#FAFAFA"/>
</radialGradient>
<radialGradient id="paint25_radial_1286_14951" cx="0" cy="0" r="1" gradientUnits="userSpaceOnUse" gradientTransform="translate(53.132 70.9531) rotate(85.3036) scale(21.554)">
<stop stop-color="#D2D2D2"/>
<stop offset="1" stop-color="#FAFAFA"/>
</radialGradient>
<radialGradient id="paint26_radial_1286_14951" cx="0" cy="0" r="1" gradientUnits="userSpaceOnUse" gradientTransform="translate(95.0114 70.9531) rotate(85.3036) scale(21.554)">
<stop stop-color="#D2D2D2"/>
<stop offset="1" stop-color="#FAFAFA"/>
</radialGradient>
<radialGradient id="paint27_radial_1286_14951" cx="0" cy="0" r="1" gradientUnits="userSpaceOnUse" gradientTransform="translate(136.899 70.9531) rotate(85.3036) scale(21.554)">
<stop stop-color="#D2D2D2"/>
<stop offset="1" stop-color="#FAFAFA"/>
</radialGradient>
<radialGradient id="paint28_radial_1286_14951" cx="0" cy="0" r="1" gradientUnits="userSpaceOnUse" gradientTransform="translate(178.787 70.9531) rotate(85.3036) scale(21.554)">
<stop stop-color="#D2D2D2"/>
<stop offset="1" stop-color="#FAFAFA"/>
</radialGradient>
<radialGradient id="paint29_radial_1286_14951" cx="0" cy="0" r="1" gradientUnits="userSpaceOnUse" gradientTransform="translate(220.669 70.9531) rotate(85.3036) scale(21.554)">
<stop stop-color="#D2D2D2"/>
<stop offset="1" stop-color="#FAFAFA"/>
</radialGradient>
<radialGradient id="paint30_radial_1286_14951" cx="0" cy="0" r="1" gradientUnits="userSpaceOnUse" gradientTransform="translate(262.551 70.9531) rotate(85.3036) scale(21.554)">
<stop stop-color="#D2D2D2"/>
<stop offset="1" stop-color="#FAFAFA"/>
</radialGradient>
<radialGradient id="paint31_radial_1286_14951" cx="0" cy="0" r="1" gradientUnits="userSpaceOnUse" gradientTransform="translate(304.439 70.9531) rotate(85.3036) scale(21.554)">
<stop stop-color="#D2D2D2"/>
<stop offset="1" stop-color="#FAFAFA"/>
</radialGradient>
<radialGradient id="paint32_radial_1286_14951" cx="0" cy="0" r="1" gradientUnits="userSpaceOnUse" gradientTransform="translate(11.2453 11.2453) rotate(85.3036) scale(21.554)">
<stop stop-color="#D2D2D2"/>
<stop offset="1" stop-color="#FAFAFA"/>
</radialGradient>
<radialGradient id="paint33_radial_1286_14951" cx="0" cy="0" r="1" gradientUnits="userSpaceOnUse" gradientTransform="translate(11.2453 11.2453) rotate(85.3036) scale(21.554)">
<stop stop-color="#D2D2D2"/>
<stop offset="1" stop-color="#FAFAFA"/>
</radialGradient>
<radialGradient id="paint34_radial_1286_14951" cx="0" cy="0" r="1" gradientUnits="userSpaceOnUse" gradientTransform="translate(11.2453 11.2453) rotate(85.3036) scale(21.554)">
<stop stop-color="#D2D2D2"/>
<stop offset="1" stop-color="#FAFAFA"/>
</radialGradient>
<radialGradient id="paint35_radial_1286_14951" cx="0" cy="0" r="1" gradientUnits="userSpaceOnUse" gradientTransform="translate(11.2453 11.2453) rotate(85.3036) scale(21.554)">
<stop stop-color="#D2D2D2"/>
<stop offset="1" stop-color="#FAFAFA"/>
</radialGradient>
<radialGradient id="paint36_radial_1286_14951" cx="0" cy="0" r="1" gradientUnits="userSpaceOnUse" gradientTransform="translate(11.2453 11.2453) rotate(85.3036) scale(21.554)">
<stop stop-color="#D2D2D2"/>
<stop offset="1" stop-color="#FAFAFA"/>
</radialGradient>
<radialGradient id="paint37_radial_1286_14951" cx="0" cy="0" r="1" gradientUnits="userSpaceOnUse" gradientTransform="translate(11.2453 11.2453) rotate(85.3036) scale(21.554)">
<stop stop-color="#D2D2D2"/>
<stop offset="1" stop-color="#FAFAFA"/>
</radialGradient>
<radialGradient id="paint38_radial_1286_14951" cx="0" cy="0" r="1" gradientUnits="userSpaceOnUse" gradientTransform="translate(11.2453 11.2453) rotate(85.3036) scale(21.554)">
<stop stop-color="#D2D2D2"/>
<stop offset="1" stop-color="#FAFAFA"/>
</radialGradient>
<radialGradient id="paint39_radial_1286_14951" cx="0" cy="0" r="1" gradientUnits="userSpaceOnUse" gradientTransform="translate(11.2453 11.2453) rotate(85.3036) scale(21.554)">
<stop stop-color="#D2D2D2"/>
<stop offset="1" stop-color="#FAFAFA"/>
</radialGradient>
<radialGradient id="paint40_radial_1286_14951" cx="0" cy="0" r="1" gradientUnits="userSpaceOnUse" gradientTransform="translate(11.2453 242.261) rotate(85.3036) scale(21.554)">
<stop stop-color="#D2D2D2"/>
<stop offset="1" stop-color="#FAFAFA"/>
</radialGradient>
<radialGradient id="paint41_radial_1286_14951" cx="0" cy="0" r="1" gradientUnits="userSpaceOnUse" gradientTransform="translate(53.132 242.261) rotate(85.3036) scale(21.554)">
<stop stop-color="#D2D2D2"/>
<stop offset="1" stop-color="#FAFAFA"/>
</radialGradient>
<radialGradient id="paint42_radial_1286_14951" cx="0" cy="0" r="1" gradientUnits="userSpaceOnUse" gradientTransform="translate(95.0114 242.261) rotate(85.3036) scale(21.554)">
<stop stop-color="#D2D2D2"/>
<stop offset="1" stop-color="#FAFAFA"/>
</radialGradient>
<radialGradient id="paint43_radial_1286_14951" cx="0" cy="0" r="1" gradientUnits="userSpaceOnUse" gradientTransform="translate(136.899 242.261) rotate(85.3036) scale(21.554)">
<stop stop-color="#D2D2D2"/>
<stop offset="1" stop-color="#FAFAFA"/>
</radialGradient>
<radialGradient id="paint44_radial_1286_14951" cx="0" cy="0" r="1" gradientUnits="userSpaceOnUse" gradientTransform="translate(178.787 242.261) rotate(85.3036) scale(21.554)">
<stop stop-color="#D2D2D2"/>
<stop offset="1" stop-color="#FAFAFA"/>
</radialGradient>
<radialGradient id="paint45_radial_1286_14951" cx="0" cy="0" r="1" gradientUnits="userSpaceOnUse" gradientTransform="translate(220.669 242.261) rotate(85.3036) scale(21.554)">
<stop stop-color="#D2D2D2"/>
<stop offset="1" stop-color="#FAFAFA"/>
</radialGradient>
<radialGradient id="paint46_radial_1286_14951" cx="0" cy="0" r="1" gradientUnits="userSpaceOnUse" gradientTransform="translate(262.551 242.261) rotate(85.3036) scale(21.554)">
<stop stop-color="#D2D2D2"/>
<stop offset="1" stop-color="#FAFAFA"/>
</radialGradient>
<radialGradient id="paint47_radial_1286_14951" cx="0" cy="0" r="1" gradientUnits="userSpaceOnUse" gradientTransform="translate(304.439 242.261) rotate(85.3036) scale(21.554)">
<stop stop-color="#D2D2D2"/>
<stop offset="1" stop-color="#FAFAFA"/>
</radialGradient>
</defs>
</svg>
