<svg width="194" height="132" viewBox="0 0 194 132" fill="none" xmlns="http://www.w3.org/2000/svg">
<g opacity="0.5">
<rect x="-6.34106" y="13.1433" width="18.5874" height="18.5874" rx="4.34178" transform="rotate(-45 -6.34106 13.1433)" fill="url(#paint0_radial_1286_14573)" fill-opacity="0.2"/>
<rect x="28.2739" y="13.1433" width="18.5874" height="18.5874" rx="4.34178" transform="rotate(-45 28.2739 13.1433)" fill="url(#paint1_radial_1286_14573)" fill-opacity="0.2"/>
<rect x="62.894" y="13.1438" width="18.5874" height="18.5874" rx="4.34178" transform="rotate(-45 62.894 13.1438)" fill="url(#paint2_radial_1286_14573)" fill-opacity="0.2"/>
<rect x="97.5065" y="13.1433" width="18.5874" height="18.5874" rx="4.34178" transform="rotate(-45 97.5065 13.1433)" fill="url(#paint3_radial_1286_14573)" fill-opacity="0.2"/>
<rect x="132.122" y="13.1433" width="18.5874" height="18.5874" rx="4.34178" transform="rotate(-45 132.122 13.1433)" fill="url(#paint4_radial_1286_14573)" fill-opacity="0.2"/>
<rect x="166.737" y="13.1433" width="18.5874" height="18.5874" rx="4.34178" transform="rotate(-45 166.737 13.1433)" fill="url(#paint5_radial_1286_14573)" fill-opacity="0.2"/>
</g>
<g opacity="0.5">
<rect x="-6.34119" y="83.932" width="18.5874" height="18.5874" rx="4.34178" transform="rotate(-45 -6.34119 83.932)" fill="url(#paint6_radial_1286_14573)" fill-opacity="0.2"/>
<rect x="28.2738" y="83.932" width="18.5874" height="18.5874" rx="4.34178" transform="rotate(-45 28.2738 83.932)" fill="url(#paint7_radial_1286_14573)" fill-opacity="0.2"/>
<rect x="62.8939" y="83.932" width="18.5874" height="18.5874" rx="4.34178" transform="rotate(-45 62.8939 83.932)" fill="url(#paint8_radial_1286_14573)" fill-opacity="0.2"/>
<rect x="97.5063" y="83.932" width="18.5874" height="18.5874" rx="4.34178" transform="rotate(-45 97.5063 83.932)" fill="url(#paint9_radial_1286_14573)" fill-opacity="0.2"/>
<rect x="132.122" y="83.932" width="18.5874" height="18.5874" rx="4.34178" transform="rotate(-45 132.122 83.932)" fill="url(#paint10_radial_1286_14573)" fill-opacity="0.2"/>
<rect x="166.737" y="83.932" width="18.5874" height="18.5874" rx="4.34178" transform="rotate(-45 166.737 83.932)" fill="url(#paint11_radial_1286_14573)" fill-opacity="0.2"/>
</g>
<g opacity="0.5">
<rect x="-6.34119" y="48.5376" width="18.5874" height="18.5874" rx="4.34178" transform="rotate(-45 -6.34119 48.5376)" fill="url(#paint12_radial_1286_14573)" fill-opacity="0.2"/>
<rect x="28.2738" y="48.5376" width="18.5874" height="18.5874" rx="4.34178" transform="rotate(-45 28.2738 48.5376)" fill="url(#paint13_radial_1286_14573)" fill-opacity="0.2"/>
<rect x="62.8939" y="48.5376" width="18.5874" height="18.5874" rx="4.34178" transform="rotate(-45 62.8939 48.5376)" fill="url(#paint14_radial_1286_14573)" fill-opacity="0.2"/>
<rect x="97.5037" y="48.5376" width="18.5874" height="18.5874" rx="4.34178" transform="rotate(-45 97.5037 48.5376)" fill="url(#paint15_radial_1286_14573)" fill-opacity="0.2"/>
<rect x="132.122" y="48.5376" width="18.5874" height="18.5874" rx="4.34178" transform="rotate(-45 132.122 48.5376)" fill="url(#paint16_radial_1286_14573)" fill-opacity="0.2"/>
<rect x="166.737" y="48.5376" width="18.5874" height="18.5874" rx="4.34178" transform="rotate(-45 166.737 48.5376)" fill="url(#paint17_radial_1286_14573)" fill-opacity="0.2"/>
</g>
<g opacity="0.5">
<rect width="18.5874" height="18.5874" rx="4.34178" transform="matrix(0.707105 -0.707108 0.707105 0.707108 -6.34119 119.326)" fill="url(#paint18_radial_1286_14573)" fill-opacity="0.2"/>
<rect width="18.5874" height="18.5874" rx="4.34178" transform="matrix(0.707105 -0.707108 0.707105 0.707108 28.2738 119.326)" fill="url(#paint19_radial_1286_14573)" fill-opacity="0.2"/>
<rect width="18.5874" height="18.5874" rx="4.34178" transform="matrix(0.707105 -0.707108 0.707105 0.707108 62.8939 119.326)" fill="url(#paint20_radial_1286_14573)" fill-opacity="0.2"/>
<rect width="18.5874" height="18.5874" rx="4.34178" transform="matrix(0.707105 -0.707108 0.707105 0.707108 97.5037 119.326)" fill="url(#paint21_radial_1286_14573)" fill-opacity="0.2"/>
<rect width="18.5874" height="18.5874" rx="4.34178" transform="matrix(0.707105 -0.707108 0.707105 0.707108 132.122 119.326)" fill="url(#paint22_radial_1286_14573)" fill-opacity="0.2"/>
<rect width="18.5874" height="18.5874" rx="4.34178" transform="matrix(0.707105 -0.707108 0.707105 0.707108 166.737 119.326)" fill="url(#paint23_radial_1286_14573)" fill-opacity="0.2"/>
</g>
<defs>
<radialGradient id="paint0_radial_1286_14573" cx="0" cy="0" r="1" gradientUnits="userSpaceOnUse" gradientTransform="translate(2.95263 22.437) rotate(85.3036) scale(17.8133)">
<stop stop-color="white"/>
<stop offset="1" stop-color="#FAFAFA"/>
</radialGradient>
<radialGradient id="paint1_radial_1286_14573" cx="0" cy="0" r="1" gradientUnits="userSpaceOnUse" gradientTransform="translate(37.5676 22.437) rotate(85.3036) scale(17.8133)">
<stop stop-color="white"/>
<stop offset="1" stop-color="#FAFAFA"/>
</radialGradient>
<radialGradient id="paint2_radial_1286_14573" cx="0" cy="0" r="1" gradientUnits="userSpaceOnUse" gradientTransform="translate(72.1877 22.4375) rotate(85.3036) scale(17.8133)">
<stop stop-color="white"/>
<stop offset="1" stop-color="#FAFAFA"/>
</radialGradient>
<radialGradient id="paint3_radial_1286_14573" cx="0" cy="0" r="1" gradientUnits="userSpaceOnUse" gradientTransform="translate(106.8 22.437) rotate(85.3036) scale(17.8133)">
<stop stop-color="white"/>
<stop offset="1" stop-color="#FAFAFA"/>
</radialGradient>
<radialGradient id="paint4_radial_1286_14573" cx="0" cy="0" r="1" gradientUnits="userSpaceOnUse" gradientTransform="translate(141.416 22.437) rotate(85.3036) scale(17.8133)">
<stop stop-color="white"/>
<stop offset="1" stop-color="#FAFAFA"/>
</radialGradient>
<radialGradient id="paint5_radial_1286_14573" cx="0" cy="0" r="1" gradientUnits="userSpaceOnUse" gradientTransform="translate(176.031 22.437) rotate(85.3036) scale(17.8133)">
<stop stop-color="white"/>
<stop offset="1" stop-color="#FAFAFA"/>
</radialGradient>
<radialGradient id="paint6_radial_1286_14573" cx="0" cy="0" r="1" gradientUnits="userSpaceOnUse" gradientTransform="translate(2.9525 93.2257) rotate(85.3036) scale(17.8133)">
<stop stop-color="white"/>
<stop offset="1" stop-color="#FAFAFA"/>
</radialGradient>
<radialGradient id="paint7_radial_1286_14573" cx="0" cy="0" r="1" gradientUnits="userSpaceOnUse" gradientTransform="translate(37.5675 93.2257) rotate(85.3036) scale(17.8133)">
<stop stop-color="white"/>
<stop offset="1" stop-color="#FAFAFA"/>
</radialGradient>
<radialGradient id="paint8_radial_1286_14573" cx="0" cy="0" r="1" gradientUnits="userSpaceOnUse" gradientTransform="translate(72.1876 93.2257) rotate(85.3036) scale(17.8133)">
<stop stop-color="white"/>
<stop offset="1" stop-color="#FAFAFA"/>
</radialGradient>
<radialGradient id="paint9_radial_1286_14573" cx="0" cy="0" r="1" gradientUnits="userSpaceOnUse" gradientTransform="translate(106.8 93.2257) rotate(85.3036) scale(17.8133)">
<stop stop-color="white"/>
<stop offset="1" stop-color="#FAFAFA"/>
</radialGradient>
<radialGradient id="paint10_radial_1286_14573" cx="0" cy="0" r="1" gradientUnits="userSpaceOnUse" gradientTransform="translate(141.416 93.2257) rotate(85.3036) scale(17.8133)">
<stop stop-color="white"/>
<stop offset="1" stop-color="#FAFAFA"/>
</radialGradient>
<radialGradient id="paint11_radial_1286_14573" cx="0" cy="0" r="1" gradientUnits="userSpaceOnUse" gradientTransform="translate(176.031 93.2257) rotate(85.3036) scale(17.8133)">
<stop stop-color="white"/>
<stop offset="1" stop-color="#FAFAFA"/>
</radialGradient>
<radialGradient id="paint12_radial_1286_14573" cx="0" cy="0" r="1" gradientUnits="userSpaceOnUse" gradientTransform="translate(2.9525 57.8313) rotate(85.3036) scale(17.8133)">
<stop stop-color="white"/>
<stop offset="1" stop-color="#FAFAFA"/>
</radialGradient>
<radialGradient id="paint13_radial_1286_14573" cx="0" cy="0" r="1" gradientUnits="userSpaceOnUse" gradientTransform="translate(37.5675 57.8313) rotate(85.3036) scale(17.8133)">
<stop stop-color="white"/>
<stop offset="1" stop-color="#FAFAFA"/>
</radialGradient>
<radialGradient id="paint14_radial_1286_14573" cx="0" cy="0" r="1" gradientUnits="userSpaceOnUse" gradientTransform="translate(72.1876 57.8313) rotate(85.3036) scale(17.8133)">
<stop stop-color="white"/>
<stop offset="1" stop-color="#FAFAFA"/>
</radialGradient>
<radialGradient id="paint15_radial_1286_14573" cx="0" cy="0" r="1" gradientUnits="userSpaceOnUse" gradientTransform="translate(106.797 57.8313) rotate(85.3036) scale(17.8133)">
<stop stop-color="white"/>
<stop offset="1" stop-color="#FAFAFA"/>
</radialGradient>
<radialGradient id="paint16_radial_1286_14573" cx="0" cy="0" r="1" gradientUnits="userSpaceOnUse" gradientTransform="translate(141.416 57.8313) rotate(85.3036) scale(17.8133)">
<stop stop-color="white"/>
<stop offset="1" stop-color="#FAFAFA"/>
</radialGradient>
<radialGradient id="paint17_radial_1286_14573" cx="0" cy="0" r="1" gradientUnits="userSpaceOnUse" gradientTransform="translate(176.031 57.8313) rotate(85.3036) scale(17.8133)">
<stop stop-color="white"/>
<stop offset="1" stop-color="#FAFAFA"/>
</radialGradient>
<radialGradient id="paint18_radial_1286_14573" cx="0" cy="0" r="1" gradientUnits="userSpaceOnUse" gradientTransform="translate(9.29369 9.29369) rotate(85.3036) scale(17.8133)">
<stop stop-color="white"/>
<stop offset="1" stop-color="#FAFAFA"/>
</radialGradient>
<radialGradient id="paint19_radial_1286_14573" cx="0" cy="0" r="1" gradientUnits="userSpaceOnUse" gradientTransform="translate(9.29369 9.29369) rotate(85.3036) scale(17.8133)">
<stop stop-color="white"/>
<stop offset="1" stop-color="#FAFAFA"/>
</radialGradient>
<radialGradient id="paint20_radial_1286_14573" cx="0" cy="0" r="1" gradientUnits="userSpaceOnUse" gradientTransform="translate(9.29369 9.29369) rotate(85.3036) scale(17.8133)">
<stop stop-color="white"/>
<stop offset="1" stop-color="#FAFAFA"/>
</radialGradient>
<radialGradient id="paint21_radial_1286_14573" cx="0" cy="0" r="1" gradientUnits="userSpaceOnUse" gradientTransform="translate(9.29369 9.29369) rotate(85.3036) scale(17.8133)">
<stop stop-color="white"/>
<stop offset="1" stop-color="#FAFAFA"/>
</radialGradient>
<radialGradient id="paint22_radial_1286_14573" cx="0" cy="0" r="1" gradientUnits="userSpaceOnUse" gradientTransform="translate(9.29369 9.29369) rotate(85.3036) scale(17.8133)">
<stop stop-color="white"/>
<stop offset="1" stop-color="#FAFAFA"/>
</radialGradient>
<radialGradient id="paint23_radial_1286_14573" cx="0" cy="0" r="1" gradientUnits="userSpaceOnUse" gradientTransform="translate(9.29369 9.29369) rotate(85.3036) scale(17.8133)">
<stop stop-color="white"/>
<stop offset="1" stop-color="#FAFAFA"/>
</radialGradient>
</defs>
</svg>
