<svg width="294" height="222" viewBox="0 0 294 222" fill="none" xmlns="http://www.w3.org/2000/svg">
<g opacity="0.5">
<rect y="14.3555" width="20.3012" height="20.3012" rx="4.54797" transform="rotate(-45 0 14.3555)" fill="url(#paint0_radial_1286_14365)"/>
<rect x="37.8063" y="14.3551" width="20.3012" height="20.3012" rx="4.54797" transform="rotate(-45 37.8063 14.3551)" fill="url(#paint1_radial_1286_14365)"/>
<rect x="75.6128" y="14.3552" width="20.3012" height="20.3012" rx="4.54797" transform="rotate(-45 75.6128 14.3552)" fill="url(#paint2_radial_1286_14365)"/>
<rect x="113.425" y="14.3551" width="20.3012" height="20.3012" rx="4.54797" transform="rotate(-45 113.425 14.3551)" fill="url(#paint3_radial_1286_14365)"/>
<rect x="151.228" y="14.3551" width="20.3012" height="20.3012" rx="4.54797" transform="rotate(-45 151.228 14.3551)" fill="url(#paint4_radial_1286_14365)"/>
<rect x="189.038" y="14.3551" width="20.3012" height="20.3012" rx="4.54797" transform="rotate(-45 189.038 14.3551)" fill="url(#paint5_radial_1286_14365)"/>
<rect x="226.847" y="14.3551" width="20.3012" height="20.3012" rx="4.54797" transform="rotate(-45 226.847 14.3551)" fill="url(#paint6_radial_1286_14365)"/>
<rect x="264.647" y="14.3552" width="20.3012" height="20.3012" rx="4.54797" transform="rotate(-45 264.647 14.3552)" fill="url(#paint7_radial_1286_14365)"/>
</g>
<g opacity="0.5">
<rect y="91.6714" width="20.3012" height="20.3012" rx="4.54797" transform="rotate(-45 0 91.6714)" fill="url(#paint8_radial_1286_14365)"/>
<rect x="37.8062" y="91.6715" width="20.3012" height="20.3012" rx="4.54797" transform="rotate(-45 37.8062 91.6715)" fill="url(#paint9_radial_1286_14365)"/>
<rect x="75.6125" y="91.6715" width="20.3012" height="20.3012" rx="4.54797" transform="rotate(-45 75.6125 91.6715)" fill="url(#paint10_radial_1286_14365)"/>
<rect x="113.425" y="91.6715" width="20.3012" height="20.3012" rx="4.54797" transform="rotate(-45 113.425 91.6715)" fill="url(#paint11_radial_1286_14365)"/>
<rect x="151.228" y="91.6715" width="20.3012" height="20.3012" rx="4.54797" transform="rotate(-45 151.228 91.6715)" fill="url(#paint12_radial_1286_14365)"/>
<rect x="189.038" y="91.6715" width="20.3012" height="20.3012" rx="4.54797" transform="rotate(-45 189.038 91.6715)" fill="url(#paint13_radial_1286_14365)"/>
<rect x="226.847" y="91.6715" width="20.3012" height="20.3012" rx="4.54797" transform="rotate(-45 226.847 91.6715)" fill="url(#paint14_radial_1286_14365)"/>
<rect x="264.647" y="91.6715" width="20.3012" height="20.3012" rx="4.54797" transform="rotate(-45 264.647 91.6715)" fill="url(#paint15_radial_1286_14365)"/>
</g>
<g opacity="0.5">
<rect x="-6.10352e-05" y="168.987" width="20.3012" height="20.3012" rx="4.54797" transform="rotate(-45 -6.10352e-05 168.987)" fill="url(#paint16_radial_1286_14365)"/>
<rect x="37.8063" y="168.986" width="20.3012" height="20.3012" rx="4.54797" transform="rotate(-45 37.8063 168.986)" fill="url(#paint17_radial_1286_14365)"/>
<rect x="75.6126" y="168.986" width="20.3012" height="20.3012" rx="4.54797" transform="rotate(-45 75.6126 168.986)" fill="url(#paint18_radial_1286_14365)"/>
<rect x="113.425" y="168.987" width="20.3012" height="20.3012" rx="4.54797" transform="rotate(-45 113.425 168.987)" fill="url(#paint19_radial_1286_14365)"/>
<rect x="151.228" y="168.986" width="20.3012" height="20.3012" rx="4.54797" transform="rotate(-45 151.228 168.986)" fill="url(#paint20_radial_1286_14365)"/>
<rect x="189.037" y="168.986" width="20.3012" height="20.3012" rx="4.54797" transform="rotate(-45 189.037 168.986)" fill="url(#paint21_radial_1286_14365)"/>
<rect x="226.847" y="168.986" width="20.3012" height="20.3012" rx="4.54797" transform="rotate(-45 226.847 168.986)" fill="url(#paint22_radial_1286_14365)"/>
<rect x="264.647" y="168.986" width="20.3012" height="20.3012" rx="4.54797" transform="rotate(-45 264.647 168.986)" fill="url(#paint23_radial_1286_14365)"/>
</g>
<g opacity="0.5">
<rect y="53.0133" width="20.3012" height="20.3012" rx="4.54797" transform="rotate(-45 0 53.0133)" fill="url(#paint24_radial_1286_14365)"/>
<rect x="37.8063" y="53.0129" width="20.3012" height="20.3012" rx="4.54797" transform="rotate(-45 37.8063 53.0129)" fill="url(#paint25_radial_1286_14365)"/>
<rect x="75.6128" y="53.0131" width="20.3012" height="20.3012" rx="4.54797" transform="rotate(-45 75.6128 53.0131)" fill="url(#paint26_radial_1286_14365)"/>
<rect x="113.425" y="53.0129" width="20.3012" height="20.3012" rx="4.54797" transform="rotate(-45 113.425 53.0129)" fill="url(#paint27_radial_1286_14365)"/>
<rect x="151.228" y="53.0129" width="20.3012" height="20.3012" rx="4.54797" transform="rotate(-45 151.228 53.0129)" fill="url(#paint28_radial_1286_14365)"/>
<rect x="189.038" y="53.0129" width="20.3012" height="20.3012" rx="4.54797" transform="rotate(-45 189.038 53.0129)" fill="url(#paint29_radial_1286_14365)"/>
<rect x="226.847" y="53.0129" width="20.3012" height="20.3012" rx="4.54797" transform="rotate(-45 226.847 53.0129)" fill="url(#paint30_radial_1286_14365)"/>
<rect x="264.647" y="53.0131" width="20.3012" height="20.3012" rx="4.54797" transform="rotate(-45 264.647 53.0131)" fill="url(#paint31_radial_1286_14365)"/>
</g>
<g opacity="0.5">
<rect y="130.329" width="20.3012" height="20.3012" rx="4.54797" transform="rotate(-45 0 130.329)" fill="url(#paint32_radial_1286_14365)"/>
<rect x="37.8063" y="130.329" width="20.3012" height="20.3012" rx="4.54797" transform="rotate(-45 37.8063 130.329)" fill="url(#paint33_radial_1286_14365)"/>
<rect x="75.6128" y="130.329" width="20.3012" height="20.3012" rx="4.54797" transform="rotate(-45 75.6128 130.329)" fill="url(#paint34_radial_1286_14365)"/>
<rect x="113.425" y="130.329" width="20.3012" height="20.3012" rx="4.54797" transform="rotate(-45 113.425 130.329)" fill="url(#paint35_radial_1286_14365)"/>
<rect x="151.228" y="130.329" width="20.3012" height="20.3012" rx="4.54797" transform="rotate(-45 151.228 130.329)" fill="url(#paint36_radial_1286_14365)"/>
<rect x="189.038" y="130.329" width="20.3012" height="20.3012" rx="4.54797" transform="rotate(-45 189.038 130.329)" fill="url(#paint37_radial_1286_14365)"/>
<rect x="226.847" y="130.329" width="20.3012" height="20.3012" rx="4.54797" transform="rotate(-45 226.847 130.329)" fill="url(#paint38_radial_1286_14365)"/>
<rect x="264.647" y="130.329" width="20.3012" height="20.3012" rx="4.54797" transform="rotate(-45 264.647 130.329)" fill="url(#paint39_radial_1286_14365)"/>
</g>
<g opacity="0.5">
<rect y="207.645" width="20.3012" height="20.3012" rx="4.54797" transform="rotate(-45 0 207.645)" fill="url(#paint40_radial_1286_14365)"/>
<rect x="37.8063" y="207.644" width="20.3012" height="20.3012" rx="4.54797" transform="rotate(-45 37.8063 207.644)" fill="url(#paint41_radial_1286_14365)"/>
<rect x="75.6128" y="207.644" width="20.3012" height="20.3012" rx="4.54797" transform="rotate(-45 75.6128 207.644)" fill="url(#paint42_radial_1286_14365)"/>
<rect x="113.425" y="207.645" width="20.3012" height="20.3012" rx="4.54797" transform="rotate(-45 113.425 207.645)" fill="url(#paint43_radial_1286_14365)"/>
<rect x="151.228" y="207.644" width="20.3012" height="20.3012" rx="4.54797" transform="rotate(-45 151.228 207.644)" fill="url(#paint44_radial_1286_14365)"/>
<rect x="189.038" y="207.644" width="20.3012" height="20.3012" rx="4.54797" transform="rotate(-45 189.038 207.644)" fill="url(#paint45_radial_1286_14365)"/>
<rect x="226.847" y="207.644" width="20.3012" height="20.3012" rx="4.54797" transform="rotate(-45 226.847 207.644)" fill="url(#paint46_radial_1286_14365)"/>
<rect x="264.647" y="207.644" width="20.3012" height="20.3012" rx="4.54797" transform="rotate(-45 264.647 207.644)" fill="url(#paint47_radial_1286_14365)"/>
</g>
<defs>
<radialGradient id="paint0_radial_1286_14365" cx="0" cy="0" r="1" gradientUnits="userSpaceOnUse" gradientTransform="translate(10.1506 24.5061) rotate(85.3036) scale(19.4557)">
<stop stop-color="#F1F1F1"/>
<stop offset="1" stop-color="#FAFAFA"/>
</radialGradient>
<radialGradient id="paint1_radial_1286_14365" cx="0" cy="0" r="1" gradientUnits="userSpaceOnUse" gradientTransform="translate(47.9569 24.5057) rotate(85.3036) scale(19.4557)">
<stop stop-color="#F1F1F1"/>
<stop offset="1" stop-color="#FAFAFA"/>
</radialGradient>
<radialGradient id="paint2_radial_1286_14365" cx="0" cy="0" r="1" gradientUnits="userSpaceOnUse" gradientTransform="translate(85.7634 24.5058) rotate(85.3036) scale(19.4557)">
<stop stop-color="#F1F1F1"/>
<stop offset="1" stop-color="#FAFAFA"/>
</radialGradient>
<radialGradient id="paint3_radial_1286_14365" cx="0" cy="0" r="1" gradientUnits="userSpaceOnUse" gradientTransform="translate(123.575 24.5057) rotate(85.3036) scale(19.4557)">
<stop stop-color="#F1F1F1"/>
<stop offset="1" stop-color="#FAFAFA"/>
</radialGradient>
<radialGradient id="paint4_radial_1286_14365" cx="0" cy="0" r="1" gradientUnits="userSpaceOnUse" gradientTransform="translate(161.379 24.5057) rotate(85.3036) scale(19.4557)">
<stop stop-color="#F1F1F1"/>
<stop offset="1" stop-color="#FAFAFA"/>
</radialGradient>
<radialGradient id="paint5_radial_1286_14365" cx="0" cy="0" r="1" gradientUnits="userSpaceOnUse" gradientTransform="translate(199.188 24.5057) rotate(85.3036) scale(19.4557)">
<stop stop-color="#F1F1F1"/>
<stop offset="1" stop-color="#FAFAFA"/>
</radialGradient>
<radialGradient id="paint6_radial_1286_14365" cx="0" cy="0" r="1" gradientUnits="userSpaceOnUse" gradientTransform="translate(236.997 24.5057) rotate(85.3036) scale(19.4557)">
<stop stop-color="#F1F1F1"/>
<stop offset="1" stop-color="#FAFAFA"/>
</radialGradient>
<radialGradient id="paint7_radial_1286_14365" cx="0" cy="0" r="1" gradientUnits="userSpaceOnUse" gradientTransform="translate(274.798 24.5058) rotate(85.3036) scale(19.4557)">
<stop stop-color="#F1F1F1"/>
<stop offset="1" stop-color="#FAFAFA"/>
</radialGradient>
<radialGradient id="paint8_radial_1286_14365" cx="0" cy="0" r="1" gradientUnits="userSpaceOnUse" gradientTransform="translate(10.1506 101.822) rotate(85.3036) scale(19.4557)">
<stop stop-color="#F1F1F1"/>
<stop offset="1" stop-color="#FAFAFA"/>
</radialGradient>
<radialGradient id="paint9_radial_1286_14365" cx="0" cy="0" r="1" gradientUnits="userSpaceOnUse" gradientTransform="translate(47.9568 101.822) rotate(85.3036) scale(19.4557)">
<stop stop-color="#F1F1F1"/>
<stop offset="1" stop-color="#FAFAFA"/>
</radialGradient>
<radialGradient id="paint10_radial_1286_14365" cx="0" cy="0" r="1" gradientUnits="userSpaceOnUse" gradientTransform="translate(85.7631 101.822) rotate(85.3036) scale(19.4557)">
<stop stop-color="#F1F1F1"/>
<stop offset="1" stop-color="#FAFAFA"/>
</radialGradient>
<radialGradient id="paint11_radial_1286_14365" cx="0" cy="0" r="1" gradientUnits="userSpaceOnUse" gradientTransform="translate(123.575 101.822) rotate(85.3036) scale(19.4557)">
<stop stop-color="#F1F1F1"/>
<stop offset="1" stop-color="#FAFAFA"/>
</radialGradient>
<radialGradient id="paint12_radial_1286_14365" cx="0" cy="0" r="1" gradientUnits="userSpaceOnUse" gradientTransform="translate(161.379 101.822) rotate(85.3036) scale(19.4557)">
<stop stop-color="#F1F1F1"/>
<stop offset="1" stop-color="#FAFAFA"/>
</radialGradient>
<radialGradient id="paint13_radial_1286_14365" cx="0" cy="0" r="1" gradientUnits="userSpaceOnUse" gradientTransform="translate(199.188 101.822) rotate(85.3036) scale(19.4557)">
<stop stop-color="#F1F1F1"/>
<stop offset="1" stop-color="#FAFAFA"/>
</radialGradient>
<radialGradient id="paint14_radial_1286_14365" cx="0" cy="0" r="1" gradientUnits="userSpaceOnUse" gradientTransform="translate(236.997 101.822) rotate(85.3036) scale(19.4557)">
<stop stop-color="#F1F1F1"/>
<stop offset="1" stop-color="#FAFAFA"/>
</radialGradient>
<radialGradient id="paint15_radial_1286_14365" cx="0" cy="0" r="1" gradientUnits="userSpaceOnUse" gradientTransform="translate(274.798 101.822) rotate(85.3036) scale(19.4557)">
<stop stop-color="#F1F1F1"/>
<stop offset="1" stop-color="#FAFAFA"/>
</radialGradient>
<radialGradient id="paint16_radial_1286_14365" cx="0" cy="0" r="1" gradientUnits="userSpaceOnUse" gradientTransform="translate(10.1506 179.137) rotate(85.3036) scale(19.4557)">
<stop stop-color="#F1F1F1"/>
<stop offset="1" stop-color="#FAFAFA"/>
</radialGradient>
<radialGradient id="paint17_radial_1286_14365" cx="0" cy="0" r="1" gradientUnits="userSpaceOnUse" gradientTransform="translate(47.9569 179.137) rotate(85.3036) scale(19.4557)">
<stop stop-color="#F1F1F1"/>
<stop offset="1" stop-color="#FAFAFA"/>
</radialGradient>
<radialGradient id="paint18_radial_1286_14365" cx="0" cy="0" r="1" gradientUnits="userSpaceOnUse" gradientTransform="translate(85.7632 179.137) rotate(85.3036) scale(19.4557)">
<stop stop-color="#F1F1F1"/>
<stop offset="1" stop-color="#FAFAFA"/>
</radialGradient>
<radialGradient id="paint19_radial_1286_14365" cx="0" cy="0" r="1" gradientUnits="userSpaceOnUse" gradientTransform="translate(123.575 179.137) rotate(85.3036) scale(19.4557)">
<stop stop-color="#F1F1F1"/>
<stop offset="1" stop-color="#FAFAFA"/>
</radialGradient>
<radialGradient id="paint20_radial_1286_14365" cx="0" cy="0" r="1" gradientUnits="userSpaceOnUse" gradientTransform="translate(161.379 179.137) rotate(85.3036) scale(19.4557)">
<stop stop-color="#F1F1F1"/>
<stop offset="1" stop-color="#FAFAFA"/>
</radialGradient>
<radialGradient id="paint21_radial_1286_14365" cx="0" cy="0" r="1" gradientUnits="userSpaceOnUse" gradientTransform="translate(199.188 179.137) rotate(85.3036) scale(19.4557)">
<stop stop-color="#F1F1F1"/>
<stop offset="1" stop-color="#FAFAFA"/>
</radialGradient>
<radialGradient id="paint22_radial_1286_14365" cx="0" cy="0" r="1" gradientUnits="userSpaceOnUse" gradientTransform="translate(236.997 179.137) rotate(85.3036) scale(19.4557)">
<stop stop-color="#F1F1F1"/>
<stop offset="1" stop-color="#FAFAFA"/>
</radialGradient>
<radialGradient id="paint23_radial_1286_14365" cx="0" cy="0" r="1" gradientUnits="userSpaceOnUse" gradientTransform="translate(274.798 179.137) rotate(85.3036) scale(19.4557)">
<stop stop-color="#F1F1F1"/>
<stop offset="1" stop-color="#FAFAFA"/>
</radialGradient>
<radialGradient id="paint24_radial_1286_14365" cx="0" cy="0" r="1" gradientUnits="userSpaceOnUse" gradientTransform="translate(10.1506 63.1639) rotate(85.3036) scale(19.4557)">
<stop stop-color="#F1F1F1"/>
<stop offset="1" stop-color="#FAFAFA"/>
</radialGradient>
<radialGradient id="paint25_radial_1286_14365" cx="0" cy="0" r="1" gradientUnits="userSpaceOnUse" gradientTransform="translate(47.9569 63.1636) rotate(85.3036) scale(19.4557)">
<stop stop-color="#F1F1F1"/>
<stop offset="1" stop-color="#FAFAFA"/>
</radialGradient>
<radialGradient id="paint26_radial_1286_14365" cx="0" cy="0" r="1" gradientUnits="userSpaceOnUse" gradientTransform="translate(85.7634 63.1637) rotate(85.3036) scale(19.4557)">
<stop stop-color="#F1F1F1"/>
<stop offset="1" stop-color="#FAFAFA"/>
</radialGradient>
<radialGradient id="paint27_radial_1286_14365" cx="0" cy="0" r="1" gradientUnits="userSpaceOnUse" gradientTransform="translate(123.575 63.1636) rotate(85.3036) scale(19.4557)">
<stop stop-color="#F1F1F1"/>
<stop offset="1" stop-color="#FAFAFA"/>
</radialGradient>
<radialGradient id="paint28_radial_1286_14365" cx="0" cy="0" r="1" gradientUnits="userSpaceOnUse" gradientTransform="translate(161.379 63.1636) rotate(85.3036) scale(19.4557)">
<stop stop-color="#F1F1F1"/>
<stop offset="1" stop-color="#FAFAFA"/>
</radialGradient>
<radialGradient id="paint29_radial_1286_14365" cx="0" cy="0" r="1" gradientUnits="userSpaceOnUse" gradientTransform="translate(199.188 63.1636) rotate(85.3036) scale(19.4557)">
<stop stop-color="#F1F1F1"/>
<stop offset="1" stop-color="#FAFAFA"/>
</radialGradient>
<radialGradient id="paint30_radial_1286_14365" cx="0" cy="0" r="1" gradientUnits="userSpaceOnUse" gradientTransform="translate(236.997 63.1636) rotate(85.3036) scale(19.4557)">
<stop stop-color="#F1F1F1"/>
<stop offset="1" stop-color="#FAFAFA"/>
</radialGradient>
<radialGradient id="paint31_radial_1286_14365" cx="0" cy="0" r="1" gradientUnits="userSpaceOnUse" gradientTransform="translate(274.798 63.1637) rotate(85.3036) scale(19.4557)">
<stop stop-color="#F1F1F1"/>
<stop offset="1" stop-color="#FAFAFA"/>
</radialGradient>
<radialGradient id="paint32_radial_1286_14365" cx="0" cy="0" r="1" gradientUnits="userSpaceOnUse" gradientTransform="translate(10.1506 140.48) rotate(85.3036) scale(19.4557)">
<stop stop-color="#F1F1F1"/>
<stop offset="1" stop-color="#FAFAFA"/>
</radialGradient>
<radialGradient id="paint33_radial_1286_14365" cx="0" cy="0" r="1" gradientUnits="userSpaceOnUse" gradientTransform="translate(47.9569 140.48) rotate(85.3036) scale(19.4557)">
<stop stop-color="#F1F1F1"/>
<stop offset="1" stop-color="#FAFAFA"/>
</radialGradient>
<radialGradient id="paint34_radial_1286_14365" cx="0" cy="0" r="1" gradientUnits="userSpaceOnUse" gradientTransform="translate(85.7634 140.48) rotate(85.3036) scale(19.4557)">
<stop stop-color="#F1F1F1"/>
<stop offset="1" stop-color="#FAFAFA"/>
</radialGradient>
<radialGradient id="paint35_radial_1286_14365" cx="0" cy="0" r="1" gradientUnits="userSpaceOnUse" gradientTransform="translate(123.575 140.48) rotate(85.3036) scale(19.4557)">
<stop stop-color="#F1F1F1"/>
<stop offset="1" stop-color="#FAFAFA"/>
</radialGradient>
<radialGradient id="paint36_radial_1286_14365" cx="0" cy="0" r="1" gradientUnits="userSpaceOnUse" gradientTransform="translate(161.379 140.48) rotate(85.3036) scale(19.4557)">
<stop stop-color="#F1F1F1"/>
<stop offset="1" stop-color="#FAFAFA"/>
</radialGradient>
<radialGradient id="paint37_radial_1286_14365" cx="0" cy="0" r="1" gradientUnits="userSpaceOnUse" gradientTransform="translate(199.188 140.48) rotate(85.3036) scale(19.4557)">
<stop stop-color="#F1F1F1"/>
<stop offset="1" stop-color="#FAFAFA"/>
</radialGradient>
<radialGradient id="paint38_radial_1286_14365" cx="0" cy="0" r="1" gradientUnits="userSpaceOnUse" gradientTransform="translate(236.997 140.48) rotate(85.3036) scale(19.4557)">
<stop stop-color="#F1F1F1"/>
<stop offset="1" stop-color="#FAFAFA"/>
</radialGradient>
<radialGradient id="paint39_radial_1286_14365" cx="0" cy="0" r="1" gradientUnits="userSpaceOnUse" gradientTransform="translate(274.798 140.48) rotate(85.3036) scale(19.4557)">
<stop stop-color="#F1F1F1"/>
<stop offset="1" stop-color="#FAFAFA"/>
</radialGradient>
<radialGradient id="paint40_radial_1286_14365" cx="0" cy="0" r="1" gradientUnits="userSpaceOnUse" gradientTransform="translate(10.1506 217.795) rotate(85.3036) scale(19.4557)">
<stop stop-color="#F1F1F1"/>
<stop offset="1" stop-color="#FAFAFA"/>
</radialGradient>
<radialGradient id="paint41_radial_1286_14365" cx="0" cy="0" r="1" gradientUnits="userSpaceOnUse" gradientTransform="translate(47.9569 217.795) rotate(85.3036) scale(19.4557)">
<stop stop-color="#F1F1F1"/>
<stop offset="1" stop-color="#FAFAFA"/>
</radialGradient>
<radialGradient id="paint42_radial_1286_14365" cx="0" cy="0" r="1" gradientUnits="userSpaceOnUse" gradientTransform="translate(85.7634 217.795) rotate(85.3036) scale(19.4557)">
<stop stop-color="#F1F1F1"/>
<stop offset="1" stop-color="#FAFAFA"/>
</radialGradient>
<radialGradient id="paint43_radial_1286_14365" cx="0" cy="0" r="1" gradientUnits="userSpaceOnUse" gradientTransform="translate(123.575 217.796) rotate(85.3036) scale(19.4557)">
<stop stop-color="#F1F1F1"/>
<stop offset="1" stop-color="#FAFAFA"/>
</radialGradient>
<radialGradient id="paint44_radial_1286_14365" cx="0" cy="0" r="1" gradientUnits="userSpaceOnUse" gradientTransform="translate(161.379 217.795) rotate(85.3036) scale(19.4557)">
<stop stop-color="#F1F1F1"/>
<stop offset="1" stop-color="#FAFAFA"/>
</radialGradient>
<radialGradient id="paint45_radial_1286_14365" cx="0" cy="0" r="1" gradientUnits="userSpaceOnUse" gradientTransform="translate(199.188 217.795) rotate(85.3036) scale(19.4557)">
<stop stop-color="#F1F1F1"/>
<stop offset="1" stop-color="#FAFAFA"/>
</radialGradient>
<radialGradient id="paint46_radial_1286_14365" cx="0" cy="0" r="1" gradientUnits="userSpaceOnUse" gradientTransform="translate(236.997 217.795) rotate(85.3036) scale(19.4557)">
<stop stop-color="#F1F1F1"/>
<stop offset="1" stop-color="#FAFAFA"/>
</radialGradient>
<radialGradient id="paint47_radial_1286_14365" cx="0" cy="0" r="1" gradientUnits="userSpaceOnUse" gradientTransform="translate(274.798 217.795) rotate(85.3036) scale(19.4557)">
<stop stop-color="#F1F1F1"/>
<stop offset="1" stop-color="#FAFAFA"/>
</radialGradient>
</defs>
</svg>
