<svg width="553" height="445" viewBox="0 0 553 445" fill="none" xmlns="http://www.w3.org/2000/svg">
<rect x="0.0507812" y="28.7695" width="40.6863" height="40.6863" rx="9.11472" transform="rotate(-45 0.0507812 28.7695)" fill="url(#paint0_radial_1312_1466)" fill-opacity="0.5"/>
<rect x="75.8242" y="28.7695" width="40.6863" height="40.6863" rx="9.11472" transform="rotate(-45 75.8242 28.7695)" fill="url(#paint1_radial_1312_1466)" fill-opacity="0.5"/>
<rect x="151.59" y="28.7695" width="40.6863" height="40.6863" rx="9.11472" transform="rotate(-45 151.59 28.7695)" fill="url(#paint2_radial_1312_1466)" fill-opacity="0.5"/>
<rect x="227.371" y="28.7695" width="40.6863" height="40.6863" rx="9.11472" transform="rotate(-45 227.371 28.7695)" fill="url(#paint3_radial_1312_1466)" fill-opacity="0.5"/>
<rect x="303.133" y="28.7695" width="40.6863" height="40.6863" rx="9.11472" transform="rotate(-45 303.133 28.7695)" fill="url(#paint4_radial_1312_1466)" fill-opacity="0.5"/>
<rect x="378.906" y="28.7695" width="40.6863" height="40.6863" rx="9.11472" transform="rotate(-45 378.906 28.7695)" fill="url(#paint5_radial_1312_1466)" fill-opacity="0.5"/>
<rect x="454.68" y="28.7695" width="40.6863" height="40.6863" rx="9.11472" transform="rotate(-45 454.68 28.7695)" fill="url(#paint6_radial_1312_1466)" fill-opacity="0.5"/>
<rect x="530.441" y="28.7695" width="40.6863" height="40.6863" rx="9.11472" transform="rotate(-45 530.441 28.7695)" fill="url(#paint7_radial_1312_1466)" fill-opacity="0.5"/>
<rect x="0.0507812" y="183.721" width="40.6863" height="40.6863" rx="9.11472" transform="rotate(-45 0.0507812 183.721)" fill="url(#paint8_radial_1312_1466)" fill-opacity="0.5"/>
<rect x="75.8242" y="183.721" width="40.6863" height="40.6863" rx="9.11472" transform="rotate(-45 75.8242 183.721)" fill="url(#paint9_radial_1312_1466)" fill-opacity="0.5"/>
<rect x="151.59" y="183.721" width="40.6863" height="40.6863" rx="9.11472" transform="rotate(-45 151.59 183.721)" fill="url(#paint10_radial_1312_1466)" fill-opacity="0.5"/>
<rect x="227.371" y="183.721" width="40.6863" height="40.6863" rx="9.11472" transform="rotate(-45 227.371 183.721)" fill="url(#paint11_radial_1312_1466)" fill-opacity="0.5"/>
<rect x="303.133" y="183.721" width="40.6863" height="40.6863" rx="9.11472" transform="rotate(-45 303.133 183.721)" fill="url(#paint12_radial_1312_1466)" fill-opacity="0.5"/>
<rect x="378.906" y="183.721" width="40.6863" height="40.6863" rx="9.11472" transform="rotate(-45 378.906 183.721)" fill="url(#paint13_radial_1312_1466)" fill-opacity="0.5"/>
<rect x="454.68" y="183.721" width="40.6863" height="40.6863" rx="9.11472" transform="rotate(-45 454.68 183.721)" fill="url(#paint14_radial_1312_1466)" fill-opacity="0.5"/>
<rect x="530.441" y="183.721" width="40.6863" height="40.6863" rx="9.11472" transform="rotate(-45 530.441 183.721)" fill="url(#paint15_radial_1312_1466)" fill-opacity="0.5"/>
<rect x="0.0507812" y="338.671" width="40.6863" height="40.6863" rx="9.11472" transform="rotate(-45 0.0507812 338.671)" fill="url(#paint16_radial_1312_1466)" fill-opacity="0.5"/>
<rect x="75.8242" y="338.67" width="40.6863" height="40.6863" rx="9.11472" transform="rotate(-45 75.8242 338.67)" fill="url(#paint17_radial_1312_1466)" fill-opacity="0.5"/>
<rect x="151.59" y="338.67" width="40.6863" height="40.6863" rx="9.11472" transform="rotate(-45 151.59 338.67)" fill="url(#paint18_radial_1312_1466)" fill-opacity="0.5"/>
<rect x="227.371" y="338.671" width="40.6863" height="40.6863" rx="9.11472" transform="rotate(-45 227.371 338.671)" fill="url(#paint19_radial_1312_1466)" fill-opacity="0.5"/>
<rect x="303.133" y="338.67" width="40.6863" height="40.6863" rx="9.11472" transform="rotate(-45 303.133 338.67)" fill="url(#paint20_radial_1312_1466)" fill-opacity="0.5"/>
<rect x="378.906" y="338.67" width="40.6863" height="40.6863" rx="9.11472" transform="rotate(-45 378.906 338.67)" fill="url(#paint21_radial_1312_1466)" fill-opacity="0.5"/>
<rect x="454.68" y="338.67" width="40.6863" height="40.6863" rx="9.11472" transform="rotate(-45 454.68 338.67)" fill="url(#paint22_radial_1312_1466)" fill-opacity="0.5"/>
<rect x="530.441" y="338.67" width="40.6863" height="40.6863" rx="9.11472" transform="rotate(-45 530.441 338.67)" fill="url(#paint23_radial_1312_1466)" fill-opacity="0.5"/>
<rect x="0.0507812" y="106.245" width="40.6863" height="40.6863" rx="9.11472" transform="rotate(-45 0.0507812 106.245)" fill="url(#paint24_radial_1312_1466)" fill-opacity="0.5"/>
<rect x="75.8242" y="106.245" width="40.6863" height="40.6863" rx="9.11472" transform="rotate(-45 75.8242 106.245)" fill="url(#paint25_radial_1312_1466)" fill-opacity="0.5"/>
<rect x="151.59" y="106.245" width="40.6863" height="40.6863" rx="9.11472" transform="rotate(-45 151.59 106.245)" fill="url(#paint26_radial_1312_1466)" fill-opacity="0.5"/>
<rect x="227.371" y="106.245" width="40.6863" height="40.6863" rx="9.11472" transform="rotate(-45 227.371 106.245)" fill="url(#paint27_radial_1312_1466)" fill-opacity="0.5"/>
<rect x="303.133" y="106.245" width="40.6863" height="40.6863" rx="9.11472" transform="rotate(-45 303.133 106.245)" fill="url(#paint28_radial_1312_1466)" fill-opacity="0.5"/>
<rect x="378.906" y="106.245" width="40.6863" height="40.6863" rx="9.11472" transform="rotate(-45 378.906 106.245)" fill="url(#paint29_radial_1312_1466)" fill-opacity="0.5"/>
<rect x="454.68" y="106.245" width="40.6863" height="40.6863" rx="9.11472" transform="rotate(-45 454.68 106.245)" fill="url(#paint30_radial_1312_1466)" fill-opacity="0.5"/>
<rect x="530.441" y="106.245" width="40.6863" height="40.6863" rx="9.11472" transform="rotate(-45 530.441 106.245)" fill="url(#paint31_radial_1312_1466)" fill-opacity="0.5"/>
<rect x="0.0507812" y="261.197" width="40.6863" height="40.6863" rx="9.11472" transform="rotate(-45 0.0507812 261.197)" fill="url(#paint32_radial_1312_1466)" fill-opacity="0.5"/>
<rect x="75.8242" y="261.197" width="40.6863" height="40.6863" rx="9.11472" transform="rotate(-45 75.8242 261.197)" fill="url(#paint33_radial_1312_1466)" fill-opacity="0.5"/>
<rect x="151.59" y="261.197" width="40.6863" height="40.6863" rx="9.11472" transform="rotate(-45 151.59 261.197)" fill="url(#paint34_radial_1312_1466)" fill-opacity="0.5"/>
<rect x="227.371" y="261.197" width="40.6863" height="40.6863" rx="9.11472" transform="rotate(-45 227.371 261.197)" fill="url(#paint35_radial_1312_1466)" fill-opacity="0.5"/>
<rect x="303.133" y="261.197" width="40.6863" height="40.6863" rx="9.11472" transform="rotate(-45 303.133 261.197)" fill="url(#paint36_radial_1312_1466)" fill-opacity="0.5"/>
<rect x="378.906" y="261.197" width="40.6863" height="40.6863" rx="9.11472" transform="rotate(-45 378.906 261.197)" fill="url(#paint37_radial_1312_1466)" fill-opacity="0.5"/>
<rect x="454.68" y="261.197" width="40.6863" height="40.6863" rx="9.11472" transform="rotate(-45 454.68 261.197)" fill="url(#paint38_radial_1312_1466)" fill-opacity="0.5"/>
<rect x="530.441" y="261.197" width="40.6863" height="40.6863" rx="9.11472" transform="rotate(-45 530.441 261.197)" fill="url(#paint39_radial_1312_1466)" fill-opacity="0.5"/>
<rect x="0.0507812" y="416.146" width="40.6863" height="40.6863" rx="9.11472" transform="rotate(-45 0.0507812 416.146)" fill="url(#paint40_radial_1312_1466)" fill-opacity="0.5"/>
<rect x="75.8242" y="416.146" width="40.6863" height="40.6863" rx="9.11472" transform="rotate(-45 75.8242 416.146)" fill="url(#paint41_radial_1312_1466)" fill-opacity="0.5"/>
<rect x="151.59" y="416.146" width="40.6863" height="40.6863" rx="9.11472" transform="rotate(-45 151.59 416.146)" fill="url(#paint42_radial_1312_1466)" fill-opacity="0.5"/>
<rect x="227.371" y="416.146" width="40.6863" height="40.6863" rx="9.11472" transform="rotate(-45 227.371 416.146)" fill="url(#paint43_radial_1312_1466)" fill-opacity="0.5"/>
<rect x="303.133" y="416.146" width="40.6863" height="40.6863" rx="9.11472" transform="rotate(-45 303.133 416.146)" fill="url(#paint44_radial_1312_1466)" fill-opacity="0.5"/>
<rect x="378.906" y="416.146" width="40.6863" height="40.6863" rx="9.11472" transform="rotate(-45 378.906 416.146)" fill="url(#paint45_radial_1312_1466)" fill-opacity="0.5"/>
<rect x="454.68" y="416.146" width="40.6863" height="40.6863" rx="9.11472" transform="rotate(-45 454.68 416.146)" fill="url(#paint46_radial_1312_1466)" fill-opacity="0.5"/>
<rect x="530.441" y="416.146" width="40.6863" height="40.6863" rx="9.11472" transform="rotate(-45 530.441 416.146)" fill="url(#paint47_radial_1312_1466)" fill-opacity="0.5"/>
<defs>
<radialGradient id="paint0_radial_1312_1466" cx="0" cy="0" r="1" gradientUnits="userSpaceOnUse" gradientTransform="translate(20.3939 49.1127) rotate(85.3036) scale(38.9918)">
<stop stop-color="#F6F5F5"/>
<stop offset="1" stop-color="#FAFAFA"/>
</radialGradient>
<radialGradient id="paint1_radial_1312_1466" cx="0" cy="0" r="1" gradientUnits="userSpaceOnUse" gradientTransform="translate(96.1674 49.1127) rotate(85.3036) scale(38.9918)">
<stop stop-color="#F6F5F5"/>
<stop offset="1" stop-color="#FAFAFA"/>
</radialGradient>
<radialGradient id="paint2_radial_1312_1466" cx="0" cy="0" r="1" gradientUnits="userSpaceOnUse" gradientTransform="translate(171.933 49.1127) rotate(85.3036) scale(38.9918)">
<stop stop-color="#F6F5F5"/>
<stop offset="1" stop-color="#FAFAFA"/>
</radialGradient>
<radialGradient id="paint3_radial_1312_1466" cx="0" cy="0" r="1" gradientUnits="userSpaceOnUse" gradientTransform="translate(247.714 49.1127) rotate(85.3036) scale(38.9918)">
<stop stop-color="#F6F5F5"/>
<stop offset="1" stop-color="#FAFAFA"/>
</radialGradient>
<radialGradient id="paint4_radial_1312_1466" cx="0" cy="0" r="1" gradientUnits="userSpaceOnUse" gradientTransform="translate(323.476 49.1127) rotate(85.3036) scale(38.9918)">
<stop stop-color="#F6F5F5"/>
<stop offset="1" stop-color="#FAFAFA"/>
</radialGradient>
<radialGradient id="paint5_radial_1312_1466" cx="0" cy="0" r="1" gradientUnits="userSpaceOnUse" gradientTransform="translate(399.249 49.1127) rotate(85.3036) scale(38.9918)">
<stop stop-color="#F6F5F5"/>
<stop offset="1" stop-color="#FAFAFA"/>
</radialGradient>
<radialGradient id="paint6_radial_1312_1466" cx="0" cy="0" r="1" gradientUnits="userSpaceOnUse" gradientTransform="translate(475.023 49.1127) rotate(85.3036) scale(38.9918)">
<stop stop-color="#F6F5F5"/>
<stop offset="1" stop-color="#FAFAFA"/>
</radialGradient>
<radialGradient id="paint7_radial_1312_1466" cx="0" cy="0" r="1" gradientUnits="userSpaceOnUse" gradientTransform="translate(550.785 49.1127) rotate(85.3036) scale(38.9918)">
<stop stop-color="#F6F5F5"/>
<stop offset="1" stop-color="#FAFAFA"/>
</radialGradient>
<radialGradient id="paint8_radial_1312_1466" cx="0" cy="0" r="1" gradientUnits="userSpaceOnUse" gradientTransform="translate(20.3939 204.064) rotate(85.3036) scale(38.9918)">
<stop stop-color="#F6F5F5"/>
<stop offset="1" stop-color="#FAFAFA"/>
</radialGradient>
<radialGradient id="paint9_radial_1312_1466" cx="0" cy="0" r="1" gradientUnits="userSpaceOnUse" gradientTransform="translate(96.1674 204.064) rotate(85.3036) scale(38.9918)">
<stop stop-color="#F6F5F5"/>
<stop offset="1" stop-color="#FAFAFA"/>
</radialGradient>
<radialGradient id="paint10_radial_1312_1466" cx="0" cy="0" r="1" gradientUnits="userSpaceOnUse" gradientTransform="translate(171.933 204.064) rotate(85.3036) scale(38.9918)">
<stop stop-color="#F6F5F5"/>
<stop offset="1" stop-color="#FAFAFA"/>
</radialGradient>
<radialGradient id="paint11_radial_1312_1466" cx="0" cy="0" r="1" gradientUnits="userSpaceOnUse" gradientTransform="translate(247.714 204.064) rotate(85.3036) scale(38.9918)">
<stop stop-color="#F6F5F5"/>
<stop offset="1" stop-color="#FAFAFA"/>
</radialGradient>
<radialGradient id="paint12_radial_1312_1466" cx="0" cy="0" r="1" gradientUnits="userSpaceOnUse" gradientTransform="translate(323.476 204.064) rotate(85.3036) scale(38.9918)">
<stop stop-color="#F6F5F5"/>
<stop offset="1" stop-color="#FAFAFA"/>
</radialGradient>
<radialGradient id="paint13_radial_1312_1466" cx="0" cy="0" r="1" gradientUnits="userSpaceOnUse" gradientTransform="translate(399.249 204.064) rotate(85.3036) scale(38.9918)">
<stop stop-color="#F6F5F5"/>
<stop offset="1" stop-color="#FAFAFA"/>
</radialGradient>
<radialGradient id="paint14_radial_1312_1466" cx="0" cy="0" r="1" gradientUnits="userSpaceOnUse" gradientTransform="translate(475.023 204.064) rotate(85.3036) scale(38.9918)">
<stop stop-color="#F6F5F5"/>
<stop offset="1" stop-color="#FAFAFA"/>
</radialGradient>
<radialGradient id="paint15_radial_1312_1466" cx="0" cy="0" r="1" gradientUnits="userSpaceOnUse" gradientTransform="translate(550.785 204.064) rotate(85.3036) scale(38.9918)">
<stop stop-color="#F6F5F5"/>
<stop offset="1" stop-color="#FAFAFA"/>
</radialGradient>
<radialGradient id="paint16_radial_1312_1466" cx="0" cy="0" r="1" gradientUnits="userSpaceOnUse" gradientTransform="translate(20.3939 359.014) rotate(85.3036) scale(38.9918)">
<stop stop-color="#F6F5F5"/>
<stop offset="1" stop-color="#FAFAFA"/>
</radialGradient>
<radialGradient id="paint17_radial_1312_1466" cx="0" cy="0" r="1" gradientUnits="userSpaceOnUse" gradientTransform="translate(96.1674 359.013) rotate(85.3036) scale(38.9918)">
<stop stop-color="#F6F5F5"/>
<stop offset="1" stop-color="#FAFAFA"/>
</radialGradient>
<radialGradient id="paint18_radial_1312_1466" cx="0" cy="0" r="1" gradientUnits="userSpaceOnUse" gradientTransform="translate(171.933 359.013) rotate(85.3036) scale(38.9918)">
<stop stop-color="#F6F5F5"/>
<stop offset="1" stop-color="#FAFAFA"/>
</radialGradient>
<radialGradient id="paint19_radial_1312_1466" cx="0" cy="0" r="1" gradientUnits="userSpaceOnUse" gradientTransform="translate(247.714 359.014) rotate(85.3036) scale(38.9918)">
<stop stop-color="#F6F5F5"/>
<stop offset="1" stop-color="#FAFAFA"/>
</radialGradient>
<radialGradient id="paint20_radial_1312_1466" cx="0" cy="0" r="1" gradientUnits="userSpaceOnUse" gradientTransform="translate(323.476 359.013) rotate(85.3036) scale(38.9918)">
<stop stop-color="#F6F5F5"/>
<stop offset="1" stop-color="#FAFAFA"/>
</radialGradient>
<radialGradient id="paint21_radial_1312_1466" cx="0" cy="0" r="1" gradientUnits="userSpaceOnUse" gradientTransform="translate(399.249 359.013) rotate(85.3036) scale(38.9918)">
<stop stop-color="#F6F5F5"/>
<stop offset="1" stop-color="#FAFAFA"/>
</radialGradient>
<radialGradient id="paint22_radial_1312_1466" cx="0" cy="0" r="1" gradientUnits="userSpaceOnUse" gradientTransform="translate(475.023 359.013) rotate(85.3036) scale(38.9918)">
<stop stop-color="#F6F5F5"/>
<stop offset="1" stop-color="#FAFAFA"/>
</radialGradient>
<radialGradient id="paint23_radial_1312_1466" cx="0" cy="0" r="1" gradientUnits="userSpaceOnUse" gradientTransform="translate(550.785 359.013) rotate(85.3036) scale(38.9918)">
<stop stop-color="#F6F5F5"/>
<stop offset="1" stop-color="#FAFAFA"/>
</radialGradient>
<radialGradient id="paint24_radial_1312_1466" cx="0" cy="0" r="1" gradientUnits="userSpaceOnUse" gradientTransform="translate(20.3939 126.588) rotate(85.3036) scale(38.9918)">
<stop stop-color="#F6F5F5"/>
<stop offset="1" stop-color="#FAFAFA"/>
</radialGradient>
<radialGradient id="paint25_radial_1312_1466" cx="0" cy="0" r="1" gradientUnits="userSpaceOnUse" gradientTransform="translate(96.1674 126.588) rotate(85.3036) scale(38.9918)">
<stop stop-color="#F6F5F5"/>
<stop offset="1" stop-color="#FAFAFA"/>
</radialGradient>
<radialGradient id="paint26_radial_1312_1466" cx="0" cy="0" r="1" gradientUnits="userSpaceOnUse" gradientTransform="translate(171.933 126.588) rotate(85.3036) scale(38.9918)">
<stop stop-color="#F6F5F5"/>
<stop offset="1" stop-color="#FAFAFA"/>
</radialGradient>
<radialGradient id="paint27_radial_1312_1466" cx="0" cy="0" r="1" gradientUnits="userSpaceOnUse" gradientTransform="translate(247.714 126.588) rotate(85.3036) scale(38.9918)">
<stop stop-color="#F6F5F5"/>
<stop offset="1" stop-color="#FAFAFA"/>
</radialGradient>
<radialGradient id="paint28_radial_1312_1466" cx="0" cy="0" r="1" gradientUnits="userSpaceOnUse" gradientTransform="translate(323.476 126.588) rotate(85.3036) scale(38.9918)">
<stop stop-color="#F6F5F5"/>
<stop offset="1" stop-color="#FAFAFA"/>
</radialGradient>
<radialGradient id="paint29_radial_1312_1466" cx="0" cy="0" r="1" gradientUnits="userSpaceOnUse" gradientTransform="translate(399.249 126.588) rotate(85.3036) scale(38.9918)">
<stop stop-color="#F6F5F5"/>
<stop offset="1" stop-color="#FAFAFA"/>
</radialGradient>
<radialGradient id="paint30_radial_1312_1466" cx="0" cy="0" r="1" gradientUnits="userSpaceOnUse" gradientTransform="translate(475.023 126.588) rotate(85.3036) scale(38.9918)">
<stop stop-color="#F6F5F5"/>
<stop offset="1" stop-color="#FAFAFA"/>
</radialGradient>
<radialGradient id="paint31_radial_1312_1466" cx="0" cy="0" r="1" gradientUnits="userSpaceOnUse" gradientTransform="translate(550.785 126.588) rotate(85.3036) scale(38.9918)">
<stop stop-color="#F6F5F5"/>
<stop offset="1" stop-color="#FAFAFA"/>
</radialGradient>
<radialGradient id="paint32_radial_1312_1466" cx="0" cy="0" r="1" gradientUnits="userSpaceOnUse" gradientTransform="translate(20.3939 281.54) rotate(85.3036) scale(38.9918)">
<stop stop-color="#F6F5F5"/>
<stop offset="1" stop-color="#FAFAFA"/>
</radialGradient>
<radialGradient id="paint33_radial_1312_1466" cx="0" cy="0" r="1" gradientUnits="userSpaceOnUse" gradientTransform="translate(96.1674 281.54) rotate(85.3036) scale(38.9918)">
<stop stop-color="#F6F5F5"/>
<stop offset="1" stop-color="#FAFAFA"/>
</radialGradient>
<radialGradient id="paint34_radial_1312_1466" cx="0" cy="0" r="1" gradientUnits="userSpaceOnUse" gradientTransform="translate(171.933 281.54) rotate(85.3036) scale(38.9918)">
<stop stop-color="#F6F5F5"/>
<stop offset="1" stop-color="#FAFAFA"/>
</radialGradient>
<radialGradient id="paint35_radial_1312_1466" cx="0" cy="0" r="1" gradientUnits="userSpaceOnUse" gradientTransform="translate(247.714 281.54) rotate(85.3036) scale(38.9918)">
<stop stop-color="#F6F5F5"/>
<stop offset="1" stop-color="#FAFAFA"/>
</radialGradient>
<radialGradient id="paint36_radial_1312_1466" cx="0" cy="0" r="1" gradientUnits="userSpaceOnUse" gradientTransform="translate(323.476 281.54) rotate(85.3036) scale(38.9918)">
<stop stop-color="#F6F5F5"/>
<stop offset="1" stop-color="#FAFAFA"/>
</radialGradient>
<radialGradient id="paint37_radial_1312_1466" cx="0" cy="0" r="1" gradientUnits="userSpaceOnUse" gradientTransform="translate(399.249 281.54) rotate(85.3036) scale(38.9918)">
<stop stop-color="#F6F5F5"/>
<stop offset="1" stop-color="#FAFAFA"/>
</radialGradient>
<radialGradient id="paint38_radial_1312_1466" cx="0" cy="0" r="1" gradientUnits="userSpaceOnUse" gradientTransform="translate(475.023 281.54) rotate(85.3036) scale(38.9918)">
<stop stop-color="#F6F5F5"/>
<stop offset="1" stop-color="#FAFAFA"/>
</radialGradient>
<radialGradient id="paint39_radial_1312_1466" cx="0" cy="0" r="1" gradientUnits="userSpaceOnUse" gradientTransform="translate(550.785 281.54) rotate(85.3036) scale(38.9918)">
<stop stop-color="#F6F5F5"/>
<stop offset="1" stop-color="#FAFAFA"/>
</radialGradient>
<radialGradient id="paint40_radial_1312_1466" cx="0" cy="0" r="1" gradientUnits="userSpaceOnUse" gradientTransform="translate(20.3939 436.489) rotate(85.3036) scale(38.9918)">
<stop stop-color="#F6F5F5"/>
<stop offset="1" stop-color="#FAFAFA"/>
</radialGradient>
<radialGradient id="paint41_radial_1312_1466" cx="0" cy="0" r="1" gradientUnits="userSpaceOnUse" gradientTransform="translate(96.1674 436.489) rotate(85.3036) scale(38.9918)">
<stop stop-color="#F6F5F5"/>
<stop offset="1" stop-color="#FAFAFA"/>
</radialGradient>
<radialGradient id="paint42_radial_1312_1466" cx="0" cy="0" r="1" gradientUnits="userSpaceOnUse" gradientTransform="translate(171.933 436.489) rotate(85.3036) scale(38.9918)">
<stop stop-color="#F6F5F5"/>
<stop offset="1" stop-color="#FAFAFA"/>
</radialGradient>
<radialGradient id="paint43_radial_1312_1466" cx="0" cy="0" r="1" gradientUnits="userSpaceOnUse" gradientTransform="translate(247.714 436.489) rotate(85.3036) scale(38.9918)">
<stop stop-color="#F6F5F5"/>
<stop offset="1" stop-color="#FAFAFA"/>
</radialGradient>
<radialGradient id="paint44_radial_1312_1466" cx="0" cy="0" r="1" gradientUnits="userSpaceOnUse" gradientTransform="translate(323.476 436.489) rotate(85.3036) scale(38.9918)">
<stop stop-color="#F6F5F5"/>
<stop offset="1" stop-color="#FAFAFA"/>
</radialGradient>
<radialGradient id="paint45_radial_1312_1466" cx="0" cy="0" r="1" gradientUnits="userSpaceOnUse" gradientTransform="translate(399.249 436.489) rotate(85.3036) scale(38.9918)">
<stop stop-color="#F6F5F5"/>
<stop offset="1" stop-color="#FAFAFA"/>
</radialGradient>
<radialGradient id="paint46_radial_1312_1466" cx="0" cy="0" r="1" gradientUnits="userSpaceOnUse" gradientTransform="translate(475.023 436.489) rotate(85.3036) scale(38.9918)">
<stop stop-color="#F6F5F5"/>
<stop offset="1" stop-color="#FAFAFA"/>
</radialGradient>
<radialGradient id="paint47_radial_1312_1466" cx="0" cy="0" r="1" gradientUnits="userSpaceOnUse" gradientTransform="translate(550.785 436.489) rotate(85.3036) scale(38.9918)">
<stop stop-color="#F6F5F5"/>
<stop offset="1" stop-color="#FAFAFA"/>
</radialGradient>
</defs>
</svg>
