<svg width="351" height="265" viewBox="0 0 351 265" fill="none" xmlns="http://www.w3.org/2000/svg">
<g opacity="0.7">
<g opacity="0.5">
<rect width="24.2334" height="24.2334" rx="5.42888" transform="matrix(0.707109 -0.707104 0.707109 0.707104 0 17.1367)" fill="url(#paint0_radial_1296_18445)"/>
<rect width="24.2334" height="24.2334" rx="5.42888" transform="matrix(0.707109 -0.707104 0.707109 0.707104 45.1289 17.1357)" fill="url(#paint1_radial_1296_18445)"/>
<rect width="24.2334" height="24.2334" rx="5.42888" transform="matrix(0.707109 -0.707104 0.707109 0.707104 90.2578 17.1357)" fill="url(#paint2_radial_1296_18445)"/>
<rect width="24.2334" height="24.2334" rx="5.42888" transform="matrix(0.707104 -0.707109 0.707104 0.707109 135.395 17.1357)" fill="url(#paint3_radial_1296_18445)"/>
<rect width="24.2334" height="24.2334" rx="5.42888" transform="matrix(0.707109 -0.707104 0.707109 0.707104 180.52 17.1357)" fill="url(#paint4_radial_1296_18445)"/>
<rect width="24.2334" height="24.2334" rx="5.42888" transform="matrix(0.707109 -0.707104 0.707109 0.707104 225.652 17.1357)" fill="url(#paint5_radial_1296_18445)"/>
<rect width="24.2334" height="24.2334" rx="5.42888" transform="matrix(0.707109 -0.707104 0.707109 0.707104 270.785 17.1357)" fill="url(#paint6_radial_1296_18445)"/>
<rect width="24.2334" height="24.2334" rx="5.42888" transform="matrix(0.707104 -0.707109 0.707104 0.707109 315.907 17.1357)" fill="url(#paint7_radial_1296_18445)"/>
</g>
<g opacity="0.5">
<rect y="109.427" width="24.2334" height="24.2334" rx="5.42888" transform="rotate(-45 0 109.427)" fill="url(#paint8_radial_1296_18445)"/>
<rect x="45.1289" y="109.427" width="24.2334" height="24.2334" rx="5.42888" transform="rotate(-45 45.1289 109.427)" fill="url(#paint9_radial_1296_18445)"/>
<rect x="90.2578" y="109.427" width="24.2334" height="24.2334" rx="5.42888" transform="rotate(-45 90.2578 109.427)" fill="url(#paint10_radial_1296_18445)"/>
<rect x="135.395" y="109.427" width="24.2334" height="24.2334" rx="5.42888" transform="rotate(-45 135.395 109.427)" fill="url(#paint11_radial_1296_18445)"/>
<rect x="180.52" y="109.427" width="24.2334" height="24.2334" rx="5.42888" transform="rotate(-45 180.52 109.427)" fill="url(#paint12_radial_1296_18445)"/>
<rect x="225.652" y="109.427" width="24.2334" height="24.2334" rx="5.42888" transform="rotate(-45 225.652 109.427)" fill="url(#paint13_radial_1296_18445)"/>
<rect x="270.785" y="109.427" width="24.2334" height="24.2334" rx="5.42888" transform="rotate(-45 270.785 109.427)" fill="url(#paint14_radial_1296_18445)"/>
<rect x="315.907" y="109.427" width="24.2334" height="24.2334" rx="5.42888" transform="rotate(-45 315.907 109.427)" fill="url(#paint15_radial_1296_18445)"/>
</g>
<g opacity="0.5">
<rect width="24.2334" height="24.2334" rx="5.42888" transform="matrix(0.707109 -0.707104 0.707109 0.707104 6.10352e-05 201.718)" fill="url(#paint16_radial_1296_18445)"/>
<rect width="24.2334" height="24.2334" rx="5.42888" transform="matrix(0.707104 -0.707109 0.707104 0.707109 45.129 201.717)" fill="url(#paint17_radial_1296_18445)"/>
<rect width="24.2334" height="24.2334" rx="5.42888" transform="matrix(0.707104 -0.707109 0.707104 0.707109 90.2579 201.717)" fill="url(#paint18_radial_1296_18445)"/>
<rect width="24.2334" height="24.2334" rx="5.42888" transform="matrix(0.707109 -0.707104 0.707109 0.707104 135.395 201.718)" fill="url(#paint19_radial_1296_18445)"/>
<rect width="24.2334" height="24.2334" rx="5.42888" transform="matrix(0.707104 -0.707109 0.707104 0.707109 180.52 201.717)" fill="url(#paint20_radial_1296_18445)"/>
<rect width="24.2334" height="24.2334" rx="5.42888" transform="matrix(0.707104 -0.707109 0.707104 0.707109 225.652 201.717)" fill="url(#paint21_radial_1296_18445)"/>
<rect width="24.2334" height="24.2334" rx="5.42888" transform="matrix(0.707109 -0.707104 0.707109 0.707104 270.785 201.717)" fill="url(#paint22_radial_1296_18445)"/>
<rect width="24.2334" height="24.2334" rx="5.42888" transform="matrix(0.707109 -0.707104 0.707109 0.707104 315.907 201.717)" fill="url(#paint23_radial_1296_18445)"/>
</g>
<g opacity="0.5">
<rect width="24.2334" height="24.2334" rx="5.42888" transform="matrix(0.707104 -0.707109 0.707104 0.707109 0 63.2812)" fill="url(#paint24_radial_1296_18445)"/>
<rect width="24.2334" height="24.2334" rx="5.42888" transform="matrix(0.707109 -0.707104 0.707109 0.707104 45.1289 63.2803)" fill="url(#paint25_radial_1296_18445)"/>
<rect width="24.2334" height="24.2334" rx="5.42888" transform="matrix(0.707109 -0.707104 0.707109 0.707104 90.2578 63.2803)" fill="url(#paint26_radial_1296_18445)"/>
<rect width="24.2334" height="24.2334" rx="5.42888" transform="matrix(0.707109 -0.707104 0.707109 0.707104 135.395 63.2803)" fill="url(#paint27_radial_1296_18445)"/>
<rect width="24.2334" height="24.2334" rx="5.42888" transform="matrix(0.707109 -0.707104 0.707109 0.707104 180.52 63.2803)" fill="url(#paint28_radial_1296_18445)"/>
<rect width="24.2334" height="24.2334" rx="5.42888" transform="matrix(0.707109 -0.707104 0.707109 0.707104 225.652 63.2803)" fill="url(#paint29_radial_1296_18445)"/>
<rect width="24.2334" height="24.2334" rx="5.42888" transform="matrix(0.707109 -0.707104 0.707109 0.707104 270.785 63.2803)" fill="url(#paint30_radial_1296_18445)"/>
<rect width="24.2334" height="24.2334" rx="5.42888" transform="matrix(0.707109 -0.707104 0.707109 0.707104 315.907 63.2803)" fill="url(#paint31_radial_1296_18445)"/>
</g>
<g opacity="0.5">
<rect y="155.573" width="24.2334" height="24.2334" rx="5.42888" transform="rotate(-45 0 155.573)" fill="url(#paint32_radial_1296_18445)"/>
<rect x="45.1289" y="155.573" width="24.2334" height="24.2334" rx="5.42888" transform="rotate(-45 45.1289 155.573)" fill="url(#paint33_radial_1296_18445)"/>
<rect x="90.2578" y="155.573" width="24.2334" height="24.2334" rx="5.42888" transform="rotate(-45 90.2578 155.573)" fill="url(#paint34_radial_1296_18445)"/>
<rect x="135.395" y="155.573" width="24.2334" height="24.2334" rx="5.42888" transform="rotate(-45 135.395 155.573)" fill="url(#paint35_radial_1296_18445)"/>
<rect x="180.52" y="155.573" width="24.2334" height="24.2334" rx="5.42888" transform="rotate(-45 180.52 155.573)" fill="url(#paint36_radial_1296_18445)"/>
<rect x="225.652" y="155.573" width="24.2334" height="24.2334" rx="5.42888" transform="rotate(-45 225.652 155.573)" fill="url(#paint37_radial_1296_18445)"/>
<rect x="270.785" y="155.573" width="24.2334" height="24.2334" rx="5.42888" transform="rotate(-45 270.785 155.573)" fill="url(#paint38_radial_1296_18445)"/>
<rect x="315.907" y="155.573" width="24.2334" height="24.2334" rx="5.42888" transform="rotate(-45 315.907 155.573)" fill="url(#paint39_radial_1296_18445)"/>
</g>
<g opacity="0.5">
<rect width="24.2334" height="24.2334" rx="5.42888" transform="matrix(0.707109 -0.707104 0.707109 0.707104 6.10352e-05 247.864)" fill="url(#paint40_radial_1296_18445)"/>
<rect width="24.2334" height="24.2334" rx="5.42888" transform="matrix(0.707104 -0.707109 0.707104 0.707109 45.129 247.863)" fill="url(#paint41_radial_1296_18445)"/>
<rect width="24.2334" height="24.2334" rx="5.42888" transform="matrix(0.707104 -0.707109 0.707104 0.707109 90.2579 247.863)" fill="url(#paint42_radial_1296_18445)"/>
<rect width="24.2334" height="24.2334" rx="5.42888" transform="matrix(0.707104 -0.707109 0.707104 0.707109 135.395 247.864)" fill="url(#paint43_radial_1296_18445)"/>
<rect width="24.2334" height="24.2334" rx="5.42888" transform="matrix(0.707104 -0.707109 0.707104 0.707109 180.52 247.863)" fill="url(#paint44_radial_1296_18445)"/>
<rect width="24.2334" height="24.2334" rx="5.42888" transform="matrix(0.707104 -0.707109 0.707104 0.707109 225.652 247.863)" fill="url(#paint45_radial_1296_18445)"/>
<rect width="24.2334" height="24.2334" rx="5.42888" transform="matrix(0.707104 -0.707109 0.707104 0.707109 270.785 247.863)" fill="url(#paint46_radial_1296_18445)"/>
<rect width="24.2334" height="24.2334" rx="5.42888" transform="matrix(0.707104 -0.707109 0.707104 0.707109 315.907 247.863)" fill="url(#paint47_radial_1296_18445)"/>
</g>
</g>
<defs>
<radialGradient id="paint0_radial_1296_18445" cx="0" cy="0" r="1" gradientUnits="userSpaceOnUse" gradientTransform="translate(12.1167 12.1167) rotate(85.3036) scale(23.2242)">
<stop stop-color="#F1F1F1"/>
<stop offset="1" stop-color="#FAFAFA"/>
</radialGradient>
<radialGradient id="paint1_radial_1296_18445" cx="0" cy="0" r="1" gradientUnits="userSpaceOnUse" gradientTransform="translate(12.1167 12.1167) rotate(85.3036) scale(23.2242)">
<stop stop-color="#F1F1F1"/>
<stop offset="1" stop-color="#FAFAFA"/>
</radialGradient>
<radialGradient id="paint2_radial_1296_18445" cx="0" cy="0" r="1" gradientUnits="userSpaceOnUse" gradientTransform="translate(12.1167 12.1167) rotate(85.3036) scale(23.2242)">
<stop stop-color="#F1F1F1"/>
<stop offset="1" stop-color="#FAFAFA"/>
</radialGradient>
<radialGradient id="paint3_radial_1296_18445" cx="0" cy="0" r="1" gradientUnits="userSpaceOnUse" gradientTransform="translate(12.1167 12.1167) rotate(85.3036) scale(23.2242)">
<stop stop-color="#F1F1F1"/>
<stop offset="1" stop-color="#FAFAFA"/>
</radialGradient>
<radialGradient id="paint4_radial_1296_18445" cx="0" cy="0" r="1" gradientUnits="userSpaceOnUse" gradientTransform="translate(12.1167 12.1167) rotate(85.3036) scale(23.2242)">
<stop stop-color="#F1F1F1"/>
<stop offset="1" stop-color="#FAFAFA"/>
</radialGradient>
<radialGradient id="paint5_radial_1296_18445" cx="0" cy="0" r="1" gradientUnits="userSpaceOnUse" gradientTransform="translate(12.1167 12.1167) rotate(85.3036) scale(23.2242)">
<stop stop-color="#F1F1F1"/>
<stop offset="1" stop-color="#FAFAFA"/>
</radialGradient>
<radialGradient id="paint6_radial_1296_18445" cx="0" cy="0" r="1" gradientUnits="userSpaceOnUse" gradientTransform="translate(12.1167 12.1167) rotate(85.3036) scale(23.2242)">
<stop stop-color="#F1F1F1"/>
<stop offset="1" stop-color="#FAFAFA"/>
</radialGradient>
<radialGradient id="paint7_radial_1296_18445" cx="0" cy="0" r="1" gradientUnits="userSpaceOnUse" gradientTransform="translate(12.1167 12.1167) rotate(85.3036) scale(23.2242)">
<stop stop-color="#F1F1F1"/>
<stop offset="1" stop-color="#FAFAFA"/>
</radialGradient>
<radialGradient id="paint8_radial_1296_18445" cx="0" cy="0" r="1" gradientUnits="userSpaceOnUse" gradientTransform="translate(12.1167 121.544) rotate(85.3036) scale(23.2242)">
<stop stop-color="#F1F1F1"/>
<stop offset="1" stop-color="#FAFAFA"/>
</radialGradient>
<radialGradient id="paint9_radial_1296_18445" cx="0" cy="0" r="1" gradientUnits="userSpaceOnUse" gradientTransform="translate(57.2456 121.544) rotate(85.3036) scale(23.2242)">
<stop stop-color="#F1F1F1"/>
<stop offset="1" stop-color="#FAFAFA"/>
</radialGradient>
<radialGradient id="paint10_radial_1296_18445" cx="0" cy="0" r="1" gradientUnits="userSpaceOnUse" gradientTransform="translate(102.375 121.544) rotate(85.3036) scale(23.2242)">
<stop stop-color="#F1F1F1"/>
<stop offset="1" stop-color="#FAFAFA"/>
</radialGradient>
<radialGradient id="paint11_radial_1296_18445" cx="0" cy="0" r="1" gradientUnits="userSpaceOnUse" gradientTransform="translate(147.511 121.544) rotate(85.3036) scale(23.2242)">
<stop stop-color="#F1F1F1"/>
<stop offset="1" stop-color="#FAFAFA"/>
</radialGradient>
<radialGradient id="paint12_radial_1296_18445" cx="0" cy="0" r="1" gradientUnits="userSpaceOnUse" gradientTransform="translate(192.636 121.544) rotate(85.3036) scale(23.2242)">
<stop stop-color="#F1F1F1"/>
<stop offset="1" stop-color="#FAFAFA"/>
</radialGradient>
<radialGradient id="paint13_radial_1296_18445" cx="0" cy="0" r="1" gradientUnits="userSpaceOnUse" gradientTransform="translate(237.769 121.544) rotate(85.3036) scale(23.2242)">
<stop stop-color="#F1F1F1"/>
<stop offset="1" stop-color="#FAFAFA"/>
</radialGradient>
<radialGradient id="paint14_radial_1296_18445" cx="0" cy="0" r="1" gradientUnits="userSpaceOnUse" gradientTransform="translate(282.902 121.544) rotate(85.3036) scale(23.2242)">
<stop stop-color="#F1F1F1"/>
<stop offset="1" stop-color="#FAFAFA"/>
</radialGradient>
<radialGradient id="paint15_radial_1296_18445" cx="0" cy="0" r="1" gradientUnits="userSpaceOnUse" gradientTransform="translate(328.024 121.544) rotate(85.3036) scale(23.2242)">
<stop stop-color="#F1F1F1"/>
<stop offset="1" stop-color="#FAFAFA"/>
</radialGradient>
<radialGradient id="paint16_radial_1296_18445" cx="0" cy="0" r="1" gradientUnits="userSpaceOnUse" gradientTransform="translate(12.1167 12.1167) rotate(85.3036) scale(23.2242)">
<stop stop-color="#F1F1F1"/>
<stop offset="1" stop-color="#FAFAFA"/>
</radialGradient>
<radialGradient id="paint17_radial_1296_18445" cx="0" cy="0" r="1" gradientUnits="userSpaceOnUse" gradientTransform="translate(12.1167 12.1167) rotate(85.3036) scale(23.2242)">
<stop stop-color="#F1F1F1"/>
<stop offset="1" stop-color="#FAFAFA"/>
</radialGradient>
<radialGradient id="paint18_radial_1296_18445" cx="0" cy="0" r="1" gradientUnits="userSpaceOnUse" gradientTransform="translate(12.1167 12.1167) rotate(85.3036) scale(23.2242)">
<stop stop-color="#F1F1F1"/>
<stop offset="1" stop-color="#FAFAFA"/>
</radialGradient>
<radialGradient id="paint19_radial_1296_18445" cx="0" cy="0" r="1" gradientUnits="userSpaceOnUse" gradientTransform="translate(12.1167 12.1167) rotate(85.3036) scale(23.2242)">
<stop stop-color="#F1F1F1"/>
<stop offset="1" stop-color="#FAFAFA"/>
</radialGradient>
<radialGradient id="paint20_radial_1296_18445" cx="0" cy="0" r="1" gradientUnits="userSpaceOnUse" gradientTransform="translate(12.1167 12.1167) rotate(85.3036) scale(23.2242)">
<stop stop-color="#F1F1F1"/>
<stop offset="1" stop-color="#FAFAFA"/>
</radialGradient>
<radialGradient id="paint21_radial_1296_18445" cx="0" cy="0" r="1" gradientUnits="userSpaceOnUse" gradientTransform="translate(12.1167 12.1167) rotate(85.3036) scale(23.2242)">
<stop stop-color="#F1F1F1"/>
<stop offset="1" stop-color="#FAFAFA"/>
</radialGradient>
<radialGradient id="paint22_radial_1296_18445" cx="0" cy="0" r="1" gradientUnits="userSpaceOnUse" gradientTransform="translate(12.1167 12.1167) rotate(85.3036) scale(23.2242)">
<stop stop-color="#F1F1F1"/>
<stop offset="1" stop-color="#FAFAFA"/>
</radialGradient>
<radialGradient id="paint23_radial_1296_18445" cx="0" cy="0" r="1" gradientUnits="userSpaceOnUse" gradientTransform="translate(12.1167 12.1167) rotate(85.3036) scale(23.2242)">
<stop stop-color="#F1F1F1"/>
<stop offset="1" stop-color="#FAFAFA"/>
</radialGradient>
<radialGradient id="paint24_radial_1296_18445" cx="0" cy="0" r="1" gradientUnits="userSpaceOnUse" gradientTransform="translate(12.1167 12.1167) rotate(85.3036) scale(23.2242)">
<stop stop-color="#F1F1F1"/>
<stop offset="1" stop-color="#FAFAFA"/>
</radialGradient>
<radialGradient id="paint25_radial_1296_18445" cx="0" cy="0" r="1" gradientUnits="userSpaceOnUse" gradientTransform="translate(12.1167 12.1167) rotate(85.3036) scale(23.2242)">
<stop stop-color="#F1F1F1"/>
<stop offset="1" stop-color="#FAFAFA"/>
</radialGradient>
<radialGradient id="paint26_radial_1296_18445" cx="0" cy="0" r="1" gradientUnits="userSpaceOnUse" gradientTransform="translate(12.1167 12.1167) rotate(85.3036) scale(23.2242)">
<stop stop-color="#F1F1F1"/>
<stop offset="1" stop-color="#FAFAFA"/>
</radialGradient>
<radialGradient id="paint27_radial_1296_18445" cx="0" cy="0" r="1" gradientUnits="userSpaceOnUse" gradientTransform="translate(12.1167 12.1167) rotate(85.3036) scale(23.2242)">
<stop stop-color="#F1F1F1"/>
<stop offset="1" stop-color="#FAFAFA"/>
</radialGradient>
<radialGradient id="paint28_radial_1296_18445" cx="0" cy="0" r="1" gradientUnits="userSpaceOnUse" gradientTransform="translate(12.1167 12.1167) rotate(85.3036) scale(23.2242)">
<stop stop-color="#F1F1F1"/>
<stop offset="1" stop-color="#FAFAFA"/>
</radialGradient>
<radialGradient id="paint29_radial_1296_18445" cx="0" cy="0" r="1" gradientUnits="userSpaceOnUse" gradientTransform="translate(12.1167 12.1167) rotate(85.3036) scale(23.2242)">
<stop stop-color="#F1F1F1"/>
<stop offset="1" stop-color="#FAFAFA"/>
</radialGradient>
<radialGradient id="paint30_radial_1296_18445" cx="0" cy="0" r="1" gradientUnits="userSpaceOnUse" gradientTransform="translate(12.1167 12.1167) rotate(85.3036) scale(23.2242)">
<stop stop-color="#F1F1F1"/>
<stop offset="1" stop-color="#FAFAFA"/>
</radialGradient>
<radialGradient id="paint31_radial_1296_18445" cx="0" cy="0" r="1" gradientUnits="userSpaceOnUse" gradientTransform="translate(12.1167 12.1167) rotate(85.3036) scale(23.2242)">
<stop stop-color="#F1F1F1"/>
<stop offset="1" stop-color="#FAFAFA"/>
</radialGradient>
<radialGradient id="paint32_radial_1296_18445" cx="0" cy="0" r="1" gradientUnits="userSpaceOnUse" gradientTransform="translate(12.1167 167.69) rotate(85.3036) scale(23.2242)">
<stop stop-color="#F1F1F1"/>
<stop offset="1" stop-color="#FAFAFA"/>
</radialGradient>
<radialGradient id="paint33_radial_1296_18445" cx="0" cy="0" r="1" gradientUnits="userSpaceOnUse" gradientTransform="translate(57.2456 167.69) rotate(85.3036) scale(23.2242)">
<stop stop-color="#F1F1F1"/>
<stop offset="1" stop-color="#FAFAFA"/>
</radialGradient>
<radialGradient id="paint34_radial_1296_18445" cx="0" cy="0" r="1" gradientUnits="userSpaceOnUse" gradientTransform="translate(102.375 167.69) rotate(85.3036) scale(23.2242)">
<stop stop-color="#F1F1F1"/>
<stop offset="1" stop-color="#FAFAFA"/>
</radialGradient>
<radialGradient id="paint35_radial_1296_18445" cx="0" cy="0" r="1" gradientUnits="userSpaceOnUse" gradientTransform="translate(147.511 167.69) rotate(85.3036) scale(23.2242)">
<stop stop-color="#F1F1F1"/>
<stop offset="1" stop-color="#FAFAFA"/>
</radialGradient>
<radialGradient id="paint36_radial_1296_18445" cx="0" cy="0" r="1" gradientUnits="userSpaceOnUse" gradientTransform="translate(192.636 167.69) rotate(85.3036) scale(23.2242)">
<stop stop-color="#F1F1F1"/>
<stop offset="1" stop-color="#FAFAFA"/>
</radialGradient>
<radialGradient id="paint37_radial_1296_18445" cx="0" cy="0" r="1" gradientUnits="userSpaceOnUse" gradientTransform="translate(237.769 167.69) rotate(85.3036) scale(23.2242)">
<stop stop-color="#F1F1F1"/>
<stop offset="1" stop-color="#FAFAFA"/>
</radialGradient>
<radialGradient id="paint38_radial_1296_18445" cx="0" cy="0" r="1" gradientUnits="userSpaceOnUse" gradientTransform="translate(282.902 167.69) rotate(85.3036) scale(23.2242)">
<stop stop-color="#F1F1F1"/>
<stop offset="1" stop-color="#FAFAFA"/>
</radialGradient>
<radialGradient id="paint39_radial_1296_18445" cx="0" cy="0" r="1" gradientUnits="userSpaceOnUse" gradientTransform="translate(328.024 167.69) rotate(85.3036) scale(23.2242)">
<stop stop-color="#F1F1F1"/>
<stop offset="1" stop-color="#FAFAFA"/>
</radialGradient>
<radialGradient id="paint40_radial_1296_18445" cx="0" cy="0" r="1" gradientUnits="userSpaceOnUse" gradientTransform="translate(12.1167 12.1167) rotate(85.3036) scale(23.2242)">
<stop stop-color="#F1F1F1"/>
<stop offset="1" stop-color="#FAFAFA"/>
</radialGradient>
<radialGradient id="paint41_radial_1296_18445" cx="0" cy="0" r="1" gradientUnits="userSpaceOnUse" gradientTransform="translate(12.1167 12.1167) rotate(85.3036) scale(23.2242)">
<stop stop-color="#F1F1F1"/>
<stop offset="1" stop-color="#FAFAFA"/>
</radialGradient>
<radialGradient id="paint42_radial_1296_18445" cx="0" cy="0" r="1" gradientUnits="userSpaceOnUse" gradientTransform="translate(12.1167 12.1167) rotate(85.3036) scale(23.2242)">
<stop stop-color="#F1F1F1"/>
<stop offset="1" stop-color="#FAFAFA"/>
</radialGradient>
<radialGradient id="paint43_radial_1296_18445" cx="0" cy="0" r="1" gradientUnits="userSpaceOnUse" gradientTransform="translate(12.1167 12.1167) rotate(85.3036) scale(23.2242)">
<stop stop-color="#F1F1F1"/>
<stop offset="1" stop-color="#FAFAFA"/>
</radialGradient>
<radialGradient id="paint44_radial_1296_18445" cx="0" cy="0" r="1" gradientUnits="userSpaceOnUse" gradientTransform="translate(12.1167 12.1167) rotate(85.3036) scale(23.2242)">
<stop stop-color="#F1F1F1"/>
<stop offset="1" stop-color="#FAFAFA"/>
</radialGradient>
<radialGradient id="paint45_radial_1296_18445" cx="0" cy="0" r="1" gradientUnits="userSpaceOnUse" gradientTransform="translate(12.1167 12.1167) rotate(85.3036) scale(23.2242)">
<stop stop-color="#F1F1F1"/>
<stop offset="1" stop-color="#FAFAFA"/>
</radialGradient>
<radialGradient id="paint46_radial_1296_18445" cx="0" cy="0" r="1" gradientUnits="userSpaceOnUse" gradientTransform="translate(12.1167 12.1167) rotate(85.3036) scale(23.2242)">
<stop stop-color="#F1F1F1"/>
<stop offset="1" stop-color="#FAFAFA"/>
</radialGradient>
<radialGradient id="paint47_radial_1296_18445" cx="0" cy="0" r="1" gradientUnits="userSpaceOnUse" gradientTransform="translate(12.1167 12.1167) rotate(85.3036) scale(23.2242)">
<stop stop-color="#F1F1F1"/>
<stop offset="1" stop-color="#FAFAFA"/>
</radialGradient>
</defs>
</svg>
