<svg width="248" height="188" viewBox="0 0 248 188" fill="none" xmlns="http://www.w3.org/2000/svg">
<g opacity="0.5">
<rect width="17.1621" height="17.1621" rx="4" transform="matrix(0.707105 -0.707109 0.707105 0.707109 0 12.136)" fill="url(#paint0_radial_1296_18509)" fill-opacity="0.6"/>
<rect x="31.9619" y="12.136" width="17.1621" height="17.1621" rx="4" transform="rotate(-45 31.9619 12.136)" fill="url(#paint1_radial_1296_18509)" fill-opacity="0.6"/>
<rect x="63.9219" y="12.1355" width="17.1621" height="17.1621" rx="4" transform="rotate(-45 63.9219 12.1355)" fill="url(#paint2_radial_1296_18509)" fill-opacity="0.6"/>
<rect x="95.8838" y="12.136" width="17.1621" height="17.1621" rx="4" transform="rotate(-45 95.8838 12.136)" fill="url(#paint3_radial_1296_18509)" fill-opacity="0.6"/>
<rect x="127.846" y="12.1355" width="17.1621" height="17.1621" rx="4" transform="rotate(-45 127.846 12.1355)" fill="url(#paint4_radial_1296_18509)" fill-opacity="0.6"/>
<rect width="17.1621" height="17.1621" rx="4" transform="matrix(0.707105 -0.707109 0.707105 0.707109 159.805 12.1355)" fill="url(#paint5_radial_1296_18509)" fill-opacity="0.6"/>
<rect width="17.1621" height="17.1621" rx="4" transform="matrix(0.707105 -0.707109 0.707105 0.707109 191.767 12.136)" fill="url(#paint6_radial_1296_18509)" fill-opacity="0.6"/>
<rect width="17.1621" height="17.1621" rx="4" transform="matrix(0.707105 -0.707109 0.707105 0.707109 223.729 12.1355)" fill="url(#paint7_radial_1296_18509)" fill-opacity="0.6"/>
</g>
<g opacity="0.5">
<rect width="17.1621" height="17.1621" rx="4" transform="matrix(0.707112 -0.707101 0.707112 0.707101 0 77.4966)" fill="url(#paint8_radial_1296_18509)" fill-opacity="0.6"/>
<rect width="17.1621" height="17.1621" rx="4" transform="matrix(0.707112 -0.707101 0.707112 0.707101 31.9619 77.4966)" fill="url(#paint9_radial_1296_18509)" fill-opacity="0.6"/>
<rect width="17.1621" height="17.1621" rx="4" transform="matrix(0.707112 -0.707101 0.707112 0.707101 63.9209 77.4966)" fill="url(#paint10_radial_1296_18509)" fill-opacity="0.6"/>
<rect width="17.1621" height="17.1621" rx="4" transform="matrix(0.707112 -0.707101 0.707112 0.707101 95.8838 77.4966)" fill="url(#paint11_radial_1296_18509)" fill-opacity="0.6"/>
<rect width="17.1621" height="17.1621" rx="4" transform="matrix(0.707112 -0.707101 0.707112 0.707101 127.846 77.4966)" fill="url(#paint12_radial_1296_18509)" fill-opacity="0.6"/>
<rect width="17.1621" height="17.1621" rx="4" transform="matrix(0.707112 -0.707101 0.707112 0.707101 159.805 77.4966)" fill="url(#paint13_radial_1296_18509)" fill-opacity="0.6"/>
<rect width="17.1621" height="17.1621" rx="4" transform="matrix(0.707112 -0.707101 0.707112 0.707101 191.767 77.4966)" fill="url(#paint14_radial_1296_18509)" fill-opacity="0.6"/>
<rect width="17.1621" height="17.1621" rx="4" transform="matrix(0.707112 -0.707101 0.707112 0.707101 223.729 77.4966)" fill="url(#paint15_radial_1296_18509)" fill-opacity="0.6"/>
</g>
<g opacity="0.5">
<rect y="142.857" width="17.1621" height="17.1621" rx="4" transform="rotate(-45 0 142.857)" fill="url(#paint16_radial_1296_18509)" fill-opacity="0.6"/>
<rect x="31.9619" y="142.857" width="17.1621" height="17.1621" rx="4" transform="rotate(-45 31.9619 142.857)" fill="url(#paint17_radial_1296_18509)" fill-opacity="0.6"/>
<rect x="63.9219" y="142.857" width="17.1621" height="17.1621" rx="4" transform="rotate(-45 63.9219 142.857)" fill="url(#paint18_radial_1296_18509)" fill-opacity="0.6"/>
<rect x="95.8838" y="142.857" width="17.1621" height="17.1621" rx="4" transform="rotate(-45 95.8838 142.857)" fill="url(#paint19_radial_1296_18509)" fill-opacity="0.6"/>
<rect x="127.846" y="142.857" width="17.1621" height="17.1621" rx="4" transform="rotate(-45 127.846 142.857)" fill="url(#paint20_radial_1296_18509)" fill-opacity="0.6"/>
<rect x="159.805" y="142.857" width="17.1621" height="17.1621" rx="4" transform="rotate(-45 159.805 142.857)" fill="url(#paint21_radial_1296_18509)" fill-opacity="0.6"/>
<rect x="191.767" y="142.857" width="17.1621" height="17.1621" rx="4" transform="rotate(-45 191.767 142.857)" fill="url(#paint22_radial_1296_18509)" fill-opacity="0.6"/>
<rect x="223.729" y="142.857" width="17.1621" height="17.1621" rx="4" transform="rotate(-45 223.729 142.857)" fill="url(#paint23_radial_1296_18509)" fill-opacity="0.6"/>
</g>
<g opacity="0.5">
<rect y="44.8162" width="17.1621" height="17.1621" rx="4" transform="rotate(-45 0 44.8162)" fill="url(#paint24_radial_1296_18509)" fill-opacity="0.6"/>
<rect x="31.9619" y="44.8167" width="17.1621" height="17.1621" rx="4" transform="rotate(-45 31.9619 44.8167)" fill="url(#paint25_radial_1296_18509)" fill-opacity="0.6"/>
<rect x="63.9209" y="44.8162" width="17.1621" height="17.1621" rx="4" transform="rotate(-45 63.9209 44.8162)" fill="url(#paint26_radial_1296_18509)" fill-opacity="0.6"/>
<rect x="95.8838" y="44.8167" width="17.1621" height="17.1621" rx="4" transform="rotate(-45 95.8838 44.8167)" fill="url(#paint27_radial_1296_18509)" fill-opacity="0.6"/>
<rect x="127.846" y="44.8162" width="17.1621" height="17.1621" rx="4" transform="rotate(-45 127.846 44.8162)" fill="url(#paint28_radial_1296_18509)" fill-opacity="0.6"/>
<rect x="159.805" y="44.8162" width="17.1621" height="17.1621" rx="4" transform="rotate(-45 159.805 44.8162)" fill="url(#paint29_radial_1296_18509)" fill-opacity="0.6"/>
<rect x="191.767" y="44.8162" width="17.1621" height="17.1621" rx="4" transform="rotate(-45 191.767 44.8162)" fill="url(#paint30_radial_1296_18509)" fill-opacity="0.6"/>
<rect x="223.729" y="44.8162" width="17.1621" height="17.1621" rx="4" transform="rotate(-45 223.729 44.8162)" fill="url(#paint31_radial_1296_18509)" fill-opacity="0.6"/>
</g>
<g opacity="0.5">
<rect width="17.1621" height="17.1621" rx="4" transform="matrix(0.707105 -0.707109 0.707105 0.707109 0 110.177)" fill="url(#paint32_radial_1296_18509)" fill-opacity="0.6"/>
<rect width="17.1621" height="17.1621" rx="4" transform="matrix(0.707112 -0.707101 0.707112 0.707101 31.9619 110.177)" fill="url(#paint33_radial_1296_18509)" fill-opacity="0.6"/>
<rect width="17.1621" height="17.1621" rx="4" transform="matrix(0.707105 -0.707109 0.707105 0.707109 63.9209 110.177)" fill="url(#paint34_radial_1296_18509)" fill-opacity="0.6"/>
<rect width="17.1621" height="17.1621" rx="4" transform="matrix(0.707112 -0.707101 0.707112 0.707101 95.8838 110.177)" fill="url(#paint35_radial_1296_18509)" fill-opacity="0.6"/>
<rect width="17.1621" height="17.1621" rx="4" transform="matrix(0.707105 -0.707109 0.707105 0.707109 127.846 110.177)" fill="url(#paint36_radial_1296_18509)" fill-opacity="0.6"/>
<rect width="17.1621" height="17.1621" rx="4" transform="matrix(0.707105 -0.707109 0.707105 0.707109 159.805 110.177)" fill="url(#paint37_radial_1296_18509)" fill-opacity="0.6"/>
<rect width="17.1621" height="17.1621" rx="4" transform="matrix(0.707105 -0.707109 0.707105 0.707109 191.767 110.177)" fill="url(#paint38_radial_1296_18509)" fill-opacity="0.6"/>
<rect width="17.1621" height="17.1621" rx="4" transform="matrix(0.707112 -0.707101 0.707112 0.707101 223.729 110.177)" fill="url(#paint39_radial_1296_18509)" fill-opacity="0.6"/>
</g>
<g opacity="0.5">
<rect y="175.537" width="17.1621" height="17.1621" rx="4" transform="rotate(-45 0 175.537)" fill="url(#paint40_radial_1296_18509)" fill-opacity="0.6"/>
<rect x="31.9619" y="175.537" width="17.1621" height="17.1621" rx="4" transform="rotate(-45 31.9619 175.537)" fill="url(#paint41_radial_1296_18509)" fill-opacity="0.6"/>
<rect x="63.9219" y="175.537" width="17.1621" height="17.1621" rx="4" transform="rotate(-45 63.9219 175.537)" fill="url(#paint42_radial_1296_18509)" fill-opacity="0.6"/>
<rect x="95.8838" y="175.537" width="17.1621" height="17.1621" rx="4" transform="rotate(-45 95.8838 175.537)" fill="url(#paint43_radial_1296_18509)" fill-opacity="0.6"/>
<rect x="127.846" y="175.537" width="17.1621" height="17.1621" rx="4" transform="rotate(-45 127.846 175.537)" fill="url(#paint44_radial_1296_18509)" fill-opacity="0.6"/>
<rect x="159.805" y="175.537" width="17.1621" height="17.1621" rx="4" transform="rotate(-45 159.805 175.537)" fill="url(#paint45_radial_1296_18509)" fill-opacity="0.6"/>
<rect x="191.767" y="175.537" width="17.1621" height="17.1621" rx="4" transform="rotate(-45 191.767 175.537)" fill="url(#paint46_radial_1296_18509)" fill-opacity="0.6"/>
<rect x="223.729" y="175.537" width="17.1621" height="17.1621" rx="4" transform="rotate(-45 223.729 175.537)" fill="url(#paint47_radial_1296_18509)" fill-opacity="0.6"/>
</g>
<defs>
<radialGradient id="paint0_radial_1296_18509" cx="0" cy="0" r="1" gradientUnits="userSpaceOnUse" gradientTransform="translate(8.58106 8.58106) rotate(85.3036) scale(16.4474)">
<stop stop-color="white"/>
<stop offset="1" stop-color="#FAFAFA"/>
</radialGradient>
<radialGradient id="paint1_radial_1296_18509" cx="0" cy="0" r="1" gradientUnits="userSpaceOnUse" gradientTransform="translate(40.543 20.717) rotate(85.3036) scale(16.4474)">
<stop stop-color="white"/>
<stop offset="1" stop-color="#FAFAFA"/>
</radialGradient>
<radialGradient id="paint2_radial_1296_18509" cx="0" cy="0" r="1" gradientUnits="userSpaceOnUse" gradientTransform="translate(72.5029 20.7166) rotate(85.3036) scale(16.4474)">
<stop stop-color="white"/>
<stop offset="1" stop-color="#FAFAFA"/>
</radialGradient>
<radialGradient id="paint3_radial_1296_18509" cx="0" cy="0" r="1" gradientUnits="userSpaceOnUse" gradientTransform="translate(104.465 20.717) rotate(85.3036) scale(16.4474)">
<stop stop-color="white"/>
<stop offset="1" stop-color="#FAFAFA"/>
</radialGradient>
<radialGradient id="paint4_radial_1296_18509" cx="0" cy="0" r="1" gradientUnits="userSpaceOnUse" gradientTransform="translate(136.427 20.7166) rotate(85.3036) scale(16.4474)">
<stop stop-color="white"/>
<stop offset="1" stop-color="#FAFAFA"/>
</radialGradient>
<radialGradient id="paint5_radial_1296_18509" cx="0" cy="0" r="1" gradientUnits="userSpaceOnUse" gradientTransform="translate(8.58106 8.58106) rotate(85.3036) scale(16.4474)">
<stop stop-color="white"/>
<stop offset="1" stop-color="#FAFAFA"/>
</radialGradient>
<radialGradient id="paint6_radial_1296_18509" cx="0" cy="0" r="1" gradientUnits="userSpaceOnUse" gradientTransform="translate(8.58106 8.58106) rotate(85.3036) scale(16.4474)">
<stop stop-color="white"/>
<stop offset="1" stop-color="#FAFAFA"/>
</radialGradient>
<radialGradient id="paint7_radial_1296_18509" cx="0" cy="0" r="1" gradientUnits="userSpaceOnUse" gradientTransform="translate(8.58106 8.58106) rotate(85.3036) scale(16.4474)">
<stop stop-color="white"/>
<stop offset="1" stop-color="#FAFAFA"/>
</radialGradient>
<radialGradient id="paint8_radial_1296_18509" cx="0" cy="0" r="1" gradientUnits="userSpaceOnUse" gradientTransform="translate(8.58106 8.58106) rotate(85.3036) scale(16.4474)">
<stop stop-color="white"/>
<stop offset="1" stop-color="#FAFAFA"/>
</radialGradient>
<radialGradient id="paint9_radial_1296_18509" cx="0" cy="0" r="1" gradientUnits="userSpaceOnUse" gradientTransform="translate(8.58106 8.58106) rotate(85.3036) scale(16.4474)">
<stop stop-color="white"/>
<stop offset="1" stop-color="#FAFAFA"/>
</radialGradient>
<radialGradient id="paint10_radial_1296_18509" cx="0" cy="0" r="1" gradientUnits="userSpaceOnUse" gradientTransform="translate(8.58106 8.58106) rotate(85.3036) scale(16.4474)">
<stop stop-color="white"/>
<stop offset="1" stop-color="#FAFAFA"/>
</radialGradient>
<radialGradient id="paint11_radial_1296_18509" cx="0" cy="0" r="1" gradientUnits="userSpaceOnUse" gradientTransform="translate(8.58106 8.58106) rotate(85.3036) scale(16.4474)">
<stop stop-color="white"/>
<stop offset="1" stop-color="#FAFAFA"/>
</radialGradient>
<radialGradient id="paint12_radial_1296_18509" cx="0" cy="0" r="1" gradientUnits="userSpaceOnUse" gradientTransform="translate(8.58106 8.58106) rotate(85.3036) scale(16.4474)">
<stop stop-color="white"/>
<stop offset="1" stop-color="#FAFAFA"/>
</radialGradient>
<radialGradient id="paint13_radial_1296_18509" cx="0" cy="0" r="1" gradientUnits="userSpaceOnUse" gradientTransform="translate(8.58106 8.58106) rotate(85.3036) scale(16.4474)">
<stop stop-color="white"/>
<stop offset="1" stop-color="#FAFAFA"/>
</radialGradient>
<radialGradient id="paint14_radial_1296_18509" cx="0" cy="0" r="1" gradientUnits="userSpaceOnUse" gradientTransform="translate(8.58106 8.58106) rotate(85.3036) scale(16.4474)">
<stop stop-color="white"/>
<stop offset="1" stop-color="#FAFAFA"/>
</radialGradient>
<radialGradient id="paint15_radial_1296_18509" cx="0" cy="0" r="1" gradientUnits="userSpaceOnUse" gradientTransform="translate(8.58106 8.58106) rotate(85.3036) scale(16.4474)">
<stop stop-color="white"/>
<stop offset="1" stop-color="#FAFAFA"/>
</radialGradient>
<radialGradient id="paint16_radial_1296_18509" cx="0" cy="0" r="1" gradientUnits="userSpaceOnUse" gradientTransform="translate(8.58106 151.438) rotate(85.3036) scale(16.4474)">
<stop stop-color="white"/>
<stop offset="1" stop-color="#FAFAFA"/>
</radialGradient>
<radialGradient id="paint17_radial_1296_18509" cx="0" cy="0" r="1" gradientUnits="userSpaceOnUse" gradientTransform="translate(40.543 151.438) rotate(85.3036) scale(16.4474)">
<stop stop-color="white"/>
<stop offset="1" stop-color="#FAFAFA"/>
</radialGradient>
<radialGradient id="paint18_radial_1296_18509" cx="0" cy="0" r="1" gradientUnits="userSpaceOnUse" gradientTransform="translate(72.5029 151.438) rotate(85.3036) scale(16.4474)">
<stop stop-color="white"/>
<stop offset="1" stop-color="#FAFAFA"/>
</radialGradient>
<radialGradient id="paint19_radial_1296_18509" cx="0" cy="0" r="1" gradientUnits="userSpaceOnUse" gradientTransform="translate(104.465 151.438) rotate(85.3036) scale(16.4474)">
<stop stop-color="white"/>
<stop offset="1" stop-color="#FAFAFA"/>
</radialGradient>
<radialGradient id="paint20_radial_1296_18509" cx="0" cy="0" r="1" gradientUnits="userSpaceOnUse" gradientTransform="translate(136.427 151.438) rotate(85.3036) scale(16.4474)">
<stop stop-color="white"/>
<stop offset="1" stop-color="#FAFAFA"/>
</radialGradient>
<radialGradient id="paint21_radial_1296_18509" cx="0" cy="0" r="1" gradientUnits="userSpaceOnUse" gradientTransform="translate(168.386 151.438) rotate(85.3036) scale(16.4474)">
<stop stop-color="white"/>
<stop offset="1" stop-color="#FAFAFA"/>
</radialGradient>
<radialGradient id="paint22_radial_1296_18509" cx="0" cy="0" r="1" gradientUnits="userSpaceOnUse" gradientTransform="translate(200.348 151.438) rotate(85.3036) scale(16.4474)">
<stop stop-color="white"/>
<stop offset="1" stop-color="#FAFAFA"/>
</radialGradient>
<radialGradient id="paint23_radial_1296_18509" cx="0" cy="0" r="1" gradientUnits="userSpaceOnUse" gradientTransform="translate(232.31 151.438) rotate(85.3036) scale(16.4474)">
<stop stop-color="white"/>
<stop offset="1" stop-color="#FAFAFA"/>
</radialGradient>
<radialGradient id="paint24_radial_1296_18509" cx="0" cy="0" r="1" gradientUnits="userSpaceOnUse" gradientTransform="translate(8.58106 53.3972) rotate(85.3036) scale(16.4474)">
<stop stop-color="white"/>
<stop offset="1" stop-color="#FAFAFA"/>
</radialGradient>
<radialGradient id="paint25_radial_1296_18509" cx="0" cy="0" r="1" gradientUnits="userSpaceOnUse" gradientTransform="translate(40.543 53.3977) rotate(85.3036) scale(16.4474)">
<stop stop-color="white"/>
<stop offset="1" stop-color="#FAFAFA"/>
</radialGradient>
<radialGradient id="paint26_radial_1296_18509" cx="0" cy="0" r="1" gradientUnits="userSpaceOnUse" gradientTransform="translate(72.502 53.3972) rotate(85.3036) scale(16.4474)">
<stop stop-color="white"/>
<stop offset="1" stop-color="#FAFAFA"/>
</radialGradient>
<radialGradient id="paint27_radial_1296_18509" cx="0" cy="0" r="1" gradientUnits="userSpaceOnUse" gradientTransform="translate(104.465 53.3977) rotate(85.3036) scale(16.4474)">
<stop stop-color="white"/>
<stop offset="1" stop-color="#FAFAFA"/>
</radialGradient>
<radialGradient id="paint28_radial_1296_18509" cx="0" cy="0" r="1" gradientUnits="userSpaceOnUse" gradientTransform="translate(136.427 53.3972) rotate(85.3036) scale(16.4474)">
<stop stop-color="white"/>
<stop offset="1" stop-color="#FAFAFA"/>
</radialGradient>
<radialGradient id="paint29_radial_1296_18509" cx="0" cy="0" r="1" gradientUnits="userSpaceOnUse" gradientTransform="translate(168.386 53.3972) rotate(85.3036) scale(16.4474)">
<stop stop-color="white"/>
<stop offset="1" stop-color="#FAFAFA"/>
</radialGradient>
<radialGradient id="paint30_radial_1296_18509" cx="0" cy="0" r="1" gradientUnits="userSpaceOnUse" gradientTransform="translate(200.348 53.3972) rotate(85.3036) scale(16.4474)">
<stop stop-color="white"/>
<stop offset="1" stop-color="#FAFAFA"/>
</radialGradient>
<radialGradient id="paint31_radial_1296_18509" cx="0" cy="0" r="1" gradientUnits="userSpaceOnUse" gradientTransform="translate(232.31 53.3972) rotate(85.3036) scale(16.4474)">
<stop stop-color="white"/>
<stop offset="1" stop-color="#FAFAFA"/>
</radialGradient>
<radialGradient id="paint32_radial_1296_18509" cx="0" cy="0" r="1" gradientUnits="userSpaceOnUse" gradientTransform="translate(8.58106 8.58106) rotate(85.3036) scale(16.4474)">
<stop stop-color="white"/>
<stop offset="1" stop-color="#FAFAFA"/>
</radialGradient>
<radialGradient id="paint33_radial_1296_18509" cx="0" cy="0" r="1" gradientUnits="userSpaceOnUse" gradientTransform="translate(8.58106 8.58106) rotate(85.3036) scale(16.4474)">
<stop stop-color="white"/>
<stop offset="1" stop-color="#FAFAFA"/>
</radialGradient>
<radialGradient id="paint34_radial_1296_18509" cx="0" cy="0" r="1" gradientUnits="userSpaceOnUse" gradientTransform="translate(8.58106 8.58106) rotate(85.3036) scale(16.4474)">
<stop stop-color="white"/>
<stop offset="1" stop-color="#FAFAFA"/>
</radialGradient>
<radialGradient id="paint35_radial_1296_18509" cx="0" cy="0" r="1" gradientUnits="userSpaceOnUse" gradientTransform="translate(8.58106 8.58106) rotate(85.3036) scale(16.4474)">
<stop stop-color="white"/>
<stop offset="1" stop-color="#FAFAFA"/>
</radialGradient>
<radialGradient id="paint36_radial_1296_18509" cx="0" cy="0" r="1" gradientUnits="userSpaceOnUse" gradientTransform="translate(8.58106 8.58106) rotate(85.3036) scale(16.4474)">
<stop stop-color="white"/>
<stop offset="1" stop-color="#FAFAFA"/>
</radialGradient>
<radialGradient id="paint37_radial_1296_18509" cx="0" cy="0" r="1" gradientUnits="userSpaceOnUse" gradientTransform="translate(8.58106 8.58106) rotate(85.3036) scale(16.4474)">
<stop stop-color="white"/>
<stop offset="1" stop-color="#FAFAFA"/>
</radialGradient>
<radialGradient id="paint38_radial_1296_18509" cx="0" cy="0" r="1" gradientUnits="userSpaceOnUse" gradientTransform="translate(8.58106 8.58106) rotate(85.3036) scale(16.4474)">
<stop stop-color="white"/>
<stop offset="1" stop-color="#FAFAFA"/>
</radialGradient>
<radialGradient id="paint39_radial_1296_18509" cx="0" cy="0" r="1" gradientUnits="userSpaceOnUse" gradientTransform="translate(8.58106 8.58106) rotate(85.3036) scale(16.4474)">
<stop stop-color="white"/>
<stop offset="1" stop-color="#FAFAFA"/>
</radialGradient>
<radialGradient id="paint40_radial_1296_18509" cx="0" cy="0" r="1" gradientUnits="userSpaceOnUse" gradientTransform="translate(8.58106 184.118) rotate(85.3036) scale(16.4474)">
<stop stop-color="white"/>
<stop offset="1" stop-color="#FAFAFA"/>
</radialGradient>
<radialGradient id="paint41_radial_1296_18509" cx="0" cy="0" r="1" gradientUnits="userSpaceOnUse" gradientTransform="translate(40.543 184.118) rotate(85.3036) scale(16.4474)">
<stop stop-color="white"/>
<stop offset="1" stop-color="#FAFAFA"/>
</radialGradient>
<radialGradient id="paint42_radial_1296_18509" cx="0" cy="0" r="1" gradientUnits="userSpaceOnUse" gradientTransform="translate(72.5029 184.118) rotate(85.3036) scale(16.4474)">
<stop stop-color="white"/>
<stop offset="1" stop-color="#FAFAFA"/>
</radialGradient>
<radialGradient id="paint43_radial_1296_18509" cx="0" cy="0" r="1" gradientUnits="userSpaceOnUse" gradientTransform="translate(104.465 184.118) rotate(85.3036) scale(16.4474)">
<stop stop-color="white"/>
<stop offset="1" stop-color="#FAFAFA"/>
</radialGradient>
<radialGradient id="paint44_radial_1296_18509" cx="0" cy="0" r="1" gradientUnits="userSpaceOnUse" gradientTransform="translate(136.427 184.118) rotate(85.3036) scale(16.4474)">
<stop stop-color="white"/>
<stop offset="1" stop-color="#FAFAFA"/>
</radialGradient>
<radialGradient id="paint45_radial_1296_18509" cx="0" cy="0" r="1" gradientUnits="userSpaceOnUse" gradientTransform="translate(168.386 184.118) rotate(85.3036) scale(16.4474)">
<stop stop-color="white"/>
<stop offset="1" stop-color="#FAFAFA"/>
</radialGradient>
<radialGradient id="paint46_radial_1296_18509" cx="0" cy="0" r="1" gradientUnits="userSpaceOnUse" gradientTransform="translate(200.348 184.118) rotate(85.3036) scale(16.4474)">
<stop stop-color="white"/>
<stop offset="1" stop-color="#FAFAFA"/>
</radialGradient>
<radialGradient id="paint47_radial_1296_18509" cx="0" cy="0" r="1" gradientUnits="userSpaceOnUse" gradientTransform="translate(232.31 184.118) rotate(85.3036) scale(16.4474)">
<stop stop-color="white"/>
<stop offset="1" stop-color="#FAFAFA"/>
</radialGradient>
</defs>
</svg>
