<svg width="99" height="127" viewBox="0 0 99 127" fill="none" xmlns="http://www.w3.org/2000/svg">
<g opacity="0.7">
<g opacity="0.5">
<rect x="-3.72949" y="8.35669" width="11.5306" height="11.5306" rx="2.58313" transform="rotate(-45 -3.72949 8.35669)" fill="url(#paint0_radial_1102_23544)"/>
<rect x="17.7412" y="8.35645" width="11.5306" height="11.5306" rx="2.58313" transform="rotate(-45 17.7412 8.35645)" fill="url(#paint1_radial_1102_23544)"/>
<rect x="39.2158" y="8.35645" width="11.5306" height="11.5306" rx="2.58313" transform="rotate(-45 39.2158 8.35645)" fill="url(#paint2_radial_1102_23544)"/>
<rect x="60.6904" y="8.35645" width="11.5306" height="11.5306" rx="2.58313" transform="rotate(-45 60.6904 8.35645)" fill="url(#paint3_radial_1102_23544)"/>
<rect x="82.1602" y="8.35669" width="11.5306" height="11.5306" rx="2.58313" transform="rotate(-45 82.1602 8.35669)" fill="url(#paint4_radial_1102_23544)"/>
</g>
<g opacity="0.5">
<rect x="-3.72949" y="52.2705" width="11.5306" height="11.5306" rx="2.58313" transform="rotate(-45 -3.72949 52.2705)" fill="url(#paint5_radial_1102_23544)"/>
<rect x="17.7412" y="52.2703" width="11.5306" height="11.5306" rx="2.58313" transform="rotate(-45 17.7412 52.2703)" fill="url(#paint6_radial_1102_23544)"/>
<rect x="39.2158" y="52.2703" width="11.5306" height="11.5306" rx="2.58313" transform="rotate(-45 39.2158 52.2703)" fill="url(#paint7_radial_1102_23544)"/>
<rect x="60.6904" y="52.2703" width="11.5306" height="11.5306" rx="2.58313" transform="rotate(-45 60.6904 52.2703)" fill="url(#paint8_radial_1102_23544)"/>
<rect x="82.1602" y="52.2705" width="11.5306" height="11.5306" rx="2.58313" transform="rotate(-45 82.1602 52.2705)" fill="url(#paint9_radial_1102_23544)"/>
</g>
<g opacity="0.5">
<rect x="-3.72949" y="96.1829" width="11.5306" height="11.5306" rx="2.58313" transform="rotate(-45 -3.72949 96.1829)" fill="url(#paint10_radial_1102_23544)"/>
<rect x="17.7412" y="96.1826" width="11.5306" height="11.5306" rx="2.58313" transform="rotate(-45 17.7412 96.1826)" fill="url(#paint11_radial_1102_23544)"/>
<rect x="39.2158" y="96.1826" width="11.5306" height="11.5306" rx="2.58313" transform="rotate(-45 39.2158 96.1826)" fill="url(#paint12_radial_1102_23544)"/>
<rect x="60.6904" y="96.1826" width="11.5306" height="11.5306" rx="2.58313" transform="rotate(-45 60.6904 96.1826)" fill="url(#paint13_radial_1102_23544)"/>
<rect x="82.1602" y="96.1826" width="11.5306" height="11.5306" rx="2.58313" transform="rotate(-45 82.1602 96.1826)" fill="url(#paint14_radial_1102_23544)"/>
</g>
<g opacity="0.5">
<rect x="-3.72949" y="30.3127" width="11.5306" height="11.5306" rx="2.58313" transform="rotate(-45 -3.72949 30.3127)" fill="url(#paint15_radial_1102_23544)"/>
<rect x="17.7412" y="30.3127" width="11.5306" height="11.5306" rx="2.58313" transform="rotate(-45 17.7412 30.3127)" fill="url(#paint16_radial_1102_23544)"/>
<rect x="39.2158" y="30.3127" width="11.5306" height="11.5306" rx="2.58313" transform="rotate(-45 39.2158 30.3127)" fill="url(#paint17_radial_1102_23544)"/>
<rect x="60.6904" y="30.3127" width="11.5306" height="11.5306" rx="2.58313" transform="rotate(-45 60.6904 30.3127)" fill="url(#paint18_radial_1102_23544)"/>
<rect x="82.1602" y="30.3127" width="11.5306" height="11.5306" rx="2.58313" transform="rotate(-45 82.1602 30.3127)" fill="url(#paint19_radial_1102_23544)"/>
</g>
<g opacity="0.5">
<rect x="-3.72949" y="74.2273" width="11.5306" height="11.5306" rx="2.58313" transform="rotate(-45 -3.72949 74.2273)" fill="url(#paint20_radial_1102_23544)"/>
<rect x="17.7412" y="74.2271" width="11.5306" height="11.5306" rx="2.58313" transform="rotate(-45 17.7412 74.2271)" fill="url(#paint21_radial_1102_23544)"/>
<rect x="39.2158" y="74.2271" width="11.5306" height="11.5306" rx="2.58313" transform="rotate(-45 39.2158 74.2271)" fill="url(#paint22_radial_1102_23544)"/>
<rect x="60.6904" y="74.2271" width="11.5306" height="11.5306" rx="2.58313" transform="rotate(-45 60.6904 74.2271)" fill="url(#paint23_radial_1102_23544)"/>
<rect x="82.1602" y="74.2273" width="11.5306" height="11.5306" rx="2.58313" transform="rotate(-45 82.1602 74.2273)" fill="url(#paint24_radial_1102_23544)"/>
</g>
<g opacity="0.5">
<rect x="-3.72949" y="118.14" width="11.5306" height="11.5306" rx="2.58313" transform="rotate(-45 -3.72949 118.14)" fill="url(#paint25_radial_1102_23544)"/>
<rect x="17.7412" y="118.14" width="11.5306" height="11.5306" rx="2.58313" transform="rotate(-45 17.7412 118.14)" fill="url(#paint26_radial_1102_23544)"/>
<rect x="39.2158" y="118.14" width="11.5306" height="11.5306" rx="2.58313" transform="rotate(-45 39.2158 118.14)" fill="url(#paint27_radial_1102_23544)"/>
<rect x="60.6904" y="118.14" width="11.5306" height="11.5306" rx="2.58313" transform="rotate(-45 60.6904 118.14)" fill="url(#paint28_radial_1102_23544)"/>
<rect x="82.1602" y="118.14" width="11.5306" height="11.5306" rx="2.58313" transform="rotate(-45 82.1602 118.14)" fill="url(#paint29_radial_1102_23544)"/>
</g>
</g>
<defs>
<radialGradient id="paint0_radial_1102_23544" cx="0" cy="0" r="1" gradientUnits="userSpaceOnUse" gradientTransform="translate(2.03579 14.122) rotate(85.3036) scale(11.0503)">
<stop stop-color="#F1F1F1"/>
<stop offset="1" stop-color="#FAFAFA"/>
</radialGradient>
<radialGradient id="paint1_radial_1102_23544" cx="0" cy="0" r="1" gradientUnits="userSpaceOnUse" gradientTransform="translate(23.5065 14.1217) rotate(85.3036) scale(11.0503)">
<stop stop-color="#F1F1F1"/>
<stop offset="1" stop-color="#FAFAFA"/>
</radialGradient>
<radialGradient id="paint2_radial_1102_23544" cx="0" cy="0" r="1" gradientUnits="userSpaceOnUse" gradientTransform="translate(44.9811 14.1217) rotate(85.3036) scale(11.0503)">
<stop stop-color="#F1F1F1"/>
<stop offset="1" stop-color="#FAFAFA"/>
</radialGradient>
<radialGradient id="paint3_radial_1102_23544" cx="0" cy="0" r="1" gradientUnits="userSpaceOnUse" gradientTransform="translate(66.4557 14.1217) rotate(85.3036) scale(11.0503)">
<stop stop-color="#F1F1F1"/>
<stop offset="1" stop-color="#FAFAFA"/>
</radialGradient>
<radialGradient id="paint4_radial_1102_23544" cx="0" cy="0" r="1" gradientUnits="userSpaceOnUse" gradientTransform="translate(87.9254 14.122) rotate(85.3036) scale(11.0503)">
<stop stop-color="#F1F1F1"/>
<stop offset="1" stop-color="#FAFAFA"/>
</radialGradient>
<radialGradient id="paint5_radial_1102_23544" cx="0" cy="0" r="1" gradientUnits="userSpaceOnUse" gradientTransform="translate(2.03579 58.0358) rotate(85.3036) scale(11.0503)">
<stop stop-color="#F1F1F1"/>
<stop offset="1" stop-color="#FAFAFA"/>
</radialGradient>
<radialGradient id="paint6_radial_1102_23544" cx="0" cy="0" r="1" gradientUnits="userSpaceOnUse" gradientTransform="translate(23.5065 58.0355) rotate(85.3036) scale(11.0503)">
<stop stop-color="#F1F1F1"/>
<stop offset="1" stop-color="#FAFAFA"/>
</radialGradient>
<radialGradient id="paint7_radial_1102_23544" cx="0" cy="0" r="1" gradientUnits="userSpaceOnUse" gradientTransform="translate(44.9811 58.0355) rotate(85.3036) scale(11.0503)">
<stop stop-color="#F1F1F1"/>
<stop offset="1" stop-color="#FAFAFA"/>
</radialGradient>
<radialGradient id="paint8_radial_1102_23544" cx="0" cy="0" r="1" gradientUnits="userSpaceOnUse" gradientTransform="translate(66.4557 58.0355) rotate(85.3036) scale(11.0503)">
<stop stop-color="#F1F1F1"/>
<stop offset="1" stop-color="#FAFAFA"/>
</radialGradient>
<radialGradient id="paint9_radial_1102_23544" cx="0" cy="0" r="1" gradientUnits="userSpaceOnUse" gradientTransform="translate(87.9254 58.0358) rotate(85.3036) scale(11.0503)">
<stop stop-color="#F1F1F1"/>
<stop offset="1" stop-color="#FAFAFA"/>
</radialGradient>
<radialGradient id="paint10_radial_1102_23544" cx="0" cy="0" r="1" gradientUnits="userSpaceOnUse" gradientTransform="translate(2.03579 101.948) rotate(85.3036) scale(11.0503)">
<stop stop-color="#F1F1F1"/>
<stop offset="1" stop-color="#FAFAFA"/>
</radialGradient>
<radialGradient id="paint11_radial_1102_23544" cx="0" cy="0" r="1" gradientUnits="userSpaceOnUse" gradientTransform="translate(23.5065 101.948) rotate(85.3036) scale(11.0503)">
<stop stop-color="#F1F1F1"/>
<stop offset="1" stop-color="#FAFAFA"/>
</radialGradient>
<radialGradient id="paint12_radial_1102_23544" cx="0" cy="0" r="1" gradientUnits="userSpaceOnUse" gradientTransform="translate(44.9811 101.948) rotate(85.3036) scale(11.0503)">
<stop stop-color="#F1F1F1"/>
<stop offset="1" stop-color="#FAFAFA"/>
</radialGradient>
<radialGradient id="paint13_radial_1102_23544" cx="0" cy="0" r="1" gradientUnits="userSpaceOnUse" gradientTransform="translate(66.4557 101.948) rotate(85.3036) scale(11.0503)">
<stop stop-color="#F1F1F1"/>
<stop offset="1" stop-color="#FAFAFA"/>
</radialGradient>
<radialGradient id="paint14_radial_1102_23544" cx="0" cy="0" r="1" gradientUnits="userSpaceOnUse" gradientTransform="translate(87.9254 101.948) rotate(85.3036) scale(11.0503)">
<stop stop-color="#F1F1F1"/>
<stop offset="1" stop-color="#FAFAFA"/>
</radialGradient>
<radialGradient id="paint15_radial_1102_23544" cx="0" cy="0" r="1" gradientUnits="userSpaceOnUse" gradientTransform="translate(2.03579 36.078) rotate(85.3036) scale(11.0503)">
<stop stop-color="#F1F1F1"/>
<stop offset="1" stop-color="#FAFAFA"/>
</radialGradient>
<radialGradient id="paint16_radial_1102_23544" cx="0" cy="0" r="1" gradientUnits="userSpaceOnUse" gradientTransform="translate(23.5065 36.078) rotate(85.3036) scale(11.0503)">
<stop stop-color="#F1F1F1"/>
<stop offset="1" stop-color="#FAFAFA"/>
</radialGradient>
<radialGradient id="paint17_radial_1102_23544" cx="0" cy="0" r="1" gradientUnits="userSpaceOnUse" gradientTransform="translate(44.9811 36.078) rotate(85.3036) scale(11.0503)">
<stop stop-color="#F1F1F1"/>
<stop offset="1" stop-color="#FAFAFA"/>
</radialGradient>
<radialGradient id="paint18_radial_1102_23544" cx="0" cy="0" r="1" gradientUnits="userSpaceOnUse" gradientTransform="translate(66.4557 36.078) rotate(85.3036) scale(11.0503)">
<stop stop-color="#F1F1F1"/>
<stop offset="1" stop-color="#FAFAFA"/>
</radialGradient>
<radialGradient id="paint19_radial_1102_23544" cx="0" cy="0" r="1" gradientUnits="userSpaceOnUse" gradientTransform="translate(87.9254 36.078) rotate(85.3036) scale(11.0503)">
<stop stop-color="#F1F1F1"/>
<stop offset="1" stop-color="#FAFAFA"/>
</radialGradient>
<radialGradient id="paint20_radial_1102_23544" cx="0" cy="0" r="1" gradientUnits="userSpaceOnUse" gradientTransform="translate(2.03579 79.9926) rotate(85.3036) scale(11.0503)">
<stop stop-color="#F1F1F1"/>
<stop offset="1" stop-color="#FAFAFA"/>
</radialGradient>
<radialGradient id="paint21_radial_1102_23544" cx="0" cy="0" r="1" gradientUnits="userSpaceOnUse" gradientTransform="translate(23.5065 79.9923) rotate(85.3036) scale(11.0503)">
<stop stop-color="#F1F1F1"/>
<stop offset="1" stop-color="#FAFAFA"/>
</radialGradient>
<radialGradient id="paint22_radial_1102_23544" cx="0" cy="0" r="1" gradientUnits="userSpaceOnUse" gradientTransform="translate(44.9811 79.9923) rotate(85.3036) scale(11.0503)">
<stop stop-color="#F1F1F1"/>
<stop offset="1" stop-color="#FAFAFA"/>
</radialGradient>
<radialGradient id="paint23_radial_1102_23544" cx="0" cy="0" r="1" gradientUnits="userSpaceOnUse" gradientTransform="translate(66.4557 79.9923) rotate(85.3036) scale(11.0503)">
<stop stop-color="#F1F1F1"/>
<stop offset="1" stop-color="#FAFAFA"/>
</radialGradient>
<radialGradient id="paint24_radial_1102_23544" cx="0" cy="0" r="1" gradientUnits="userSpaceOnUse" gradientTransform="translate(87.9254 79.9926) rotate(85.3036) scale(11.0503)">
<stop stop-color="#F1F1F1"/>
<stop offset="1" stop-color="#FAFAFA"/>
</radialGradient>
<radialGradient id="paint25_radial_1102_23544" cx="0" cy="0" r="1" gradientUnits="userSpaceOnUse" gradientTransform="translate(2.03579 123.905) rotate(85.3036) scale(11.0503)">
<stop stop-color="#F1F1F1"/>
<stop offset="1" stop-color="#FAFAFA"/>
</radialGradient>
<radialGradient id="paint26_radial_1102_23544" cx="0" cy="0" r="1" gradientUnits="userSpaceOnUse" gradientTransform="translate(23.5065 123.905) rotate(85.3036) scale(11.0503)">
<stop stop-color="#F1F1F1"/>
<stop offset="1" stop-color="#FAFAFA"/>
</radialGradient>
<radialGradient id="paint27_radial_1102_23544" cx="0" cy="0" r="1" gradientUnits="userSpaceOnUse" gradientTransform="translate(44.9811 123.905) rotate(85.3036) scale(11.0503)">
<stop stop-color="#F1F1F1"/>
<stop offset="1" stop-color="#FAFAFA"/>
</radialGradient>
<radialGradient id="paint28_radial_1102_23544" cx="0" cy="0" r="1" gradientUnits="userSpaceOnUse" gradientTransform="translate(66.4557 123.905) rotate(85.3036) scale(11.0503)">
<stop stop-color="#F1F1F1"/>
<stop offset="1" stop-color="#FAFAFA"/>
</radialGradient>
<radialGradient id="paint29_radial_1102_23544" cx="0" cy="0" r="1" gradientUnits="userSpaceOnUse" gradientTransform="translate(87.9254 123.905) rotate(85.3036) scale(11.0503)">
<stop stop-color="#F1F1F1"/>
<stop offset="1" stop-color="#FAFAFA"/>
</radialGradient>
</defs>
</svg>
