<svg width="318" height="240" viewBox="0 0 318 240" fill="none" xmlns="http://www.w3.org/2000/svg">
<g opacity="0.7">
<g opacity="0.5">
<rect y="15.5195" width="21.9473" height="21.9473" rx="4.91673" transform="rotate(-45 0 15.5195)" fill="url(#paint0_radial_1296_17473)"/>
<rect x="40.8721" y="15.519" width="21.9473" height="21.9473" rx="4.91673" transform="rotate(-45 40.8721 15.519)" fill="url(#paint1_radial_1296_17473)"/>
<rect x="81.7432" y="15.519" width="21.9473" height="21.9473" rx="4.91673" transform="rotate(-45 81.7432 15.519)" fill="url(#paint2_radial_1296_17473)"/>
<rect x="122.622" y="15.519" width="21.9473" height="21.9473" rx="4.91673" transform="rotate(-45 122.622 15.519)" fill="url(#paint3_radial_1296_17473)"/>
<rect x="163.49" y="15.519" width="21.9473" height="21.9473" rx="4.91673" transform="rotate(-45 163.49 15.519)" fill="url(#paint4_radial_1296_17473)"/>
<rect x="204.365" y="15.519" width="21.9473" height="21.9473" rx="4.91673" transform="rotate(-45 204.365 15.519)" fill="url(#paint5_radial_1296_17473)"/>
<rect x="245.24" y="15.519" width="21.9473" height="21.9473" rx="4.91673" transform="rotate(-45 245.24 15.519)" fill="url(#paint6_radial_1296_17473)"/>
<rect x="286.105" y="15.519" width="21.9473" height="21.9473" rx="4.91673" transform="rotate(-45 286.105 15.519)" fill="url(#paint7_radial_1296_17473)"/>
</g>
<g opacity="0.5">
<rect y="99.1045" width="21.9473" height="21.9473" rx="4.91673" transform="rotate(-45 0 99.1045)" fill="url(#paint8_radial_1296_17473)"/>
<rect x="40.8721" y="99.1045" width="21.9473" height="21.9473" rx="4.91673" transform="rotate(-45 40.8721 99.1045)" fill="url(#paint9_radial_1296_17473)"/>
<rect x="81.7432" y="99.1045" width="21.9473" height="21.9473" rx="4.91673" transform="rotate(-45 81.7432 99.1045)" fill="url(#paint10_radial_1296_17473)"/>
<rect x="122.622" y="99.1045" width="21.9473" height="21.9473" rx="4.91673" transform="rotate(-45 122.622 99.1045)" fill="url(#paint11_radial_1296_17473)"/>
<rect x="163.49" y="99.1045" width="21.9473" height="21.9473" rx="4.91673" transform="rotate(-45 163.49 99.1045)" fill="url(#paint12_radial_1296_17473)"/>
<rect x="204.365" y="99.1045" width="21.9473" height="21.9473" rx="4.91673" transform="rotate(-45 204.365 99.1045)" fill="url(#paint13_radial_1296_17473)"/>
<rect x="245.24" y="99.1045" width="21.9473" height="21.9473" rx="4.91673" transform="rotate(-45 245.24 99.1045)" fill="url(#paint14_radial_1296_17473)"/>
<rect x="286.105" y="99.1045" width="21.9473" height="21.9473" rx="4.91673" transform="rotate(-45 286.105 99.1045)" fill="url(#paint15_radial_1296_17473)"/>
</g>
<g opacity="0.5">
<rect y="182.688" width="21.9473" height="21.9473" rx="4.91673" transform="rotate(-45 0 182.688)" fill="url(#paint16_radial_1296_17473)"/>
<rect x="40.8721" y="182.688" width="21.9473" height="21.9473" rx="4.91673" transform="rotate(-45 40.8721 182.688)" fill="url(#paint17_radial_1296_17473)"/>
<rect x="81.7432" y="182.688" width="21.9473" height="21.9473" rx="4.91673" transform="rotate(-45 81.7432 182.688)" fill="url(#paint18_radial_1296_17473)"/>
<rect x="122.622" y="182.688" width="21.9473" height="21.9473" rx="4.91673" transform="rotate(-45 122.622 182.688)" fill="url(#paint19_radial_1296_17473)"/>
<rect x="163.49" y="182.688" width="21.9473" height="21.9473" rx="4.91673" transform="rotate(-45 163.49 182.688)" fill="url(#paint20_radial_1296_17473)"/>
<rect x="204.365" y="182.688" width="21.9473" height="21.9473" rx="4.91673" transform="rotate(-45 204.365 182.688)" fill="url(#paint21_radial_1296_17473)"/>
<rect x="245.24" y="182.688" width="21.9473" height="21.9473" rx="4.91673" transform="rotate(-45 245.24 182.688)" fill="url(#paint22_radial_1296_17473)"/>
<rect x="286.105" y="182.688" width="21.9473" height="21.9473" rx="4.91673" transform="rotate(-45 286.105 182.688)" fill="url(#paint23_radial_1296_17473)"/>
</g>
<g opacity="0.5">
<rect y="57.3115" width="21.9473" height="21.9473" rx="4.91673" transform="rotate(-45 0 57.3115)" fill="url(#paint24_radial_1296_17473)"/>
<rect x="40.8721" y="57.311" width="21.9473" height="21.9473" rx="4.91673" transform="rotate(-45 40.8721 57.311)" fill="url(#paint25_radial_1296_17473)"/>
<rect x="81.7432" y="57.311" width="21.9473" height="21.9473" rx="4.91673" transform="rotate(-45 81.7432 57.311)" fill="url(#paint26_radial_1296_17473)"/>
<rect x="122.622" y="57.311" width="21.9473" height="21.9473" rx="4.91673" transform="rotate(-45 122.622 57.311)" fill="url(#paint27_radial_1296_17473)"/>
<rect x="163.49" y="57.311" width="21.9473" height="21.9473" rx="4.91673" transform="rotate(-45 163.49 57.311)" fill="url(#paint28_radial_1296_17473)"/>
<rect x="204.365" y="57.311" width="21.9473" height="21.9473" rx="4.91673" transform="rotate(-45 204.365 57.311)" fill="url(#paint29_radial_1296_17473)"/>
<rect x="245.24" y="57.311" width="21.9473" height="21.9473" rx="4.91673" transform="rotate(-45 245.24 57.311)" fill="url(#paint30_radial_1296_17473)"/>
<rect x="286.105" y="57.311" width="21.9473" height="21.9473" rx="4.91673" transform="rotate(-45 286.105 57.311)" fill="url(#paint31_radial_1296_17473)"/>
</g>
<g opacity="0.5">
<rect y="140.897" width="21.9473" height="21.9473" rx="4.91673" transform="rotate(-45 0 140.897)" fill="url(#paint32_radial_1296_17473)"/>
<rect x="40.8721" y="140.897" width="21.9473" height="21.9473" rx="4.91673" transform="rotate(-45 40.8721 140.897)" fill="url(#paint33_radial_1296_17473)"/>
<rect x="81.7432" y="140.897" width="21.9473" height="21.9473" rx="4.91673" transform="rotate(-45 81.7432 140.897)" fill="url(#paint34_radial_1296_17473)"/>
<rect x="122.622" y="140.897" width="21.9473" height="21.9473" rx="4.91673" transform="rotate(-45 122.622 140.897)" fill="url(#paint35_radial_1296_17473)"/>
<rect x="163.49" y="140.897" width="21.9473" height="21.9473" rx="4.91673" transform="rotate(-45 163.49 140.897)" fill="url(#paint36_radial_1296_17473)"/>
<rect x="204.365" y="140.897" width="21.9473" height="21.9473" rx="4.91673" transform="rotate(-45 204.365 140.897)" fill="url(#paint37_radial_1296_17473)"/>
<rect x="245.24" y="140.897" width="21.9473" height="21.9473" rx="4.91673" transform="rotate(-45 245.24 140.897)" fill="url(#paint38_radial_1296_17473)"/>
<rect x="286.105" y="140.897" width="21.9473" height="21.9473" rx="4.91673" transform="rotate(-45 286.105 140.897)" fill="url(#paint39_radial_1296_17473)"/>
</g>
<g opacity="0.5">
<rect y="224.481" width="21.9473" height="21.9473" rx="4.91673" transform="rotate(-45 0 224.481)" fill="url(#paint40_radial_1296_17473)"/>
<rect x="40.8721" y="224.48" width="21.9473" height="21.9473" rx="4.91673" transform="rotate(-45 40.8721 224.48)" fill="url(#paint41_radial_1296_17473)"/>
<rect x="81.7432" y="224.48" width="21.9473" height="21.9473" rx="4.91673" transform="rotate(-45 81.7432 224.48)" fill="url(#paint42_radial_1296_17473)"/>
<rect x="122.622" y="224.481" width="21.9473" height="21.9473" rx="4.91673" transform="rotate(-45 122.622 224.481)" fill="url(#paint43_radial_1296_17473)"/>
<rect x="163.49" y="224.48" width="21.9473" height="21.9473" rx="4.91673" transform="rotate(-45 163.49 224.48)" fill="url(#paint44_radial_1296_17473)"/>
<rect x="204.365" y="224.48" width="21.9473" height="21.9473" rx="4.91673" transform="rotate(-45 204.365 224.48)" fill="url(#paint45_radial_1296_17473)"/>
<rect x="245.24" y="224.48" width="21.9473" height="21.9473" rx="4.91673" transform="rotate(-45 245.24 224.48)" fill="url(#paint46_radial_1296_17473)"/>
<rect x="286.105" y="224.48" width="21.9473" height="21.9473" rx="4.91673" transform="rotate(-45 286.105 224.48)" fill="url(#paint47_radial_1296_17473)"/>
</g>
</g>
<defs>
<radialGradient id="paint0_radial_1296_17473" cx="0" cy="0" r="1" gradientUnits="userSpaceOnUse" gradientTransform="translate(10.9737 26.4932) rotate(85.3036) scale(21.0333)">
<stop stop-color="#F1F1F1"/>
<stop offset="1" stop-color="#FAFAFA"/>
</radialGradient>
<radialGradient id="paint1_radial_1296_17473" cx="0" cy="0" r="1" gradientUnits="userSpaceOnUse" gradientTransform="translate(51.8457 26.4927) rotate(85.3036) scale(21.0333)">
<stop stop-color="#F1F1F1"/>
<stop offset="1" stop-color="#FAFAFA"/>
</radialGradient>
<radialGradient id="paint2_radial_1296_17473" cx="0" cy="0" r="1" gradientUnits="userSpaceOnUse" gradientTransform="translate(92.7168 26.4927) rotate(85.3036) scale(21.0333)">
<stop stop-color="#F1F1F1"/>
<stop offset="1" stop-color="#FAFAFA"/>
</radialGradient>
<radialGradient id="paint3_radial_1296_17473" cx="0" cy="0" r="1" gradientUnits="userSpaceOnUse" gradientTransform="translate(133.596 26.4927) rotate(85.3036) scale(21.0333)">
<stop stop-color="#F1F1F1"/>
<stop offset="1" stop-color="#FAFAFA"/>
</radialGradient>
<radialGradient id="paint4_radial_1296_17473" cx="0" cy="0" r="1" gradientUnits="userSpaceOnUse" gradientTransform="translate(174.464 26.4927) rotate(85.3036) scale(21.0333)">
<stop stop-color="#F1F1F1"/>
<stop offset="1" stop-color="#FAFAFA"/>
</radialGradient>
<radialGradient id="paint5_radial_1296_17473" cx="0" cy="0" r="1" gradientUnits="userSpaceOnUse" gradientTransform="translate(215.339 26.4927) rotate(85.3036) scale(21.0333)">
<stop stop-color="#F1F1F1"/>
<stop offset="1" stop-color="#FAFAFA"/>
</radialGradient>
<radialGradient id="paint6_radial_1296_17473" cx="0" cy="0" r="1" gradientUnits="userSpaceOnUse" gradientTransform="translate(256.214 26.4927) rotate(85.3036) scale(21.0333)">
<stop stop-color="#F1F1F1"/>
<stop offset="1" stop-color="#FAFAFA"/>
</radialGradient>
<radialGradient id="paint7_radial_1296_17473" cx="0" cy="0" r="1" gradientUnits="userSpaceOnUse" gradientTransform="translate(297.079 26.4927) rotate(85.3036) scale(21.0333)">
<stop stop-color="#F1F1F1"/>
<stop offset="1" stop-color="#FAFAFA"/>
</radialGradient>
<radialGradient id="paint8_radial_1296_17473" cx="0" cy="0" r="1" gradientUnits="userSpaceOnUse" gradientTransform="translate(10.9737 110.078) rotate(85.3036) scale(21.0333)">
<stop stop-color="#F1F1F1"/>
<stop offset="1" stop-color="#FAFAFA"/>
</radialGradient>
<radialGradient id="paint9_radial_1296_17473" cx="0" cy="0" r="1" gradientUnits="userSpaceOnUse" gradientTransform="translate(51.8457 110.078) rotate(85.3036) scale(21.0333)">
<stop stop-color="#F1F1F1"/>
<stop offset="1" stop-color="#FAFAFA"/>
</radialGradient>
<radialGradient id="paint10_radial_1296_17473" cx="0" cy="0" r="1" gradientUnits="userSpaceOnUse" gradientTransform="translate(92.7168 110.078) rotate(85.3036) scale(21.0333)">
<stop stop-color="#F1F1F1"/>
<stop offset="1" stop-color="#FAFAFA"/>
</radialGradient>
<radialGradient id="paint11_radial_1296_17473" cx="0" cy="0" r="1" gradientUnits="userSpaceOnUse" gradientTransform="translate(133.596 110.078) rotate(85.3036) scale(21.0333)">
<stop stop-color="#F1F1F1"/>
<stop offset="1" stop-color="#FAFAFA"/>
</radialGradient>
<radialGradient id="paint12_radial_1296_17473" cx="0" cy="0" r="1" gradientUnits="userSpaceOnUse" gradientTransform="translate(174.464 110.078) rotate(85.3036) scale(21.0333)">
<stop stop-color="#F1F1F1"/>
<stop offset="1" stop-color="#FAFAFA"/>
</radialGradient>
<radialGradient id="paint13_radial_1296_17473" cx="0" cy="0" r="1" gradientUnits="userSpaceOnUse" gradientTransform="translate(215.339 110.078) rotate(85.3036) scale(21.0333)">
<stop stop-color="#F1F1F1"/>
<stop offset="1" stop-color="#FAFAFA"/>
</radialGradient>
<radialGradient id="paint14_radial_1296_17473" cx="0" cy="0" r="1" gradientUnits="userSpaceOnUse" gradientTransform="translate(256.214 110.078) rotate(85.3036) scale(21.0333)">
<stop stop-color="#F1F1F1"/>
<stop offset="1" stop-color="#FAFAFA"/>
</radialGradient>
<radialGradient id="paint15_radial_1296_17473" cx="0" cy="0" r="1" gradientUnits="userSpaceOnUse" gradientTransform="translate(297.079 110.078) rotate(85.3036) scale(21.0333)">
<stop stop-color="#F1F1F1"/>
<stop offset="1" stop-color="#FAFAFA"/>
</radialGradient>
<radialGradient id="paint16_radial_1296_17473" cx="0" cy="0" r="1" gradientUnits="userSpaceOnUse" gradientTransform="translate(10.9737 193.662) rotate(85.3036) scale(21.0333)">
<stop stop-color="#F1F1F1"/>
<stop offset="1" stop-color="#FAFAFA"/>
</radialGradient>
<radialGradient id="paint17_radial_1296_17473" cx="0" cy="0" r="1" gradientUnits="userSpaceOnUse" gradientTransform="translate(51.8457 193.662) rotate(85.3036) scale(21.0333)">
<stop stop-color="#F1F1F1"/>
<stop offset="1" stop-color="#FAFAFA"/>
</radialGradient>
<radialGradient id="paint18_radial_1296_17473" cx="0" cy="0" r="1" gradientUnits="userSpaceOnUse" gradientTransform="translate(92.7168 193.662) rotate(85.3036) scale(21.0333)">
<stop stop-color="#F1F1F1"/>
<stop offset="1" stop-color="#FAFAFA"/>
</radialGradient>
<radialGradient id="paint19_radial_1296_17473" cx="0" cy="0" r="1" gradientUnits="userSpaceOnUse" gradientTransform="translate(133.596 193.662) rotate(85.3036) scale(21.0333)">
<stop stop-color="#F1F1F1"/>
<stop offset="1" stop-color="#FAFAFA"/>
</radialGradient>
<radialGradient id="paint20_radial_1296_17473" cx="0" cy="0" r="1" gradientUnits="userSpaceOnUse" gradientTransform="translate(174.464 193.662) rotate(85.3036) scale(21.0333)">
<stop stop-color="#F1F1F1"/>
<stop offset="1" stop-color="#FAFAFA"/>
</radialGradient>
<radialGradient id="paint21_radial_1296_17473" cx="0" cy="0" r="1" gradientUnits="userSpaceOnUse" gradientTransform="translate(215.339 193.662) rotate(85.3036) scale(21.0333)">
<stop stop-color="#F1F1F1"/>
<stop offset="1" stop-color="#FAFAFA"/>
</radialGradient>
<radialGradient id="paint22_radial_1296_17473" cx="0" cy="0" r="1" gradientUnits="userSpaceOnUse" gradientTransform="translate(256.214 193.662) rotate(85.3036) scale(21.0333)">
<stop stop-color="#F1F1F1"/>
<stop offset="1" stop-color="#FAFAFA"/>
</radialGradient>
<radialGradient id="paint23_radial_1296_17473" cx="0" cy="0" r="1" gradientUnits="userSpaceOnUse" gradientTransform="translate(297.079 193.662) rotate(85.3036) scale(21.0333)">
<stop stop-color="#F1F1F1"/>
<stop offset="1" stop-color="#FAFAFA"/>
</radialGradient>
<radialGradient id="paint24_radial_1296_17473" cx="0" cy="0" r="1" gradientUnits="userSpaceOnUse" gradientTransform="translate(10.9737 68.2852) rotate(85.3036) scale(21.0333)">
<stop stop-color="#F1F1F1"/>
<stop offset="1" stop-color="#FAFAFA"/>
</radialGradient>
<radialGradient id="paint25_radial_1296_17473" cx="0" cy="0" r="1" gradientUnits="userSpaceOnUse" gradientTransform="translate(51.8457 68.2847) rotate(85.3036) scale(21.0333)">
<stop stop-color="#F1F1F1"/>
<stop offset="1" stop-color="#FAFAFA"/>
</radialGradient>
<radialGradient id="paint26_radial_1296_17473" cx="0" cy="0" r="1" gradientUnits="userSpaceOnUse" gradientTransform="translate(92.7168 68.2847) rotate(85.3036) scale(21.0333)">
<stop stop-color="#F1F1F1"/>
<stop offset="1" stop-color="#FAFAFA"/>
</radialGradient>
<radialGradient id="paint27_radial_1296_17473" cx="0" cy="0" r="1" gradientUnits="userSpaceOnUse" gradientTransform="translate(133.596 68.2847) rotate(85.3036) scale(21.0333)">
<stop stop-color="#F1F1F1"/>
<stop offset="1" stop-color="#FAFAFA"/>
</radialGradient>
<radialGradient id="paint28_radial_1296_17473" cx="0" cy="0" r="1" gradientUnits="userSpaceOnUse" gradientTransform="translate(174.464 68.2847) rotate(85.3036) scale(21.0333)">
<stop stop-color="#F1F1F1"/>
<stop offset="1" stop-color="#FAFAFA"/>
</radialGradient>
<radialGradient id="paint29_radial_1296_17473" cx="0" cy="0" r="1" gradientUnits="userSpaceOnUse" gradientTransform="translate(215.339 68.2847) rotate(85.3036) scale(21.0333)">
<stop stop-color="#F1F1F1"/>
<stop offset="1" stop-color="#FAFAFA"/>
</radialGradient>
<radialGradient id="paint30_radial_1296_17473" cx="0" cy="0" r="1" gradientUnits="userSpaceOnUse" gradientTransform="translate(256.214 68.2847) rotate(85.3036) scale(21.0333)">
<stop stop-color="#F1F1F1"/>
<stop offset="1" stop-color="#FAFAFA"/>
</radialGradient>
<radialGradient id="paint31_radial_1296_17473" cx="0" cy="0" r="1" gradientUnits="userSpaceOnUse" gradientTransform="translate(297.079 68.2847) rotate(85.3036) scale(21.0333)">
<stop stop-color="#F1F1F1"/>
<stop offset="1" stop-color="#FAFAFA"/>
</radialGradient>
<radialGradient id="paint32_radial_1296_17473" cx="0" cy="0" r="1" gradientUnits="userSpaceOnUse" gradientTransform="translate(10.9737 151.871) rotate(85.3036) scale(21.0333)">
<stop stop-color="#F1F1F1"/>
<stop offset="1" stop-color="#FAFAFA"/>
</radialGradient>
<radialGradient id="paint33_radial_1296_17473" cx="0" cy="0" r="1" gradientUnits="userSpaceOnUse" gradientTransform="translate(51.8457 151.871) rotate(85.3036) scale(21.0333)">
<stop stop-color="#F1F1F1"/>
<stop offset="1" stop-color="#FAFAFA"/>
</radialGradient>
<radialGradient id="paint34_radial_1296_17473" cx="0" cy="0" r="1" gradientUnits="userSpaceOnUse" gradientTransform="translate(92.7168 151.871) rotate(85.3036) scale(21.0333)">
<stop stop-color="#F1F1F1"/>
<stop offset="1" stop-color="#FAFAFA"/>
</radialGradient>
<radialGradient id="paint35_radial_1296_17473" cx="0" cy="0" r="1" gradientUnits="userSpaceOnUse" gradientTransform="translate(133.596 151.871) rotate(85.3036) scale(21.0333)">
<stop stop-color="#F1F1F1"/>
<stop offset="1" stop-color="#FAFAFA"/>
</radialGradient>
<radialGradient id="paint36_radial_1296_17473" cx="0" cy="0" r="1" gradientUnits="userSpaceOnUse" gradientTransform="translate(174.464 151.871) rotate(85.3036) scale(21.0333)">
<stop stop-color="#F1F1F1"/>
<stop offset="1" stop-color="#FAFAFA"/>
</radialGradient>
<radialGradient id="paint37_radial_1296_17473" cx="0" cy="0" r="1" gradientUnits="userSpaceOnUse" gradientTransform="translate(215.339 151.871) rotate(85.3036) scale(21.0333)">
<stop stop-color="#F1F1F1"/>
<stop offset="1" stop-color="#FAFAFA"/>
</radialGradient>
<radialGradient id="paint38_radial_1296_17473" cx="0" cy="0" r="1" gradientUnits="userSpaceOnUse" gradientTransform="translate(256.214 151.871) rotate(85.3036) scale(21.0333)">
<stop stop-color="#F1F1F1"/>
<stop offset="1" stop-color="#FAFAFA"/>
</radialGradient>
<radialGradient id="paint39_radial_1296_17473" cx="0" cy="0" r="1" gradientUnits="userSpaceOnUse" gradientTransform="translate(297.079 151.871) rotate(85.3036) scale(21.0333)">
<stop stop-color="#F1F1F1"/>
<stop offset="1" stop-color="#FAFAFA"/>
</radialGradient>
<radialGradient id="paint40_radial_1296_17473" cx="0" cy="0" r="1" gradientUnits="userSpaceOnUse" gradientTransform="translate(10.9737 235.455) rotate(85.3036) scale(21.0333)">
<stop stop-color="#F1F1F1"/>
<stop offset="1" stop-color="#FAFAFA"/>
</radialGradient>
<radialGradient id="paint41_radial_1296_17473" cx="0" cy="0" r="1" gradientUnits="userSpaceOnUse" gradientTransform="translate(51.8457 235.454) rotate(85.3036) scale(21.0333)">
<stop stop-color="#F1F1F1"/>
<stop offset="1" stop-color="#FAFAFA"/>
</radialGradient>
<radialGradient id="paint42_radial_1296_17473" cx="0" cy="0" r="1" gradientUnits="userSpaceOnUse" gradientTransform="translate(92.7168 235.454) rotate(85.3036) scale(21.0333)">
<stop stop-color="#F1F1F1"/>
<stop offset="1" stop-color="#FAFAFA"/>
</radialGradient>
<radialGradient id="paint43_radial_1296_17473" cx="0" cy="0" r="1" gradientUnits="userSpaceOnUse" gradientTransform="translate(133.596 235.455) rotate(85.3036) scale(21.0333)">
<stop stop-color="#F1F1F1"/>
<stop offset="1" stop-color="#FAFAFA"/>
</radialGradient>
<radialGradient id="paint44_radial_1296_17473" cx="0" cy="0" r="1" gradientUnits="userSpaceOnUse" gradientTransform="translate(174.464 235.454) rotate(85.3036) scale(21.0333)">
<stop stop-color="#F1F1F1"/>
<stop offset="1" stop-color="#FAFAFA"/>
</radialGradient>
<radialGradient id="paint45_radial_1296_17473" cx="0" cy="0" r="1" gradientUnits="userSpaceOnUse" gradientTransform="translate(215.339 235.454) rotate(85.3036) scale(21.0333)">
<stop stop-color="#F1F1F1"/>
<stop offset="1" stop-color="#FAFAFA"/>
</radialGradient>
<radialGradient id="paint46_radial_1296_17473" cx="0" cy="0" r="1" gradientUnits="userSpaceOnUse" gradientTransform="translate(256.214 235.454) rotate(85.3036) scale(21.0333)">
<stop stop-color="#F1F1F1"/>
<stop offset="1" stop-color="#FAFAFA"/>
</radialGradient>
<radialGradient id="paint47_radial_1296_17473" cx="0" cy="0" r="1" gradientUnits="userSpaceOnUse" gradientTransform="translate(297.079 235.454) rotate(85.3036) scale(21.0333)">
<stop stop-color="#F1F1F1"/>
<stop offset="1" stop-color="#FAFAFA"/>
</radialGradient>
</defs>
</svg>
