<svg width="65" height="67" viewBox="0 0 65 67" fill="none" xmlns="http://www.w3.org/2000/svg">
<path d="M16.4801 10.8269C18.5371 10.0661 19.5879 7.78171 18.827 5.72466C18.0662 3.66761 15.7818 2.61685 13.7247 3.37771C11.6677 4.13857 10.6169 6.42294 11.3778 8.47999C12.1386 10.537 14.423 11.5878 16.4801 10.8269Z" fill="#3897FF"/>
<path d="M61.3753 24.2637L55.7976 20.2059L48.9999 21.3754L53.0578 15.7977L51.8883 9L57.4661 13.0575L64.2637 11.8884L60.2058 17.466L61.3753 24.2637Z" fill="#FFCC00"/>
<path d="M18.3274 53.919L11.4371 53.6062L6.40864 58.3275L6.72156 51.4368L2.00012 46.4087L8.89049 46.7214L13.9189 42.0002L13.6062 48.8903L18.3274 53.919Z" fill="#00A98F"/>
</svg>
