<svg width="64" height="60" viewBox="0 0 64 60" fill="none" xmlns="http://www.w3.org/2000/svg">
<path d="M4.89444 46.3374C5.43442 43.4494 8.20259 41.5449 11.0773 42.0834C13.952 42.6219 15.8447 45.3996 15.3047 48.2875C14.7648 51.1755 11.9966 53.08 9.12188 52.5415C6.24715 52.003 4.35446 49.2253 4.89444 46.3374Z" fill="#8E4DD5"/>
<path d="M46.9975 47.2711C47.7646 45.7612 49.6043 45.1601 51.1066 45.9285C52.609 46.6969 53.2051 48.5438 52.438 50.0537C51.671 51.5636 49.8313 52.1647 48.3289 51.3963C46.8266 50.6279 46.2305 48.781 46.9975 47.2711Z" fill="white"/>
<path d="M8.15341 0.0551895L8.95111 3.99628L6.69521 7.31536L10.6183 6.5184L13.9252 8.78809L13.1275 4.847L15.3834 1.52792L11.4606 2.3247L8.15341 0.0551895Z" fill="#3897FF"/>
<path d="M45.8254 22.7221L42.2522 29.3354L56.8007 27.6692L60.0324 20.6981L45.8254 22.7221Z" fill="#00A98F"/>
</svg>
