<svg width="48" height="49" viewBox="0 0 48 49" fill="none" xmlns="http://www.w3.org/2000/svg">
<path d="M12.0159 7.50761C13.541 6.94354 14.32 5.24998 13.7559 3.72495C13.1918 2.19992 11.4982 1.42092 9.97322 1.985C8.44819 2.54907 7.66919 4.24263 8.23327 5.76765C8.79734 7.29268 10.4909 8.07169 12.0159 7.50761Z" fill="#3897FF"/>
<path d="M45.3009 17.4689L41.1658 14.4605L36.1262 15.3275L39.1346 11.1924L38.2676 6.15283L42.4027 9.16092L47.4423 8.29418L44.4339 12.4293L45.3009 17.4689Z" fill="#FFCC00"/>
<path d="M13.3867 39.4546L8.27846 39.2227L4.55056 42.7229L4.78254 37.6144L1.28223 33.8867L6.39052 34.1185L10.1184 30.6184L9.8866 35.7265L13.3867 39.4546Z" fill="#00A98F"/>
</svg>
