<svg width="48" height="45" viewBox="0 0 48 45" fill="none" xmlns="http://www.w3.org/2000/svg">
<path d="M4.39273 35.0413C4.79305 32.9003 6.84528 31.4883 8.97651 31.8876C11.1077 32.2868 12.5109 34.3461 12.1106 36.4871C11.7103 38.6281 9.65804 40.0401 7.52682 39.6409C5.39559 39.2416 3.99241 37.1824 4.39273 35.0413Z" fill="#8E4DD5"/>
<path d="M35.6066 35.7335C36.1752 34.6141 37.5391 34.1685 38.6529 34.7381C39.7667 35.3078 40.2087 36.677 39.64 37.7964C39.0713 38.9158 37.7074 39.3614 36.5937 38.7918C35.4799 38.2221 35.0379 36.8529 35.6066 35.7335Z" fill="white"/>
<path d="M6.80988 0.729332L7.40126 3.65113L5.72881 6.11178L8.63724 5.52094L11.0889 7.20361L10.4975 4.28182L12.1699 1.82117L9.2617 2.41187L6.80988 0.729332Z" fill="#3897FF"/>
<path d="M34.7376 17.5337L32.0885 22.4365L42.8743 21.2012L45.2702 16.0331L34.7376 17.5337Z" fill="#00A98F"/>
</svg>
