<svg width="384" height="290" viewBox="0 0 384 290" fill="none" xmlns="http://www.w3.org/2000/svg">
<g opacity="0.7">
<g opacity="0.5">
<rect y="18.7529" width="26.5197" height="26.5197" rx="5.94106" transform="rotate(-45 0 18.7529)" fill="url(#paint0_radial_1296_17412)"/>
<rect x="49.3867" y="18.7524" width="26.5197" height="26.5197" rx="5.94106" transform="rotate(-45 49.3867 18.7524)" fill="url(#paint1_radial_1296_17412)"/>
<rect x="98.7734" y="18.7524" width="26.5197" height="26.5197" rx="5.94106" transform="rotate(-45 98.7734 18.7524)" fill="url(#paint2_radial_1296_17412)"/>
<rect x="148.168" y="18.7524" width="26.5197" height="26.5197" rx="5.94106" transform="rotate(-45 148.168 18.7524)" fill="url(#paint3_radial_1296_17412)"/>
<rect x="197.551" y="18.7524" width="26.5197" height="26.5197" rx="5.94106" transform="rotate(-45 197.551 18.7524)" fill="url(#paint4_radial_1296_17412)"/>
<rect x="246.941" y="18.7524" width="26.5197" height="26.5197" rx="5.94106" transform="rotate(-45 246.941 18.7524)" fill="url(#paint5_radial_1296_17412)"/>
<rect x="296.332" y="18.7524" width="26.5197" height="26.5197" rx="5.94106" transform="rotate(-45 296.332 18.7524)" fill="url(#paint6_radial_1296_17412)"/>
<rect x="345.711" y="18.7524" width="26.5197" height="26.5197" rx="5.94106" transform="rotate(-45 345.711 18.7524)" fill="url(#paint7_radial_1296_17412)"/>
</g>
<g opacity="0.5">
<rect y="119.751" width="26.5197" height="26.5197" rx="5.94106" transform="rotate(-45 0 119.751)" fill="url(#paint8_radial_1296_17412)"/>
<rect x="49.3867" y="119.751" width="26.5197" height="26.5197" rx="5.94106" transform="rotate(-45 49.3867 119.751)" fill="url(#paint9_radial_1296_17412)"/>
<rect x="98.7734" y="119.751" width="26.5197" height="26.5197" rx="5.94106" transform="rotate(-45 98.7734 119.751)" fill="url(#paint10_radial_1296_17412)"/>
<rect x="148.168" y="119.751" width="26.5197" height="26.5197" rx="5.94106" transform="rotate(-45 148.168 119.751)" fill="url(#paint11_radial_1296_17412)"/>
<rect x="197.551" y="119.751" width="26.5197" height="26.5197" rx="5.94106" transform="rotate(-45 197.551 119.751)" fill="url(#paint12_radial_1296_17412)"/>
<rect x="246.941" y="119.751" width="26.5197" height="26.5197" rx="5.94106" transform="rotate(-45 246.941 119.751)" fill="url(#paint13_radial_1296_17412)"/>
<rect x="296.332" y="119.751" width="26.5197" height="26.5197" rx="5.94106" transform="rotate(-45 296.332 119.751)" fill="url(#paint14_radial_1296_17412)"/>
<rect x="345.711" y="119.751" width="26.5197" height="26.5197" rx="5.94106" transform="rotate(-45 345.711 119.751)" fill="url(#paint15_radial_1296_17412)"/>
</g>
<g opacity="0.5">
<rect y="220.749" width="26.5197" height="26.5197" rx="5.94106" transform="rotate(-45 0 220.749)" fill="url(#paint16_radial_1296_17412)"/>
<rect x="49.3867" y="220.749" width="26.5197" height="26.5197" rx="5.94106" transform="rotate(-45 49.3867 220.749)" fill="url(#paint17_radial_1296_17412)"/>
<rect x="98.7734" y="220.749" width="26.5197" height="26.5197" rx="5.94106" transform="rotate(-45 98.7734 220.749)" fill="url(#paint18_radial_1296_17412)"/>
<rect x="148.168" y="220.749" width="26.5197" height="26.5197" rx="5.94106" transform="rotate(-45 148.168 220.749)" fill="url(#paint19_radial_1296_17412)"/>
<rect x="197.551" y="220.749" width="26.5197" height="26.5197" rx="5.94106" transform="rotate(-45 197.551 220.749)" fill="url(#paint20_radial_1296_17412)"/>
<rect x="246.941" y="220.749" width="26.5197" height="26.5197" rx="5.94106" transform="rotate(-45 246.941 220.749)" fill="url(#paint21_radial_1296_17412)"/>
<rect x="296.332" y="220.749" width="26.5197" height="26.5197" rx="5.94106" transform="rotate(-45 296.332 220.749)" fill="url(#paint22_radial_1296_17412)"/>
<rect x="345.711" y="220.749" width="26.5197" height="26.5197" rx="5.94106" transform="rotate(-45 345.711 220.749)" fill="url(#paint23_radial_1296_17412)"/>
</g>
<g opacity="0.5">
<rect y="69.252" width="26.5197" height="26.5197" rx="5.94106" transform="rotate(-45 0 69.252)" fill="url(#paint24_radial_1296_17412)"/>
<rect x="49.3867" y="69.2515" width="26.5197" height="26.5197" rx="5.94106" transform="rotate(-45 49.3867 69.2515)" fill="url(#paint25_radial_1296_17412)"/>
<rect x="98.7734" y="69.2515" width="26.5197" height="26.5197" rx="5.94106" transform="rotate(-45 98.7734 69.2515)" fill="url(#paint26_radial_1296_17412)"/>
<rect x="148.168" y="69.2515" width="26.5197" height="26.5197" rx="5.94106" transform="rotate(-45 148.168 69.2515)" fill="url(#paint27_radial_1296_17412)"/>
<rect x="197.551" y="69.2515" width="26.5197" height="26.5197" rx="5.94106" transform="rotate(-45 197.551 69.2515)" fill="url(#paint28_radial_1296_17412)"/>
<rect x="246.941" y="69.2515" width="26.5197" height="26.5197" rx="5.94106" transform="rotate(-45 246.941 69.2515)" fill="url(#paint29_radial_1296_17412)"/>
<rect x="296.332" y="69.2515" width="26.5197" height="26.5197" rx="5.94106" transform="rotate(-45 296.332 69.2515)" fill="url(#paint30_radial_1296_17412)"/>
<rect x="345.711" y="69.2515" width="26.5197" height="26.5197" rx="5.94106" transform="rotate(-45 345.711 69.2515)" fill="url(#paint31_radial_1296_17412)"/>
</g>
<g opacity="0.5">
<rect y="170.25" width="26.5197" height="26.5197" rx="5.94106" transform="rotate(-45 0 170.25)" fill="url(#paint32_radial_1296_17412)"/>
<rect x="49.3867" y="170.25" width="26.5197" height="26.5197" rx="5.94106" transform="rotate(-45 49.3867 170.25)" fill="url(#paint33_radial_1296_17412)"/>
<rect x="98.7734" y="170.25" width="26.5197" height="26.5197" rx="5.94106" transform="rotate(-45 98.7734 170.25)" fill="url(#paint34_radial_1296_17412)"/>
<rect x="148.168" y="170.25" width="26.5197" height="26.5197" rx="5.94106" transform="rotate(-45 148.168 170.25)" fill="url(#paint35_radial_1296_17412)"/>
<rect x="197.551" y="170.25" width="26.5197" height="26.5197" rx="5.94106" transform="rotate(-45 197.551 170.25)" fill="url(#paint36_radial_1296_17412)"/>
<rect x="246.941" y="170.25" width="26.5197" height="26.5197" rx="5.94106" transform="rotate(-45 246.941 170.25)" fill="url(#paint37_radial_1296_17412)"/>
<rect x="296.332" y="170.25" width="26.5197" height="26.5197" rx="5.94106" transform="rotate(-45 296.332 170.25)" fill="url(#paint38_radial_1296_17412)"/>
<rect x="345.711" y="170.25" width="26.5197" height="26.5197" rx="5.94106" transform="rotate(-45 345.711 170.25)" fill="url(#paint39_radial_1296_17412)"/>
</g>
<g opacity="0.5">
<rect y="271.248" width="26.5197" height="26.5197" rx="5.94106" transform="rotate(-45 0 271.248)" fill="url(#paint40_radial_1296_17412)"/>
<rect x="49.3867" y="271.248" width="26.5197" height="26.5197" rx="5.94106" transform="rotate(-45 49.3867 271.248)" fill="url(#paint41_radial_1296_17412)"/>
<rect x="98.7734" y="271.248" width="26.5197" height="26.5197" rx="5.94106" transform="rotate(-45 98.7734 271.248)" fill="url(#paint42_radial_1296_17412)"/>
<rect x="148.168" y="271.249" width="26.5197" height="26.5197" rx="5.94106" transform="rotate(-45 148.168 271.249)" fill="url(#paint43_radial_1296_17412)"/>
<rect x="197.551" y="271.248" width="26.5197" height="26.5197" rx="5.94106" transform="rotate(-45 197.551 271.248)" fill="url(#paint44_radial_1296_17412)"/>
<rect x="246.941" y="271.248" width="26.5197" height="26.5197" rx="5.94106" transform="rotate(-45 246.941 271.248)" fill="url(#paint45_radial_1296_17412)"/>
<rect x="296.332" y="271.248" width="26.5197" height="26.5197" rx="5.94106" transform="rotate(-45 296.332 271.248)" fill="url(#paint46_radial_1296_17412)"/>
<rect x="345.711" y="271.248" width="26.5197" height="26.5197" rx="5.94106" transform="rotate(-45 345.711 271.248)" fill="url(#paint47_radial_1296_17412)"/>
</g>
</g>
<defs>
<radialGradient id="paint0_radial_1296_17412" cx="0" cy="0" r="1" gradientUnits="userSpaceOnUse" gradientTransform="translate(13.2598 32.0128) rotate(85.3036) scale(25.4152)">
<stop stop-color="#F1F1F1"/>
<stop offset="1" stop-color="#FAFAFA"/>
</radialGradient>
<radialGradient id="paint1_radial_1296_17412" cx="0" cy="0" r="1" gradientUnits="userSpaceOnUse" gradientTransform="translate(62.6466 32.0123) rotate(85.3036) scale(25.4152)">
<stop stop-color="#F1F1F1"/>
<stop offset="1" stop-color="#FAFAFA"/>
</radialGradient>
<radialGradient id="paint2_radial_1296_17412" cx="0" cy="0" r="1" gradientUnits="userSpaceOnUse" gradientTransform="translate(112.033 32.0123) rotate(85.3036) scale(25.4152)">
<stop stop-color="#F1F1F1"/>
<stop offset="1" stop-color="#FAFAFA"/>
</radialGradient>
<radialGradient id="paint3_radial_1296_17412" cx="0" cy="0" r="1" gradientUnits="userSpaceOnUse" gradientTransform="translate(161.428 32.0123) rotate(85.3036) scale(25.4152)">
<stop stop-color="#F1F1F1"/>
<stop offset="1" stop-color="#FAFAFA"/>
</radialGradient>
<radialGradient id="paint4_radial_1296_17412" cx="0" cy="0" r="1" gradientUnits="userSpaceOnUse" gradientTransform="translate(210.811 32.0123) rotate(85.3036) scale(25.4152)">
<stop stop-color="#F1F1F1"/>
<stop offset="1" stop-color="#FAFAFA"/>
</radialGradient>
<radialGradient id="paint5_radial_1296_17412" cx="0" cy="0" r="1" gradientUnits="userSpaceOnUse" gradientTransform="translate(260.201 32.0123) rotate(85.3036) scale(25.4152)">
<stop stop-color="#F1F1F1"/>
<stop offset="1" stop-color="#FAFAFA"/>
</radialGradient>
<radialGradient id="paint6_radial_1296_17412" cx="0" cy="0" r="1" gradientUnits="userSpaceOnUse" gradientTransform="translate(309.592 32.0123) rotate(85.3036) scale(25.4152)">
<stop stop-color="#F1F1F1"/>
<stop offset="1" stop-color="#FAFAFA"/>
</radialGradient>
<radialGradient id="paint7_radial_1296_17412" cx="0" cy="0" r="1" gradientUnits="userSpaceOnUse" gradientTransform="translate(358.971 32.0123) rotate(85.3036) scale(25.4152)">
<stop stop-color="#F1F1F1"/>
<stop offset="1" stop-color="#FAFAFA"/>
</radialGradient>
<radialGradient id="paint8_radial_1296_17412" cx="0" cy="0" r="1" gradientUnits="userSpaceOnUse" gradientTransform="translate(13.2598 133.011) rotate(85.3036) scale(25.4152)">
<stop stop-color="#F1F1F1"/>
<stop offset="1" stop-color="#FAFAFA"/>
</radialGradient>
<radialGradient id="paint9_radial_1296_17412" cx="0" cy="0" r="1" gradientUnits="userSpaceOnUse" gradientTransform="translate(62.6466 133.011) rotate(85.3036) scale(25.4152)">
<stop stop-color="#F1F1F1"/>
<stop offset="1" stop-color="#FAFAFA"/>
</radialGradient>
<radialGradient id="paint10_radial_1296_17412" cx="0" cy="0" r="1" gradientUnits="userSpaceOnUse" gradientTransform="translate(112.033 133.011) rotate(85.3036) scale(25.4152)">
<stop stop-color="#F1F1F1"/>
<stop offset="1" stop-color="#FAFAFA"/>
</radialGradient>
<radialGradient id="paint11_radial_1296_17412" cx="0" cy="0" r="1" gradientUnits="userSpaceOnUse" gradientTransform="translate(161.428 133.011) rotate(85.3036) scale(25.4152)">
<stop stop-color="#F1F1F1"/>
<stop offset="1" stop-color="#FAFAFA"/>
</radialGradient>
<radialGradient id="paint12_radial_1296_17412" cx="0" cy="0" r="1" gradientUnits="userSpaceOnUse" gradientTransform="translate(210.811 133.011) rotate(85.3036) scale(25.4152)">
<stop stop-color="#F1F1F1"/>
<stop offset="1" stop-color="#FAFAFA"/>
</radialGradient>
<radialGradient id="paint13_radial_1296_17412" cx="0" cy="0" r="1" gradientUnits="userSpaceOnUse" gradientTransform="translate(260.201 133.011) rotate(85.3036) scale(25.4152)">
<stop stop-color="#F1F1F1"/>
<stop offset="1" stop-color="#FAFAFA"/>
</radialGradient>
<radialGradient id="paint14_radial_1296_17412" cx="0" cy="0" r="1" gradientUnits="userSpaceOnUse" gradientTransform="translate(309.592 133.011) rotate(85.3036) scale(25.4152)">
<stop stop-color="#F1F1F1"/>
<stop offset="1" stop-color="#FAFAFA"/>
</radialGradient>
<radialGradient id="paint15_radial_1296_17412" cx="0" cy="0" r="1" gradientUnits="userSpaceOnUse" gradientTransform="translate(358.971 133.011) rotate(85.3036) scale(25.4152)">
<stop stop-color="#F1F1F1"/>
<stop offset="1" stop-color="#FAFAFA"/>
</radialGradient>
<radialGradient id="paint16_radial_1296_17412" cx="0" cy="0" r="1" gradientUnits="userSpaceOnUse" gradientTransform="translate(13.2598 234.009) rotate(85.3036) scale(25.4152)">
<stop stop-color="#F1F1F1"/>
<stop offset="1" stop-color="#FAFAFA"/>
</radialGradient>
<radialGradient id="paint17_radial_1296_17412" cx="0" cy="0" r="1" gradientUnits="userSpaceOnUse" gradientTransform="translate(62.6466 234.008) rotate(85.3036) scale(25.4152)">
<stop stop-color="#F1F1F1"/>
<stop offset="1" stop-color="#FAFAFA"/>
</radialGradient>
<radialGradient id="paint18_radial_1296_17412" cx="0" cy="0" r="1" gradientUnits="userSpaceOnUse" gradientTransform="translate(112.033 234.008) rotate(85.3036) scale(25.4152)">
<stop stop-color="#F1F1F1"/>
<stop offset="1" stop-color="#FAFAFA"/>
</radialGradient>
<radialGradient id="paint19_radial_1296_17412" cx="0" cy="0" r="1" gradientUnits="userSpaceOnUse" gradientTransform="translate(161.428 234.009) rotate(85.3036) scale(25.4152)">
<stop stop-color="#F1F1F1"/>
<stop offset="1" stop-color="#FAFAFA"/>
</radialGradient>
<radialGradient id="paint20_radial_1296_17412" cx="0" cy="0" r="1" gradientUnits="userSpaceOnUse" gradientTransform="translate(210.811 234.008) rotate(85.3036) scale(25.4152)">
<stop stop-color="#F1F1F1"/>
<stop offset="1" stop-color="#FAFAFA"/>
</radialGradient>
<radialGradient id="paint21_radial_1296_17412" cx="0" cy="0" r="1" gradientUnits="userSpaceOnUse" gradientTransform="translate(260.201 234.008) rotate(85.3036) scale(25.4152)">
<stop stop-color="#F1F1F1"/>
<stop offset="1" stop-color="#FAFAFA"/>
</radialGradient>
<radialGradient id="paint22_radial_1296_17412" cx="0" cy="0" r="1" gradientUnits="userSpaceOnUse" gradientTransform="translate(309.592 234.008) rotate(85.3036) scale(25.4152)">
<stop stop-color="#F1F1F1"/>
<stop offset="1" stop-color="#FAFAFA"/>
</radialGradient>
<radialGradient id="paint23_radial_1296_17412" cx="0" cy="0" r="1" gradientUnits="userSpaceOnUse" gradientTransform="translate(358.971 234.008) rotate(85.3036) scale(25.4152)">
<stop stop-color="#F1F1F1"/>
<stop offset="1" stop-color="#FAFAFA"/>
</radialGradient>
<radialGradient id="paint24_radial_1296_17412" cx="0" cy="0" r="1" gradientUnits="userSpaceOnUse" gradientTransform="translate(13.2598 82.5118) rotate(85.3036) scale(25.4152)">
<stop stop-color="#F1F1F1"/>
<stop offset="1" stop-color="#FAFAFA"/>
</radialGradient>
<radialGradient id="paint25_radial_1296_17412" cx="0" cy="0" r="1" gradientUnits="userSpaceOnUse" gradientTransform="translate(62.6466 82.5113) rotate(85.3036) scale(25.4152)">
<stop stop-color="#F1F1F1"/>
<stop offset="1" stop-color="#FAFAFA"/>
</radialGradient>
<radialGradient id="paint26_radial_1296_17412" cx="0" cy="0" r="1" gradientUnits="userSpaceOnUse" gradientTransform="translate(112.033 82.5113) rotate(85.3036) scale(25.4152)">
<stop stop-color="#F1F1F1"/>
<stop offset="1" stop-color="#FAFAFA"/>
</radialGradient>
<radialGradient id="paint27_radial_1296_17412" cx="0" cy="0" r="1" gradientUnits="userSpaceOnUse" gradientTransform="translate(161.428 82.5113) rotate(85.3036) scale(25.4152)">
<stop stop-color="#F1F1F1"/>
<stop offset="1" stop-color="#FAFAFA"/>
</radialGradient>
<radialGradient id="paint28_radial_1296_17412" cx="0" cy="0" r="1" gradientUnits="userSpaceOnUse" gradientTransform="translate(210.811 82.5113) rotate(85.3036) scale(25.4152)">
<stop stop-color="#F1F1F1"/>
<stop offset="1" stop-color="#FAFAFA"/>
</radialGradient>
<radialGradient id="paint29_radial_1296_17412" cx="0" cy="0" r="1" gradientUnits="userSpaceOnUse" gradientTransform="translate(260.201 82.5113) rotate(85.3036) scale(25.4152)">
<stop stop-color="#F1F1F1"/>
<stop offset="1" stop-color="#FAFAFA"/>
</radialGradient>
<radialGradient id="paint30_radial_1296_17412" cx="0" cy="0" r="1" gradientUnits="userSpaceOnUse" gradientTransform="translate(309.592 82.5113) rotate(85.3036) scale(25.4152)">
<stop stop-color="#F1F1F1"/>
<stop offset="1" stop-color="#FAFAFA"/>
</radialGradient>
<radialGradient id="paint31_radial_1296_17412" cx="0" cy="0" r="1" gradientUnits="userSpaceOnUse" gradientTransform="translate(358.971 82.5113) rotate(85.3036) scale(25.4152)">
<stop stop-color="#F1F1F1"/>
<stop offset="1" stop-color="#FAFAFA"/>
</radialGradient>
<radialGradient id="paint32_radial_1296_17412" cx="0" cy="0" r="1" gradientUnits="userSpaceOnUse" gradientTransform="translate(13.2598 183.51) rotate(85.3036) scale(25.4152)">
<stop stop-color="#F1F1F1"/>
<stop offset="1" stop-color="#FAFAFA"/>
</radialGradient>
<radialGradient id="paint33_radial_1296_17412" cx="0" cy="0" r="1" gradientUnits="userSpaceOnUse" gradientTransform="translate(62.6466 183.51) rotate(85.3036) scale(25.4152)">
<stop stop-color="#F1F1F1"/>
<stop offset="1" stop-color="#FAFAFA"/>
</radialGradient>
<radialGradient id="paint34_radial_1296_17412" cx="0" cy="0" r="1" gradientUnits="userSpaceOnUse" gradientTransform="translate(112.033 183.51) rotate(85.3036) scale(25.4152)">
<stop stop-color="#F1F1F1"/>
<stop offset="1" stop-color="#FAFAFA"/>
</radialGradient>
<radialGradient id="paint35_radial_1296_17412" cx="0" cy="0" r="1" gradientUnits="userSpaceOnUse" gradientTransform="translate(161.428 183.51) rotate(85.3036) scale(25.4152)">
<stop stop-color="#F1F1F1"/>
<stop offset="1" stop-color="#FAFAFA"/>
</radialGradient>
<radialGradient id="paint36_radial_1296_17412" cx="0" cy="0" r="1" gradientUnits="userSpaceOnUse" gradientTransform="translate(210.811 183.51) rotate(85.3036) scale(25.4152)">
<stop stop-color="#F1F1F1"/>
<stop offset="1" stop-color="#FAFAFA"/>
</radialGradient>
<radialGradient id="paint37_radial_1296_17412" cx="0" cy="0" r="1" gradientUnits="userSpaceOnUse" gradientTransform="translate(260.201 183.51) rotate(85.3036) scale(25.4152)">
<stop stop-color="#F1F1F1"/>
<stop offset="1" stop-color="#FAFAFA"/>
</radialGradient>
<radialGradient id="paint38_radial_1296_17412" cx="0" cy="0" r="1" gradientUnits="userSpaceOnUse" gradientTransform="translate(309.592 183.51) rotate(85.3036) scale(25.4152)">
<stop stop-color="#F1F1F1"/>
<stop offset="1" stop-color="#FAFAFA"/>
</radialGradient>
<radialGradient id="paint39_radial_1296_17412" cx="0" cy="0" r="1" gradientUnits="userSpaceOnUse" gradientTransform="translate(358.971 183.51) rotate(85.3036) scale(25.4152)">
<stop stop-color="#F1F1F1"/>
<stop offset="1" stop-color="#FAFAFA"/>
</radialGradient>
<radialGradient id="paint40_radial_1296_17412" cx="0" cy="0" r="1" gradientUnits="userSpaceOnUse" gradientTransform="translate(13.2598 284.508) rotate(85.3036) scale(25.4152)">
<stop stop-color="#F1F1F1"/>
<stop offset="1" stop-color="#FAFAFA"/>
</radialGradient>
<radialGradient id="paint41_radial_1296_17412" cx="0" cy="0" r="1" gradientUnits="userSpaceOnUse" gradientTransform="translate(62.6466 284.507) rotate(85.3036) scale(25.4152)">
<stop stop-color="#F1F1F1"/>
<stop offset="1" stop-color="#FAFAFA"/>
</radialGradient>
<radialGradient id="paint42_radial_1296_17412" cx="0" cy="0" r="1" gradientUnits="userSpaceOnUse" gradientTransform="translate(112.033 284.507) rotate(85.3036) scale(25.4152)">
<stop stop-color="#F1F1F1"/>
<stop offset="1" stop-color="#FAFAFA"/>
</radialGradient>
<radialGradient id="paint43_radial_1296_17412" cx="0" cy="0" r="1" gradientUnits="userSpaceOnUse" gradientTransform="translate(161.428 284.508) rotate(85.3036) scale(25.4152)">
<stop stop-color="#F1F1F1"/>
<stop offset="1" stop-color="#FAFAFA"/>
</radialGradient>
<radialGradient id="paint44_radial_1296_17412" cx="0" cy="0" r="1" gradientUnits="userSpaceOnUse" gradientTransform="translate(210.811 284.507) rotate(85.3036) scale(25.4152)">
<stop stop-color="#F1F1F1"/>
<stop offset="1" stop-color="#FAFAFA"/>
</radialGradient>
<radialGradient id="paint45_radial_1296_17412" cx="0" cy="0" r="1" gradientUnits="userSpaceOnUse" gradientTransform="translate(260.201 284.507) rotate(85.3036) scale(25.4152)">
<stop stop-color="#F1F1F1"/>
<stop offset="1" stop-color="#FAFAFA"/>
</radialGradient>
<radialGradient id="paint46_radial_1296_17412" cx="0" cy="0" r="1" gradientUnits="userSpaceOnUse" gradientTransform="translate(309.592 284.507) rotate(85.3036) scale(25.4152)">
<stop stop-color="#F1F1F1"/>
<stop offset="1" stop-color="#FAFAFA"/>
</radialGradient>
<radialGradient id="paint47_radial_1296_17412" cx="0" cy="0" r="1" gradientUnits="userSpaceOnUse" gradientTransform="translate(358.971 284.507) rotate(85.3036) scale(25.4152)">
<stop stop-color="#F1F1F1"/>
<stop offset="1" stop-color="#FAFAFA"/>
</radialGradient>
</defs>
</svg>
