<svg width="17" height="17" viewBox="0 0 17 17" fill="none" xmlns="http://www.w3.org/2000/svg">
<path d="M11.8078 0.879395C14.5497 0.879395 16.0765 2.29979 16.0765 4.7336V12.9767C16.0765 15.4504 14.5497 16.8388 11.8078 16.8388H4.36828C1.66979 16.8388 0.0986328 15.4504 0.0986328 12.9767V4.7336C0.0986328 2.29979 1.66979 0.879395 4.36828 0.879395H11.8078ZM4.60795 11.8435C4.34165 11.8196 4.08423 11.9313 3.9422 12.1388C3.80018 12.3383 3.80018 12.6016 3.9422 12.8091C4.08423 13.0086 4.34165 13.1283 4.60795 13.0964H11.5672C11.9214 13.0644 12.1886 12.7923 12.1886 12.4739C12.1886 12.1468 11.9214 11.8755 11.5672 11.8435H4.60795ZM11.5672 8.20399H4.60795C4.22537 8.20399 3.91557 8.48407 3.91557 8.8272C3.91557 9.17033 4.22537 9.44962 4.60795 9.44962H11.5672C11.9489 9.44962 12.2596 9.17033 12.2596 8.8272C12.2596 8.48407 11.9489 8.20399 11.5672 8.20399ZM7.26116 4.58997H4.60795V4.59795C4.22537 4.59795 3.91557 4.87724 3.91557 5.22037C3.91557 5.56349 4.22537 5.84278 4.60795 5.84278H7.26116C7.64375 5.84278 7.95443 5.56349 7.95443 5.21159C7.95443 4.86926 7.64375 4.58997 7.26116 4.58997Z" fill="#004EE7"/>
</svg>
