<svg width="80" height="99" viewBox="0 0 80 99" fill="none" xmlns="http://www.w3.org/2000/svg">
<rect width="3" height="3" rx="1" transform="matrix(-0.895337 0.445389 0.446684 0.894692 68.686 15)" fill="url(#paint0_radial_1011_9798)" fill-opacity="0.8"/>
<rect width="3" height="3" rx="1" transform="matrix(-0.895337 0.445389 0.446684 0.894692 72.686 23)" fill="url(#paint1_radial_1011_9798)" fill-opacity="0.8"/>
<rect width="3" height="3" rx="1" transform="matrix(-0.895337 0.445389 0.446684 0.894692 72.686 32)" fill="url(#paint2_radial_1011_9798)" fill-opacity="0.8"/>
<rect width="3" height="3" rx="1" transform="matrix(-0.895337 0.445389 0.446684 0.894692 68.6484 37.9536)" fill="url(#paint3_radial_1011_9798)" fill-opacity="0.8"/>
<rect width="3" height="3" rx="1" transform="matrix(-0.895337 0.445389 0.446684 0.894692 62.1299 43.144)" fill="url(#paint4_radial_1011_9798)" fill-opacity="0.8"/>
<rect width="3" height="3" rx="1" transform="matrix(-0.895337 0.445389 0.446684 0.894692 56.3398 47.0752)" fill="url(#paint5_radial_1011_9798)" fill-opacity="0.8"/>
<rect width="3" height="3" rx="1" transform="matrix(-0.895337 0.445389 0.446684 0.894692 50.2036 50.4404)" fill="url(#paint6_radial_1011_9798)" fill-opacity="0.8"/>
<rect width="3" height="3" rx="1" transform="matrix(-0.895337 0.445389 0.446684 0.894692 43.6318 52.8486)" fill="url(#paint7_radial_1011_9798)" fill-opacity="0.8"/>
<rect width="3" height="3" rx="1" transform="matrix(-0.895337 0.445389 0.446684 0.894692 36.7012 53.8169)" fill="url(#paint8_radial_1011_9798)" fill-opacity="0.8"/>
<rect width="3" height="3" rx="1" transform="matrix(-0.895337 0.445389 0.446684 0.894692 29.751 52.9917)" fill="url(#paint9_radial_1011_9798)" fill-opacity="0.8"/>
<rect width="3" height="3" rx="1" transform="matrix(-0.895337 0.445389 0.446684 0.894692 23.2227 50.4697)" fill="url(#paint10_radial_1011_9798)" fill-opacity="0.8"/>
<rect width="3" height="3" rx="1" transform="matrix(-0.895337 0.445389 0.446684 0.894692 18.0889 46.522)" fill="url(#paint11_radial_1011_9798)" fill-opacity="0.8"/>
<rect width="3" height="3" rx="1" transform="matrix(-0.895337 0.445389 0.446684 0.894692 15.8657 39.8857)" fill="url(#paint12_radial_1011_9798)" fill-opacity="0.8"/>
<rect width="3" height="3" rx="1" transform="matrix(-0.895337 0.445389 0.446684 0.894692 18.1489 33.27)" fill="url(#paint13_radial_1011_9798)" fill-opacity="0.8"/>
<rect width="3" height="3" rx="1" transform="matrix(-0.895337 0.445389 0.446684 0.894692 23.186 28.4111)" fill="url(#paint14_radial_1011_9798)" fill-opacity="0.8"/>
<rect width="3" height="3" rx="1" transform="matrix(-0.895337 0.445389 0.446684 0.894692 29.8135 26.1636)" fill="url(#paint15_radial_1011_9798)" fill-opacity="0.8"/>
<rect width="3" height="3" rx="1" transform="matrix(-0.895337 0.445389 0.446684 0.894692 36.665 27.5918)" fill="url(#paint16_radial_1011_9798)" fill-opacity="0.8"/>
<rect width="3" height="3" rx="1" transform="matrix(-0.895337 0.445389 0.446684 0.894692 42.3857 33.7778)" fill="url(#paint17_radial_1011_9798)" fill-opacity="0.8"/>
<rect width="3" height="3" rx="1" transform="matrix(-0.895337 0.445389 0.446684 0.894692 42.5723 40.7739)" fill="url(#paint18_radial_1011_9798)" fill-opacity="0.8"/>
<rect width="3" height="3" rx="1" transform="matrix(-0.895337 0.445389 0.446684 0.894692 40.2891 47.3896)" fill="url(#paint19_radial_1011_9798)" fill-opacity="0.8"/>
<rect width="3" height="3" rx="1" transform="matrix(-0.895337 0.445389 0.446684 0.894692 36.9331 53.5308)" fill="url(#paint20_radial_1011_9798)" fill-opacity="0.8"/>
<rect width="3" height="3" rx="1" transform="matrix(-0.895337 0.445389 0.446684 0.894692 33.0015 59.3208)" fill="url(#paint21_radial_1011_9798)" fill-opacity="0.8"/>
<rect width="3" height="3" rx="1" transform="matrix(-0.895337 0.445389 0.446684 0.894692 28.7036 64.8447)" fill="url(#paint22_radial_1011_9798)" fill-opacity="0.8"/>
<rect width="3" height="3" rx="1" transform="matrix(-0.895337 0.445389 0.446684 0.894692 24.1436 70.1523)" fill="url(#paint23_radial_1011_9798)" fill-opacity="0.8"/>
<rect width="3" height="3" rx="1" transform="matrix(-0.895337 0.445389 0.446684 0.894692 20.7031 75.7119)" fill="url(#paint24_radial_1011_9798)" fill-opacity="0.8"/>
<rect width="3" height="3" rx="1" transform="matrix(-0.895337 0.445389 0.446684 0.894692 16.7036 81.7095)" fill="url(#paint25_radial_1011_9798)" fill-opacity="0.8"/>
<defs>
<radialGradient id="paint0_radial_1011_9798" cx="0" cy="0" r="1" gradientUnits="userSpaceOnUse" gradientTransform="translate(1.5 1.5) rotate(85.3036) scale(2.87506)">
<stop stop-color="white"/>
<stop offset="1" stop-color="#FAFAFA"/>
</radialGradient>
<radialGradient id="paint1_radial_1011_9798" cx="0" cy="0" r="1" gradientUnits="userSpaceOnUse" gradientTransform="translate(1.5 1.5) rotate(85.3036) scale(2.87506)">
<stop stop-color="white"/>
<stop offset="1" stop-color="#FAFAFA"/>
</radialGradient>
<radialGradient id="paint2_radial_1011_9798" cx="0" cy="0" r="1" gradientUnits="userSpaceOnUse" gradientTransform="translate(1.5 1.5) rotate(85.3036) scale(2.87506)">
<stop stop-color="white"/>
<stop offset="1" stop-color="#FAFAFA"/>
</radialGradient>
<radialGradient id="paint3_radial_1011_9798" cx="0" cy="0" r="1" gradientUnits="userSpaceOnUse" gradientTransform="translate(1.5 1.5) rotate(85.3036) scale(2.87506)">
<stop stop-color="white"/>
<stop offset="1" stop-color="#FAFAFA"/>
</radialGradient>
<radialGradient id="paint4_radial_1011_9798" cx="0" cy="0" r="1" gradientUnits="userSpaceOnUse" gradientTransform="translate(1.5 1.5) rotate(85.3036) scale(2.87506)">
<stop stop-color="white"/>
<stop offset="1" stop-color="#FAFAFA"/>
</radialGradient>
<radialGradient id="paint5_radial_1011_9798" cx="0" cy="0" r="1" gradientUnits="userSpaceOnUse" gradientTransform="translate(1.5 1.5) rotate(85.3036) scale(2.87506)">
<stop stop-color="white"/>
<stop offset="1" stop-color="#FAFAFA"/>
</radialGradient>
<radialGradient id="paint6_radial_1011_9798" cx="0" cy="0" r="1" gradientUnits="userSpaceOnUse" gradientTransform="translate(1.5 1.5) rotate(85.3036) scale(2.87506)">
<stop stop-color="white"/>
<stop offset="1" stop-color="#FAFAFA"/>
</radialGradient>
<radialGradient id="paint7_radial_1011_9798" cx="0" cy="0" r="1" gradientUnits="userSpaceOnUse" gradientTransform="translate(1.5 1.5) rotate(85.3036) scale(2.87506)">
<stop stop-color="white"/>
<stop offset="1" stop-color="#FAFAFA"/>
</radialGradient>
<radialGradient id="paint8_radial_1011_9798" cx="0" cy="0" r="1" gradientUnits="userSpaceOnUse" gradientTransform="translate(1.5 1.5) rotate(85.3036) scale(2.87506)">
<stop stop-color="white"/>
<stop offset="1" stop-color="#FAFAFA"/>
</radialGradient>
<radialGradient id="paint9_radial_1011_9798" cx="0" cy="0" r="1" gradientUnits="userSpaceOnUse" gradientTransform="translate(1.5 1.5) rotate(85.3036) scale(2.87506)">
<stop stop-color="white"/>
<stop offset="1" stop-color="#FAFAFA"/>
</radialGradient>
<radialGradient id="paint10_radial_1011_9798" cx="0" cy="0" r="1" gradientUnits="userSpaceOnUse" gradientTransform="translate(1.5 1.5) rotate(85.3036) scale(2.87506)">
<stop stop-color="white"/>
<stop offset="1" stop-color="#FAFAFA"/>
</radialGradient>
<radialGradient id="paint11_radial_1011_9798" cx="0" cy="0" r="1" gradientUnits="userSpaceOnUse" gradientTransform="translate(1.5 1.5) rotate(85.3036) scale(2.87506)">
<stop stop-color="white"/>
<stop offset="1" stop-color="#FAFAFA"/>
</radialGradient>
<radialGradient id="paint12_radial_1011_9798" cx="0" cy="0" r="1" gradientUnits="userSpaceOnUse" gradientTransform="translate(1.5 1.5) rotate(85.3036) scale(2.87506)">
<stop stop-color="white"/>
<stop offset="1" stop-color="#FAFAFA"/>
</radialGradient>
<radialGradient id="paint13_radial_1011_9798" cx="0" cy="0" r="1" gradientUnits="userSpaceOnUse" gradientTransform="translate(1.5 1.5) rotate(85.3036) scale(2.87506)">
<stop stop-color="white"/>
<stop offset="1" stop-color="#FAFAFA"/>
</radialGradient>
<radialGradient id="paint14_radial_1011_9798" cx="0" cy="0" r="1" gradientUnits="userSpaceOnUse" gradientTransform="translate(1.5 1.5) rotate(85.3036) scale(2.87506)">
<stop stop-color="white"/>
<stop offset="1" stop-color="#FAFAFA"/>
</radialGradient>
<radialGradient id="paint15_radial_1011_9798" cx="0" cy="0" r="1" gradientUnits="userSpaceOnUse" gradientTransform="translate(1.5 1.5) rotate(85.3036) scale(2.87506)">
<stop stop-color="white"/>
<stop offset="1" stop-color="#FAFAFA"/>
</radialGradient>
<radialGradient id="paint16_radial_1011_9798" cx="0" cy="0" r="1" gradientUnits="userSpaceOnUse" gradientTransform="translate(1.5 1.5) rotate(85.3036) scale(2.87506)">
<stop stop-color="white"/>
<stop offset="1" stop-color="#FAFAFA"/>
</radialGradient>
<radialGradient id="paint17_radial_1011_9798" cx="0" cy="0" r="1" gradientUnits="userSpaceOnUse" gradientTransform="translate(1.5 1.5) rotate(85.3036) scale(2.87506)">
<stop stop-color="white"/>
<stop offset="1" stop-color="#FAFAFA"/>
</radialGradient>
<radialGradient id="paint18_radial_1011_9798" cx="0" cy="0" r="1" gradientUnits="userSpaceOnUse" gradientTransform="translate(1.5 1.5) rotate(85.3036) scale(2.87506)">
<stop stop-color="white"/>
<stop offset="1" stop-color="#FAFAFA"/>
</radialGradient>
<radialGradient id="paint19_radial_1011_9798" cx="0" cy="0" r="1" gradientUnits="userSpaceOnUse" gradientTransform="translate(1.5 1.5) rotate(85.3036) scale(2.87506)">
<stop stop-color="white"/>
<stop offset="1" stop-color="#FAFAFA"/>
</radialGradient>
<radialGradient id="paint20_radial_1011_9798" cx="0" cy="0" r="1" gradientUnits="userSpaceOnUse" gradientTransform="translate(1.5 1.5) rotate(85.3036) scale(2.87506)">
<stop stop-color="white"/>
<stop offset="1" stop-color="#FAFAFA"/>
</radialGradient>
<radialGradient id="paint21_radial_1011_9798" cx="0" cy="0" r="1" gradientUnits="userSpaceOnUse" gradientTransform="translate(1.5 1.5) rotate(85.3036) scale(2.87506)">
<stop stop-color="white"/>
<stop offset="1" stop-color="#FAFAFA"/>
</radialGradient>
<radialGradient id="paint22_radial_1011_9798" cx="0" cy="0" r="1" gradientUnits="userSpaceOnUse" gradientTransform="translate(1.5 1.5) rotate(85.3036) scale(2.87506)">
<stop stop-color="white"/>
<stop offset="1" stop-color="#FAFAFA"/>
</radialGradient>
<radialGradient id="paint23_radial_1011_9798" cx="0" cy="0" r="1" gradientUnits="userSpaceOnUse" gradientTransform="translate(1.5 1.5) rotate(85.3036) scale(2.87506)">
<stop stop-color="white"/>
<stop offset="1" stop-color="#FAFAFA"/>
</radialGradient>
<radialGradient id="paint24_radial_1011_9798" cx="0" cy="0" r="1" gradientUnits="userSpaceOnUse" gradientTransform="translate(1.5 1.5) rotate(85.3036) scale(2.87506)">
<stop stop-color="white"/>
<stop offset="1" stop-color="#FAFAFA"/>
</radialGradient>
<radialGradient id="paint25_radial_1011_9798" cx="0" cy="0" r="1" gradientUnits="userSpaceOnUse" gradientTransform="translate(1.5 1.5) rotate(85.3036) scale(2.87506)">
<stop stop-color="white"/>
<stop offset="1" stop-color="#FAFAFA"/>
</radialGradient>
</defs>
</svg>
