<svg width="75" height="46" viewBox="0 0 75 46" fill="none" xmlns="http://www.w3.org/2000/svg">
<rect width="1.98325" height="1.98325" rx="0.661082" transform="matrix(0.895337 0.445389 -0.446684 0.894692 2.80859 3.94385)" fill="url(#paint0_radial_3029_21074)" fill-opacity="0.8"/>
<rect width="1.98325" height="1.98325" rx="0.661082" transform="matrix(0.895337 0.445389 -0.446684 0.894692 1.06836 0)" fill="url(#paint1_radial_3029_21074)" fill-opacity="0.8"/>
<rect width="1.98325" height="1.98325" rx="0.661082" transform="matrix(0.895337 0.445389 -0.446684 0.894692 5.01074 7.2124)" fill="url(#paint2_radial_3029_21074)" fill-opacity="0.8"/>
<rect width="1.98325" height="1.98325" rx="0.661082" transform="matrix(0.895337 0.445389 -0.446684 0.894692 7.36523 10.3726)" fill="url(#paint3_radial_3029_21074)" fill-opacity="0.8"/>
<rect width="1.98325" height="1.98325" rx="0.661082" transform="matrix(0.895337 0.445389 -0.446684 0.894692 9.88379 13.4053)" fill="url(#paint4_radial_3029_21074)" fill-opacity="0.8"/>
<rect width="1.98325" height="1.98325" rx="0.661082" transform="matrix(0.895337 0.445389 -0.446684 0.894692 12.5879 16.2754)" fill="url(#paint5_radial_3029_21074)" fill-opacity="0.8"/>
<rect width="1.98325" height="1.98325" rx="0.661082" transform="matrix(0.895337 0.445389 -0.446684 0.894692 15.5029 18.9282)" fill="url(#paint6_radial_3029_21074)" fill-opacity="0.8"/>
<rect width="1.98325" height="1.98325" rx="0.661082" transform="matrix(0.895337 0.445389 -0.446684 0.894692 18.6689 21.2764)" fill="url(#paint7_radial_3029_21074)" fill-opacity="0.8"/>
<rect width="1.98325" height="1.98325" rx="0.661082" transform="matrix(0.895337 0.445389 -0.446684 0.894692 22.1211 23.1802)" fill="url(#paint8_radial_3029_21074)" fill-opacity="0.8"/>
<rect width="1.98325" height="1.98325" rx="0.661082" transform="matrix(0.895337 0.445389 -0.446684 0.894692 25.8643 24.416)" fill="url(#paint9_radial_3029_21074)" fill-opacity="0.8"/>
<rect width="1.98325" height="1.98325" rx="0.661082" transform="matrix(0.895337 0.445389 -0.446684 0.894692 29.7959 24.7036)" fill="url(#paint10_radial_3029_21074)" fill-opacity="0.8"/>
<rect width="1.98325" height="1.98325" rx="0.661082" transform="matrix(0.895337 0.445389 -0.446684 0.894692 33.6484 23.8667)" fill="url(#paint11_radial_3029_21074)" fill-opacity="0.8"/>
<rect width="1.98325" height="1.98325" rx="0.661082" transform="matrix(0.895337 0.445389 -0.446684 0.894692 37.1348 22.0278)" fill="url(#paint12_radial_3029_21074)" fill-opacity="0.8"/>
<rect width="1.98325" height="1.98325" rx="0.661082" transform="matrix(0.895337 0.445389 -0.446684 0.894692 40.1523 19.4922)" fill="url(#paint13_radial_3029_21074)" fill-opacity="0.8"/>
<rect width="1.98325" height="1.98325" rx="0.661082" transform="matrix(0.895337 0.445389 -0.446684 0.894692 43.0635 16.9497)" fill="url(#paint14_radial_3029_21074)" fill-opacity="0.8"/>
<rect width="1.98325" height="1.98325" rx="0.661082" transform="matrix(0.895337 0.445389 -0.446684 0.894692 46.4648 14.9575)" fill="url(#paint15_radial_3029_21074)" fill-opacity="0.8"/>
<rect width="1.98325" height="1.98325" rx="0.661082" transform="matrix(0.895337 0.445389 -0.446684 0.894692 50.2871 13.9951)" fill="url(#paint16_radial_3029_21074)" fill-opacity="0.8"/>
<rect width="1.98325" height="1.98325" rx="0.661082" transform="matrix(0.895337 0.445389 -0.446684 0.894692 54.2021 14.4482)" fill="url(#paint17_radial_3029_21074)" fill-opacity="0.8"/>
<rect width="1.98325" height="1.98325" rx="0.661082" transform="matrix(0.895337 0.445389 -0.446684 0.894692 57.7461 16.1738)" fill="url(#paint18_radial_3029_21074)" fill-opacity="0.8"/>
<rect width="1.98325" height="1.98325" rx="0.661082" transform="matrix(0.895337 0.445389 -0.446684 0.894692 60.7705 18.7026)" fill="url(#paint19_radial_3029_21074)" fill-opacity="0.8"/>
<rect width="1.98325" height="1.98325" rx="0.661082" transform="matrix(0.895337 0.445389 -0.446684 0.894692 63.3418 21.6914)" fill="url(#paint20_radial_3029_21074)" fill-opacity="0.8"/>
<rect width="1.98325" height="1.98325" rx="0.661082" transform="matrix(0.895337 0.445389 -0.446684 0.894692 65.5508 24.9556)" fill="url(#paint21_radial_3029_21074)" fill-opacity="0.8"/>
<rect width="1.98325" height="1.98325" rx="0.661082" transform="matrix(0.895337 0.445389 -0.446684 0.894692 67.4688 28.3994)" fill="url(#paint22_radial_3029_21074)" fill-opacity="0.8"/>
<rect width="1.98325" height="1.98325" rx="0.661082" transform="matrix(0.895337 0.445389 -0.446684 0.894692 69.1367 31.9717)" fill="url(#paint23_radial_3029_21074)" fill-opacity="0.8"/>
<rect width="1.98325" height="1.98325" rx="0.661082" transform="matrix(0.895337 0.445389 -0.446684 0.894692 70.5723 35.6431)" fill="url(#paint24_radial_3029_21074)" fill-opacity="0.8"/>
<rect width="1.98325" height="1.98325" rx="0.661082" transform="matrix(0.895337 0.445389 -0.446684 0.894692 71.7549 39.4033)" fill="url(#paint25_radial_3029_21074)" fill-opacity="0.8"/>
<rect width="1.98325" height="1.98325" rx="0.661082" transform="matrix(0.895337 0.445389 -0.446684 0.894692 72.5293 43.2588)" fill="url(#paint26_radial_3029_21074)" fill-opacity="0.8"/>
<defs>
<radialGradient id="paint0_radial_3029_21074" cx="0" cy="0" r="1" gradientUnits="userSpaceOnUse" gradientTransform="translate(0.991624 0.991624) rotate(85.3036) scale(1.90065)">
<stop stop-color="white"/>
<stop offset="1" stop-color="#FAFAFA"/>
</radialGradient>
<radialGradient id="paint1_radial_3029_21074" cx="0" cy="0" r="1" gradientUnits="userSpaceOnUse" gradientTransform="translate(0.991624 0.991624) rotate(85.3036) scale(1.90065)">
<stop stop-color="white"/>
<stop offset="1" stop-color="#FAFAFA"/>
</radialGradient>
<radialGradient id="paint2_radial_3029_21074" cx="0" cy="0" r="1" gradientUnits="userSpaceOnUse" gradientTransform="translate(0.991624 0.991624) rotate(85.3036) scale(1.90065)">
<stop stop-color="white"/>
<stop offset="1" stop-color="#FAFAFA"/>
</radialGradient>
<radialGradient id="paint3_radial_3029_21074" cx="0" cy="0" r="1" gradientUnits="userSpaceOnUse" gradientTransform="translate(0.991624 0.991624) rotate(85.3036) scale(1.90065)">
<stop stop-color="white"/>
<stop offset="1" stop-color="#FAFAFA"/>
</radialGradient>
<radialGradient id="paint4_radial_3029_21074" cx="0" cy="0" r="1" gradientUnits="userSpaceOnUse" gradientTransform="translate(0.991624 0.991624) rotate(85.3036) scale(1.90065)">
<stop stop-color="white"/>
<stop offset="1" stop-color="#FAFAFA"/>
</radialGradient>
<radialGradient id="paint5_radial_3029_21074" cx="0" cy="0" r="1" gradientUnits="userSpaceOnUse" gradientTransform="translate(0.991624 0.991624) rotate(85.3036) scale(1.90065)">
<stop stop-color="white"/>
<stop offset="1" stop-color="#FAFAFA"/>
</radialGradient>
<radialGradient id="paint6_radial_3029_21074" cx="0" cy="0" r="1" gradientUnits="userSpaceOnUse" gradientTransform="translate(0.991624 0.991624) rotate(85.3036) scale(1.90065)">
<stop stop-color="white"/>
<stop offset="1" stop-color="#FAFAFA"/>
</radialGradient>
<radialGradient id="paint7_radial_3029_21074" cx="0" cy="0" r="1" gradientUnits="userSpaceOnUse" gradientTransform="translate(0.991624 0.991624) rotate(85.3036) scale(1.90065)">
<stop stop-color="white"/>
<stop offset="1" stop-color="#FAFAFA"/>
</radialGradient>
<radialGradient id="paint8_radial_3029_21074" cx="0" cy="0" r="1" gradientUnits="userSpaceOnUse" gradientTransform="translate(0.991624 0.991624) rotate(85.3036) scale(1.90065)">
<stop stop-color="white"/>
<stop offset="1" stop-color="#FAFAFA"/>
</radialGradient>
<radialGradient id="paint9_radial_3029_21074" cx="0" cy="0" r="1" gradientUnits="userSpaceOnUse" gradientTransform="translate(0.991624 0.991624) rotate(85.3036) scale(1.90065)">
<stop stop-color="white"/>
<stop offset="1" stop-color="#FAFAFA"/>
</radialGradient>
<radialGradient id="paint10_radial_3029_21074" cx="0" cy="0" r="1" gradientUnits="userSpaceOnUse" gradientTransform="translate(0.991624 0.991624) rotate(85.3036) scale(1.90065)">
<stop stop-color="white"/>
<stop offset="1" stop-color="#FAFAFA"/>
</radialGradient>
<radialGradient id="paint11_radial_3029_21074" cx="0" cy="0" r="1" gradientUnits="userSpaceOnUse" gradientTransform="translate(0.991624 0.991624) rotate(85.3036) scale(1.90065)">
<stop stop-color="white"/>
<stop offset="1" stop-color="#FAFAFA"/>
</radialGradient>
<radialGradient id="paint12_radial_3029_21074" cx="0" cy="0" r="1" gradientUnits="userSpaceOnUse" gradientTransform="translate(0.991624 0.991624) rotate(85.3036) scale(1.90065)">
<stop stop-color="white"/>
<stop offset="1" stop-color="#FAFAFA"/>
</radialGradient>
<radialGradient id="paint13_radial_3029_21074" cx="0" cy="0" r="1" gradientUnits="userSpaceOnUse" gradientTransform="translate(0.991624 0.991624) rotate(85.3036) scale(1.90065)">
<stop stop-color="white"/>
<stop offset="1" stop-color="#FAFAFA"/>
</radialGradient>
<radialGradient id="paint14_radial_3029_21074" cx="0" cy="0" r="1" gradientUnits="userSpaceOnUse" gradientTransform="translate(0.991624 0.991624) rotate(85.3036) scale(1.90065)">
<stop stop-color="white"/>
<stop offset="1" stop-color="#FAFAFA"/>
</radialGradient>
<radialGradient id="paint15_radial_3029_21074" cx="0" cy="0" r="1" gradientUnits="userSpaceOnUse" gradientTransform="translate(0.991624 0.991624) rotate(85.3036) scale(1.90065)">
<stop stop-color="white"/>
<stop offset="1" stop-color="#FAFAFA"/>
</radialGradient>
<radialGradient id="paint16_radial_3029_21074" cx="0" cy="0" r="1" gradientUnits="userSpaceOnUse" gradientTransform="translate(0.991624 0.991624) rotate(85.3036) scale(1.90065)">
<stop stop-color="white"/>
<stop offset="1" stop-color="#FAFAFA"/>
</radialGradient>
<radialGradient id="paint17_radial_3029_21074" cx="0" cy="0" r="1" gradientUnits="userSpaceOnUse" gradientTransform="translate(0.991624 0.991624) rotate(85.3036) scale(1.90065)">
<stop stop-color="white"/>
<stop offset="1" stop-color="#FAFAFA"/>
</radialGradient>
<radialGradient id="paint18_radial_3029_21074" cx="0" cy="0" r="1" gradientUnits="userSpaceOnUse" gradientTransform="translate(0.991624 0.991624) rotate(85.3036) scale(1.90065)">
<stop stop-color="white"/>
<stop offset="1" stop-color="#FAFAFA"/>
</radialGradient>
<radialGradient id="paint19_radial_3029_21074" cx="0" cy="0" r="1" gradientUnits="userSpaceOnUse" gradientTransform="translate(0.991624 0.991624) rotate(85.3036) scale(1.90065)">
<stop stop-color="white"/>
<stop offset="1" stop-color="#FAFAFA"/>
</radialGradient>
<radialGradient id="paint20_radial_3029_21074" cx="0" cy="0" r="1" gradientUnits="userSpaceOnUse" gradientTransform="translate(0.991624 0.991624) rotate(85.3036) scale(1.90065)">
<stop stop-color="white"/>
<stop offset="1" stop-color="#FAFAFA"/>
</radialGradient>
<radialGradient id="paint21_radial_3029_21074" cx="0" cy="0" r="1" gradientUnits="userSpaceOnUse" gradientTransform="translate(0.991624 0.991624) rotate(85.3036) scale(1.90065)">
<stop stop-color="white"/>
<stop offset="1" stop-color="#FAFAFA"/>
</radialGradient>
<radialGradient id="paint22_radial_3029_21074" cx="0" cy="0" r="1" gradientUnits="userSpaceOnUse" gradientTransform="translate(0.991624 0.991624) rotate(85.3036) scale(1.90065)">
<stop stop-color="white"/>
<stop offset="1" stop-color="#FAFAFA"/>
</radialGradient>
<radialGradient id="paint23_radial_3029_21074" cx="0" cy="0" r="1" gradientUnits="userSpaceOnUse" gradientTransform="translate(0.991624 0.991624) rotate(85.3036) scale(1.90065)">
<stop stop-color="white"/>
<stop offset="1" stop-color="#FAFAFA"/>
</radialGradient>
<radialGradient id="paint24_radial_3029_21074" cx="0" cy="0" r="1" gradientUnits="userSpaceOnUse" gradientTransform="translate(0.991624 0.991624) rotate(85.3036) scale(1.90065)">
<stop stop-color="white"/>
<stop offset="1" stop-color="#FAFAFA"/>
</radialGradient>
<radialGradient id="paint25_radial_3029_21074" cx="0" cy="0" r="1" gradientUnits="userSpaceOnUse" gradientTransform="translate(0.991624 0.991624) rotate(85.3036) scale(1.90065)">
<stop stop-color="white"/>
<stop offset="1" stop-color="#FAFAFA"/>
</radialGradient>
<radialGradient id="paint26_radial_3029_21074" cx="0" cy="0" r="1" gradientUnits="userSpaceOnUse" gradientTransform="translate(0.991624 0.991624) rotate(85.3036) scale(1.90065)">
<stop stop-color="white"/>
<stop offset="1" stop-color="#FAFAFA"/>
</radialGradient>
</defs>
</svg>
