<svg width="38" height="53" viewBox="0 0 38 53" fill="none" xmlns="http://www.w3.org/2000/svg">
<rect width="2.04709" height="2.04709" rx="0.682365" transform="matrix(-0.895337 0.445389 0.446684 0.894692 28.043 28.0859)" fill="url(#paint0_radial_1102_21326)" fill-opacity="0.8"/>
<rect width="2.04709" height="2.04709" rx="0.682365" transform="matrix(-0.895337 0.445389 0.446684 0.894692 16.833 1)" fill="url(#paint1_radial_1102_21326)" fill-opacity="0.8"/>
<rect width="2.04709" height="2.04709" rx="0.682365" transform="matrix(-0.895337 0.445389 0.446684 0.894692 18.833 6)" fill="url(#paint2_radial_1102_21326)" fill-opacity="0.8"/>
<rect width="2.04709" height="2.04709" rx="0.682365" transform="matrix(-0.895337 0.445389 0.446684 0.894692 22.832 9)" fill="url(#paint3_radial_1102_21326)" fill-opacity="0.8"/>
<rect width="2.04709" height="2.04709" rx="0.682365" transform="matrix(-0.895337 0.445389 0.446684 0.894692 27.833 11)" fill="url(#paint4_radial_1102_21326)" fill-opacity="0.8"/>
<rect width="2.04709" height="2.04709" rx="0.682365" transform="matrix(-0.895337 0.445389 0.446684 0.894692 31.9219 14.4121)" fill="url(#paint5_radial_1102_21326)" fill-opacity="0.8"/>
<rect width="2.04709" height="2.04709" rx="0.682365" transform="matrix(-0.895337 0.445389 0.446684 0.894692 32.0488 19.1855)" fill="url(#paint6_radial_1102_21326)" fill-opacity="0.8"/>
<rect width="2.04709" height="2.04709" rx="0.682365" transform="matrix(-0.895337 0.445389 0.446684 0.894692 30.4912 23.7007)" fill="url(#paint7_radial_1102_21326)" fill-opacity="0.8"/>
<rect width="2.04709" height="2.04709" rx="0.682365" transform="matrix(-0.895337 0.445389 0.446684 0.894692 28.2012 27.8906)" fill="url(#paint8_radial_1102_21326)" fill-opacity="0.8"/>
<rect width="2.04709" height="2.04709" rx="0.682365" transform="matrix(-0.895337 0.445389 0.446684 0.894692 25.5186 31.8418)" fill="url(#paint9_radial_1102_21326)" fill-opacity="0.8"/>
<rect width="2.04709" height="2.04709" rx="0.682365" transform="matrix(-0.895337 0.445389 0.446684 0.894692 22.5859 35.6108)" fill="url(#paint10_radial_1102_21326)" fill-opacity="0.8"/>
<rect width="2.04709" height="2.04709" rx="0.682365" transform="matrix(-0.895337 0.445389 0.446684 0.894692 19.4746 39.2324)" fill="url(#paint11_radial_1102_21326)" fill-opacity="0.8"/>
<rect width="2.04709" height="2.04709" rx="0.682365" transform="matrix(-0.895337 0.445389 0.446684 0.894692 17.127 43.0264)" fill="url(#paint12_radial_1102_21326)" fill-opacity="0.8"/>
<rect width="2.04709" height="2.04709" rx="0.682365" transform="matrix(-0.895337 0.445389 0.446684 0.894692 14.3975 47.1187)" fill="url(#paint13_radial_1102_21326)" fill-opacity="0.8"/>
<defs>
<radialGradient id="paint0_radial_1102_21326" cx="0" cy="0" r="1" gradientUnits="userSpaceOnUse" gradientTransform="translate(1.02355 1.02355) rotate(85.3036) scale(1.96184)">
<stop stop-color="white"/>
<stop offset="1" stop-color="#FAFAFA"/>
</radialGradient>
<radialGradient id="paint1_radial_1102_21326" cx="0" cy="0" r="1" gradientUnits="userSpaceOnUse" gradientTransform="translate(1.02355 1.02355) rotate(85.3036) scale(1.96184)">
<stop stop-color="white"/>
<stop offset="1" stop-color="#FAFAFA"/>
</radialGradient>
<radialGradient id="paint2_radial_1102_21326" cx="0" cy="0" r="1" gradientUnits="userSpaceOnUse" gradientTransform="translate(1.02355 1.02355) rotate(85.3036) scale(1.96184)">
<stop stop-color="white"/>
<stop offset="1" stop-color="#FAFAFA"/>
</radialGradient>
<radialGradient id="paint3_radial_1102_21326" cx="0" cy="0" r="1" gradientUnits="userSpaceOnUse" gradientTransform="translate(1.02355 1.02355) rotate(85.3036) scale(1.96184)">
<stop stop-color="white"/>
<stop offset="1" stop-color="#FAFAFA"/>
</radialGradient>
<radialGradient id="paint4_radial_1102_21326" cx="0" cy="0" r="1" gradientUnits="userSpaceOnUse" gradientTransform="translate(1.02355 1.02355) rotate(85.3036) scale(1.96184)">
<stop stop-color="white"/>
<stop offset="1" stop-color="#FAFAFA"/>
</radialGradient>
<radialGradient id="paint5_radial_1102_21326" cx="0" cy="0" r="1" gradientUnits="userSpaceOnUse" gradientTransform="translate(1.02355 1.02355) rotate(85.3036) scale(1.96184)">
<stop stop-color="white"/>
<stop offset="1" stop-color="#FAFAFA"/>
</radialGradient>
<radialGradient id="paint6_radial_1102_21326" cx="0" cy="0" r="1" gradientUnits="userSpaceOnUse" gradientTransform="translate(1.02355 1.02355) rotate(85.3036) scale(1.96184)">
<stop stop-color="white"/>
<stop offset="1" stop-color="#FAFAFA"/>
</radialGradient>
<radialGradient id="paint7_radial_1102_21326" cx="0" cy="0" r="1" gradientUnits="userSpaceOnUse" gradientTransform="translate(1.02355 1.02355) rotate(85.3036) scale(1.96184)">
<stop stop-color="white"/>
<stop offset="1" stop-color="#FAFAFA"/>
</radialGradient>
<radialGradient id="paint8_radial_1102_21326" cx="0" cy="0" r="1" gradientUnits="userSpaceOnUse" gradientTransform="translate(1.02355 1.02355) rotate(85.3036) scale(1.96184)">
<stop stop-color="white"/>
<stop offset="1" stop-color="#FAFAFA"/>
</radialGradient>
<radialGradient id="paint9_radial_1102_21326" cx="0" cy="0" r="1" gradientUnits="userSpaceOnUse" gradientTransform="translate(1.02355 1.02355) rotate(85.3036) scale(1.96184)">
<stop stop-color="white"/>
<stop offset="1" stop-color="#FAFAFA"/>
</radialGradient>
<radialGradient id="paint10_radial_1102_21326" cx="0" cy="0" r="1" gradientUnits="userSpaceOnUse" gradientTransform="translate(1.02355 1.02355) rotate(85.3036) scale(1.96184)">
<stop stop-color="white"/>
<stop offset="1" stop-color="#FAFAFA"/>
</radialGradient>
<radialGradient id="paint11_radial_1102_21326" cx="0" cy="0" r="1" gradientUnits="userSpaceOnUse" gradientTransform="translate(1.02355 1.02355) rotate(85.3036) scale(1.96184)">
<stop stop-color="white"/>
<stop offset="1" stop-color="#FAFAFA"/>
</radialGradient>
<radialGradient id="paint12_radial_1102_21326" cx="0" cy="0" r="1" gradientUnits="userSpaceOnUse" gradientTransform="translate(1.02355 1.02355) rotate(85.3036) scale(1.96184)">
<stop stop-color="white"/>
<stop offset="1" stop-color="#FAFAFA"/>
</radialGradient>
<radialGradient id="paint13_radial_1102_21326" cx="0" cy="0" r="1" gradientUnits="userSpaceOnUse" gradientTransform="translate(1.02355 1.02355) rotate(85.3036) scale(1.96184)">
<stop stop-color="white"/>
<stop offset="1" stop-color="#FAFAFA"/>
</radialGradient>
</defs>
</svg>
