<svg width="122" height="88" viewBox="0 0 122 88" fill="none" xmlns="http://www.w3.org/2000/svg">
<rect width="3" height="3" rx="1" transform="matrix(-0.895337 0.445389 0.446684 0.894692 101.228 71.4346)" fill="url(#paint0_radial_1296_17571)" fill-opacity="0.8"/>
<rect width="3" height="3" rx="1" transform="matrix(-0.895337 0.445389 0.446684 0.894692 107.686 75)" fill="url(#paint1_radial_1296_17571)" fill-opacity="0.8"/>
<rect width="3" height="3" rx="1" transform="matrix(-0.895337 0.445389 0.446684 0.894692 113.686 79)" fill="url(#paint2_radial_1296_17571)" fill-opacity="0.8"/>
<rect width="3" height="3" rx="1" transform="matrix(-0.895337 0.445389 0.446684 0.894692 119.686 83)" fill="url(#paint3_radial_1296_17571)" fill-opacity="0.8"/>
<rect width="3" height="3" rx="1" transform="matrix(-0.895337 0.445389 0.446684 0.894692 96.0205 68.3394)" fill="url(#paint4_radial_1296_17571)" fill-opacity="0.8"/>
<rect width="3" height="3" rx="1" transform="matrix(-0.895337 0.445389 0.446684 0.894692 90.5889 65.2344)" fill="url(#paint5_radial_1296_17571)" fill-opacity="0.8"/>
<rect width="3" height="3" rx="1" transform="matrix(-0.895337 0.445389 0.446684 0.894692 85.1123 62.21)" fill="url(#paint6_radial_1296_17571)" fill-opacity="0.8"/>
<rect width="3" height="3" rx="1" transform="matrix(-0.895337 0.445389 0.446684 0.894692 79.5918 59.2656)" fill="url(#paint7_radial_1296_17571)" fill-opacity="0.8"/>
<rect width="3" height="3" rx="1" transform="matrix(-0.895337 0.445389 0.446684 0.894692 74.0264 56.4072)" fill="url(#paint8_radial_1296_17571)" fill-opacity="0.8"/>
<rect width="3" height="3" rx="1" transform="matrix(-0.895337 0.445389 0.446684 0.894692 68.4131 53.6431)" fill="url(#paint9_radial_1296_17571)" fill-opacity="0.8"/>
<rect width="3" height="3" rx="1" transform="matrix(-0.895337 0.445389 0.446684 0.894692 62.75 50.9849)" fill="url(#paint10_radial_1296_17571)" fill-opacity="0.8"/>
<rect width="3" height="3" rx="1" transform="matrix(-0.895337 0.445389 0.446684 0.894692 57.0303 48.4497)" fill="url(#paint11_radial_1296_17571)" fill-opacity="0.8"/>
<rect width="3" height="3" rx="1" transform="matrix(-0.895337 0.445389 0.446684 0.894692 51.248 46.0596)" fill="url(#paint12_radial_1296_17571)" fill-opacity="0.8"/>
<rect width="3" height="3" rx="1" transform="matrix(-0.895337 0.445389 0.446684 0.894692 45.3955 43.8472)" fill="url(#paint13_radial_1296_17571)" fill-opacity="0.8"/>
<rect width="3" height="3" rx="1" transform="matrix(-0.895337 0.445389 0.446684 0.894692 40.0596 42)" fill="url(#paint14_radial_1296_17571)" fill-opacity="0.8"/>
<rect width="3" height="3" rx="1" transform="matrix(-0.895337 0.445389 0.446684 0.894692 33.4395 40.1675)" fill="url(#paint15_radial_1296_17571)" fill-opacity="0.8"/>
<rect width="3" height="3" rx="1" transform="matrix(-0.895337 0.445389 0.446684 0.894692 27.3145 38.8916)" fill="url(#paint16_radial_1296_17571)" fill-opacity="0.8"/>
<rect width="3" height="3" rx="1" transform="matrix(-0.895337 0.445389 0.446684 0.894692 21.0918 38.2446)" fill="url(#paint17_radial_1296_17571)" fill-opacity="0.8"/>
<rect width="3" height="3" rx="1" transform="matrix(-0.895337 0.445389 0.446684 0.894692 14.8486 38.6572)" fill="url(#paint18_radial_1296_17571)" fill-opacity="0.8"/>
<rect width="3" height="3" rx="1" transform="matrix(-0.895337 0.445389 0.446684 0.894692 9.04492 40.9941)" fill="url(#paint19_radial_1296_17571)" fill-opacity="0.8"/>
<rect width="3" height="3" rx="1" transform="matrix(-0.895337 0.445389 0.446684 0.894692 5.06738 45.3975)" fill="url(#paint20_radial_1296_17571)" fill-opacity="0.8"/>
<rect width="3" height="3" rx="1" transform="matrix(-0.895337 0.445389 0.446684 0.894692 2.68555 51.1836)" fill="url(#paint21_radial_1296_17571)" fill-opacity="0.8"/>
<rect width="3" height="3" rx="1" transform="matrix(-0.895337 0.445389 0.446684 0.894692 3.0498 57.4292)" fill="url(#paint22_radial_1296_17571)" fill-opacity="0.8"/>
<rect width="3" height="3" rx="1" transform="matrix(-0.895337 0.445389 0.446684 0.894692 6.06445 62.9116)" fill="url(#paint23_radial_1296_17571)" fill-opacity="0.8"/>
<rect width="3" height="3" rx="1" transform="matrix(-0.895337 0.445389 0.446684 0.894692 10.7803 67.0239)" fill="url(#paint24_radial_1296_17571)" fill-opacity="0.8"/>
<rect width="3" height="3" rx="1" transform="matrix(-0.895337 0.445389 0.446684 0.894692 16.4795 69.605)" fill="url(#paint25_radial_1296_17571)" fill-opacity="0.8"/>
<rect width="3" height="3" rx="1" transform="matrix(-0.895337 0.445389 0.446684 0.894692 22.6816 70.4297)" fill="url(#paint26_radial_1296_17571)" fill-opacity="0.8"/>
<rect width="3" height="3" rx="1" transform="matrix(-0.895337 0.445389 0.446684 0.894692 28.8018 69.1309)" fill="url(#paint27_radial_1296_17571)" fill-opacity="0.8"/>
<rect width="3" height="3" rx="1" transform="matrix(-0.895337 0.445389 0.446684 0.894692 33.96 65.5913)" fill="url(#paint28_radial_1296_17571)" fill-opacity="0.8"/>
<rect width="3" height="3" rx="1" transform="matrix(-0.895337 0.445389 0.446684 0.894692 37.3984 60.5107)" fill="url(#paint29_radial_1296_17571)" fill-opacity="0.8"/>
<rect width="3" height="3" rx="1" transform="matrix(-0.895337 0.445389 0.446684 0.894692 39.2314 54.5288)" fill="url(#paint30_radial_1296_17571)" fill-opacity="0.8"/>
<rect width="3" height="3" rx="1" transform="matrix(-0.895337 0.445389 0.446684 0.894692 39.916 48.3096)" fill="url(#paint31_radial_1296_17571)" fill-opacity="0.8"/>
<rect width="3" height="3" rx="1" transform="matrix(-0.895337 0.445389 0.446684 0.894692 39.2695 35.8242)" fill="url(#paint32_radial_1296_17571)" fill-opacity="0.8"/>
<rect width="3" height="3" rx="1" transform="matrix(-0.895337 0.445389 0.446684 0.894692 38.3066 29.6421)" fill="url(#paint33_radial_1296_17571)" fill-opacity="0.8"/>
<rect width="3" height="3" rx="1" transform="matrix(-0.895337 0.445389 0.446684 0.894692 37.0479 23.5137)" fill="url(#paint34_radial_1296_17571)" fill-opacity="0.8"/>
<rect width="3" height="3" rx="1" transform="matrix(-0.895337 0.445389 0.446684 0.894692 35.5488 17.4395)" fill="url(#paint35_radial_1296_17571)" fill-opacity="0.8"/>
<rect width="3" height="3" rx="1" transform="matrix(-0.895337 0.445389 0.446684 0.894692 33.8447 11.4238)" fill="url(#paint36_radial_1296_17571)" fill-opacity="0.8"/>
<rect width="3" height="3" rx="1" transform="matrix(-0.895337 0.445389 0.446684 0.894692 31.0596 5)" fill="url(#paint37_radial_1296_17571)" fill-opacity="0.8"/>
<rect width="3" height="3" rx="1" transform="matrix(-0.895337 0.445389 0.446684 0.894692 27.0596 0)" fill="url(#paint38_radial_1296_17571)" fill-opacity="0.8"/>
<defs>
<radialGradient id="paint0_radial_1296_17571" cx="0" cy="0" r="1" gradientUnits="userSpaceOnUse" gradientTransform="translate(1.5 1.5) rotate(85.3036) scale(2.87506)">
<stop stop-color="white"/>
<stop offset="1" stop-color="#FAFAFA"/>
</radialGradient>
<radialGradient id="paint1_radial_1296_17571" cx="0" cy="0" r="1" gradientUnits="userSpaceOnUse" gradientTransform="translate(1.5 1.5) rotate(85.3036) scale(2.87506)">
<stop stop-color="white"/>
<stop offset="1" stop-color="#FAFAFA"/>
</radialGradient>
<radialGradient id="paint2_radial_1296_17571" cx="0" cy="0" r="1" gradientUnits="userSpaceOnUse" gradientTransform="translate(1.5 1.5) rotate(85.3036) scale(2.87506)">
<stop stop-color="white"/>
<stop offset="1" stop-color="#FAFAFA"/>
</radialGradient>
<radialGradient id="paint3_radial_1296_17571" cx="0" cy="0" r="1" gradientUnits="userSpaceOnUse" gradientTransform="translate(1.5 1.5) rotate(85.3036) scale(2.87506)">
<stop stop-color="white"/>
<stop offset="1" stop-color="#FAFAFA"/>
</radialGradient>
<radialGradient id="paint4_radial_1296_17571" cx="0" cy="0" r="1" gradientUnits="userSpaceOnUse" gradientTransform="translate(1.5 1.5) rotate(85.3036) scale(2.87506)">
<stop stop-color="white"/>
<stop offset="1" stop-color="#FAFAFA"/>
</radialGradient>
<radialGradient id="paint5_radial_1296_17571" cx="0" cy="0" r="1" gradientUnits="userSpaceOnUse" gradientTransform="translate(1.5 1.5) rotate(85.3036) scale(2.87506)">
<stop stop-color="white"/>
<stop offset="1" stop-color="#FAFAFA"/>
</radialGradient>
<radialGradient id="paint6_radial_1296_17571" cx="0" cy="0" r="1" gradientUnits="userSpaceOnUse" gradientTransform="translate(1.5 1.5) rotate(85.3036) scale(2.87506)">
<stop stop-color="white"/>
<stop offset="1" stop-color="#FAFAFA"/>
</radialGradient>
<radialGradient id="paint7_radial_1296_17571" cx="0" cy="0" r="1" gradientUnits="userSpaceOnUse" gradientTransform="translate(1.5 1.5) rotate(85.3036) scale(2.87506)">
<stop stop-color="white"/>
<stop offset="1" stop-color="#FAFAFA"/>
</radialGradient>
<radialGradient id="paint8_radial_1296_17571" cx="0" cy="0" r="1" gradientUnits="userSpaceOnUse" gradientTransform="translate(1.5 1.5) rotate(85.3036) scale(2.87506)">
<stop stop-color="white"/>
<stop offset="1" stop-color="#FAFAFA"/>
</radialGradient>
<radialGradient id="paint9_radial_1296_17571" cx="0" cy="0" r="1" gradientUnits="userSpaceOnUse" gradientTransform="translate(1.5 1.5) rotate(85.3036) scale(2.87506)">
<stop stop-color="white"/>
<stop offset="1" stop-color="#FAFAFA"/>
</radialGradient>
<radialGradient id="paint10_radial_1296_17571" cx="0" cy="0" r="1" gradientUnits="userSpaceOnUse" gradientTransform="translate(1.5 1.5) rotate(85.3036) scale(2.87506)">
<stop stop-color="white"/>
<stop offset="1" stop-color="#FAFAFA"/>
</radialGradient>
<radialGradient id="paint11_radial_1296_17571" cx="0" cy="0" r="1" gradientUnits="userSpaceOnUse" gradientTransform="translate(1.5 1.5) rotate(85.3036) scale(2.87506)">
<stop stop-color="white"/>
<stop offset="1" stop-color="#FAFAFA"/>
</radialGradient>
<radialGradient id="paint12_radial_1296_17571" cx="0" cy="0" r="1" gradientUnits="userSpaceOnUse" gradientTransform="translate(1.5 1.5) rotate(85.3036) scale(2.87506)">
<stop stop-color="white"/>
<stop offset="1" stop-color="#FAFAFA"/>
</radialGradient>
<radialGradient id="paint13_radial_1296_17571" cx="0" cy="0" r="1" gradientUnits="userSpaceOnUse" gradientTransform="translate(1.5 1.5) rotate(85.3036) scale(2.87506)">
<stop stop-color="white"/>
<stop offset="1" stop-color="#FAFAFA"/>
</radialGradient>
<radialGradient id="paint14_radial_1296_17571" cx="0" cy="0" r="1" gradientUnits="userSpaceOnUse" gradientTransform="translate(1.5 1.5) rotate(85.3036) scale(2.87506)">
<stop stop-color="white"/>
<stop offset="1" stop-color="#FAFAFA"/>
</radialGradient>
<radialGradient id="paint15_radial_1296_17571" cx="0" cy="0" r="1" gradientUnits="userSpaceOnUse" gradientTransform="translate(1.5 1.5) rotate(85.3036) scale(2.87506)">
<stop stop-color="white"/>
<stop offset="1" stop-color="#FAFAFA"/>
</radialGradient>
<radialGradient id="paint16_radial_1296_17571" cx="0" cy="0" r="1" gradientUnits="userSpaceOnUse" gradientTransform="translate(1.5 1.5) rotate(85.3036) scale(2.87506)">
<stop stop-color="white"/>
<stop offset="1" stop-color="#FAFAFA"/>
</radialGradient>
<radialGradient id="paint17_radial_1296_17571" cx="0" cy="0" r="1" gradientUnits="userSpaceOnUse" gradientTransform="translate(1.5 1.5) rotate(85.3036) scale(2.87506)">
<stop stop-color="white"/>
<stop offset="1" stop-color="#FAFAFA"/>
</radialGradient>
<radialGradient id="paint18_radial_1296_17571" cx="0" cy="0" r="1" gradientUnits="userSpaceOnUse" gradientTransform="translate(1.5 1.5) rotate(85.3036) scale(2.87506)">
<stop stop-color="white"/>
<stop offset="1" stop-color="#FAFAFA"/>
</radialGradient>
<radialGradient id="paint19_radial_1296_17571" cx="0" cy="0" r="1" gradientUnits="userSpaceOnUse" gradientTransform="translate(1.5 1.5) rotate(85.3036) scale(2.87506)">
<stop stop-color="white"/>
<stop offset="1" stop-color="#FAFAFA"/>
</radialGradient>
<radialGradient id="paint20_radial_1296_17571" cx="0" cy="0" r="1" gradientUnits="userSpaceOnUse" gradientTransform="translate(1.5 1.5) rotate(85.3036) scale(2.87506)">
<stop stop-color="white"/>
<stop offset="1" stop-color="#FAFAFA"/>
</radialGradient>
<radialGradient id="paint21_radial_1296_17571" cx="0" cy="0" r="1" gradientUnits="userSpaceOnUse" gradientTransform="translate(1.5 1.5) rotate(85.3036) scale(2.87506)">
<stop stop-color="white"/>
<stop offset="1" stop-color="#FAFAFA"/>
</radialGradient>
<radialGradient id="paint22_radial_1296_17571" cx="0" cy="0" r="1" gradientUnits="userSpaceOnUse" gradientTransform="translate(1.5 1.5) rotate(85.3036) scale(2.87506)">
<stop stop-color="white"/>
<stop offset="1" stop-color="#FAFAFA"/>
</radialGradient>
<radialGradient id="paint23_radial_1296_17571" cx="0" cy="0" r="1" gradientUnits="userSpaceOnUse" gradientTransform="translate(1.5 1.5) rotate(85.3036) scale(2.87506)">
<stop stop-color="white"/>
<stop offset="1" stop-color="#FAFAFA"/>
</radialGradient>
<radialGradient id="paint24_radial_1296_17571" cx="0" cy="0" r="1" gradientUnits="userSpaceOnUse" gradientTransform="translate(1.5 1.5) rotate(85.3036) scale(2.87506)">
<stop stop-color="white"/>
<stop offset="1" stop-color="#FAFAFA"/>
</radialGradient>
<radialGradient id="paint25_radial_1296_17571" cx="0" cy="0" r="1" gradientUnits="userSpaceOnUse" gradientTransform="translate(1.5 1.5) rotate(85.3036) scale(2.87506)">
<stop stop-color="white"/>
<stop offset="1" stop-color="#FAFAFA"/>
</radialGradient>
<radialGradient id="paint26_radial_1296_17571" cx="0" cy="0" r="1" gradientUnits="userSpaceOnUse" gradientTransform="translate(1.5 1.5) rotate(85.3036) scale(2.87506)">
<stop stop-color="white"/>
<stop offset="1" stop-color="#FAFAFA"/>
</radialGradient>
<radialGradient id="paint27_radial_1296_17571" cx="0" cy="0" r="1" gradientUnits="userSpaceOnUse" gradientTransform="translate(1.5 1.5) rotate(85.3036) scale(2.87506)">
<stop stop-color="white"/>
<stop offset="1" stop-color="#FAFAFA"/>
</radialGradient>
<radialGradient id="paint28_radial_1296_17571" cx="0" cy="0" r="1" gradientUnits="userSpaceOnUse" gradientTransform="translate(1.5 1.5) rotate(85.3036) scale(2.87506)">
<stop stop-color="white"/>
<stop offset="1" stop-color="#FAFAFA"/>
</radialGradient>
<radialGradient id="paint29_radial_1296_17571" cx="0" cy="0" r="1" gradientUnits="userSpaceOnUse" gradientTransform="translate(1.5 1.5) rotate(85.3036) scale(2.87506)">
<stop stop-color="white"/>
<stop offset="1" stop-color="#FAFAFA"/>
</radialGradient>
<radialGradient id="paint30_radial_1296_17571" cx="0" cy="0" r="1" gradientUnits="userSpaceOnUse" gradientTransform="translate(1.5 1.5) rotate(85.3036) scale(2.87506)">
<stop stop-color="white"/>
<stop offset="1" stop-color="#FAFAFA"/>
</radialGradient>
<radialGradient id="paint31_radial_1296_17571" cx="0" cy="0" r="1" gradientUnits="userSpaceOnUse" gradientTransform="translate(1.5 1.5) rotate(85.3036) scale(2.87506)">
<stop stop-color="white"/>
<stop offset="1" stop-color="#FAFAFA"/>
</radialGradient>
<radialGradient id="paint32_radial_1296_17571" cx="0" cy="0" r="1" gradientUnits="userSpaceOnUse" gradientTransform="translate(1.5 1.5) rotate(85.3036) scale(2.87506)">
<stop stop-color="white"/>
<stop offset="1" stop-color="#FAFAFA"/>
</radialGradient>
<radialGradient id="paint33_radial_1296_17571" cx="0" cy="0" r="1" gradientUnits="userSpaceOnUse" gradientTransform="translate(1.5 1.5) rotate(85.3036) scale(2.87506)">
<stop stop-color="white"/>
<stop offset="1" stop-color="#FAFAFA"/>
</radialGradient>
<radialGradient id="paint34_radial_1296_17571" cx="0" cy="0" r="1" gradientUnits="userSpaceOnUse" gradientTransform="translate(1.5 1.5) rotate(85.3036) scale(2.87506)">
<stop stop-color="white"/>
<stop offset="1" stop-color="#FAFAFA"/>
</radialGradient>
<radialGradient id="paint35_radial_1296_17571" cx="0" cy="0" r="1" gradientUnits="userSpaceOnUse" gradientTransform="translate(1.5 1.5) rotate(85.3036) scale(2.87506)">
<stop stop-color="white"/>
<stop offset="1" stop-color="#FAFAFA"/>
</radialGradient>
<radialGradient id="paint36_radial_1296_17571" cx="0" cy="0" r="1" gradientUnits="userSpaceOnUse" gradientTransform="translate(1.5 1.5) rotate(85.3036) scale(2.87506)">
<stop stop-color="white"/>
<stop offset="1" stop-color="#FAFAFA"/>
</radialGradient>
<radialGradient id="paint37_radial_1296_17571" cx="0" cy="0" r="1" gradientUnits="userSpaceOnUse" gradientTransform="translate(1.5 1.5) rotate(85.3036) scale(2.87506)">
<stop stop-color="white"/>
<stop offset="1" stop-color="#FAFAFA"/>
</radialGradient>
<radialGradient id="paint38_radial_1296_17571" cx="0" cy="0" r="1" gradientUnits="userSpaceOnUse" gradientTransform="translate(1.5 1.5) rotate(85.3036) scale(2.87506)">
<stop stop-color="white"/>
<stop offset="1" stop-color="#FAFAFA"/>
</radialGradient>
</defs>
</svg>
