<svg width="104" height="76" viewBox="0 0 104 76" fill="none" xmlns="http://www.w3.org/2000/svg">
<rect width="3" height="3" rx="1" transform="matrix(-0.895337 0.445389 0.446684 0.894692 101.854 71.4346)" fill="url(#paint0_radial_1102_2545)" fill-opacity="0.8"/>
<rect width="3" height="3" rx="1" transform="matrix(-0.895337 0.445389 0.446684 0.894692 96.647 68.3394)" fill="url(#paint1_radial_1102_2545)" fill-opacity="0.8"/>
<rect width="3" height="3" rx="1" transform="matrix(-0.895337 0.445389 0.446684 0.894692 91.2153 65.2344)" fill="url(#paint2_radial_1102_2545)" fill-opacity="0.8"/>
<rect width="3" height="3" rx="1" transform="matrix(-0.895337 0.445389 0.446684 0.894692 85.7388 62.21)" fill="url(#paint3_radial_1102_2545)" fill-opacity="0.8"/>
<rect width="3" height="3" rx="1" transform="matrix(-0.895337 0.445389 0.446684 0.894692 80.2183 59.2656)" fill="url(#paint4_radial_1102_2545)" fill-opacity="0.8"/>
<rect width="3" height="3" rx="1" transform="matrix(-0.895337 0.445389 0.446684 0.894692 74.6528 56.4072)" fill="url(#paint5_radial_1102_2545)" fill-opacity="0.8"/>
<rect width="3" height="3" rx="1" transform="matrix(-0.895337 0.445389 0.446684 0.894692 69.04 53.6431)" fill="url(#paint6_radial_1102_2545)" fill-opacity="0.8"/>
<rect width="3" height="3" rx="1" transform="matrix(-0.895337 0.445389 0.446684 0.894692 63.376 50.9849)" fill="url(#paint7_radial_1102_2545)" fill-opacity="0.8"/>
<rect width="3" height="3" rx="1" transform="matrix(-0.895337 0.445389 0.446684 0.894692 57.6562 48.4497)" fill="url(#paint8_radial_1102_2545)" fill-opacity="0.8"/>
<rect width="3" height="3" rx="1" transform="matrix(-0.895337 0.445389 0.446684 0.894692 51.8745 46.0596)" fill="url(#paint9_radial_1102_2545)" fill-opacity="0.8"/>
<rect width="3" height="3" rx="1" transform="matrix(-0.895337 0.445389 0.446684 0.894692 46.022 43.8472)" fill="url(#paint10_radial_1102_2545)" fill-opacity="0.8"/>
<rect width="3" height="3" rx="1" transform="matrix(-0.895337 0.445389 0.446684 0.894692 40.686 42)" fill="url(#paint11_radial_1102_2545)" fill-opacity="0.8"/>
<rect width="3" height="3" rx="1" transform="matrix(-0.895337 0.445389 0.446684 0.894692 34.0664 40.1675)" fill="url(#paint12_radial_1102_2545)" fill-opacity="0.8"/>
<rect width="3" height="3" rx="1" transform="matrix(-0.895337 0.445389 0.446684 0.894692 27.9414 38.8916)" fill="url(#paint13_radial_1102_2545)" fill-opacity="0.8"/>
<rect width="3" height="3" rx="1" transform="matrix(-0.895337 0.445389 0.446684 0.894692 21.7183 38.2446)" fill="url(#paint14_radial_1102_2545)" fill-opacity="0.8"/>
<rect width="3" height="3" rx="1" transform="matrix(-0.895337 0.445389 0.446684 0.894692 15.4751 38.6572)" fill="url(#paint15_radial_1102_2545)" fill-opacity="0.8"/>
<rect width="3" height="3" rx="1" transform="matrix(-0.895337 0.445389 0.446684 0.894692 9.67139 40.9941)" fill="url(#paint16_radial_1102_2545)" fill-opacity="0.8"/>
<rect width="3" height="3" rx="1" transform="matrix(-0.895337 0.445389 0.446684 0.894692 5.69336 45.3975)" fill="url(#paint17_radial_1102_2545)" fill-opacity="0.8"/>
<rect width="3" height="3" rx="1" transform="matrix(-0.895337 0.445389 0.446684 0.894692 3.3125 51.1836)" fill="url(#paint18_radial_1102_2545)" fill-opacity="0.8"/>
<rect width="3" height="3" rx="1" transform="matrix(-0.895337 0.445389 0.446684 0.894692 3.67627 57.4292)" fill="url(#paint19_radial_1102_2545)" fill-opacity="0.8"/>
<rect width="3" height="3" rx="1" transform="matrix(-0.895337 0.445389 0.446684 0.894692 6.69141 62.9116)" fill="url(#paint20_radial_1102_2545)" fill-opacity="0.8"/>
<rect width="3" height="3" rx="1" transform="matrix(-0.895337 0.445389 0.446684 0.894692 11.4062 67.0239)" fill="url(#paint21_radial_1102_2545)" fill-opacity="0.8"/>
<rect width="3" height="3" rx="1" transform="matrix(-0.895337 0.445389 0.446684 0.894692 17.1055 69.605)" fill="url(#paint22_radial_1102_2545)" fill-opacity="0.8"/>
<rect width="3" height="3" rx="1" transform="matrix(-0.895337 0.445389 0.446684 0.894692 23.3076 70.4297)" fill="url(#paint23_radial_1102_2545)" fill-opacity="0.8"/>
<rect width="3" height="3" rx="1" transform="matrix(-0.895337 0.445389 0.446684 0.894692 29.4277 69.1309)" fill="url(#paint24_radial_1102_2545)" fill-opacity="0.8"/>
<rect width="3" height="3" rx="1" transform="matrix(-0.895337 0.445389 0.446684 0.894692 34.5869 65.5913)" fill="url(#paint25_radial_1102_2545)" fill-opacity="0.8"/>
<rect width="3" height="3" rx="1" transform="matrix(-0.895337 0.445389 0.446684 0.894692 38.0249 60.5107)" fill="url(#paint26_radial_1102_2545)" fill-opacity="0.8"/>
<rect width="3" height="3" rx="1" transform="matrix(-0.895337 0.445389 0.446684 0.894692 39.8579 54.5288)" fill="url(#paint27_radial_1102_2545)" fill-opacity="0.8"/>
<rect width="3" height="3" rx="1" transform="matrix(-0.895337 0.445389 0.446684 0.894692 40.543 48.3096)" fill="url(#paint28_radial_1102_2545)" fill-opacity="0.8"/>
<rect width="3" height="3" rx="1" transform="matrix(-0.895337 0.445389 0.446684 0.894692 39.896 35.8242)" fill="url(#paint29_radial_1102_2545)" fill-opacity="0.8"/>
<rect width="3" height="3" rx="1" transform="matrix(-0.895337 0.445389 0.446684 0.894692 38.9331 29.6421)" fill="url(#paint30_radial_1102_2545)" fill-opacity="0.8"/>
<rect width="3" height="3" rx="1" transform="matrix(-0.895337 0.445389 0.446684 0.894692 37.6748 23.5137)" fill="url(#paint31_radial_1102_2545)" fill-opacity="0.8"/>
<rect width="3" height="3" rx="1" transform="matrix(-0.895337 0.445389 0.446684 0.894692 36.1753 17.4395)" fill="url(#paint32_radial_1102_2545)" fill-opacity="0.8"/>
<rect width="3" height="3" rx="1" transform="matrix(-0.895337 0.445389 0.446684 0.894692 34.4717 11.4238)" fill="url(#paint33_radial_1102_2545)" fill-opacity="0.8"/>
<rect width="3" height="3" rx="1" transform="matrix(-0.895337 0.445389 0.446684 0.894692 31.686 5)" fill="url(#paint34_radial_1102_2545)" fill-opacity="0.8"/>
<rect width="3" height="3" rx="1" transform="matrix(-0.895337 0.445389 0.446684 0.894692 27.686 0)" fill="url(#paint35_radial_1102_2545)" fill-opacity="0.8"/>
<defs>
<radialGradient id="paint0_radial_1102_2545" cx="0" cy="0" r="1" gradientUnits="userSpaceOnUse" gradientTransform="translate(1.5 1.5) rotate(85.3036) scale(2.87506)">
<stop stop-color="white"/>
<stop offset="1" stop-color="#FAFAFA"/>
</radialGradient>
<radialGradient id="paint1_radial_1102_2545" cx="0" cy="0" r="1" gradientUnits="userSpaceOnUse" gradientTransform="translate(1.5 1.5) rotate(85.3036) scale(2.87506)">
<stop stop-color="white"/>
<stop offset="1" stop-color="#FAFAFA"/>
</radialGradient>
<radialGradient id="paint2_radial_1102_2545" cx="0" cy="0" r="1" gradientUnits="userSpaceOnUse" gradientTransform="translate(1.5 1.5) rotate(85.3036) scale(2.87506)">
<stop stop-color="white"/>
<stop offset="1" stop-color="#FAFAFA"/>
</radialGradient>
<radialGradient id="paint3_radial_1102_2545" cx="0" cy="0" r="1" gradientUnits="userSpaceOnUse" gradientTransform="translate(1.5 1.5) rotate(85.3036) scale(2.87506)">
<stop stop-color="white"/>
<stop offset="1" stop-color="#FAFAFA"/>
</radialGradient>
<radialGradient id="paint4_radial_1102_2545" cx="0" cy="0" r="1" gradientUnits="userSpaceOnUse" gradientTransform="translate(1.5 1.5) rotate(85.3036) scale(2.87506)">
<stop stop-color="white"/>
<stop offset="1" stop-color="#FAFAFA"/>
</radialGradient>
<radialGradient id="paint5_radial_1102_2545" cx="0" cy="0" r="1" gradientUnits="userSpaceOnUse" gradientTransform="translate(1.5 1.5) rotate(85.3036) scale(2.87506)">
<stop stop-color="white"/>
<stop offset="1" stop-color="#FAFAFA"/>
</radialGradient>
<radialGradient id="paint6_radial_1102_2545" cx="0" cy="0" r="1" gradientUnits="userSpaceOnUse" gradientTransform="translate(1.5 1.5) rotate(85.3036) scale(2.87506)">
<stop stop-color="white"/>
<stop offset="1" stop-color="#FAFAFA"/>
</radialGradient>
<radialGradient id="paint7_radial_1102_2545" cx="0" cy="0" r="1" gradientUnits="userSpaceOnUse" gradientTransform="translate(1.5 1.5) rotate(85.3036) scale(2.87506)">
<stop stop-color="white"/>
<stop offset="1" stop-color="#FAFAFA"/>
</radialGradient>
<radialGradient id="paint8_radial_1102_2545" cx="0" cy="0" r="1" gradientUnits="userSpaceOnUse" gradientTransform="translate(1.5 1.5) rotate(85.3036) scale(2.87506)">
<stop stop-color="white"/>
<stop offset="1" stop-color="#FAFAFA"/>
</radialGradient>
<radialGradient id="paint9_radial_1102_2545" cx="0" cy="0" r="1" gradientUnits="userSpaceOnUse" gradientTransform="translate(1.5 1.5) rotate(85.3036) scale(2.87506)">
<stop stop-color="white"/>
<stop offset="1" stop-color="#FAFAFA"/>
</radialGradient>
<radialGradient id="paint10_radial_1102_2545" cx="0" cy="0" r="1" gradientUnits="userSpaceOnUse" gradientTransform="translate(1.5 1.5) rotate(85.3036) scale(2.87506)">
<stop stop-color="white"/>
<stop offset="1" stop-color="#FAFAFA"/>
</radialGradient>
<radialGradient id="paint11_radial_1102_2545" cx="0" cy="0" r="1" gradientUnits="userSpaceOnUse" gradientTransform="translate(1.5 1.5) rotate(85.3036) scale(2.87506)">
<stop stop-color="white"/>
<stop offset="1" stop-color="#FAFAFA"/>
</radialGradient>
<radialGradient id="paint12_radial_1102_2545" cx="0" cy="0" r="1" gradientUnits="userSpaceOnUse" gradientTransform="translate(1.5 1.5) rotate(85.3036) scale(2.87506)">
<stop stop-color="white"/>
<stop offset="1" stop-color="#FAFAFA"/>
</radialGradient>
<radialGradient id="paint13_radial_1102_2545" cx="0" cy="0" r="1" gradientUnits="userSpaceOnUse" gradientTransform="translate(1.5 1.5) rotate(85.3036) scale(2.87506)">
<stop stop-color="white"/>
<stop offset="1" stop-color="#FAFAFA"/>
</radialGradient>
<radialGradient id="paint14_radial_1102_2545" cx="0" cy="0" r="1" gradientUnits="userSpaceOnUse" gradientTransform="translate(1.5 1.5) rotate(85.3036) scale(2.87506)">
<stop stop-color="white"/>
<stop offset="1" stop-color="#FAFAFA"/>
</radialGradient>
<radialGradient id="paint15_radial_1102_2545" cx="0" cy="0" r="1" gradientUnits="userSpaceOnUse" gradientTransform="translate(1.5 1.5) rotate(85.3036) scale(2.87506)">
<stop stop-color="white"/>
<stop offset="1" stop-color="#FAFAFA"/>
</radialGradient>
<radialGradient id="paint16_radial_1102_2545" cx="0" cy="0" r="1" gradientUnits="userSpaceOnUse" gradientTransform="translate(1.5 1.5) rotate(85.3036) scale(2.87506)">
<stop stop-color="white"/>
<stop offset="1" stop-color="#FAFAFA"/>
</radialGradient>
<radialGradient id="paint17_radial_1102_2545" cx="0" cy="0" r="1" gradientUnits="userSpaceOnUse" gradientTransform="translate(1.5 1.5) rotate(85.3036) scale(2.87506)">
<stop stop-color="white"/>
<stop offset="1" stop-color="#FAFAFA"/>
</radialGradient>
<radialGradient id="paint18_radial_1102_2545" cx="0" cy="0" r="1" gradientUnits="userSpaceOnUse" gradientTransform="translate(1.5 1.5) rotate(85.3036) scale(2.87506)">
<stop stop-color="white"/>
<stop offset="1" stop-color="#FAFAFA"/>
</radialGradient>
<radialGradient id="paint19_radial_1102_2545" cx="0" cy="0" r="1" gradientUnits="userSpaceOnUse" gradientTransform="translate(1.5 1.5) rotate(85.3036) scale(2.87506)">
<stop stop-color="white"/>
<stop offset="1" stop-color="#FAFAFA"/>
</radialGradient>
<radialGradient id="paint20_radial_1102_2545" cx="0" cy="0" r="1" gradientUnits="userSpaceOnUse" gradientTransform="translate(1.5 1.5) rotate(85.3036) scale(2.87506)">
<stop stop-color="white"/>
<stop offset="1" stop-color="#FAFAFA"/>
</radialGradient>
<radialGradient id="paint21_radial_1102_2545" cx="0" cy="0" r="1" gradientUnits="userSpaceOnUse" gradientTransform="translate(1.5 1.5) rotate(85.3036) scale(2.87506)">
<stop stop-color="white"/>
<stop offset="1" stop-color="#FAFAFA"/>
</radialGradient>
<radialGradient id="paint22_radial_1102_2545" cx="0" cy="0" r="1" gradientUnits="userSpaceOnUse" gradientTransform="translate(1.5 1.5) rotate(85.3036) scale(2.87506)">
<stop stop-color="white"/>
<stop offset="1" stop-color="#FAFAFA"/>
</radialGradient>
<radialGradient id="paint23_radial_1102_2545" cx="0" cy="0" r="1" gradientUnits="userSpaceOnUse" gradientTransform="translate(1.5 1.5) rotate(85.3036) scale(2.87506)">
<stop stop-color="white"/>
<stop offset="1" stop-color="#FAFAFA"/>
</radialGradient>
<radialGradient id="paint24_radial_1102_2545" cx="0" cy="0" r="1" gradientUnits="userSpaceOnUse" gradientTransform="translate(1.5 1.5) rotate(85.3036) scale(2.87506)">
<stop stop-color="white"/>
<stop offset="1" stop-color="#FAFAFA"/>
</radialGradient>
<radialGradient id="paint25_radial_1102_2545" cx="0" cy="0" r="1" gradientUnits="userSpaceOnUse" gradientTransform="translate(1.5 1.5) rotate(85.3036) scale(2.87506)">
<stop stop-color="white"/>
<stop offset="1" stop-color="#FAFAFA"/>
</radialGradient>
<radialGradient id="paint26_radial_1102_2545" cx="0" cy="0" r="1" gradientUnits="userSpaceOnUse" gradientTransform="translate(1.5 1.5) rotate(85.3036) scale(2.87506)">
<stop stop-color="white"/>
<stop offset="1" stop-color="#FAFAFA"/>
</radialGradient>
<radialGradient id="paint27_radial_1102_2545" cx="0" cy="0" r="1" gradientUnits="userSpaceOnUse" gradientTransform="translate(1.5 1.5) rotate(85.3036) scale(2.87506)">
<stop stop-color="white"/>
<stop offset="1" stop-color="#FAFAFA"/>
</radialGradient>
<radialGradient id="paint28_radial_1102_2545" cx="0" cy="0" r="1" gradientUnits="userSpaceOnUse" gradientTransform="translate(1.5 1.5) rotate(85.3036) scale(2.87506)">
<stop stop-color="white"/>
<stop offset="1" stop-color="#FAFAFA"/>
</radialGradient>
<radialGradient id="paint29_radial_1102_2545" cx="0" cy="0" r="1" gradientUnits="userSpaceOnUse" gradientTransform="translate(1.5 1.5) rotate(85.3036) scale(2.87506)">
<stop stop-color="white"/>
<stop offset="1" stop-color="#FAFAFA"/>
</radialGradient>
<radialGradient id="paint30_radial_1102_2545" cx="0" cy="0" r="1" gradientUnits="userSpaceOnUse" gradientTransform="translate(1.5 1.5) rotate(85.3036) scale(2.87506)">
<stop stop-color="white"/>
<stop offset="1" stop-color="#FAFAFA"/>
</radialGradient>
<radialGradient id="paint31_radial_1102_2545" cx="0" cy="0" r="1" gradientUnits="userSpaceOnUse" gradientTransform="translate(1.5 1.5) rotate(85.3036) scale(2.87506)">
<stop stop-color="white"/>
<stop offset="1" stop-color="#FAFAFA"/>
</radialGradient>
<radialGradient id="paint32_radial_1102_2545" cx="0" cy="0" r="1" gradientUnits="userSpaceOnUse" gradientTransform="translate(1.5 1.5) rotate(85.3036) scale(2.87506)">
<stop stop-color="white"/>
<stop offset="1" stop-color="#FAFAFA"/>
</radialGradient>
<radialGradient id="paint33_radial_1102_2545" cx="0" cy="0" r="1" gradientUnits="userSpaceOnUse" gradientTransform="translate(1.5 1.5) rotate(85.3036) scale(2.87506)">
<stop stop-color="white"/>
<stop offset="1" stop-color="#FAFAFA"/>
</radialGradient>
<radialGradient id="paint34_radial_1102_2545" cx="0" cy="0" r="1" gradientUnits="userSpaceOnUse" gradientTransform="translate(1.5 1.5) rotate(85.3036) scale(2.87506)">
<stop stop-color="white"/>
<stop offset="1" stop-color="#FAFAFA"/>
</radialGradient>
<radialGradient id="paint35_radial_1102_2545" cx="0" cy="0" r="1" gradientUnits="userSpaceOnUse" gradientTransform="translate(1.5 1.5) rotate(85.3036) scale(2.87506)">
<stop stop-color="white"/>
<stop offset="1" stop-color="#FAFAFA"/>
</radialGradient>
</defs>
</svg>
