<svg width="61" height="20" viewBox="0 0 61 20" fill="none" xmlns="http://www.w3.org/2000/svg">
<path d="M8.43457 5.98193V8.19579H5.14719V15.3381C5.14719 15.9882 5.26254 16.4538 5.49323 16.7349C5.7404 16.9985 6.11116 17.1391 6.6055 17.1566C7.09984 17.1566 7.70953 17.1391 8.43457 17.1039V19.1596C6.53959 19.4232 5.15543 19.2563 4.28209 18.6589C3.42523 18.0615 2.9968 16.9546 2.9968 15.3381V8.19579H0.549805V5.98193H2.9968V2.97741L5.14719 2.29217V5.98193H8.43457Z" fill="#3E3E3E"/>
<path d="M12.068 3.58358C11.656 3.58358 11.31 3.43424 11.0299 3.13554C10.7497 2.83685 10.6097 2.47666 10.6097 2.05497C10.6097 1.63328 10.7497 1.27309 11.0299 0.974396C11.31 0.658132 11.656 0.5 12.068 0.5C12.4635 0.5 12.8013 0.658132 13.0814 0.974396C13.3615 1.27309 13.5016 1.63328 13.5016 2.05497C13.5016 2.47666 13.3615 2.83685 13.0814 3.13554C12.8013 3.43424 12.4635 3.58358 12.068 3.58358ZM13.1308 19.1596H10.9804V5.98193H13.1308V19.1596Z" fill="#3E3E3E"/>
<path d="M22.566 5.63931C24.0161 5.63931 25.1778 6.13128 26.0511 7.11521C26.9245 8.08158 27.3611 9.39935 27.3611 11.0685V19.1596H25.2107V11.2003C25.2107 10.1461 24.9389 9.32028 24.3951 8.72289C23.8513 8.1255 23.1015 7.82681 22.1458 7.82681C21.0418 7.82681 20.1684 8.19579 19.5258 8.93374C18.8832 9.65412 18.5618 10.7347 18.5618 12.1755V19.1596H16.4114V5.98193H18.5618V7.87952C19.4187 6.38605 20.7534 5.63931 22.566 5.63931Z" fill="#3E3E3E"/>
<path d="M34.9645 16.7086L38.8451 5.98193H41.1685L36.2251 19.1596H33.704L28.7605 5.98193H31.084L34.9645 16.7086Z" fill="#3E3E3E"/>
<path d="M44.0747 3.58358C43.6628 3.58358 43.3167 3.43424 43.0366 3.13554C42.7565 2.83685 42.6164 2.47666 42.6164 2.05497C42.6164 1.63328 42.7565 1.27309 43.0366 0.974396C43.3167 0.658132 43.6628 0.5 44.0747 0.5C44.4702 0.5 44.808 0.658132 45.0881 0.974396C45.3683 1.27309 45.5083 1.63328 45.5083 2.05497C45.5083 2.47666 45.3683 2.83685 45.0881 3.13554C44.808 3.43424 44.4702 3.58358 44.0747 3.58358ZM45.1376 19.1596H42.9872V5.98193H45.1376V19.1596Z" fill="#3E3E3E"/>
<path d="M58.8488 17.4993C57.5965 18.8346 56.0558 19.5023 54.2267 19.5023C52.3977 19.5023 50.857 18.8346 49.6046 17.4993C48.3523 16.1639 47.7261 14.5211 47.7261 12.5708C47.7261 10.6205 48.3523 8.97766 49.6046 7.64232C50.857 6.30698 52.3977 5.63931 54.2267 5.63931C56.0558 5.63931 57.5965 6.30698 58.8488 7.64232C60.1176 8.99523 60.752 10.6381 60.752 12.5708C60.752 14.5035 60.1176 16.1463 58.8488 17.4993ZM54.2267 17.2621C55.4626 17.2621 56.5007 16.814 57.3411 15.9179C58.1815 15.0218 58.6017 13.9061 58.6017 12.5708C58.6017 11.2354 58.1815 10.1197 57.3411 9.22365C56.5007 8.32756 55.4626 7.87952 54.2267 7.87952C53.0073 7.87952 51.9775 8.32756 51.1371 9.22365C50.2967 10.1197 49.8765 11.2354 49.8765 12.5708C49.8765 13.9061 50.2967 15.0218 51.1371 15.9179C51.9775 16.814 53.0073 17.2621 54.2267 17.2621Z" fill="#3E3E3E"/>
<path d="M34.9645 16.7086L38.8451 5.98193H41.1685L36.2251 19.1596H33.704L28.7605 5.98193H31.084L34.9645 16.7086Z" fill="#212121"/>
<path d="M44.0747 3.58359C43.6628 3.58359 43.3167 3.43424 43.0366 3.13554C42.7565 2.83685 42.6164 2.47666 42.6164 2.05497C42.6164 1.63328 42.7565 1.27309 43.0366 0.974396C43.3167 0.658132 43.6628 0.5 44.0747 0.5C44.4702 0.5 44.808 0.658132 45.0881 0.974396C45.3683 1.27309 45.5083 1.63328 45.5083 2.05497C45.5083 2.47666 45.3683 2.83685 45.0881 3.13554C44.808 3.43424 44.4702 3.58359 44.0747 3.58359ZM45.1376 19.1596H42.9872V5.98193H45.1376V19.1596Z" fill="#212121"/>
<path d="M58.8488 17.4993C57.5965 18.8346 56.0558 19.5023 54.2267 19.5023C52.3977 19.5023 50.857 18.8346 49.6046 17.4993C48.3523 16.1639 47.7261 14.5211 47.7261 12.5708C47.7261 10.6205 48.3523 8.97766 49.6046 7.64232C50.857 6.30698 52.3977 5.63931 54.2267 5.63931C56.0558 5.63931 57.5965 6.30698 58.8488 7.64232C60.1176 8.99523 60.752 10.6381 60.752 12.5708C60.752 14.5035 60.1176 16.1463 58.8488 17.4993ZM54.2267 17.2621C55.4626 17.2621 56.5007 16.814 57.3411 15.9179C58.1815 15.0218 58.6017 13.9061 58.6017 12.5708C58.6017 11.2354 58.1815 10.1197 57.3411 9.22365C56.5007 8.32756 55.4626 7.87952 54.2267 7.87952C53.0073 7.87952 51.9775 8.32756 51.1371 9.22365C50.2967 10.1197 49.8765 11.2354 49.8765 12.5708C49.8765 13.9061 50.2967 15.0218 51.1371 15.9179C51.9775 16.814 53.0073 17.2621 54.2267 17.2621Z" fill="#212121"/>
<ellipse cx="44.1884" cy="2.14721" rx="1.54482" ry="1.64721" fill="#D61414"/>
<ellipse cx="12.1376" cy="2.14721" rx="1.54482" ry="1.64721" fill="#FF474D"/>
</svg>
