<svg width="946" height="393" viewBox="0 0 946 393" fill="none" xmlns="http://www.w3.org/2000/svg">
<path d="M513.198 311.518C511.432 311.435 510.068 309.942 510.151 308.184C510.235 306.426 511.734 305.069 513.5 305.152C515.266 305.235 516.63 306.727 516.547 308.485C516.463 310.243 514.964 311.601 513.198 311.518Z" fill="#3897FF"/>
<path d="M598.891 290.968C596.19 290.841 594.104 288.558 594.231 285.87C594.358 283.181 596.651 281.104 599.352 281.231C602.053 281.358 604.139 283.64 604.012 286.329C603.885 289.018 601.592 291.094 598.891 290.968Z" fill="#8E4DD5"/>
<path d="M679.074 286.302C676.825 286.197 675.087 284.296 675.193 282.056C675.299 279.817 677.208 278.087 679.458 278.193C681.708 278.298 683.445 280.199 683.339 282.439C683.233 284.678 681.324 286.408 679.074 286.302Z" fill="#00A98F"/>
<path d="M3.69902 383.5C2.20838 383.43 1.05689 382.171 1.1271 380.687C1.19732 379.203 2.46265 378.057 3.9533 378.127C5.44394 378.197 6.59542 379.456 6.52521 380.94C6.45499 382.424 5.18967 383.57 3.69902 383.5Z" fill="#00A98F"/>
<path d="M917.861 174.533C916.387 174.025 915.607 172.424 916.117 170.957C916.627 169.491 918.236 168.714 919.709 169.222C921.183 169.73 921.963 171.331 921.453 172.798C920.942 174.265 919.334 175.042 917.861 174.533Z" fill="#00A98F"/>
<path d="M910.963 142.216C910.126 141.927 909.682 141.016 909.972 140.182C910.262 139.348 911.177 138.907 912.014 139.196C912.852 139.485 913.296 140.395 913.006 141.229C912.716 142.063 911.801 142.505 910.963 142.216Z" fill="#00A98F"/>
<path d="M905.803 211.822C903.245 210.939 901.889 208.16 902.775 205.613C903.661 203.066 906.454 201.717 909.012 202.599C911.571 203.482 912.926 206.262 912.04 208.808C911.154 211.355 908.361 212.704 905.803 211.822Z" fill="#8E4DD5"/>
<path d="M940.337 53.5642C938.586 52.9599 937.657 51.0564 938.264 49.3125C938.871 47.5686 940.783 46.6447 942.535 47.2489C944.287 47.8532 945.215 49.7567 944.608 51.5006C944.001 53.2445 942.089 54.1684 940.337 53.5642Z" fill="#8E4DD5"/>
<path d="M911.797 59.9752C909.239 59.0928 907.883 56.3129 908.769 53.7661C909.655 51.2194 912.448 49.8702 915.006 50.7526C917.565 51.635 918.92 54.4149 918.034 56.9616C917.148 59.5084 914.355 60.8576 911.797 59.9752Z" fill="#3897FF"/>
<path d="M914.164 100.252L920.913 97.8833L927.312 101.046L924.949 94.3294L928.139 87.9485L921.39 90.3174L914.991 87.1546L917.354 93.8708L914.164 100.252Z" fill="#FFCC00"/>
<path d="M872 228.071L875.665 228.587L877.855 231.563L878.366 227.913L881.35 225.738L877.684 225.222L875.494 222.247L874.983 225.896L872 228.071Z" fill="#FFCC00"/>
<path d="M286.001 340.826L289.667 341.341L291.857 344.317L292.368 340.667L295.352 338.492L291.686 337.977L289.496 335.001L288.985 338.651L286.001 340.826Z" fill="#FFCC00"/>
<path d="M920.711 240.087L923.633 240.498L925.378 242.87L925.786 239.961L928.164 238.227L925.242 237.816L923.497 235.445L923.09 238.353L920.711 240.087Z" fill="#8E4DD5"/>
<path d="M908.165 13.7985L911.086 14.2095L912.832 16.5814L913.239 13.6722L915.617 11.9387L912.695 11.5277L910.95 9.15582L910.543 12.0647L908.165 13.7985Z" fill="#00A98F"/>
<path d="M144.002 348.644L146.924 349.055L148.67 351.427L149.077 348.518L151.455 346.784L148.533 346.373L146.788 344.001L146.381 346.91L144.002 348.644Z" fill="#8E4DD5"/>
<path d="M754.642 261.318L761.122 263.739L757.763 250.687L750.999 248.623L754.642 261.318Z" fill="#00A98F"/>
<path d="M412.661 320.009L413.525 324.132L419.149 318.154L418.009 314.001L412.661 320.009Z" fill="#00A98F"/>
<path d="M843.858 259.616L843.819 254.019L834.849 260.347L835.242 266.055L843.858 259.616Z" fill="#3897FF"/>
<path d="M941.31 118.272L941.29 115.283L936.5 118.662L936.71 121.71L941.31 118.272Z" fill="#3897FF"/>
</svg>
