<svg width="148" height="90" viewBox="0 0 148 90" fill="none" xmlns="http://www.w3.org/2000/svg">
<g opacity="0.5">
<rect y="2.52722" width="13.6256" height="13.6256" rx="1.21167" transform="rotate(-45 0 2.52722)" fill="url(#paint0_radial_1316_1294)" fill-opacity="0.3"/>
<rect x="25.3765" y="2.52722" width="13.6256" height="13.6256" rx="1.21167" transform="rotate(-45 25.3765 2.52722)" fill="url(#paint1_radial_1316_1294)" fill-opacity="0.3"/>
<rect x="50.7485" y="2.52722" width="13.6256" height="13.6256" rx="1.21167" transform="rotate(-45 50.7485 2.52722)" fill="url(#paint2_radial_1316_1294)" fill-opacity="0.3"/>
<rect x="76.1251" y="2.52722" width="13.6256" height="13.6256" rx="1.21167" transform="rotate(-45 76.1251 2.52722)" fill="url(#paint3_radial_1316_1294)" fill-opacity="0.3"/>
<rect x="101.503" y="2.52722" width="13.6256" height="13.6256" rx="1.21167" transform="rotate(-45 101.503 2.52722)" fill="url(#paint4_radial_1316_1294)" fill-opacity="0.3"/>
<rect x="126.876" y="2.52722" width="13.6256" height="13.6256" rx="1.21167" transform="rotate(-45 126.876 2.52722)" fill="url(#paint5_radial_1316_1294)" fill-opacity="0.3"/>
</g>
<g opacity="0.5">
<rect y="54.4189" width="13.6256" height="13.6256" rx="1.21167" transform="rotate(-45 0 54.4189)" fill="url(#paint6_radial_1316_1294)" fill-opacity="0.3"/>
<rect x="25.3765" y="54.4189" width="13.6256" height="13.6256" rx="1.21167" transform="rotate(-45 25.3765 54.4189)" fill="url(#paint7_radial_1316_1294)" fill-opacity="0.3"/>
<rect x="50.7485" y="54.4189" width="13.6256" height="13.6256" rx="1.21167" transform="rotate(-45 50.7485 54.4189)" fill="url(#paint8_radial_1316_1294)" fill-opacity="0.3"/>
<rect x="76.1251" y="54.4189" width="13.6256" height="13.6256" rx="1.21167" transform="rotate(-45 76.1251 54.4189)" fill="url(#paint9_radial_1316_1294)" fill-opacity="0.3"/>
<rect x="101.503" y="54.4189" width="13.6256" height="13.6256" rx="1.21167" transform="rotate(-45 101.503 54.4189)" fill="url(#paint10_radial_1316_1294)" fill-opacity="0.3"/>
<rect x="126.876" y="54.4189" width="13.6256" height="13.6256" rx="1.21167" transform="rotate(-45 126.876 54.4189)" fill="url(#paint11_radial_1316_1294)" fill-opacity="0.3"/>
</g>
<g opacity="0.5">
<rect width="13.6256" height="13.6256" rx="1.21167" transform="matrix(0.707105 -0.707108 0.707105 0.707108 0 28.4731)" fill="url(#paint12_radial_1316_1294)" fill-opacity="0.3"/>
<rect width="13.6256" height="13.6256" rx="1.21167" transform="matrix(0.707105 -0.707108 0.707105 0.707108 25.3765 28.4731)" fill="url(#paint13_radial_1316_1294)" fill-opacity="0.3"/>
<rect width="13.6256" height="13.6256" rx="1.21167" transform="matrix(0.707105 -0.707108 0.707105 0.707108 50.7485 28.4731)" fill="url(#paint14_radial_1316_1294)" fill-opacity="0.3"/>
<rect width="13.6256" height="13.6256" rx="1.21167" transform="matrix(0.707105 -0.707108 0.707105 0.707108 76.1251 28.473)" fill="url(#paint15_radial_1316_1294)" fill-opacity="0.3"/>
<rect width="13.6256" height="13.6256" rx="1.21167" transform="matrix(0.707105 -0.707108 0.707105 0.707108 101.503 28.4731)" fill="url(#paint16_radial_1316_1294)" fill-opacity="0.3"/>
<rect width="13.6256" height="13.6256" rx="1.21167" transform="matrix(0.707105 -0.707108 0.707105 0.707108 126.876 28.4731)" fill="url(#paint17_radial_1316_1294)" fill-opacity="0.3"/>
</g>
<g opacity="0.5">
<rect y="80.3654" width="13.6256" height="13.6256" rx="1.21167" transform="rotate(-45 0 80.3654)" fill="url(#paint18_radial_1316_1294)" fill-opacity="0.3"/>
<rect x="25.3765" y="80.3654" width="13.6256" height="13.6256" rx="1.21167" transform="rotate(-45 25.3765 80.3654)" fill="url(#paint19_radial_1316_1294)" fill-opacity="0.3"/>
<rect x="50.7485" y="80.3654" width="13.6256" height="13.6256" rx="1.21167" transform="rotate(-45 50.7485 80.3654)" fill="url(#paint20_radial_1316_1294)" fill-opacity="0.3"/>
<rect x="76.1251" y="80.3654" width="13.6256" height="13.6256" rx="1.21167" transform="rotate(-45 76.1251 80.3654)" fill="url(#paint21_radial_1316_1294)" fill-opacity="0.3"/>
<rect x="101.503" y="80.3654" width="13.6256" height="13.6256" rx="1.21167" transform="rotate(-45 101.503 80.3654)" fill="url(#paint22_radial_1316_1294)" fill-opacity="0.3"/>
<rect x="126.876" y="80.3654" width="13.6256" height="13.6256" rx="1.21167" transform="rotate(-45 126.876 80.3654)" fill="url(#paint23_radial_1316_1294)" fill-opacity="0.3"/>
</g>
<defs>
<radialGradient id="paint0_radial_1316_1294" cx="0" cy="0" r="1" gradientUnits="userSpaceOnUse" gradientTransform="translate(6.81281 9.34003) rotate(85.3036) scale(13.0582)">
<stop stop-color="#D2D2D2"/>
<stop offset="1" stop-color="#FAFAFA"/>
</radialGradient>
<radialGradient id="paint1_radial_1316_1294" cx="0" cy="0" r="1" gradientUnits="userSpaceOnUse" gradientTransform="translate(32.1893 9.34003) rotate(85.3036) scale(13.0582)">
<stop stop-color="#D2D2D2"/>
<stop offset="1" stop-color="#FAFAFA"/>
</radialGradient>
<radialGradient id="paint2_radial_1316_1294" cx="0" cy="0" r="1" gradientUnits="userSpaceOnUse" gradientTransform="translate(57.5613 9.34003) rotate(85.3036) scale(13.0582)">
<stop stop-color="#D2D2D2"/>
<stop offset="1" stop-color="#FAFAFA"/>
</radialGradient>
<radialGradient id="paint3_radial_1316_1294" cx="0" cy="0" r="1" gradientUnits="userSpaceOnUse" gradientTransform="translate(82.9379 9.34003) rotate(85.3036) scale(13.0582)">
<stop stop-color="#D2D2D2"/>
<stop offset="1" stop-color="#FAFAFA"/>
</radialGradient>
<radialGradient id="paint4_radial_1316_1294" cx="0" cy="0" r="1" gradientUnits="userSpaceOnUse" gradientTransform="translate(108.316 9.34003) rotate(85.3036) scale(13.0582)">
<stop stop-color="#D2D2D2"/>
<stop offset="1" stop-color="#FAFAFA"/>
</radialGradient>
<radialGradient id="paint5_radial_1316_1294" cx="0" cy="0" r="1" gradientUnits="userSpaceOnUse" gradientTransform="translate(133.689 9.34003) rotate(85.3036) scale(13.0582)">
<stop stop-color="#D2D2D2"/>
<stop offset="1" stop-color="#FAFAFA"/>
</radialGradient>
<radialGradient id="paint6_radial_1316_1294" cx="0" cy="0" r="1" gradientUnits="userSpaceOnUse" gradientTransform="translate(6.81281 61.2318) rotate(85.3036) scale(13.0582)">
<stop stop-color="#D2D2D2"/>
<stop offset="1" stop-color="#FAFAFA"/>
</radialGradient>
<radialGradient id="paint7_radial_1316_1294" cx="0" cy="0" r="1" gradientUnits="userSpaceOnUse" gradientTransform="translate(32.1893 61.2318) rotate(85.3036) scale(13.0582)">
<stop stop-color="#D2D2D2"/>
<stop offset="1" stop-color="#FAFAFA"/>
</radialGradient>
<radialGradient id="paint8_radial_1316_1294" cx="0" cy="0" r="1" gradientUnits="userSpaceOnUse" gradientTransform="translate(57.5613 61.2318) rotate(85.3036) scale(13.0582)">
<stop stop-color="#D2D2D2"/>
<stop offset="1" stop-color="#FAFAFA"/>
</radialGradient>
<radialGradient id="paint9_radial_1316_1294" cx="0" cy="0" r="1" gradientUnits="userSpaceOnUse" gradientTransform="translate(82.9379 61.2318) rotate(85.3036) scale(13.0582)">
<stop stop-color="#D2D2D2"/>
<stop offset="1" stop-color="#FAFAFA"/>
</radialGradient>
<radialGradient id="paint10_radial_1316_1294" cx="0" cy="0" r="1" gradientUnits="userSpaceOnUse" gradientTransform="translate(108.316 61.2318) rotate(85.3036) scale(13.0582)">
<stop stop-color="#D2D2D2"/>
<stop offset="1" stop-color="#FAFAFA"/>
</radialGradient>
<radialGradient id="paint11_radial_1316_1294" cx="0" cy="0" r="1" gradientUnits="userSpaceOnUse" gradientTransform="translate(133.689 61.2318) rotate(85.3036) scale(13.0582)">
<stop stop-color="#D2D2D2"/>
<stop offset="1" stop-color="#FAFAFA"/>
</radialGradient>
<radialGradient id="paint12_radial_1316_1294" cx="0" cy="0" r="1" gradientUnits="userSpaceOnUse" gradientTransform="translate(6.81281 6.81281) rotate(85.3036) scale(13.0582)">
<stop stop-color="#D2D2D2"/>
<stop offset="1" stop-color="#FAFAFA"/>
</radialGradient>
<radialGradient id="paint13_radial_1316_1294" cx="0" cy="0" r="1" gradientUnits="userSpaceOnUse" gradientTransform="translate(6.81281 6.81281) rotate(85.3036) scale(13.0582)">
<stop stop-color="#D2D2D2"/>
<stop offset="1" stop-color="#FAFAFA"/>
</radialGradient>
<radialGradient id="paint14_radial_1316_1294" cx="0" cy="0" r="1" gradientUnits="userSpaceOnUse" gradientTransform="translate(6.81281 6.81281) rotate(85.3036) scale(13.0582)">
<stop stop-color="#D2D2D2"/>
<stop offset="1" stop-color="#FAFAFA"/>
</radialGradient>
<radialGradient id="paint15_radial_1316_1294" cx="0" cy="0" r="1" gradientUnits="userSpaceOnUse" gradientTransform="translate(6.81281 6.81281) rotate(85.3036) scale(13.0582)">
<stop stop-color="#D2D2D2"/>
<stop offset="1" stop-color="#FAFAFA"/>
</radialGradient>
<radialGradient id="paint16_radial_1316_1294" cx="0" cy="0" r="1" gradientUnits="userSpaceOnUse" gradientTransform="translate(6.81281 6.81281) rotate(85.3036) scale(13.0582)">
<stop stop-color="#D2D2D2"/>
<stop offset="1" stop-color="#FAFAFA"/>
</radialGradient>
<radialGradient id="paint17_radial_1316_1294" cx="0" cy="0" r="1" gradientUnits="userSpaceOnUse" gradientTransform="translate(6.81281 6.81281) rotate(85.3036) scale(13.0582)">
<stop stop-color="#D2D2D2"/>
<stop offset="1" stop-color="#FAFAFA"/>
</radialGradient>
<radialGradient id="paint18_radial_1316_1294" cx="0" cy="0" r="1" gradientUnits="userSpaceOnUse" gradientTransform="translate(6.81281 87.1782) rotate(85.3036) scale(13.0582)">
<stop stop-color="#D2D2D2"/>
<stop offset="1" stop-color="#FAFAFA"/>
</radialGradient>
<radialGradient id="paint19_radial_1316_1294" cx="0" cy="0" r="1" gradientUnits="userSpaceOnUse" gradientTransform="translate(32.1893 87.1782) rotate(85.3036) scale(13.0582)">
<stop stop-color="#D2D2D2"/>
<stop offset="1" stop-color="#FAFAFA"/>
</radialGradient>
<radialGradient id="paint20_radial_1316_1294" cx="0" cy="0" r="1" gradientUnits="userSpaceOnUse" gradientTransform="translate(57.5613 87.1782) rotate(85.3036) scale(13.0582)">
<stop stop-color="#D2D2D2"/>
<stop offset="1" stop-color="#FAFAFA"/>
</radialGradient>
<radialGradient id="paint21_radial_1316_1294" cx="0" cy="0" r="1" gradientUnits="userSpaceOnUse" gradientTransform="translate(82.9379 87.1782) rotate(85.3036) scale(13.0582)">
<stop stop-color="#D2D2D2"/>
<stop offset="1" stop-color="#FAFAFA"/>
</radialGradient>
<radialGradient id="paint22_radial_1316_1294" cx="0" cy="0" r="1" gradientUnits="userSpaceOnUse" gradientTransform="translate(108.316 87.1782) rotate(85.3036) scale(13.0582)">
<stop stop-color="#D2D2D2"/>
<stop offset="1" stop-color="#FAFAFA"/>
</radialGradient>
<radialGradient id="paint23_radial_1316_1294" cx="0" cy="0" r="1" gradientUnits="userSpaceOnUse" gradientTransform="translate(133.689 87.1782) rotate(85.3036) scale(13.0582)">
<stop stop-color="#D2D2D2"/>
<stop offset="1" stop-color="#FAFAFA"/>
</radialGradient>
</defs>
</svg>
