<svg width="99" height="180" viewBox="0 0 99 180" fill="none" xmlns="http://www.w3.org/2000/svg">
<g opacity="0.5">
<rect y="15.9032" width="22.4906" height="22.4906" rx="2" transform="rotate(-45 0 15.9032)" fill="url(#paint0_radial_1316_1090)" fill-opacity="0.3"/>
<rect x="41.8867" y="15.9032" width="22.4906" height="22.4906" rx="2" transform="rotate(-45 41.8867 15.9032)" fill="url(#paint1_radial_1316_1090)" fill-opacity="0.3"/>
<rect x="83.7661" y="15.9032" width="22.4906" height="22.4906" rx="2" transform="rotate(-45 83.7661 15.9032)" fill="url(#paint2_radial_1316_1090)" fill-opacity="0.3"/>
</g>
<g opacity="0.5">
<rect y="101.558" width="22.4906" height="22.4906" rx="2" transform="rotate(-45 0 101.558)" fill="url(#paint3_radial_1316_1090)" fill-opacity="0.3"/>
<rect x="41.8867" y="101.558" width="22.4906" height="22.4906" rx="2" transform="rotate(-45 41.8867 101.558)" fill="url(#paint4_radial_1316_1090)" fill-opacity="0.3"/>
<rect x="83.7661" y="101.558" width="22.4906" height="22.4906" rx="2" transform="rotate(-45 83.7661 101.558)" fill="url(#paint5_radial_1316_1090)" fill-opacity="0.3"/>
</g>
<g opacity="0.5">
<rect y="187.211" width="22.4906" height="22.4906" rx="2" transform="rotate(-45 0 187.211)" fill="url(#paint6_radial_1316_1090)" fill-opacity="0.3"/>
<rect x="41.8867" y="187.211" width="22.4906" height="22.4906" rx="2" transform="rotate(-45 41.8867 187.211)" fill="url(#paint7_radial_1316_1090)" fill-opacity="0.3"/>
<rect x="83.7661" y="187.211" width="22.4906" height="22.4906" rx="2" transform="rotate(-45 83.7661 187.211)" fill="url(#paint8_radial_1316_1090)" fill-opacity="0.3"/>
</g>
<g opacity="0.5">
<rect y="58.7307" width="22.4906" height="22.4906" rx="2" transform="rotate(-45 0 58.7307)" fill="url(#paint9_radial_1316_1090)" fill-opacity="0.3"/>
<rect x="41.8867" y="58.7307" width="22.4906" height="22.4906" rx="2" transform="rotate(-45 41.8867 58.7307)" fill="url(#paint10_radial_1316_1090)" fill-opacity="0.3"/>
<rect x="83.7661" y="58.7307" width="22.4906" height="22.4906" rx="2" transform="rotate(-45 83.7661 58.7307)" fill="url(#paint11_radial_1316_1090)" fill-opacity="0.3"/>
</g>
<g opacity="0.5">
<rect width="22.4906" height="22.4906" rx="2" transform="matrix(0.707105 -0.707108 0.707105 0.707108 0 144.384)" fill="url(#paint12_radial_1316_1090)" fill-opacity="0.3"/>
<rect width="22.4906" height="22.4906" rx="2" transform="matrix(0.707105 -0.707108 0.707105 0.707108 41.8867 144.384)" fill="url(#paint13_radial_1316_1090)" fill-opacity="0.3"/>
<rect width="22.4906" height="22.4906" rx="2" transform="matrix(0.707105 -0.707108 0.707105 0.707108 83.7661 144.384)" fill="url(#paint14_radial_1316_1090)" fill-opacity="0.3"/>
</g>
<defs>
<radialGradient id="paint0_radial_1316_1090" cx="0" cy="0" r="1" gradientUnits="userSpaceOnUse" gradientTransform="translate(11.2453 27.1485) rotate(85.3036) scale(21.554)">
<stop stop-color="#D2D2D2"/>
<stop offset="1" stop-color="#FAFAFA"/>
</radialGradient>
<radialGradient id="paint1_radial_1316_1090" cx="0" cy="0" r="1" gradientUnits="userSpaceOnUse" gradientTransform="translate(53.132 27.1485) rotate(85.3036) scale(21.554)">
<stop stop-color="#D2D2D2"/>
<stop offset="1" stop-color="#FAFAFA"/>
</radialGradient>
<radialGradient id="paint2_radial_1316_1090" cx="0" cy="0" r="1" gradientUnits="userSpaceOnUse" gradientTransform="translate(95.0114 27.1485) rotate(85.3036) scale(21.554)">
<stop stop-color="#D2D2D2"/>
<stop offset="1" stop-color="#FAFAFA"/>
</radialGradient>
<radialGradient id="paint3_radial_1316_1090" cx="0" cy="0" r="1" gradientUnits="userSpaceOnUse" gradientTransform="translate(11.2453 112.803) rotate(85.3036) scale(21.554)">
<stop stop-color="#D2D2D2"/>
<stop offset="1" stop-color="#FAFAFA"/>
</radialGradient>
<radialGradient id="paint4_radial_1316_1090" cx="0" cy="0" r="1" gradientUnits="userSpaceOnUse" gradientTransform="translate(53.132 112.803) rotate(85.3036) scale(21.554)">
<stop stop-color="#D2D2D2"/>
<stop offset="1" stop-color="#FAFAFA"/>
</radialGradient>
<radialGradient id="paint5_radial_1316_1090" cx="0" cy="0" r="1" gradientUnits="userSpaceOnUse" gradientTransform="translate(95.0114 112.803) rotate(85.3036) scale(21.554)">
<stop stop-color="#D2D2D2"/>
<stop offset="1" stop-color="#FAFAFA"/>
</radialGradient>
<radialGradient id="paint6_radial_1316_1090" cx="0" cy="0" r="1" gradientUnits="userSpaceOnUse" gradientTransform="translate(11.2453 198.456) rotate(85.3036) scale(21.554)">
<stop stop-color="#D2D2D2"/>
<stop offset="1" stop-color="#FAFAFA"/>
</radialGradient>
<radialGradient id="paint7_radial_1316_1090" cx="0" cy="0" r="1" gradientUnits="userSpaceOnUse" gradientTransform="translate(53.132 198.456) rotate(85.3036) scale(21.554)">
<stop stop-color="#D2D2D2"/>
<stop offset="1" stop-color="#FAFAFA"/>
</radialGradient>
<radialGradient id="paint8_radial_1316_1090" cx="0" cy="0" r="1" gradientUnits="userSpaceOnUse" gradientTransform="translate(95.0114 198.456) rotate(85.3036) scale(21.554)">
<stop stop-color="#D2D2D2"/>
<stop offset="1" stop-color="#FAFAFA"/>
</radialGradient>
<radialGradient id="paint9_radial_1316_1090" cx="0" cy="0" r="1" gradientUnits="userSpaceOnUse" gradientTransform="translate(11.2453 69.976) rotate(85.3036) scale(21.554)">
<stop stop-color="#D2D2D2"/>
<stop offset="1" stop-color="#FAFAFA"/>
</radialGradient>
<radialGradient id="paint10_radial_1316_1090" cx="0" cy="0" r="1" gradientUnits="userSpaceOnUse" gradientTransform="translate(53.132 69.976) rotate(85.3036) scale(21.554)">
<stop stop-color="#D2D2D2"/>
<stop offset="1" stop-color="#FAFAFA"/>
</radialGradient>
<radialGradient id="paint11_radial_1316_1090" cx="0" cy="0" r="1" gradientUnits="userSpaceOnUse" gradientTransform="translate(95.0114 69.976) rotate(85.3036) scale(21.554)">
<stop stop-color="#D2D2D2"/>
<stop offset="1" stop-color="#FAFAFA"/>
</radialGradient>
<radialGradient id="paint12_radial_1316_1090" cx="0" cy="0" r="1" gradientUnits="userSpaceOnUse" gradientTransform="translate(11.2453 11.2453) rotate(85.3036) scale(21.554)">
<stop stop-color="#D2D2D2"/>
<stop offset="1" stop-color="#FAFAFA"/>
</radialGradient>
<radialGradient id="paint13_radial_1316_1090" cx="0" cy="0" r="1" gradientUnits="userSpaceOnUse" gradientTransform="translate(11.2453 11.2453) rotate(85.3036) scale(21.554)">
<stop stop-color="#D2D2D2"/>
<stop offset="1" stop-color="#FAFAFA"/>
</radialGradient>
<radialGradient id="paint14_radial_1316_1090" cx="0" cy="0" r="1" gradientUnits="userSpaceOnUse" gradientTransform="translate(11.2453 11.2453) rotate(85.3036) scale(21.554)">
<stop stop-color="#D2D2D2"/>
<stop offset="1" stop-color="#FAFAFA"/>
</radialGradient>
</defs>
</svg>
