<svg width="142" height="66" viewBox="0 0 142 66" fill="none" xmlns="http://www.w3.org/2000/svg">
<g opacity="0.5">
<rect y="31.3741" width="13.2598" height="13.2598" rx="1.17914" transform="rotate(-45 0 31.3741)" fill="url(#paint0_radial_1316_1225)" fill-opacity="0.3"/>
<rect x="24.6953" y="31.3741" width="13.2598" height="13.2598" rx="1.17914" transform="rotate(-45 24.6953 31.3741)" fill="url(#paint1_radial_1316_1225)" fill-opacity="0.3"/>
<rect x="49.3861" y="31.3741" width="13.2598" height="13.2598" rx="1.17914" transform="rotate(-45 49.3861 31.3741)" fill="url(#paint2_radial_1316_1225)" fill-opacity="0.3"/>
<rect x="74.0811" y="31.3741" width="13.2598" height="13.2598" rx="1.17914" transform="rotate(-45 74.0811 31.3741)" fill="url(#paint3_radial_1316_1225)" fill-opacity="0.3"/>
<rect x="98.778" y="31.3741" width="13.2598" height="13.2598" rx="1.17914" transform="rotate(-45 98.778 31.3741)" fill="url(#paint4_radial_1316_1225)" fill-opacity="0.3"/>
<rect x="123.47" y="31.3741" width="13.2598" height="13.2598" rx="1.17914" transform="rotate(-45 123.47 31.3741)" fill="url(#paint5_radial_1316_1225)" fill-opacity="0.3"/>
</g>
<g opacity="0.5">
<rect width="13.2598" height="13.2598" rx="1.17914" transform="matrix(0.707105 -0.707108 0.707105 0.707108 0 6.12488)" fill="url(#paint6_radial_1316_1225)" fill-opacity="0.3"/>
<rect width="13.2598" height="13.2598" rx="1.17914" transform="matrix(0.707105 -0.707108 0.707105 0.707108 24.6953 6.12488)" fill="url(#paint7_radial_1316_1225)" fill-opacity="0.3"/>
<rect width="13.2598" height="13.2598" rx="1.17914" transform="matrix(0.707105 -0.707108 0.707105 0.707108 49.3861 6.12488)" fill="url(#paint8_radial_1316_1225)" fill-opacity="0.3"/>
<rect width="13.2598" height="13.2598" rx="1.17914" transform="matrix(0.707105 -0.707108 0.707105 0.707108 74.0811 6.12476)" fill="url(#paint9_radial_1316_1225)" fill-opacity="0.3"/>
<rect width="13.2598" height="13.2598" rx="1.17914" transform="matrix(0.707105 -0.707108 0.707105 0.707108 98.778 6.12488)" fill="url(#paint10_radial_1316_1225)" fill-opacity="0.3"/>
<rect width="13.2598" height="13.2598" rx="1.17914" transform="matrix(0.707105 -0.707108 0.707105 0.707108 123.47 6.12488)" fill="url(#paint11_radial_1316_1225)" fill-opacity="0.3"/>
</g>
<g opacity="0.5">
<rect y="56.6239" width="13.2598" height="13.2598" rx="1.17914" transform="rotate(-45 0 56.6239)" fill="url(#paint12_radial_1316_1225)" fill-opacity="0.3"/>
<rect x="24.6953" y="56.6239" width="13.2598" height="13.2598" rx="1.17914" transform="rotate(-45 24.6953 56.6239)" fill="url(#paint13_radial_1316_1225)" fill-opacity="0.3"/>
<rect x="49.3861" y="56.6239" width="13.2598" height="13.2598" rx="1.17914" transform="rotate(-45 49.3861 56.6239)" fill="url(#paint14_radial_1316_1225)" fill-opacity="0.3"/>
<rect x="74.0811" y="56.6239" width="13.2598" height="13.2598" rx="1.17914" transform="rotate(-45 74.0811 56.6239)" fill="url(#paint15_radial_1316_1225)" fill-opacity="0.3"/>
<rect x="98.778" y="56.6239" width="13.2598" height="13.2598" rx="1.17914" transform="rotate(-45 98.778 56.6239)" fill="url(#paint16_radial_1316_1225)" fill-opacity="0.3"/>
<rect x="123.47" y="56.6239" width="13.2598" height="13.2598" rx="1.17914" transform="rotate(-45 123.47 56.6239)" fill="url(#paint17_radial_1316_1225)" fill-opacity="0.3"/>
</g>
<defs>
<radialGradient id="paint0_radial_1316_1225" cx="0" cy="0" r="1" gradientUnits="userSpaceOnUse" gradientTransform="translate(6.62992 38.0041) rotate(85.3036) scale(12.7076)">
<stop stop-color="#D2D2D2"/>
<stop offset="1" stop-color="#FAFAFA"/>
</radialGradient>
<radialGradient id="paint1_radial_1316_1225" cx="0" cy="0" r="1" gradientUnits="userSpaceOnUse" gradientTransform="translate(31.3252 38.0041) rotate(85.3036) scale(12.7076)">
<stop stop-color="#D2D2D2"/>
<stop offset="1" stop-color="#FAFAFA"/>
</radialGradient>
<radialGradient id="paint2_radial_1316_1225" cx="0" cy="0" r="1" gradientUnits="userSpaceOnUse" gradientTransform="translate(56.016 38.0041) rotate(85.3036) scale(12.7076)">
<stop stop-color="#D2D2D2"/>
<stop offset="1" stop-color="#FAFAFA"/>
</radialGradient>
<radialGradient id="paint3_radial_1316_1225" cx="0" cy="0" r="1" gradientUnits="userSpaceOnUse" gradientTransform="translate(80.711 38.0041) rotate(85.3036) scale(12.7076)">
<stop stop-color="#D2D2D2"/>
<stop offset="1" stop-color="#FAFAFA"/>
</radialGradient>
<radialGradient id="paint4_radial_1316_1225" cx="0" cy="0" r="1" gradientUnits="userSpaceOnUse" gradientTransform="translate(105.408 38.0041) rotate(85.3036) scale(12.7076)">
<stop stop-color="#D2D2D2"/>
<stop offset="1" stop-color="#FAFAFA"/>
</radialGradient>
<radialGradient id="paint5_radial_1316_1225" cx="0" cy="0" r="1" gradientUnits="userSpaceOnUse" gradientTransform="translate(130.1 38.0041) rotate(85.3036) scale(12.7076)">
<stop stop-color="#D2D2D2"/>
<stop offset="1" stop-color="#FAFAFA"/>
</radialGradient>
<radialGradient id="paint6_radial_1316_1225" cx="0" cy="0" r="1" gradientUnits="userSpaceOnUse" gradientTransform="translate(6.62992 6.62992) rotate(85.3036) scale(12.7076)">
<stop stop-color="#D2D2D2"/>
<stop offset="1" stop-color="#FAFAFA"/>
</radialGradient>
<radialGradient id="paint7_radial_1316_1225" cx="0" cy="0" r="1" gradientUnits="userSpaceOnUse" gradientTransform="translate(6.62992 6.62992) rotate(85.3036) scale(12.7076)">
<stop stop-color="#D2D2D2"/>
<stop offset="1" stop-color="#FAFAFA"/>
</radialGradient>
<radialGradient id="paint8_radial_1316_1225" cx="0" cy="0" r="1" gradientUnits="userSpaceOnUse" gradientTransform="translate(6.62992 6.62992) rotate(85.3036) scale(12.7076)">
<stop stop-color="#D2D2D2"/>
<stop offset="1" stop-color="#FAFAFA"/>
</radialGradient>
<radialGradient id="paint9_radial_1316_1225" cx="0" cy="0" r="1" gradientUnits="userSpaceOnUse" gradientTransform="translate(6.62992 6.62992) rotate(85.3036) scale(12.7076)">
<stop stop-color="#D2D2D2"/>
<stop offset="1" stop-color="#FAFAFA"/>
</radialGradient>
<radialGradient id="paint10_radial_1316_1225" cx="0" cy="0" r="1" gradientUnits="userSpaceOnUse" gradientTransform="translate(6.62992 6.62992) rotate(85.3036) scale(12.7076)">
<stop stop-color="#D2D2D2"/>
<stop offset="1" stop-color="#FAFAFA"/>
</radialGradient>
<radialGradient id="paint11_radial_1316_1225" cx="0" cy="0" r="1" gradientUnits="userSpaceOnUse" gradientTransform="translate(6.62992 6.62992) rotate(85.3036) scale(12.7076)">
<stop stop-color="#D2D2D2"/>
<stop offset="1" stop-color="#FAFAFA"/>
</radialGradient>
<radialGradient id="paint12_radial_1316_1225" cx="0" cy="0" r="1" gradientUnits="userSpaceOnUse" gradientTransform="translate(6.62992 63.2538) rotate(85.3036) scale(12.7076)">
<stop stop-color="#D2D2D2"/>
<stop offset="1" stop-color="#FAFAFA"/>
</radialGradient>
<radialGradient id="paint13_radial_1316_1225" cx="0" cy="0" r="1" gradientUnits="userSpaceOnUse" gradientTransform="translate(31.3252 63.2538) rotate(85.3036) scale(12.7076)">
<stop stop-color="#D2D2D2"/>
<stop offset="1" stop-color="#FAFAFA"/>
</radialGradient>
<radialGradient id="paint14_radial_1316_1225" cx="0" cy="0" r="1" gradientUnits="userSpaceOnUse" gradientTransform="translate(56.016 63.2538) rotate(85.3036) scale(12.7076)">
<stop stop-color="#D2D2D2"/>
<stop offset="1" stop-color="#FAFAFA"/>
</radialGradient>
<radialGradient id="paint15_radial_1316_1225" cx="0" cy="0" r="1" gradientUnits="userSpaceOnUse" gradientTransform="translate(80.711 63.2538) rotate(85.3036) scale(12.7076)">
<stop stop-color="#D2D2D2"/>
<stop offset="1" stop-color="#FAFAFA"/>
</radialGradient>
<radialGradient id="paint16_radial_1316_1225" cx="0" cy="0" r="1" gradientUnits="userSpaceOnUse" gradientTransform="translate(105.408 63.2538) rotate(85.3036) scale(12.7076)">
<stop stop-color="#D2D2D2"/>
<stop offset="1" stop-color="#FAFAFA"/>
</radialGradient>
<radialGradient id="paint17_radial_1316_1225" cx="0" cy="0" r="1" gradientUnits="userSpaceOnUse" gradientTransform="translate(130.1 63.2538) rotate(85.3036) scale(12.7076)">
<stop stop-color="#D2D2D2"/>
<stop offset="1" stop-color="#FAFAFA"/>
</radialGradient>
</defs>
</svg>
