<svg width="197" height="140" viewBox="0 0 197 140" fill="none" xmlns="http://www.w3.org/2000/svg">
<g opacity="0.5">
<rect y="9.63477" width="13.6256" height="13.6256" rx="1.21167" transform="rotate(-45 0 9.63477)" fill="url(#paint0_radial_1316_1156)" fill-opacity="0.3"/>
<rect x="25.3765" y="9.63477" width="13.6256" height="13.6256" rx="1.21167" transform="rotate(-45 25.3765 9.63477)" fill="url(#paint1_radial_1316_1156)" fill-opacity="0.3"/>
<rect x="50.7485" y="9.63477" width="13.6256" height="13.6256" rx="1.21167" transform="rotate(-45 50.7485 9.63477)" fill="url(#paint2_radial_1316_1156)" fill-opacity="0.3"/>
<rect x="76.125" y="9.63477" width="13.6256" height="13.6256" rx="1.21167" transform="rotate(-45 76.125 9.63477)" fill="url(#paint3_radial_1316_1156)" fill-opacity="0.3"/>
<rect x="101.504" y="9.63477" width="13.6256" height="13.6256" rx="1.21167" transform="rotate(-45 101.504 9.63477)" fill="url(#paint4_radial_1316_1156)" fill-opacity="0.3"/>
<rect x="126.876" y="9.63477" width="13.6256" height="13.6256" rx="1.21167" transform="rotate(-45 126.876 9.63477)" fill="url(#paint5_radial_1316_1156)" fill-opacity="0.3"/>
<rect x="152.25" y="9.63477" width="13.6256" height="13.6256" rx="1.21167" transform="rotate(-45 152.25 9.63477)" fill="url(#paint6_radial_1316_1156)" fill-opacity="0.3"/>
<rect x="177.627" y="9.63477" width="13.6256" height="13.6256" rx="1.21167" transform="rotate(-45 177.627 9.63477)" fill="url(#paint7_radial_1316_1156)" fill-opacity="0.3"/>
</g>
<g opacity="0.5">
<rect y="61.5272" width="13.6256" height="13.6256" rx="1.21167" transform="rotate(-45 0 61.5272)" fill="url(#paint8_radial_1316_1156)" fill-opacity="0.3"/>
<rect x="25.3765" y="61.5272" width="13.6256" height="13.6256" rx="1.21167" transform="rotate(-45 25.3765 61.5272)" fill="url(#paint9_radial_1316_1156)" fill-opacity="0.3"/>
<rect x="50.7485" y="61.5272" width="13.6256" height="13.6256" rx="1.21167" transform="rotate(-45 50.7485 61.5272)" fill="url(#paint10_radial_1316_1156)" fill-opacity="0.3"/>
<rect x="76.125" y="61.5272" width="13.6256" height="13.6256" rx="1.21167" transform="rotate(-45 76.125 61.5272)" fill="url(#paint11_radial_1316_1156)" fill-opacity="0.3"/>
<rect x="101.503" y="61.5272" width="13.6256" height="13.6256" rx="1.21167" transform="rotate(-45 101.503 61.5272)" fill="url(#paint12_radial_1316_1156)" fill-opacity="0.3"/>
<rect x="126.876" y="61.5272" width="13.6256" height="13.6256" rx="1.21167" transform="rotate(-45 126.876 61.5272)" fill="url(#paint13_radial_1316_1156)" fill-opacity="0.3"/>
<rect x="152.25" y="61.5272" width="13.6256" height="13.6256" rx="1.21167" transform="rotate(-45 152.25 61.5272)" fill="url(#paint14_radial_1316_1156)" fill-opacity="0.3"/>
<rect x="177.627" y="61.5272" width="13.6256" height="13.6256" rx="1.21167" transform="rotate(-45 177.627 61.5272)" fill="url(#paint15_radial_1316_1156)" fill-opacity="0.3"/>
</g>
<g opacity="0.5">
<rect y="113.419" width="13.6256" height="13.6256" rx="1.21167" transform="rotate(-45 0 113.419)" fill="url(#paint16_radial_1316_1156)" fill-opacity="0.3"/>
<rect x="25.3765" y="113.419" width="13.6256" height="13.6256" rx="1.21167" transform="rotate(-45 25.3765 113.419)" fill="url(#paint17_radial_1316_1156)" fill-opacity="0.3"/>
<rect x="50.7485" y="113.419" width="13.6256" height="13.6256" rx="1.21167" transform="rotate(-45 50.7485 113.419)" fill="url(#paint18_radial_1316_1156)" fill-opacity="0.3"/>
<rect x="76.125" y="113.419" width="13.6256" height="13.6256" rx="1.21167" transform="rotate(-45 76.125 113.419)" fill="url(#paint19_radial_1316_1156)" fill-opacity="0.3"/>
<rect x="101.503" y="113.419" width="13.6256" height="13.6256" rx="1.21167" transform="rotate(-45 101.503 113.419)" fill="url(#paint20_radial_1316_1156)" fill-opacity="0.3"/>
<rect x="126.876" y="113.419" width="13.6256" height="13.6256" rx="1.21167" transform="rotate(-45 126.876 113.419)" fill="url(#paint21_radial_1316_1156)" fill-opacity="0.3"/>
<rect x="152.25" y="113.419" width="13.6256" height="13.6256" rx="1.21167" transform="rotate(-45 152.25 113.419)" fill="url(#paint22_radial_1316_1156)" fill-opacity="0.3"/>
<rect x="177.627" y="113.419" width="13.6256" height="13.6256" rx="1.21167" transform="rotate(-45 177.627 113.419)" fill="url(#paint23_radial_1316_1156)" fill-opacity="0.3"/>
</g>
<g opacity="0.5">
<rect y="35.5812" width="13.6256" height="13.6256" rx="1.21167" transform="rotate(-45 0 35.5812)" fill="url(#paint24_radial_1316_1156)" fill-opacity="0.3"/>
<rect x="25.3765" y="35.5812" width="13.6256" height="13.6256" rx="1.21167" transform="rotate(-45 25.3765 35.5812)" fill="url(#paint25_radial_1316_1156)" fill-opacity="0.3"/>
<rect x="50.7485" y="35.5812" width="13.6256" height="13.6256" rx="1.21167" transform="rotate(-45 50.7485 35.5812)" fill="url(#paint26_radial_1316_1156)" fill-opacity="0.3"/>
<rect x="76.125" y="35.5812" width="13.6256" height="13.6256" rx="1.21167" transform="rotate(-45 76.125 35.5812)" fill="url(#paint27_radial_1316_1156)" fill-opacity="0.3"/>
<rect x="101.503" y="35.5812" width="13.6256" height="13.6256" rx="1.21167" transform="rotate(-45 101.503 35.5812)" fill="url(#paint28_radial_1316_1156)" fill-opacity="0.3"/>
<rect x="126.876" y="35.5812" width="13.6256" height="13.6256" rx="1.21167" transform="rotate(-45 126.876 35.5812)" fill="url(#paint29_radial_1316_1156)" fill-opacity="0.3"/>
<rect x="152.25" y="35.5812" width="13.6256" height="13.6256" rx="1.21167" transform="rotate(-45 152.25 35.5812)" fill="url(#paint30_radial_1316_1156)" fill-opacity="0.3"/>
<rect x="177.627" y="35.5812" width="13.6256" height="13.6256" rx="1.21167" transform="rotate(-45 177.627 35.5812)" fill="url(#paint31_radial_1316_1156)" fill-opacity="0.3"/>
</g>
<g opacity="0.5">
<rect width="13.6256" height="13.6256" rx="1.21167" transform="matrix(0.707105 -0.707108 0.707105 0.707108 0 87.4731)" fill="url(#paint32_radial_1316_1156)" fill-opacity="0.3"/>
<rect width="13.6256" height="13.6256" rx="1.21167" transform="matrix(0.707105 -0.707108 0.707105 0.707108 25.3765 87.4731)" fill="url(#paint33_radial_1316_1156)" fill-opacity="0.3"/>
<rect width="13.6256" height="13.6256" rx="1.21167" transform="matrix(0.707105 -0.707108 0.707105 0.707108 50.7485 87.4731)" fill="url(#paint34_radial_1316_1156)" fill-opacity="0.3"/>
<rect width="13.6256" height="13.6256" rx="1.21167" transform="matrix(0.707105 -0.707108 0.707105 0.707108 76.125 87.473)" fill="url(#paint35_radial_1316_1156)" fill-opacity="0.3"/>
<rect width="13.6256" height="13.6256" rx="1.21167" transform="matrix(0.707105 -0.707108 0.707105 0.707108 101.503 87.4731)" fill="url(#paint36_radial_1316_1156)" fill-opacity="0.3"/>
<rect width="13.6256" height="13.6256" rx="1.21167" transform="matrix(0.707105 -0.707108 0.707105 0.707108 126.876 87.4731)" fill="url(#paint37_radial_1316_1156)" fill-opacity="0.3"/>
<rect width="13.6256" height="13.6256" rx="1.21167" transform="matrix(0.707105 -0.707108 0.707105 0.707108 152.25 87.4731)" fill="url(#paint38_radial_1316_1156)" fill-opacity="0.3"/>
<rect width="13.6256" height="13.6256" rx="1.21167" transform="matrix(0.707105 -0.707108 0.707105 0.707108 177.627 87.4731)" fill="url(#paint39_radial_1316_1156)" fill-opacity="0.3"/>
</g>
<g opacity="0.5">
<rect y="139.365" width="13.6256" height="13.6256" rx="1.21167" transform="rotate(-45 0 139.365)" fill="url(#paint40_radial_1316_1156)" fill-opacity="0.3"/>
<rect x="25.3765" y="139.365" width="13.6256" height="13.6256" rx="1.21167" transform="rotate(-45 25.3765 139.365)" fill="url(#paint41_radial_1316_1156)" fill-opacity="0.3"/>
<rect x="50.7485" y="139.365" width="13.6256" height="13.6256" rx="1.21167" transform="rotate(-45 50.7485 139.365)" fill="url(#paint42_radial_1316_1156)" fill-opacity="0.3"/>
<rect x="76.125" y="139.365" width="13.6256" height="13.6256" rx="1.21167" transform="rotate(-45 76.125 139.365)" fill="url(#paint43_radial_1316_1156)" fill-opacity="0.3"/>
<rect x="101.503" y="139.365" width="13.6256" height="13.6256" rx="1.21167" transform="rotate(-45 101.503 139.365)" fill="url(#paint44_radial_1316_1156)" fill-opacity="0.3"/>
<rect x="126.876" y="139.365" width="13.6256" height="13.6256" rx="1.21167" transform="rotate(-45 126.876 139.365)" fill="url(#paint45_radial_1316_1156)" fill-opacity="0.3"/>
<rect x="152.25" y="139.365" width="13.6256" height="13.6256" rx="1.21167" transform="rotate(-45 152.25 139.365)" fill="url(#paint46_radial_1316_1156)" fill-opacity="0.3"/>
<rect x="177.627" y="139.365" width="13.6256" height="13.6256" rx="1.21167" transform="rotate(-45 177.627 139.365)" fill="url(#paint47_radial_1316_1156)" fill-opacity="0.3"/>
</g>
<defs>
<radialGradient id="paint0_radial_1316_1156" cx="0" cy="0" r="1" gradientUnits="userSpaceOnUse" gradientTransform="translate(6.81281 16.4476) rotate(85.3036) scale(13.0582)">
<stop stop-color="#D2D2D2"/>
<stop offset="1" stop-color="#FAFAFA"/>
</radialGradient>
<radialGradient id="paint1_radial_1316_1156" cx="0" cy="0" r="1" gradientUnits="userSpaceOnUse" gradientTransform="translate(32.1893 16.4476) rotate(85.3036) scale(13.0582)">
<stop stop-color="#D2D2D2"/>
<stop offset="1" stop-color="#FAFAFA"/>
</radialGradient>
<radialGradient id="paint2_radial_1316_1156" cx="0" cy="0" r="1" gradientUnits="userSpaceOnUse" gradientTransform="translate(57.5613 16.4476) rotate(85.3036) scale(13.0582)">
<stop stop-color="#D2D2D2"/>
<stop offset="1" stop-color="#FAFAFA"/>
</radialGradient>
<radialGradient id="paint3_radial_1316_1156" cx="0" cy="0" r="1" gradientUnits="userSpaceOnUse" gradientTransform="translate(82.9378 16.4476) rotate(85.3036) scale(13.0582)">
<stop stop-color="#D2D2D2"/>
<stop offset="1" stop-color="#FAFAFA"/>
</radialGradient>
<radialGradient id="paint4_radial_1316_1156" cx="0" cy="0" r="1" gradientUnits="userSpaceOnUse" gradientTransform="translate(108.317 16.4476) rotate(85.3036) scale(13.0582)">
<stop stop-color="#D2D2D2"/>
<stop offset="1" stop-color="#FAFAFA"/>
</radialGradient>
<radialGradient id="paint5_radial_1316_1156" cx="0" cy="0" r="1" gradientUnits="userSpaceOnUse" gradientTransform="translate(133.689 16.4476) rotate(85.3036) scale(13.0582)">
<stop stop-color="#D2D2D2"/>
<stop offset="1" stop-color="#FAFAFA"/>
</radialGradient>
<radialGradient id="paint6_radial_1316_1156" cx="0" cy="0" r="1" gradientUnits="userSpaceOnUse" gradientTransform="translate(159.063 16.4476) rotate(85.3036) scale(13.0582)">
<stop stop-color="#D2D2D2"/>
<stop offset="1" stop-color="#FAFAFA"/>
</radialGradient>
<radialGradient id="paint7_radial_1316_1156" cx="0" cy="0" r="1" gradientUnits="userSpaceOnUse" gradientTransform="translate(184.44 16.4476) rotate(85.3036) scale(13.0582)">
<stop stop-color="#D2D2D2"/>
<stop offset="1" stop-color="#FAFAFA"/>
</radialGradient>
<radialGradient id="paint8_radial_1316_1156" cx="0" cy="0" r="1" gradientUnits="userSpaceOnUse" gradientTransform="translate(6.81281 68.34) rotate(85.3036) scale(13.0582)">
<stop stop-color="#D2D2D2"/>
<stop offset="1" stop-color="#FAFAFA"/>
</radialGradient>
<radialGradient id="paint9_radial_1316_1156" cx="0" cy="0" r="1" gradientUnits="userSpaceOnUse" gradientTransform="translate(32.1893 68.34) rotate(85.3036) scale(13.0582)">
<stop stop-color="#D2D2D2"/>
<stop offset="1" stop-color="#FAFAFA"/>
</radialGradient>
<radialGradient id="paint10_radial_1316_1156" cx="0" cy="0" r="1" gradientUnits="userSpaceOnUse" gradientTransform="translate(57.5613 68.34) rotate(85.3036) scale(13.0582)">
<stop stop-color="#D2D2D2"/>
<stop offset="1" stop-color="#FAFAFA"/>
</radialGradient>
<radialGradient id="paint11_radial_1316_1156" cx="0" cy="0" r="1" gradientUnits="userSpaceOnUse" gradientTransform="translate(82.9378 68.34) rotate(85.3036) scale(13.0582)">
<stop stop-color="#D2D2D2"/>
<stop offset="1" stop-color="#FAFAFA"/>
</radialGradient>
<radialGradient id="paint12_radial_1316_1156" cx="0" cy="0" r="1" gradientUnits="userSpaceOnUse" gradientTransform="translate(108.316 68.34) rotate(85.3036) scale(13.0582)">
<stop stop-color="#D2D2D2"/>
<stop offset="1" stop-color="#FAFAFA"/>
</radialGradient>
<radialGradient id="paint13_radial_1316_1156" cx="0" cy="0" r="1" gradientUnits="userSpaceOnUse" gradientTransform="translate(133.689 68.34) rotate(85.3036) scale(13.0582)">
<stop stop-color="#D2D2D2"/>
<stop offset="1" stop-color="#FAFAFA"/>
</radialGradient>
<radialGradient id="paint14_radial_1316_1156" cx="0" cy="0" r="1" gradientUnits="userSpaceOnUse" gradientTransform="translate(159.063 68.34) rotate(85.3036) scale(13.0582)">
<stop stop-color="#D2D2D2"/>
<stop offset="1" stop-color="#FAFAFA"/>
</radialGradient>
<radialGradient id="paint15_radial_1316_1156" cx="0" cy="0" r="1" gradientUnits="userSpaceOnUse" gradientTransform="translate(184.44 68.34) rotate(85.3036) scale(13.0582)">
<stop stop-color="#D2D2D2"/>
<stop offset="1" stop-color="#FAFAFA"/>
</radialGradient>
<radialGradient id="paint16_radial_1316_1156" cx="0" cy="0" r="1" gradientUnits="userSpaceOnUse" gradientTransform="translate(6.81281 120.232) rotate(85.3036) scale(13.0582)">
<stop stop-color="#D2D2D2"/>
<stop offset="1" stop-color="#FAFAFA"/>
</radialGradient>
<radialGradient id="paint17_radial_1316_1156" cx="0" cy="0" r="1" gradientUnits="userSpaceOnUse" gradientTransform="translate(32.1893 120.232) rotate(85.3036) scale(13.0582)">
<stop stop-color="#D2D2D2"/>
<stop offset="1" stop-color="#FAFAFA"/>
</radialGradient>
<radialGradient id="paint18_radial_1316_1156" cx="0" cy="0" r="1" gradientUnits="userSpaceOnUse" gradientTransform="translate(57.5613 120.232) rotate(85.3036) scale(13.0582)">
<stop stop-color="#D2D2D2"/>
<stop offset="1" stop-color="#FAFAFA"/>
</radialGradient>
<radialGradient id="paint19_radial_1316_1156" cx="0" cy="0" r="1" gradientUnits="userSpaceOnUse" gradientTransform="translate(82.9378 120.232) rotate(85.3036) scale(13.0582)">
<stop stop-color="#D2D2D2"/>
<stop offset="1" stop-color="#FAFAFA"/>
</radialGradient>
<radialGradient id="paint20_radial_1316_1156" cx="0" cy="0" r="1" gradientUnits="userSpaceOnUse" gradientTransform="translate(108.316 120.232) rotate(85.3036) scale(13.0582)">
<stop stop-color="#D2D2D2"/>
<stop offset="1" stop-color="#FAFAFA"/>
</radialGradient>
<radialGradient id="paint21_radial_1316_1156" cx="0" cy="0" r="1" gradientUnits="userSpaceOnUse" gradientTransform="translate(133.689 120.232) rotate(85.3036) scale(13.0582)">
<stop stop-color="#D2D2D2"/>
<stop offset="1" stop-color="#FAFAFA"/>
</radialGradient>
<radialGradient id="paint22_radial_1316_1156" cx="0" cy="0" r="1" gradientUnits="userSpaceOnUse" gradientTransform="translate(159.063 120.232) rotate(85.3036) scale(13.0582)">
<stop stop-color="#D2D2D2"/>
<stop offset="1" stop-color="#FAFAFA"/>
</radialGradient>
<radialGradient id="paint23_radial_1316_1156" cx="0" cy="0" r="1" gradientUnits="userSpaceOnUse" gradientTransform="translate(184.44 120.232) rotate(85.3036) scale(13.0582)">
<stop stop-color="#D2D2D2"/>
<stop offset="1" stop-color="#FAFAFA"/>
</radialGradient>
<radialGradient id="paint24_radial_1316_1156" cx="0" cy="0" r="1" gradientUnits="userSpaceOnUse" gradientTransform="translate(6.81281 42.394) rotate(85.3036) scale(13.0582)">
<stop stop-color="#D2D2D2"/>
<stop offset="1" stop-color="#FAFAFA"/>
</radialGradient>
<radialGradient id="paint25_radial_1316_1156" cx="0" cy="0" r="1" gradientUnits="userSpaceOnUse" gradientTransform="translate(32.1893 42.394) rotate(85.3036) scale(13.0582)">
<stop stop-color="#D2D2D2"/>
<stop offset="1" stop-color="#FAFAFA"/>
</radialGradient>
<radialGradient id="paint26_radial_1316_1156" cx="0" cy="0" r="1" gradientUnits="userSpaceOnUse" gradientTransform="translate(57.5613 42.394) rotate(85.3036) scale(13.0582)">
<stop stop-color="#D2D2D2"/>
<stop offset="1" stop-color="#FAFAFA"/>
</radialGradient>
<radialGradient id="paint27_radial_1316_1156" cx="0" cy="0" r="1" gradientUnits="userSpaceOnUse" gradientTransform="translate(82.9378 42.394) rotate(85.3036) scale(13.0582)">
<stop stop-color="#D2D2D2"/>
<stop offset="1" stop-color="#FAFAFA"/>
</radialGradient>
<radialGradient id="paint28_radial_1316_1156" cx="0" cy="0" r="1" gradientUnits="userSpaceOnUse" gradientTransform="translate(108.316 42.394) rotate(85.3036) scale(13.0582)">
<stop stop-color="#D2D2D2"/>
<stop offset="1" stop-color="#FAFAFA"/>
</radialGradient>
<radialGradient id="paint29_radial_1316_1156" cx="0" cy="0" r="1" gradientUnits="userSpaceOnUse" gradientTransform="translate(133.689 42.394) rotate(85.3036) scale(13.0582)">
<stop stop-color="#D2D2D2"/>
<stop offset="1" stop-color="#FAFAFA"/>
</radialGradient>
<radialGradient id="paint30_radial_1316_1156" cx="0" cy="0" r="1" gradientUnits="userSpaceOnUse" gradientTransform="translate(159.063 42.394) rotate(85.3036) scale(13.0582)">
<stop stop-color="#D2D2D2"/>
<stop offset="1" stop-color="#FAFAFA"/>
</radialGradient>
<radialGradient id="paint31_radial_1316_1156" cx="0" cy="0" r="1" gradientUnits="userSpaceOnUse" gradientTransform="translate(184.44 42.394) rotate(85.3036) scale(13.0582)">
<stop stop-color="#D2D2D2"/>
<stop offset="1" stop-color="#FAFAFA"/>
</radialGradient>
<radialGradient id="paint32_radial_1316_1156" cx="0" cy="0" r="1" gradientUnits="userSpaceOnUse" gradientTransform="translate(6.81281 6.81281) rotate(85.3036) scale(13.0582)">
<stop stop-color="#D2D2D2"/>
<stop offset="1" stop-color="#FAFAFA"/>
</radialGradient>
<radialGradient id="paint33_radial_1316_1156" cx="0" cy="0" r="1" gradientUnits="userSpaceOnUse" gradientTransform="translate(6.81281 6.81281) rotate(85.3036) scale(13.0582)">
<stop stop-color="#D2D2D2"/>
<stop offset="1" stop-color="#FAFAFA"/>
</radialGradient>
<radialGradient id="paint34_radial_1316_1156" cx="0" cy="0" r="1" gradientUnits="userSpaceOnUse" gradientTransform="translate(6.81281 6.81281) rotate(85.3036) scale(13.0582)">
<stop stop-color="#D2D2D2"/>
<stop offset="1" stop-color="#FAFAFA"/>
</radialGradient>
<radialGradient id="paint35_radial_1316_1156" cx="0" cy="0" r="1" gradientUnits="userSpaceOnUse" gradientTransform="translate(6.81281 6.81281) rotate(85.3036) scale(13.0582)">
<stop stop-color="#D2D2D2"/>
<stop offset="1" stop-color="#FAFAFA"/>
</radialGradient>
<radialGradient id="paint36_radial_1316_1156" cx="0" cy="0" r="1" gradientUnits="userSpaceOnUse" gradientTransform="translate(6.81281 6.81281) rotate(85.3036) scale(13.0582)">
<stop stop-color="#D2D2D2"/>
<stop offset="1" stop-color="#FAFAFA"/>
</radialGradient>
<radialGradient id="paint37_radial_1316_1156" cx="0" cy="0" r="1" gradientUnits="userSpaceOnUse" gradientTransform="translate(6.81281 6.81281) rotate(85.3036) scale(13.0582)">
<stop stop-color="#D2D2D2"/>
<stop offset="1" stop-color="#FAFAFA"/>
</radialGradient>
<radialGradient id="paint38_radial_1316_1156" cx="0" cy="0" r="1" gradientUnits="userSpaceOnUse" gradientTransform="translate(6.81281 6.81281) rotate(85.3036) scale(13.0582)">
<stop stop-color="#D2D2D2"/>
<stop offset="1" stop-color="#FAFAFA"/>
</radialGradient>
<radialGradient id="paint39_radial_1316_1156" cx="0" cy="0" r="1" gradientUnits="userSpaceOnUse" gradientTransform="translate(6.81281 6.81281) rotate(85.3036) scale(13.0582)">
<stop stop-color="#D2D2D2"/>
<stop offset="1" stop-color="#FAFAFA"/>
</radialGradient>
<radialGradient id="paint40_radial_1316_1156" cx="0" cy="0" r="1" gradientUnits="userSpaceOnUse" gradientTransform="translate(6.81281 146.178) rotate(85.3036) scale(13.0582)">
<stop stop-color="#D2D2D2"/>
<stop offset="1" stop-color="#FAFAFA"/>
</radialGradient>
<radialGradient id="paint41_radial_1316_1156" cx="0" cy="0" r="1" gradientUnits="userSpaceOnUse" gradientTransform="translate(32.1893 146.178) rotate(85.3036) scale(13.0582)">
<stop stop-color="#D2D2D2"/>
<stop offset="1" stop-color="#FAFAFA"/>
</radialGradient>
<radialGradient id="paint42_radial_1316_1156" cx="0" cy="0" r="1" gradientUnits="userSpaceOnUse" gradientTransform="translate(57.5613 146.178) rotate(85.3036) scale(13.0582)">
<stop stop-color="#D2D2D2"/>
<stop offset="1" stop-color="#FAFAFA"/>
</radialGradient>
<radialGradient id="paint43_radial_1316_1156" cx="0" cy="0" r="1" gradientUnits="userSpaceOnUse" gradientTransform="translate(82.9378 146.178) rotate(85.3036) scale(13.0582)">
<stop stop-color="#D2D2D2"/>
<stop offset="1" stop-color="#FAFAFA"/>
</radialGradient>
<radialGradient id="paint44_radial_1316_1156" cx="0" cy="0" r="1" gradientUnits="userSpaceOnUse" gradientTransform="translate(108.316 146.178) rotate(85.3036) scale(13.0582)">
<stop stop-color="#D2D2D2"/>
<stop offset="1" stop-color="#FAFAFA"/>
</radialGradient>
<radialGradient id="paint45_radial_1316_1156" cx="0" cy="0" r="1" gradientUnits="userSpaceOnUse" gradientTransform="translate(133.689 146.178) rotate(85.3036) scale(13.0582)">
<stop stop-color="#D2D2D2"/>
<stop offset="1" stop-color="#FAFAFA"/>
</radialGradient>
<radialGradient id="paint46_radial_1316_1156" cx="0" cy="0" r="1" gradientUnits="userSpaceOnUse" gradientTransform="translate(159.063 146.178) rotate(85.3036) scale(13.0582)">
<stop stop-color="#D2D2D2"/>
<stop offset="1" stop-color="#FAFAFA"/>
</radialGradient>
<radialGradient id="paint47_radial_1316_1156" cx="0" cy="0" r="1" gradientUnits="userSpaceOnUse" gradientTransform="translate(184.44 146.178) rotate(85.3036) scale(13.0582)">
<stop stop-color="#D2D2D2"/>
<stop offset="1" stop-color="#FAFAFA"/>
</radialGradient>
</defs>
</svg>
