<svg width="338" height="256" viewBox="0 0 338 256" fill="none" xmlns="http://www.w3.org/2000/svg">
<g opacity="0.5">
<rect y="16.5117" width="23.3511" height="23.3511" rx="5.23122" transform="rotate(-45 0 16.5117)" fill="url(#paint0_radial_1316_1875)"/>
<rect x="43.486" y="16.5117" width="23.3511" height="23.3511" rx="5.23122" transform="rotate(-45 43.486 16.5117)" fill="url(#paint1_radial_1316_1875)"/>
<rect x="86.9719" y="16.5117" width="23.3511" height="23.3511" rx="5.23122" transform="rotate(-45 86.9719 16.5117)" fill="url(#paint2_radial_1316_1875)"/>
<rect x="130.465" y="16.5117" width="23.3511" height="23.3511" rx="5.23122" transform="rotate(-45 130.465 16.5117)" fill="url(#paint3_radial_1316_1875)"/>
<rect x="173.947" y="16.5117" width="23.3511" height="23.3511" rx="5.23122" transform="rotate(-45 173.947 16.5117)" fill="url(#paint4_radial_1316_1875)"/>
<rect x="217.437" y="16.5117" width="23.3511" height="23.3511" rx="5.23122" transform="rotate(-45 217.437 16.5117)" fill="url(#paint5_radial_1316_1875)"/>
<rect x="260.926" y="16.5117" width="23.3511" height="23.3511" rx="5.23122" transform="rotate(-45 260.926 16.5117)" fill="url(#paint6_radial_1316_1875)"/>
<rect x="304.405" y="16.5117" width="23.3511" height="23.3511" rx="5.23122" transform="rotate(-45 304.405 16.5117)" fill="url(#paint7_radial_1316_1875)"/>
</g>
<g opacity="0.5">
<rect y="105.443" width="23.3511" height="23.3511" rx="5.23122" transform="rotate(-45 0 105.443)" fill="url(#paint8_radial_1316_1875)"/>
<rect x="43.4858" y="105.443" width="23.3511" height="23.3511" rx="5.23122" transform="rotate(-45 43.4858 105.443)" fill="url(#paint9_radial_1316_1875)"/>
<rect x="86.9719" y="105.443" width="23.3511" height="23.3511" rx="5.23122" transform="rotate(-45 86.9719 105.443)" fill="url(#paint10_radial_1316_1875)"/>
<rect x="130.465" y="105.443" width="23.3511" height="23.3511" rx="5.23122" transform="rotate(-45 130.465 105.443)" fill="url(#paint11_radial_1316_1875)"/>
<rect x="173.947" y="105.443" width="23.3511" height="23.3511" rx="5.23122" transform="rotate(-45 173.947 105.443)" fill="url(#paint12_radial_1316_1875)"/>
<rect x="217.437" y="105.443" width="23.3511" height="23.3511" rx="5.23122" transform="rotate(-45 217.437 105.443)" fill="url(#paint13_radial_1316_1875)"/>
<rect x="260.926" y="105.443" width="23.3511" height="23.3511" rx="5.23122" transform="rotate(-45 260.926 105.443)" fill="url(#paint14_radial_1316_1875)"/>
<rect x="304.405" y="105.443" width="23.3511" height="23.3511" rx="5.23122" transform="rotate(-45 304.405 105.443)" fill="url(#paint15_radial_1316_1875)"/>
</g>
<g opacity="0.5">
<rect y="194.374" width="23.3511" height="23.3511" rx="5.23122" transform="rotate(-45 0 194.374)" fill="url(#paint16_radial_1316_1875)"/>
<rect x="43.486" y="194.373" width="23.3511" height="23.3511" rx="5.23122" transform="rotate(-45 43.486 194.373)" fill="url(#paint17_radial_1316_1875)"/>
<rect x="86.9719" y="194.373" width="23.3511" height="23.3511" rx="5.23122" transform="rotate(-45 86.9719 194.373)" fill="url(#paint18_radial_1316_1875)"/>
<rect x="130.465" y="194.374" width="23.3511" height="23.3511" rx="5.23122" transform="rotate(-45 130.465 194.374)" fill="url(#paint19_radial_1316_1875)"/>
<rect x="173.947" y="194.373" width="23.3511" height="23.3511" rx="5.23122" transform="rotate(-45 173.947 194.373)" fill="url(#paint20_radial_1316_1875)"/>
<rect x="217.437" y="194.373" width="23.3511" height="23.3511" rx="5.23122" transform="rotate(-45 217.437 194.373)" fill="url(#paint21_radial_1316_1875)"/>
<rect x="260.926" y="194.373" width="23.3511" height="23.3511" rx="5.23122" transform="rotate(-45 260.926 194.373)" fill="url(#paint22_radial_1316_1875)"/>
<rect x="304.405" y="194.373" width="23.3511" height="23.3511" rx="5.23122" transform="rotate(-45 304.405 194.373)" fill="url(#paint23_radial_1316_1875)"/>
</g>
<g opacity="0.5">
<rect y="60.9766" width="23.3511" height="23.3511" rx="5.23122" transform="rotate(-45 0 60.9766)" fill="url(#paint24_radial_1316_1875)"/>
<rect x="43.486" y="60.9766" width="23.3511" height="23.3511" rx="5.23122" transform="rotate(-45 43.486 60.9766)" fill="url(#paint25_radial_1316_1875)"/>
<rect x="86.9719" y="60.9766" width="23.3511" height="23.3511" rx="5.23122" transform="rotate(-45 86.9719 60.9766)" fill="url(#paint26_radial_1316_1875)"/>
<rect x="130.465" y="60.9766" width="23.3511" height="23.3511" rx="5.23122" transform="rotate(-45 130.465 60.9766)" fill="url(#paint27_radial_1316_1875)"/>
<rect x="173.947" y="60.9766" width="23.3511" height="23.3511" rx="5.23122" transform="rotate(-45 173.947 60.9766)" fill="url(#paint28_radial_1316_1875)"/>
<rect x="217.437" y="60.9766" width="23.3511" height="23.3511" rx="5.23122" transform="rotate(-45 217.437 60.9766)" fill="url(#paint29_radial_1316_1875)"/>
<rect x="260.926" y="60.9766" width="23.3511" height="23.3511" rx="5.23122" transform="rotate(-45 260.926 60.9766)" fill="url(#paint30_radial_1316_1875)"/>
<rect x="304.405" y="60.9766" width="23.3511" height="23.3511" rx="5.23122" transform="rotate(-45 304.405 60.9766)" fill="url(#paint31_radial_1316_1875)"/>
</g>
<g opacity="0.5">
<rect y="149.909" width="23.3511" height="23.3511" rx="5.23122" transform="rotate(-45 0 149.909)" fill="url(#paint32_radial_1316_1875)"/>
<rect x="43.486" y="149.909" width="23.3511" height="23.3511" rx="5.23122" transform="rotate(-45 43.486 149.909)" fill="url(#paint33_radial_1316_1875)"/>
<rect x="86.9719" y="149.909" width="23.3511" height="23.3511" rx="5.23122" transform="rotate(-45 86.9719 149.909)" fill="url(#paint34_radial_1316_1875)"/>
<rect x="130.465" y="149.909" width="23.3511" height="23.3511" rx="5.23122" transform="rotate(-45 130.465 149.909)" fill="url(#paint35_radial_1316_1875)"/>
<rect x="173.947" y="149.909" width="23.3511" height="23.3511" rx="5.23122" transform="rotate(-45 173.947 149.909)" fill="url(#paint36_radial_1316_1875)"/>
<rect x="217.437" y="149.909" width="23.3511" height="23.3511" rx="5.23122" transform="rotate(-45 217.437 149.909)" fill="url(#paint37_radial_1316_1875)"/>
<rect x="260.926" y="149.909" width="23.3511" height="23.3511" rx="5.23122" transform="rotate(-45 260.926 149.909)" fill="url(#paint38_radial_1316_1875)"/>
<rect x="304.405" y="149.909" width="23.3511" height="23.3511" rx="5.23122" transform="rotate(-45 304.405 149.909)" fill="url(#paint39_radial_1316_1875)"/>
</g>
<g opacity="0.5">
<rect y="238.839" width="23.3511" height="23.3511" rx="5.23122" transform="rotate(-45 0 238.839)" fill="url(#paint40_radial_1316_1875)"/>
<rect x="43.486" y="238.838" width="23.3511" height="23.3511" rx="5.23122" transform="rotate(-45 43.486 238.838)" fill="url(#paint41_radial_1316_1875)"/>
<rect x="86.9719" y="238.838" width="23.3511" height="23.3511" rx="5.23122" transform="rotate(-45 86.9719 238.838)" fill="url(#paint42_radial_1316_1875)"/>
<rect x="130.465" y="238.839" width="23.3511" height="23.3511" rx="5.23122" transform="rotate(-45 130.465 238.839)" fill="url(#paint43_radial_1316_1875)"/>
<rect x="173.947" y="238.838" width="23.3511" height="23.3511" rx="5.23122" transform="rotate(-45 173.947 238.838)" fill="url(#paint44_radial_1316_1875)"/>
<rect x="217.437" y="238.838" width="23.3511" height="23.3511" rx="5.23122" transform="rotate(-45 217.437 238.838)" fill="url(#paint45_radial_1316_1875)"/>
<rect x="260.926" y="238.838" width="23.3511" height="23.3511" rx="5.23122" transform="rotate(-45 260.926 238.838)" fill="url(#paint46_radial_1316_1875)"/>
<rect x="304.405" y="238.838" width="23.3511" height="23.3511" rx="5.23122" transform="rotate(-45 304.405 238.838)" fill="url(#paint47_radial_1316_1875)"/>
</g>
<defs>
<radialGradient id="paint0_radial_1316_1875" cx="0" cy="0" r="1" gradientUnits="userSpaceOnUse" gradientTransform="translate(11.6756 28.1873) rotate(85.3036) scale(22.3786)">
<stop stop-color="#F1F1F1"/>
<stop offset="1" stop-color="#FAFAFA"/>
</radialGradient>
<radialGradient id="paint1_radial_1316_1875" cx="0" cy="0" r="1" gradientUnits="userSpaceOnUse" gradientTransform="translate(55.1616 28.1873) rotate(85.3036) scale(22.3786)">
<stop stop-color="#F1F1F1"/>
<stop offset="1" stop-color="#FAFAFA"/>
</radialGradient>
<radialGradient id="paint2_radial_1316_1875" cx="0" cy="0" r="1" gradientUnits="userSpaceOnUse" gradientTransform="translate(98.6475 28.1873) rotate(85.3036) scale(22.3786)">
<stop stop-color="#F1F1F1"/>
<stop offset="1" stop-color="#FAFAFA"/>
</radialGradient>
<radialGradient id="paint3_radial_1316_1875" cx="0" cy="0" r="1" gradientUnits="userSpaceOnUse" gradientTransform="translate(142.14 28.1873) rotate(85.3036) scale(22.3786)">
<stop stop-color="#F1F1F1"/>
<stop offset="1" stop-color="#FAFAFA"/>
</radialGradient>
<radialGradient id="paint4_radial_1316_1875" cx="0" cy="0" r="1" gradientUnits="userSpaceOnUse" gradientTransform="translate(185.623 28.1873) rotate(85.3036) scale(22.3786)">
<stop stop-color="#F1F1F1"/>
<stop offset="1" stop-color="#FAFAFA"/>
</radialGradient>
<radialGradient id="paint5_radial_1316_1875" cx="0" cy="0" r="1" gradientUnits="userSpaceOnUse" gradientTransform="translate(229.112 28.1873) rotate(85.3036) scale(22.3786)">
<stop stop-color="#F1F1F1"/>
<stop offset="1" stop-color="#FAFAFA"/>
</radialGradient>
<radialGradient id="paint6_radial_1316_1875" cx="0" cy="0" r="1" gradientUnits="userSpaceOnUse" gradientTransform="translate(272.602 28.1873) rotate(85.3036) scale(22.3786)">
<stop stop-color="#F1F1F1"/>
<stop offset="1" stop-color="#FAFAFA"/>
</radialGradient>
<radialGradient id="paint7_radial_1316_1875" cx="0" cy="0" r="1" gradientUnits="userSpaceOnUse" gradientTransform="translate(316.081 28.1873) rotate(85.3036) scale(22.3786)">
<stop stop-color="#F1F1F1"/>
<stop offset="1" stop-color="#FAFAFA"/>
</radialGradient>
<radialGradient id="paint8_radial_1316_1875" cx="0" cy="0" r="1" gradientUnits="userSpaceOnUse" gradientTransform="translate(11.6756 117.118) rotate(85.3036) scale(22.3786)">
<stop stop-color="#F1F1F1"/>
<stop offset="1" stop-color="#FAFAFA"/>
</radialGradient>
<radialGradient id="paint9_radial_1316_1875" cx="0" cy="0" r="1" gradientUnits="userSpaceOnUse" gradientTransform="translate(55.1614 117.118) rotate(85.3036) scale(22.3786)">
<stop stop-color="#F1F1F1"/>
<stop offset="1" stop-color="#FAFAFA"/>
</radialGradient>
<radialGradient id="paint10_radial_1316_1875" cx="0" cy="0" r="1" gradientUnits="userSpaceOnUse" gradientTransform="translate(98.6475 117.118) rotate(85.3036) scale(22.3786)">
<stop stop-color="#F1F1F1"/>
<stop offset="1" stop-color="#FAFAFA"/>
</radialGradient>
<radialGradient id="paint11_radial_1316_1875" cx="0" cy="0" r="1" gradientUnits="userSpaceOnUse" gradientTransform="translate(142.14 117.118) rotate(85.3036) scale(22.3786)">
<stop stop-color="#F1F1F1"/>
<stop offset="1" stop-color="#FAFAFA"/>
</radialGradient>
<radialGradient id="paint12_radial_1316_1875" cx="0" cy="0" r="1" gradientUnits="userSpaceOnUse" gradientTransform="translate(185.623 117.118) rotate(85.3036) scale(22.3786)">
<stop stop-color="#F1F1F1"/>
<stop offset="1" stop-color="#FAFAFA"/>
</radialGradient>
<radialGradient id="paint13_radial_1316_1875" cx="0" cy="0" r="1" gradientUnits="userSpaceOnUse" gradientTransform="translate(229.113 117.118) rotate(85.3036) scale(22.3786)">
<stop stop-color="#F1F1F1"/>
<stop offset="1" stop-color="#FAFAFA"/>
</radialGradient>
<radialGradient id="paint14_radial_1316_1875" cx="0" cy="0" r="1" gradientUnits="userSpaceOnUse" gradientTransform="translate(272.602 117.118) rotate(85.3036) scale(22.3786)">
<stop stop-color="#F1F1F1"/>
<stop offset="1" stop-color="#FAFAFA"/>
</radialGradient>
<radialGradient id="paint15_radial_1316_1875" cx="0" cy="0" r="1" gradientUnits="userSpaceOnUse" gradientTransform="translate(316.081 117.118) rotate(85.3036) scale(22.3786)">
<stop stop-color="#F1F1F1"/>
<stop offset="1" stop-color="#FAFAFA"/>
</radialGradient>
<radialGradient id="paint16_radial_1316_1875" cx="0" cy="0" r="1" gradientUnits="userSpaceOnUse" gradientTransform="translate(11.6756 206.049) rotate(85.3036) scale(22.3786)">
<stop stop-color="#F1F1F1"/>
<stop offset="1" stop-color="#FAFAFA"/>
</radialGradient>
<radialGradient id="paint17_radial_1316_1875" cx="0" cy="0" r="1" gradientUnits="userSpaceOnUse" gradientTransform="translate(55.1616 206.048) rotate(85.3036) scale(22.3786)">
<stop stop-color="#F1F1F1"/>
<stop offset="1" stop-color="#FAFAFA"/>
</radialGradient>
<radialGradient id="paint18_radial_1316_1875" cx="0" cy="0" r="1" gradientUnits="userSpaceOnUse" gradientTransform="translate(98.6475 206.048) rotate(85.3036) scale(22.3786)">
<stop stop-color="#F1F1F1"/>
<stop offset="1" stop-color="#FAFAFA"/>
</radialGradient>
<radialGradient id="paint19_radial_1316_1875" cx="0" cy="0" r="1" gradientUnits="userSpaceOnUse" gradientTransform="translate(142.14 206.049) rotate(85.3036) scale(22.3786)">
<stop stop-color="#F1F1F1"/>
<stop offset="1" stop-color="#FAFAFA"/>
</radialGradient>
<radialGradient id="paint20_radial_1316_1875" cx="0" cy="0" r="1" gradientUnits="userSpaceOnUse" gradientTransform="translate(185.623 206.048) rotate(85.3036) scale(22.3786)">
<stop stop-color="#F1F1F1"/>
<stop offset="1" stop-color="#FAFAFA"/>
</radialGradient>
<radialGradient id="paint21_radial_1316_1875" cx="0" cy="0" r="1" gradientUnits="userSpaceOnUse" gradientTransform="translate(229.112 206.048) rotate(85.3036) scale(22.3786)">
<stop stop-color="#F1F1F1"/>
<stop offset="1" stop-color="#FAFAFA"/>
</radialGradient>
<radialGradient id="paint22_radial_1316_1875" cx="0" cy="0" r="1" gradientUnits="userSpaceOnUse" gradientTransform="translate(272.602 206.048) rotate(85.3036) scale(22.3786)">
<stop stop-color="#F1F1F1"/>
<stop offset="1" stop-color="#FAFAFA"/>
</radialGradient>
<radialGradient id="paint23_radial_1316_1875" cx="0" cy="0" r="1" gradientUnits="userSpaceOnUse" gradientTransform="translate(316.081 206.048) rotate(85.3036) scale(22.3786)">
<stop stop-color="#F1F1F1"/>
<stop offset="1" stop-color="#FAFAFA"/>
</radialGradient>
<radialGradient id="paint24_radial_1316_1875" cx="0" cy="0" r="1" gradientUnits="userSpaceOnUse" gradientTransform="translate(11.6756 72.6521) rotate(85.3036) scale(22.3786)">
<stop stop-color="#F1F1F1"/>
<stop offset="1" stop-color="#FAFAFA"/>
</radialGradient>
<radialGradient id="paint25_radial_1316_1875" cx="0" cy="0" r="1" gradientUnits="userSpaceOnUse" gradientTransform="translate(55.1616 72.6521) rotate(85.3036) scale(22.3786)">
<stop stop-color="#F1F1F1"/>
<stop offset="1" stop-color="#FAFAFA"/>
</radialGradient>
<radialGradient id="paint26_radial_1316_1875" cx="0" cy="0" r="1" gradientUnits="userSpaceOnUse" gradientTransform="translate(98.6475 72.6521) rotate(85.3036) scale(22.3786)">
<stop stop-color="#F1F1F1"/>
<stop offset="1" stop-color="#FAFAFA"/>
</radialGradient>
<radialGradient id="paint27_radial_1316_1875" cx="0" cy="0" r="1" gradientUnits="userSpaceOnUse" gradientTransform="translate(142.14 72.6521) rotate(85.3036) scale(22.3786)">
<stop stop-color="#F1F1F1"/>
<stop offset="1" stop-color="#FAFAFA"/>
</radialGradient>
<radialGradient id="paint28_radial_1316_1875" cx="0" cy="0" r="1" gradientUnits="userSpaceOnUse" gradientTransform="translate(185.623 72.6521) rotate(85.3036) scale(22.3786)">
<stop stop-color="#F1F1F1"/>
<stop offset="1" stop-color="#FAFAFA"/>
</radialGradient>
<radialGradient id="paint29_radial_1316_1875" cx="0" cy="0" r="1" gradientUnits="userSpaceOnUse" gradientTransform="translate(229.112 72.6521) rotate(85.3036) scale(22.3786)">
<stop stop-color="#F1F1F1"/>
<stop offset="1" stop-color="#FAFAFA"/>
</radialGradient>
<radialGradient id="paint30_radial_1316_1875" cx="0" cy="0" r="1" gradientUnits="userSpaceOnUse" gradientTransform="translate(272.602 72.6521) rotate(85.3036) scale(22.3786)">
<stop stop-color="#F1F1F1"/>
<stop offset="1" stop-color="#FAFAFA"/>
</radialGradient>
<radialGradient id="paint31_radial_1316_1875" cx="0" cy="0" r="1" gradientUnits="userSpaceOnUse" gradientTransform="translate(316.081 72.6521) rotate(85.3036) scale(22.3786)">
<stop stop-color="#F1F1F1"/>
<stop offset="1" stop-color="#FAFAFA"/>
</radialGradient>
<radialGradient id="paint32_radial_1316_1875" cx="0" cy="0" r="1" gradientUnits="userSpaceOnUse" gradientTransform="translate(11.6756 161.585) rotate(85.3036) scale(22.3786)">
<stop stop-color="#F1F1F1"/>
<stop offset="1" stop-color="#FAFAFA"/>
</radialGradient>
<radialGradient id="paint33_radial_1316_1875" cx="0" cy="0" r="1" gradientUnits="userSpaceOnUse" gradientTransform="translate(55.1616 161.585) rotate(85.3036) scale(22.3786)">
<stop stop-color="#F1F1F1"/>
<stop offset="1" stop-color="#FAFAFA"/>
</radialGradient>
<radialGradient id="paint34_radial_1316_1875" cx="0" cy="0" r="1" gradientUnits="userSpaceOnUse" gradientTransform="translate(98.6475 161.585) rotate(85.3036) scale(22.3786)">
<stop stop-color="#F1F1F1"/>
<stop offset="1" stop-color="#FAFAFA"/>
</radialGradient>
<radialGradient id="paint35_radial_1316_1875" cx="0" cy="0" r="1" gradientUnits="userSpaceOnUse" gradientTransform="translate(142.14 161.585) rotate(85.3036) scale(22.3786)">
<stop stop-color="#F1F1F1"/>
<stop offset="1" stop-color="#FAFAFA"/>
</radialGradient>
<radialGradient id="paint36_radial_1316_1875" cx="0" cy="0" r="1" gradientUnits="userSpaceOnUse" gradientTransform="translate(185.623 161.585) rotate(85.3036) scale(22.3786)">
<stop stop-color="#F1F1F1"/>
<stop offset="1" stop-color="#FAFAFA"/>
</radialGradient>
<radialGradient id="paint37_radial_1316_1875" cx="0" cy="0" r="1" gradientUnits="userSpaceOnUse" gradientTransform="translate(229.112 161.585) rotate(85.3036) scale(22.3786)">
<stop stop-color="#F1F1F1"/>
<stop offset="1" stop-color="#FAFAFA"/>
</radialGradient>
<radialGradient id="paint38_radial_1316_1875" cx="0" cy="0" r="1" gradientUnits="userSpaceOnUse" gradientTransform="translate(272.602 161.585) rotate(85.3036) scale(22.3786)">
<stop stop-color="#F1F1F1"/>
<stop offset="1" stop-color="#FAFAFA"/>
</radialGradient>
<radialGradient id="paint39_radial_1316_1875" cx="0" cy="0" r="1" gradientUnits="userSpaceOnUse" gradientTransform="translate(316.081 161.585) rotate(85.3036) scale(22.3786)">
<stop stop-color="#F1F1F1"/>
<stop offset="1" stop-color="#FAFAFA"/>
</radialGradient>
<radialGradient id="paint40_radial_1316_1875" cx="0" cy="0" r="1" gradientUnits="userSpaceOnUse" gradientTransform="translate(11.6756 250.514) rotate(85.3036) scale(22.3786)">
<stop stop-color="#F1F1F1"/>
<stop offset="1" stop-color="#FAFAFA"/>
</radialGradient>
<radialGradient id="paint41_radial_1316_1875" cx="0" cy="0" r="1" gradientUnits="userSpaceOnUse" gradientTransform="translate(55.1616 250.514) rotate(85.3036) scale(22.3786)">
<stop stop-color="#F1F1F1"/>
<stop offset="1" stop-color="#FAFAFA"/>
</radialGradient>
<radialGradient id="paint42_radial_1316_1875" cx="0" cy="0" r="1" gradientUnits="userSpaceOnUse" gradientTransform="translate(98.6475 250.514) rotate(85.3036) scale(22.3786)">
<stop stop-color="#F1F1F1"/>
<stop offset="1" stop-color="#FAFAFA"/>
</radialGradient>
<radialGradient id="paint43_radial_1316_1875" cx="0" cy="0" r="1" gradientUnits="userSpaceOnUse" gradientTransform="translate(142.14 250.515) rotate(85.3036) scale(22.3786)">
<stop stop-color="#F1F1F1"/>
<stop offset="1" stop-color="#FAFAFA"/>
</radialGradient>
<radialGradient id="paint44_radial_1316_1875" cx="0" cy="0" r="1" gradientUnits="userSpaceOnUse" gradientTransform="translate(185.623 250.514) rotate(85.3036) scale(22.3786)">
<stop stop-color="#F1F1F1"/>
<stop offset="1" stop-color="#FAFAFA"/>
</radialGradient>
<radialGradient id="paint45_radial_1316_1875" cx="0" cy="0" r="1" gradientUnits="userSpaceOnUse" gradientTransform="translate(229.112 250.514) rotate(85.3036) scale(22.3786)">
<stop stop-color="#F1F1F1"/>
<stop offset="1" stop-color="#FAFAFA"/>
</radialGradient>
<radialGradient id="paint46_radial_1316_1875" cx="0" cy="0" r="1" gradientUnits="userSpaceOnUse" gradientTransform="translate(272.602 250.514) rotate(85.3036) scale(22.3786)">
<stop stop-color="#F1F1F1"/>
<stop offset="1" stop-color="#FAFAFA"/>
</radialGradient>
<radialGradient id="paint47_radial_1316_1875" cx="0" cy="0" r="1" gradientUnits="userSpaceOnUse" gradientTransform="translate(316.081 250.514) rotate(85.3036) scale(22.3786)">
<stop stop-color="#F1F1F1"/>
<stop offset="1" stop-color="#FAFAFA"/>
</radialGradient>
</defs>
</svg>
