<svg width="218" height="101" viewBox="0 0 218 101" fill="none" xmlns="http://www.w3.org/2000/svg">
<g opacity="0.5">
<rect y="4.12158" width="15.086" height="15.086" rx="2" transform="rotate(-45 0 4.12158)" fill="url(#paint0_radial_1316_2023)" fill-opacity="0.3"/>
<rect x="28.0967" y="4.12158" width="15.086" height="15.086" rx="2" transform="rotate(-45 28.0967 4.12158)" fill="url(#paint1_radial_1316_2023)" fill-opacity="0.3"/>
<rect x="56.188" y="4.12158" width="15.086" height="15.086" rx="2" transform="rotate(-45 56.188 4.12158)" fill="url(#paint2_radial_1316_2023)" fill-opacity="0.3"/>
<rect x="84.2842" y="4.12158" width="15.086" height="15.086" rx="2" transform="rotate(-45 84.2842 4.12158)" fill="url(#paint3_radial_1316_2023)" fill-opacity="0.3"/>
<rect x="112.382" y="4.12158" width="15.086" height="15.086" rx="2" transform="rotate(-45 112.382 4.12158)" fill="url(#paint4_radial_1316_2023)" fill-opacity="0.3"/>
<rect x="140.475" y="4.12158" width="15.086" height="15.086" rx="2" transform="rotate(-45 140.475 4.12158)" fill="url(#paint5_radial_1316_2023)" fill-opacity="0.3"/>
<rect x="168.569" y="4.12158" width="15.086" height="15.086" rx="2" transform="rotate(-45 168.569 4.12158)" fill="url(#paint6_radial_1316_2023)" fill-opacity="0.3"/>
<rect x="196.665" y="4.12158" width="15.086" height="15.086" rx="2" transform="rotate(-45 196.665 4.12158)" fill="url(#paint7_radial_1316_2023)" fill-opacity="0.3"/>
</g>
<g opacity="0.5">
<rect y="61.5757" width="15.086" height="15.086" rx="2" transform="rotate(-45 0 61.5757)" fill="url(#paint8_radial_1316_2023)" fill-opacity="0.3"/>
<rect x="28.0967" y="61.5757" width="15.086" height="15.086" rx="2" transform="rotate(-45 28.0967 61.5757)" fill="url(#paint9_radial_1316_2023)" fill-opacity="0.3"/>
<rect x="56.188" y="61.5757" width="15.086" height="15.086" rx="2" transform="rotate(-45 56.188 61.5757)" fill="url(#paint10_radial_1316_2023)" fill-opacity="0.3"/>
<rect x="84.2842" y="61.5757" width="15.086" height="15.086" rx="2" transform="rotate(-45 84.2842 61.5757)" fill="url(#paint11_radial_1316_2023)" fill-opacity="0.3"/>
<rect x="112.382" y="61.5757" width="15.086" height="15.086" rx="2" transform="rotate(-45 112.382 61.5757)" fill="url(#paint12_radial_1316_2023)" fill-opacity="0.3"/>
<rect x="140.475" y="61.5757" width="15.086" height="15.086" rx="2" transform="rotate(-45 140.475 61.5757)" fill="url(#paint13_radial_1316_2023)" fill-opacity="0.3"/>
<rect x="168.569" y="61.5757" width="15.086" height="15.086" rx="2" transform="rotate(-45 168.569 61.5757)" fill="url(#paint14_radial_1316_2023)" fill-opacity="0.3"/>
<rect x="196.665" y="61.5757" width="15.086" height="15.086" rx="2" transform="rotate(-45 196.665 61.5757)" fill="url(#paint15_radial_1316_2023)" fill-opacity="0.3"/>
</g>
<g opacity="0.5">
<rect width="15.086" height="15.086" rx="2" transform="matrix(0.707105 -0.707108 0.707105 0.707108 0 32.8481)" fill="url(#paint16_radial_1316_2023)" fill-opacity="0.3"/>
<rect width="15.086" height="15.086" rx="2" transform="matrix(0.707105 -0.707108 0.707105 0.707108 28.0967 32.8481)" fill="url(#paint17_radial_1316_2023)" fill-opacity="0.3"/>
<rect width="15.086" height="15.086" rx="2" transform="matrix(0.707105 -0.707108 0.707105 0.707108 56.188 32.8481)" fill="url(#paint18_radial_1316_2023)" fill-opacity="0.3"/>
<rect width="15.086" height="15.086" rx="2" transform="matrix(0.707105 -0.707108 0.707105 0.707108 84.2842 32.8481)" fill="url(#paint19_radial_1316_2023)" fill-opacity="0.3"/>
<rect width="15.086" height="15.086" rx="2" transform="matrix(0.707105 -0.707108 0.707105 0.707108 112.382 32.8481)" fill="url(#paint20_radial_1316_2023)" fill-opacity="0.3"/>
<rect width="15.086" height="15.086" rx="2" transform="matrix(0.707105 -0.707108 0.707105 0.707108 140.475 32.8481)" fill="url(#paint21_radial_1316_2023)" fill-opacity="0.3"/>
<rect width="15.086" height="15.086" rx="2" transform="matrix(0.707105 -0.707108 0.707105 0.707108 168.569 32.8481)" fill="url(#paint22_radial_1316_2023)" fill-opacity="0.3"/>
<rect width="15.086" height="15.086" rx="2" transform="matrix(0.707105 -0.707108 0.707105 0.707108 196.665 32.8481)" fill="url(#paint23_radial_1316_2023)" fill-opacity="0.3"/>
</g>
<g opacity="0.5">
<rect y="90.3022" width="15.086" height="15.086" rx="2" transform="rotate(-45 0 90.3022)" fill="url(#paint24_radial_1316_2023)" fill-opacity="0.3"/>
<rect x="28.0967" y="90.3022" width="15.086" height="15.086" rx="2" transform="rotate(-45 28.0967 90.3022)" fill="url(#paint25_radial_1316_2023)" fill-opacity="0.3"/>
<rect x="56.188" y="90.3022" width="15.086" height="15.086" rx="2" transform="rotate(-45 56.188 90.3022)" fill="url(#paint26_radial_1316_2023)" fill-opacity="0.3"/>
<rect x="84.2842" y="90.3022" width="15.086" height="15.086" rx="2" transform="rotate(-45 84.2842 90.3022)" fill="url(#paint27_radial_1316_2023)" fill-opacity="0.3"/>
<rect x="112.382" y="90.3022" width="15.086" height="15.086" rx="2" transform="rotate(-45 112.382 90.3022)" fill="url(#paint28_radial_1316_2023)" fill-opacity="0.3"/>
<rect x="140.475" y="90.3022" width="15.086" height="15.086" rx="2" transform="rotate(-45 140.475 90.3022)" fill="url(#paint29_radial_1316_2023)" fill-opacity="0.3"/>
<rect x="168.569" y="90.3022" width="15.086" height="15.086" rx="2" transform="rotate(-45 168.569 90.3022)" fill="url(#paint30_radial_1316_2023)" fill-opacity="0.3"/>
<rect x="196.665" y="90.3022" width="15.086" height="15.086" rx="2" transform="rotate(-45 196.665 90.3022)" fill="url(#paint31_radial_1316_2023)" fill-opacity="0.3"/>
</g>
<defs>
<radialGradient id="paint0_radial_1316_2023" cx="0" cy="0" r="1" gradientUnits="userSpaceOnUse" gradientTransform="translate(7.54302 11.6646) rotate(85.3036) scale(14.4577)">
<stop stop-color="#D2D2D2"/>
<stop offset="1" stop-color="#FAFAFA"/>
</radialGradient>
<radialGradient id="paint1_radial_1316_2023" cx="0" cy="0" r="1" gradientUnits="userSpaceOnUse" gradientTransform="translate(35.6397 11.6646) rotate(85.3036) scale(14.4577)">
<stop stop-color="#D2D2D2"/>
<stop offset="1" stop-color="#FAFAFA"/>
</radialGradient>
<radialGradient id="paint2_radial_1316_2023" cx="0" cy="0" r="1" gradientUnits="userSpaceOnUse" gradientTransform="translate(63.731 11.6646) rotate(85.3036) scale(14.4577)">
<stop stop-color="#D2D2D2"/>
<stop offset="1" stop-color="#FAFAFA"/>
</radialGradient>
<radialGradient id="paint3_radial_1316_2023" cx="0" cy="0" r="1" gradientUnits="userSpaceOnUse" gradientTransform="translate(91.8272 11.6646) rotate(85.3036) scale(14.4577)">
<stop stop-color="#D2D2D2"/>
<stop offset="1" stop-color="#FAFAFA"/>
</radialGradient>
<radialGradient id="paint4_radial_1316_2023" cx="0" cy="0" r="1" gradientUnits="userSpaceOnUse" gradientTransform="translate(119.925 11.6646) rotate(85.3036) scale(14.4577)">
<stop stop-color="#D2D2D2"/>
<stop offset="1" stop-color="#FAFAFA"/>
</radialGradient>
<radialGradient id="paint5_radial_1316_2023" cx="0" cy="0" r="1" gradientUnits="userSpaceOnUse" gradientTransform="translate(148.018 11.6646) rotate(85.3036) scale(14.4577)">
<stop stop-color="#D2D2D2"/>
<stop offset="1" stop-color="#FAFAFA"/>
</radialGradient>
<radialGradient id="paint6_radial_1316_2023" cx="0" cy="0" r="1" gradientUnits="userSpaceOnUse" gradientTransform="translate(176.112 11.6646) rotate(85.3036) scale(14.4577)">
<stop stop-color="#D2D2D2"/>
<stop offset="1" stop-color="#FAFAFA"/>
</radialGradient>
<radialGradient id="paint7_radial_1316_2023" cx="0" cy="0" r="1" gradientUnits="userSpaceOnUse" gradientTransform="translate(204.208 11.6646) rotate(85.3036) scale(14.4577)">
<stop stop-color="#D2D2D2"/>
<stop offset="1" stop-color="#FAFAFA"/>
</radialGradient>
<radialGradient id="paint8_radial_1316_2023" cx="0" cy="0" r="1" gradientUnits="userSpaceOnUse" gradientTransform="translate(7.54302 69.1187) rotate(85.3036) scale(14.4577)">
<stop stop-color="#D2D2D2"/>
<stop offset="1" stop-color="#FAFAFA"/>
</radialGradient>
<radialGradient id="paint9_radial_1316_2023" cx="0" cy="0" r="1" gradientUnits="userSpaceOnUse" gradientTransform="translate(35.6397 69.1187) rotate(85.3036) scale(14.4577)">
<stop stop-color="#D2D2D2"/>
<stop offset="1" stop-color="#FAFAFA"/>
</radialGradient>
<radialGradient id="paint10_radial_1316_2023" cx="0" cy="0" r="1" gradientUnits="userSpaceOnUse" gradientTransform="translate(63.731 69.1187) rotate(85.3036) scale(14.4577)">
<stop stop-color="#D2D2D2"/>
<stop offset="1" stop-color="#FAFAFA"/>
</radialGradient>
<radialGradient id="paint11_radial_1316_2023" cx="0" cy="0" r="1" gradientUnits="userSpaceOnUse" gradientTransform="translate(91.8272 69.1187) rotate(85.3036) scale(14.4577)">
<stop stop-color="#D2D2D2"/>
<stop offset="1" stop-color="#FAFAFA"/>
</radialGradient>
<radialGradient id="paint12_radial_1316_2023" cx="0" cy="0" r="1" gradientUnits="userSpaceOnUse" gradientTransform="translate(119.925 69.1187) rotate(85.3036) scale(14.4577)">
<stop stop-color="#D2D2D2"/>
<stop offset="1" stop-color="#FAFAFA"/>
</radialGradient>
<radialGradient id="paint13_radial_1316_2023" cx="0" cy="0" r="1" gradientUnits="userSpaceOnUse" gradientTransform="translate(148.018 69.1187) rotate(85.3036) scale(14.4577)">
<stop stop-color="#D2D2D2"/>
<stop offset="1" stop-color="#FAFAFA"/>
</radialGradient>
<radialGradient id="paint14_radial_1316_2023" cx="0" cy="0" r="1" gradientUnits="userSpaceOnUse" gradientTransform="translate(176.112 69.1187) rotate(85.3036) scale(14.4577)">
<stop stop-color="#D2D2D2"/>
<stop offset="1" stop-color="#FAFAFA"/>
</radialGradient>
<radialGradient id="paint15_radial_1316_2023" cx="0" cy="0" r="1" gradientUnits="userSpaceOnUse" gradientTransform="translate(204.208 69.1187) rotate(85.3036) scale(14.4577)">
<stop stop-color="#D2D2D2"/>
<stop offset="1" stop-color="#FAFAFA"/>
</radialGradient>
<radialGradient id="paint16_radial_1316_2023" cx="0" cy="0" r="1" gradientUnits="userSpaceOnUse" gradientTransform="translate(7.54302 7.54302) rotate(85.3036) scale(14.4577)">
<stop stop-color="#D2D2D2"/>
<stop offset="1" stop-color="#FAFAFA"/>
</radialGradient>
<radialGradient id="paint17_radial_1316_2023" cx="0" cy="0" r="1" gradientUnits="userSpaceOnUse" gradientTransform="translate(7.54302 7.54302) rotate(85.3036) scale(14.4577)">
<stop stop-color="#D2D2D2"/>
<stop offset="1" stop-color="#FAFAFA"/>
</radialGradient>
<radialGradient id="paint18_radial_1316_2023" cx="0" cy="0" r="1" gradientUnits="userSpaceOnUse" gradientTransform="translate(7.54302 7.54302) rotate(85.3036) scale(14.4577)">
<stop stop-color="#D2D2D2"/>
<stop offset="1" stop-color="#FAFAFA"/>
</radialGradient>
<radialGradient id="paint19_radial_1316_2023" cx="0" cy="0" r="1" gradientUnits="userSpaceOnUse" gradientTransform="translate(7.54302 7.54302) rotate(85.3036) scale(14.4577)">
<stop stop-color="#D2D2D2"/>
<stop offset="1" stop-color="#FAFAFA"/>
</radialGradient>
<radialGradient id="paint20_radial_1316_2023" cx="0" cy="0" r="1" gradientUnits="userSpaceOnUse" gradientTransform="translate(7.54302 7.54302) rotate(85.3036) scale(14.4577)">
<stop stop-color="#D2D2D2"/>
<stop offset="1" stop-color="#FAFAFA"/>
</radialGradient>
<radialGradient id="paint21_radial_1316_2023" cx="0" cy="0" r="1" gradientUnits="userSpaceOnUse" gradientTransform="translate(7.54302 7.54302) rotate(85.3036) scale(14.4577)">
<stop stop-color="#D2D2D2"/>
<stop offset="1" stop-color="#FAFAFA"/>
</radialGradient>
<radialGradient id="paint22_radial_1316_2023" cx="0" cy="0" r="1" gradientUnits="userSpaceOnUse" gradientTransform="translate(7.54302 7.54302) rotate(85.3036) scale(14.4577)">
<stop stop-color="#D2D2D2"/>
<stop offset="1" stop-color="#FAFAFA"/>
</radialGradient>
<radialGradient id="paint23_radial_1316_2023" cx="0" cy="0" r="1" gradientUnits="userSpaceOnUse" gradientTransform="translate(7.54302 7.54302) rotate(85.3036) scale(14.4577)">
<stop stop-color="#D2D2D2"/>
<stop offset="1" stop-color="#FAFAFA"/>
</radialGradient>
<radialGradient id="paint24_radial_1316_2023" cx="0" cy="0" r="1" gradientUnits="userSpaceOnUse" gradientTransform="translate(7.54302 97.8453) rotate(85.3036) scale(14.4577)">
<stop stop-color="#D2D2D2"/>
<stop offset="1" stop-color="#FAFAFA"/>
</radialGradient>
<radialGradient id="paint25_radial_1316_2023" cx="0" cy="0" r="1" gradientUnits="userSpaceOnUse" gradientTransform="translate(35.6397 97.8453) rotate(85.3036) scale(14.4577)">
<stop stop-color="#D2D2D2"/>
<stop offset="1" stop-color="#FAFAFA"/>
</radialGradient>
<radialGradient id="paint26_radial_1316_2023" cx="0" cy="0" r="1" gradientUnits="userSpaceOnUse" gradientTransform="translate(63.731 97.8453) rotate(85.3036) scale(14.4577)">
<stop stop-color="#D2D2D2"/>
<stop offset="1" stop-color="#FAFAFA"/>
</radialGradient>
<radialGradient id="paint27_radial_1316_2023" cx="0" cy="0" r="1" gradientUnits="userSpaceOnUse" gradientTransform="translate(91.8272 97.8453) rotate(85.3036) scale(14.4577)">
<stop stop-color="#D2D2D2"/>
<stop offset="1" stop-color="#FAFAFA"/>
</radialGradient>
<radialGradient id="paint28_radial_1316_2023" cx="0" cy="0" r="1" gradientUnits="userSpaceOnUse" gradientTransform="translate(119.925 97.8453) rotate(85.3036) scale(14.4577)">
<stop stop-color="#D2D2D2"/>
<stop offset="1" stop-color="#FAFAFA"/>
</radialGradient>
<radialGradient id="paint29_radial_1316_2023" cx="0" cy="0" r="1" gradientUnits="userSpaceOnUse" gradientTransform="translate(148.018 97.8453) rotate(85.3036) scale(14.4577)">
<stop stop-color="#D2D2D2"/>
<stop offset="1" stop-color="#FAFAFA"/>
</radialGradient>
<radialGradient id="paint30_radial_1316_2023" cx="0" cy="0" r="1" gradientUnits="userSpaceOnUse" gradientTransform="translate(176.112 97.8453) rotate(85.3036) scale(14.4577)">
<stop stop-color="#D2D2D2"/>
<stop offset="1" stop-color="#FAFAFA"/>
</radialGradient>
<radialGradient id="paint31_radial_1316_2023" cx="0" cy="0" r="1" gradientUnits="userSpaceOnUse" gradientTransform="translate(204.208 97.8453) rotate(85.3036) scale(14.4577)">
<stop stop-color="#D2D2D2"/>
<stop offset="1" stop-color="#FAFAFA"/>
</radialGradient>
</defs>
</svg>
