<svg width="298" height="188" viewBox="0 0 298 188" fill="none" xmlns="http://www.w3.org/2000/svg">
<g opacity="0.5">
<rect y="55.1104" width="20.62" height="20.62" rx="4.29021" transform="rotate(-45 0 55.1104)" fill="url(#paint0_radial_1296_18378)" fill-opacity="0.5"/>
<rect x="38.4043" y="55.1104" width="20.62" height="20.62" rx="4.29021" transform="rotate(-45 38.4043 55.1104)" fill="url(#paint1_radial_1296_18378)" fill-opacity="0.5"/>
<rect x="76.8008" y="55.1104" width="20.62" height="20.62" rx="4.29021" transform="rotate(-45 76.8008 55.1104)" fill="url(#paint2_radial_1296_18378)" fill-opacity="0.5"/>
<rect x="115.202" y="55.1104" width="20.62" height="20.62" rx="4.29021" transform="rotate(-45 115.202 55.1104)" fill="url(#paint3_radial_1296_18378)" fill-opacity="0.5"/>
<rect x="153.607" y="55.1104" width="20.62" height="20.62" rx="4.29021" transform="rotate(-45 153.607 55.1104)" fill="url(#paint4_radial_1296_18378)" fill-opacity="0.5"/>
<rect x="192.005" y="55.1104" width="20.62" height="20.62" rx="4.29021" transform="rotate(-45 192.005 55.1104)" fill="url(#paint5_radial_1296_18378)" fill-opacity="0.5"/>
<rect x="230.406" y="55.1104" width="20.62" height="20.62" rx="4.29021" transform="rotate(-45 230.406 55.1104)" fill="url(#paint6_radial_1296_18378)" fill-opacity="0.5"/>
<rect x="268.809" y="55.1104" width="20.62" height="20.62" rx="4.29021" transform="rotate(-45 268.809 55.1104)" fill="url(#paint7_radial_1296_18378)" fill-opacity="0.5"/>
</g>
<g opacity="0.5">
<rect y="133.64" width="20.62" height="20.62" rx="4.29021" transform="rotate(-45 0 133.64)" fill="url(#paint8_radial_1296_18378)" fill-opacity="0.5"/>
<rect x="38.4043" y="133.64" width="20.62" height="20.62" rx="4.29021" transform="rotate(-45 38.4043 133.64)" fill="url(#paint9_radial_1296_18378)" fill-opacity="0.5"/>
<rect x="76.8008" y="133.64" width="20.62" height="20.62" rx="4.29021" transform="rotate(-45 76.8008 133.64)" fill="url(#paint10_radial_1296_18378)" fill-opacity="0.5"/>
<rect x="115.202" y="133.64" width="20.62" height="20.62" rx="4.29021" transform="rotate(-45 115.202 133.64)" fill="url(#paint11_radial_1296_18378)" fill-opacity="0.5"/>
<rect x="153.607" y="133.64" width="20.62" height="20.62" rx="4.29021" transform="rotate(-45 153.607 133.64)" fill="url(#paint12_radial_1296_18378)" fill-opacity="0.5"/>
<rect x="192.005" y="133.64" width="20.62" height="20.62" rx="4.29021" transform="rotate(-45 192.005 133.64)" fill="url(#paint13_radial_1296_18378)" fill-opacity="0.5"/>
<rect x="230.406" y="133.64" width="20.62" height="20.62" rx="4.29021" transform="rotate(-45 230.406 133.64)" fill="url(#paint14_radial_1296_18378)" fill-opacity="0.5"/>
<rect x="268.809" y="133.64" width="20.62" height="20.62" rx="4.29021" transform="rotate(-45 268.809 133.64)" fill="url(#paint15_radial_1296_18378)" fill-opacity="0.5"/>
</g>
<g opacity="0.5">
<rect y="15.8452" width="20.62" height="20.62" rx="4.29021" transform="rotate(-45 0 15.8452)" fill="url(#paint16_radial_1296_18378)" fill-opacity="0.5"/>
<rect x="38.4043" y="15.8452" width="20.62" height="20.62" rx="4.29021" transform="rotate(-45 38.4043 15.8452)" fill="url(#paint17_radial_1296_18378)" fill-opacity="0.5"/>
<rect x="76.8008" y="15.8452" width="20.62" height="20.62" rx="4.29021" transform="rotate(-45 76.8008 15.8452)" fill="url(#paint18_radial_1296_18378)" fill-opacity="0.5"/>
<rect x="115.202" y="15.8452" width="20.62" height="20.62" rx="4.29021" transform="rotate(-45 115.202 15.8452)" fill="url(#paint19_radial_1296_18378)" fill-opacity="0.5"/>
<rect x="153.607" y="15.8452" width="20.62" height="20.62" rx="4.29021" transform="rotate(-45 153.607 15.8452)" fill="url(#paint20_radial_1296_18378)" fill-opacity="0.5"/>
<rect x="192.005" y="15.8452" width="20.62" height="20.62" rx="4.29021" transform="rotate(-45 192.005 15.8452)" fill="url(#paint21_radial_1296_18378)" fill-opacity="0.5"/>
<rect x="230.406" y="15.8452" width="20.62" height="20.62" rx="4.29021" transform="rotate(-45 230.406 15.8452)" fill="url(#paint22_radial_1296_18378)" fill-opacity="0.5"/>
<rect x="268.809" y="15.8452" width="20.62" height="20.62" rx="4.29021" transform="rotate(-45 268.809 15.8452)" fill="url(#paint23_radial_1296_18378)" fill-opacity="0.5"/>
</g>
<g opacity="0.5">
<rect width="20.62" height="20.62" rx="4.29021" transform="matrix(0.707105 -0.707108 0.707105 0.707108 0 94.375)" fill="url(#paint24_radial_1296_18378)" fill-opacity="0.5"/>
<rect width="20.62" height="20.62" rx="4.29021" transform="matrix(0.707105 -0.707108 0.707105 0.707108 38.4043 94.3755)" fill="url(#paint25_radial_1296_18378)" fill-opacity="0.5"/>
<rect width="20.62" height="20.62" rx="4.29021" transform="matrix(0.707105 -0.707108 0.707105 0.707108 76.8008 94.3755)" fill="url(#paint26_radial_1296_18378)" fill-opacity="0.5"/>
<rect width="20.62" height="20.62" rx="4.29021" transform="matrix(0.707105 -0.707108 0.707105 0.707108 115.202 94.375)" fill="url(#paint27_radial_1296_18378)" fill-opacity="0.5"/>
<rect width="20.62" height="20.62" rx="4.29021" transform="matrix(0.707105 -0.707108 0.707105 0.707108 153.607 94.375)" fill="url(#paint28_radial_1296_18378)" fill-opacity="0.5"/>
<rect width="20.62" height="20.62" rx="4.29021" transform="matrix(0.707105 -0.707108 0.707105 0.707108 192.005 94.3755)" fill="url(#paint29_radial_1296_18378)" fill-opacity="0.5"/>
<rect width="20.62" height="20.62" rx="4.29021" transform="matrix(0.707105 -0.707108 0.707105 0.707108 230.406 94.375)" fill="url(#paint30_radial_1296_18378)" fill-opacity="0.5"/>
<rect width="20.62" height="20.62" rx="4.29021" transform="matrix(0.707105 -0.707108 0.707105 0.707108 268.809 94.3755)" fill="url(#paint31_radial_1296_18378)" fill-opacity="0.5"/>
</g>
<g opacity="0.5">
<rect y="172.906" width="20.62" height="20.62" rx="4.29021" transform="rotate(-45 0 172.906)" fill="url(#paint32_radial_1296_18378)" fill-opacity="0.5"/>
<rect x="38.4043" y="172.906" width="20.62" height="20.62" rx="4.29021" transform="rotate(-45 38.4043 172.906)" fill="url(#paint33_radial_1296_18378)" fill-opacity="0.5"/>
<rect x="76.8008" y="172.906" width="20.62" height="20.62" rx="4.29021" transform="rotate(-45 76.8008 172.906)" fill="url(#paint34_radial_1296_18378)" fill-opacity="0.5"/>
<rect x="115.202" y="172.906" width="20.62" height="20.62" rx="4.29021" transform="rotate(-45 115.202 172.906)" fill="url(#paint35_radial_1296_18378)" fill-opacity="0.5"/>
<rect x="153.607" y="172.906" width="20.62" height="20.62" rx="4.29021" transform="rotate(-45 153.607 172.906)" fill="url(#paint36_radial_1296_18378)" fill-opacity="0.5"/>
<rect x="192.005" y="172.906" width="20.62" height="20.62" rx="4.29021" transform="rotate(-45 192.005 172.906)" fill="url(#paint37_radial_1296_18378)" fill-opacity="0.5"/>
<rect x="230.406" y="172.906" width="20.62" height="20.62" rx="4.29021" transform="rotate(-45 230.406 172.906)" fill="url(#paint38_radial_1296_18378)" fill-opacity="0.5"/>
<rect x="268.808" y="172.906" width="20.62" height="20.62" rx="4.29021" transform="rotate(-45 268.808 172.906)" fill="url(#paint39_radial_1296_18378)" fill-opacity="0.5"/>
</g>
<defs>
<radialGradient id="paint0_radial_1296_18378" cx="0" cy="0" r="1" gradientUnits="userSpaceOnUse" gradientTransform="translate(10.31 65.4204) rotate(85.3036) scale(19.7613)">
<stop stop-color="#D2D2D2"/>
<stop offset="1" stop-color="#FAFAFA"/>
</radialGradient>
<radialGradient id="paint1_radial_1296_18378" cx="0" cy="0" r="1" gradientUnits="userSpaceOnUse" gradientTransform="translate(48.7143 65.4204) rotate(85.3036) scale(19.7613)">
<stop stop-color="#D2D2D2"/>
<stop offset="1" stop-color="#FAFAFA"/>
</radialGradient>
<radialGradient id="paint2_radial_1296_18378" cx="0" cy="0" r="1" gradientUnits="userSpaceOnUse" gradientTransform="translate(87.1108 65.4204) rotate(85.3036) scale(19.7613)">
<stop stop-color="#D2D2D2"/>
<stop offset="1" stop-color="#FAFAFA"/>
</radialGradient>
<radialGradient id="paint3_radial_1296_18378" cx="0" cy="0" r="1" gradientUnits="userSpaceOnUse" gradientTransform="translate(125.512 65.4204) rotate(85.3036) scale(19.7613)">
<stop stop-color="#D2D2D2"/>
<stop offset="1" stop-color="#FAFAFA"/>
</radialGradient>
<radialGradient id="paint4_radial_1296_18378" cx="0" cy="0" r="1" gradientUnits="userSpaceOnUse" gradientTransform="translate(163.917 65.4204) rotate(85.3036) scale(19.7613)">
<stop stop-color="#D2D2D2"/>
<stop offset="1" stop-color="#FAFAFA"/>
</radialGradient>
<radialGradient id="paint5_radial_1296_18378" cx="0" cy="0" r="1" gradientUnits="userSpaceOnUse" gradientTransform="translate(202.315 65.4204) rotate(85.3036) scale(19.7613)">
<stop stop-color="#D2D2D2"/>
<stop offset="1" stop-color="#FAFAFA"/>
</radialGradient>
<radialGradient id="paint6_radial_1296_18378" cx="0" cy="0" r="1" gradientUnits="userSpaceOnUse" gradientTransform="translate(240.716 65.4204) rotate(85.3036) scale(19.7613)">
<stop stop-color="#D2D2D2"/>
<stop offset="1" stop-color="#FAFAFA"/>
</radialGradient>
<radialGradient id="paint7_radial_1296_18378" cx="0" cy="0" r="1" gradientUnits="userSpaceOnUse" gradientTransform="translate(279.119 65.4204) rotate(85.3036) scale(19.7613)">
<stop stop-color="#D2D2D2"/>
<stop offset="1" stop-color="#FAFAFA"/>
</radialGradient>
<radialGradient id="paint8_radial_1296_18378" cx="0" cy="0" r="1" gradientUnits="userSpaceOnUse" gradientTransform="translate(10.31 143.95) rotate(85.3036) scale(19.7613)">
<stop stop-color="#D2D2D2"/>
<stop offset="1" stop-color="#FAFAFA"/>
</radialGradient>
<radialGradient id="paint9_radial_1296_18378" cx="0" cy="0" r="1" gradientUnits="userSpaceOnUse" gradientTransform="translate(48.7143 143.95) rotate(85.3036) scale(19.7613)">
<stop stop-color="#D2D2D2"/>
<stop offset="1" stop-color="#FAFAFA"/>
</radialGradient>
<radialGradient id="paint10_radial_1296_18378" cx="0" cy="0" r="1" gradientUnits="userSpaceOnUse" gradientTransform="translate(87.1108 143.95) rotate(85.3036) scale(19.7613)">
<stop stop-color="#D2D2D2"/>
<stop offset="1" stop-color="#FAFAFA"/>
</radialGradient>
<radialGradient id="paint11_radial_1296_18378" cx="0" cy="0" r="1" gradientUnits="userSpaceOnUse" gradientTransform="translate(125.512 143.95) rotate(85.3036) scale(19.7613)">
<stop stop-color="#D2D2D2"/>
<stop offset="1" stop-color="#FAFAFA"/>
</radialGradient>
<radialGradient id="paint12_radial_1296_18378" cx="0" cy="0" r="1" gradientUnits="userSpaceOnUse" gradientTransform="translate(163.917 143.95) rotate(85.3036) scale(19.7613)">
<stop stop-color="#D2D2D2"/>
<stop offset="1" stop-color="#FAFAFA"/>
</radialGradient>
<radialGradient id="paint13_radial_1296_18378" cx="0" cy="0" r="1" gradientUnits="userSpaceOnUse" gradientTransform="translate(202.315 143.95) rotate(85.3036) scale(19.7613)">
<stop stop-color="#D2D2D2"/>
<stop offset="1" stop-color="#FAFAFA"/>
</radialGradient>
<radialGradient id="paint14_radial_1296_18378" cx="0" cy="0" r="1" gradientUnits="userSpaceOnUse" gradientTransform="translate(240.716 143.95) rotate(85.3036) scale(19.7613)">
<stop stop-color="#D2D2D2"/>
<stop offset="1" stop-color="#FAFAFA"/>
</radialGradient>
<radialGradient id="paint15_radial_1296_18378" cx="0" cy="0" r="1" gradientUnits="userSpaceOnUse" gradientTransform="translate(279.119 143.95) rotate(85.3036) scale(19.7613)">
<stop stop-color="#D2D2D2"/>
<stop offset="1" stop-color="#FAFAFA"/>
</radialGradient>
<radialGradient id="paint16_radial_1296_18378" cx="0" cy="0" r="1" gradientUnits="userSpaceOnUse" gradientTransform="translate(10.31 26.1552) rotate(85.3036) scale(19.7613)">
<stop stop-color="#D2D2D2"/>
<stop offset="1" stop-color="#FAFAFA"/>
</radialGradient>
<radialGradient id="paint17_radial_1296_18378" cx="0" cy="0" r="1" gradientUnits="userSpaceOnUse" gradientTransform="translate(48.7143 26.1552) rotate(85.3036) scale(19.7613)">
<stop stop-color="#D2D2D2"/>
<stop offset="1" stop-color="#FAFAFA"/>
</radialGradient>
<radialGradient id="paint18_radial_1296_18378" cx="0" cy="0" r="1" gradientUnits="userSpaceOnUse" gradientTransform="translate(87.1108 26.1552) rotate(85.3036) scale(19.7613)">
<stop stop-color="#D2D2D2"/>
<stop offset="1" stop-color="#FAFAFA"/>
</radialGradient>
<radialGradient id="paint19_radial_1296_18378" cx="0" cy="0" r="1" gradientUnits="userSpaceOnUse" gradientTransform="translate(125.512 26.1552) rotate(85.3036) scale(19.7613)">
<stop stop-color="#D2D2D2"/>
<stop offset="1" stop-color="#FAFAFA"/>
</radialGradient>
<radialGradient id="paint20_radial_1296_18378" cx="0" cy="0" r="1" gradientUnits="userSpaceOnUse" gradientTransform="translate(163.917 26.1552) rotate(85.3036) scale(19.7613)">
<stop stop-color="#D2D2D2"/>
<stop offset="1" stop-color="#FAFAFA"/>
</radialGradient>
<radialGradient id="paint21_radial_1296_18378" cx="0" cy="0" r="1" gradientUnits="userSpaceOnUse" gradientTransform="translate(202.315 26.1552) rotate(85.3036) scale(19.7613)">
<stop stop-color="#D2D2D2"/>
<stop offset="1" stop-color="#FAFAFA"/>
</radialGradient>
<radialGradient id="paint22_radial_1296_18378" cx="0" cy="0" r="1" gradientUnits="userSpaceOnUse" gradientTransform="translate(240.716 26.1552) rotate(85.3036) scale(19.7613)">
<stop stop-color="#D2D2D2"/>
<stop offset="1" stop-color="#FAFAFA"/>
</radialGradient>
<radialGradient id="paint23_radial_1296_18378" cx="0" cy="0" r="1" gradientUnits="userSpaceOnUse" gradientTransform="translate(279.119 26.1552) rotate(85.3036) scale(19.7613)">
<stop stop-color="#D2D2D2"/>
<stop offset="1" stop-color="#FAFAFA"/>
</radialGradient>
<radialGradient id="paint24_radial_1296_18378" cx="0" cy="0" r="1" gradientUnits="userSpaceOnUse" gradientTransform="translate(10.31 10.31) rotate(85.3036) scale(19.7613)">
<stop stop-color="#D2D2D2"/>
<stop offset="1" stop-color="#FAFAFA"/>
</radialGradient>
<radialGradient id="paint25_radial_1296_18378" cx="0" cy="0" r="1" gradientUnits="userSpaceOnUse" gradientTransform="translate(10.31 10.31) rotate(85.3036) scale(19.7613)">
<stop stop-color="#D2D2D2"/>
<stop offset="1" stop-color="#FAFAFA"/>
</radialGradient>
<radialGradient id="paint26_radial_1296_18378" cx="0" cy="0" r="1" gradientUnits="userSpaceOnUse" gradientTransform="translate(10.31 10.31) rotate(85.3036) scale(19.7613)">
<stop stop-color="#D2D2D2"/>
<stop offset="1" stop-color="#FAFAFA"/>
</radialGradient>
<radialGradient id="paint27_radial_1296_18378" cx="0" cy="0" r="1" gradientUnits="userSpaceOnUse" gradientTransform="translate(10.31 10.31) rotate(85.3036) scale(19.7613)">
<stop stop-color="#D2D2D2"/>
<stop offset="1" stop-color="#FAFAFA"/>
</radialGradient>
<radialGradient id="paint28_radial_1296_18378" cx="0" cy="0" r="1" gradientUnits="userSpaceOnUse" gradientTransform="translate(10.31 10.31) rotate(85.3036) scale(19.7613)">
<stop stop-color="#D2D2D2"/>
<stop offset="1" stop-color="#FAFAFA"/>
</radialGradient>
<radialGradient id="paint29_radial_1296_18378" cx="0" cy="0" r="1" gradientUnits="userSpaceOnUse" gradientTransform="translate(10.31 10.31) rotate(85.3036) scale(19.7613)">
<stop stop-color="#D2D2D2"/>
<stop offset="1" stop-color="#FAFAFA"/>
</radialGradient>
<radialGradient id="paint30_radial_1296_18378" cx="0" cy="0" r="1" gradientUnits="userSpaceOnUse" gradientTransform="translate(10.31 10.31) rotate(85.3036) scale(19.7613)">
<stop stop-color="#D2D2D2"/>
<stop offset="1" stop-color="#FAFAFA"/>
</radialGradient>
<radialGradient id="paint31_radial_1296_18378" cx="0" cy="0" r="1" gradientUnits="userSpaceOnUse" gradientTransform="translate(10.31 10.31) rotate(85.3036) scale(19.7613)">
<stop stop-color="#D2D2D2"/>
<stop offset="1" stop-color="#FAFAFA"/>
</radialGradient>
<radialGradient id="paint32_radial_1296_18378" cx="0" cy="0" r="1" gradientUnits="userSpaceOnUse" gradientTransform="translate(10.31 183.216) rotate(85.3036) scale(19.7613)">
<stop stop-color="#D2D2D2"/>
<stop offset="1" stop-color="#FAFAFA"/>
</radialGradient>
<radialGradient id="paint33_radial_1296_18378" cx="0" cy="0" r="1" gradientUnits="userSpaceOnUse" gradientTransform="translate(48.7143 183.216) rotate(85.3036) scale(19.7613)">
<stop stop-color="#D2D2D2"/>
<stop offset="1" stop-color="#FAFAFA"/>
</radialGradient>
<radialGradient id="paint34_radial_1296_18378" cx="0" cy="0" r="1" gradientUnits="userSpaceOnUse" gradientTransform="translate(87.1108 183.216) rotate(85.3036) scale(19.7613)">
<stop stop-color="#D2D2D2"/>
<stop offset="1" stop-color="#FAFAFA"/>
</radialGradient>
<radialGradient id="paint35_radial_1296_18378" cx="0" cy="0" r="1" gradientUnits="userSpaceOnUse" gradientTransform="translate(125.512 183.216) rotate(85.3036) scale(19.7613)">
<stop stop-color="#D2D2D2"/>
<stop offset="1" stop-color="#FAFAFA"/>
</radialGradient>
<radialGradient id="paint36_radial_1296_18378" cx="0" cy="0" r="1" gradientUnits="userSpaceOnUse" gradientTransform="translate(163.917 183.216) rotate(85.3036) scale(19.7613)">
<stop stop-color="#D2D2D2"/>
<stop offset="1" stop-color="#FAFAFA"/>
</radialGradient>
<radialGradient id="paint37_radial_1296_18378" cx="0" cy="0" r="1" gradientUnits="userSpaceOnUse" gradientTransform="translate(202.315 183.216) rotate(85.3036) scale(19.7613)">
<stop stop-color="#D2D2D2"/>
<stop offset="1" stop-color="#FAFAFA"/>
</radialGradient>
<radialGradient id="paint38_radial_1296_18378" cx="0" cy="0" r="1" gradientUnits="userSpaceOnUse" gradientTransform="translate(240.716 183.216) rotate(85.3036) scale(19.7613)">
<stop stop-color="#D2D2D2"/>
<stop offset="1" stop-color="#FAFAFA"/>
</radialGradient>
<radialGradient id="paint39_radial_1296_18378" cx="0" cy="0" r="1" gradientUnits="userSpaceOnUse" gradientTransform="translate(279.118 183.216) rotate(85.3036) scale(19.7613)">
<stop stop-color="#D2D2D2"/>
<stop offset="1" stop-color="#FAFAFA"/>
</radialGradient>
</defs>
</svg>
