<svg width="374" height="139" viewBox="0 0 374 139" fill="none" xmlns="http://www.w3.org/2000/svg">
<g opacity="0.5">
<rect x="6.10352e-05" y="18.3018" width="25.8816" height="25.8816" rx="5.03638" transform="rotate(-45 6.10352e-05 18.3018)" fill="url(#paint0_radial_1296_18317)" fill-opacity="0.5"/>
<rect x="48.2031" y="18.3013" width="25.8816" height="25.8816" rx="5.03638" transform="rotate(-45 48.2031 18.3013)" fill="url(#paint1_radial_1296_18317)" fill-opacity="0.5"/>
<rect x="96.3975" y="18.3013" width="25.8816" height="25.8816" rx="5.03638" transform="rotate(-45 96.3975 18.3013)" fill="url(#paint2_radial_1296_18317)" fill-opacity="0.5"/>
<rect x="144.598" y="18.3013" width="25.8816" height="25.8816" rx="5.03638" transform="rotate(-45 144.598 18.3013)" fill="url(#paint3_radial_1296_18317)" fill-opacity="0.5"/>
<rect x="192.804" y="18.3018" width="25.8816" height="25.8816" rx="5.03638" transform="rotate(-45 192.804 18.3018)" fill="url(#paint4_radial_1296_18317)" fill-opacity="0.5"/>
<rect x="240.998" y="18.3013" width="25.8816" height="25.8816" rx="5.03638" transform="rotate(-45 240.998 18.3013)" fill="url(#paint5_radial_1296_18317)" fill-opacity="0.5"/>
<rect x="289.198" y="18.3013" width="25.8816" height="25.8816" rx="5.03638" transform="rotate(-45 289.198 18.3013)" fill="url(#paint6_radial_1296_18317)" fill-opacity="0.5"/>
<rect x="337.397" y="18.3013" width="25.8816" height="25.8816" rx="5.03638" transform="rotate(-45 337.397 18.3013)" fill="url(#paint7_radial_1296_18317)" fill-opacity="0.5"/>
</g>
<g opacity="0.5">
<rect y="116.87" width="25.8816" height="25.8816" rx="5.03638" transform="rotate(-45 0 116.87)" fill="url(#paint8_radial_1296_18317)" fill-opacity="0.5"/>
<rect x="48.2031" y="116.87" width="25.8816" height="25.8816" rx="5.03638" transform="rotate(-45 48.2031 116.87)" fill="url(#paint9_radial_1296_18317)" fill-opacity="0.5"/>
<rect x="96.3975" y="116.87" width="25.8816" height="25.8816" rx="5.03638" transform="rotate(-45 96.3975 116.87)" fill="url(#paint10_radial_1296_18317)" fill-opacity="0.5"/>
<rect x="144.598" y="116.87" width="25.8816" height="25.8816" rx="5.03638" transform="rotate(-45 144.598 116.87)" fill="url(#paint11_radial_1296_18317)" fill-opacity="0.5"/>
<rect x="192.804" y="116.87" width="25.8816" height="25.8816" rx="5.03638" transform="rotate(-45 192.804 116.87)" fill="url(#paint12_radial_1296_18317)" fill-opacity="0.5"/>
<rect x="240.998" y="116.87" width="25.8816" height="25.8816" rx="5.03638" transform="rotate(-45 240.998 116.87)" fill="url(#paint13_radial_1296_18317)" fill-opacity="0.5"/>
<rect x="289.198" y="116.87" width="25.8816" height="25.8816" rx="5.03638" transform="rotate(-45 289.198 116.87)" fill="url(#paint14_radial_1296_18317)" fill-opacity="0.5"/>
<rect x="337.397" y="116.87" width="25.8816" height="25.8816" rx="5.03638" transform="rotate(-45 337.397 116.87)" fill="url(#paint15_radial_1296_18317)" fill-opacity="0.5"/>
</g>
<g opacity="0.5">
<rect y="67.585" width="25.8816" height="25.8816" rx="5.03638" transform="rotate(-45 0 67.585)" fill="url(#paint16_radial_1296_18317)" fill-opacity="0.5"/>
<rect x="48.2031" y="67.585" width="25.8816" height="25.8816" rx="5.03638" transform="rotate(-45 48.2031 67.585)" fill="url(#paint17_radial_1296_18317)" fill-opacity="0.5"/>
<rect x="96.3984" y="67.585" width="25.8816" height="25.8816" rx="5.03638" transform="rotate(-45 96.3984 67.585)" fill="url(#paint18_radial_1296_18317)" fill-opacity="0.5"/>
<rect width="25.8816" height="25.8816" rx="5.03638" transform="matrix(0.707103 -0.707111 0.707103 0.707111 144.598 67.585)" fill="url(#paint19_radial_1296_18317)" fill-opacity="0.5"/>
<rect x="192.804" y="67.585" width="25.8816" height="25.8816" rx="5.03638" transform="rotate(-45 192.804 67.585)" fill="url(#paint20_radial_1296_18317)" fill-opacity="0.5"/>
<rect x="240.998" y="67.585" width="25.8816" height="25.8816" rx="5.03638" transform="rotate(-45 240.998 67.585)" fill="url(#paint21_radial_1296_18317)" fill-opacity="0.5"/>
<rect x="289.198" y="67.585" width="25.8816" height="25.8816" rx="5.03638" transform="rotate(-45 289.198 67.585)" fill="url(#paint22_radial_1296_18317)" fill-opacity="0.5"/>
<rect x="337.397" y="67.585" width="25.8816" height="25.8816" rx="5.03638" transform="rotate(-45 337.397 67.585)" fill="url(#paint23_radial_1296_18317)" fill-opacity="0.5"/>
</g>
<defs>
<radialGradient id="paint0_radial_1296_18317" cx="0" cy="0" r="1" gradientUnits="userSpaceOnUse" gradientTransform="translate(12.9409 31.2425) rotate(85.3036) scale(24.8037)">
<stop stop-color="#D2D2D2"/>
<stop offset="1" stop-color="#FAFAFA"/>
</radialGradient>
<radialGradient id="paint1_radial_1296_18317" cx="0" cy="0" r="1" gradientUnits="userSpaceOnUse" gradientTransform="translate(61.1439 31.2421) rotate(85.3036) scale(24.8037)">
<stop stop-color="#D2D2D2"/>
<stop offset="1" stop-color="#FAFAFA"/>
</radialGradient>
<radialGradient id="paint2_radial_1296_18317" cx="0" cy="0" r="1" gradientUnits="userSpaceOnUse" gradientTransform="translate(109.338 31.2421) rotate(85.3036) scale(24.8037)">
<stop stop-color="#D2D2D2"/>
<stop offset="1" stop-color="#FAFAFA"/>
</radialGradient>
<radialGradient id="paint3_radial_1296_18317" cx="0" cy="0" r="1" gradientUnits="userSpaceOnUse" gradientTransform="translate(157.538 31.2421) rotate(85.3036) scale(24.8037)">
<stop stop-color="#D2D2D2"/>
<stop offset="1" stop-color="#FAFAFA"/>
</radialGradient>
<radialGradient id="paint4_radial_1296_18317" cx="0" cy="0" r="1" gradientUnits="userSpaceOnUse" gradientTransform="translate(205.744 31.2425) rotate(85.3036) scale(24.8037)">
<stop stop-color="#D2D2D2"/>
<stop offset="1" stop-color="#FAFAFA"/>
</radialGradient>
<radialGradient id="paint5_radial_1296_18317" cx="0" cy="0" r="1" gradientUnits="userSpaceOnUse" gradientTransform="translate(253.939 31.2421) rotate(85.3036) scale(24.8037)">
<stop stop-color="#D2D2D2"/>
<stop offset="1" stop-color="#FAFAFA"/>
</radialGradient>
<radialGradient id="paint6_radial_1296_18317" cx="0" cy="0" r="1" gradientUnits="userSpaceOnUse" gradientTransform="translate(302.139 31.2421) rotate(85.3036) scale(24.8037)">
<stop stop-color="#D2D2D2"/>
<stop offset="1" stop-color="#FAFAFA"/>
</radialGradient>
<radialGradient id="paint7_radial_1296_18317" cx="0" cy="0" r="1" gradientUnits="userSpaceOnUse" gradientTransform="translate(350.338 31.2421) rotate(85.3036) scale(24.8037)">
<stop stop-color="#D2D2D2"/>
<stop offset="1" stop-color="#FAFAFA"/>
</radialGradient>
<radialGradient id="paint8_radial_1296_18317" cx="0" cy="0" r="1" gradientUnits="userSpaceOnUse" gradientTransform="translate(12.9408 129.81) rotate(85.3036) scale(24.8037)">
<stop stop-color="#D2D2D2"/>
<stop offset="1" stop-color="#FAFAFA"/>
</radialGradient>
<radialGradient id="paint9_radial_1296_18317" cx="0" cy="0" r="1" gradientUnits="userSpaceOnUse" gradientTransform="translate(61.1439 129.81) rotate(85.3036) scale(24.8037)">
<stop stop-color="#D2D2D2"/>
<stop offset="1" stop-color="#FAFAFA"/>
</radialGradient>
<radialGradient id="paint10_radial_1296_18317" cx="0" cy="0" r="1" gradientUnits="userSpaceOnUse" gradientTransform="translate(109.338 129.81) rotate(85.3036) scale(24.8037)">
<stop stop-color="#D2D2D2"/>
<stop offset="1" stop-color="#FAFAFA"/>
</radialGradient>
<radialGradient id="paint11_radial_1296_18317" cx="0" cy="0" r="1" gradientUnits="userSpaceOnUse" gradientTransform="translate(157.538 129.81) rotate(85.3036) scale(24.8037)">
<stop stop-color="#D2D2D2"/>
<stop offset="1" stop-color="#FAFAFA"/>
</radialGradient>
<radialGradient id="paint12_radial_1296_18317" cx="0" cy="0" r="1" gradientUnits="userSpaceOnUse" gradientTransform="translate(205.744 129.81) rotate(85.3036) scale(24.8037)">
<stop stop-color="#D2D2D2"/>
<stop offset="1" stop-color="#FAFAFA"/>
</radialGradient>
<radialGradient id="paint13_radial_1296_18317" cx="0" cy="0" r="1" gradientUnits="userSpaceOnUse" gradientTransform="translate(253.939 129.81) rotate(85.3036) scale(24.8037)">
<stop stop-color="#D2D2D2"/>
<stop offset="1" stop-color="#FAFAFA"/>
</radialGradient>
<radialGradient id="paint14_radial_1296_18317" cx="0" cy="0" r="1" gradientUnits="userSpaceOnUse" gradientTransform="translate(302.139 129.81) rotate(85.3036) scale(24.8037)">
<stop stop-color="#D2D2D2"/>
<stop offset="1" stop-color="#FAFAFA"/>
</radialGradient>
<radialGradient id="paint15_radial_1296_18317" cx="0" cy="0" r="1" gradientUnits="userSpaceOnUse" gradientTransform="translate(350.338 129.81) rotate(85.3036) scale(24.8037)">
<stop stop-color="#D2D2D2"/>
<stop offset="1" stop-color="#FAFAFA"/>
</radialGradient>
<radialGradient id="paint16_radial_1296_18317" cx="0" cy="0" r="1" gradientUnits="userSpaceOnUse" gradientTransform="translate(12.9408 80.5258) rotate(85.3036) scale(24.8037)">
<stop stop-color="#D2D2D2"/>
<stop offset="1" stop-color="#FAFAFA"/>
</radialGradient>
<radialGradient id="paint17_radial_1296_18317" cx="0" cy="0" r="1" gradientUnits="userSpaceOnUse" gradientTransform="translate(61.1439 80.5258) rotate(85.3036) scale(24.8037)">
<stop stop-color="#D2D2D2"/>
<stop offset="1" stop-color="#FAFAFA"/>
</radialGradient>
<radialGradient id="paint18_radial_1296_18317" cx="0" cy="0" r="1" gradientUnits="userSpaceOnUse" gradientTransform="translate(109.339 80.5258) rotate(85.3036) scale(24.8037)">
<stop stop-color="#D2D2D2"/>
<stop offset="1" stop-color="#FAFAFA"/>
</radialGradient>
<radialGradient id="paint19_radial_1296_18317" cx="0" cy="0" r="1" gradientUnits="userSpaceOnUse" gradientTransform="translate(12.9408 12.9408) rotate(85.3036) scale(24.8037)">
<stop stop-color="#D2D2D2"/>
<stop offset="1" stop-color="#FAFAFA"/>
</radialGradient>
<radialGradient id="paint20_radial_1296_18317" cx="0" cy="0" r="1" gradientUnits="userSpaceOnUse" gradientTransform="translate(205.744 80.5258) rotate(85.3036) scale(24.8037)">
<stop stop-color="#D2D2D2"/>
<stop offset="1" stop-color="#FAFAFA"/>
</radialGradient>
<radialGradient id="paint21_radial_1296_18317" cx="0" cy="0" r="1" gradientUnits="userSpaceOnUse" gradientTransform="translate(253.939 80.5258) rotate(85.3036) scale(24.8037)">
<stop stop-color="#D2D2D2"/>
<stop offset="1" stop-color="#FAFAFA"/>
</radialGradient>
<radialGradient id="paint22_radial_1296_18317" cx="0" cy="0" r="1" gradientUnits="userSpaceOnUse" gradientTransform="translate(302.139 80.5258) rotate(85.3036) scale(24.8037)">
<stop stop-color="#D2D2D2"/>
<stop offset="1" stop-color="#FAFAFA"/>
</radialGradient>
<radialGradient id="paint23_radial_1296_18317" cx="0" cy="0" r="1" gradientUnits="userSpaceOnUse" gradientTransform="translate(350.338 80.5258) rotate(85.3036) scale(24.8037)">
<stop stop-color="#D2D2D2"/>
<stop offset="1" stop-color="#FAFAFA"/>
</radialGradient>
</defs>
</svg>
