<svg width="152" height="184" viewBox="0 0 152 184" fill="none" xmlns="http://www.w3.org/2000/svg">
<rect y="11.8958" width="16.8232" height="16.8232" rx="3.76881" transform="rotate(-45 0 11.8958)" fill="url(#paint0_radial_702_813)" fill-opacity="0.5"/>
<rect x="31.3311" y="11.8958" width="16.8232" height="16.8232" rx="3.76881" transform="rotate(-45 31.3311 11.8958)" fill="url(#paint1_radial_702_813)" fill-opacity="0.5"/>
<rect x="62.6592" y="11.8958" width="16.8232" height="16.8232" rx="3.76881" transform="rotate(-45 62.6592 11.8958)" fill="url(#paint2_radial_702_813)" fill-opacity="0.5"/>
<rect x="93.9941" y="11.8958" width="16.8232" height="16.8232" rx="3.76881" transform="rotate(-45 93.9941 11.8958)" fill="url(#paint3_radial_702_813)" fill-opacity="0.5"/>
<rect x="125.32" y="11.8958" width="16.8232" height="16.8232" rx="3.76881" transform="rotate(-45 125.32 11.8958)" fill="url(#paint4_radial_702_813)" fill-opacity="0.5"/>
<rect y="75.9664" width="16.8232" height="16.8232" rx="3.76881" transform="rotate(-45 0 75.9664)" fill="url(#paint5_radial_702_813)" fill-opacity="0.5"/>
<rect x="31.3311" y="75.9664" width="16.8232" height="16.8232" rx="3.76881" transform="rotate(-45 31.3311 75.9664)" fill="url(#paint6_radial_702_813)" fill-opacity="0.5"/>
<rect x="62.6592" y="75.9664" width="16.8232" height="16.8232" rx="3.76881" transform="rotate(-45 62.6592 75.9664)" fill="url(#paint7_radial_702_813)" fill-opacity="0.5"/>
<rect x="93.9941" y="75.9664" width="16.8232" height="16.8232" rx="3.76881" transform="rotate(-45 93.9941 75.9664)" fill="url(#paint8_radial_702_813)" fill-opacity="0.5"/>
<rect x="125.32" y="75.9664" width="16.8232" height="16.8232" rx="3.76881" transform="rotate(-45 125.32 75.9664)" fill="url(#paint9_radial_702_813)" fill-opacity="0.5"/>
<rect y="140.035" width="16.8232" height="16.8232" rx="3.76881" transform="rotate(-45 0 140.035)" fill="url(#paint10_radial_702_813)" fill-opacity="0.5"/>
<rect x="31.3311" y="140.035" width="16.8232" height="16.8232" rx="3.76881" transform="rotate(-45 31.3311 140.035)" fill="url(#paint11_radial_702_813)" fill-opacity="0.5"/>
<rect x="62.6592" y="140.035" width="16.8232" height="16.8232" rx="3.76881" transform="rotate(-45 62.6592 140.035)" fill="url(#paint12_radial_702_813)" fill-opacity="0.5"/>
<rect x="93.9941" y="140.035" width="16.8232" height="16.8232" rx="3.76881" transform="rotate(-45 93.9941 140.035)" fill="url(#paint13_radial_702_813)" fill-opacity="0.5"/>
<rect x="125.32" y="140.035" width="16.8232" height="16.8232" rx="3.76881" transform="rotate(-45 125.32 140.035)" fill="url(#paint14_radial_702_813)" fill-opacity="0.5"/>
<rect y="43.9309" width="16.8232" height="16.8232" rx="3.76881" transform="rotate(-45 0 43.9309)" fill="url(#paint15_radial_702_813)" fill-opacity="0.5"/>
<rect x="31.3311" y="43.9309" width="16.8232" height="16.8232" rx="3.76881" transform="rotate(-45 31.3311 43.9309)" fill="url(#paint16_radial_702_813)" fill-opacity="0.5"/>
<rect x="62.6592" y="43.9309" width="16.8232" height="16.8232" rx="3.76881" transform="rotate(-45 62.6592 43.9309)" fill="url(#paint17_radial_702_813)" fill-opacity="0.5"/>
<rect x="93.9941" y="43.931" width="16.8232" height="16.8232" rx="3.76881" transform="rotate(-45 93.9941 43.931)" fill="url(#paint18_radial_702_813)" fill-opacity="0.5"/>
<rect x="125.32" y="43.931" width="16.8232" height="16.8232" rx="3.76881" transform="rotate(-45 125.32 43.931)" fill="url(#paint19_radial_702_813)" fill-opacity="0.5"/>
<rect y="108.001" width="16.8232" height="16.8232" rx="3.76881" transform="rotate(-45 0 108.001)" fill="url(#paint20_radial_702_813)" fill-opacity="0.5"/>
<rect x="31.3311" y="108.001" width="16.8232" height="16.8232" rx="3.76881" transform="rotate(-45 31.3311 108.001)" fill="url(#paint21_radial_702_813)" fill-opacity="0.5"/>
<rect x="62.6592" y="108.001" width="16.8232" height="16.8232" rx="3.76881" transform="rotate(-45 62.6592 108.001)" fill="url(#paint22_radial_702_813)" fill-opacity="0.5"/>
<rect x="93.9941" y="108.001" width="16.8232" height="16.8232" rx="3.76881" transform="rotate(-45 93.9941 108.001)" fill="url(#paint23_radial_702_813)" fill-opacity="0.5"/>
<rect x="125.32" y="108.001" width="16.8232" height="16.8232" rx="3.76881" transform="rotate(-45 125.32 108.001)" fill="url(#paint24_radial_702_813)" fill-opacity="0.5"/>
<rect y="172.071" width="16.8232" height="16.8232" rx="3.76881" transform="rotate(-45 0 172.071)" fill="url(#paint25_radial_702_813)" fill-opacity="0.5"/>
<rect x="31.3311" y="172.07" width="16.8232" height="16.8232" rx="3.76881" transform="rotate(-45 31.3311 172.07)" fill="url(#paint26_radial_702_813)" fill-opacity="0.5"/>
<rect x="62.6592" y="172.07" width="16.8232" height="16.8232" rx="3.76881" transform="rotate(-45 62.6592 172.07)" fill="url(#paint27_radial_702_813)" fill-opacity="0.5"/>
<rect x="93.9941" y="172.071" width="16.8232" height="16.8232" rx="3.76881" transform="rotate(-45 93.9941 172.071)" fill="url(#paint28_radial_702_813)" fill-opacity="0.5"/>
<rect x="125.32" y="172.07" width="16.8232" height="16.8232" rx="3.76881" transform="rotate(-45 125.32 172.07)" fill="url(#paint29_radial_702_813)" fill-opacity="0.5"/>
<defs>
<radialGradient id="paint0_radial_702_813" cx="0" cy="0" r="1" gradientUnits="userSpaceOnUse" gradientTransform="translate(8.4116 20.3074) rotate(85.3036) scale(16.1226)">
<stop stop-color="#F6F5F5"/>
<stop offset="1" stop-color="#FAFAFA"/>
</radialGradient>
<radialGradient id="paint1_radial_702_813" cx="0" cy="0" r="1" gradientUnits="userSpaceOnUse" gradientTransform="translate(39.7427 20.3074) rotate(85.3036) scale(16.1226)">
<stop stop-color="#F6F5F5"/>
<stop offset="1" stop-color="#FAFAFA"/>
</radialGradient>
<radialGradient id="paint2_radial_702_813" cx="0" cy="0" r="1" gradientUnits="userSpaceOnUse" gradientTransform="translate(71.0708 20.3074) rotate(85.3036) scale(16.1226)">
<stop stop-color="#F6F5F5"/>
<stop offset="1" stop-color="#FAFAFA"/>
</radialGradient>
<radialGradient id="paint3_radial_702_813" cx="0" cy="0" r="1" gradientUnits="userSpaceOnUse" gradientTransform="translate(102.406 20.3074) rotate(85.3036) scale(16.1226)">
<stop stop-color="#F6F5F5"/>
<stop offset="1" stop-color="#FAFAFA"/>
</radialGradient>
<radialGradient id="paint4_radial_702_813" cx="0" cy="0" r="1" gradientUnits="userSpaceOnUse" gradientTransform="translate(133.732 20.3074) rotate(85.3036) scale(16.1226)">
<stop stop-color="#F6F5F5"/>
<stop offset="1" stop-color="#FAFAFA"/>
</radialGradient>
<radialGradient id="paint5_radial_702_813" cx="0" cy="0" r="1" gradientUnits="userSpaceOnUse" gradientTransform="translate(8.4116 84.378) rotate(85.3036) scale(16.1226)">
<stop stop-color="#F6F5F5"/>
<stop offset="1" stop-color="#FAFAFA"/>
</radialGradient>
<radialGradient id="paint6_radial_702_813" cx="0" cy="0" r="1" gradientUnits="userSpaceOnUse" gradientTransform="translate(39.7427 84.378) rotate(85.3036) scale(16.1226)">
<stop stop-color="#F6F5F5"/>
<stop offset="1" stop-color="#FAFAFA"/>
</radialGradient>
<radialGradient id="paint7_radial_702_813" cx="0" cy="0" r="1" gradientUnits="userSpaceOnUse" gradientTransform="translate(71.0708 84.378) rotate(85.3036) scale(16.1226)">
<stop stop-color="#F6F5F5"/>
<stop offset="1" stop-color="#FAFAFA"/>
</radialGradient>
<radialGradient id="paint8_radial_702_813" cx="0" cy="0" r="1" gradientUnits="userSpaceOnUse" gradientTransform="translate(102.406 84.378) rotate(85.3036) scale(16.1226)">
<stop stop-color="#F6F5F5"/>
<stop offset="1" stop-color="#FAFAFA"/>
</radialGradient>
<radialGradient id="paint9_radial_702_813" cx="0" cy="0" r="1" gradientUnits="userSpaceOnUse" gradientTransform="translate(133.732 84.378) rotate(85.3036) scale(16.1226)">
<stop stop-color="#F6F5F5"/>
<stop offset="1" stop-color="#FAFAFA"/>
</radialGradient>
<radialGradient id="paint10_radial_702_813" cx="0" cy="0" r="1" gradientUnits="userSpaceOnUse" gradientTransform="translate(8.4116 148.447) rotate(85.3036) scale(16.1226)">
<stop stop-color="#F6F5F5"/>
<stop offset="1" stop-color="#FAFAFA"/>
</radialGradient>
<radialGradient id="paint11_radial_702_813" cx="0" cy="0" r="1" gradientUnits="userSpaceOnUse" gradientTransform="translate(39.7427 148.447) rotate(85.3036) scale(16.1226)">
<stop stop-color="#F6F5F5"/>
<stop offset="1" stop-color="#FAFAFA"/>
</radialGradient>
<radialGradient id="paint12_radial_702_813" cx="0" cy="0" r="1" gradientUnits="userSpaceOnUse" gradientTransform="translate(71.0708 148.447) rotate(85.3036) scale(16.1226)">
<stop stop-color="#F6F5F5"/>
<stop offset="1" stop-color="#FAFAFA"/>
</radialGradient>
<radialGradient id="paint13_radial_702_813" cx="0" cy="0" r="1" gradientUnits="userSpaceOnUse" gradientTransform="translate(102.406 148.447) rotate(85.3036) scale(16.1226)">
<stop stop-color="#F6F5F5"/>
<stop offset="1" stop-color="#FAFAFA"/>
</radialGradient>
<radialGradient id="paint14_radial_702_813" cx="0" cy="0" r="1" gradientUnits="userSpaceOnUse" gradientTransform="translate(133.732 148.447) rotate(85.3036) scale(16.1226)">
<stop stop-color="#F6F5F5"/>
<stop offset="1" stop-color="#FAFAFA"/>
</radialGradient>
<radialGradient id="paint15_radial_702_813" cx="0" cy="0" r="1" gradientUnits="userSpaceOnUse" gradientTransform="translate(8.4116 52.3425) rotate(85.3036) scale(16.1226)">
<stop stop-color="#F6F5F5"/>
<stop offset="1" stop-color="#FAFAFA"/>
</radialGradient>
<radialGradient id="paint16_radial_702_813" cx="0" cy="0" r="1" gradientUnits="userSpaceOnUse" gradientTransform="translate(39.7427 52.3425) rotate(85.3036) scale(16.1226)">
<stop stop-color="#F6F5F5"/>
<stop offset="1" stop-color="#FAFAFA"/>
</radialGradient>
<radialGradient id="paint17_radial_702_813" cx="0" cy="0" r="1" gradientUnits="userSpaceOnUse" gradientTransform="translate(71.0708 52.3425) rotate(85.3036) scale(16.1226)">
<stop stop-color="#F6F5F5"/>
<stop offset="1" stop-color="#FAFAFA"/>
</radialGradient>
<radialGradient id="paint18_radial_702_813" cx="0" cy="0" r="1" gradientUnits="userSpaceOnUse" gradientTransform="translate(102.406 52.3426) rotate(85.3036) scale(16.1226)">
<stop stop-color="#F6F5F5"/>
<stop offset="1" stop-color="#FAFAFA"/>
</radialGradient>
<radialGradient id="paint19_radial_702_813" cx="0" cy="0" r="1" gradientUnits="userSpaceOnUse" gradientTransform="translate(133.732 52.3426) rotate(85.3036) scale(16.1226)">
<stop stop-color="#F6F5F5"/>
<stop offset="1" stop-color="#FAFAFA"/>
</radialGradient>
<radialGradient id="paint20_radial_702_813" cx="0" cy="0" r="1" gradientUnits="userSpaceOnUse" gradientTransform="translate(8.4116 116.413) rotate(85.3036) scale(16.1226)">
<stop stop-color="#F6F5F5"/>
<stop offset="1" stop-color="#FAFAFA"/>
</radialGradient>
<radialGradient id="paint21_radial_702_813" cx="0" cy="0" r="1" gradientUnits="userSpaceOnUse" gradientTransform="translate(39.7427 116.413) rotate(85.3036) scale(16.1226)">
<stop stop-color="#F6F5F5"/>
<stop offset="1" stop-color="#FAFAFA"/>
</radialGradient>
<radialGradient id="paint22_radial_702_813" cx="0" cy="0" r="1" gradientUnits="userSpaceOnUse" gradientTransform="translate(71.0708 116.413) rotate(85.3036) scale(16.1226)">
<stop stop-color="#F6F5F5"/>
<stop offset="1" stop-color="#FAFAFA"/>
</radialGradient>
<radialGradient id="paint23_radial_702_813" cx="0" cy="0" r="1" gradientUnits="userSpaceOnUse" gradientTransform="translate(102.406 116.413) rotate(85.3036) scale(16.1226)">
<stop stop-color="#F6F5F5"/>
<stop offset="1" stop-color="#FAFAFA"/>
</radialGradient>
<radialGradient id="paint24_radial_702_813" cx="0" cy="0" r="1" gradientUnits="userSpaceOnUse" gradientTransform="translate(133.732 116.413) rotate(85.3036) scale(16.1226)">
<stop stop-color="#F6F5F5"/>
<stop offset="1" stop-color="#FAFAFA"/>
</radialGradient>
<radialGradient id="paint25_radial_702_813" cx="0" cy="0" r="1" gradientUnits="userSpaceOnUse" gradientTransform="translate(8.4116 180.482) rotate(85.3036) scale(16.1226)">
<stop stop-color="#F6F5F5"/>
<stop offset="1" stop-color="#FAFAFA"/>
</radialGradient>
<radialGradient id="paint26_radial_702_813" cx="0" cy="0" r="1" gradientUnits="userSpaceOnUse" gradientTransform="translate(39.7427 180.482) rotate(85.3036) scale(16.1226)">
<stop stop-color="#F6F5F5"/>
<stop offset="1" stop-color="#FAFAFA"/>
</radialGradient>
<radialGradient id="paint27_radial_702_813" cx="0" cy="0" r="1" gradientUnits="userSpaceOnUse" gradientTransform="translate(71.0708 180.482) rotate(85.3036) scale(16.1226)">
<stop stop-color="#F6F5F5"/>
<stop offset="1" stop-color="#FAFAFA"/>
</radialGradient>
<radialGradient id="paint28_radial_702_813" cx="0" cy="0" r="1" gradientUnits="userSpaceOnUse" gradientTransform="translate(102.406 180.482) rotate(85.3036) scale(16.1226)">
<stop stop-color="#F6F5F5"/>
<stop offset="1" stop-color="#FAFAFA"/>
</radialGradient>
<radialGradient id="paint29_radial_702_813" cx="0" cy="0" r="1" gradientUnits="userSpaceOnUse" gradientTransform="translate(133.732 180.482) rotate(85.3036) scale(16.1226)">
<stop stop-color="#F6F5F5"/>
<stop offset="1" stop-color="#FAFAFA"/>
</radialGradient>
</defs>
</svg>
