<svg width="426" height="322" viewBox="0 0 426 322" fill="none" xmlns="http://www.w3.org/2000/svg">
<g opacity="0.7">
<g opacity="0.5">
<rect y="20.8223" width="29.4458" height="29.4458" rx="6.59659" transform="rotate(-45 0 20.8223)" fill="url(#paint0_radial_1296_17822)"/>
<rect x="54.8359" y="20.8213" width="29.4458" height="29.4458" rx="6.59659" transform="rotate(-45 54.8359 20.8213)" fill="url(#paint1_radial_1296_17822)"/>
<rect x="109.672" y="20.8213" width="29.4458" height="29.4458" rx="6.59659" transform="rotate(-45 109.672 20.8213)" fill="url(#paint2_radial_1296_17822)"/>
<rect x="164.518" y="20.8213" width="29.4458" height="29.4458" rx="6.59659" transform="rotate(-45 164.518 20.8213)" fill="url(#paint3_radial_1296_17822)"/>
<rect x="219.349" y="20.8213" width="29.4458" height="29.4458" rx="6.59659" transform="rotate(-45 219.349 20.8213)" fill="url(#paint4_radial_1296_17822)"/>
<rect x="274.189" y="20.8213" width="29.4458" height="29.4458" rx="6.59659" transform="rotate(-45 274.189 20.8213)" fill="url(#paint5_radial_1296_17822)"/>
<rect x="329.029" y="20.8213" width="29.4458" height="29.4458" rx="6.59659" transform="rotate(-45 329.029 20.8213)" fill="url(#paint6_radial_1296_17822)"/>
<rect x="383.857" y="20.8213" width="29.4458" height="29.4458" rx="6.59659" transform="rotate(-45 383.857 20.8213)" fill="url(#paint7_radial_1296_17822)"/>
</g>
<g opacity="0.5">
<rect y="132.964" width="29.4458" height="29.4458" rx="6.59659" transform="rotate(-45 0 132.964)" fill="url(#paint8_radial_1296_17822)"/>
<rect x="54.8359" y="132.964" width="29.4458" height="29.4458" rx="6.59659" transform="rotate(-45 54.8359 132.964)" fill="url(#paint9_radial_1296_17822)"/>
<rect x="109.672" y="132.964" width="29.4458" height="29.4458" rx="6.59659" transform="rotate(-45 109.672 132.964)" fill="url(#paint10_radial_1296_17822)"/>
<rect x="164.518" y="132.964" width="29.4458" height="29.4458" rx="6.59659" transform="rotate(-45 164.518 132.964)" fill="url(#paint11_radial_1296_17822)"/>
<rect x="219.349" y="132.964" width="29.4458" height="29.4458" rx="6.59659" transform="rotate(-45 219.349 132.964)" fill="url(#paint12_radial_1296_17822)"/>
<rect x="274.189" y="132.964" width="29.4458" height="29.4458" rx="6.59659" transform="rotate(-45 274.189 132.964)" fill="url(#paint13_radial_1296_17822)"/>
<rect x="329.029" y="132.964" width="29.4458" height="29.4458" rx="6.59659" transform="rotate(-45 329.029 132.964)" fill="url(#paint14_radial_1296_17822)"/>
<rect x="383.857" y="132.964" width="29.4458" height="29.4458" rx="6.59659" transform="rotate(-45 383.857 132.964)" fill="url(#paint15_radial_1296_17822)"/>
</g>
<g opacity="0.5">
<rect y="245.107" width="29.4458" height="29.4458" rx="6.59659" transform="rotate(-45 0 245.107)" fill="url(#paint16_radial_1296_17822)"/>
<rect x="54.8359" y="245.106" width="29.4458" height="29.4458" rx="6.59659" transform="rotate(-45 54.8359 245.106)" fill="url(#paint17_radial_1296_17822)"/>
<rect x="109.672" y="245.106" width="29.4458" height="29.4458" rx="6.59659" transform="rotate(-45 109.672 245.106)" fill="url(#paint18_radial_1296_17822)"/>
<rect x="164.517" y="245.107" width="29.4458" height="29.4458" rx="6.59659" transform="rotate(-45 164.517 245.107)" fill="url(#paint19_radial_1296_17822)"/>
<rect x="219.349" y="245.106" width="29.4458" height="29.4458" rx="6.59659" transform="rotate(-45 219.349 245.106)" fill="url(#paint20_radial_1296_17822)"/>
<rect x="274.189" y="245.106" width="29.4458" height="29.4458" rx="6.59659" transform="rotate(-45 274.189 245.106)" fill="url(#paint21_radial_1296_17822)"/>
<rect x="329.029" y="245.106" width="29.4458" height="29.4458" rx="6.59659" transform="rotate(-45 329.029 245.106)" fill="url(#paint22_radial_1296_17822)"/>
<rect x="383.857" y="245.106" width="29.4458" height="29.4458" rx="6.59659" transform="rotate(-45 383.857 245.106)" fill="url(#paint23_radial_1296_17822)"/>
</g>
<g opacity="0.5">
<rect y="76.8931" width="29.4458" height="29.4458" rx="6.59659" transform="rotate(-45 0 76.8931)" fill="url(#paint24_radial_1296_17822)"/>
<rect x="54.8359" y="76.8921" width="29.4458" height="29.4458" rx="6.59659" transform="rotate(-45 54.8359 76.8921)" fill="url(#paint25_radial_1296_17822)"/>
<rect x="109.672" y="76.8921" width="29.4458" height="29.4458" rx="6.59659" transform="rotate(-45 109.672 76.8921)" fill="url(#paint26_radial_1296_17822)"/>
<rect x="164.518" y="76.8921" width="29.4458" height="29.4458" rx="6.59659" transform="rotate(-45 164.518 76.8921)" fill="url(#paint27_radial_1296_17822)"/>
<rect x="219.349" y="76.8921" width="29.4458" height="29.4458" rx="6.59659" transform="rotate(-45 219.349 76.8921)" fill="url(#paint28_radial_1296_17822)"/>
<rect x="274.189" y="76.8921" width="29.4458" height="29.4458" rx="6.59659" transform="rotate(-45 274.189 76.8921)" fill="url(#paint29_radial_1296_17822)"/>
<rect x="329.029" y="76.8921" width="29.4458" height="29.4458" rx="6.59659" transform="rotate(-45 329.029 76.8921)" fill="url(#paint30_radial_1296_17822)"/>
<rect x="383.857" y="76.8921" width="29.4458" height="29.4458" rx="6.59659" transform="rotate(-45 383.857 76.8921)" fill="url(#paint31_radial_1296_17822)"/>
</g>
<g opacity="0.5">
<rect y="189.036" width="29.4458" height="29.4458" rx="6.59659" transform="rotate(-45 0 189.036)" fill="url(#paint32_radial_1296_17822)"/>
<rect x="54.8359" y="189.036" width="29.4458" height="29.4458" rx="6.59659" transform="rotate(-45 54.8359 189.036)" fill="url(#paint33_radial_1296_17822)"/>
<rect x="109.672" y="189.036" width="29.4458" height="29.4458" rx="6.59659" transform="rotate(-45 109.672 189.036)" fill="url(#paint34_radial_1296_17822)"/>
<rect x="164.518" y="189.036" width="29.4458" height="29.4458" rx="6.59659" transform="rotate(-45 164.518 189.036)" fill="url(#paint35_radial_1296_17822)"/>
<rect x="219.349" y="189.036" width="29.4458" height="29.4458" rx="6.59659" transform="rotate(-45 219.349 189.036)" fill="url(#paint36_radial_1296_17822)"/>
<rect x="274.189" y="189.036" width="29.4458" height="29.4458" rx="6.59659" transform="rotate(-45 274.189 189.036)" fill="url(#paint37_radial_1296_17822)"/>
<rect x="329.029" y="189.036" width="29.4458" height="29.4458" rx="6.59659" transform="rotate(-45 329.029 189.036)" fill="url(#paint38_radial_1296_17822)"/>
<rect x="383.857" y="189.036" width="29.4458" height="29.4458" rx="6.59659" transform="rotate(-45 383.857 189.036)" fill="url(#paint39_radial_1296_17822)"/>
</g>
<g opacity="0.5">
<rect y="301.178" width="29.4458" height="29.4458" rx="6.59659" transform="rotate(-45 0 301.178)" fill="url(#paint40_radial_1296_17822)"/>
<rect x="54.8359" y="301.177" width="29.4458" height="29.4458" rx="6.59659" transform="rotate(-45 54.8359 301.177)" fill="url(#paint41_radial_1296_17822)"/>
<rect x="109.672" y="301.177" width="29.4458" height="29.4458" rx="6.59659" transform="rotate(-45 109.672 301.177)" fill="url(#paint42_radial_1296_17822)"/>
<rect x="164.518" y="301.178" width="29.4458" height="29.4458" rx="6.59659" transform="rotate(-45 164.518 301.178)" fill="url(#paint43_radial_1296_17822)"/>
<rect x="219.349" y="301.177" width="29.4458" height="29.4458" rx="6.59659" transform="rotate(-45 219.349 301.177)" fill="url(#paint44_radial_1296_17822)"/>
<rect x="274.189" y="301.177" width="29.4458" height="29.4458" rx="6.59659" transform="rotate(-45 274.189 301.177)" fill="url(#paint45_radial_1296_17822)"/>
<rect x="329.029" y="301.177" width="29.4458" height="29.4458" rx="6.59659" transform="rotate(-45 329.029 301.177)" fill="url(#paint46_radial_1296_17822)"/>
<rect x="383.857" y="301.177" width="29.4458" height="29.4458" rx="6.59659" transform="rotate(-45 383.857 301.177)" fill="url(#paint47_radial_1296_17822)"/>
</g>
</g>
<defs>
<radialGradient id="paint0_radial_1296_17822" cx="0" cy="0" r="1" gradientUnits="userSpaceOnUse" gradientTransform="translate(14.7229 35.5452) rotate(85.3036) scale(28.2195)">
<stop stop-color="#F1F1F1"/>
<stop offset="1" stop-color="#FAFAFA"/>
</radialGradient>
<radialGradient id="paint1_radial_1296_17822" cx="0" cy="0" r="1" gradientUnits="userSpaceOnUse" gradientTransform="translate(69.5589 35.5442) rotate(85.3036) scale(28.2195)">
<stop stop-color="#F1F1F1"/>
<stop offset="1" stop-color="#FAFAFA"/>
</radialGradient>
<radialGradient id="paint2_radial_1296_17822" cx="0" cy="0" r="1" gradientUnits="userSpaceOnUse" gradientTransform="translate(124.395 35.5442) rotate(85.3036) scale(28.2195)">
<stop stop-color="#F1F1F1"/>
<stop offset="1" stop-color="#FAFAFA"/>
</radialGradient>
<radialGradient id="paint3_radial_1296_17822" cx="0" cy="0" r="1" gradientUnits="userSpaceOnUse" gradientTransform="translate(179.241 35.5442) rotate(85.3036) scale(28.2195)">
<stop stop-color="#F1F1F1"/>
<stop offset="1" stop-color="#FAFAFA"/>
</radialGradient>
<radialGradient id="paint4_radial_1296_17822" cx="0" cy="0" r="1" gradientUnits="userSpaceOnUse" gradientTransform="translate(234.072 35.5442) rotate(85.3036) scale(28.2195)">
<stop stop-color="#F1F1F1"/>
<stop offset="1" stop-color="#FAFAFA"/>
</radialGradient>
<radialGradient id="paint5_radial_1296_17822" cx="0" cy="0" r="1" gradientUnits="userSpaceOnUse" gradientTransform="translate(288.912 35.5442) rotate(85.3036) scale(28.2195)">
<stop stop-color="#F1F1F1"/>
<stop offset="1" stop-color="#FAFAFA"/>
</radialGradient>
<radialGradient id="paint6_radial_1296_17822" cx="0" cy="0" r="1" gradientUnits="userSpaceOnUse" gradientTransform="translate(343.752 35.5442) rotate(85.3036) scale(28.2195)">
<stop stop-color="#F1F1F1"/>
<stop offset="1" stop-color="#FAFAFA"/>
</radialGradient>
<radialGradient id="paint7_radial_1296_17822" cx="0" cy="0" r="1" gradientUnits="userSpaceOnUse" gradientTransform="translate(398.58 35.5442) rotate(85.3036) scale(28.2195)">
<stop stop-color="#F1F1F1"/>
<stop offset="1" stop-color="#FAFAFA"/>
</radialGradient>
<radialGradient id="paint8_radial_1296_17822" cx="0" cy="0" r="1" gradientUnits="userSpaceOnUse" gradientTransform="translate(14.7229 147.687) rotate(85.3036) scale(28.2195)">
<stop stop-color="#F1F1F1"/>
<stop offset="1" stop-color="#FAFAFA"/>
</radialGradient>
<radialGradient id="paint9_radial_1296_17822" cx="0" cy="0" r="1" gradientUnits="userSpaceOnUse" gradientTransform="translate(69.5589 147.687) rotate(85.3036) scale(28.2195)">
<stop stop-color="#F1F1F1"/>
<stop offset="1" stop-color="#FAFAFA"/>
</radialGradient>
<radialGradient id="paint10_radial_1296_17822" cx="0" cy="0" r="1" gradientUnits="userSpaceOnUse" gradientTransform="translate(124.395 147.687) rotate(85.3036) scale(28.2195)">
<stop stop-color="#F1F1F1"/>
<stop offset="1" stop-color="#FAFAFA"/>
</radialGradient>
<radialGradient id="paint11_radial_1296_17822" cx="0" cy="0" r="1" gradientUnits="userSpaceOnUse" gradientTransform="translate(179.241 147.687) rotate(85.3036) scale(28.2195)">
<stop stop-color="#F1F1F1"/>
<stop offset="1" stop-color="#FAFAFA"/>
</radialGradient>
<radialGradient id="paint12_radial_1296_17822" cx="0" cy="0" r="1" gradientUnits="userSpaceOnUse" gradientTransform="translate(234.072 147.687) rotate(85.3036) scale(28.2195)">
<stop stop-color="#F1F1F1"/>
<stop offset="1" stop-color="#FAFAFA"/>
</radialGradient>
<radialGradient id="paint13_radial_1296_17822" cx="0" cy="0" r="1" gradientUnits="userSpaceOnUse" gradientTransform="translate(288.912 147.687) rotate(85.3036) scale(28.2195)">
<stop stop-color="#F1F1F1"/>
<stop offset="1" stop-color="#FAFAFA"/>
</radialGradient>
<radialGradient id="paint14_radial_1296_17822" cx="0" cy="0" r="1" gradientUnits="userSpaceOnUse" gradientTransform="translate(343.752 147.687) rotate(85.3036) scale(28.2195)">
<stop stop-color="#F1F1F1"/>
<stop offset="1" stop-color="#FAFAFA"/>
</radialGradient>
<radialGradient id="paint15_radial_1296_17822" cx="0" cy="0" r="1" gradientUnits="userSpaceOnUse" gradientTransform="translate(398.58 147.687) rotate(85.3036) scale(28.2195)">
<stop stop-color="#F1F1F1"/>
<stop offset="1" stop-color="#FAFAFA"/>
</radialGradient>
<radialGradient id="paint16_radial_1296_17822" cx="0" cy="0" r="1" gradientUnits="userSpaceOnUse" gradientTransform="translate(14.7229 259.83) rotate(85.3036) scale(28.2195)">
<stop stop-color="#F1F1F1"/>
<stop offset="1" stop-color="#FAFAFA"/>
</radialGradient>
<radialGradient id="paint17_radial_1296_17822" cx="0" cy="0" r="1" gradientUnits="userSpaceOnUse" gradientTransform="translate(69.5589 259.829) rotate(85.3036) scale(28.2195)">
<stop stop-color="#F1F1F1"/>
<stop offset="1" stop-color="#FAFAFA"/>
</radialGradient>
<radialGradient id="paint18_radial_1296_17822" cx="0" cy="0" r="1" gradientUnits="userSpaceOnUse" gradientTransform="translate(124.395 259.829) rotate(85.3036) scale(28.2195)">
<stop stop-color="#F1F1F1"/>
<stop offset="1" stop-color="#FAFAFA"/>
</radialGradient>
<radialGradient id="paint19_radial_1296_17822" cx="0" cy="0" r="1" gradientUnits="userSpaceOnUse" gradientTransform="translate(179.24 259.83) rotate(85.3036) scale(28.2195)">
<stop stop-color="#F1F1F1"/>
<stop offset="1" stop-color="#FAFAFA"/>
</radialGradient>
<radialGradient id="paint20_radial_1296_17822" cx="0" cy="0" r="1" gradientUnits="userSpaceOnUse" gradientTransform="translate(234.072 259.829) rotate(85.3036) scale(28.2195)">
<stop stop-color="#F1F1F1"/>
<stop offset="1" stop-color="#FAFAFA"/>
</radialGradient>
<radialGradient id="paint21_radial_1296_17822" cx="0" cy="0" r="1" gradientUnits="userSpaceOnUse" gradientTransform="translate(288.912 259.829) rotate(85.3036) scale(28.2195)">
<stop stop-color="#F1F1F1"/>
<stop offset="1" stop-color="#FAFAFA"/>
</radialGradient>
<radialGradient id="paint22_radial_1296_17822" cx="0" cy="0" r="1" gradientUnits="userSpaceOnUse" gradientTransform="translate(343.752 259.829) rotate(85.3036) scale(28.2195)">
<stop stop-color="#F1F1F1"/>
<stop offset="1" stop-color="#FAFAFA"/>
</radialGradient>
<radialGradient id="paint23_radial_1296_17822" cx="0" cy="0" r="1" gradientUnits="userSpaceOnUse" gradientTransform="translate(398.58 259.829) rotate(85.3036) scale(28.2195)">
<stop stop-color="#F1F1F1"/>
<stop offset="1" stop-color="#FAFAFA"/>
</radialGradient>
<radialGradient id="paint24_radial_1296_17822" cx="0" cy="0" r="1" gradientUnits="userSpaceOnUse" gradientTransform="translate(14.7229 91.616) rotate(85.3036) scale(28.2195)">
<stop stop-color="#F1F1F1"/>
<stop offset="1" stop-color="#FAFAFA"/>
</radialGradient>
<radialGradient id="paint25_radial_1296_17822" cx="0" cy="0" r="1" gradientUnits="userSpaceOnUse" gradientTransform="translate(69.5589 91.615) rotate(85.3036) scale(28.2195)">
<stop stop-color="#F1F1F1"/>
<stop offset="1" stop-color="#FAFAFA"/>
</radialGradient>
<radialGradient id="paint26_radial_1296_17822" cx="0" cy="0" r="1" gradientUnits="userSpaceOnUse" gradientTransform="translate(124.395 91.615) rotate(85.3036) scale(28.2195)">
<stop stop-color="#F1F1F1"/>
<stop offset="1" stop-color="#FAFAFA"/>
</radialGradient>
<radialGradient id="paint27_radial_1296_17822" cx="0" cy="0" r="1" gradientUnits="userSpaceOnUse" gradientTransform="translate(179.241 91.615) rotate(85.3036) scale(28.2195)">
<stop stop-color="#F1F1F1"/>
<stop offset="1" stop-color="#FAFAFA"/>
</radialGradient>
<radialGradient id="paint28_radial_1296_17822" cx="0" cy="0" r="1" gradientUnits="userSpaceOnUse" gradientTransform="translate(234.072 91.615) rotate(85.3036) scale(28.2195)">
<stop stop-color="#F1F1F1"/>
<stop offset="1" stop-color="#FAFAFA"/>
</radialGradient>
<radialGradient id="paint29_radial_1296_17822" cx="0" cy="0" r="1" gradientUnits="userSpaceOnUse" gradientTransform="translate(288.912 91.615) rotate(85.3036) scale(28.2195)">
<stop stop-color="#F1F1F1"/>
<stop offset="1" stop-color="#FAFAFA"/>
</radialGradient>
<radialGradient id="paint30_radial_1296_17822" cx="0" cy="0" r="1" gradientUnits="userSpaceOnUse" gradientTransform="translate(343.752 91.615) rotate(85.3036) scale(28.2195)">
<stop stop-color="#F1F1F1"/>
<stop offset="1" stop-color="#FAFAFA"/>
</radialGradient>
<radialGradient id="paint31_radial_1296_17822" cx="0" cy="0" r="1" gradientUnits="userSpaceOnUse" gradientTransform="translate(398.58 91.615) rotate(85.3036) scale(28.2195)">
<stop stop-color="#F1F1F1"/>
<stop offset="1" stop-color="#FAFAFA"/>
</radialGradient>
<radialGradient id="paint32_radial_1296_17822" cx="0" cy="0" r="1" gradientUnits="userSpaceOnUse" gradientTransform="translate(14.7229 203.759) rotate(85.3036) scale(28.2195)">
<stop stop-color="#F1F1F1"/>
<stop offset="1" stop-color="#FAFAFA"/>
</radialGradient>
<radialGradient id="paint33_radial_1296_17822" cx="0" cy="0" r="1" gradientUnits="userSpaceOnUse" gradientTransform="translate(69.5589 203.759) rotate(85.3036) scale(28.2195)">
<stop stop-color="#F1F1F1"/>
<stop offset="1" stop-color="#FAFAFA"/>
</radialGradient>
<radialGradient id="paint34_radial_1296_17822" cx="0" cy="0" r="1" gradientUnits="userSpaceOnUse" gradientTransform="translate(124.395 203.759) rotate(85.3036) scale(28.2195)">
<stop stop-color="#F1F1F1"/>
<stop offset="1" stop-color="#FAFAFA"/>
</radialGradient>
<radialGradient id="paint35_radial_1296_17822" cx="0" cy="0" r="1" gradientUnits="userSpaceOnUse" gradientTransform="translate(179.241 203.759) rotate(85.3036) scale(28.2195)">
<stop stop-color="#F1F1F1"/>
<stop offset="1" stop-color="#FAFAFA"/>
</radialGradient>
<radialGradient id="paint36_radial_1296_17822" cx="0" cy="0" r="1" gradientUnits="userSpaceOnUse" gradientTransform="translate(234.072 203.759) rotate(85.3036) scale(28.2195)">
<stop stop-color="#F1F1F1"/>
<stop offset="1" stop-color="#FAFAFA"/>
</radialGradient>
<radialGradient id="paint37_radial_1296_17822" cx="0" cy="0" r="1" gradientUnits="userSpaceOnUse" gradientTransform="translate(288.912 203.759) rotate(85.3036) scale(28.2195)">
<stop stop-color="#F1F1F1"/>
<stop offset="1" stop-color="#FAFAFA"/>
</radialGradient>
<radialGradient id="paint38_radial_1296_17822" cx="0" cy="0" r="1" gradientUnits="userSpaceOnUse" gradientTransform="translate(343.752 203.759) rotate(85.3036) scale(28.2195)">
<stop stop-color="#F1F1F1"/>
<stop offset="1" stop-color="#FAFAFA"/>
</radialGradient>
<radialGradient id="paint39_radial_1296_17822" cx="0" cy="0" r="1" gradientUnits="userSpaceOnUse" gradientTransform="translate(398.58 203.759) rotate(85.3036) scale(28.2195)">
<stop stop-color="#F1F1F1"/>
<stop offset="1" stop-color="#FAFAFA"/>
</radialGradient>
<radialGradient id="paint40_radial_1296_17822" cx="0" cy="0" r="1" gradientUnits="userSpaceOnUse" gradientTransform="translate(14.7229 315.901) rotate(85.3036) scale(28.2195)">
<stop stop-color="#F1F1F1"/>
<stop offset="1" stop-color="#FAFAFA"/>
</radialGradient>
<radialGradient id="paint41_radial_1296_17822" cx="0" cy="0" r="1" gradientUnits="userSpaceOnUse" gradientTransform="translate(69.5589 315.9) rotate(85.3036) scale(28.2195)">
<stop stop-color="#F1F1F1"/>
<stop offset="1" stop-color="#FAFAFA"/>
</radialGradient>
<radialGradient id="paint42_radial_1296_17822" cx="0" cy="0" r="1" gradientUnits="userSpaceOnUse" gradientTransform="translate(124.395 315.9) rotate(85.3036) scale(28.2195)">
<stop stop-color="#F1F1F1"/>
<stop offset="1" stop-color="#FAFAFA"/>
</radialGradient>
<radialGradient id="paint43_radial_1296_17822" cx="0" cy="0" r="1" gradientUnits="userSpaceOnUse" gradientTransform="translate(179.241 315.901) rotate(85.3036) scale(28.2195)">
<stop stop-color="#F1F1F1"/>
<stop offset="1" stop-color="#FAFAFA"/>
</radialGradient>
<radialGradient id="paint44_radial_1296_17822" cx="0" cy="0" r="1" gradientUnits="userSpaceOnUse" gradientTransform="translate(234.072 315.9) rotate(85.3036) scale(28.2195)">
<stop stop-color="#F1F1F1"/>
<stop offset="1" stop-color="#FAFAFA"/>
</radialGradient>
<radialGradient id="paint45_radial_1296_17822" cx="0" cy="0" r="1" gradientUnits="userSpaceOnUse" gradientTransform="translate(288.912 315.9) rotate(85.3036) scale(28.2195)">
<stop stop-color="#F1F1F1"/>
<stop offset="1" stop-color="#FAFAFA"/>
</radialGradient>
<radialGradient id="paint46_radial_1296_17822" cx="0" cy="0" r="1" gradientUnits="userSpaceOnUse" gradientTransform="translate(343.752 315.9) rotate(85.3036) scale(28.2195)">
<stop stop-color="#F1F1F1"/>
<stop offset="1" stop-color="#FAFAFA"/>
</radialGradient>
<radialGradient id="paint47_radial_1296_17822" cx="0" cy="0" r="1" gradientUnits="userSpaceOnUse" gradientTransform="translate(398.58 315.9) rotate(85.3036) scale(28.2195)">
<stop stop-color="#F1F1F1"/>
<stop offset="1" stop-color="#FAFAFA"/>
</radialGradient>
</defs>
</svg>
