<svg width="381" height="289" viewBox="0 0 381 289" fill="none" xmlns="http://www.w3.org/2000/svg">
<g opacity="0.7">
<g opacity="0.5">
<rect y="18.6235" width="26.3368" height="26.3368" rx="5.90008" transform="rotate(-45 0 18.6235)" fill="url(#paint0_radial_1296_17761)"/>
<rect x="49.0459" y="18.6228" width="26.3368" height="26.3368" rx="5.90008" transform="rotate(-45 49.0459 18.6228)" fill="url(#paint1_radial_1296_17761)"/>
<rect x="98.0918" y="18.6228" width="26.3368" height="26.3368" rx="5.90008" transform="rotate(-45 98.0918 18.6228)" fill="url(#paint2_radial_1296_17761)"/>
<rect x="147.146" y="18.6228" width="26.3368" height="26.3368" rx="5.90008" transform="rotate(-45 147.146 18.6228)" fill="url(#paint3_radial_1296_17761)"/>
<rect x="196.188" y="18.6228" width="26.3368" height="26.3368" rx="5.90008" transform="rotate(-45 196.188 18.6228)" fill="url(#paint4_radial_1296_17761)"/>
<rect x="245.238" y="18.6228" width="26.3368" height="26.3368" rx="5.90008" transform="rotate(-45 245.238 18.6228)" fill="url(#paint5_radial_1296_17761)"/>
<rect x="294.288" y="18.6228" width="26.3368" height="26.3368" rx="5.90008" transform="rotate(-45 294.288 18.6228)" fill="url(#paint6_radial_1296_17761)"/>
<rect x="343.326" y="18.623" width="26.3368" height="26.3368" rx="5.90008" transform="rotate(-45 343.326 18.623)" fill="url(#paint7_radial_1296_17761)"/>
</g>
<g opacity="0.5">
<rect y="118.925" width="26.3368" height="26.3368" rx="5.90008" transform="rotate(-45 0 118.925)" fill="url(#paint8_radial_1296_17761)"/>
<rect x="49.0459" y="118.925" width="26.3368" height="26.3368" rx="5.90008" transform="rotate(-45 49.0459 118.925)" fill="url(#paint9_radial_1296_17761)"/>
<rect x="98.0918" y="118.925" width="26.3368" height="26.3368" rx="5.90008" transform="rotate(-45 98.0918 118.925)" fill="url(#paint10_radial_1296_17761)"/>
<rect x="147.146" y="118.925" width="26.3368" height="26.3368" rx="5.90008" transform="rotate(-45 147.146 118.925)" fill="url(#paint11_radial_1296_17761)"/>
<rect x="196.188" y="118.925" width="26.3368" height="26.3368" rx="5.90008" transform="rotate(-45 196.188 118.925)" fill="url(#paint12_radial_1296_17761)"/>
<rect x="245.238" y="118.925" width="26.3368" height="26.3368" rx="5.90008" transform="rotate(-45 245.238 118.925)" fill="url(#paint13_radial_1296_17761)"/>
<rect x="294.288" y="118.925" width="26.3368" height="26.3368" rx="5.90008" transform="rotate(-45 294.288 118.925)" fill="url(#paint14_radial_1296_17761)"/>
<rect x="343.326" y="118.925" width="26.3368" height="26.3368" rx="5.90008" transform="rotate(-45 343.326 118.925)" fill="url(#paint15_radial_1296_17761)"/>
</g>
<g opacity="0.5">
<rect y="219.227" width="26.3368" height="26.3368" rx="5.90008" transform="rotate(-45 0 219.227)" fill="url(#paint16_radial_1296_17761)"/>
<rect x="49.0469" y="219.226" width="26.3368" height="26.3368" rx="5.90008" transform="rotate(-45 49.0469 219.226)" fill="url(#paint17_radial_1296_17761)"/>
<rect x="98.0918" y="219.226" width="26.3368" height="26.3368" rx="5.90008" transform="rotate(-45 98.0918 219.226)" fill="url(#paint18_radial_1296_17761)"/>
<rect x="147.146" y="219.227" width="26.3368" height="26.3368" rx="5.90008" transform="rotate(-45 147.146 219.227)" fill="url(#paint19_radial_1296_17761)"/>
<rect x="196.188" y="219.226" width="26.3368" height="26.3368" rx="5.90008" transform="rotate(-45 196.188 219.226)" fill="url(#paint20_radial_1296_17761)"/>
<rect x="245.238" y="219.226" width="26.3368" height="26.3368" rx="5.90008" transform="rotate(-45 245.238 219.226)" fill="url(#paint21_radial_1296_17761)"/>
<rect x="294.288" y="219.226" width="26.3368" height="26.3368" rx="5.90008" transform="rotate(-45 294.288 219.226)" fill="url(#paint22_radial_1296_17761)"/>
<rect x="343.326" y="219.227" width="26.3368" height="26.3368" rx="5.90008" transform="rotate(-45 343.326 219.227)" fill="url(#paint23_radial_1296_17761)"/>
</g>
<g opacity="0.5">
<rect y="68.7739" width="26.3368" height="26.3368" rx="5.90008" transform="rotate(-45 0 68.7739)" fill="url(#paint24_radial_1296_17761)"/>
<rect x="49.0459" y="68.7732" width="26.3368" height="26.3368" rx="5.90008" transform="rotate(-45 49.0459 68.7732)" fill="url(#paint25_radial_1296_17761)"/>
<rect x="98.0918" y="68.7732" width="26.3368" height="26.3368" rx="5.90008" transform="rotate(-45 98.0918 68.7732)" fill="url(#paint26_radial_1296_17761)"/>
<rect x="147.146" y="68.7732" width="26.3368" height="26.3368" rx="5.90008" transform="rotate(-45 147.146 68.7732)" fill="url(#paint27_radial_1296_17761)"/>
<rect x="196.188" y="68.7732" width="26.3368" height="26.3368" rx="5.90008" transform="rotate(-45 196.188 68.7732)" fill="url(#paint28_radial_1296_17761)"/>
<rect x="245.238" y="68.7732" width="26.3368" height="26.3368" rx="5.90008" transform="rotate(-45 245.238 68.7732)" fill="url(#paint29_radial_1296_17761)"/>
<rect x="294.288" y="68.7732" width="26.3368" height="26.3368" rx="5.90008" transform="rotate(-45 294.288 68.7732)" fill="url(#paint30_radial_1296_17761)"/>
<rect x="343.326" y="68.7734" width="26.3368" height="26.3368" rx="5.90008" transform="rotate(-45 343.326 68.7734)" fill="url(#paint31_radial_1296_17761)"/>
</g>
<g opacity="0.5">
<rect y="169.077" width="26.3368" height="26.3368" rx="5.90008" transform="rotate(-45 0 169.077)" fill="url(#paint32_radial_1296_17761)"/>
<rect x="49.0459" y="169.077" width="26.3368" height="26.3368" rx="5.90008" transform="rotate(-45 49.0459 169.077)" fill="url(#paint33_radial_1296_17761)"/>
<rect x="98.0918" y="169.077" width="26.3368" height="26.3368" rx="5.90008" transform="rotate(-45 98.0918 169.077)" fill="url(#paint34_radial_1296_17761)"/>
<rect x="147.146" y="169.077" width="26.3368" height="26.3368" rx="5.90008" transform="rotate(-45 147.146 169.077)" fill="url(#paint35_radial_1296_17761)"/>
<rect x="196.188" y="169.077" width="26.3368" height="26.3368" rx="5.90008" transform="rotate(-45 196.188 169.077)" fill="url(#paint36_radial_1296_17761)"/>
<rect x="245.238" y="169.077" width="26.3368" height="26.3368" rx="5.90008" transform="rotate(-45 245.238 169.077)" fill="url(#paint37_radial_1296_17761)"/>
<rect x="294.288" y="169.077" width="26.3368" height="26.3368" rx="5.90008" transform="rotate(-45 294.288 169.077)" fill="url(#paint38_radial_1296_17761)"/>
<rect x="343.326" y="169.077" width="26.3368" height="26.3368" rx="5.90008" transform="rotate(-45 343.326 169.077)" fill="url(#paint39_radial_1296_17761)"/>
</g>
<g opacity="0.5">
<rect y="269.378" width="26.3368" height="26.3368" rx="5.90008" transform="rotate(-45 0 269.378)" fill="url(#paint40_radial_1296_17761)"/>
<rect x="49.0459" y="269.377" width="26.3368" height="26.3368" rx="5.90008" transform="rotate(-45 49.0459 269.377)" fill="url(#paint41_radial_1296_17761)"/>
<rect x="98.0918" y="269.377" width="26.3368" height="26.3368" rx="5.90008" transform="rotate(-45 98.0918 269.377)" fill="url(#paint42_radial_1296_17761)"/>
<rect x="147.146" y="269.378" width="26.3368" height="26.3368" rx="5.90008" transform="rotate(-45 147.146 269.378)" fill="url(#paint43_radial_1296_17761)"/>
<rect x="196.188" y="269.377" width="26.3368" height="26.3368" rx="5.90008" transform="rotate(-45 196.188 269.377)" fill="url(#paint44_radial_1296_17761)"/>
<rect x="245.238" y="269.377" width="26.3368" height="26.3368" rx="5.90008" transform="rotate(-45 245.238 269.377)" fill="url(#paint45_radial_1296_17761)"/>
<rect x="294.288" y="269.377" width="26.3368" height="26.3368" rx="5.90008" transform="rotate(-45 294.288 269.377)" fill="url(#paint46_radial_1296_17761)"/>
<rect x="343.326" y="269.377" width="26.3368" height="26.3368" rx="5.90008" transform="rotate(-45 343.326 269.377)" fill="url(#paint47_radial_1296_17761)"/>
</g>
</g>
<defs>
<radialGradient id="paint0_radial_1296_17761" cx="0" cy="0" r="1" gradientUnits="userSpaceOnUse" gradientTransform="translate(13.1684 31.7919) rotate(85.3036) scale(25.2399)">
<stop stop-color="#F1F1F1"/>
<stop offset="1" stop-color="#FAFAFA"/>
</radialGradient>
<radialGradient id="paint1_radial_1296_17761" cx="0" cy="0" r="1" gradientUnits="userSpaceOnUse" gradientTransform="translate(62.2143 31.7912) rotate(85.3036) scale(25.2399)">
<stop stop-color="#F1F1F1"/>
<stop offset="1" stop-color="#FAFAFA"/>
</radialGradient>
<radialGradient id="paint2_radial_1296_17761" cx="0" cy="0" r="1" gradientUnits="userSpaceOnUse" gradientTransform="translate(111.26 31.7912) rotate(85.3036) scale(25.2399)">
<stop stop-color="#F1F1F1"/>
<stop offset="1" stop-color="#FAFAFA"/>
</radialGradient>
<radialGradient id="paint3_radial_1296_17761" cx="0" cy="0" r="1" gradientUnits="userSpaceOnUse" gradientTransform="translate(160.315 31.7912) rotate(85.3036) scale(25.2399)">
<stop stop-color="#F1F1F1"/>
<stop offset="1" stop-color="#FAFAFA"/>
</radialGradient>
<radialGradient id="paint4_radial_1296_17761" cx="0" cy="0" r="1" gradientUnits="userSpaceOnUse" gradientTransform="translate(209.357 31.7912) rotate(85.3036) scale(25.2399)">
<stop stop-color="#F1F1F1"/>
<stop offset="1" stop-color="#FAFAFA"/>
</radialGradient>
<radialGradient id="paint5_radial_1296_17761" cx="0" cy="0" r="1" gradientUnits="userSpaceOnUse" gradientTransform="translate(258.407 31.7912) rotate(85.3036) scale(25.2399)">
<stop stop-color="#F1F1F1"/>
<stop offset="1" stop-color="#FAFAFA"/>
</radialGradient>
<radialGradient id="paint6_radial_1296_17761" cx="0" cy="0" r="1" gradientUnits="userSpaceOnUse" gradientTransform="translate(307.456 31.7912) rotate(85.3036) scale(25.2399)">
<stop stop-color="#F1F1F1"/>
<stop offset="1" stop-color="#FAFAFA"/>
</radialGradient>
<radialGradient id="paint7_radial_1296_17761" cx="0" cy="0" r="1" gradientUnits="userSpaceOnUse" gradientTransform="translate(356.495 31.7914) rotate(85.3036) scale(25.2399)">
<stop stop-color="#F1F1F1"/>
<stop offset="1" stop-color="#FAFAFA"/>
</radialGradient>
<radialGradient id="paint8_radial_1296_17761" cx="0" cy="0" r="1" gradientUnits="userSpaceOnUse" gradientTransform="translate(13.1684 132.094) rotate(85.3036) scale(25.2399)">
<stop stop-color="#F1F1F1"/>
<stop offset="1" stop-color="#FAFAFA"/>
</radialGradient>
<radialGradient id="paint9_radial_1296_17761" cx="0" cy="0" r="1" gradientUnits="userSpaceOnUse" gradientTransform="translate(62.2143 132.094) rotate(85.3036) scale(25.2399)">
<stop stop-color="#F1F1F1"/>
<stop offset="1" stop-color="#FAFAFA"/>
</radialGradient>
<radialGradient id="paint10_radial_1296_17761" cx="0" cy="0" r="1" gradientUnits="userSpaceOnUse" gradientTransform="translate(111.26 132.094) rotate(85.3036) scale(25.2399)">
<stop stop-color="#F1F1F1"/>
<stop offset="1" stop-color="#FAFAFA"/>
</radialGradient>
<radialGradient id="paint11_radial_1296_17761" cx="0" cy="0" r="1" gradientUnits="userSpaceOnUse" gradientTransform="translate(160.315 132.094) rotate(85.3036) scale(25.2399)">
<stop stop-color="#F1F1F1"/>
<stop offset="1" stop-color="#FAFAFA"/>
</radialGradient>
<radialGradient id="paint12_radial_1296_17761" cx="0" cy="0" r="1" gradientUnits="userSpaceOnUse" gradientTransform="translate(209.357 132.094) rotate(85.3036) scale(25.2399)">
<stop stop-color="#F1F1F1"/>
<stop offset="1" stop-color="#FAFAFA"/>
</radialGradient>
<radialGradient id="paint13_radial_1296_17761" cx="0" cy="0" r="1" gradientUnits="userSpaceOnUse" gradientTransform="translate(258.407 132.094) rotate(85.3036) scale(25.2399)">
<stop stop-color="#F1F1F1"/>
<stop offset="1" stop-color="#FAFAFA"/>
</radialGradient>
<radialGradient id="paint14_radial_1296_17761" cx="0" cy="0" r="1" gradientUnits="userSpaceOnUse" gradientTransform="translate(307.456 132.094) rotate(85.3036) scale(25.2399)">
<stop stop-color="#F1F1F1"/>
<stop offset="1" stop-color="#FAFAFA"/>
</radialGradient>
<radialGradient id="paint15_radial_1296_17761" cx="0" cy="0" r="1" gradientUnits="userSpaceOnUse" gradientTransform="translate(356.495 132.094) rotate(85.3036) scale(25.2399)">
<stop stop-color="#F1F1F1"/>
<stop offset="1" stop-color="#FAFAFA"/>
</radialGradient>
<radialGradient id="paint16_radial_1296_17761" cx="0" cy="0" r="1" gradientUnits="userSpaceOnUse" gradientTransform="translate(13.1684 232.395) rotate(85.3036) scale(25.2399)">
<stop stop-color="#F1F1F1"/>
<stop offset="1" stop-color="#FAFAFA"/>
</radialGradient>
<radialGradient id="paint17_radial_1296_17761" cx="0" cy="0" r="1" gradientUnits="userSpaceOnUse" gradientTransform="translate(62.2153 232.394) rotate(85.3036) scale(25.2399)">
<stop stop-color="#F1F1F1"/>
<stop offset="1" stop-color="#FAFAFA"/>
</radialGradient>
<radialGradient id="paint18_radial_1296_17761" cx="0" cy="0" r="1" gradientUnits="userSpaceOnUse" gradientTransform="translate(111.26 232.394) rotate(85.3036) scale(25.2399)">
<stop stop-color="#F1F1F1"/>
<stop offset="1" stop-color="#FAFAFA"/>
</radialGradient>
<radialGradient id="paint19_radial_1296_17761" cx="0" cy="0" r="1" gradientUnits="userSpaceOnUse" gradientTransform="translate(160.315 232.395) rotate(85.3036) scale(25.2399)">
<stop stop-color="#F1F1F1"/>
<stop offset="1" stop-color="#FAFAFA"/>
</radialGradient>
<radialGradient id="paint20_radial_1296_17761" cx="0" cy="0" r="1" gradientUnits="userSpaceOnUse" gradientTransform="translate(209.357 232.394) rotate(85.3036) scale(25.2399)">
<stop stop-color="#F1F1F1"/>
<stop offset="1" stop-color="#FAFAFA"/>
</radialGradient>
<radialGradient id="paint21_radial_1296_17761" cx="0" cy="0" r="1" gradientUnits="userSpaceOnUse" gradientTransform="translate(258.407 232.395) rotate(85.3036) scale(25.2399)">
<stop stop-color="#F1F1F1"/>
<stop offset="1" stop-color="#FAFAFA"/>
</radialGradient>
<radialGradient id="paint22_radial_1296_17761" cx="0" cy="0" r="1" gradientUnits="userSpaceOnUse" gradientTransform="translate(307.456 232.395) rotate(85.3036) scale(25.2399)">
<stop stop-color="#F1F1F1"/>
<stop offset="1" stop-color="#FAFAFA"/>
</radialGradient>
<radialGradient id="paint23_radial_1296_17761" cx="0" cy="0" r="1" gradientUnits="userSpaceOnUse" gradientTransform="translate(356.495 232.395) rotate(85.3036) scale(25.2399)">
<stop stop-color="#F1F1F1"/>
<stop offset="1" stop-color="#FAFAFA"/>
</radialGradient>
<radialGradient id="paint24_radial_1296_17761" cx="0" cy="0" r="1" gradientUnits="userSpaceOnUse" gradientTransform="translate(13.1684 81.9423) rotate(85.3036) scale(25.2399)">
<stop stop-color="#F1F1F1"/>
<stop offset="1" stop-color="#FAFAFA"/>
</radialGradient>
<radialGradient id="paint25_radial_1296_17761" cx="0" cy="0" r="1" gradientUnits="userSpaceOnUse" gradientTransform="translate(62.2143 81.9416) rotate(85.3036) scale(25.2399)">
<stop stop-color="#F1F1F1"/>
<stop offset="1" stop-color="#FAFAFA"/>
</radialGradient>
<radialGradient id="paint26_radial_1296_17761" cx="0" cy="0" r="1" gradientUnits="userSpaceOnUse" gradientTransform="translate(111.26 81.9416) rotate(85.3036) scale(25.2399)">
<stop stop-color="#F1F1F1"/>
<stop offset="1" stop-color="#FAFAFA"/>
</radialGradient>
<radialGradient id="paint27_radial_1296_17761" cx="0" cy="0" r="1" gradientUnits="userSpaceOnUse" gradientTransform="translate(160.315 81.9416) rotate(85.3036) scale(25.2399)">
<stop stop-color="#F1F1F1"/>
<stop offset="1" stop-color="#FAFAFA"/>
</radialGradient>
<radialGradient id="paint28_radial_1296_17761" cx="0" cy="0" r="1" gradientUnits="userSpaceOnUse" gradientTransform="translate(209.357 81.9416) rotate(85.3036) scale(25.2399)">
<stop stop-color="#F1F1F1"/>
<stop offset="1" stop-color="#FAFAFA"/>
</radialGradient>
<radialGradient id="paint29_radial_1296_17761" cx="0" cy="0" r="1" gradientUnits="userSpaceOnUse" gradientTransform="translate(258.407 81.9416) rotate(85.3036) scale(25.2399)">
<stop stop-color="#F1F1F1"/>
<stop offset="1" stop-color="#FAFAFA"/>
</radialGradient>
<radialGradient id="paint30_radial_1296_17761" cx="0" cy="0" r="1" gradientUnits="userSpaceOnUse" gradientTransform="translate(307.456 81.9416) rotate(85.3036) scale(25.2399)">
<stop stop-color="#F1F1F1"/>
<stop offset="1" stop-color="#FAFAFA"/>
</radialGradient>
<radialGradient id="paint31_radial_1296_17761" cx="0" cy="0" r="1" gradientUnits="userSpaceOnUse" gradientTransform="translate(356.495 81.9418) rotate(85.3036) scale(25.2399)">
<stop stop-color="#F1F1F1"/>
<stop offset="1" stop-color="#FAFAFA"/>
</radialGradient>
<radialGradient id="paint32_radial_1296_17761" cx="0" cy="0" r="1" gradientUnits="userSpaceOnUse" gradientTransform="translate(13.1684 182.245) rotate(85.3036) scale(25.2399)">
<stop stop-color="#F1F1F1"/>
<stop offset="1" stop-color="#FAFAFA"/>
</radialGradient>
<radialGradient id="paint33_radial_1296_17761" cx="0" cy="0" r="1" gradientUnits="userSpaceOnUse" gradientTransform="translate(62.2143 182.246) rotate(85.3036) scale(25.2399)">
<stop stop-color="#F1F1F1"/>
<stop offset="1" stop-color="#FAFAFA"/>
</radialGradient>
<radialGradient id="paint34_radial_1296_17761" cx="0" cy="0" r="1" gradientUnits="userSpaceOnUse" gradientTransform="translate(111.26 182.246) rotate(85.3036) scale(25.2399)">
<stop stop-color="#F1F1F1"/>
<stop offset="1" stop-color="#FAFAFA"/>
</radialGradient>
<radialGradient id="paint35_radial_1296_17761" cx="0" cy="0" r="1" gradientUnits="userSpaceOnUse" gradientTransform="translate(160.315 182.246) rotate(85.3036) scale(25.2399)">
<stop stop-color="#F1F1F1"/>
<stop offset="1" stop-color="#FAFAFA"/>
</radialGradient>
<radialGradient id="paint36_radial_1296_17761" cx="0" cy="0" r="1" gradientUnits="userSpaceOnUse" gradientTransform="translate(209.357 182.246) rotate(85.3036) scale(25.2399)">
<stop stop-color="#F1F1F1"/>
<stop offset="1" stop-color="#FAFAFA"/>
</radialGradient>
<radialGradient id="paint37_radial_1296_17761" cx="0" cy="0" r="1" gradientUnits="userSpaceOnUse" gradientTransform="translate(258.407 182.245) rotate(85.3036) scale(25.2399)">
<stop stop-color="#F1F1F1"/>
<stop offset="1" stop-color="#FAFAFA"/>
</radialGradient>
<radialGradient id="paint38_radial_1296_17761" cx="0" cy="0" r="1" gradientUnits="userSpaceOnUse" gradientTransform="translate(307.456 182.245) rotate(85.3036) scale(25.2399)">
<stop stop-color="#F1F1F1"/>
<stop offset="1" stop-color="#FAFAFA"/>
</radialGradient>
<radialGradient id="paint39_radial_1296_17761" cx="0" cy="0" r="1" gradientUnits="userSpaceOnUse" gradientTransform="translate(356.495 182.246) rotate(85.3036) scale(25.2399)">
<stop stop-color="#F1F1F1"/>
<stop offset="1" stop-color="#FAFAFA"/>
</radialGradient>
<radialGradient id="paint40_radial_1296_17761" cx="0" cy="0" r="1" gradientUnits="userSpaceOnUse" gradientTransform="translate(13.1684 282.546) rotate(85.3036) scale(25.2399)">
<stop stop-color="#F1F1F1"/>
<stop offset="1" stop-color="#FAFAFA"/>
</radialGradient>
<radialGradient id="paint41_radial_1296_17761" cx="0" cy="0" r="1" gradientUnits="userSpaceOnUse" gradientTransform="translate(62.2143 282.545) rotate(85.3036) scale(25.2399)">
<stop stop-color="#F1F1F1"/>
<stop offset="1" stop-color="#FAFAFA"/>
</radialGradient>
<radialGradient id="paint42_radial_1296_17761" cx="0" cy="0" r="1" gradientUnits="userSpaceOnUse" gradientTransform="translate(111.26 282.545) rotate(85.3036) scale(25.2399)">
<stop stop-color="#F1F1F1"/>
<stop offset="1" stop-color="#FAFAFA"/>
</radialGradient>
<radialGradient id="paint43_radial_1296_17761" cx="0" cy="0" r="1" gradientUnits="userSpaceOnUse" gradientTransform="translate(160.315 282.547) rotate(85.3036) scale(25.2399)">
<stop stop-color="#F1F1F1"/>
<stop offset="1" stop-color="#FAFAFA"/>
</radialGradient>
<radialGradient id="paint44_radial_1296_17761" cx="0" cy="0" r="1" gradientUnits="userSpaceOnUse" gradientTransform="translate(209.357 282.545) rotate(85.3036) scale(25.2399)">
<stop stop-color="#F1F1F1"/>
<stop offset="1" stop-color="#FAFAFA"/>
</radialGradient>
<radialGradient id="paint45_radial_1296_17761" cx="0" cy="0" r="1" gradientUnits="userSpaceOnUse" gradientTransform="translate(258.407 282.545) rotate(85.3036) scale(25.2399)">
<stop stop-color="#F1F1F1"/>
<stop offset="1" stop-color="#FAFAFA"/>
</radialGradient>
<radialGradient id="paint46_radial_1296_17761" cx="0" cy="0" r="1" gradientUnits="userSpaceOnUse" gradientTransform="translate(307.456 282.545) rotate(85.3036) scale(25.2399)">
<stop stop-color="#F1F1F1"/>
<stop offset="1" stop-color="#FAFAFA"/>
</radialGradient>
<radialGradient id="paint47_radial_1296_17761" cx="0" cy="0" r="1" gradientUnits="userSpaceOnUse" gradientTransform="translate(356.495 282.545) rotate(85.3036) scale(25.2399)">
<stop stop-color="#F1F1F1"/>
<stop offset="1" stop-color="#FAFAFA"/>
</radialGradient>
</defs>
</svg>
