<svg width="72" height="69" viewBox="0 0 72 69" fill="none" xmlns="http://www.w3.org/2000/svg">
<rect width="2.14535" height="2.14535" rx="0.366993" transform="matrix(0.135506 -0.990776 0.990579 0.13694 24.5137 67.1598)" fill="url(#paint0_radial_1102_22334)"/>
<rect width="2.14535" height="2.14535" rx="0.366993" transform="matrix(0.135506 -0.990776 0.990579 0.13694 28.4609 64.2948)" fill="url(#paint1_radial_1102_22334)"/>
<rect width="2.14535" height="2.14535" rx="0.366993" transform="matrix(0.135506 -0.990776 0.990579 0.13694 38.2129 53.0431)" fill="url(#paint2_radial_1102_22334)"/>
<rect width="2.14535" height="2.14535" rx="0.366993" transform="matrix(0.135506 -0.990776 0.990579 0.13694 33.7422 57.13)" fill="url(#paint3_radial_1102_22334)"/>
<rect width="2.14535" height="2.14535" rx="0.366993" transform="matrix(0.135506 -0.990776 0.990579 0.13694 39.7891 48.3453)" fill="url(#paint4_radial_1102_22334)"/>
<rect width="2.14535" height="2.14535" rx="0.366993" transform="matrix(0.135506 -0.990776 0.990579 0.13694 41.127 43.5232)" fill="url(#paint5_radial_1102_22334)"/>
<rect width="2.14535" height="2.14535" rx="0.366993" transform="matrix(0.135506 -0.990776 0.990579 0.13694 42.0039 38.5957)" fill="url(#paint6_radial_1102_22334)"/>
<rect width="2.14535" height="2.14535" rx="0.366993" transform="matrix(0.135506 -0.990776 0.990579 0.13694 42.1309 33.592)" fill="url(#paint7_radial_1102_22334)"/>
<rect width="2.14535" height="2.14535" rx="0.366993" transform="matrix(0.135506 -0.990776 0.990579 0.13694 41.2012 28.6747)" fill="url(#paint8_radial_1102_22334)"/>
<rect width="2.14535" height="2.14535" rx="0.366993" transform="matrix(0.135506 -0.990776 0.990579 0.13694 39.0518 24.1545)" fill="url(#paint9_radial_1102_22334)"/>
<rect width="2.14535" height="2.14535" rx="0.366993" transform="matrix(0.135506 -0.990776 0.990579 0.13694 35.8516 20.3085)" fill="url(#paint10_radial_1102_22334)"/>
<rect width="2.14535" height="2.14535" rx="0.366993" transform="matrix(0.135506 -0.990776 0.990579 0.13694 32.002 17.7335)" fill="url(#paint11_radial_1102_22334)"/>
<rect width="2.14535" height="2.14535" rx="0.366993" transform="matrix(0.135506 -0.990776 0.990579 0.13694 26.9951 17.7456)" fill="url(#paint12_radial_1102_22334)"/>
<rect width="2.14535" height="2.14535" rx="0.366993" transform="matrix(0.135506 -0.990776 0.990579 0.13694 23.0352 20.8065)" fill="url(#paint13_radial_1102_22334)"/>
<rect width="2.14535" height="2.14535" rx="0.366993" transform="matrix(0.135506 -0.990776 0.990579 0.13694 20.8975 25.3309)" fill="url(#paint14_radial_1102_22334)"/>
<rect width="2.14535" height="2.14535" rx="0.366993" transform="matrix(0.135506 -0.990776 0.990579 0.13694 20.8896 30.3354)" fill="url(#paint15_radial_1102_22334)"/>
<rect width="2.14535" height="2.14535" rx="0.366993" transform="matrix(0.135506 -0.990776 0.990579 0.13694 23.4248 34.6508)" fill="url(#paint16_radial_1102_22334)"/>
<rect width="2.14535" height="2.14535" rx="0.366993" transform="matrix(0.135506 -0.990776 0.990579 0.13694 28.9258 37.1115)" fill="url(#paint17_radial_1102_22334)"/>
<rect width="2.14535" height="2.14535" rx="0.366993" transform="matrix(0.135506 -0.990776 0.990579 0.13694 33.708 35.6371)" fill="url(#paint18_radial_1102_22334)"/>
<rect width="2.14535" height="2.14535" rx="0.366993" transform="matrix(0.135506 -0.990776 0.990579 0.13694 37.6689 32.5763)" fill="url(#paint19_radial_1102_22334)"/>
<rect width="2.14535" height="2.14535" rx="0.366993" transform="matrix(0.135506 -0.990776 0.990579 0.13694 41.0615 28.8976)" fill="url(#paint20_radial_1102_22334)"/>
<rect width="2.14535" height="2.14535" rx="0.366993" transform="matrix(0.135506 -0.990776 0.990579 0.13694 44.085 24.9087)" fill="url(#paint21_radial_1102_22334)"/>
<rect width="2.14535" height="2.14535" rx="0.366993" transform="matrix(0.135506 -0.990776 0.990579 0.13694 46.8428 20.733)" fill="url(#paint22_radial_1102_22334)"/>
<rect width="2.14535" height="2.14535" rx="0.366993" transform="matrix(0.135506 -0.990776 0.990579 0.13694 49.3965 16.4288)" fill="url(#paint23_radial_1102_22334)"/>
<rect width="2.14535" height="2.14535" rx="0.366993" transform="matrix(0.135506 -0.990776 0.990579 0.13694 52.377 12.8258)" fill="url(#paint24_radial_1102_22334)"/>
<defs>
<radialGradient id="paint0_radial_1102_22334" cx="0" cy="0" r="1" gradientUnits="userSpaceOnUse" gradientTransform="translate(1.07267 1.07267) rotate(85.3036) scale(2.056)">
<stop stop-color="#868686"/>
<stop offset="1" stop-color="#D1D1D1"/>
</radialGradient>
<radialGradient id="paint1_radial_1102_22334" cx="0" cy="0" r="1" gradientUnits="userSpaceOnUse" gradientTransform="translate(1.07267 1.07267) rotate(85.3036) scale(2.056)">
<stop stop-color="#868686"/>
<stop offset="1" stop-color="#D1D1D1"/>
</radialGradient>
<radialGradient id="paint2_radial_1102_22334" cx="0" cy="0" r="1" gradientUnits="userSpaceOnUse" gradientTransform="translate(1.07267 1.07267) rotate(85.3036) scale(2.056)">
<stop stop-color="#868686"/>
<stop offset="1" stop-color="#D1D1D1"/>
</radialGradient>
<radialGradient id="paint3_radial_1102_22334" cx="0" cy="0" r="1" gradientUnits="userSpaceOnUse" gradientTransform="translate(1.07267 1.07267) rotate(85.3036) scale(2.056)">
<stop stop-color="#868686"/>
<stop offset="1" stop-color="#D1D1D1"/>
</radialGradient>
<radialGradient id="paint4_radial_1102_22334" cx="0" cy="0" r="1" gradientUnits="userSpaceOnUse" gradientTransform="translate(1.07267 1.07267) rotate(85.3036) scale(2.056)">
<stop stop-color="#868686"/>
<stop offset="1" stop-color="#D1D1D1"/>
</radialGradient>
<radialGradient id="paint5_radial_1102_22334" cx="0" cy="0" r="1" gradientUnits="userSpaceOnUse" gradientTransform="translate(1.07267 1.07267) rotate(85.3036) scale(2.056)">
<stop stop-color="#868686"/>
<stop offset="1" stop-color="#D1D1D1"/>
</radialGradient>
<radialGradient id="paint6_radial_1102_22334" cx="0" cy="0" r="1" gradientUnits="userSpaceOnUse" gradientTransform="translate(1.07267 1.07267) rotate(85.3036) scale(2.056)">
<stop stop-color="#868686"/>
<stop offset="1" stop-color="#D1D1D1"/>
</radialGradient>
<radialGradient id="paint7_radial_1102_22334" cx="0" cy="0" r="1" gradientUnits="userSpaceOnUse" gradientTransform="translate(1.07267 1.07267) rotate(85.3036) scale(2.056)">
<stop stop-color="#868686"/>
<stop offset="1" stop-color="#D1D1D1"/>
</radialGradient>
<radialGradient id="paint8_radial_1102_22334" cx="0" cy="0" r="1" gradientUnits="userSpaceOnUse" gradientTransform="translate(1.07267 1.07267) rotate(85.3036) scale(2.056)">
<stop stop-color="#868686"/>
<stop offset="1" stop-color="#D1D1D1"/>
</radialGradient>
<radialGradient id="paint9_radial_1102_22334" cx="0" cy="0" r="1" gradientUnits="userSpaceOnUse" gradientTransform="translate(1.07267 1.07267) rotate(85.3036) scale(2.056)">
<stop stop-color="#868686"/>
<stop offset="1" stop-color="#D1D1D1"/>
</radialGradient>
<radialGradient id="paint10_radial_1102_22334" cx="0" cy="0" r="1" gradientUnits="userSpaceOnUse" gradientTransform="translate(1.07267 1.07267) rotate(85.3036) scale(2.056)">
<stop stop-color="#868686"/>
<stop offset="1" stop-color="#D1D1D1"/>
</radialGradient>
<radialGradient id="paint11_radial_1102_22334" cx="0" cy="0" r="1" gradientUnits="userSpaceOnUse" gradientTransform="translate(1.07267 1.07267) rotate(85.3036) scale(2.056)">
<stop stop-color="#868686"/>
<stop offset="1" stop-color="#D1D1D1"/>
</radialGradient>
<radialGradient id="paint12_radial_1102_22334" cx="0" cy="0" r="1" gradientUnits="userSpaceOnUse" gradientTransform="translate(1.07267 1.07267) rotate(85.3036) scale(2.056)">
<stop stop-color="#868686"/>
<stop offset="1" stop-color="#D1D1D1"/>
</radialGradient>
<radialGradient id="paint13_radial_1102_22334" cx="0" cy="0" r="1" gradientUnits="userSpaceOnUse" gradientTransform="translate(1.07267 1.07267) rotate(85.3036) scale(2.056)">
<stop stop-color="#868686"/>
<stop offset="1" stop-color="#D1D1D1"/>
</radialGradient>
<radialGradient id="paint14_radial_1102_22334" cx="0" cy="0" r="1" gradientUnits="userSpaceOnUse" gradientTransform="translate(1.07267 1.07267) rotate(85.3036) scale(2.056)">
<stop stop-color="#868686"/>
<stop offset="1" stop-color="#D1D1D1"/>
</radialGradient>
<radialGradient id="paint15_radial_1102_22334" cx="0" cy="0" r="1" gradientUnits="userSpaceOnUse" gradientTransform="translate(1.07267 1.07267) rotate(85.3036) scale(2.056)">
<stop stop-color="#868686"/>
<stop offset="1" stop-color="#D1D1D1"/>
</radialGradient>
<radialGradient id="paint16_radial_1102_22334" cx="0" cy="0" r="1" gradientUnits="userSpaceOnUse" gradientTransform="translate(1.07267 1.07267) rotate(85.3036) scale(2.056)">
<stop stop-color="#868686"/>
<stop offset="1" stop-color="#D1D1D1"/>
</radialGradient>
<radialGradient id="paint17_radial_1102_22334" cx="0" cy="0" r="1" gradientUnits="userSpaceOnUse" gradientTransform="translate(1.07267 1.07267) rotate(85.3036) scale(2.056)">
<stop stop-color="#868686"/>
<stop offset="1" stop-color="#D1D1D1"/>
</radialGradient>
<radialGradient id="paint18_radial_1102_22334" cx="0" cy="0" r="1" gradientUnits="userSpaceOnUse" gradientTransform="translate(1.07267 1.07267) rotate(85.3036) scale(2.056)">
<stop stop-color="#868686"/>
<stop offset="1" stop-color="#D1D1D1"/>
</radialGradient>
<radialGradient id="paint19_radial_1102_22334" cx="0" cy="0" r="1" gradientUnits="userSpaceOnUse" gradientTransform="translate(1.07267 1.07267) rotate(85.3036) scale(2.056)">
<stop stop-color="#868686"/>
<stop offset="1" stop-color="#D1D1D1"/>
</radialGradient>
<radialGradient id="paint20_radial_1102_22334" cx="0" cy="0" r="1" gradientUnits="userSpaceOnUse" gradientTransform="translate(1.07267 1.07267) rotate(85.3036) scale(2.056)">
<stop stop-color="#868686"/>
<stop offset="1" stop-color="#D1D1D1"/>
</radialGradient>
<radialGradient id="paint21_radial_1102_22334" cx="0" cy="0" r="1" gradientUnits="userSpaceOnUse" gradientTransform="translate(1.07267 1.07267) rotate(85.3036) scale(2.056)">
<stop stop-color="#868686"/>
<stop offset="1" stop-color="#D1D1D1"/>
</radialGradient>
<radialGradient id="paint22_radial_1102_22334" cx="0" cy="0" r="1" gradientUnits="userSpaceOnUse" gradientTransform="translate(1.07267 1.07267) rotate(85.3036) scale(2.056)">
<stop stop-color="#868686"/>
<stop offset="1" stop-color="#D1D1D1"/>
</radialGradient>
<radialGradient id="paint23_radial_1102_22334" cx="0" cy="0" r="1" gradientUnits="userSpaceOnUse" gradientTransform="translate(1.07267 1.07267) rotate(85.3036) scale(2.056)">
<stop stop-color="#868686"/>
<stop offset="1" stop-color="#D1D1D1"/>
</radialGradient>
<radialGradient id="paint24_radial_1102_22334" cx="0" cy="0" r="1" gradientUnits="userSpaceOnUse" gradientTransform="translate(1.07267 1.07267) rotate(85.3036) scale(2.056)">
<stop stop-color="#868686"/>
<stop offset="1" stop-color="#D1D1D1"/>
</radialGradient>
</defs>
</svg>
