<svg width="70" height="62" viewBox="0 0 70 62" fill="none" xmlns="http://www.w3.org/2000/svg">
<path d="M10.1334 28.4243C10.8517 26.8056 10.1218 24.911 8.50309 24.1926C6.88435 23.4743 4.98976 24.2042 4.2714 25.8229C3.55305 27.4417 4.28295 29.3362 5.90169 30.0546C7.52042 30.773 9.41501 30.0431 10.1334 28.4243Z" fill="#8E4DD5"/>
<path d="M48.0941 15.926L44.0321 19.7366L43.9319 25.3052L40.1214 21.2432L34.5527 21.1429L38.6145 17.3323L38.715 11.7638L42.5255 15.8258L48.0941 15.926Z" fill="#FFCC00"/>
<path d="M62.3949 51.3385L58.3331 55.1491L58.2327 60.7177L54.422 56.6556L48.8535 56.5554L52.9153 52.7448L53.0158 47.1763L56.8263 51.2379L62.3949 51.3385Z" fill="#00A98F"/>
</svg>
