<svg width="86" height="60" viewBox="0 0 86 60" fill="none" xmlns="http://www.w3.org/2000/svg">
<rect width="2.20196" height="2.20196" rx="0.366993" transform="matrix(0.834786 -0.550575 -0.551782 -0.833988 83.4346 49.589)" fill="url(#paint0_radial_1102_22309)" fill-opacity="0.5"/>
<rect width="2.20196" height="2.20196" rx="0.366993" transform="matrix(0.834786 -0.550575 -0.551782 -0.833988 83.4346 49.589)" fill="url(#paint1_radial_1102_22309)"/>
<rect width="2.20196" height="2.20196" rx="0.366993" transform="matrix(0.834786 -0.550575 -0.551782 -0.833988 80.998 44.6796)" fill="url(#paint2_radial_1102_22309)" fill-opacity="0.5"/>
<rect width="2.20196" height="2.20196" rx="0.366993" transform="matrix(0.834786 -0.550575 -0.551782 -0.833988 80.998 44.6796)" fill="url(#paint3_radial_1102_22309)"/>
<rect width="2.20196" height="2.20196" rx="0.366993" transform="matrix(0.834786 -0.550575 -0.551782 -0.833988 78.2598 39.9319)" fill="url(#paint4_radial_1102_22309)" fill-opacity="0.5"/>
<rect width="2.20196" height="2.20196" rx="0.366993" transform="matrix(0.834786 -0.550575 -0.551782 -0.833988 78.2598 39.9319)" fill="url(#paint5_radial_1102_22309)"/>
<rect width="2.20196" height="2.20196" rx="0.366993" transform="matrix(0.834786 -0.550575 -0.551782 -0.833988 75.1631 35.4088)" fill="url(#paint6_radial_1102_22309)" fill-opacity="0.5"/>
<rect width="2.20196" height="2.20196" rx="0.366993" transform="matrix(0.834786 -0.550575 -0.551782 -0.833988 75.1631 35.4088)" fill="url(#paint7_radial_1102_22309)"/>
<rect width="2.20196" height="2.20196" rx="0.366993" transform="matrix(0.834786 -0.550575 -0.551782 -0.833988 71.6172 31.2291)" fill="url(#paint8_radial_1102_22309)" fill-opacity="0.5"/>
<rect width="2.20196" height="2.20196" rx="0.366993" transform="matrix(0.834786 -0.550575 -0.551782 -0.833988 71.6172 31.2291)" fill="url(#paint9_radial_1102_22309)"/>
<rect width="2.20196" height="2.20196" rx="0.366993" transform="matrix(0.834786 -0.550575 -0.551782 -0.833988 67.4893 27.626)" fill="url(#paint10_radial_1102_22309)" fill-opacity="0.5"/>
<rect width="2.20196" height="2.20196" rx="0.366993" transform="matrix(0.834786 -0.550575 -0.551782 -0.833988 67.4893 27.626)" fill="url(#paint11_radial_1102_22309)"/>
<rect width="2.20196" height="2.20196" rx="0.366993" transform="matrix(0.834786 -0.550575 -0.551782 -0.833988 62.6396 25.0713)" fill="url(#paint12_radial_1102_22309)" fill-opacity="0.5"/>
<rect width="2.20196" height="2.20196" rx="0.366993" transform="matrix(0.834786 -0.550575 -0.551782 -0.833988 62.6396 25.0713)" fill="url(#paint13_radial_1102_22309)"/>
<rect width="2.20196" height="2.20196" rx="0.366993" transform="matrix(0.834786 -0.550575 -0.551782 -0.833988 57.3398 24.3179)" fill="url(#paint14_radial_1102_22309)" fill-opacity="0.5"/>
<rect width="2.20196" height="2.20196" rx="0.366993" transform="matrix(0.834786 -0.550575 -0.551782 -0.833988 57.3398 24.3179)" fill="url(#paint15_radial_1102_22309)"/>
<rect width="2.20196" height="2.20196" rx="0.366993" transform="matrix(0.834786 -0.550575 -0.551782 -0.833988 52.0703 25.8279)" fill="url(#paint16_radial_1102_22309)" fill-opacity="0.5"/>
<rect width="2.20196" height="2.20196" rx="0.366993" transform="matrix(0.834786 -0.550575 -0.551782 -0.833988 52.0703 25.8279)" fill="url(#paint17_radial_1102_22309)"/>
<rect width="2.20196" height="2.20196" rx="0.366993" transform="matrix(0.834786 -0.550575 -0.551782 -0.833988 47.5234 28.8868)" fill="url(#paint18_radial_1102_22309)" fill-opacity="0.5"/>
<rect width="2.20196" height="2.20196" rx="0.366993" transform="matrix(0.834786 -0.550575 -0.551782 -0.833988 47.5234 28.8868)" fill="url(#paint19_radial_1102_22309)"/>
<rect width="2.20196" height="2.20196" rx="0.366993" transform="matrix(0.834786 -0.550575 -0.551782 -0.833988 43.2832 32.3601)" fill="url(#paint20_radial_1102_22309)" fill-opacity="0.5"/>
<rect width="2.20196" height="2.20196" rx="0.366993" transform="matrix(0.834786 -0.550575 -0.551782 -0.833988 43.2832 32.3601)" fill="url(#paint21_radial_1102_22309)"/>
<rect width="2.20196" height="2.20196" rx="0.366993" transform="matrix(0.834786 -0.550575 -0.551782 -0.833988 38.707 35.3768)" fill="url(#paint22_radial_1102_22309)" fill-opacity="0.5"/>
<rect width="2.20196" height="2.20196" rx="0.366993" transform="matrix(0.834786 -0.550575 -0.551782 -0.833988 38.707 35.3768)" fill="url(#paint23_radial_1102_22309)"/>
<rect width="2.20196" height="2.20196" rx="0.366993" transform="matrix(0.834786 -0.550575 -0.551782 -0.833988 33.4307 36.8599)" fill="url(#paint24_radial_1102_22309)" fill-opacity="0.5"/>
<rect width="2.20196" height="2.20196" rx="0.366993" transform="matrix(0.834786 -0.550575 -0.551782 -0.833988 33.4307 36.8599)" fill="url(#paint25_radial_1102_22309)"/>
<rect width="2.20196" height="2.20196" rx="0.366993" transform="matrix(0.834786 -0.550575 -0.551782 -0.833988 26.6963 35.7451)" fill="url(#paint26_radial_1102_22309)" fill-opacity="0.5"/>
<rect width="2.20196" height="2.20196" rx="0.366993" transform="matrix(0.834786 -0.550575 -0.551782 -0.833988 26.6963 35.7451)" fill="url(#paint27_radial_1102_22309)"/>
<rect width="2.20196" height="2.20196" rx="0.366993" transform="matrix(0.834786 -0.550575 -0.551782 -0.833988 21.79 33.3051)" fill="url(#paint28_radial_1102_22309)" fill-opacity="0.5"/>
<rect width="2.20196" height="2.20196" rx="0.366993" transform="matrix(0.834786 -0.550575 -0.551782 -0.833988 21.79 33.3051)" fill="url(#paint29_radial_1102_22309)"/>
<rect width="2.20196" height="2.20196" rx="0.366993" transform="matrix(0.834786 -0.550575 -0.551782 -0.833988 17.3291 30.1205)" fill="url(#paint30_radial_1102_22309)" fill-opacity="0.5"/>
<rect width="2.20196" height="2.20196" rx="0.366993" transform="matrix(0.834786 -0.550575 -0.551782 -0.833988 17.3291 30.1205)" fill="url(#paint31_radial_1102_22309)"/>
<rect width="2.20196" height="2.20196" rx="0.366993" transform="matrix(0.834786 -0.550575 -0.551782 -0.833988 13.2334 26.4781)" fill="url(#paint32_radial_1102_22309)" fill-opacity="0.5"/>
<rect width="2.20196" height="2.20196" rx="0.366993" transform="matrix(0.834786 -0.550575 -0.551782 -0.833988 13.2334 26.4781)" fill="url(#paint33_radial_1102_22309)"/>
<rect width="2.20196" height="2.20196" rx="0.366993" transform="matrix(0.834786 -0.550575 -0.551782 -0.833988 9.43652 22.5251)" fill="url(#paint34_radial_1102_22309)" fill-opacity="0.5"/>
<rect width="2.20196" height="2.20196" rx="0.366993" transform="matrix(0.834786 -0.550575 -0.551782 -0.833988 9.43652 22.5251)" fill="url(#paint35_radial_1102_22309)"/>
<rect width="2.20196" height="2.20196" rx="0.366993" transform="matrix(0.834786 -0.550575 -0.551782 -0.833988 5.44531 17.751)" fill="url(#paint36_radial_1102_22309)" fill-opacity="0.5"/>
<rect width="2.20196" height="2.20196" rx="0.366993" transform="matrix(0.834786 -0.550575 -0.551782 -0.833988 5.44531 17.751)" fill="url(#paint37_radial_1102_22309)"/>
<rect width="2.20196" height="2.20196" rx="0.366993" transform="matrix(0.834786 -0.550575 -0.551782 -0.833988 1.33301 12.4965)" fill="url(#paint38_radial_1102_22309)" fill-opacity="0.5"/>
<rect width="2.20196" height="2.20196" rx="0.366993" transform="matrix(0.834786 -0.550575 -0.551782 -0.833988 1.33301 12.4965)" fill="url(#paint39_radial_1102_22309)"/>
<defs>
<radialGradient id="paint0_radial_1102_22309" cx="0" cy="0" r="1" gradientUnits="userSpaceOnUse" gradientTransform="translate(1.10098 1.10098) rotate(85.3036) scale(2.11025)">
<stop stop-color="#868686"/>
<stop offset="1" stop-color="#D1D1D1"/>
</radialGradient>
<radialGradient id="paint1_radial_1102_22309" cx="0" cy="0" r="1" gradientUnits="userSpaceOnUse" gradientTransform="translate(1.10098 1.10098) rotate(85.3036) scale(2.11025)">
<stop stop-color="#868686"/>
<stop offset="1" stop-color="#D1D1D1"/>
</radialGradient>
<radialGradient id="paint2_radial_1102_22309" cx="0" cy="0" r="1" gradientUnits="userSpaceOnUse" gradientTransform="translate(1.10098 1.10098) rotate(85.3036) scale(2.11025)">
<stop stop-color="#868686"/>
<stop offset="1" stop-color="#D1D1D1"/>
</radialGradient>
<radialGradient id="paint3_radial_1102_22309" cx="0" cy="0" r="1" gradientUnits="userSpaceOnUse" gradientTransform="translate(1.10098 1.10098) rotate(85.3036) scale(2.11025)">
<stop stop-color="#868686"/>
<stop offset="1" stop-color="#D1D1D1"/>
</radialGradient>
<radialGradient id="paint4_radial_1102_22309" cx="0" cy="0" r="1" gradientUnits="userSpaceOnUse" gradientTransform="translate(1.10098 1.10098) rotate(85.3036) scale(2.11025)">
<stop stop-color="#868686"/>
<stop offset="1" stop-color="#D1D1D1"/>
</radialGradient>
<radialGradient id="paint5_radial_1102_22309" cx="0" cy="0" r="1" gradientUnits="userSpaceOnUse" gradientTransform="translate(1.10098 1.10098) rotate(85.3036) scale(2.11025)">
<stop stop-color="#868686"/>
<stop offset="1" stop-color="#D1D1D1"/>
</radialGradient>
<radialGradient id="paint6_radial_1102_22309" cx="0" cy="0" r="1" gradientUnits="userSpaceOnUse" gradientTransform="translate(1.10098 1.10098) rotate(85.3036) scale(2.11025)">
<stop stop-color="#868686"/>
<stop offset="1" stop-color="#D1D1D1"/>
</radialGradient>
<radialGradient id="paint7_radial_1102_22309" cx="0" cy="0" r="1" gradientUnits="userSpaceOnUse" gradientTransform="translate(1.10098 1.10098) rotate(85.3036) scale(2.11025)">
<stop stop-color="#868686"/>
<stop offset="1" stop-color="#D1D1D1"/>
</radialGradient>
<radialGradient id="paint8_radial_1102_22309" cx="0" cy="0" r="1" gradientUnits="userSpaceOnUse" gradientTransform="translate(1.10098 1.10098) rotate(85.3036) scale(2.11025)">
<stop stop-color="#868686"/>
<stop offset="1" stop-color="#D1D1D1"/>
</radialGradient>
<radialGradient id="paint9_radial_1102_22309" cx="0" cy="0" r="1" gradientUnits="userSpaceOnUse" gradientTransform="translate(1.10098 1.10098) rotate(85.3036) scale(2.11025)">
<stop stop-color="#868686"/>
<stop offset="1" stop-color="#D1D1D1"/>
</radialGradient>
<radialGradient id="paint10_radial_1102_22309" cx="0" cy="0" r="1" gradientUnits="userSpaceOnUse" gradientTransform="translate(1.10098 1.10098) rotate(85.3036) scale(2.11025)">
<stop stop-color="#868686"/>
<stop offset="1" stop-color="#D1D1D1"/>
</radialGradient>
<radialGradient id="paint11_radial_1102_22309" cx="0" cy="0" r="1" gradientUnits="userSpaceOnUse" gradientTransform="translate(1.10098 1.10098) rotate(85.3036) scale(2.11025)">
<stop stop-color="#868686"/>
<stop offset="1" stop-color="#D1D1D1"/>
</radialGradient>
<radialGradient id="paint12_radial_1102_22309" cx="0" cy="0" r="1" gradientUnits="userSpaceOnUse" gradientTransform="translate(1.10098 1.10098) rotate(85.3036) scale(2.11025)">
<stop stop-color="#868686"/>
<stop offset="1" stop-color="#D1D1D1"/>
</radialGradient>
<radialGradient id="paint13_radial_1102_22309" cx="0" cy="0" r="1" gradientUnits="userSpaceOnUse" gradientTransform="translate(1.10098 1.10098) rotate(85.3036) scale(2.11025)">
<stop stop-color="#868686"/>
<stop offset="1" stop-color="#D1D1D1"/>
</radialGradient>
<radialGradient id="paint14_radial_1102_22309" cx="0" cy="0" r="1" gradientUnits="userSpaceOnUse" gradientTransform="translate(1.10098 1.10098) rotate(85.3036) scale(2.11025)">
<stop stop-color="#868686"/>
<stop offset="1" stop-color="#D1D1D1"/>
</radialGradient>
<radialGradient id="paint15_radial_1102_22309" cx="0" cy="0" r="1" gradientUnits="userSpaceOnUse" gradientTransform="translate(1.10098 1.10098) rotate(85.3036) scale(2.11025)">
<stop stop-color="#868686"/>
<stop offset="1" stop-color="#D1D1D1"/>
</radialGradient>
<radialGradient id="paint16_radial_1102_22309" cx="0" cy="0" r="1" gradientUnits="userSpaceOnUse" gradientTransform="translate(1.10098 1.10098) rotate(85.3036) scale(2.11025)">
<stop stop-color="#868686"/>
<stop offset="1" stop-color="#D1D1D1"/>
</radialGradient>
<radialGradient id="paint17_radial_1102_22309" cx="0" cy="0" r="1" gradientUnits="userSpaceOnUse" gradientTransform="translate(1.10098 1.10098) rotate(85.3036) scale(2.11025)">
<stop stop-color="#868686"/>
<stop offset="1" stop-color="#D1D1D1"/>
</radialGradient>
<radialGradient id="paint18_radial_1102_22309" cx="0" cy="0" r="1" gradientUnits="userSpaceOnUse" gradientTransform="translate(1.10098 1.10098) rotate(85.3036) scale(2.11025)">
<stop stop-color="#868686"/>
<stop offset="1" stop-color="#D1D1D1"/>
</radialGradient>
<radialGradient id="paint19_radial_1102_22309" cx="0" cy="0" r="1" gradientUnits="userSpaceOnUse" gradientTransform="translate(1.10098 1.10098) rotate(85.3036) scale(2.11025)">
<stop stop-color="#868686"/>
<stop offset="1" stop-color="#D1D1D1"/>
</radialGradient>
<radialGradient id="paint20_radial_1102_22309" cx="0" cy="0" r="1" gradientUnits="userSpaceOnUse" gradientTransform="translate(1.10098 1.10098) rotate(85.3036) scale(2.11025)">
<stop stop-color="#868686"/>
<stop offset="1" stop-color="#D1D1D1"/>
</radialGradient>
<radialGradient id="paint21_radial_1102_22309" cx="0" cy="0" r="1" gradientUnits="userSpaceOnUse" gradientTransform="translate(1.10098 1.10098) rotate(85.3036) scale(2.11025)">
<stop stop-color="#868686"/>
<stop offset="1" stop-color="#D1D1D1"/>
</radialGradient>
<radialGradient id="paint22_radial_1102_22309" cx="0" cy="0" r="1" gradientUnits="userSpaceOnUse" gradientTransform="translate(1.10098 1.10098) rotate(85.3036) scale(2.11025)">
<stop stop-color="#868686"/>
<stop offset="1" stop-color="#D1D1D1"/>
</radialGradient>
<radialGradient id="paint23_radial_1102_22309" cx="0" cy="0" r="1" gradientUnits="userSpaceOnUse" gradientTransform="translate(1.10098 1.10098) rotate(85.3036) scale(2.11025)">
<stop stop-color="#868686"/>
<stop offset="1" stop-color="#D1D1D1"/>
</radialGradient>
<radialGradient id="paint24_radial_1102_22309" cx="0" cy="0" r="1" gradientUnits="userSpaceOnUse" gradientTransform="translate(1.10098 1.10098) rotate(85.3036) scale(2.11025)">
<stop stop-color="#868686"/>
<stop offset="1" stop-color="#D1D1D1"/>
</radialGradient>
<radialGradient id="paint25_radial_1102_22309" cx="0" cy="0" r="1" gradientUnits="userSpaceOnUse" gradientTransform="translate(1.10098 1.10098) rotate(85.3036) scale(2.11025)">
<stop stop-color="#868686"/>
<stop offset="1" stop-color="#D1D1D1"/>
</radialGradient>
<radialGradient id="paint26_radial_1102_22309" cx="0" cy="0" r="1" gradientUnits="userSpaceOnUse" gradientTransform="translate(1.10098 1.10098) rotate(85.3036) scale(2.11025)">
<stop stop-color="#868686"/>
<stop offset="1" stop-color="#D1D1D1"/>
</radialGradient>
<radialGradient id="paint27_radial_1102_22309" cx="0" cy="0" r="1" gradientUnits="userSpaceOnUse" gradientTransform="translate(1.10098 1.10098) rotate(85.3036) scale(2.11025)">
<stop stop-color="#868686"/>
<stop offset="1" stop-color="#D1D1D1"/>
</radialGradient>
<radialGradient id="paint28_radial_1102_22309" cx="0" cy="0" r="1" gradientUnits="userSpaceOnUse" gradientTransform="translate(1.10098 1.10098) rotate(85.3036) scale(2.11025)">
<stop stop-color="#868686"/>
<stop offset="1" stop-color="#D1D1D1"/>
</radialGradient>
<radialGradient id="paint29_radial_1102_22309" cx="0" cy="0" r="1" gradientUnits="userSpaceOnUse" gradientTransform="translate(1.10098 1.10098) rotate(85.3036) scale(2.11025)">
<stop stop-color="#868686"/>
<stop offset="1" stop-color="#D1D1D1"/>
</radialGradient>
<radialGradient id="paint30_radial_1102_22309" cx="0" cy="0" r="1" gradientUnits="userSpaceOnUse" gradientTransform="translate(1.10098 1.10098) rotate(85.3036) scale(2.11025)">
<stop stop-color="#868686"/>
<stop offset="1" stop-color="#D1D1D1"/>
</radialGradient>
<radialGradient id="paint31_radial_1102_22309" cx="0" cy="0" r="1" gradientUnits="userSpaceOnUse" gradientTransform="translate(1.10098 1.10098) rotate(85.3036) scale(2.11025)">
<stop stop-color="#868686"/>
<stop offset="1" stop-color="#D1D1D1"/>
</radialGradient>
<radialGradient id="paint32_radial_1102_22309" cx="0" cy="0" r="1" gradientUnits="userSpaceOnUse" gradientTransform="translate(1.10098 1.10098) rotate(85.3036) scale(2.11025)">
<stop stop-color="#868686"/>
<stop offset="1" stop-color="#D1D1D1"/>
</radialGradient>
<radialGradient id="paint33_radial_1102_22309" cx="0" cy="0" r="1" gradientUnits="userSpaceOnUse" gradientTransform="translate(1.10098 1.10098) rotate(85.3036) scale(2.11025)">
<stop stop-color="#868686"/>
<stop offset="1" stop-color="#D1D1D1"/>
</radialGradient>
<radialGradient id="paint34_radial_1102_22309" cx="0" cy="0" r="1" gradientUnits="userSpaceOnUse" gradientTransform="translate(1.10098 1.10098) rotate(85.3036) scale(2.11025)">
<stop stop-color="#868686"/>
<stop offset="1" stop-color="#D1D1D1"/>
</radialGradient>
<radialGradient id="paint35_radial_1102_22309" cx="0" cy="0" r="1" gradientUnits="userSpaceOnUse" gradientTransform="translate(1.10098 1.10098) rotate(85.3036) scale(2.11025)">
<stop stop-color="#868686"/>
<stop offset="1" stop-color="#D1D1D1"/>
</radialGradient>
<radialGradient id="paint36_radial_1102_22309" cx="0" cy="0" r="1" gradientUnits="userSpaceOnUse" gradientTransform="translate(1.10098 1.10098) rotate(85.3036) scale(2.11025)">
<stop stop-color="#868686"/>
<stop offset="1" stop-color="#D1D1D1"/>
</radialGradient>
<radialGradient id="paint37_radial_1102_22309" cx="0" cy="0" r="1" gradientUnits="userSpaceOnUse" gradientTransform="translate(1.10098 1.10098) rotate(85.3036) scale(2.11025)">
<stop stop-color="#868686"/>
<stop offset="1" stop-color="#D1D1D1"/>
</radialGradient>
<radialGradient id="paint38_radial_1102_22309" cx="0" cy="0" r="1" gradientUnits="userSpaceOnUse" gradientTransform="translate(1.10098 1.10098) rotate(85.3036) scale(2.11025)">
<stop stop-color="#868686"/>
<stop offset="1" stop-color="#D1D1D1"/>
</radialGradient>
<radialGradient id="paint39_radial_1102_22309" cx="0" cy="0" r="1" gradientUnits="userSpaceOnUse" gradientTransform="translate(1.10098 1.10098) rotate(85.3036) scale(2.11025)">
<stop stop-color="#868686"/>
<stop offset="1" stop-color="#D1D1D1"/>
</radialGradient>
</defs>
</svg>
