<svg width="88" height="100" viewBox="0 0 88 100" fill="none" xmlns="http://www.w3.org/2000/svg">
<rect width="2.20196" height="2.20196" rx="0.366993" transform="matrix(0.884092 0.467313 0.466033 -0.884767 12.6689 18.0922)" fill="url(#paint0_radial_1102_22221)" fill-opacity="0.5"/>
<rect width="2.20196" height="2.20196" rx="0.366993" transform="matrix(0.884092 0.467313 0.466033 -0.884767 12.6689 18.0922)" fill="url(#paint1_radial_1102_22221)"/>
<rect width="2.20196" height="2.20196" rx="0.366993" transform="matrix(0.884092 0.467313 0.466033 -0.884767 11.0273 23.2673)" fill="url(#paint2_radial_1102_22221)" fill-opacity="0.5"/>
<rect width="2.20196" height="2.20196" rx="0.366993" transform="matrix(0.884092 0.467313 0.466033 -0.884767 11.0273 23.2673)" fill="url(#paint3_radial_1102_22221)"/>
<rect width="2.20196" height="2.20196" rx="0.366993" transform="matrix(0.884092 0.467313 0.466033 -0.884767 9.86328 28.5703)" fill="url(#paint4_radial_1102_22221)" fill-opacity="0.5"/>
<rect width="2.20196" height="2.20196" rx="0.366993" transform="matrix(0.884092 0.467313 0.466033 -0.884767 9.86328 28.5703)" fill="url(#paint5_radial_1102_22221)"/>
<rect width="2.20196" height="2.20196" rx="0.366993" transform="matrix(0.884092 0.467313 0.466033 -0.884767 9.41992 33.9813)" fill="url(#paint6_radial_1102_22221)" fill-opacity="0.5"/>
<rect width="2.20196" height="2.20196" rx="0.366993" transform="matrix(0.884092 0.467313 0.466033 -0.884767 9.41992 33.9813)" fill="url(#paint7_radial_1102_22221)"/>
<rect width="2.20196" height="2.20196" rx="0.366993" transform="matrix(0.884092 0.467313 0.466033 -0.884767 10.2471 39.3472)" fill="url(#paint8_radial_1102_22221)" fill-opacity="0.5"/>
<rect width="2.20196" height="2.20196" rx="0.366993" transform="matrix(0.884092 0.467313 0.466033 -0.884767 10.2471 39.3472)" fill="url(#paint9_radial_1102_22221)"/>
<rect width="2.20196" height="2.20196" rx="0.366993" transform="matrix(0.884092 0.467313 0.466033 -0.884767 13.0771 43.6544)" fill="url(#paint10_radial_1102_22221)" fill-opacity="0.5"/>
<rect width="2.20196" height="2.20196" rx="0.366993" transform="matrix(0.884092 0.467313 0.466033 -0.884767 13.0771 43.6544)" fill="url(#paint11_radial_1102_22221)"/>
<rect width="2.20196" height="2.20196" rx="0.366993" transform="matrix(0.884092 0.467313 0.466033 -0.884767 17.7861 46.5541)" fill="url(#paint12_radial_1102_22221)" fill-opacity="0.5"/>
<rect width="2.20196" height="2.20196" rx="0.366993" transform="matrix(0.884092 0.467313 0.466033 -0.884767 17.7861 46.5541)" fill="url(#paint13_radial_1102_22221)"/>
<rect width="2.20196" height="2.20196" rx="0.366993" transform="matrix(0.884092 0.467313 0.466033 -0.884767 23.1494 47.3904)" fill="url(#paint14_radial_1102_22221)" fill-opacity="0.5"/>
<rect width="2.20196" height="2.20196" rx="0.366993" transform="matrix(0.884092 0.467313 0.466033 -0.884767 23.1494 47.3904)" fill="url(#paint15_radial_1102_22221)"/>
<rect width="2.20196" height="2.20196" rx="0.366993" transform="matrix(0.884092 0.467313 0.466033 -0.884767 28.4492 46.21)" fill="url(#paint16_radial_1102_22221)" fill-opacity="0.5"/>
<rect width="2.20196" height="2.20196" rx="0.366993" transform="matrix(0.884092 0.467313 0.466033 -0.884767 28.4492 46.21)" fill="url(#paint17_radial_1102_22221)"/>
<rect width="2.20196" height="2.20196" rx="0.366993" transform="matrix(0.884092 0.467313 0.466033 -0.884767 33.4004 43.9808)" fill="url(#paint18_radial_1102_22221)" fill-opacity="0.5"/>
<rect width="2.20196" height="2.20196" rx="0.366993" transform="matrix(0.884092 0.467313 0.466033 -0.884767 33.4004 43.9808)" fill="url(#paint19_radial_1102_22221)"/>
<rect width="2.20196" height="2.20196" rx="0.366993" transform="matrix(0.884092 0.467313 0.466033 -0.884767 38.2109 41.4626)" fill="url(#paint20_radial_1102_22221)" fill-opacity="0.5"/>
<rect width="2.20196" height="2.20196" rx="0.366993" transform="matrix(0.884092 0.467313 0.466033 -0.884767 38.2109 41.4626)" fill="url(#paint21_radial_1102_22221)"/>
<rect width="2.20196" height="2.20196" rx="0.366993" transform="matrix(0.884092 0.467313 0.466033 -0.884767 43.1553 39.2227)" fill="url(#paint22_radial_1102_22221)" fill-opacity="0.5"/>
<rect width="2.20196" height="2.20196" rx="0.366993" transform="matrix(0.884092 0.467313 0.466033 -0.884767 43.1553 39.2227)" fill="url(#paint23_radial_1102_22221)"/>
<rect width="2.20196" height="2.20196" rx="0.366993" transform="matrix(0.884092 0.467313 0.466033 -0.884767 48.4385 37.9724)" fill="url(#paint24_radial_1102_22221)" fill-opacity="0.5"/>
<rect width="2.20196" height="2.20196" rx="0.366993" transform="matrix(0.884092 0.467313 0.466033 -0.884767 48.4385 37.9724)" fill="url(#paint25_radial_1102_22221)"/>
<rect width="2.20196" height="2.20196" rx="0.366993" transform="matrix(0.884092 0.467313 0.466033 -0.884767 53.8311 38.601)" fill="url(#paint26_radial_1102_22221)" fill-opacity="0.5"/>
<rect width="2.20196" height="2.20196" rx="0.366993" transform="matrix(0.884092 0.467313 0.466033 -0.884767 53.8311 38.601)" fill="url(#paint27_radial_1102_22221)"/>
<rect width="2.20196" height="2.20196" rx="0.366993" transform="matrix(0.884092 0.467313 0.466033 -0.884767 58.6055 41.1864)" fill="url(#paint28_radial_1102_22221)" fill-opacity="0.5"/>
<rect width="2.20196" height="2.20196" rx="0.366993" transform="matrix(0.884092 0.467313 0.466033 -0.884767 58.6055 41.1864)" fill="url(#paint29_radial_1102_22221)"/>
<rect width="2.20196" height="2.20196" rx="0.366993" transform="matrix(0.884092 0.467313 0.466033 -0.884767 62.79 45.1296)" fill="url(#paint30_radial_1102_22221)" fill-opacity="0.5"/>
<rect width="2.20196" height="2.20196" rx="0.366993" transform="matrix(0.884092 0.467313 0.466033 -0.884767 62.79 45.1296)" fill="url(#paint31_radial_1102_22221)"/>
<rect width="2.20196" height="2.20196" rx="0.366993" transform="matrix(0.884092 0.467313 0.466033 -0.884767 66.1553 49.3907)" fill="url(#paint32_radial_1102_22221)" fill-opacity="0.5"/>
<rect width="2.20196" height="2.20196" rx="0.366993" transform="matrix(0.884092 0.467313 0.466033 -0.884767 66.1553 49.3907)" fill="url(#paint33_radial_1102_22221)"/>
<rect width="2.20196" height="2.20196" rx="0.366993" transform="matrix(0.884092 0.467313 0.466033 -0.884767 69.0068 54.0106)" fill="url(#paint34_radial_1102_22221)" fill-opacity="0.5"/>
<rect width="2.20196" height="2.20196" rx="0.366993" transform="matrix(0.884092 0.467313 0.466033 -0.884767 69.0068 54.0106)" fill="url(#paint35_radial_1102_22221)"/>
<rect width="2.20196" height="2.20196" rx="0.366993" transform="matrix(0.884092 0.467313 0.466033 -0.884767 71.4023 58.8823)" fill="url(#paint36_radial_1102_22221)" fill-opacity="0.5"/>
<rect width="2.20196" height="2.20196" rx="0.366993" transform="matrix(0.884092 0.467313 0.466033 -0.884767 71.4023 58.8823)" fill="url(#paint37_radial_1102_22221)"/>
<rect width="2.20196" height="2.20196" rx="0.366993" transform="matrix(0.884092 0.467313 0.466033 -0.884767 73.3936 63.9335)" fill="url(#paint38_radial_1102_22221)" fill-opacity="0.5"/>
<rect width="2.20196" height="2.20196" rx="0.366993" transform="matrix(0.884092 0.467313 0.466033 -0.884767 73.3936 63.9335)" fill="url(#paint39_radial_1102_22221)"/>
<rect width="2.20196" height="2.20196" rx="0.366993" transform="matrix(0.884092 0.467313 0.466033 -0.884767 75.0195 69.1096)" fill="url(#paint40_radial_1102_22221)" fill-opacity="0.5"/>
<rect width="2.20196" height="2.20196" rx="0.366993" transform="matrix(0.884092 0.467313 0.466033 -0.884767 75.0195 69.1096)" fill="url(#paint41_radial_1102_22221)"/>
<rect width="2.20196" height="2.20196" rx="0.366993" transform="matrix(0.884092 0.467313 0.466033 -0.884767 76.2559 73.7323)" fill="url(#paint42_radial_1102_22221)" fill-opacity="0.5"/>
<rect width="2.20196" height="2.20196" rx="0.366993" transform="matrix(0.884092 0.467313 0.466033 -0.884767 76.2559 73.7323)" fill="url(#paint43_radial_1102_22221)"/>
<rect width="2.20196" height="2.20196" rx="0.366993" transform="matrix(0.884092 0.467313 0.466033 -0.884767 77.166 79.4036)" fill="url(#paint44_radial_1102_22221)" fill-opacity="0.5"/>
<rect width="2.20196" height="2.20196" rx="0.366993" transform="matrix(0.884092 0.467313 0.466033 -0.884767 77.166 79.4036)" fill="url(#paint45_radial_1102_22221)"/>
<defs>
<radialGradient id="paint0_radial_1102_22221" cx="0" cy="0" r="1" gradientUnits="userSpaceOnUse" gradientTransform="translate(1.10098 1.10098) rotate(85.3036) scale(2.11025)">
<stop stop-color="#868686"/>
<stop offset="1" stop-color="#D1D1D1"/>
</radialGradient>
<radialGradient id="paint1_radial_1102_22221" cx="0" cy="0" r="1" gradientUnits="userSpaceOnUse" gradientTransform="translate(1.10098 1.10098) rotate(85.3036) scale(2.11025)">
<stop stop-color="#868686"/>
<stop offset="1" stop-color="#D1D1D1"/>
</radialGradient>
<radialGradient id="paint2_radial_1102_22221" cx="0" cy="0" r="1" gradientUnits="userSpaceOnUse" gradientTransform="translate(1.10098 1.10098) rotate(85.3036) scale(2.11025)">
<stop stop-color="#868686"/>
<stop offset="1" stop-color="#D1D1D1"/>
</radialGradient>
<radialGradient id="paint3_radial_1102_22221" cx="0" cy="0" r="1" gradientUnits="userSpaceOnUse" gradientTransform="translate(1.10098 1.10098) rotate(85.3036) scale(2.11025)">
<stop stop-color="#868686"/>
<stop offset="1" stop-color="#D1D1D1"/>
</radialGradient>
<radialGradient id="paint4_radial_1102_22221" cx="0" cy="0" r="1" gradientUnits="userSpaceOnUse" gradientTransform="translate(1.10098 1.10098) rotate(85.3036) scale(2.11025)">
<stop stop-color="#868686"/>
<stop offset="1" stop-color="#D1D1D1"/>
</radialGradient>
<radialGradient id="paint5_radial_1102_22221" cx="0" cy="0" r="1" gradientUnits="userSpaceOnUse" gradientTransform="translate(1.10098 1.10098) rotate(85.3036) scale(2.11025)">
<stop stop-color="#868686"/>
<stop offset="1" stop-color="#D1D1D1"/>
</radialGradient>
<radialGradient id="paint6_radial_1102_22221" cx="0" cy="0" r="1" gradientUnits="userSpaceOnUse" gradientTransform="translate(1.10098 1.10098) rotate(85.3036) scale(2.11025)">
<stop stop-color="#868686"/>
<stop offset="1" stop-color="#D1D1D1"/>
</radialGradient>
<radialGradient id="paint7_radial_1102_22221" cx="0" cy="0" r="1" gradientUnits="userSpaceOnUse" gradientTransform="translate(1.10098 1.10098) rotate(85.3036) scale(2.11025)">
<stop stop-color="#868686"/>
<stop offset="1" stop-color="#D1D1D1"/>
</radialGradient>
<radialGradient id="paint8_radial_1102_22221" cx="0" cy="0" r="1" gradientUnits="userSpaceOnUse" gradientTransform="translate(1.10098 1.10098) rotate(85.3036) scale(2.11025)">
<stop stop-color="#868686"/>
<stop offset="1" stop-color="#D1D1D1"/>
</radialGradient>
<radialGradient id="paint9_radial_1102_22221" cx="0" cy="0" r="1" gradientUnits="userSpaceOnUse" gradientTransform="translate(1.10098 1.10098) rotate(85.3036) scale(2.11025)">
<stop stop-color="#868686"/>
<stop offset="1" stop-color="#D1D1D1"/>
</radialGradient>
<radialGradient id="paint10_radial_1102_22221" cx="0" cy="0" r="1" gradientUnits="userSpaceOnUse" gradientTransform="translate(1.10098 1.10098) rotate(85.3036) scale(2.11025)">
<stop stop-color="#868686"/>
<stop offset="1" stop-color="#D1D1D1"/>
</radialGradient>
<radialGradient id="paint11_radial_1102_22221" cx="0" cy="0" r="1" gradientUnits="userSpaceOnUse" gradientTransform="translate(1.10098 1.10098) rotate(85.3036) scale(2.11025)">
<stop stop-color="#868686"/>
<stop offset="1" stop-color="#D1D1D1"/>
</radialGradient>
<radialGradient id="paint12_radial_1102_22221" cx="0" cy="0" r="1" gradientUnits="userSpaceOnUse" gradientTransform="translate(1.10098 1.10098) rotate(85.3036) scale(2.11025)">
<stop stop-color="#868686"/>
<stop offset="1" stop-color="#D1D1D1"/>
</radialGradient>
<radialGradient id="paint13_radial_1102_22221" cx="0" cy="0" r="1" gradientUnits="userSpaceOnUse" gradientTransform="translate(1.10098 1.10098) rotate(85.3036) scale(2.11025)">
<stop stop-color="#868686"/>
<stop offset="1" stop-color="#D1D1D1"/>
</radialGradient>
<radialGradient id="paint14_radial_1102_22221" cx="0" cy="0" r="1" gradientUnits="userSpaceOnUse" gradientTransform="translate(1.10098 1.10098) rotate(85.3036) scale(2.11025)">
<stop stop-color="#868686"/>
<stop offset="1" stop-color="#D1D1D1"/>
</radialGradient>
<radialGradient id="paint15_radial_1102_22221" cx="0" cy="0" r="1" gradientUnits="userSpaceOnUse" gradientTransform="translate(1.10098 1.10098) rotate(85.3036) scale(2.11025)">
<stop stop-color="#868686"/>
<stop offset="1" stop-color="#D1D1D1"/>
</radialGradient>
<radialGradient id="paint16_radial_1102_22221" cx="0" cy="0" r="1" gradientUnits="userSpaceOnUse" gradientTransform="translate(1.10098 1.10098) rotate(85.3036) scale(2.11025)">
<stop stop-color="#868686"/>
<stop offset="1" stop-color="#D1D1D1"/>
</radialGradient>
<radialGradient id="paint17_radial_1102_22221" cx="0" cy="0" r="1" gradientUnits="userSpaceOnUse" gradientTransform="translate(1.10098 1.10098) rotate(85.3036) scale(2.11025)">
<stop stop-color="#868686"/>
<stop offset="1" stop-color="#D1D1D1"/>
</radialGradient>
<radialGradient id="paint18_radial_1102_22221" cx="0" cy="0" r="1" gradientUnits="userSpaceOnUse" gradientTransform="translate(1.10098 1.10098) rotate(85.3036) scale(2.11025)">
<stop stop-color="#868686"/>
<stop offset="1" stop-color="#D1D1D1"/>
</radialGradient>
<radialGradient id="paint19_radial_1102_22221" cx="0" cy="0" r="1" gradientUnits="userSpaceOnUse" gradientTransform="translate(1.10098 1.10098) rotate(85.3036) scale(2.11025)">
<stop stop-color="#868686"/>
<stop offset="1" stop-color="#D1D1D1"/>
</radialGradient>
<radialGradient id="paint20_radial_1102_22221" cx="0" cy="0" r="1" gradientUnits="userSpaceOnUse" gradientTransform="translate(1.10098 1.10098) rotate(85.3036) scale(2.11025)">
<stop stop-color="#868686"/>
<stop offset="1" stop-color="#D1D1D1"/>
</radialGradient>
<radialGradient id="paint21_radial_1102_22221" cx="0" cy="0" r="1" gradientUnits="userSpaceOnUse" gradientTransform="translate(1.10098 1.10098) rotate(85.3036) scale(2.11025)">
<stop stop-color="#868686"/>
<stop offset="1" stop-color="#D1D1D1"/>
</radialGradient>
<radialGradient id="paint22_radial_1102_22221" cx="0" cy="0" r="1" gradientUnits="userSpaceOnUse" gradientTransform="translate(1.10098 1.10098) rotate(85.3036) scale(2.11025)">
<stop stop-color="#868686"/>
<stop offset="1" stop-color="#D1D1D1"/>
</radialGradient>
<radialGradient id="paint23_radial_1102_22221" cx="0" cy="0" r="1" gradientUnits="userSpaceOnUse" gradientTransform="translate(1.10098 1.10098) rotate(85.3036) scale(2.11025)">
<stop stop-color="#868686"/>
<stop offset="1" stop-color="#D1D1D1"/>
</radialGradient>
<radialGradient id="paint24_radial_1102_22221" cx="0" cy="0" r="1" gradientUnits="userSpaceOnUse" gradientTransform="translate(1.10098 1.10098) rotate(85.3036) scale(2.11025)">
<stop stop-color="#868686"/>
<stop offset="1" stop-color="#D1D1D1"/>
</radialGradient>
<radialGradient id="paint25_radial_1102_22221" cx="0" cy="0" r="1" gradientUnits="userSpaceOnUse" gradientTransform="translate(1.10098 1.10098) rotate(85.3036) scale(2.11025)">
<stop stop-color="#868686"/>
<stop offset="1" stop-color="#D1D1D1"/>
</radialGradient>
<radialGradient id="paint26_radial_1102_22221" cx="0" cy="0" r="1" gradientUnits="userSpaceOnUse" gradientTransform="translate(1.10098 1.10098) rotate(85.3036) scale(2.11025)">
<stop stop-color="#868686"/>
<stop offset="1" stop-color="#D1D1D1"/>
</radialGradient>
<radialGradient id="paint27_radial_1102_22221" cx="0" cy="0" r="1" gradientUnits="userSpaceOnUse" gradientTransform="translate(1.10098 1.10098) rotate(85.3036) scale(2.11025)">
<stop stop-color="#868686"/>
<stop offset="1" stop-color="#D1D1D1"/>
</radialGradient>
<radialGradient id="paint28_radial_1102_22221" cx="0" cy="0" r="1" gradientUnits="userSpaceOnUse" gradientTransform="translate(1.10098 1.10098) rotate(85.3036) scale(2.11025)">
<stop stop-color="#868686"/>
<stop offset="1" stop-color="#D1D1D1"/>
</radialGradient>
<radialGradient id="paint29_radial_1102_22221" cx="0" cy="0" r="1" gradientUnits="userSpaceOnUse" gradientTransform="translate(1.10098 1.10098) rotate(85.3036) scale(2.11025)">
<stop stop-color="#868686"/>
<stop offset="1" stop-color="#D1D1D1"/>
</radialGradient>
<radialGradient id="paint30_radial_1102_22221" cx="0" cy="0" r="1" gradientUnits="userSpaceOnUse" gradientTransform="translate(1.10098 1.10098) rotate(85.3036) scale(2.11025)">
<stop stop-color="#868686"/>
<stop offset="1" stop-color="#D1D1D1"/>
</radialGradient>
<radialGradient id="paint31_radial_1102_22221" cx="0" cy="0" r="1" gradientUnits="userSpaceOnUse" gradientTransform="translate(1.10098 1.10098) rotate(85.3036) scale(2.11025)">
<stop stop-color="#868686"/>
<stop offset="1" stop-color="#D1D1D1"/>
</radialGradient>
<radialGradient id="paint32_radial_1102_22221" cx="0" cy="0" r="1" gradientUnits="userSpaceOnUse" gradientTransform="translate(1.10098 1.10098) rotate(85.3036) scale(2.11025)">
<stop stop-color="#868686"/>
<stop offset="1" stop-color="#D1D1D1"/>
</radialGradient>
<radialGradient id="paint33_radial_1102_22221" cx="0" cy="0" r="1" gradientUnits="userSpaceOnUse" gradientTransform="translate(1.10098 1.10098) rotate(85.3036) scale(2.11025)">
<stop stop-color="#868686"/>
<stop offset="1" stop-color="#D1D1D1"/>
</radialGradient>
<radialGradient id="paint34_radial_1102_22221" cx="0" cy="0" r="1" gradientUnits="userSpaceOnUse" gradientTransform="translate(1.10098 1.10098) rotate(85.3036) scale(2.11025)">
<stop stop-color="#868686"/>
<stop offset="1" stop-color="#D1D1D1"/>
</radialGradient>
<radialGradient id="paint35_radial_1102_22221" cx="0" cy="0" r="1" gradientUnits="userSpaceOnUse" gradientTransform="translate(1.10098 1.10098) rotate(85.3036) scale(2.11025)">
<stop stop-color="#868686"/>
<stop offset="1" stop-color="#D1D1D1"/>
</radialGradient>
<radialGradient id="paint36_radial_1102_22221" cx="0" cy="0" r="1" gradientUnits="userSpaceOnUse" gradientTransform="translate(1.10098 1.10098) rotate(85.3036) scale(2.11025)">
<stop stop-color="#868686"/>
<stop offset="1" stop-color="#D1D1D1"/>
</radialGradient>
<radialGradient id="paint37_radial_1102_22221" cx="0" cy="0" r="1" gradientUnits="userSpaceOnUse" gradientTransform="translate(1.10098 1.10098) rotate(85.3036) scale(2.11025)">
<stop stop-color="#868686"/>
<stop offset="1" stop-color="#D1D1D1"/>
</radialGradient>
<radialGradient id="paint38_radial_1102_22221" cx="0" cy="0" r="1" gradientUnits="userSpaceOnUse" gradientTransform="translate(1.10098 1.10098) rotate(85.3036) scale(2.11025)">
<stop stop-color="#868686"/>
<stop offset="1" stop-color="#D1D1D1"/>
</radialGradient>
<radialGradient id="paint39_radial_1102_22221" cx="0" cy="0" r="1" gradientUnits="userSpaceOnUse" gradientTransform="translate(1.10098 1.10098) rotate(85.3036) scale(2.11025)">
<stop stop-color="#868686"/>
<stop offset="1" stop-color="#D1D1D1"/>
</radialGradient>
<radialGradient id="paint40_radial_1102_22221" cx="0" cy="0" r="1" gradientUnits="userSpaceOnUse" gradientTransform="translate(1.10098 1.10098) rotate(85.3036) scale(2.11025)">
<stop stop-color="#868686"/>
<stop offset="1" stop-color="#D1D1D1"/>
</radialGradient>
<radialGradient id="paint41_radial_1102_22221" cx="0" cy="0" r="1" gradientUnits="userSpaceOnUse" gradientTransform="translate(1.10098 1.10098) rotate(85.3036) scale(2.11025)">
<stop stop-color="#868686"/>
<stop offset="1" stop-color="#D1D1D1"/>
</radialGradient>
<radialGradient id="paint42_radial_1102_22221" cx="0" cy="0" r="1" gradientUnits="userSpaceOnUse" gradientTransform="translate(1.10098 1.10098) rotate(85.3036) scale(2.11025)">
<stop stop-color="#868686"/>
<stop offset="1" stop-color="#D1D1D1"/>
</radialGradient>
<radialGradient id="paint43_radial_1102_22221" cx="0" cy="0" r="1" gradientUnits="userSpaceOnUse" gradientTransform="translate(1.10098 1.10098) rotate(85.3036) scale(2.11025)">
<stop stop-color="#868686"/>
<stop offset="1" stop-color="#D1D1D1"/>
</radialGradient>
<radialGradient id="paint44_radial_1102_22221" cx="0" cy="0" r="1" gradientUnits="userSpaceOnUse" gradientTransform="translate(1.10098 1.10098) rotate(85.3036) scale(2.11025)">
<stop stop-color="#868686"/>
<stop offset="1" stop-color="#D1D1D1"/>
</radialGradient>
<radialGradient id="paint45_radial_1102_22221" cx="0" cy="0" r="1" gradientUnits="userSpaceOnUse" gradientTransform="translate(1.10098 1.10098) rotate(85.3036) scale(2.11025)">
<stop stop-color="#868686"/>
<stop offset="1" stop-color="#D1D1D1"/>
</radialGradient>
</defs>
</svg>
