<svg width="120" height="134" viewBox="0 0 120 134" fill="none" xmlns="http://www.w3.org/2000/svg">
<rect width="3" height="3" rx="0.5" transform="matrix(0.884092 0.467313 0.466033 -0.884767 16.916 23.448)" fill="url(#paint0_radial_1102_643)" fill-opacity="0.5"/>
<rect width="3" height="3" rx="0.5" transform="matrix(0.884092 0.467313 0.466033 -0.884767 16.916 23.448)" fill="url(#paint1_radial_1102_643)"/>
<rect width="3" height="3" rx="0.5" transform="matrix(0.884092 0.467313 0.466033 -0.884767 14.6807 30.4988)" fill="url(#paint2_radial_1102_643)" fill-opacity="0.5"/>
<rect width="3" height="3" rx="0.5" transform="matrix(0.884092 0.467313 0.466033 -0.884767 14.6807 30.4988)" fill="url(#paint3_radial_1102_643)"/>
<rect width="3" height="3" rx="0.5" transform="matrix(0.884092 0.467313 0.466033 -0.884767 13.0957 37.7239)" fill="url(#paint4_radial_1102_643)" fill-opacity="0.5"/>
<rect width="3" height="3" rx="0.5" transform="matrix(0.884092 0.467313 0.466033 -0.884767 13.0957 37.7239)" fill="url(#paint5_radial_1102_643)"/>
<rect width="3" height="3" rx="0.5" transform="matrix(0.884092 0.467313 0.466033 -0.884767 12.4912 45.0959)" fill="url(#paint6_radial_1102_643)" fill-opacity="0.5"/>
<rect width="3" height="3" rx="0.5" transform="matrix(0.884092 0.467313 0.466033 -0.884767 12.4912 45.0959)" fill="url(#paint7_radial_1102_643)"/>
<rect width="3" height="3" rx="0.5" transform="matrix(0.884092 0.467313 0.466033 -0.884767 13.6172 52.4065)" fill="url(#paint8_radial_1102_643)" fill-opacity="0.5"/>
<rect width="3" height="3" rx="0.5" transform="matrix(0.884092 0.467313 0.466033 -0.884767 13.6172 52.4065)" fill="url(#paint9_radial_1102_643)"/>
<rect width="3" height="3" rx="0.5" transform="matrix(0.884092 0.467313 0.466033 -0.884767 17.4736 58.2749)" fill="url(#paint10_radial_1102_643)" fill-opacity="0.5"/>
<rect width="3" height="3" rx="0.5" transform="matrix(0.884092 0.467313 0.466033 -0.884767 17.4736 58.2749)" fill="url(#paint11_radial_1102_643)"/>
<rect width="3" height="3" rx="0.5" transform="matrix(0.884092 0.467313 0.466033 -0.884767 23.8887 62.2251)" fill="url(#paint12_radial_1102_643)" fill-opacity="0.5"/>
<rect width="3" height="3" rx="0.5" transform="matrix(0.884092 0.467313 0.466033 -0.884767 23.8887 62.2251)" fill="url(#paint13_radial_1102_643)"/>
<rect width="3" height="3" rx="0.5" transform="matrix(0.884092 0.467313 0.466033 -0.884767 31.1973 63.3645)" fill="url(#paint14_radial_1102_643)" fill-opacity="0.5"/>
<rect width="3" height="3" rx="0.5" transform="matrix(0.884092 0.467313 0.466033 -0.884767 31.1973 63.3645)" fill="url(#paint15_radial_1102_643)"/>
<rect width="3" height="3" rx="0.5" transform="matrix(0.884092 0.467313 0.466033 -0.884767 38.417 61.7563)" fill="url(#paint16_radial_1102_643)" fill-opacity="0.5"/>
<rect width="3" height="3" rx="0.5" transform="matrix(0.884092 0.467313 0.466033 -0.884767 38.417 61.7563)" fill="url(#paint17_radial_1102_643)"/>
<rect width="3" height="3" rx="0.5" transform="matrix(0.884092 0.467313 0.466033 -0.884767 45.1621 58.7192)" fill="url(#paint18_radial_1102_643)" fill-opacity="0.5"/>
<rect width="3" height="3" rx="0.5" transform="matrix(0.884092 0.467313 0.466033 -0.884767 45.1621 58.7192)" fill="url(#paint19_radial_1102_643)"/>
<rect width="3" height="3" rx="0.5" transform="matrix(0.884092 0.467313 0.466033 -0.884767 51.7148 55.2886)" fill="url(#paint20_radial_1102_643)" fill-opacity="0.5"/>
<rect width="3" height="3" rx="0.5" transform="matrix(0.884092 0.467313 0.466033 -0.884767 51.7148 55.2886)" fill="url(#paint21_radial_1102_643)"/>
<rect width="3" height="3" rx="0.5" transform="matrix(0.884092 0.467313 0.466033 -0.884767 58.4531 52.2368)" fill="url(#paint22_radial_1102_643)" fill-opacity="0.5"/>
<rect width="3" height="3" rx="0.5" transform="matrix(0.884092 0.467313 0.466033 -0.884767 58.4531 52.2368)" fill="url(#paint23_radial_1102_643)"/>
<rect width="3" height="3" rx="0.5" transform="matrix(0.884092 0.467313 0.466033 -0.884767 65.6514 50.5334)" fill="url(#paint24_radial_1102_643)" fill-opacity="0.5"/>
<rect width="3" height="3" rx="0.5" transform="matrix(0.884092 0.467313 0.466033 -0.884767 65.6514 50.5334)" fill="url(#paint25_radial_1102_643)"/>
<rect width="3" height="3" rx="0.5" transform="matrix(0.884092 0.467313 0.466033 -0.884767 72.998 51.3896)" fill="url(#paint26_radial_1102_643)" fill-opacity="0.5"/>
<rect width="3" height="3" rx="0.5" transform="matrix(0.884092 0.467313 0.466033 -0.884767 72.998 51.3896)" fill="url(#paint27_radial_1102_643)"/>
<rect width="3" height="3" rx="0.5" transform="matrix(0.884092 0.467313 0.466033 -0.884767 79.5029 54.9121)" fill="url(#paint28_radial_1102_643)" fill-opacity="0.5"/>
<rect width="3" height="3" rx="0.5" transform="matrix(0.884092 0.467313 0.466033 -0.884767 79.5029 54.9121)" fill="url(#paint29_radial_1102_643)"/>
<rect width="3" height="3" rx="0.5" transform="matrix(0.884092 0.467313 0.466033 -0.884767 85.2031 60.2844)" fill="url(#paint30_radial_1102_643)" fill-opacity="0.5"/>
<rect width="3" height="3" rx="0.5" transform="matrix(0.884092 0.467313 0.466033 -0.884767 85.2031 60.2844)" fill="url(#paint31_radial_1102_643)"/>
<rect width="3" height="3" rx="0.5" transform="matrix(0.884092 0.467313 0.466033 -0.884767 89.7871 66.0901)" fill="url(#paint32_radial_1102_643)" fill-opacity="0.5"/>
<rect width="3" height="3" rx="0.5" transform="matrix(0.884092 0.467313 0.466033 -0.884767 89.7871 66.0901)" fill="url(#paint33_radial_1102_643)"/>
<rect width="3" height="3" rx="0.5" transform="matrix(0.884092 0.467313 0.466033 -0.884767 93.6738 72.384)" fill="url(#paint34_radial_1102_643)" fill-opacity="0.5"/>
<rect width="3" height="3" rx="0.5" transform="matrix(0.884092 0.467313 0.466033 -0.884767 93.6738 72.384)" fill="url(#paint35_radial_1102_643)"/>
<rect width="3" height="3" rx="0.5" transform="matrix(0.884092 0.467313 0.466033 -0.884767 96.9365 79.0215)" fill="url(#paint36_radial_1102_643)" fill-opacity="0.5"/>
<rect width="3" height="3" rx="0.5" transform="matrix(0.884092 0.467313 0.466033 -0.884767 96.9365 79.0215)" fill="url(#paint37_radial_1102_643)"/>
<rect width="3" height="3" rx="0.5" transform="matrix(0.884092 0.467313 0.466033 -0.884767 99.6504 85.9031)" fill="url(#paint38_radial_1102_643)" fill-opacity="0.5"/>
<rect width="3" height="3" rx="0.5" transform="matrix(0.884092 0.467313 0.466033 -0.884767 99.6504 85.9031)" fill="url(#paint39_radial_1102_643)"/>
<rect width="3" height="3" rx="0.5" transform="matrix(0.884092 0.467313 0.466033 -0.884767 101.865 92.9553)" fill="url(#paint40_radial_1102_643)" fill-opacity="0.5"/>
<rect width="3" height="3" rx="0.5" transform="matrix(0.884092 0.467313 0.466033 -0.884767 101.865 92.9553)" fill="url(#paint41_radial_1102_643)"/>
<rect width="3" height="3" rx="0.5" transform="matrix(0.884092 0.467313 0.466033 -0.884767 103.55 99.2534)" fill="url(#paint42_radial_1102_643)" fill-opacity="0.5"/>
<rect width="3" height="3" rx="0.5" transform="matrix(0.884092 0.467313 0.466033 -0.884767 103.55 99.2534)" fill="url(#paint43_radial_1102_643)"/>
<rect width="3" height="3" rx="0.5" transform="matrix(0.884092 0.467313 0.466033 -0.884767 104.792 106.98)" fill="url(#paint44_radial_1102_643)" fill-opacity="0.5"/>
<rect width="3" height="3" rx="0.5" transform="matrix(0.884092 0.467313 0.466033 -0.884767 104.792 106.98)" fill="url(#paint45_radial_1102_643)"/>
<defs>
<radialGradient id="paint0_radial_1102_643" cx="0" cy="0" r="1" gradientUnits="userSpaceOnUse" gradientTransform="translate(1.5 1.5) rotate(85.3036) scale(2.87506)">
<stop stop-color="#868686"/>
<stop offset="1" stop-color="#D1D1D1"/>
</radialGradient>
<radialGradient id="paint1_radial_1102_643" cx="0" cy="0" r="1" gradientUnits="userSpaceOnUse" gradientTransform="translate(1.5 1.5) rotate(85.3036) scale(2.87506)">
<stop stop-color="#868686"/>
<stop offset="1" stop-color="#D1D1D1"/>
</radialGradient>
<radialGradient id="paint2_radial_1102_643" cx="0" cy="0" r="1" gradientUnits="userSpaceOnUse" gradientTransform="translate(1.5 1.5) rotate(85.3036) scale(2.87506)">
<stop stop-color="#868686"/>
<stop offset="1" stop-color="#D1D1D1"/>
</radialGradient>
<radialGradient id="paint3_radial_1102_643" cx="0" cy="0" r="1" gradientUnits="userSpaceOnUse" gradientTransform="translate(1.5 1.5) rotate(85.3036) scale(2.87506)">
<stop stop-color="#868686"/>
<stop offset="1" stop-color="#D1D1D1"/>
</radialGradient>
<radialGradient id="paint4_radial_1102_643" cx="0" cy="0" r="1" gradientUnits="userSpaceOnUse" gradientTransform="translate(1.5 1.5) rotate(85.3036) scale(2.87506)">
<stop stop-color="#868686"/>
<stop offset="1" stop-color="#D1D1D1"/>
</radialGradient>
<radialGradient id="paint5_radial_1102_643" cx="0" cy="0" r="1" gradientUnits="userSpaceOnUse" gradientTransform="translate(1.5 1.5) rotate(85.3036) scale(2.87506)">
<stop stop-color="#868686"/>
<stop offset="1" stop-color="#D1D1D1"/>
</radialGradient>
<radialGradient id="paint6_radial_1102_643" cx="0" cy="0" r="1" gradientUnits="userSpaceOnUse" gradientTransform="translate(1.5 1.5) rotate(85.3036) scale(2.87506)">
<stop stop-color="#868686"/>
<stop offset="1" stop-color="#D1D1D1"/>
</radialGradient>
<radialGradient id="paint7_radial_1102_643" cx="0" cy="0" r="1" gradientUnits="userSpaceOnUse" gradientTransform="translate(1.5 1.5) rotate(85.3036) scale(2.87506)">
<stop stop-color="#868686"/>
<stop offset="1" stop-color="#D1D1D1"/>
</radialGradient>
<radialGradient id="paint8_radial_1102_643" cx="0" cy="0" r="1" gradientUnits="userSpaceOnUse" gradientTransform="translate(1.5 1.5) rotate(85.3036) scale(2.87506)">
<stop stop-color="#868686"/>
<stop offset="1" stop-color="#D1D1D1"/>
</radialGradient>
<radialGradient id="paint9_radial_1102_643" cx="0" cy="0" r="1" gradientUnits="userSpaceOnUse" gradientTransform="translate(1.5 1.5) rotate(85.3036) scale(2.87506)">
<stop stop-color="#868686"/>
<stop offset="1" stop-color="#D1D1D1"/>
</radialGradient>
<radialGradient id="paint10_radial_1102_643" cx="0" cy="0" r="1" gradientUnits="userSpaceOnUse" gradientTransform="translate(1.5 1.5) rotate(85.3036) scale(2.87506)">
<stop stop-color="#868686"/>
<stop offset="1" stop-color="#D1D1D1"/>
</radialGradient>
<radialGradient id="paint11_radial_1102_643" cx="0" cy="0" r="1" gradientUnits="userSpaceOnUse" gradientTransform="translate(1.5 1.5) rotate(85.3036) scale(2.87506)">
<stop stop-color="#868686"/>
<stop offset="1" stop-color="#D1D1D1"/>
</radialGradient>
<radialGradient id="paint12_radial_1102_643" cx="0" cy="0" r="1" gradientUnits="userSpaceOnUse" gradientTransform="translate(1.5 1.5) rotate(85.3036) scale(2.87506)">
<stop stop-color="#868686"/>
<stop offset="1" stop-color="#D1D1D1"/>
</radialGradient>
<radialGradient id="paint13_radial_1102_643" cx="0" cy="0" r="1" gradientUnits="userSpaceOnUse" gradientTransform="translate(1.5 1.5) rotate(85.3036) scale(2.87506)">
<stop stop-color="#868686"/>
<stop offset="1" stop-color="#D1D1D1"/>
</radialGradient>
<radialGradient id="paint14_radial_1102_643" cx="0" cy="0" r="1" gradientUnits="userSpaceOnUse" gradientTransform="translate(1.5 1.5) rotate(85.3036) scale(2.87506)">
<stop stop-color="#868686"/>
<stop offset="1" stop-color="#D1D1D1"/>
</radialGradient>
<radialGradient id="paint15_radial_1102_643" cx="0" cy="0" r="1" gradientUnits="userSpaceOnUse" gradientTransform="translate(1.5 1.5) rotate(85.3036) scale(2.87506)">
<stop stop-color="#868686"/>
<stop offset="1" stop-color="#D1D1D1"/>
</radialGradient>
<radialGradient id="paint16_radial_1102_643" cx="0" cy="0" r="1" gradientUnits="userSpaceOnUse" gradientTransform="translate(1.5 1.5) rotate(85.3036) scale(2.87506)">
<stop stop-color="#868686"/>
<stop offset="1" stop-color="#D1D1D1"/>
</radialGradient>
<radialGradient id="paint17_radial_1102_643" cx="0" cy="0" r="1" gradientUnits="userSpaceOnUse" gradientTransform="translate(1.5 1.5) rotate(85.3036) scale(2.87506)">
<stop stop-color="#868686"/>
<stop offset="1" stop-color="#D1D1D1"/>
</radialGradient>
<radialGradient id="paint18_radial_1102_643" cx="0" cy="0" r="1" gradientUnits="userSpaceOnUse" gradientTransform="translate(1.5 1.5) rotate(85.3036) scale(2.87506)">
<stop stop-color="#868686"/>
<stop offset="1" stop-color="#D1D1D1"/>
</radialGradient>
<radialGradient id="paint19_radial_1102_643" cx="0" cy="0" r="1" gradientUnits="userSpaceOnUse" gradientTransform="translate(1.5 1.5) rotate(85.3036) scale(2.87506)">
<stop stop-color="#868686"/>
<stop offset="1" stop-color="#D1D1D1"/>
</radialGradient>
<radialGradient id="paint20_radial_1102_643" cx="0" cy="0" r="1" gradientUnits="userSpaceOnUse" gradientTransform="translate(1.5 1.5) rotate(85.3036) scale(2.87506)">
<stop stop-color="#868686"/>
<stop offset="1" stop-color="#D1D1D1"/>
</radialGradient>
<radialGradient id="paint21_radial_1102_643" cx="0" cy="0" r="1" gradientUnits="userSpaceOnUse" gradientTransform="translate(1.5 1.5) rotate(85.3036) scale(2.87506)">
<stop stop-color="#868686"/>
<stop offset="1" stop-color="#D1D1D1"/>
</radialGradient>
<radialGradient id="paint22_radial_1102_643" cx="0" cy="0" r="1" gradientUnits="userSpaceOnUse" gradientTransform="translate(1.5 1.5) rotate(85.3036) scale(2.87506)">
<stop stop-color="#868686"/>
<stop offset="1" stop-color="#D1D1D1"/>
</radialGradient>
<radialGradient id="paint23_radial_1102_643" cx="0" cy="0" r="1" gradientUnits="userSpaceOnUse" gradientTransform="translate(1.5 1.5) rotate(85.3036) scale(2.87506)">
<stop stop-color="#868686"/>
<stop offset="1" stop-color="#D1D1D1"/>
</radialGradient>
<radialGradient id="paint24_radial_1102_643" cx="0" cy="0" r="1" gradientUnits="userSpaceOnUse" gradientTransform="translate(1.5 1.5) rotate(85.3036) scale(2.87506)">
<stop stop-color="#868686"/>
<stop offset="1" stop-color="#D1D1D1"/>
</radialGradient>
<radialGradient id="paint25_radial_1102_643" cx="0" cy="0" r="1" gradientUnits="userSpaceOnUse" gradientTransform="translate(1.5 1.5) rotate(85.3036) scale(2.87506)">
<stop stop-color="#868686"/>
<stop offset="1" stop-color="#D1D1D1"/>
</radialGradient>
<radialGradient id="paint26_radial_1102_643" cx="0" cy="0" r="1" gradientUnits="userSpaceOnUse" gradientTransform="translate(1.5 1.5) rotate(85.3036) scale(2.87506)">
<stop stop-color="#868686"/>
<stop offset="1" stop-color="#D1D1D1"/>
</radialGradient>
<radialGradient id="paint27_radial_1102_643" cx="0" cy="0" r="1" gradientUnits="userSpaceOnUse" gradientTransform="translate(1.5 1.5) rotate(85.3036) scale(2.87506)">
<stop stop-color="#868686"/>
<stop offset="1" stop-color="#D1D1D1"/>
</radialGradient>
<radialGradient id="paint28_radial_1102_643" cx="0" cy="0" r="1" gradientUnits="userSpaceOnUse" gradientTransform="translate(1.5 1.5) rotate(85.3036) scale(2.87506)">
<stop stop-color="#868686"/>
<stop offset="1" stop-color="#D1D1D1"/>
</radialGradient>
<radialGradient id="paint29_radial_1102_643" cx="0" cy="0" r="1" gradientUnits="userSpaceOnUse" gradientTransform="translate(1.5 1.5) rotate(85.3036) scale(2.87506)">
<stop stop-color="#868686"/>
<stop offset="1" stop-color="#D1D1D1"/>
</radialGradient>
<radialGradient id="paint30_radial_1102_643" cx="0" cy="0" r="1" gradientUnits="userSpaceOnUse" gradientTransform="translate(1.5 1.5) rotate(85.3036) scale(2.87506)">
<stop stop-color="#868686"/>
<stop offset="1" stop-color="#D1D1D1"/>
</radialGradient>
<radialGradient id="paint31_radial_1102_643" cx="0" cy="0" r="1" gradientUnits="userSpaceOnUse" gradientTransform="translate(1.5 1.5) rotate(85.3036) scale(2.87506)">
<stop stop-color="#868686"/>
<stop offset="1" stop-color="#D1D1D1"/>
</radialGradient>
<radialGradient id="paint32_radial_1102_643" cx="0" cy="0" r="1" gradientUnits="userSpaceOnUse" gradientTransform="translate(1.5 1.5) rotate(85.3036) scale(2.87506)">
<stop stop-color="#868686"/>
<stop offset="1" stop-color="#D1D1D1"/>
</radialGradient>
<radialGradient id="paint33_radial_1102_643" cx="0" cy="0" r="1" gradientUnits="userSpaceOnUse" gradientTransform="translate(1.5 1.5) rotate(85.3036) scale(2.87506)">
<stop stop-color="#868686"/>
<stop offset="1" stop-color="#D1D1D1"/>
</radialGradient>
<radialGradient id="paint34_radial_1102_643" cx="0" cy="0" r="1" gradientUnits="userSpaceOnUse" gradientTransform="translate(1.5 1.5) rotate(85.3036) scale(2.87506)">
<stop stop-color="#868686"/>
<stop offset="1" stop-color="#D1D1D1"/>
</radialGradient>
<radialGradient id="paint35_radial_1102_643" cx="0" cy="0" r="1" gradientUnits="userSpaceOnUse" gradientTransform="translate(1.5 1.5) rotate(85.3036) scale(2.87506)">
<stop stop-color="#868686"/>
<stop offset="1" stop-color="#D1D1D1"/>
</radialGradient>
<radialGradient id="paint36_radial_1102_643" cx="0" cy="0" r="1" gradientUnits="userSpaceOnUse" gradientTransform="translate(1.5 1.5) rotate(85.3036) scale(2.87506)">
<stop stop-color="#868686"/>
<stop offset="1" stop-color="#D1D1D1"/>
</radialGradient>
<radialGradient id="paint37_radial_1102_643" cx="0" cy="0" r="1" gradientUnits="userSpaceOnUse" gradientTransform="translate(1.5 1.5) rotate(85.3036) scale(2.87506)">
<stop stop-color="#868686"/>
<stop offset="1" stop-color="#D1D1D1"/>
</radialGradient>
<radialGradient id="paint38_radial_1102_643" cx="0" cy="0" r="1" gradientUnits="userSpaceOnUse" gradientTransform="translate(1.5 1.5) rotate(85.3036) scale(2.87506)">
<stop stop-color="#868686"/>
<stop offset="1" stop-color="#D1D1D1"/>
</radialGradient>
<radialGradient id="paint39_radial_1102_643" cx="0" cy="0" r="1" gradientUnits="userSpaceOnUse" gradientTransform="translate(1.5 1.5) rotate(85.3036) scale(2.87506)">
<stop stop-color="#868686"/>
<stop offset="1" stop-color="#D1D1D1"/>
</radialGradient>
<radialGradient id="paint40_radial_1102_643" cx="0" cy="0" r="1" gradientUnits="userSpaceOnUse" gradientTransform="translate(1.5 1.5) rotate(85.3036) scale(2.87506)">
<stop stop-color="#868686"/>
<stop offset="1" stop-color="#D1D1D1"/>
</radialGradient>
<radialGradient id="paint41_radial_1102_643" cx="0" cy="0" r="1" gradientUnits="userSpaceOnUse" gradientTransform="translate(1.5 1.5) rotate(85.3036) scale(2.87506)">
<stop stop-color="#868686"/>
<stop offset="1" stop-color="#D1D1D1"/>
</radialGradient>
<radialGradient id="paint42_radial_1102_643" cx="0" cy="0" r="1" gradientUnits="userSpaceOnUse" gradientTransform="translate(1.5 1.5) rotate(85.3036) scale(2.87506)">
<stop stop-color="#868686"/>
<stop offset="1" stop-color="#D1D1D1"/>
</radialGradient>
<radialGradient id="paint43_radial_1102_643" cx="0" cy="0" r="1" gradientUnits="userSpaceOnUse" gradientTransform="translate(1.5 1.5) rotate(85.3036) scale(2.87506)">
<stop stop-color="#868686"/>
<stop offset="1" stop-color="#D1D1D1"/>
</radialGradient>
<radialGradient id="paint44_radial_1102_643" cx="0" cy="0" r="1" gradientUnits="userSpaceOnUse" gradientTransform="translate(1.5 1.5) rotate(85.3036) scale(2.87506)">
<stop stop-color="#868686"/>
<stop offset="1" stop-color="#D1D1D1"/>
</radialGradient>
<radialGradient id="paint45_radial_1102_643" cx="0" cy="0" r="1" gradientUnits="userSpaceOnUse" gradientTransform="translate(1.5 1.5) rotate(85.3036) scale(2.87506)">
<stop stop-color="#868686"/>
<stop offset="1" stop-color="#D1D1D1"/>
</radialGradient>
</defs>
</svg>
