<svg width="58" height="53" viewBox="0 0 58 53" fill="none" xmlns="http://www.w3.org/2000/svg">
<path d="M19.2704 44.6792C17.8508 43.7421 15.9403 44.1332 15.0032 45.5528C14.0661 46.9724 14.4573 48.8829 15.8769 49.82C17.2965 50.7571 19.2069 50.3659 20.144 48.9464C21.0811 47.5268 20.69 45.6163 19.2704 44.6792Z" fill="#3897FF"/>
<path d="M22.7749 10.6635L22.7969 16.0129L26.6472 19.7267L21.2978 19.7487L17.584 23.599L17.5617 18.2497L13.7117 14.5358L19.0611 14.5138L22.7749 10.6635Z" fill="#FFCC00"/>
<path d="M45.4368 19.4921L48.4028 23.9439L53.662 24.9217L49.21 27.8877L48.2324 33.147L45.2664 28.6952L40.0071 27.7174L44.4588 24.7514L45.4368 19.4921Z" fill="#00A98F"/>
</svg>
