<svg width="189" height="144" viewBox="0 0 189 144" fill="none" xmlns="http://www.w3.org/2000/svg">
<g opacity="0.7">
<g opacity="0.5">
<rect x="0.0136719" y="10.0673" width="13.045" height="13.045" rx="2.92239" transform="rotate(-45 0.0136719 10.0673)" fill="url(#paint0_radial_1102_22696)"/>
<rect x="24.3066" y="10.067" width="13.045" height="13.045" rx="2.92239" transform="rotate(-45 24.3066 10.067)" fill="url(#paint1_radial_1102_22696)"/>
<rect x="48.6006" y="10.067" width="13.045" height="13.045" rx="2.92239" transform="rotate(-45 48.6006 10.067)" fill="url(#paint2_radial_1102_22696)"/>
<rect x="72.8984" y="10.067" width="13.045" height="13.045" rx="2.92239" transform="rotate(-45 72.8984 10.067)" fill="url(#paint3_radial_1102_22696)"/>
<rect x="97.1904" y="10.067" width="13.045" height="13.045" rx="2.92239" transform="rotate(-45 97.1904 10.067)" fill="url(#paint4_radial_1102_22696)"/>
<rect x="121.482" y="10.067" width="13.045" height="13.045" rx="2.92239" transform="rotate(-45 121.482 10.067)" fill="url(#paint5_radial_1102_22696)"/>
<rect x="145.778" y="10.067" width="13.045" height="13.045" rx="2.92239" transform="rotate(-45 145.778 10.067)" fill="url(#paint6_radial_1102_22696)"/>
<rect x="170.068" y="10.067" width="13.045" height="13.045" rx="2.92239" transform="rotate(-45 170.068 10.067)" fill="url(#paint7_radial_1102_22696)"/>
</g>
<g opacity="0.5">
<rect x="0.0136719" y="59.7482" width="13.045" height="13.045" rx="2.92239" transform="rotate(-45 0.0136719 59.7482)" fill="url(#paint8_radial_1102_22696)"/>
<rect x="24.3066" y="59.7482" width="13.045" height="13.045" rx="2.92239" transform="rotate(-45 24.3066 59.7482)" fill="url(#paint9_radial_1102_22696)"/>
<rect x="48.6006" y="59.7482" width="13.045" height="13.045" rx="2.92239" transform="rotate(-45 48.6006 59.7482)" fill="url(#paint10_radial_1102_22696)"/>
<rect x="72.8984" y="59.7482" width="13.045" height="13.045" rx="2.92239" transform="rotate(-45 72.8984 59.7482)" fill="url(#paint11_radial_1102_22696)"/>
<rect x="97.1904" y="59.7482" width="13.045" height="13.045" rx="2.92239" transform="rotate(-45 97.1904 59.7482)" fill="url(#paint12_radial_1102_22696)"/>
<rect x="121.482" y="59.7482" width="13.045" height="13.045" rx="2.92239" transform="rotate(-45 121.482 59.7482)" fill="url(#paint13_radial_1102_22696)"/>
<rect x="145.778" y="59.7482" width="13.045" height="13.045" rx="2.92239" transform="rotate(-45 145.778 59.7482)" fill="url(#paint14_radial_1102_22696)"/>
<rect x="170.068" y="59.7482" width="13.045" height="13.045" rx="2.92239" transform="rotate(-45 170.068 59.7482)" fill="url(#paint15_radial_1102_22696)"/>
</g>
<g opacity="0.5">
<rect x="0.0136719" y="109.429" width="13.045" height="13.045" rx="2.92239" transform="rotate(-45 0.0136719 109.429)" fill="url(#paint16_radial_1102_22696)"/>
<rect x="24.3066" y="109.429" width="13.045" height="13.045" rx="2.92239" transform="rotate(-45 24.3066 109.429)" fill="url(#paint17_radial_1102_22696)"/>
<rect x="48.6006" y="109.429" width="13.045" height="13.045" rx="2.92239" transform="rotate(-45 48.6006 109.429)" fill="url(#paint18_radial_1102_22696)"/>
<rect x="72.8975" y="109.429" width="13.045" height="13.045" rx="2.92239" transform="rotate(-45 72.8975 109.429)" fill="url(#paint19_radial_1102_22696)"/>
<rect x="97.1904" y="109.429" width="13.045" height="13.045" rx="2.92239" transform="rotate(-45 97.1904 109.429)" fill="url(#paint20_radial_1102_22696)"/>
<rect x="121.482" y="109.429" width="13.045" height="13.045" rx="2.92239" transform="rotate(-45 121.482 109.429)" fill="url(#paint21_radial_1102_22696)"/>
<rect x="145.778" y="109.429" width="13.045" height="13.045" rx="2.92239" transform="rotate(-45 145.778 109.429)" fill="url(#paint22_radial_1102_22696)"/>
<rect x="170.068" y="109.429" width="13.045" height="13.045" rx="2.92239" transform="rotate(-45 170.068 109.429)" fill="url(#paint23_radial_1102_22696)"/>
</g>
<g opacity="0.5">
<rect x="0.0136719" y="34.9075" width="13.045" height="13.045" rx="2.92239" transform="rotate(-45 0.0136719 34.9075)" fill="url(#paint24_radial_1102_22696)"/>
<rect x="24.3066" y="34.9072" width="13.045" height="13.045" rx="2.92239" transform="rotate(-45 24.3066 34.9072)" fill="url(#paint25_radial_1102_22696)"/>
<rect x="48.6006" y="34.9072" width="13.045" height="13.045" rx="2.92239" transform="rotate(-45 48.6006 34.9072)" fill="url(#paint26_radial_1102_22696)"/>
<rect x="72.8984" y="34.9072" width="13.045" height="13.045" rx="2.92239" transform="rotate(-45 72.8984 34.9072)" fill="url(#paint27_radial_1102_22696)"/>
<rect x="97.1904" y="34.9072" width="13.045" height="13.045" rx="2.92239" transform="rotate(-45 97.1904 34.9072)" fill="url(#paint28_radial_1102_22696)"/>
<rect x="121.482" y="34.9072" width="13.045" height="13.045" rx="2.92239" transform="rotate(-45 121.482 34.9072)" fill="url(#paint29_radial_1102_22696)"/>
<rect x="145.778" y="34.9072" width="13.045" height="13.045" rx="2.92239" transform="rotate(-45 145.778 34.9072)" fill="url(#paint30_radial_1102_22696)"/>
<rect x="170.068" y="34.9072" width="13.045" height="13.045" rx="2.92239" transform="rotate(-45 170.068 34.9072)" fill="url(#paint31_radial_1102_22696)"/>
</g>
<g opacity="0.5">
<rect x="0.0136719" y="84.5889" width="13.045" height="13.045" rx="2.92239" transform="rotate(-45 0.0136719 84.5889)" fill="url(#paint32_radial_1102_22696)"/>
<rect x="24.3066" y="84.5889" width="13.045" height="13.045" rx="2.92239" transform="rotate(-45 24.3066 84.5889)" fill="url(#paint33_radial_1102_22696)"/>
<rect x="48.6006" y="84.5889" width="13.045" height="13.045" rx="2.92239" transform="rotate(-45 48.6006 84.5889)" fill="url(#paint34_radial_1102_22696)"/>
<rect x="72.8984" y="84.5889" width="13.045" height="13.045" rx="2.92239" transform="rotate(-45 72.8984 84.5889)" fill="url(#paint35_radial_1102_22696)"/>
<rect x="97.1904" y="84.5889" width="13.045" height="13.045" rx="2.92239" transform="rotate(-45 97.1904 84.5889)" fill="url(#paint36_radial_1102_22696)"/>
<rect x="121.482" y="84.5889" width="13.045" height="13.045" rx="2.92239" transform="rotate(-45 121.482 84.5889)" fill="url(#paint37_radial_1102_22696)"/>
<rect x="145.778" y="84.5889" width="13.045" height="13.045" rx="2.92239" transform="rotate(-45 145.778 84.5889)" fill="url(#paint38_radial_1102_22696)"/>
<rect x="170.068" y="84.5889" width="13.045" height="13.045" rx="2.92239" transform="rotate(-45 170.068 84.5889)" fill="url(#paint39_radial_1102_22696)"/>
</g>
<g opacity="0.5">
<rect x="0.0136719" y="134.269" width="13.045" height="13.045" rx="2.92239" transform="rotate(-45 0.0136719 134.269)" fill="url(#paint40_radial_1102_22696)"/>
<rect x="24.3066" y="134.269" width="13.045" height="13.045" rx="2.92239" transform="rotate(-45 24.3066 134.269)" fill="url(#paint41_radial_1102_22696)"/>
<rect x="48.6006" y="134.269" width="13.045" height="13.045" rx="2.92239" transform="rotate(-45 48.6006 134.269)" fill="url(#paint42_radial_1102_22696)"/>
<rect x="72.8984" y="134.269" width="13.045" height="13.045" rx="2.92239" transform="rotate(-45 72.8984 134.269)" fill="url(#paint43_radial_1102_22696)"/>
<rect x="97.1904" y="134.269" width="13.045" height="13.045" rx="2.92239" transform="rotate(-45 97.1904 134.269)" fill="url(#paint44_radial_1102_22696)"/>
<rect x="121.482" y="134.269" width="13.045" height="13.045" rx="2.92239" transform="rotate(-45 121.482 134.269)" fill="url(#paint45_radial_1102_22696)"/>
<rect x="145.778" y="134.269" width="13.045" height="13.045" rx="2.92239" transform="rotate(-45 145.778 134.269)" fill="url(#paint46_radial_1102_22696)"/>
<rect x="170.068" y="134.269" width="13.045" height="13.045" rx="2.92239" transform="rotate(-45 170.068 134.269)" fill="url(#paint47_radial_1102_22696)"/>
</g>
</g>
<defs>
<radialGradient id="paint0_radial_1102_22696" cx="0" cy="0" r="1" gradientUnits="userSpaceOnUse" gradientTransform="translate(6.53615 16.5898) rotate(85.3036) scale(12.5017)">
<stop stop-color="#F1F1F1"/>
<stop offset="1" stop-color="#FAFAFA"/>
</radialGradient>
<radialGradient id="paint1_radial_1102_22696" cx="0" cy="0" r="1" gradientUnits="userSpaceOnUse" gradientTransform="translate(30.8291 16.5894) rotate(85.3036) scale(12.5017)">
<stop stop-color="#F1F1F1"/>
<stop offset="1" stop-color="#FAFAFA"/>
</radialGradient>
<radialGradient id="paint2_radial_1102_22696" cx="0" cy="0" r="1" gradientUnits="userSpaceOnUse" gradientTransform="translate(55.1231 16.5894) rotate(85.3036) scale(12.5017)">
<stop stop-color="#F1F1F1"/>
<stop offset="1" stop-color="#FAFAFA"/>
</radialGradient>
<radialGradient id="paint3_radial_1102_22696" cx="0" cy="0" r="1" gradientUnits="userSpaceOnUse" gradientTransform="translate(79.4209 16.5894) rotate(85.3036) scale(12.5017)">
<stop stop-color="#F1F1F1"/>
<stop offset="1" stop-color="#FAFAFA"/>
</radialGradient>
<radialGradient id="paint4_radial_1102_22696" cx="0" cy="0" r="1" gradientUnits="userSpaceOnUse" gradientTransform="translate(103.713 16.5894) rotate(85.3036) scale(12.5017)">
<stop stop-color="#F1F1F1"/>
<stop offset="1" stop-color="#FAFAFA"/>
</radialGradient>
<radialGradient id="paint5_radial_1102_22696" cx="0" cy="0" r="1" gradientUnits="userSpaceOnUse" gradientTransform="translate(128.005 16.5894) rotate(85.3036) scale(12.5017)">
<stop stop-color="#F1F1F1"/>
<stop offset="1" stop-color="#FAFAFA"/>
</radialGradient>
<radialGradient id="paint6_radial_1102_22696" cx="0" cy="0" r="1" gradientUnits="userSpaceOnUse" gradientTransform="translate(152.301 16.5894) rotate(85.3036) scale(12.5017)">
<stop stop-color="#F1F1F1"/>
<stop offset="1" stop-color="#FAFAFA"/>
</radialGradient>
<radialGradient id="paint7_radial_1102_22696" cx="0" cy="0" r="1" gradientUnits="userSpaceOnUse" gradientTransform="translate(176.591 16.5894) rotate(85.3036) scale(12.5017)">
<stop stop-color="#F1F1F1"/>
<stop offset="1" stop-color="#FAFAFA"/>
</radialGradient>
<radialGradient id="paint8_radial_1102_22696" cx="0" cy="0" r="1" gradientUnits="userSpaceOnUse" gradientTransform="translate(6.53615 66.2707) rotate(85.3036) scale(12.5017)">
<stop stop-color="#F1F1F1"/>
<stop offset="1" stop-color="#FAFAFA"/>
</radialGradient>
<radialGradient id="paint9_radial_1102_22696" cx="0" cy="0" r="1" gradientUnits="userSpaceOnUse" gradientTransform="translate(30.8291 66.2707) rotate(85.3036) scale(12.5017)">
<stop stop-color="#F1F1F1"/>
<stop offset="1" stop-color="#FAFAFA"/>
</radialGradient>
<radialGradient id="paint10_radial_1102_22696" cx="0" cy="0" r="1" gradientUnits="userSpaceOnUse" gradientTransform="translate(55.1231 66.2707) rotate(85.3036) scale(12.5017)">
<stop stop-color="#F1F1F1"/>
<stop offset="1" stop-color="#FAFAFA"/>
</radialGradient>
<radialGradient id="paint11_radial_1102_22696" cx="0" cy="0" r="1" gradientUnits="userSpaceOnUse" gradientTransform="translate(79.4209 66.2707) rotate(85.3036) scale(12.5017)">
<stop stop-color="#F1F1F1"/>
<stop offset="1" stop-color="#FAFAFA"/>
</radialGradient>
<radialGradient id="paint12_radial_1102_22696" cx="0" cy="0" r="1" gradientUnits="userSpaceOnUse" gradientTransform="translate(103.713 66.2707) rotate(85.3036) scale(12.5017)">
<stop stop-color="#F1F1F1"/>
<stop offset="1" stop-color="#FAFAFA"/>
</radialGradient>
<radialGradient id="paint13_radial_1102_22696" cx="0" cy="0" r="1" gradientUnits="userSpaceOnUse" gradientTransform="translate(128.005 66.2707) rotate(85.3036) scale(12.5017)">
<stop stop-color="#F1F1F1"/>
<stop offset="1" stop-color="#FAFAFA"/>
</radialGradient>
<radialGradient id="paint14_radial_1102_22696" cx="0" cy="0" r="1" gradientUnits="userSpaceOnUse" gradientTransform="translate(152.301 66.2707) rotate(85.3036) scale(12.5017)">
<stop stop-color="#F1F1F1"/>
<stop offset="1" stop-color="#FAFAFA"/>
</radialGradient>
<radialGradient id="paint15_radial_1102_22696" cx="0" cy="0" r="1" gradientUnits="userSpaceOnUse" gradientTransform="translate(176.591 66.2707) rotate(85.3036) scale(12.5017)">
<stop stop-color="#F1F1F1"/>
<stop offset="1" stop-color="#FAFAFA"/>
</radialGradient>
<radialGradient id="paint16_radial_1102_22696" cx="0" cy="0" r="1" gradientUnits="userSpaceOnUse" gradientTransform="translate(6.53615 115.951) rotate(85.3036) scale(12.5017)">
<stop stop-color="#F1F1F1"/>
<stop offset="1" stop-color="#FAFAFA"/>
</radialGradient>
<radialGradient id="paint17_radial_1102_22696" cx="0" cy="0" r="1" gradientUnits="userSpaceOnUse" gradientTransform="translate(30.8291 115.951) rotate(85.3036) scale(12.5017)">
<stop stop-color="#F1F1F1"/>
<stop offset="1" stop-color="#FAFAFA"/>
</radialGradient>
<radialGradient id="paint18_radial_1102_22696" cx="0" cy="0" r="1" gradientUnits="userSpaceOnUse" gradientTransform="translate(55.1231 115.951) rotate(85.3036) scale(12.5017)">
<stop stop-color="#F1F1F1"/>
<stop offset="1" stop-color="#FAFAFA"/>
</radialGradient>
<radialGradient id="paint19_radial_1102_22696" cx="0" cy="0" r="1" gradientUnits="userSpaceOnUse" gradientTransform="translate(79.4199 115.951) rotate(85.3036) scale(12.5017)">
<stop stop-color="#F1F1F1"/>
<stop offset="1" stop-color="#FAFAFA"/>
</radialGradient>
<radialGradient id="paint20_radial_1102_22696" cx="0" cy="0" r="1" gradientUnits="userSpaceOnUse" gradientTransform="translate(103.713 115.951) rotate(85.3036) scale(12.5017)">
<stop stop-color="#F1F1F1"/>
<stop offset="1" stop-color="#FAFAFA"/>
</radialGradient>
<radialGradient id="paint21_radial_1102_22696" cx="0" cy="0" r="1" gradientUnits="userSpaceOnUse" gradientTransform="translate(128.005 115.951) rotate(85.3036) scale(12.5017)">
<stop stop-color="#F1F1F1"/>
<stop offset="1" stop-color="#FAFAFA"/>
</radialGradient>
<radialGradient id="paint22_radial_1102_22696" cx="0" cy="0" r="1" gradientUnits="userSpaceOnUse" gradientTransform="translate(152.301 115.951) rotate(85.3036) scale(12.5017)">
<stop stop-color="#F1F1F1"/>
<stop offset="1" stop-color="#FAFAFA"/>
</radialGradient>
<radialGradient id="paint23_radial_1102_22696" cx="0" cy="0" r="1" gradientUnits="userSpaceOnUse" gradientTransform="translate(176.591 115.951) rotate(85.3036) scale(12.5017)">
<stop stop-color="#F1F1F1"/>
<stop offset="1" stop-color="#FAFAFA"/>
</radialGradient>
<radialGradient id="paint24_radial_1102_22696" cx="0" cy="0" r="1" gradientUnits="userSpaceOnUse" gradientTransform="translate(6.53615 41.43) rotate(85.3036) scale(12.5017)">
<stop stop-color="#F1F1F1"/>
<stop offset="1" stop-color="#FAFAFA"/>
</radialGradient>
<radialGradient id="paint25_radial_1102_22696" cx="0" cy="0" r="1" gradientUnits="userSpaceOnUse" gradientTransform="translate(30.8291 41.4296) rotate(85.3036) scale(12.5017)">
<stop stop-color="#F1F1F1"/>
<stop offset="1" stop-color="#FAFAFA"/>
</radialGradient>
<radialGradient id="paint26_radial_1102_22696" cx="0" cy="0" r="1" gradientUnits="userSpaceOnUse" gradientTransform="translate(55.1231 41.4296) rotate(85.3036) scale(12.5017)">
<stop stop-color="#F1F1F1"/>
<stop offset="1" stop-color="#FAFAFA"/>
</radialGradient>
<radialGradient id="paint27_radial_1102_22696" cx="0" cy="0" r="1" gradientUnits="userSpaceOnUse" gradientTransform="translate(79.4209 41.4296) rotate(85.3036) scale(12.5017)">
<stop stop-color="#F1F1F1"/>
<stop offset="1" stop-color="#FAFAFA"/>
</radialGradient>
<radialGradient id="paint28_radial_1102_22696" cx="0" cy="0" r="1" gradientUnits="userSpaceOnUse" gradientTransform="translate(103.713 41.4296) rotate(85.3036) scale(12.5017)">
<stop stop-color="#F1F1F1"/>
<stop offset="1" stop-color="#FAFAFA"/>
</radialGradient>
<radialGradient id="paint29_radial_1102_22696" cx="0" cy="0" r="1" gradientUnits="userSpaceOnUse" gradientTransform="translate(128.005 41.4296) rotate(85.3036) scale(12.5017)">
<stop stop-color="#F1F1F1"/>
<stop offset="1" stop-color="#FAFAFA"/>
</radialGradient>
<radialGradient id="paint30_radial_1102_22696" cx="0" cy="0" r="1" gradientUnits="userSpaceOnUse" gradientTransform="translate(152.301 41.4296) rotate(85.3036) scale(12.5017)">
<stop stop-color="#F1F1F1"/>
<stop offset="1" stop-color="#FAFAFA"/>
</radialGradient>
<radialGradient id="paint31_radial_1102_22696" cx="0" cy="0" r="1" gradientUnits="userSpaceOnUse" gradientTransform="translate(176.591 41.4296) rotate(85.3036) scale(12.5017)">
<stop stop-color="#F1F1F1"/>
<stop offset="1" stop-color="#FAFAFA"/>
</radialGradient>
<radialGradient id="paint32_radial_1102_22696" cx="0" cy="0" r="1" gradientUnits="userSpaceOnUse" gradientTransform="translate(6.53615 91.1114) rotate(85.3036) scale(12.5017)">
<stop stop-color="#F1F1F1"/>
<stop offset="1" stop-color="#FAFAFA"/>
</radialGradient>
<radialGradient id="paint33_radial_1102_22696" cx="0" cy="0" r="1" gradientUnits="userSpaceOnUse" gradientTransform="translate(30.8291 91.1114) rotate(85.3036) scale(12.5017)">
<stop stop-color="#F1F1F1"/>
<stop offset="1" stop-color="#FAFAFA"/>
</radialGradient>
<radialGradient id="paint34_radial_1102_22696" cx="0" cy="0" r="1" gradientUnits="userSpaceOnUse" gradientTransform="translate(55.1231 91.1114) rotate(85.3036) scale(12.5017)">
<stop stop-color="#F1F1F1"/>
<stop offset="1" stop-color="#FAFAFA"/>
</radialGradient>
<radialGradient id="paint35_radial_1102_22696" cx="0" cy="0" r="1" gradientUnits="userSpaceOnUse" gradientTransform="translate(79.4209 91.1114) rotate(85.3036) scale(12.5017)">
<stop stop-color="#F1F1F1"/>
<stop offset="1" stop-color="#FAFAFA"/>
</radialGradient>
<radialGradient id="paint36_radial_1102_22696" cx="0" cy="0" r="1" gradientUnits="userSpaceOnUse" gradientTransform="translate(103.713 91.1114) rotate(85.3036) scale(12.5017)">
<stop stop-color="#F1F1F1"/>
<stop offset="1" stop-color="#FAFAFA"/>
</radialGradient>
<radialGradient id="paint37_radial_1102_22696" cx="0" cy="0" r="1" gradientUnits="userSpaceOnUse" gradientTransform="translate(128.005 91.1114) rotate(85.3036) scale(12.5017)">
<stop stop-color="#F1F1F1"/>
<stop offset="1" stop-color="#FAFAFA"/>
</radialGradient>
<radialGradient id="paint38_radial_1102_22696" cx="0" cy="0" r="1" gradientUnits="userSpaceOnUse" gradientTransform="translate(152.301 91.1114) rotate(85.3036) scale(12.5017)">
<stop stop-color="#F1F1F1"/>
<stop offset="1" stop-color="#FAFAFA"/>
</radialGradient>
<radialGradient id="paint39_radial_1102_22696" cx="0" cy="0" r="1" gradientUnits="userSpaceOnUse" gradientTransform="translate(176.591 91.1114) rotate(85.3036) scale(12.5017)">
<stop stop-color="#F1F1F1"/>
<stop offset="1" stop-color="#FAFAFA"/>
</radialGradient>
<radialGradient id="paint40_radial_1102_22696" cx="0" cy="0" r="1" gradientUnits="userSpaceOnUse" gradientTransform="translate(6.53615 140.792) rotate(85.3036) scale(12.5017)">
<stop stop-color="#F1F1F1"/>
<stop offset="1" stop-color="#FAFAFA"/>
</radialGradient>
<radialGradient id="paint41_radial_1102_22696" cx="0" cy="0" r="1" gradientUnits="userSpaceOnUse" gradientTransform="translate(30.8291 140.791) rotate(85.3036) scale(12.5017)">
<stop stop-color="#F1F1F1"/>
<stop offset="1" stop-color="#FAFAFA"/>
</radialGradient>
<radialGradient id="paint42_radial_1102_22696" cx="0" cy="0" r="1" gradientUnits="userSpaceOnUse" gradientTransform="translate(55.1231 140.791) rotate(85.3036) scale(12.5017)">
<stop stop-color="#F1F1F1"/>
<stop offset="1" stop-color="#FAFAFA"/>
</radialGradient>
<radialGradient id="paint43_radial_1102_22696" cx="0" cy="0" r="1" gradientUnits="userSpaceOnUse" gradientTransform="translate(79.4209 140.792) rotate(85.3036) scale(12.5017)">
<stop stop-color="#F1F1F1"/>
<stop offset="1" stop-color="#FAFAFA"/>
</radialGradient>
<radialGradient id="paint44_radial_1102_22696" cx="0" cy="0" r="1" gradientUnits="userSpaceOnUse" gradientTransform="translate(103.713 140.791) rotate(85.3036) scale(12.5017)">
<stop stop-color="#F1F1F1"/>
<stop offset="1" stop-color="#FAFAFA"/>
</radialGradient>
<radialGradient id="paint45_radial_1102_22696" cx="0" cy="0" r="1" gradientUnits="userSpaceOnUse" gradientTransform="translate(128.005 140.791) rotate(85.3036) scale(12.5017)">
<stop stop-color="#F1F1F1"/>
<stop offset="1" stop-color="#FAFAFA"/>
</radialGradient>
<radialGradient id="paint46_radial_1102_22696" cx="0" cy="0" r="1" gradientUnits="userSpaceOnUse" gradientTransform="translate(152.301 140.791) rotate(85.3036) scale(12.5017)">
<stop stop-color="#F1F1F1"/>
<stop offset="1" stop-color="#FAFAFA"/>
</radialGradient>
<radialGradient id="paint47_radial_1102_22696" cx="0" cy="0" r="1" gradientUnits="userSpaceOnUse" gradientTransform="translate(176.591 140.791) rotate(85.3036) scale(12.5017)">
<stop stop-color="#F1F1F1"/>
<stop offset="1" stop-color="#FAFAFA"/>
</radialGradient>
</defs>
</svg>
