<svg width="261" height="197" viewBox="0 0 261 197" fill="none" xmlns="http://www.w3.org/2000/svg">
<g opacity="0.7">
<g opacity="0.5">
<rect y="12.739" width="18.015" height="18.015" rx="4.0358" transform="rotate(-45 0 12.739)" fill="url(#paint0_radial_1296_18690)"/>
<rect x="33.5488" y="12.7385" width="18.015" height="18.015" rx="4.0358" transform="rotate(-45 33.5488 12.7385)" fill="url(#paint1_radial_1296_18690)"/>
<rect x="67.0977" y="12.7385" width="18.015" height="18.015" rx="4.0358" transform="rotate(-45 67.0977 12.7385)" fill="url(#paint2_radial_1296_18690)"/>
<rect x="100.652" y="12.7385" width="18.015" height="18.015" rx="4.0358" transform="rotate(-45 100.652 12.7385)" fill="url(#paint3_radial_1296_18690)"/>
<rect x="134.198" y="12.7385" width="18.015" height="18.015" rx="4.0358" transform="rotate(-45 134.198 12.7385)" fill="url(#paint4_radial_1296_18690)"/>
<rect x="167.749" y="12.7385" width="18.015" height="18.015" rx="4.0358" transform="rotate(-45 167.749 12.7385)" fill="url(#paint5_radial_1296_18690)"/>
<rect x="201.301" y="12.7385" width="18.015" height="18.015" rx="4.0358" transform="rotate(-45 201.301 12.7385)" fill="url(#paint6_radial_1296_18690)"/>
<rect x="234.845" y="12.7385" width="18.015" height="18.015" rx="4.0358" transform="rotate(-45 234.845 12.7385)" fill="url(#paint7_radial_1296_18690)"/>
</g>
<g opacity="0.5">
<rect y="81.3479" width="18.015" height="18.015" rx="4.0358" transform="rotate(-45 0 81.3479)" fill="url(#paint8_radial_1296_18690)"/>
<rect x="33.5488" y="81.3479" width="18.015" height="18.015" rx="4.0358" transform="rotate(-45 33.5488 81.3479)" fill="url(#paint9_radial_1296_18690)"/>
<rect x="67.0977" y="81.3479" width="18.015" height="18.015" rx="4.0358" transform="rotate(-45 67.0977 81.3479)" fill="url(#paint10_radial_1296_18690)"/>
<rect x="100.652" y="81.3479" width="18.015" height="18.015" rx="4.0358" transform="rotate(-45 100.652 81.3479)" fill="url(#paint11_radial_1296_18690)"/>
<rect x="134.198" y="81.3479" width="18.015" height="18.015" rx="4.0358" transform="rotate(-45 134.198 81.3479)" fill="url(#paint12_radial_1296_18690)"/>
<rect x="167.749" y="81.3479" width="18.015" height="18.015" rx="4.0358" transform="rotate(-45 167.749 81.3479)" fill="url(#paint13_radial_1296_18690)"/>
<rect x="201.301" y="81.3479" width="18.015" height="18.015" rx="4.0358" transform="rotate(-45 201.301 81.3479)" fill="url(#paint14_radial_1296_18690)"/>
<rect x="234.845" y="81.3479" width="18.015" height="18.015" rx="4.0358" transform="rotate(-45 234.845 81.3479)" fill="url(#paint15_radial_1296_18690)"/>
</g>
<g opacity="0.5">
<rect y="149.957" width="18.015" height="18.015" rx="4.0358" transform="rotate(-45 0 149.957)" fill="url(#paint16_radial_1296_18690)"/>
<rect x="33.5488" y="149.956" width="18.015" height="18.015" rx="4.0358" transform="rotate(-45 33.5488 149.956)" fill="url(#paint17_radial_1296_18690)"/>
<rect x="67.0975" y="149.956" width="18.015" height="18.015" rx="4.0358" transform="rotate(-45 67.0975 149.956)" fill="url(#paint18_radial_1296_18690)"/>
<rect x="100.651" y="149.957" width="18.015" height="18.015" rx="4.0358" transform="rotate(-45 100.651 149.957)" fill="url(#paint19_radial_1296_18690)"/>
<rect x="134.198" y="149.956" width="18.015" height="18.015" rx="4.0358" transform="rotate(-45 134.198 149.956)" fill="url(#paint20_radial_1296_18690)"/>
<rect x="167.749" y="149.956" width="18.015" height="18.015" rx="4.0358" transform="rotate(-45 167.749 149.956)" fill="url(#paint21_radial_1296_18690)"/>
<rect x="201.301" y="149.956" width="18.015" height="18.015" rx="4.0358" transform="rotate(-45 201.301 149.956)" fill="url(#paint22_radial_1296_18690)"/>
<rect x="234.845" y="149.956" width="18.015" height="18.015" rx="4.0358" transform="rotate(-45 234.845 149.956)" fill="url(#paint23_radial_1296_18690)"/>
</g>
<g opacity="0.5">
<rect y="47.0432" width="18.015" height="18.015" rx="4.0358" transform="rotate(-45 0 47.0432)" fill="url(#paint24_radial_1296_18690)"/>
<rect x="33.5488" y="47.0427" width="18.015" height="18.015" rx="4.0358" transform="rotate(-45 33.5488 47.0427)" fill="url(#paint25_radial_1296_18690)"/>
<rect x="67.0977" y="47.0427" width="18.015" height="18.015" rx="4.0358" transform="rotate(-45 67.0977 47.0427)" fill="url(#paint26_radial_1296_18690)"/>
<rect x="100.652" y="47.0427" width="18.015" height="18.015" rx="4.0358" transform="rotate(-45 100.652 47.0427)" fill="url(#paint27_radial_1296_18690)"/>
<rect x="134.198" y="47.0427" width="18.015" height="18.015" rx="4.0358" transform="rotate(-45 134.198 47.0427)" fill="url(#paint28_radial_1296_18690)"/>
<rect x="167.749" y="47.0427" width="18.015" height="18.015" rx="4.0358" transform="rotate(-45 167.749 47.0427)" fill="url(#paint29_radial_1296_18690)"/>
<rect x="201.301" y="47.0427" width="18.015" height="18.015" rx="4.0358" transform="rotate(-45 201.301 47.0427)" fill="url(#paint30_radial_1296_18690)"/>
<rect x="234.845" y="47.0427" width="18.015" height="18.015" rx="4.0358" transform="rotate(-45 234.845 47.0427)" fill="url(#paint31_radial_1296_18690)"/>
</g>
<g opacity="0.5">
<rect y="115.653" width="18.015" height="18.015" rx="4.0358" transform="rotate(-45 0 115.653)" fill="url(#paint32_radial_1296_18690)"/>
<rect x="33.5488" y="115.653" width="18.015" height="18.015" rx="4.0358" transform="rotate(-45 33.5488 115.653)" fill="url(#paint33_radial_1296_18690)"/>
<rect x="67.0977" y="115.653" width="18.015" height="18.015" rx="4.0358" transform="rotate(-45 67.0977 115.653)" fill="url(#paint34_radial_1296_18690)"/>
<rect x="100.652" y="115.653" width="18.015" height="18.015" rx="4.0358" transform="rotate(-45 100.652 115.653)" fill="url(#paint35_radial_1296_18690)"/>
<rect x="134.198" y="115.653" width="18.015" height="18.015" rx="4.0358" transform="rotate(-45 134.198 115.653)" fill="url(#paint36_radial_1296_18690)"/>
<rect x="167.749" y="115.653" width="18.015" height="18.015" rx="4.0358" transform="rotate(-45 167.749 115.653)" fill="url(#paint37_radial_1296_18690)"/>
<rect x="201.301" y="115.653" width="18.015" height="18.015" rx="4.0358" transform="rotate(-45 201.301 115.653)" fill="url(#paint38_radial_1296_18690)"/>
<rect x="234.845" y="115.653" width="18.015" height="18.015" rx="4.0358" transform="rotate(-45 234.845 115.653)" fill="url(#paint39_radial_1296_18690)"/>
</g>
<g opacity="0.5">
<rect y="184.261" width="18.015" height="18.015" rx="4.0358" transform="rotate(-45 0 184.261)" fill="url(#paint40_radial_1296_18690)"/>
<rect x="33.5488" y="184.26" width="18.015" height="18.015" rx="4.0358" transform="rotate(-45 33.5488 184.26)" fill="url(#paint41_radial_1296_18690)"/>
<rect x="67.0977" y="184.26" width="18.015" height="18.015" rx="4.0358" transform="rotate(-45 67.0977 184.26)" fill="url(#paint42_radial_1296_18690)"/>
<rect x="100.652" y="184.261" width="18.015" height="18.015" rx="4.0358" transform="rotate(-45 100.652 184.261)" fill="url(#paint43_radial_1296_18690)"/>
<rect x="134.198" y="184.26" width="18.015" height="18.015" rx="4.0358" transform="rotate(-45 134.198 184.26)" fill="url(#paint44_radial_1296_18690)"/>
<rect x="167.749" y="184.26" width="18.015" height="18.015" rx="4.0358" transform="rotate(-45 167.749 184.26)" fill="url(#paint45_radial_1296_18690)"/>
<rect x="201.301" y="184.26" width="18.015" height="18.015" rx="4.0358" transform="rotate(-45 201.301 184.26)" fill="url(#paint46_radial_1296_18690)"/>
<rect x="234.845" y="184.26" width="18.015" height="18.015" rx="4.0358" transform="rotate(-45 234.845 184.26)" fill="url(#paint47_radial_1296_18690)"/>
</g>
</g>
<defs>
<radialGradient id="paint0_radial_1296_18690" cx="0" cy="0" r="1" gradientUnits="userSpaceOnUse" gradientTransform="translate(9.0075 21.7465) rotate(85.3036) scale(17.2647)">
<stop stop-color="#F1F1F1"/>
<stop offset="1" stop-color="#FAFAFA"/>
</radialGradient>
<radialGradient id="paint1_radial_1296_18690" cx="0" cy="0" r="1" gradientUnits="userSpaceOnUse" gradientTransform="translate(42.5563 21.746) rotate(85.3036) scale(17.2647)">
<stop stop-color="#F1F1F1"/>
<stop offset="1" stop-color="#FAFAFA"/>
</radialGradient>
<radialGradient id="paint2_radial_1296_18690" cx="0" cy="0" r="1" gradientUnits="userSpaceOnUse" gradientTransform="translate(76.1052 21.746) rotate(85.3036) scale(17.2647)">
<stop stop-color="#F1F1F1"/>
<stop offset="1" stop-color="#FAFAFA"/>
</radialGradient>
<radialGradient id="paint3_radial_1296_18690" cx="0" cy="0" r="1" gradientUnits="userSpaceOnUse" gradientTransform="translate(109.66 21.746) rotate(85.3036) scale(17.2647)">
<stop stop-color="#F1F1F1"/>
<stop offset="1" stop-color="#FAFAFA"/>
</radialGradient>
<radialGradient id="paint4_radial_1296_18690" cx="0" cy="0" r="1" gradientUnits="userSpaceOnUse" gradientTransform="translate(143.206 21.746) rotate(85.3036) scale(17.2647)">
<stop stop-color="#F1F1F1"/>
<stop offset="1" stop-color="#FAFAFA"/>
</radialGradient>
<radialGradient id="paint5_radial_1296_18690" cx="0" cy="0" r="1" gradientUnits="userSpaceOnUse" gradientTransform="translate(176.757 21.746) rotate(85.3036) scale(17.2647)">
<stop stop-color="#F1F1F1"/>
<stop offset="1" stop-color="#FAFAFA"/>
</radialGradient>
<radialGradient id="paint6_radial_1296_18690" cx="0" cy="0" r="1" gradientUnits="userSpaceOnUse" gradientTransform="translate(210.308 21.746) rotate(85.3036) scale(17.2647)">
<stop stop-color="#F1F1F1"/>
<stop offset="1" stop-color="#FAFAFA"/>
</radialGradient>
<radialGradient id="paint7_radial_1296_18690" cx="0" cy="0" r="1" gradientUnits="userSpaceOnUse" gradientTransform="translate(243.852 21.746) rotate(85.3036) scale(17.2647)">
<stop stop-color="#F1F1F1"/>
<stop offset="1" stop-color="#FAFAFA"/>
</radialGradient>
<radialGradient id="paint8_radial_1296_18690" cx="0" cy="0" r="1" gradientUnits="userSpaceOnUse" gradientTransform="translate(9.0075 90.3554) rotate(85.3036) scale(17.2647)">
<stop stop-color="#F1F1F1"/>
<stop offset="1" stop-color="#FAFAFA"/>
</radialGradient>
<radialGradient id="paint9_radial_1296_18690" cx="0" cy="0" r="1" gradientUnits="userSpaceOnUse" gradientTransform="translate(42.5563 90.3554) rotate(85.3036) scale(17.2647)">
<stop stop-color="#F1F1F1"/>
<stop offset="1" stop-color="#FAFAFA"/>
</radialGradient>
<radialGradient id="paint10_radial_1296_18690" cx="0" cy="0" r="1" gradientUnits="userSpaceOnUse" gradientTransform="translate(76.1052 90.3554) rotate(85.3036) scale(17.2647)">
<stop stop-color="#F1F1F1"/>
<stop offset="1" stop-color="#FAFAFA"/>
</radialGradient>
<radialGradient id="paint11_radial_1296_18690" cx="0" cy="0" r="1" gradientUnits="userSpaceOnUse" gradientTransform="translate(109.66 90.3554) rotate(85.3036) scale(17.2647)">
<stop stop-color="#F1F1F1"/>
<stop offset="1" stop-color="#FAFAFA"/>
</radialGradient>
<radialGradient id="paint12_radial_1296_18690" cx="0" cy="0" r="1" gradientUnits="userSpaceOnUse" gradientTransform="translate(143.206 90.3554) rotate(85.3036) scale(17.2647)">
<stop stop-color="#F1F1F1"/>
<stop offset="1" stop-color="#FAFAFA"/>
</radialGradient>
<radialGradient id="paint13_radial_1296_18690" cx="0" cy="0" r="1" gradientUnits="userSpaceOnUse" gradientTransform="translate(176.757 90.3554) rotate(85.3036) scale(17.2647)">
<stop stop-color="#F1F1F1"/>
<stop offset="1" stop-color="#FAFAFA"/>
</radialGradient>
<radialGradient id="paint14_radial_1296_18690" cx="0" cy="0" r="1" gradientUnits="userSpaceOnUse" gradientTransform="translate(210.308 90.3554) rotate(85.3036) scale(17.2647)">
<stop stop-color="#F1F1F1"/>
<stop offset="1" stop-color="#FAFAFA"/>
</radialGradient>
<radialGradient id="paint15_radial_1296_18690" cx="0" cy="0" r="1" gradientUnits="userSpaceOnUse" gradientTransform="translate(243.852 90.3554) rotate(85.3036) scale(17.2647)">
<stop stop-color="#F1F1F1"/>
<stop offset="1" stop-color="#FAFAFA"/>
</radialGradient>
<radialGradient id="paint16_radial_1296_18690" cx="0" cy="0" r="1" gradientUnits="userSpaceOnUse" gradientTransform="translate(9.0075 158.964) rotate(85.3036) scale(17.2647)">
<stop stop-color="#F1F1F1"/>
<stop offset="1" stop-color="#FAFAFA"/>
</radialGradient>
<radialGradient id="paint17_radial_1296_18690" cx="0" cy="0" r="1" gradientUnits="userSpaceOnUse" gradientTransform="translate(42.5563 158.964) rotate(85.3036) scale(17.2647)">
<stop stop-color="#F1F1F1"/>
<stop offset="1" stop-color="#FAFAFA"/>
</radialGradient>
<radialGradient id="paint18_radial_1296_18690" cx="0" cy="0" r="1" gradientUnits="userSpaceOnUse" gradientTransform="translate(76.105 158.964) rotate(85.3036) scale(17.2647)">
<stop stop-color="#F1F1F1"/>
<stop offset="1" stop-color="#FAFAFA"/>
</radialGradient>
<radialGradient id="paint19_radial_1296_18690" cx="0" cy="0" r="1" gradientUnits="userSpaceOnUse" gradientTransform="translate(109.659 158.964) rotate(85.3036) scale(17.2647)">
<stop stop-color="#F1F1F1"/>
<stop offset="1" stop-color="#FAFAFA"/>
</radialGradient>
<radialGradient id="paint20_radial_1296_18690" cx="0" cy="0" r="1" gradientUnits="userSpaceOnUse" gradientTransform="translate(143.206 158.964) rotate(85.3036) scale(17.2647)">
<stop stop-color="#F1F1F1"/>
<stop offset="1" stop-color="#FAFAFA"/>
</radialGradient>
<radialGradient id="paint21_radial_1296_18690" cx="0" cy="0" r="1" gradientUnits="userSpaceOnUse" gradientTransform="translate(176.757 158.964) rotate(85.3036) scale(17.2647)">
<stop stop-color="#F1F1F1"/>
<stop offset="1" stop-color="#FAFAFA"/>
</radialGradient>
<radialGradient id="paint22_radial_1296_18690" cx="0" cy="0" r="1" gradientUnits="userSpaceOnUse" gradientTransform="translate(210.308 158.964) rotate(85.3036) scale(17.2647)">
<stop stop-color="#F1F1F1"/>
<stop offset="1" stop-color="#FAFAFA"/>
</radialGradient>
<radialGradient id="paint23_radial_1296_18690" cx="0" cy="0" r="1" gradientUnits="userSpaceOnUse" gradientTransform="translate(243.852 158.964) rotate(85.3036) scale(17.2647)">
<stop stop-color="#F1F1F1"/>
<stop offset="1" stop-color="#FAFAFA"/>
</radialGradient>
<radialGradient id="paint24_radial_1296_18690" cx="0" cy="0" r="1" gradientUnits="userSpaceOnUse" gradientTransform="translate(9.0075 56.0507) rotate(85.3036) scale(17.2647)">
<stop stop-color="#F1F1F1"/>
<stop offset="1" stop-color="#FAFAFA"/>
</radialGradient>
<radialGradient id="paint25_radial_1296_18690" cx="0" cy="0" r="1" gradientUnits="userSpaceOnUse" gradientTransform="translate(42.5563 56.0502) rotate(85.3036) scale(17.2647)">
<stop stop-color="#F1F1F1"/>
<stop offset="1" stop-color="#FAFAFA"/>
</radialGradient>
<radialGradient id="paint26_radial_1296_18690" cx="0" cy="0" r="1" gradientUnits="userSpaceOnUse" gradientTransform="translate(76.1052 56.0502) rotate(85.3036) scale(17.2647)">
<stop stop-color="#F1F1F1"/>
<stop offset="1" stop-color="#FAFAFA"/>
</radialGradient>
<radialGradient id="paint27_radial_1296_18690" cx="0" cy="0" r="1" gradientUnits="userSpaceOnUse" gradientTransform="translate(109.66 56.0502) rotate(85.3036) scale(17.2647)">
<stop stop-color="#F1F1F1"/>
<stop offset="1" stop-color="#FAFAFA"/>
</radialGradient>
<radialGradient id="paint28_radial_1296_18690" cx="0" cy="0" r="1" gradientUnits="userSpaceOnUse" gradientTransform="translate(143.206 56.0502) rotate(85.3036) scale(17.2647)">
<stop stop-color="#F1F1F1"/>
<stop offset="1" stop-color="#FAFAFA"/>
</radialGradient>
<radialGradient id="paint29_radial_1296_18690" cx="0" cy="0" r="1" gradientUnits="userSpaceOnUse" gradientTransform="translate(176.757 56.0502) rotate(85.3036) scale(17.2647)">
<stop stop-color="#F1F1F1"/>
<stop offset="1" stop-color="#FAFAFA"/>
</radialGradient>
<radialGradient id="paint30_radial_1296_18690" cx="0" cy="0" r="1" gradientUnits="userSpaceOnUse" gradientTransform="translate(210.308 56.0502) rotate(85.3036) scale(17.2647)">
<stop stop-color="#F1F1F1"/>
<stop offset="1" stop-color="#FAFAFA"/>
</radialGradient>
<radialGradient id="paint31_radial_1296_18690" cx="0" cy="0" r="1" gradientUnits="userSpaceOnUse" gradientTransform="translate(243.852 56.0502) rotate(85.3036) scale(17.2647)">
<stop stop-color="#F1F1F1"/>
<stop offset="1" stop-color="#FAFAFA"/>
</radialGradient>
<radialGradient id="paint32_radial_1296_18690" cx="0" cy="0" r="1" gradientUnits="userSpaceOnUse" gradientTransform="translate(9.0075 124.66) rotate(85.3036) scale(17.2647)">
<stop stop-color="#F1F1F1"/>
<stop offset="1" stop-color="#FAFAFA"/>
</radialGradient>
<radialGradient id="paint33_radial_1296_18690" cx="0" cy="0" r="1" gradientUnits="userSpaceOnUse" gradientTransform="translate(42.5563 124.66) rotate(85.3036) scale(17.2647)">
<stop stop-color="#F1F1F1"/>
<stop offset="1" stop-color="#FAFAFA"/>
</radialGradient>
<radialGradient id="paint34_radial_1296_18690" cx="0" cy="0" r="1" gradientUnits="userSpaceOnUse" gradientTransform="translate(76.1052 124.66) rotate(85.3036) scale(17.2647)">
<stop stop-color="#F1F1F1"/>
<stop offset="1" stop-color="#FAFAFA"/>
</radialGradient>
<radialGradient id="paint35_radial_1296_18690" cx="0" cy="0" r="1" gradientUnits="userSpaceOnUse" gradientTransform="translate(109.66 124.66) rotate(85.3036) scale(17.2647)">
<stop stop-color="#F1F1F1"/>
<stop offset="1" stop-color="#FAFAFA"/>
</radialGradient>
<radialGradient id="paint36_radial_1296_18690" cx="0" cy="0" r="1" gradientUnits="userSpaceOnUse" gradientTransform="translate(143.206 124.66) rotate(85.3036) scale(17.2647)">
<stop stop-color="#F1F1F1"/>
<stop offset="1" stop-color="#FAFAFA"/>
</radialGradient>
<radialGradient id="paint37_radial_1296_18690" cx="0" cy="0" r="1" gradientUnits="userSpaceOnUse" gradientTransform="translate(176.757 124.66) rotate(85.3036) scale(17.2647)">
<stop stop-color="#F1F1F1"/>
<stop offset="1" stop-color="#FAFAFA"/>
</radialGradient>
<radialGradient id="paint38_radial_1296_18690" cx="0" cy="0" r="1" gradientUnits="userSpaceOnUse" gradientTransform="translate(210.308 124.66) rotate(85.3036) scale(17.2647)">
<stop stop-color="#F1F1F1"/>
<stop offset="1" stop-color="#FAFAFA"/>
</radialGradient>
<radialGradient id="paint39_radial_1296_18690" cx="0" cy="0" r="1" gradientUnits="userSpaceOnUse" gradientTransform="translate(243.852 124.66) rotate(85.3036) scale(17.2647)">
<stop stop-color="#F1F1F1"/>
<stop offset="1" stop-color="#FAFAFA"/>
</radialGradient>
<radialGradient id="paint40_radial_1296_18690" cx="0" cy="0" r="1" gradientUnits="userSpaceOnUse" gradientTransform="translate(9.0075 193.268) rotate(85.3036) scale(17.2647)">
<stop stop-color="#F1F1F1"/>
<stop offset="1" stop-color="#FAFAFA"/>
</radialGradient>
<radialGradient id="paint41_radial_1296_18690" cx="0" cy="0" r="1" gradientUnits="userSpaceOnUse" gradientTransform="translate(42.5563 193.268) rotate(85.3036) scale(17.2647)">
<stop stop-color="#F1F1F1"/>
<stop offset="1" stop-color="#FAFAFA"/>
</radialGradient>
<radialGradient id="paint42_radial_1296_18690" cx="0" cy="0" r="1" gradientUnits="userSpaceOnUse" gradientTransform="translate(76.1052 193.268) rotate(85.3036) scale(17.2647)">
<stop stop-color="#F1F1F1"/>
<stop offset="1" stop-color="#FAFAFA"/>
</radialGradient>
<radialGradient id="paint43_radial_1296_18690" cx="0" cy="0" r="1" gradientUnits="userSpaceOnUse" gradientTransform="translate(109.66 193.269) rotate(85.3036) scale(17.2647)">
<stop stop-color="#F1F1F1"/>
<stop offset="1" stop-color="#FAFAFA"/>
</radialGradient>
<radialGradient id="paint44_radial_1296_18690" cx="0" cy="0" r="1" gradientUnits="userSpaceOnUse" gradientTransform="translate(143.206 193.268) rotate(85.3036) scale(17.2647)">
<stop stop-color="#F1F1F1"/>
<stop offset="1" stop-color="#FAFAFA"/>
</radialGradient>
<radialGradient id="paint45_radial_1296_18690" cx="0" cy="0" r="1" gradientUnits="userSpaceOnUse" gradientTransform="translate(176.757 193.268) rotate(85.3036) scale(17.2647)">
<stop stop-color="#F1F1F1"/>
<stop offset="1" stop-color="#FAFAFA"/>
</radialGradient>
<radialGradient id="paint46_radial_1296_18690" cx="0" cy="0" r="1" gradientUnits="userSpaceOnUse" gradientTransform="translate(210.308 193.268) rotate(85.3036) scale(17.2647)">
<stop stop-color="#F1F1F1"/>
<stop offset="1" stop-color="#FAFAFA"/>
</radialGradient>
<radialGradient id="paint47_radial_1296_18690" cx="0" cy="0" r="1" gradientUnits="userSpaceOnUse" gradientTransform="translate(243.852 193.268) rotate(85.3036) scale(17.2647)">
<stop stop-color="#F1F1F1"/>
<stop offset="1" stop-color="#FAFAFA"/>
</radialGradient>
</defs>
</svg>
