<svg width="103" height="14" viewBox="0 0 103 14" fill="none" xmlns="http://www.w3.org/2000/svg">
<path d="M10.8141 11.3252C9.62459 12.5035 8.177 13.0926 6.47131 13.0926C4.76562 13.0926 3.31803 12.5035 2.12854 11.3252C0.95027 10.1245 0.361135 8.67127 0.361135 6.96558C0.361135 5.24867 0.95027 3.80108 2.12854 2.62281C3.31803 1.43332 4.76562 0.83857 6.47131 0.83857C8.177 0.83857 9.62459 1.43332 10.8141 2.62281C12.0036 3.80108 12.5983 5.24867 12.5983 6.96558C12.5983 8.68249 12.0036 10.1357 10.8141 11.3252ZM3.76129 9.74293C4.47947 10.4611 5.38281 10.8202 6.47131 10.8202C7.55981 10.8202 8.46315 10.4611 9.18133 9.74293C9.91074 9.01353 10.2754 8.08774 10.2754 6.96558C10.2754 5.84342 9.91074 4.91763 9.18133 4.18823C8.45193 3.45882 7.54859 3.09412 6.47131 3.09412C5.39403 3.09412 4.49069 3.45882 3.76129 4.18823C3.03188 4.91763 2.66718 5.84342 2.66718 6.96558C2.66718 8.08774 3.03188 9.01353 3.76129 9.74293ZM16.3013 4.44071V5.8883C16.4921 5.36089 16.8175 4.96252 17.2776 4.6932C17.7377 4.41266 18.2651 4.27239 18.8599 4.27239V6.69626C18.1978 6.60649 17.603 6.74115 17.0756 7.10024C16.5594 7.44811 16.3013 8.02602 16.3013 8.83398V12.8569H14.1299V4.44071H16.3013ZM33.6462 4.20506C34.6113 4.20506 35.38 4.51926 35.9523 5.14767C36.5358 5.77609 36.8276 6.61771 36.8276 7.67254V12.8569H34.6562V7.82403C34.6562 7.31906 34.5327 6.9263 34.2859 6.64576C34.039 6.36522 33.6911 6.22495 33.2423 6.22495C32.7485 6.22495 32.3614 6.38766 32.0808 6.71309C31.8115 7.03852 31.6768 7.50983 31.6768 8.12702V12.8569H29.5055V7.82403C29.5055 7.31906 29.382 6.9263 29.1351 6.64576C28.8883 6.36522 28.5404 6.22495 28.0915 6.22495C27.609 6.22495 27.2219 6.39328 26.9301 6.72992C26.6496 7.05535 26.5093 7.52105 26.5093 8.12702V12.8569H24.3379V4.44071H26.5093V5.33283C27.0143 4.58098 27.7942 4.20506 28.849 4.20506C29.8926 4.20506 30.6557 4.60904 31.1382 5.41699C31.6881 4.60904 32.5241 4.20506 33.6462 4.20506ZM46.8523 9.54094H40.5065C40.787 10.5958 41.5782 11.1232 42.8799 11.1232C43.7103 11.1232 44.3387 10.8427 44.7651 10.2816L46.5157 11.2915C45.6853 12.4922 44.4621 13.0926 42.8462 13.0926C41.4547 13.0926 40.3382 12.6718 39.4966 11.8302C38.6549 10.9885 38.2341 9.92809 38.2341 8.64882C38.2341 7.392 38.6493 6.33717 39.4797 5.48432C40.2989 4.63148 41.365 4.20506 42.6779 4.20506C43.9235 4.20506 44.9391 4.63148 45.7246 5.48432C46.5325 6.33717 46.9365 7.392 46.9365 8.64882C46.9365 8.88448 46.9084 9.18185 46.8523 9.54094ZM40.4728 7.8577H44.7651C44.6417 7.30784 44.3892 6.88703 44.0077 6.59527C43.6373 6.3035 43.1941 6.15762 42.6779 6.15762C42.0944 6.15762 41.6118 6.30911 41.2303 6.6121C40.8488 6.90386 40.5963 7.31906 40.4728 7.8577ZM56.5672 9.54094H50.2213C50.5019 10.5958 51.293 11.1232 52.5947 11.1232C53.4251 11.1232 54.0535 10.8427 54.4799 10.2816L56.2305 11.2915C55.4001 12.4922 54.1769 13.0926 52.561 13.0926C51.1696 13.0926 50.053 12.6718 49.2114 11.8302C48.3698 10.9885 47.9489 9.92809 47.9489 8.64882C47.9489 7.392 48.3641 6.33717 49.1945 5.48432C50.0137 4.63148 51.0798 4.20506 52.3927 4.20506C53.6383 4.20506 54.6539 4.63148 55.4394 5.48432C56.2473 6.33717 56.6513 7.392 56.6513 8.64882C56.6513 8.88448 56.6233 9.18185 56.5672 9.54094ZM50.1877 7.8577H54.4799C54.3565 7.30784 54.104 6.88703 53.7225 6.59527C53.3522 6.3035 52.9089 6.15762 52.3927 6.15762C51.8092 6.15762 51.3267 6.30911 50.9451 6.6121C50.5636 6.90386 50.3111 7.31906 50.1877 7.8577ZM62.7347 4.44071V6.52794H60.8326V10.0291C60.8326 10.3208 60.9055 10.5341 61.0514 10.6687C61.1973 10.8034 61.4105 10.8819 61.6911 10.9044C61.9716 10.9156 62.3195 10.91 62.7347 10.8875V12.8569C61.2646 13.0253 60.2154 12.8906 59.587 12.453C58.9698 12.0041 58.6612 11.1961 58.6612 10.0291V6.52794H57.1968V4.44071H58.6612V2.74064L60.8326 2.08417V4.44071H62.7347ZM74.1599 8.98547V4.44071H76.3313V12.8569H74.1599V11.9143C73.6438 12.6998 72.8077 13.0926 71.6519 13.0926C70.7317 13.0926 69.9687 12.784 69.3627 12.1668C68.768 11.5384 68.4706 10.6855 68.4706 9.60827V4.44071H70.642V9.33895C70.642 9.88881 70.7878 10.3152 71.0796 10.6182C71.3826 10.9212 71.7922 11.0727 72.3084 11.0727C72.8807 11.0727 73.3295 10.8988 73.655 10.5509C73.9916 10.1918 74.1599 9.66999 74.1599 8.98547ZM80.2574 6.83092C80.2574 7.19001 80.768 7.49861 81.7891 7.7567C82.1482 7.83526 82.4736 7.93064 82.7654 8.04286C83.0572 8.14385 83.3489 8.29534 83.6407 8.49733C83.9437 8.6881 84.1793 8.9462 84.3477 9.27162C84.516 9.59705 84.6001 9.97298 84.6001 10.3994C84.6001 11.2635 84.2747 11.9311 83.6239 12.4025C82.973 12.8625 82.1707 13.0926 81.2168 13.0926C79.4887 13.0926 78.3104 12.4249 77.682 11.0895L79.5672 10.0291C79.8253 10.7585 80.3752 11.1232 81.2168 11.1232C81.9911 11.1232 82.3783 10.8819 82.3783 10.3994C82.3783 10.0403 81.8677 9.73171 80.8465 9.47361C80.465 9.37262 80.1395 9.27162 79.8702 9.17063C79.6009 9.06963 79.3091 8.92375 78.9949 8.73299C78.6807 8.531 78.4395 8.27851 78.2711 7.97553C78.114 7.66132 78.0355 7.29662 78.0355 6.88142C78.0355 6.05102 78.3385 5.40016 78.9444 4.92885C79.5616 4.44632 80.3247 4.20506 81.2336 4.20506C81.9182 4.20506 82.541 4.36216 83.102 4.67637C83.6631 4.97935 84.1064 5.41699 84.4318 5.9893L82.5802 6.99924C82.3109 6.42694 81.8621 6.14079 81.2336 6.14079C80.9531 6.14079 80.7175 6.20812 80.5267 6.34278C80.3471 6.46622 80.2574 6.62893 80.2574 6.83092ZM91.3642 3.43077C91.0051 3.43077 90.6909 3.30172 90.4215 3.04362C90.1634 2.7743 90.0344 2.46009 90.0344 2.101C90.0344 1.74191 90.1634 1.42771 90.4215 1.15839C90.6909 0.889067 91.0051 0.754408 91.3642 0.754408C91.7345 0.754408 92.0487 0.889067 92.3068 1.15839C92.5761 1.42771 92.7107 1.74191 92.7107 2.101C92.7107 2.46009 92.5761 2.7743 92.3068 3.04362C92.0487 3.30172 91.7345 3.43077 91.3642 3.43077ZM92.4583 12.8569H90.2869V4.44071H92.4583V12.8569ZM99.1251 4.20506C100.056 4.20506 100.814 4.51365 101.397 5.13084C102.003 5.75925 102.306 6.6121 102.306 7.68937V12.8569H100.135V7.95869C100.135 7.40883 99.9835 6.98241 99.6806 6.67943C99.3888 6.37644 98.9848 6.22495 98.4686 6.22495C97.8963 6.22495 97.4418 6.4045 97.1052 6.76359C96.7798 7.11146 96.6171 7.62765 96.6171 8.31217V12.8569H94.4457V4.44071H96.6171V5.38333C97.1333 4.59782 97.9693 4.20506 99.1251 4.20506Z" fill="#FF474D"/>
</svg>
