<svg width="13" height="17" viewBox="0 0 13 17" fill="none" xmlns="http://www.w3.org/2000/svg">
<path d="M6.17676 0.117188C2.86669 0.117188 0.176758 2.63906 0.176758 5.74219C0.176758 6.79219 0.486824 7.8141 1.07679 8.69535L5.77002 15.8958C5.85009 16.0177 5.97009 16.0927 6.11013 16.1114C6.30006 16.1395 6.51016 16.0646 6.62012 15.8864L11.3268 8.62032C11.8867 7.75785 12.1768 6.75472 12.1768 5.74219C12.1768 2.63906 9.48682 0.117188 6.17676 0.117188ZM6.17676 8.55469C4.49682 8.55469 3.17676 7.27969 3.17676 5.74219C3.17676 4.19528 4.52672 2.92969 6.17676 2.92969C7.82679 2.92969 9.17676 4.19528 9.17676 5.74219C9.17676 7.27032 7.87672 8.55469 6.17676 8.55469Z" fill="#FF474D"/>
<path d="M6.17627 0.117188V2.92969C7.8263 2.92969 9.17627 4.19528 9.17627 5.74219C9.17627 7.27031 7.87624 8.55469 6.17627 8.55469V16.1169C6.3469 16.1206 6.52237 16.0439 6.6196 15.8864L11.3263 8.62031C11.8862 7.75784 12.1763 6.75472 12.1763 5.74219C12.1763 2.63906 9.48634 0.117188 6.17627 0.117188Z" fill="#D61414"/>
</svg>
