<svg width="78" height="41" viewBox="0 0 78 41" fill="none" xmlns="http://www.w3.org/2000/svg">
<path d="M1.67871 30.0371C1.67871 30.0371 2.20058 25.7927 4.57925 24.5704C6.20663 23.7341 8.31821 24.498 9.15683 23.4387C10.6298 21.5782 9.5506 20.1423 11.8148 18.1742C15.2934 15.1506 20.8555 16.8016 22.8896 14.0906C24.6615 11.7289 22.2786 10.6123 23.431 8.18648C24.5835 5.76062 29.0632 5.184 32.8667 3.96302C36.2772 2.8682 39.6274 1.83789 39.6274 1.83789" stroke="#C6C6C6" stroke-width="3.02469"/>
<path d="M0.937988 29.642C0.937988 29.642 1.81114 25.1442 4.1898 23.9219C5.81719 23.0856 7.83626 23.7488 8.67488 22.6895C10.1478 20.829 8.93389 19.6918 11.4349 17.5628C15.6931 13.9383 20.096 16.3329 22.1301 13.6219C23.9021 11.2603 21.4894 10.4644 22.6716 7.71781C23.8537 4.97122 28.7172 4.4432 32.5207 3.22222C35.9313 2.1274 39.4295 1 39.4295 1" stroke="#D6D6D6" stroke-width="1.20988"/>
<path d="M69.4551 23.5373C67.9822 21.6767 69.0613 20.2408 66.7971 18.2728C63.3185 15.2492 57.7565 16.9001 55.7223 14.1891C53.9504 11.8275 56.3334 10.7109 55.1809 8.28503C54.0285 5.85917 49.6474 5.33194 45.8439 4.11096C42.4334 3.01614 39.2313 1.83936 39.2313 1.83936" stroke="#C6C6C6" stroke-width="3.02469"/>
<path d="M69.936 22.7882C68.4631 20.9277 69.4402 19.6296 67.176 17.6616C63.6974 14.638 58.5149 16.4317 56.4808 13.7207C54.7088 11.359 57.1215 10.5632 55.9394 7.81657C54.7572 5.06998 49.7456 4.4432 45.9421 3.22222C42.5316 2.1274 39.1319 1 39.1319 1" stroke="#D6D6D6" stroke-width="1.20988"/>
<path fill-rule="evenodd" clip-rule="evenodd" d="M5.07087 23.1934L5.07167 23.1945C5.33914 23.5473 5.67062 23.8863 6.06913 24.2107C6.48227 24.5335 7.04065 24.943 7.74631 25.4399C8.51319 25.9692 9.14207 26.4439 9.62932 26.8634C10.1442 27.2819 10.5785 27.7583 10.9298 28.2926C11.2992 28.8546 11.4878 29.4688 11.4882 30.1273C11.5025 31.4184 10.8784 32.4183 9.69088 33.0994L9.6893 33.1003L9.68772 33.1012C8.53499 33.7483 7.10929 34.0666 5.43147 34.0801L5.42988 34.0801H5.42829C4.30493 34.0801 3.34848 33.9317 2.57506 33.6164L2.57386 33.6159L2.57266 33.6154C1.83181 33.3076 1.25059 32.9014 0.866295 32.3784L0.862442 32.3731L0.858763 32.3678C0.502027 31.8471 0.315828 31.283 0.315828 30.6826C0.315828 30.2402 0.41529 29.8229 0.615529 29.4364C0.81431 29.0397 1.08924 28.7204 1.44394 28.4939C1.88135 28.2077 2.34956 28.0554 2.84245 28.0554C3.1134 28.0554 3.3669 28.1018 3.59756 28.1976C2.80841 27.6578 2.17731 27.1993 1.70756 26.8232L1.70271 26.8193L1.69799 26.8153C1.21683 26.4046 0.813591 25.923 0.488994 25.3722L0.487064 25.3689L0.485199 25.3656C0.158537 24.7861 0 24.1318 0 23.4135C0 22.5947 0.270508 21.8552 0.79985 21.2077L0.800454 21.207C1.3335 20.5583 2.03364 20.0613 2.88758 19.7107C3.74193 19.3467 4.66268 19.1666 5.64542 19.1666C5.93762 19.1666 6.16933 19.1731 6.33255 19.1879L6.33679 19.1883L6.34102 19.1888C7.30884 19.2979 8.13685 19.5254 8.81144 19.8844C9.47018 20.2351 9.98227 20.6636 10.318 21.1817C10.6438 21.6716 10.8171 22.1937 10.8171 22.7419C10.8171 23.3336 10.627 23.853 10.2387 24.274C9.84 24.7062 9.31587 24.9147 8.705 24.9147C8.32411 24.9147 7.92335 24.8197 7.50787 24.6477L7.00045 24.4375L7.36112 24.0231C7.63979 23.703 7.79699 23.2629 7.79699 22.6629C7.79699 22.2563 7.71605 21.8609 7.552 21.4739L7.55 21.4692L7.54812 21.4644C7.398 21.0831 7.19073 20.7917 6.93234 20.5762L6.92548 20.5705L6.91889 20.5645C6.68309 20.349 6.43409 20.253 6.15864 20.253C5.65562 20.253 5.28095 20.406 4.99683 20.6904C4.70724 20.9801 4.55976 21.3384 4.55976 21.7937C4.55976 22.2757 4.72175 22.7392 5.07007 23.1924L5.07087 23.1934ZM9.98805 21.3987C9.69854 20.9509 9.24454 20.5624 8.62604 20.2332C8.18645 19.9992 7.66708 19.8218 7.06795 19.7009C6.82411 19.6517 6.56707 19.6118 6.29681 19.5814C6.2564 19.5777 6.21034 19.5745 6.15864 19.5719C6.02517 19.565 5.85409 19.5616 5.64542 19.5616C5.56182 19.5616 5.47875 19.563 5.3962 19.5657C4.5562 19.5936 3.77074 19.7634 3.03984 20.0752C2.23711 20.4044 1.5923 20.8653 1.1054 21.4579C0.631655 22.0373 0.394784 22.6892 0.394784 23.4135C0.394784 24.0719 0.539539 24.6579 0.829047 25.1715C1.13172 25.6851 1.50676 26.1328 1.95418 26.5147C2.41476 26.8834 3.03984 27.3378 3.82941 27.8777C4.46106 28.3122 4.94797 28.6612 5.29011 28.9246C5.63226 29.1748 5.97441 29.4645 6.31655 29.7937C6.57974 30.0571 6.77713 30.3468 6.90873 30.6629C7.05348 30.9789 7.12586 31.295 7.12586 31.611C7.12586 32.1246 6.95479 32.5592 6.61264 32.9147C6.46888 33.0643 6.30124 33.1813 6.10973 33.2655C5.90885 33.3539 5.6817 33.4062 5.42829 33.4227C5.42758 33.4227 5.42688 33.4228 5.42617 33.4228C5.369 33.4265 5.31048 33.4283 5.25063 33.4283C4.90431 33.4283 4.59343 33.3624 4.318 33.2307C4.27946 33.2122 4.24161 33.1925 4.20445 33.1715C3.90179 33.0003 3.6715 32.783 3.51358 32.5196C3.35567 32.2431 3.27671 31.9666 3.27671 31.69C3.27671 31.374 3.38199 31.1303 3.59254 30.9592C4.0268 30.6036 4.24393 30.2019 4.24393 29.7542C4.24393 29.3855 4.11234 29.076 3.84915 28.8258C3.58596 28.5756 3.25039 28.4505 2.84245 28.4505C2.4345 28.4505 2.03972 28.5756 1.65809 28.8258C1.36859 29.0102 1.1383 29.2736 0.967222 29.6159C0.796149 29.9452 0.710612 30.3007 0.710612 30.6826C0.710612 31.1962 0.868526 31.6834 1.18435 32.1443C1.51334 32.5921 2.02656 32.9608 2.72401 33.2505C3.1505 33.4244 3.64572 33.5461 4.20968 33.6156C4.53394 33.6556 4.88093 33.6783 5.25063 33.6838C5.30928 33.6846 5.3685 33.6851 5.42829 33.6851C5.6934 33.6829 5.95121 33.673 6.20174 33.6552C7.49319 33.5635 8.5908 33.264 9.49457 32.7567C10.5736 32.1378 11.1066 31.262 11.0934 30.1295C11.0934 29.5501 10.9289 29.0102 10.6 28.5098C10.271 28.0094 9.86303 27.5616 9.37613 27.1666C8.90239 26.7583 8.28389 26.2908 7.52064 25.7641C6.81003 25.2637 6.24417 24.8489 5.82307 24.5196C5.40197 24.1773 5.04666 23.8151 4.75715 23.4332C4.36237 22.9196 4.16498 22.3731 4.16498 21.7937C4.16498 21.2406 4.34921 20.7797 4.71767 20.411C4.92856 20.2 5.1761 20.0493 5.46027 19.9591C5.52035 19.94 5.58206 19.9236 5.64542 19.9099C5.80597 19.8753 5.97705 19.8579 6.15864 19.8579C6.19453 19.8579 6.23007 19.8591 6.26526 19.8616C6.26728 19.8617 6.2693 19.8619 6.27132 19.862C6.50484 19.8792 6.72295 19.9504 6.92565 20.0755C7.01513 20.1307 7.1016 20.1965 7.18508 20.2727C7.5009 20.5361 7.74436 20.8851 7.91543 21.3196C8.09966 21.7542 8.19178 22.2019 8.19178 22.6629C8.19178 23.1661 8.09204 23.5954 7.89257 23.9507C7.82582 24.0696 7.74791 24.1803 7.65882 24.2826C7.79497 24.339 7.92693 24.3853 8.0547 24.4216C8.28508 24.487 8.50184 24.5196 8.705 24.5196C9.21822 24.5196 9.63274 24.3485 9.94857 24.0061C10.2644 23.6637 10.4223 23.2423 10.4223 22.7419C10.4223 22.281 10.2776 21.8332 9.98805 21.3987ZM6.04008 30.0758C5.71019 29.7585 5.3825 29.4814 5.05718 29.2436L5.05326 29.2407L5.04941 29.2377C4.82854 29.0677 4.54365 28.8595 4.19387 28.6126C4.48873 28.9265 4.63872 29.3139 4.63872 29.7542C4.63872 30.3498 4.34304 30.8551 3.84253 31.2649L3.84149 31.2658C3.73891 31.3492 3.6715 31.4711 3.6715 31.69C3.6715 31.8869 3.72668 32.0953 3.85424 32.3199C3.97256 32.5158 4.14896 32.6863 4.39871 32.8276C4.63446 32.9609 4.91455 33.0332 5.25063 33.0332C5.74756 33.0332 6.08939 32.8893 6.32807 32.6409L6.32827 32.6407C6.59646 32.362 6.73108 32.027 6.73108 31.611C6.73108 31.3572 6.67333 31.0971 6.54984 30.8275L6.54697 30.8212L6.54431 30.8148C6.43466 30.5515 6.26865 30.3051 6.04008 30.0758ZM23.1829 29.2337L23.1848 29.3095C23.2005 29.9214 22.9819 30.5923 22.5829 31.3085C22.1769 32.048 21.5538 32.6789 20.7339 33.2073C19.8807 33.7572 18.8483 34.0209 17.658 34.0209C16.6045 34.0209 15.6368 33.8125 14.762 33.3888C13.8804 32.9619 13.1732 32.333 12.6469 31.5074L12.6456 31.5054L12.6443 31.5033C12.1256 30.6669 11.8744 29.6833 11.8744 28.569C11.8744 27.5089 12.1511 26.5605 12.7132 25.7385L12.7136 25.7379L12.714 25.7373C13.2813 24.9142 14.0335 24.2834 14.9624 23.8465C15.8996 23.3988 16.9117 23.1764 17.9935 23.1764C18.5929 23.1764 19.1891 23.2835 19.7805 23.4943C20.3969 23.7007 20.9375 24.0536 21.3998 24.5452C21.8838 25.0598 22.1768 25.7103 22.2923 26.4755L22.3336 26.7496L17.0966 29.5923C17.3594 30.0045 17.6644 30.3195 18.0082 30.5468C18.4588 30.8232 18.9384 30.9592 19.4542 30.9592C20.0309 30.9592 20.5825 30.7931 21.1156 30.4493C21.6432 30.109 22.0645 29.6317 22.3778 29.0047L22.7585 28.2428L23.1829 29.2337ZM16.7488 29.7811C16.7097 29.719 16.6717 29.6551 16.6346 29.5895C16.6207 29.5648 16.6068 29.5398 16.5932 29.5146C16.5795 29.4894 16.566 29.4639 16.5526 29.4382L21.9019 26.5345C21.7966 25.8365 21.5334 25.2637 21.1123 24.8159C20.6912 24.3682 20.2043 24.0522 19.6516 23.8678C19.0989 23.6703 18.5462 23.5715 17.9935 23.5715C16.9671 23.5715 16.013 23.7822 15.1313 24.2036C14.2628 24.6118 13.5654 25.1978 13.039 25.9616C12.5258 26.7122 12.2692 27.5814 12.2692 28.569C12.2692 29.6225 12.506 30.5312 12.9798 31.295C13.4667 32.0587 14.1181 32.6382 14.934 33.0332C15.7498 33.4283 16.6578 33.6258 17.658 33.6258C18.7897 33.6258 19.7437 33.3756 20.5202 32.8752C21.2966 32.3748 21.869 31.7888 22.2375 31.1172C22.4636 30.7114 22.6204 30.3357 22.7079 29.9901C22.7681 29.7524 22.7955 29.5289 22.7902 29.3196L22.7309 29.1814C22.707 29.2293 22.6824 29.2766 22.6572 29.3231C22.6444 29.3467 22.6314 29.3701 22.6183 29.3933C22.5329 29.5445 22.4409 29.6876 22.3421 29.8226C22.0595 30.2087 21.7219 30.5283 21.3295 30.7814C20.7373 31.1633 20.1122 31.3542 19.4542 31.3542C18.8621 31.3542 18.3094 31.1962 17.7961 30.8801C17.3908 30.6133 17.0417 30.2469 16.7488 29.7811ZM16.5921 24.1246C16.3683 24.1904 16.1907 24.4472 16.0591 24.895C15.9275 25.3295 15.8617 25.8431 15.8617 26.4357C15.8617 27.2727 15.9938 28.0593 16.258 28.7955C16.264 28.8122 16.2701 28.8289 16.2762 28.8456C16.3164 28.95 16.3491 29.0299 16.3746 29.0853C16.3835 29.1047 16.3915 29.1212 16.3986 29.1346C16.4045 29.1456 16.4098 29.1546 16.4144 29.1616L18.3094 28.0554C18.309 28.0488 18.3087 28.0422 18.3084 28.0356C18.2675 27.212 18.1165 26.3495 17.8554 25.448C17.5922 24.5394 17.2369 24.0851 16.7894 24.0851C16.7368 24.0851 16.671 24.0982 16.5921 24.1246ZM17.9006 27.8367C17.8473 27.1128 17.7066 26.3535 17.4762 25.558C17.3508 25.1251 17.2136 24.8394 17.0806 24.6693C16.9555 24.5094 16.86 24.4807 16.7915 24.4801C16.7915 24.4801 16.7912 24.4802 16.791 24.4802C16.7891 24.4804 16.7849 24.481 16.778 24.4823C16.7645 24.4851 16.7444 24.4902 16.7169 24.4994L16.7102 24.5016L16.7034 24.5036C16.7019 24.504 16.6943 24.5064 16.6801 24.5178C16.6651 24.5298 16.6428 24.5521 16.6156 24.5914C16.5595 24.6725 16.497 24.8051 16.4378 25.0064L16.4374 25.008L16.4369 25.0095C16.3194 25.3976 16.2565 25.8708 16.2565 26.4357C16.2565 27.2038 16.3736 27.922 16.6052 28.5929L17.9006 27.8367ZM23.1897 24.829L23.5058 24.7646C24.9547 24.4695 26.2131 23.9906 27.2869 23.3333L27.6265 23.1253L27.9469 23.6596V35.0283C27.9469 35.9251 27.7307 36.6676 27.2172 37.1666C26.748 37.6351 26.1638 37.877 25.4885 37.8924L25.484 37.8925H23.1897V36.9048H24.0725C24.085 36.8724 24.0977 36.817 24.0977 36.7271V26.0604C24.0977 25.8546 24.0507 25.774 24.026 25.7465C24.0092 25.7278 23.9628 25.688 23.8179 25.6852L23.1897 25.7424V24.829ZM24.2394 25.41C24.4081 25.5327 24.4925 25.7495 24.4925 26.0604V36.7271C24.4925 36.8776 24.4671 37.0027 24.4162 37.1024C24.4092 37.116 24.4017 37.1292 24.3938 37.1419C24.328 37.2472 24.2293 37.2999 24.0977 37.2999H23.5845V37.4974H25.4795C26.0585 37.4843 26.5454 37.2801 26.9402 36.8851C27.3481 36.49 27.5521 35.8711 27.5521 35.0283V23.769L27.4929 23.6703C27.4441 23.7001 27.3949 23.7297 27.3454 23.7588C27.3396 23.7622 27.3338 23.7656 27.328 23.769C27.2716 23.8021 27.2147 23.8347 27.1573 23.8669C26.3036 24.3453 25.3493 24.7194 24.2943 24.9891C24.1324 25.0305 23.9682 25.0694 23.8016 25.1059C23.7962 25.1071 23.7907 25.1083 23.7852 25.1095C23.7187 25.1239 23.6518 25.138 23.5845 25.1517V25.3098L23.8016 25.29C23.8653 25.29 23.9245 25.2949 23.9793 25.3047C24.0812 25.3229 24.1678 25.358 24.2394 25.41ZM26.0124 19.6209C26.5402 19.6209 27.0019 19.8153 27.3773 20.1909C27.7526 20.5665 27.9469 21.0286 27.9469 21.5567C27.9469 22.0848 27.7526 22.5469 27.3773 22.9225C27.0019 23.2981 26.5402 23.4925 26.0124 23.4925C25.4847 23.4925 25.023 23.2981 24.6476 22.9225C24.2723 22.5469 24.078 22.0848 24.078 21.5567C24.078 21.0286 24.2723 20.5665 24.6476 20.1909C25.023 19.8153 25.4847 19.6209 26.0124 19.6209ZM40.7328 33.9419H37.0953L37.0898 33.9417C36.5796 33.9275 36.1309 33.8282 35.7922 33.5963L35.7865 33.5924L35.781 33.5883C35.6349 33.4806 35.5208 33.3438 35.433 33.1854C35.1934 33.4406 34.8973 33.6529 34.5502 33.8227L34.547 33.8243L34.5437 33.8258C33.893 34.1297 33.1703 34.2777 32.3831 34.2777C31.6916 34.2777 31.0312 34.1574 30.4051 33.9153C29.7713 33.6703 29.2507 33.3102 28.8592 32.828L28.855 32.8228L28.8509 32.8175C28.4559 32.2957 28.2977 31.6754 28.3578 30.9842L28.358 30.982L28.3582 30.9799C28.431 30.2368 28.6897 29.6 29.1499 29.0934L29.1502 29.093C29.5927 28.6073 30.1035 28.232 30.6815 27.9717L30.6831 27.971L30.6848 27.9703C30.706 27.9609 30.7274 27.9516 30.749 27.9423C30.2947 27.8992 29.8846 27.7586 29.5306 27.5094L29.5277 27.5074L29.5249 27.5053C29.059 27.1646 28.8498 26.6503 28.8498 26.0406C28.8498 25.3945 29.1634 24.8537 29.7102 24.4272C30.235 24.0048 30.8916 23.695 31.6659 23.487C32.4382 23.2665 33.2369 23.1567 34.061 23.1567C35.6297 23.1567 36.9818 23.4913 38.0969 24.183C39.3055 24.9187 39.8445 26.3206 39.8445 28.2135V32.7764C39.8445 32.8505 39.851 32.9031 39.8592 32.9385C39.8605 32.9444 39.8619 32.9496 39.8632 32.9542H40.7328V33.9419ZM37.8904 24.5196C37.0738 24.0128 36.1111 23.705 35.0023 23.5963C34.6994 23.5666 34.3856 23.5517 34.061 23.5517C34.0578 23.5517 34.0546 23.5517 34.0514 23.5517C34.05 23.5517 34.0486 23.5518 34.0472 23.5518C33.8392 23.5521 33.6331 23.5597 33.4288 23.5747C32.8622 23.6161 32.3097 23.7138 31.7712 23.8678C31.0343 24.0653 30.4289 24.355 29.9552 24.7369C29.4815 25.1057 29.2446 25.5402 29.2446 26.0406C29.2446 26.5542 29.4157 26.9361 29.7578 27.1863C30.1131 27.4365 30.5474 27.5616 31.0606 27.5616C31.5738 27.5616 32.0805 27.4563 32.5805 27.2456C32.9035 27.113 33.164 26.9621 33.3619 26.7929C33.4784 26.6934 33.5733 26.5874 33.6464 26.4752C33.5091 26.4312 33.3856 26.3781 33.2758 26.3158C33.1225 26.2288 32.996 26.1239 32.8963 26.0011C32.7384 25.7904 32.6595 25.5534 32.6595 25.29C32.6595 24.9213 32.7911 24.5921 33.0543 24.3024C33.19 24.1529 33.3451 24.0403 33.5194 23.9644C33.6829 23.8932 33.8635 23.8544 34.061 23.848C34.4057 23.832 34.6845 23.8771 34.8974 23.9832C35.0339 24.0513 35.1433 24.1445 35.2256 24.2629C35.4337 24.5493 35.539 25.0352 35.5414 25.7206C35.5414 25.7285 35.5414 25.7364 35.5414 25.7443C35.5414 25.9652 35.4836 26.1636 35.3679 26.3394C35.3417 26.3792 35.3125 26.4179 35.2804 26.4554C35.2513 26.4893 35.2199 26.5222 35.1861 26.5542C35.1796 26.5604 35.173 26.5665 35.1664 26.5726C35.0625 26.668 34.9463 26.7566 34.8177 26.8382C34.6732 26.93 34.5131 27.0131 34.3373 27.0875C34.0083 27.2192 33.528 27.3838 32.8963 27.5814C32.0673 27.8447 31.383 28.095 30.8435 28.332C30.3171 28.569 29.8499 28.9114 29.442 29.3592C29.0472 29.7937 28.8169 30.3468 28.7511 31.0184C28.6985 31.6242 28.8366 32.1443 29.1656 32.5789C29.5078 33.0003 29.9684 33.3229 30.5474 33.5468C31.1264 33.7707 31.7383 33.8826 32.3831 33.8826C33.1201 33.8826 33.7846 33.7443 34.3768 33.4678C34.7507 33.2849 35.0485 33.0521 35.2703 32.7694C35.2741 32.7645 35.278 32.7596 35.2818 32.7546C35.3292 32.693 35.3731 32.6292 35.4134 32.5629C35.415 32.5601 35.4167 32.5574 35.4184 32.5546C35.4814 32.45 35.5356 32.3396 35.5809 32.2233C35.5867 32.2985 35.5947 32.3702 35.605 32.4383C35.6277 32.589 35.6615 32.7224 35.7063 32.8385C35.7797 33.0286 35.8826 33.1726 36.0151 33.2703C36.2652 33.4415 36.6271 33.5336 37.1008 33.5468H40.338V33.3493H39.8445C39.69 33.3493 39.5808 33.2834 39.517 33.1517C39.4722 33.0592 39.4498 32.9341 39.4498 32.7764V28.2135C39.4498 26.383 38.93 25.1517 37.8904 24.5196ZM35.5611 26.4554C35.5052 26.5487 35.4417 26.6469 35.3707 26.7498L35.3704 26.7502C35.3082 26.8405 35.2402 26.9344 35.1664 27.0321C35.1414 27.0652 35.1157 27.0987 35.0894 27.1326C34.8438 27.4492 34.5405 27.8029 34.1794 28.1937C33.8241 28.6019 33.5477 28.9246 33.3503 29.1616C33.1661 29.3855 33.0148 29.6225 32.8963 29.8727C32.7253 30.2019 32.6397 30.5509 32.6397 30.9196C32.6397 31.1962 32.6924 31.4596 32.7976 31.7098C32.9029 31.9468 33.0543 32.1443 33.2516 32.3024C33.3832 32.4077 33.5477 32.4933 33.7451 32.5592C33.9425 32.625 34.1399 32.6579 34.3373 32.6579C34.5859 32.6579 34.8082 32.594 35.0042 32.4662C35.0676 32.4249 35.1282 32.3768 35.1861 32.3221C35.1882 32.32 35.1904 32.3178 35.1925 32.3156C35.2134 32.2943 35.2334 32.272 35.2525 32.2486C35.2831 32.2112 35.3115 32.1711 35.3375 32.1283C35.3431 32.1192 35.3485 32.11 35.3539 32.1007C35.4824 31.8758 35.5515 31.5809 35.5611 31.2159V26.4554ZM35.1664 27.668V31.2105C35.154 31.6516 35.0454 31.9016 34.9107 32.039C34.7489 32.1901 34.5646 32.2629 34.3373 32.2629C34.1846 32.2629 34.0293 32.2375 33.87 32.1844C33.7068 32.1299 33.5861 32.0642 33.4983 31.9939C33.3524 31.8771 33.2401 31.732 33.1599 31.5528C33.0765 31.3531 33.0345 31.1432 33.0345 30.9196C33.0345 30.6148 33.1046 30.3283 33.2466 30.055L33.25 30.0485L33.2531 30.0419C33.3568 29.8227 33.4901 29.6134 33.6543 29.4137C33.8483 29.1808 34.1209 28.8624 34.4733 28.4576C34.7313 28.1782 34.9626 27.9149 35.1664 27.668ZM34.187 26.7222C34.4929 26.5923 34.7326 26.4387 34.9152 26.2668C35.0758 26.115 35.1466 25.9478 35.1466 25.7443C35.1466 25.063 35.0393 24.6783 34.9063 24.4952L34.9039 24.4919L34.9015 24.4885C34.8041 24.3484 34.5866 24.2191 34.0793 24.2427L34.0765 24.2428L34.0737 24.2429C33.7673 24.2528 33.5343 24.3612 33.3464 24.5681C33.1448 24.79 33.0543 25.026 33.0543 25.29C33.0543 25.4653 33.104 25.6173 33.2075 25.7578C33.3189 25.8923 33.4949 26.0119 33.7668 26.0989L34.26 26.2569L33.9771 26.691C33.9428 26.7437 33.9052 26.7947 33.8647 26.8439C33.9858 26.8003 34.0932 26.7597 34.187 26.7222ZM52.9697 32.9542V33.9419H49.352L49.3465 33.9417C48.8345 33.9275 48.3845 33.8276 48.0369 33.6015L48.0272 33.5952L48.0179 33.5883C47.8869 33.4917 47.7816 33.3717 47.698 33.2337C47.5416 33.3736 47.356 33.4959 47.1492 33.602C46.5717 33.8984 45.916 34.0406 45.1925 34.0406C44.4448 34.0406 43.732 33.8674 43.0588 33.5233C42.3592 33.1658 41.7995 32.5904 41.3733 31.8226C40.936 31.0349 40.7314 30.0475 40.7314 28.8851C40.7314 27.5808 41.0057 26.4823 41.589 25.6214L41.5894 25.6208L41.5898 25.6202C42.1666 24.7755 42.8879 24.1627 43.755 23.8005C44.5897 23.4389 45.4382 23.2554 46.2979 23.2554C46.7165 23.2554 47.0949 23.2893 47.423 23.3665V20.6283C47.423 20.4225 47.376 20.3419 47.3513 20.3144C47.3345 20.2957 47.2881 20.2559 47.1432 20.2531L46.515 20.3103V19.3976L46.8303 19.3327C49.134 18.8584 50.6367 18.375 51.3999 17.9023L51.7403 17.6914L52.0617 18.2275V32.7764C52.0617 32.8664 52.0745 32.9218 52.087 32.9542H52.9697ZM47.5715 19.983C47.7357 20.1065 47.8178 20.3216 47.8178 20.6283V23.9271C47.7043 23.8659 47.5727 23.8149 47.423 23.774C47.3142 23.7443 47.1957 23.7199 47.0677 23.7009C46.9066 23.677 46.7302 23.6616 46.5387 23.6547C46.461 23.6519 46.3807 23.6505 46.2979 23.6505C45.4952 23.6505 44.699 23.8217 43.9094 24.1641C43.1199 24.4933 42.4553 25.053 41.9158 25.8431C41.3894 26.6201 41.1262 27.634 41.1262 28.8851C41.1262 30.0044 41.3236 30.9196 41.7184 31.6308C42.1132 32.3419 42.6198 32.8554 43.2383 33.1715C43.8568 33.4875 44.5082 33.6456 45.1925 33.6456C45.8636 33.6456 46.4558 33.5139 46.969 33.2505C47.2041 33.1299 47.3908 32.9955 47.5292 32.8472C47.5599 32.8144 47.5881 32.781 47.614 32.7468C47.717 32.6111 47.7826 32.4647 47.8108 32.3075C47.8135 32.2927 47.8158 32.2778 47.8178 32.2629V32.2233C47.8188 32.2366 47.8199 32.2498 47.8211 32.2629L47.8211 32.2633C47.8227 32.2813 47.8245 32.2991 47.8263 32.3167C47.8337 32.3855 47.843 32.4511 47.8544 32.5135C47.8827 32.6681 47.9236 32.8031 47.9771 32.9184C48.0472 33.0695 48.1388 33.1868 48.2521 33.2703C48.5153 33.4415 48.8837 33.5336 49.3575 33.5468H52.575V33.3493H52.0617C51.9301 33.3493 51.8314 33.2966 51.7656 33.1912C51.7577 33.1786 51.7503 33.1654 51.7433 33.1517C51.6924 33.0521 51.667 32.927 51.667 32.7764V18.3369L51.6077 18.2382C51.5794 18.2557 51.5501 18.2733 51.5201 18.2908C51.4936 18.3062 51.4665 18.3216 51.4388 18.3369C51.3857 18.3663 51.3301 18.3956 51.2722 18.4249C50.4962 18.8163 49.284 19.1961 47.6355 19.5642C47.4704 19.601 47.3008 19.6378 47.1269 19.6744C47.1215 19.6756 47.116 19.6767 47.1106 19.6779C47.0443 19.6918 46.9774 19.7057 46.9098 19.7196V19.8777L47.1269 19.8579C47.1905 19.8579 47.2498 19.8628 47.3046 19.8726C47.4097 19.8914 47.4987 19.9282 47.5715 19.983ZM47.5801 32.2173C47.5871 32.2064 47.5939 32.1953 47.6007 32.1838C47.7323 31.96 47.8046 31.6242 47.8178 31.1764V24.9542C47.8178 24.6857 47.7656 24.4648 47.6611 24.2913C47.6543 24.2799 47.6472 24.2687 47.6399 24.2578C47.6274 24.2391 47.6144 24.2211 47.6007 24.2036C47.4559 24.0192 47.2783 23.9271 47.0677 23.9271C46.9208 23.9271 46.7739 23.9694 46.627 24.0542C46.4844 24.1365 46.3418 24.2587 46.1992 24.4209C45.9097 24.7369 45.6662 25.2308 45.4688 25.9024C45.2714 26.574 45.1727 27.4102 45.1727 28.411C45.1727 29.2275 45.2714 29.9517 45.4688 30.5838C45.6662 31.2028 45.9097 31.6834 46.1992 32.0258C46.5019 32.355 46.7914 32.5196 47.0677 32.5196C47.1661 32.5196 47.2556 32.498 47.3362 32.4547C47.3714 32.4358 47.4049 32.4127 47.4368 32.3854C47.4769 32.3512 47.5143 32.3103 47.5489 32.2629C47.5537 32.2563 47.5584 32.2497 47.5631 32.243C47.566 32.2387 47.5689 32.2344 47.5718 32.23C47.5733 32.2278 47.5748 32.2256 47.5762 32.2233C47.5775 32.2213 47.5788 32.2193 47.5801 32.2173ZM46.4953 31.7644C46.7651 32.0559 46.9548 32.1246 47.0677 32.1246C47.1268 32.1246 47.1862 32.1097 47.2604 31.9835C47.3417 31.8453 47.4101 31.5903 47.423 31.1704V24.9542C47.423 24.696 47.364 24.5417 47.2902 24.4477C47.2107 24.3464 47.1423 24.3221 47.0677 24.3221C46.9394 24.3221 46.7488 24.3939 46.4956 24.6819L46.4929 24.6849L46.4902 24.6878C46.2593 24.9399 46.0375 25.3677 45.8476 26.0138C45.6643 26.6374 45.5675 27.4332 45.5675 28.411C45.5675 29.196 45.6625 29.879 45.8453 30.465C46.032 31.0499 46.2531 31.4756 46.4953 31.7644ZM61.7308 33.9419L61.7253 33.9417C61.2151 33.9275 60.7663 33.8282 60.4277 33.5963L60.422 33.5924L60.4164 33.5883C60.2704 33.4806 60.1563 33.3438 60.0685 33.1854C59.8289 33.4406 59.5328 33.6529 59.1857 33.8227L59.1824 33.8243L59.1792 33.8258C58.5284 34.1297 57.8058 34.2777 57.0186 34.2777C56.327 34.2777 55.6667 34.1574 55.0406 33.9153C54.4068 33.6703 53.8862 33.3102 53.4947 32.828L53.4905 32.8228L53.4864 32.8175C53.0914 32.2957 52.9332 31.6754 52.9933 30.9842L52.9935 30.982L52.9937 30.9799C53.0665 30.2368 53.3251 29.6 53.7853 29.0934L53.7857 29.093C54.2282 28.6073 54.7389 28.232 55.3169 27.9717L55.3186 27.971L55.3202 27.9703C55.3414 27.9609 55.3628 27.9516 55.3844 27.9423C54.9302 27.8992 54.52 27.7586 54.1661 27.5094L54.1632 27.5074L54.1603 27.5053C53.6945 27.1646 53.4853 26.6503 53.4853 26.0406C53.4853 25.3944 53.7989 24.8536 54.3457 24.4271C54.8705 24.0048 55.5271 23.695 56.3013 23.4871C57.0736 23.2666 57.8724 23.1567 58.6964 23.1567C60.2651 23.1567 61.6172 23.4913 62.7323 24.1829C63.9409 24.9186 64.48 26.3205 64.48 28.2135V32.7764C64.48 32.8505 64.4865 32.9031 64.4947 32.9385C64.496 32.9444 64.4974 32.9496 64.4987 32.9542H66.2337C66.2357 32.9476 66.2378 32.9397 66.2399 32.9302C66.2485 32.8913 66.2552 32.8347 66.2552 32.7567V20.6283C66.2552 20.4201 66.2087 20.3377 66.1846 20.3101C66.1701 20.2935 66.1297 20.2559 65.9949 20.2531L65.3669 20.3103V19.398L65.6817 19.3328C67.972 18.8586 69.4686 18.3752 70.2321 17.9023L70.5296 17.718L70.9136 18.1983V24.7166C71.0647 24.5787 71.2275 24.4421 71.4016 24.3066L71.4037 24.305L71.4057 24.3034C71.9189 23.9148 72.4459 23.618 72.9869 23.4184C73.3507 23.2821 73.7399 23.2159 74.1509 23.2159C74.9589 23.2159 75.6624 23.4893 76.2384 24.0353C76.8451 24.6105 77.1117 25.4578 77.1117 26.495V32.7764C77.1117 32.8664 77.1245 32.9218 77.137 32.9542H78V33.9419H61.7308ZM72.4318 32.9542C72.4338 32.9476 72.4359 32.9397 72.438 32.9302C72.4467 32.8913 72.4533 32.8347 72.4533 32.7567V26.3369C72.4533 25.89 72.3946 25.6142 72.3183 25.4637C72.283 25.3942 72.2509 25.365 72.2315 25.3522C72.2143 25.3409 72.1879 25.3295 72.1374 25.3295C72.0101 25.3295 71.8113 25.3922 71.5287 25.6037C71.2901 25.7909 71.0856 25.994 70.9136 26.2127V32.7764C70.9136 32.8462 70.92 32.8958 70.9278 32.9292C70.9303 32.9396 70.9327 32.9479 70.9349 32.9542H72.4318ZM70.5909 33.1517C70.5429 33.0591 70.5188 32.934 70.5188 32.7764V26.0801C70.5743 26.0038 70.633 25.9293 70.6948 25.8567C70.7329 25.8119 70.7722 25.7679 70.8127 25.7246C70.8455 25.6894 70.8792 25.6547 70.9136 25.6205C71.0296 25.5051 71.1546 25.395 71.2887 25.29C71.4694 25.1544 71.6394 25.0575 71.7986 24.9995C71.9176 24.9561 72.0305 24.9345 72.1374 24.9345C72.6112 24.9345 72.8481 25.4019 72.8481 26.3369V32.7567C72.8481 32.9237 72.8246 33.0553 72.7775 33.1517C72.7133 33.2834 72.6052 33.3493 72.4533 33.3493H71.9598V33.5468H77.6052V33.3493H77.1117C76.9801 33.3493 76.654 33.4017 76.5882 33.2963C76.5803 33.2837 76.4471 33.2606 76.4401 33.247C76.3892 33.1473 76.717 32.927 76.717 32.7764V26.495C76.717 25.5205 76.4669 24.7962 75.9669 24.3221C75.4668 23.848 74.8615 23.611 74.1509 23.611C73.7824 23.611 73.4402 23.6703 73.1244 23.7888C72.6244 23.9731 72.1309 24.2497 71.644 24.6184C71.6292 24.6299 71.6146 24.6413 71.6001 24.6528C71.4262 24.7899 71.266 24.927 71.1194 25.0641C71.118 25.0655 71.1165 25.0668 71.1151 25.0681C71.0448 25.134 70.9776 25.1999 70.9136 25.2658C70.765 25.4187 70.6335 25.5717 70.5188 25.7246V18.3369L70.4399 18.2382C70.3866 18.2712 70.3303 18.3041 70.271 18.3369C70.2239 18.363 70.1749 18.389 70.1241 18.415C69.3496 18.8102 68.1347 19.1936 66.4795 19.565C66.3168 19.6015 66.15 19.6379 65.9788 19.6742C65.9734 19.6753 65.9679 19.6765 65.9624 19.6776C65.8962 19.6917 65.8292 19.7057 65.7617 19.7196V19.8777L65.9788 19.8579C66.0426 19.8579 66.1018 19.8631 66.1565 19.8736C66.2574 19.8928 66.3428 19.9298 66.4127 19.9846C66.5709 20.1084 66.6499 20.323 66.6499 20.6283V32.7567C66.6499 32.9237 66.7656 33.1012 66.7186 33.1976C66.6544 33.3293 66.4071 33.2963 66.2552 33.2963H65.7617V33.5926H71.4071V33.3493H70.9136C70.7629 33.3417 70.6553 33.2759 70.5909 33.1517ZM62.5258 24.5196C61.7093 24.0128 60.7466 23.705 59.6377 23.5963C59.3349 23.5666 59.0211 23.5517 58.6964 23.5517C58.6932 23.5517 58.6901 23.5517 58.6869 23.5517C58.6855 23.5517 58.6841 23.5518 58.6827 23.5518C58.4747 23.5521 58.2686 23.5597 58.0643 23.5747C57.4977 23.6161 56.9452 23.7138 56.4067 23.8678C55.6697 24.0653 55.0644 24.355 54.5907 24.7369C54.1169 25.1057 53.8801 25.5402 53.8801 26.0406C53.8801 26.5542 54.0511 26.9361 54.3933 27.1863C54.7486 27.4365 55.1828 27.5616 55.6961 27.5616C56.2093 27.5616 56.7159 27.4563 57.216 27.2456C57.539 27.113 57.7995 26.9621 57.9974 26.7929C58.1139 26.6934 58.2088 26.5874 58.2819 26.4752C58.1446 26.4312 58.021 26.3781 57.9112 26.3158C57.758 26.2288 57.6315 26.1239 57.5318 26.0011C57.3739 25.7904 57.2949 25.5534 57.2949 25.29C57.2949 24.9213 57.4265 24.5921 57.6897 24.3024C57.8255 24.1529 57.9805 24.0403 58.1548 23.9644C58.3184 23.8932 58.4989 23.8544 58.6964 23.848C59.0412 23.832 59.32 23.8771 59.5329 23.9832C59.6694 24.0513 59.7788 24.1445 59.861 24.2629C60.0692 24.5493 60.1745 25.0352 60.1768 25.7206C60.1769 25.7285 60.1769 25.7364 60.1769 25.7443C60.1769 25.9652 60.119 26.1636 60.0034 26.3394C59.9771 26.3792 59.948 26.4179 59.9158 26.4554C59.8868 26.4893 59.8554 26.5222 59.8216 26.5542C59.815 26.5604 59.8085 26.5665 59.8018 26.5726C59.698 26.668 59.5818 26.7566 59.4532 26.8382C59.3087 26.93 59.1485 27.0131 58.9728 27.0875C58.6438 27.2192 58.1635 27.3838 57.5318 27.5814C56.7028 27.8447 56.0185 28.095 55.4789 28.332C54.9526 28.569 54.4854 28.9114 54.0775 29.3592C53.6827 29.7937 53.4524 30.3468 53.3866 31.0184C53.3339 31.6242 53.4721 32.1443 53.8011 32.5789C54.1432 33.0003 54.6038 33.3229 55.1828 33.5468C55.7619 33.7707 56.3738 33.8826 57.0186 33.8826C57.7555 33.8826 58.4201 33.7443 59.0123 33.4678C59.3862 33.2849 59.684 33.0521 59.9057 32.7694C59.9096 32.7645 59.9134 32.7596 59.9172 32.7546C59.9647 32.693 60.0085 32.6292 60.0488 32.5629C60.0505 32.5601 60.0522 32.5574 60.0539 32.5546C60.1169 32.45 60.171 32.3396 60.2164 32.2233C60.2221 32.2985 60.2302 32.3702 60.2405 32.4383C60.2632 32.589 60.297 32.7224 60.3418 32.8385C60.4152 33.0286 60.5181 33.1726 60.6506 33.2703C60.9006 33.4415 61.2625 33.5336 61.7363 33.5468H64.9735V33.3493H64.48C64.3255 33.3493 64.2163 33.2834 64.1525 33.1517C64.1077 33.0592 64.0852 32.9341 64.0852 32.7764V28.2135C64.0852 26.383 63.5654 25.1517 62.5258 24.5196ZM60.1966 26.4554C60.1407 26.5487 60.0772 26.6469 60.0062 26.7498L60.0059 26.7502C59.9437 26.8405 59.8756 26.9344 59.8018 27.0321C59.7768 27.0652 59.7512 27.0987 59.7249 27.1326C59.4793 27.4492 59.176 27.8029 58.8149 28.1937C58.4596 28.6019 58.1832 28.9246 57.9858 29.1616C57.8016 29.3855 57.6503 29.6225 57.5318 29.8727C57.3607 30.2019 57.2752 30.5509 57.2752 30.9196C57.2752 31.1962 57.3278 31.4596 57.4331 31.7098C57.5384 31.9468 57.6897 32.1443 57.8871 32.3024C58.0187 32.4077 58.1832 32.4933 58.3806 32.5592C58.578 32.625 58.7754 32.6579 58.9728 32.6579C59.2214 32.6579 59.4436 32.594 59.6396 32.4662C59.703 32.4249 59.7637 32.3768 59.8216 32.3221C59.8237 32.32 59.8259 32.3178 59.828 32.3156C59.8489 32.2943 59.8689 32.272 59.888 32.2486C59.9186 32.2112 59.9469 32.1711 59.973 32.1283C59.9786 32.1192 59.984 32.11 59.9893 32.1007C60.1179 31.8758 60.187 31.5809 60.1966 31.2159V26.4554ZM59.8018 27.668V31.2106C59.7895 31.6516 59.6809 31.9016 59.5462 32.0389C59.3844 32.1901 59.2 32.2629 58.9728 32.2629C58.8201 32.2629 58.6648 32.2375 58.5054 32.1844C58.3422 32.1299 58.2216 32.0642 58.1337 31.9939C57.9879 31.8771 57.8757 31.732 57.7955 31.5529C57.712 31.3532 57.67 31.1432 57.67 30.9196C57.67 30.6148 57.7401 30.3283 57.8821 30.055L57.8855 30.0485L57.8886 30.0419C57.9923 29.8227 58.1256 29.6134 58.2898 29.4137C58.4837 29.1808 58.7564 28.8624 59.1087 28.4576C59.3667 28.1782 59.5981 27.9149 59.8018 27.668ZM58.8225 26.7222C59.1283 26.5923 59.3679 26.4388 59.5505 26.267C59.7112 26.1151 59.7821 25.9479 59.7821 25.7443C59.7821 25.063 59.6748 24.6783 59.5418 24.4952L59.5393 24.4919L59.537 24.4885C59.4396 24.3484 59.2221 24.2191 58.7148 24.2427L58.712 24.2428L58.7092 24.2429C58.4028 24.2528 58.1698 24.3612 57.9818 24.5681C57.7802 24.79 57.6897 25.026 57.6897 25.29C57.6897 25.4653 57.7395 25.6173 57.843 25.7579C57.9544 25.8923 58.1304 26.0119 58.4022 26.0989L58.8955 26.2569L58.6126 26.691C58.5782 26.7437 58.5407 26.7947 58.5002 26.8439C58.6213 26.8003 58.7287 26.7597 58.8225 26.7222ZM27.0981 20.4703C26.7954 20.1674 26.4335 20.0159 26.0124 20.0159C25.5913 20.0159 25.2295 20.1674 24.9268 20.4703C24.6241 20.7731 24.4728 21.1353 24.4728 21.5567C24.4728 21.9781 24.6241 22.3402 24.9268 22.6431C25.2295 22.946 25.5913 23.0974 26.0124 23.0974C26.4335 23.0974 26.7954 22.946 27.0981 22.6431C27.4008 22.3402 27.5521 21.9781 27.5521 21.5567C27.5521 21.1353 27.4008 20.7731 27.0981 20.4703Z" fill="white"/>
<path d="M4.75739 23.4332C5.0469 23.8151 5.4022 24.1773 5.82331 24.5196C6.24441 24.8489 6.81027 25.2637 7.52088 25.7641C8.28413 26.2908 8.90263 26.7583 9.37637 27.1666C9.86327 27.5616 10.2712 28.0094 10.6002 28.5098C10.9292 29.0102 11.0937 29.5501 11.0937 30.1295C11.1068 31.262 10.5739 32.1377 9.4948 32.7567C8.41572 33.3624 7.0603 33.6719 5.42852 33.6851C4.33628 33.6851 3.43486 33.5402 2.72425 33.2505C2.0268 32.9608 1.51358 32.5921 1.18459 32.1443C0.868761 31.6834 0.710847 31.1962 0.710847 30.6826C0.710847 30.3007 0.796384 29.9452 0.967457 29.6159C1.13853 29.2735 1.36882 29.0102 1.65833 28.8258C2.03995 28.5756 2.43474 28.4505 2.84268 28.4505C3.25063 28.4505 3.58619 28.5756 3.84938 28.8258C4.11257 29.076 4.24417 29.3855 4.24417 29.7542C4.24417 30.2019 4.02704 30.6036 3.59277 30.9591C3.38222 31.1303 3.27695 31.374 3.27695 31.69C3.27695 31.9666 3.3559 32.2431 3.51382 32.5196C3.67173 32.783 3.90202 33.0003 4.20469 33.1715C4.50736 33.3427 4.85608 33.4283 5.25087 33.4283C5.82989 33.4283 6.28389 33.2571 6.61287 32.9147C6.95502 32.5591 7.12609 32.1246 7.12609 31.611C7.12609 31.2949 7.05372 30.9789 6.90896 30.6629C6.77737 30.3468 6.57998 30.0571 6.31679 29.7937C5.97464 29.4645 5.63249 29.1748 5.29035 28.9246C4.9482 28.6612 4.4613 28.3122 3.82964 27.8777C3.04008 27.3377 2.415 26.8834 1.95442 26.5147C1.507 26.1328 1.13195 25.6851 0.829282 25.1715C0.539774 24.6579 0.39502 24.0719 0.39502 23.4135C0.39502 22.6892 0.63189 22.0373 1.10563 21.4579C1.59253 20.8653 2.23735 20.4044 3.04008 20.0752C3.8428 19.7328 4.71133 19.5616 5.64565 19.5616C5.93516 19.5616 6.15229 19.5682 6.29705 19.5814C7.23137 19.6867 8.00778 19.904 8.62628 20.2332C9.24477 20.5624 9.69877 20.9509 9.98828 21.3987C10.2778 21.8332 10.4225 22.281 10.4225 22.7419C10.4225 23.2423 10.2646 23.6637 9.9488 24.0061C9.63298 24.3484 9.21845 24.5196 8.70523 24.5196C8.38941 24.5196 8.04068 24.4406 7.65905 24.2826C8.01436 23.8744 8.19201 23.3345 8.19201 22.6629C8.19201 22.2019 8.0999 21.7542 7.91566 21.3196C7.74459 20.8851 7.50114 20.5361 7.18531 20.2727C6.88264 19.9962 6.5405 19.8579 6.15887 19.8579C5.5667 19.8579 5.08638 20.0423 4.71791 20.411C4.34944 20.7797 4.16521 21.2406 4.16521 21.7937C4.16521 22.3731 4.3626 22.9196 4.75739 23.4332Z" fill="#444444"/>
<path d="M22.7904 29.3196C22.8036 29.8332 22.6193 30.4324 22.2377 31.1172C21.8692 31.7888 21.2968 32.3748 20.5204 32.8752C19.744 33.3756 18.7899 33.6258 17.6582 33.6258C16.6581 33.6258 15.7501 33.4283 14.9342 33.0332C14.1183 32.6382 13.4669 32.0587 12.98 31.2949C12.5063 30.5312 12.2694 29.6225 12.2694 28.569C12.2694 27.5814 12.526 26.7122 13.0392 25.9616C13.5656 25.1978 14.2631 24.6118 15.1316 24.2036C16.0133 23.7822 16.9673 23.5715 17.9938 23.5715C18.5465 23.5715 19.0992 23.6703 19.6519 23.8678C20.2046 24.0522 20.6915 24.3682 21.1126 24.8159C21.5337 25.2637 21.7969 25.8365 21.9021 26.5345L16.5528 29.4382C16.8818 30.0703 17.2963 30.5509 17.7964 30.8801C18.3096 31.1962 18.8623 31.3542 19.4545 31.3542C20.1124 31.3542 20.7375 31.1633 21.3297 30.7814C21.9219 30.3995 22.389 29.8661 22.7312 29.1814L22.7904 29.3196ZM16.2765 28.8456C16.3423 29.0168 16.3883 29.1221 16.4146 29.1616L18.3096 28.0554C18.2701 27.2258 18.1188 26.3567 17.8556 25.448C17.5924 24.5394 17.2371 24.0851 16.7897 24.0851C16.737 24.0851 16.6712 24.0982 16.5923 24.1246C16.3686 24.1904 16.1909 24.4472 16.0593 24.8949C15.9277 25.3295 15.8619 25.8431 15.8619 26.4357C15.8619 27.2917 16.0001 28.0949 16.2765 28.8456Z" fill="#444444"/>
<path d="M26.0127 20.0159C26.4338 20.0159 26.7957 20.1674 27.0983 20.4703C27.401 20.7731 27.5523 21.1353 27.5523 21.5567C27.5523 21.9781 27.401 22.3402 27.0983 22.6431C26.7957 22.946 26.4338 23.0974 26.0127 23.0974C25.5916 23.0974 25.2297 22.946 24.927 22.6431C24.6244 22.3402 24.473 21.9781 24.473 21.5567C24.473 21.1353 24.6244 20.7731 24.927 20.4703C25.2297 20.1674 25.5916 20.0159 26.0127 20.0159ZM23.5848 25.1517C25.0718 24.8489 26.3746 24.355 27.4931 23.6703L27.5523 23.769V35.0283C27.5523 35.8711 27.3484 36.49 26.9404 36.8851C26.5456 37.2801 26.0587 37.4842 25.4797 37.4974H23.5848V37.2999H24.098C24.2296 37.2999 24.3283 37.2472 24.3941 37.1419C24.4599 37.0365 24.4928 36.8982 24.4928 36.727V26.0604C24.4928 25.5468 24.2625 25.29 23.8019 25.29L23.5848 25.3098V25.1517Z" fill="#444444"/>
<path d="M40.3383 33.5468H38.1867H37.101C36.6273 33.5336 36.2654 33.4415 36.0154 33.2703C35.7653 33.0859 35.6206 32.7369 35.5811 32.2233C35.3706 32.7633 34.9692 33.1781 34.377 33.4678C33.7848 33.7443 33.1203 33.8826 32.3834 33.8826C31.7385 33.8826 31.1266 33.7707 30.5476 33.5468C29.9686 33.3229 29.508 33.0003 29.1659 32.5789C28.8369 32.1443 28.6987 31.6242 28.7513 31.0184C28.8171 30.3468 29.0474 29.7937 29.4422 29.3591C29.8502 28.9114 30.3173 28.569 30.8437 28.332C31.3832 28.0949 32.0675 27.8447 32.8966 27.5814C33.5282 27.3838 34.0086 27.2192 34.3375 27.0875C34.6797 26.9427 34.9626 26.7649 35.1863 26.5542C35.4232 26.3303 35.5416 26.0604 35.5416 25.7443C35.5416 25.0464 35.4364 24.5526 35.2258 24.2629C35.0153 23.96 34.627 23.8217 34.0612 23.848C33.6532 23.8612 33.3177 24.0126 33.0545 24.3024C32.7913 24.5921 32.6597 24.9213 32.6597 25.29C32.6597 25.5534 32.7387 25.7904 32.8966 26.0011C33.0676 26.2118 33.3177 26.3698 33.6467 26.4752C33.4493 26.7781 33.094 27.0349 32.5807 27.2456C32.0807 27.4563 31.574 27.5616 31.0608 27.5616C30.5476 27.5616 30.1133 27.4365 29.758 27.1863C29.4159 26.9361 29.2448 26.5542 29.2448 26.0406C29.2448 25.5402 29.4817 25.1056 29.9554 24.7369C30.4292 24.355 31.0345 24.0653 31.7714 23.8678C32.5084 23.6571 33.2716 23.5517 34.0612 23.5517C35.5745 23.5517 36.851 23.8744 37.8906 24.5196C38.9302 25.1517 39.45 26.383 39.45 28.2135V32.7764C39.45 33.1583 39.5816 33.3493 39.8448 33.3493H40.3383V33.5468ZM33.2519 32.3024C33.3835 32.4077 33.548 32.4933 33.7454 32.5591C33.9428 32.625 34.1401 32.6579 34.3375 32.6579C34.6665 32.6579 34.9495 32.546 35.1863 32.3221C35.4232 32.0851 35.5482 31.7163 35.5614 31.2159V26.4554C35.285 26.9163 34.8244 27.4958 34.1796 28.1937C33.8243 28.6019 33.548 28.9246 33.3506 29.1616C33.1663 29.3855 33.015 29.6225 32.8966 29.8727C32.7255 30.2019 32.64 30.5509 32.64 30.9196C32.64 31.1962 32.6926 31.4596 32.7979 31.7098C32.9032 31.9468 33.0545 32.1443 33.2519 32.3024Z" fill="#444444"/>
<path d="M51.6672 32.7764C51.6672 32.9476 51.7001 33.0859 51.7659 33.1912C51.8317 33.2966 51.9304 33.3493 52.062 33.3493H52.5752V33.5468H51.6672H50.2065H49.3577C48.884 33.5336 48.5155 33.4415 48.2523 33.2703C48.0023 33.0859 47.8575 32.7369 47.818 32.2233V32.2628C47.7654 32.6579 47.4825 32.9871 46.9693 33.2505C46.456 33.5139 45.8639 33.6456 45.1927 33.6456C44.5084 33.6456 43.857 33.4875 43.2385 33.1715C42.62 32.8554 42.1134 32.3419 41.7186 31.6308C41.3238 30.9196 41.1264 30.0044 41.1264 28.8851C41.1264 27.634 41.3896 26.6201 41.916 25.8431C42.4556 25.053 43.1201 24.4933 43.9097 24.1641C44.6992 23.8217 45.4954 23.6505 46.2981 23.6505C46.9693 23.6505 47.4759 23.7427 47.818 23.927V20.6283C47.818 20.1147 47.5877 19.8579 47.1272 19.8579L46.91 19.8777V19.7196C49.2129 19.2456 50.7789 18.7517 51.608 18.2382L51.6672 18.3369V32.7764ZM47.818 24.9542C47.818 24.6382 47.7457 24.388 47.6009 24.2036C47.4562 24.0192 47.2785 23.927 47.0679 23.927C46.7784 23.927 46.4889 24.0917 46.1994 24.4209C45.9099 24.7369 45.6665 25.2308 45.4691 25.9024C45.2717 26.574 45.173 27.4102 45.173 28.411C45.173 29.2275 45.2717 29.9517 45.4691 30.5838C45.6665 31.2028 45.9099 31.6834 46.1994 32.0258C46.5021 32.355 46.7916 32.5196 47.0679 32.5196C47.2917 32.5196 47.4693 32.4077 47.6009 32.1838C47.7325 31.96 47.8049 31.6242 47.818 31.1764V24.9542Z" fill="#444444"/>
<path d="M64.9737 33.5468H62.8222H61.7365C61.2628 33.5336 60.9009 33.4415 60.6508 33.2703C60.4008 33.0859 60.2561 32.7369 60.2166 32.2233C60.006 32.7633 59.6047 33.1781 59.0125 33.4678C58.4203 33.7443 57.7558 33.8826 57.0188 33.8826C56.374 33.8826 55.7621 33.7707 55.1831 33.5468C54.6041 33.3229 54.1435 33.0003 53.8013 32.5789C53.4724 32.1443 53.3342 31.6242 53.3868 31.0184C53.4526 30.3468 53.6829 29.7937 54.0777 29.3591C54.4856 28.9114 54.9528 28.569 55.4792 28.332C56.0187 28.0949 56.703 27.8447 57.5321 27.5814C58.1637 27.3838 58.644 27.2192 58.973 27.0875C59.3152 26.9427 59.5981 26.7649 59.8218 26.5542C60.0587 26.3303 60.1771 26.0604 60.1771 25.7443C60.1771 25.0464 60.0718 24.5526 59.8613 24.2629C59.6507 23.96 59.2625 23.8217 58.6967 23.848C58.2887 23.8612 57.9532 24.0126 57.69 24.3024C57.4268 24.5921 57.2952 24.9213 57.2952 25.29C57.2952 25.5534 57.3741 25.7904 57.5321 26.0011C57.7031 26.2118 57.9532 26.3698 58.2821 26.4752C58.0847 26.7781 57.7294 27.0349 57.2162 27.2456C56.7162 27.4563 56.2095 27.5616 55.6963 27.5616C55.1831 27.5616 54.7488 27.4365 54.3935 27.1863C54.0514 26.9361 53.8803 26.5542 53.8803 26.0406C53.8803 25.5402 54.1172 25.1056 54.5909 24.7369C55.0646 24.355 55.67 24.0653 56.4069 23.8678C57.1438 23.6571 57.9071 23.5517 58.6967 23.5517C60.21 23.5517 61.4865 23.8744 62.5261 24.5196C63.5657 25.1517 64.0855 26.383 64.0855 28.2135V32.7764C64.0855 33.1583 64.2171 33.3493 64.4803 33.3493H64.9737V33.5468ZM57.8874 32.3024C58.0189 32.4077 58.1834 32.4933 58.3808 32.5591C58.5782 32.625 58.7756 32.6579 58.973 32.6579C59.302 32.6579 59.5849 32.546 59.8218 32.3221C60.0587 32.0851 60.1837 31.7163 60.1968 31.2159V26.4554C59.9205 26.9163 59.4599 27.4958 58.8151 28.1937C58.4598 28.6019 58.1834 28.9246 57.9861 29.1616C57.8018 29.3855 57.6505 29.6225 57.5321 29.8727C57.361 30.2019 57.2754 30.5509 57.2754 30.9196C57.2754 31.1962 57.3281 31.4596 57.4334 31.7098C57.5386 31.9468 57.69 32.1443 57.8874 32.3024Z" fill="#444444"/>
<path d="M77.6055 33.1912L77.6193 33.6914H71.4073V33.4469L71.96 33.1912H72.4432C72.7064 33.1912 72.8483 33.1912 72.8483 33.1912V26.3369C72.8483 25.4019 72.6114 24.9345 72.1377 24.9345C71.8877 24.9345 71.7227 25.0593 71.4069 25.2963C71.1042 25.5334 70.7296 26.0472 70.5191 26.3369V33.1912H70.9139H71.96L72.0977 33.4939L71.4073 33.6914H65.7619V33.1976H66.2554C66.5186 33.1976 66.6502 33.1976 66.6502 33.1976V20.6283C66.6502 20.1147 66.4265 19.8579 65.9791 19.8579L65.7619 19.8777V19.7196C68.0517 19.2456 69.6111 18.7517 70.4401 18.2382L70.5191 18.3369V25.4939C70.7954 25.1251 71.1536 24.7628 71.6536 24.4075C72.1806 24.0329 72.5106 23.8374 73.1341 23.6667C73.51 23.5638 73.7315 23.5052 74.121 23.5186C74.9067 23.5455 75.467 23.848 75.9671 24.3221C76.4672 24.7962 76.7172 25.5205 76.7172 26.4949V32.7764C76.7172 32.9476 76.7172 33.1912 76.7172 33.1912C76.7172 33.1912 76.9997 33.1912 77.1312 33.1912H77.6055Z" fill="#444444"/>
<path d="M48.9884 38.9894C48.5043 38.5027 48.2622 37.9214 48.2622 37.2453C48.2622 36.5693 48.5043 35.989 48.9884 35.5045C49.4725 35.0201 50.0524 34.7778 50.728 34.7778C51.2781 34.7778 51.7787 34.9485 52.2299 35.2898L51.8371 35.6829C51.4938 35.4209 51.1241 35.2898 50.728 35.2898C50.2152 35.2898 49.7773 35.4814 49.4142 35.8646C49.0511 36.2478 48.8696 36.708 48.8696 37.2453C48.8696 37.7826 49.0511 38.2429 49.4142 38.6261C49.7773 39.0092 50.2152 39.2008 50.728 39.2008C51.1659 39.2008 51.5543 39.0566 51.8932 38.7681V37.5855V37.4939H52.5005V38.963C52.3619 39.1017 52.2266 39.2151 52.0945 39.3032C51.6808 39.5785 51.2253 39.7161 50.728 39.7161C50.0524 39.7161 49.4725 39.4739 48.9884 38.9894Z" fill="black"/>
<path d="M53.3945 39.7293V35.5865H53.8918L53.9929 35.8778C54.3459 35.6081 54.5424 35.5496 54.9349 35.5186C55.4311 35.4795 55.8553 35.7815 56.1087 35.9137L55.8619 36.3581C55.6248 36.2745 55.3211 36.0509 54.9349 36.0618C54.5755 36.0719 54.3109 36.2028 54.0818 36.4078V39.7293H53.3945Z" fill="black"/>
<path d="M71.1597 39.6833V35.5405H71.6569L71.758 35.8318C72.1111 35.5621 72.3075 35.5035 72.7 35.4726C73.1963 35.4335 73.6205 35.7355 73.8738 35.8676L73.6271 36.3121C73.3899 36.2285 73.0862 36.0049 72.7 36.0158C72.3407 36.0259 72.076 36.1568 71.847 36.3618V39.6833H71.1597Z" fill="black"/>
<path d="M57.246 39.1298C56.8496 38.7174 56.6514 38.2104 56.6514 37.6088C56.6514 37.0072 56.8496 36.5002 57.246 36.0878C57.645 35.6753 58.1556 35.4691 58.7777 35.4691C59.3973 35.4691 59.9079 35.6766 60.3095 36.0917C60.7138 36.5068 60.9159 37.0125 60.9159 37.6088C60.9159 38.2051 60.7138 38.7108 60.3095 39.1259C59.9079 39.541 59.3973 39.7485 58.7777 39.7485C58.153 39.7485 57.6424 39.5423 57.246 39.1298ZM57.7027 36.5252C57.435 36.8168 57.3011 37.178 57.3011 37.6088C57.3011 38.0396 57.435 38.4022 57.7027 38.6964C57.9731 38.988 58.3315 39.1338 58.7777 39.1338C59.2188 39.1338 59.5745 38.988 59.8449 38.6964C60.1179 38.4022 60.2544 38.0396 60.2544 37.6088C60.2544 37.178 60.1179 36.8168 59.8449 36.5252C59.5745 36.2309 59.2188 36.0838 58.7777 36.0838C58.3315 36.0838 57.9731 36.2309 57.7027 36.5252Z" fill="black"/>
<path d="M62.2535 39.1219C61.8413 38.7042 61.6353 38.1998 61.6353 37.6087C61.6353 37.0176 61.8413 36.5133 62.2535 36.0956C62.6682 35.6779 63.1191 35.4866 63.7537 35.469C64.3887 35.4515 65.1884 36.0122 65.1884 36.0122L64.8923 36.4567C64.8923 36.4567 64.2208 36.0568 63.7537 36.0837C63.3137 36.1092 62.999 36.2335 62.7181 36.533C62.4372 36.8298 62.2968 37.1884 62.2968 37.6087C62.2968 38.029 62.4372 38.3889 62.7181 38.6884C63.0016 38.9853 63.3136 39.1375 63.7537 39.1337C64.2568 39.1294 64.8923 38.5308 64.8923 38.5308L65.2871 39.0246C65.2871 39.0246 64.4158 39.7395 63.7537 39.7484C63.1189 39.7569 62.6682 39.5396 62.2535 39.1219Z" fill="black"/>
<path d="M65.9297 37.5769C65.9297 36.9356 66.1392 36.4246 66.5583 36.044C66.9774 35.6607 67.4132 35.4691 68.101 35.4691C69.4702 35.4691 70.2723 36.2565 70.2723 37.8311H66.7454C66.7774 38.1622 66.9262 38.4581 67.1917 38.7188C67.4572 38.9769 67.7321 38.9753 68.101 38.9753C68.6932 38.9753 69.1867 38.4815 69.1867 38.4815L69.5814 38.9259C69.5814 38.9259 68.7476 39.5777 68.101 39.6173C67.7976 39.6358 67.6651 39.6587 67.326 39.544C66.9902 39.4293 66.7214 39.2715 66.5199 39.0708C66.3216 38.87 66.1728 38.6445 66.0736 38.3942C65.9777 38.144 65.9297 37.8715 65.9297 37.5769ZM66.7742 37.3032H69.4278C69.383 36.946 69.2614 36.6527 69.0631 36.4233C68.8648 36.1939 68.4785 36.1111 68.101 36.1111C67.7267 36.1111 67.5068 36.1913 67.2445 36.4155C66.9822 36.6397 66.8254 36.9356 66.7742 37.3032Z" fill="black"/>
<path d="M74.3179 35.4691H75.0635L76.1342 38.1697L77.2316 35.4691H77.9696L75.7136 41H74.9756L75.813 38.9727L74.3179 35.4691Z" fill="black"/>
</svg>
