<svg width="20" height="20" viewBox="0 0 20 20" fill="none" xmlns="http://www.w3.org/2000/svg">
<path d="M6.35171 0C7.27943 0 8.0315 0.752068 8.0315 1.67979L8.0315 9.88235C8.0315 12.5752 7.30971 14.7843 5.86614 16.5098C4.84017 17.7547 3.55568 18.7025 2.01266 19.3532C1.01587 19.7735 0 18.9654 0 17.8836V16.8468C0 16.1102 0.492374 15.4838 1.15319 15.1583C1.41282 15.0304 1.64522 14.8927 1.85039 14.7451C2.32284 14.4052 2.69029 14 2.95275 13.5294C3.21522 13.0588 3.38583 12.5098 3.46457 11.8824C3.54331 11.281 3.58268 10.6144 3.58268 9.88235C3.58268 9.29758 3.10863 8.82353 2.52385 8.82353L1.67979 8.82353C0.752066 8.82353 0 8.07146 0 7.14374V1.67979C0 0.752069 0.752068 0 1.67979 0H6.35171ZM18.3202 0C19.2479 0 20 0.752068 20 1.67979V9.88235C20 12.5752 19.2782 14.7843 17.8346 16.5098C16.8087 17.7547 15.5242 18.7025 13.9812 19.3532C12.9844 19.7735 11.9685 18.9654 11.9685 17.8836V16.8468C11.9685 16.1102 12.4609 15.4838 13.1217 15.1583C13.3813 15.0304 13.6137 14.8927 13.8189 14.7451C14.2913 14.4052 14.6588 14 14.9213 13.5294C15.1575 13.0588 15.3281 12.5098 15.4331 11.8824C15.5118 11.281 15.5512 10.6144 15.5512 9.88235C15.5512 9.29758 15.0771 8.82353 14.4924 8.82353H13.6483C12.7206 8.82353 11.9685 8.07146 11.9685 7.14374L11.9685 1.67979C11.9685 0.752069 12.7206 0 13.6483 0H18.3202Z" fill="#585858"/>
</svg>
